%TF.GenerationSoftware,KiCad,Pcbnew,8.99.0-unknown-ce20689caf~181~ubuntu24.04.1*%
%TF.CreationDate,2024-12-06T11:41:52-05:00*%
%TF.ProjectId,nRF54L15_nPM2100_CR2032,6e524635-344c-4313-955f-6e504d323130,rev?*%
%TF.SameCoordinates,Original*%
%TF.FileFunction,Copper,L3,Inr*%
%TF.FilePolarity,Positive*%
%FSLAX46Y46*%
G04 Gerber Fmt 4.6, Leading zero omitted, Abs format (unit mm)*
G04 Created by KiCad (PCBNEW 8.99.0-unknown-ce20689caf~181~ubuntu24.04.1) date 2024-12-06 11:41:52*
%MOMM*%
%LPD*%
G01*
G04 APERTURE LIST*
%TA.AperFunction,ViaPad*%
%ADD10C,0.300000*%
%TD*%
%TA.AperFunction,ViaPad*%
%ADD11C,0.250000*%
%TD*%
%TA.AperFunction,ViaPad*%
%ADD12C,0.600000*%
%TD*%
%TA.AperFunction,Conductor*%
%ADD13C,0.150000*%
%TD*%
%TA.AperFunction,Conductor*%
%ADD14C,0.100000*%
%TD*%
G04 APERTURE END LIST*
D10*
%TO.N,GND*%
X189000000Y-65000000D03*
X189450000Y-66720000D03*
X189440000Y-57830000D03*
X181400000Y-54150000D03*
X180500000Y-58500000D03*
X187500000Y-65000000D03*
X192000000Y-46000000D03*
X182500000Y-60000000D03*
X193861558Y-50077782D03*
X194000000Y-65000000D03*
X188000000Y-44000000D03*
D11*
X194090000Y-61830000D03*
D10*
X188000000Y-46000000D03*
X200000000Y-57000000D03*
D11*
X194560000Y-61330000D03*
X186106274Y-48326274D03*
D10*
X199100000Y-51950000D03*
X190000000Y-46000000D03*
D11*
X183204505Y-50111243D03*
D10*
X181400000Y-57050000D03*
X188170000Y-52460000D03*
X192000000Y-44000000D03*
X193033726Y-49286274D03*
X186000000Y-46000000D03*
X188000000Y-48000000D03*
D11*
X189130000Y-59673800D03*
D10*
X196138442Y-49922218D03*
D11*
X188440000Y-61713800D03*
X188140000Y-62760000D03*
D10*
X200000000Y-53000000D03*
X185000000Y-56000000D03*
X198000000Y-57000000D03*
D11*
X189130000Y-61713800D03*
X194440000Y-59080000D03*
X187770000Y-59500000D03*
D10*
X192000000Y-63000000D03*
X181400000Y-56050000D03*
X185000000Y-62500000D03*
D11*
X188120000Y-62210000D03*
D10*
X192000000Y-65000000D03*
X188780000Y-63210000D03*
D11*
X195380000Y-59370000D03*
D10*
X180500000Y-51500000D03*
X194000000Y-64000000D03*
D11*
X190300000Y-62080000D03*
D10*
X190190000Y-65370000D03*
X196626274Y-49206274D03*
X183560000Y-53320000D03*
X192000000Y-66000000D03*
X200000000Y-55000000D03*
D11*
X189860000Y-58813800D03*
D12*
X190000000Y-55000000D03*
D11*
X192557697Y-60350000D03*
X192050000Y-59590000D03*
D10*
X190000000Y-48000000D03*
X186000000Y-55000000D03*
X194568665Y-50784889D03*
X189000000Y-64000000D03*
X192000000Y-64000000D03*
X186075000Y-52775000D03*
X196000000Y-53000000D03*
X189000000Y-66000000D03*
X181410000Y-53080000D03*
X192000000Y-48000000D03*
X194530198Y-49176645D03*
X194000000Y-63000000D03*
X195083726Y-47633726D03*
D11*
X187730000Y-61703800D03*
D10*
X190190000Y-63570000D03*
X190000000Y-50000000D03*
X199100000Y-55000000D03*
D11*
%TO.N,Net-(U1-DECA)*%
X190150000Y-61720000D03*
X188780000Y-61073800D03*
D10*
%TO.N,Net-(BT1-+)*%
X177050000Y-55100000D03*
%TO.N,/INT2*%
X195650000Y-51700000D03*
X195823355Y-50469802D03*
%TO.N,/VDD_LS*%
X182050000Y-53080000D03*
X192690000Y-48370000D03*
X184159099Y-49156649D03*
%TO.N,VDD*%
X190500000Y-58460000D03*
D11*
X197000000Y-57400000D03*
D10*
X184590000Y-57850000D03*
X192510842Y-60990000D03*
X191400000Y-50000000D03*
D11*
%TO.N,Net-(J1-SWDIO)*%
X191443000Y-61118200D03*
D10*
X199080000Y-59480000D03*
%TO.N,Net-(J1-SWCLK)*%
X198140000Y-60340000D03*
D11*
X191143000Y-60818200D03*
%TO.N,Net-(J1-~{RESET})*%
X195890000Y-59090000D03*
X190843000Y-61118200D03*
%TO.N,Net-(U1-P1.00)*%
X192192500Y-58154480D03*
X190542873Y-60219001D03*
D10*
%TO.N,/SDA*%
X193700000Y-50940000D03*
X183890000Y-58490000D03*
D11*
X190843000Y-59918200D03*
%TO.N,/SCL*%
X191510000Y-59330000D03*
D10*
X184590000Y-58490000D03*
X193350000Y-50570000D03*
D11*
%TO.N,/UART_TX*%
X191142197Y-59618200D03*
D10*
X195000000Y-55000000D03*
%TO.N,/UART_RX*%
X196300000Y-53500000D03*
D11*
X192780000Y-59370000D03*
X189943000Y-60818200D03*
%TO.N,/LED*%
X190242317Y-61116438D03*
D10*
X184580000Y-53320000D03*
D11*
%TO.N,/PDM_DATA*%
X184795495Y-49793045D03*
D10*
X194200000Y-52970000D03*
D11*
%TO.N,/PDM_CLK*%
X183840901Y-50747639D03*
D10*
X194210000Y-53620000D03*
%TO.N,/BUTTON0*%
X187170000Y-53925000D03*
D11*
X190940000Y-58870000D03*
%TO.N,/LSW*%
X190543000Y-60818200D03*
D10*
X186340000Y-60590000D03*
D11*
%TO.N,/LFCLK1*%
X190243000Y-59918200D03*
X191368827Y-58155807D03*
%TD*%
D13*
%TO.N,Net-(J1-~{RESET})*%
X194620000Y-59480000D02*
X195270000Y-58830000D01*
X193410000Y-60000000D02*
X193930000Y-59480000D01*
X193040000Y-61510000D02*
X193410000Y-61140000D01*
X190958200Y-61118200D02*
X191350000Y-61510000D01*
X190843000Y-61118200D02*
X190958200Y-61118200D01*
X191350000Y-61510000D02*
X193040000Y-61510000D01*
X193930000Y-59480000D02*
X194620000Y-59480000D01*
X195630000Y-58830000D02*
X195890000Y-59090000D01*
X195270000Y-58830000D02*
X195630000Y-58830000D01*
X193410000Y-61140000D02*
X193410000Y-60000000D01*
D14*
%TO.N,/SDA*%
X183810000Y-58860000D02*
X183560000Y-58860000D01*
D13*
X188340000Y-57950000D02*
X185090000Y-57950000D01*
X190030000Y-59110000D02*
X189500000Y-59110000D01*
X184870000Y-58170000D02*
X184010000Y-58170000D01*
X189500000Y-59110000D02*
X188340000Y-57950000D01*
D14*
X183560000Y-58860000D02*
X183190000Y-58490000D01*
D13*
X190843000Y-59918200D02*
X190838200Y-59918200D01*
D14*
X183190000Y-58490000D02*
X183190000Y-56620000D01*
X188770000Y-51040000D02*
X193600000Y-51040000D01*
D13*
X184010000Y-58170000D02*
X183890000Y-58290000D01*
D14*
X183890000Y-58490000D02*
X183890000Y-58780000D01*
D13*
X190838200Y-59918200D02*
X190030000Y-59110000D01*
D14*
X183890000Y-58780000D02*
X183810000Y-58860000D01*
D13*
X183890000Y-58290000D02*
X183890000Y-58490000D01*
X185090000Y-57950000D02*
X184870000Y-58170000D01*
D14*
X183190000Y-56620000D02*
X188770000Y-51040000D01*
X193600000Y-51040000D02*
X193700000Y-50940000D01*
%TO.N,/SCL*%
X184220000Y-58590000D02*
X184220000Y-58880000D01*
X193170000Y-50750000D02*
X193350000Y-50570000D01*
D13*
X184590000Y-58490000D02*
X184590000Y-58680000D01*
D14*
X183990000Y-59110000D02*
X183350000Y-59110000D01*
X183350000Y-59110000D02*
X182950000Y-58710000D01*
X188640000Y-50750000D02*
X189170000Y-50750000D01*
X183290000Y-56100000D02*
X188640000Y-50750000D01*
X184590000Y-58680000D02*
X184860000Y-58950000D01*
X190190000Y-60520000D02*
X190710000Y-60520000D01*
X191320000Y-59815023D02*
X191510000Y-59625023D01*
X182950000Y-58710000D02*
X182950000Y-56440000D01*
X184410000Y-58490000D02*
X184320000Y-58490000D01*
X191510000Y-59625023D02*
X191510000Y-59330000D01*
X185250000Y-58950000D02*
X186630000Y-60330000D01*
X189170000Y-50750000D02*
X193170000Y-50750000D01*
X191320000Y-59910000D02*
X191320000Y-59815023D01*
X184590000Y-58490000D02*
X184410000Y-58490000D01*
X184410000Y-58490000D02*
X184590000Y-58670000D01*
X186630000Y-60330000D02*
X190000000Y-60330000D01*
X190710000Y-60520000D02*
X191320000Y-59910000D01*
X190000000Y-60330000D02*
X190190000Y-60520000D01*
X182950000Y-56440000D02*
X183290000Y-56100000D01*
X184220000Y-58880000D02*
X183990000Y-59110000D01*
X184860000Y-58950000D02*
X185250000Y-58950000D01*
X184590000Y-58670000D02*
X184590000Y-58680000D01*
X184320000Y-58490000D02*
X184220000Y-58590000D01*
D13*
%TO.N,/UART_TX*%
X192860000Y-59040000D02*
X195000000Y-56900000D01*
X195000000Y-56900000D02*
X195000000Y-55000000D01*
X191370000Y-59040000D02*
X192860000Y-59040000D01*
X191130000Y-59280000D02*
X191370000Y-59040000D01*
X191142197Y-59618200D02*
X191130000Y-59606003D01*
X191130000Y-59606003D02*
X191130000Y-59280000D01*
%TO.N,/UART_RX*%
X197000000Y-55370000D02*
X197000000Y-54200000D01*
X192780000Y-59370000D02*
X193000000Y-59370000D01*
X197000000Y-54200000D02*
X196300000Y-53500000D01*
X193000000Y-59370000D02*
X197000000Y-55370000D01*
%TO.N,/LED*%
X189250000Y-60690000D02*
X189676438Y-61116438D01*
X182640000Y-56230000D02*
X182640000Y-58830000D01*
X186330000Y-61200000D02*
X187690000Y-61200000D01*
X188200000Y-60690000D02*
X189250000Y-60690000D01*
X187690000Y-61200000D02*
X188200000Y-60690000D01*
X185910000Y-60780000D02*
X186330000Y-61200000D01*
X183230000Y-59420000D02*
X185230000Y-59420000D01*
X184580000Y-54290000D02*
X182640000Y-56230000D01*
X184580000Y-53320000D02*
X184580000Y-54290000D01*
X182640000Y-58830000D02*
X183230000Y-59420000D01*
X189676438Y-61116438D02*
X190242317Y-61116438D01*
X185230000Y-59420000D02*
X185910000Y-60100000D01*
X185910000Y-60100000D02*
X185910000Y-60780000D01*
%TD*%
%TA.AperFunction,Conductor*%
%TO.N,GND*%
G36*
X188274134Y-58170512D02*
G01*
X189385293Y-59281672D01*
X189425834Y-59298464D01*
X189459720Y-59312500D01*
X189459721Y-59312500D01*
X189540280Y-59312500D01*
X189920648Y-59312500D01*
X189964135Y-59330513D01*
X190203031Y-59569409D01*
X190221044Y-59612896D01*
X190203031Y-59656383D01*
X190183080Y-59669714D01*
X190099971Y-59704139D01*
X190028941Y-59775169D01*
X189990500Y-59867974D01*
X189990500Y-59968425D01*
X190031259Y-60066826D01*
X190028238Y-60068077D01*
X190035186Y-60102996D01*
X190009036Y-60142134D01*
X189974867Y-60152500D01*
X186728996Y-60152500D01*
X186685509Y-60134487D01*
X186024052Y-59473030D01*
X185350546Y-58799523D01*
X185326879Y-58789720D01*
X185326879Y-58789719D01*
X185326877Y-58789719D01*
X185285310Y-58772500D01*
X185285307Y-58772500D01*
X184958997Y-58772500D01*
X184915510Y-58754487D01*
X184865359Y-58704336D01*
X184847346Y-58660849D01*
X184848307Y-58650022D01*
X184865526Y-58553877D01*
X184865373Y-58542560D01*
X184865274Y-58534836D01*
X184867500Y-58526534D01*
X184867500Y-58453466D01*
X184864070Y-58440666D01*
X184863972Y-58432970D01*
X184870061Y-58417719D01*
X184872205Y-58401436D01*
X184878490Y-58396612D01*
X184881428Y-58389256D01*
X184896519Y-58382777D01*
X184905216Y-58376104D01*
X184904684Y-58374819D01*
X184909479Y-58372832D01*
X184909548Y-58372780D01*
X184909681Y-58372748D01*
X184919843Y-58368539D01*
X184948393Y-58356713D01*
X184984705Y-58341672D01*
X184984705Y-58341671D01*
X184984707Y-58341671D01*
X185155865Y-58170513D01*
X185199352Y-58152500D01*
X188230648Y-58152500D01*
X188274134Y-58170512D01*
G37*
%TD.AperFunction*%
%TA.AperFunction,Conductor*%
G36*
X188253435Y-43420780D02*
G01*
X188381632Y-43435224D01*
X188395058Y-43438288D01*
X188421480Y-43447533D01*
X188513558Y-43479753D01*
X188525954Y-43485722D01*
X188632259Y-43552517D01*
X188643026Y-43561104D01*
X188731795Y-43649872D01*
X188740381Y-43660639D01*
X188807170Y-43766931D01*
X188813145Y-43779337D01*
X188815804Y-43786936D01*
X188854609Y-43897835D01*
X188857673Y-43911260D01*
X188872113Y-44039396D01*
X188872500Y-44046283D01*
X188872500Y-44136429D01*
X188906220Y-44305950D01*
X188906222Y-44305958D01*
X188972370Y-44465654D01*
X188972374Y-44465661D01*
X189068395Y-44609367D01*
X189068400Y-44609373D01*
X189190626Y-44731599D01*
X189190632Y-44731604D01*
X189334338Y-44827625D01*
X189334345Y-44827629D01*
X189334348Y-44827631D01*
X189494043Y-44893778D01*
X189663570Y-44927499D01*
X189663571Y-44927500D01*
X189663574Y-44927500D01*
X190336429Y-44927500D01*
X190336429Y-44927499D01*
X190505957Y-44893778D01*
X190665652Y-44827631D01*
X190809374Y-44731599D01*
X190931599Y-44609374D01*
X191027631Y-44465652D01*
X191093778Y-44305957D01*
X191127499Y-44136429D01*
X191127500Y-44136429D01*
X191127500Y-44046343D01*
X191127887Y-44039457D01*
X191129978Y-44020899D01*
X191142332Y-43911258D01*
X191145393Y-43897844D01*
X191186864Y-43779333D01*
X191192833Y-43766939D01*
X191259628Y-43660637D01*
X191268205Y-43649881D01*
X191356984Y-43561104D01*
X191367740Y-43552525D01*
X191474054Y-43485725D01*
X191486440Y-43479760D01*
X191604943Y-43438294D01*
X191618369Y-43435231D01*
X191746630Y-43420780D01*
X191753516Y-43420393D01*
X191779101Y-43420393D01*
X192435366Y-43420393D01*
X192435368Y-43420394D01*
X192462049Y-43420393D01*
X192466871Y-43420582D01*
X192596133Y-43430752D01*
X192605658Y-43432261D01*
X192729376Y-43461964D01*
X192738542Y-43464942D01*
X192856092Y-43513639D01*
X192864687Y-43518019D01*
X192973156Y-43584499D01*
X192980965Y-43590173D01*
X193079861Y-43674655D01*
X193083401Y-43677928D01*
X193085212Y-43679739D01*
X193101981Y-43696512D01*
X193101987Y-43696513D01*
X193107535Y-43702061D01*
X201224906Y-51819432D01*
X201225116Y-51819603D01*
X201265494Y-51859986D01*
X201350910Y-51922052D01*
X201409054Y-51964302D01*
X201409066Y-51964310D01*
X201409068Y-51964311D01*
X201409073Y-51964314D01*
X201567194Y-52044888D01*
X201567198Y-52044889D01*
X201735977Y-52099734D01*
X201911264Y-52127499D01*
X201962404Y-52127499D01*
X201962408Y-52127500D01*
X201974639Y-52127500D01*
X202000000Y-52127500D01*
X202029101Y-52127500D01*
X204970899Y-52127500D01*
X204996977Y-52127500D01*
X205003005Y-52127796D01*
X205164190Y-52143671D01*
X205176010Y-52146022D01*
X205328098Y-52192157D01*
X205339229Y-52196768D01*
X205409313Y-52234229D01*
X205479393Y-52271688D01*
X205489417Y-52278386D01*
X205612268Y-52379206D01*
X205620793Y-52387731D01*
X205721613Y-52510582D01*
X205728311Y-52520606D01*
X205803229Y-52660766D01*
X205807843Y-52671905D01*
X205853976Y-52823987D01*
X205856328Y-52835811D01*
X205872204Y-52996994D01*
X205872500Y-53003022D01*
X205872500Y-56996977D01*
X205872204Y-57003005D01*
X205856328Y-57164188D01*
X205853976Y-57176012D01*
X205807843Y-57328094D01*
X205803229Y-57339233D01*
X205728311Y-57479393D01*
X205721613Y-57489417D01*
X205620793Y-57612268D01*
X205612268Y-57620793D01*
X205489417Y-57721613D01*
X205479393Y-57728311D01*
X205339233Y-57803229D01*
X205328094Y-57807843D01*
X205176012Y-57853976D01*
X205164188Y-57856328D01*
X205003005Y-57872204D01*
X204996977Y-57872500D01*
X202383067Y-57872500D01*
X202382676Y-57872537D01*
X202325474Y-57872537D01*
X202150201Y-57900293D01*
X201981416Y-57955127D01*
X201981409Y-57955130D01*
X201823290Y-58035685D01*
X201679708Y-58139989D01*
X201679699Y-58139996D01*
X201638397Y-58181292D01*
X201634885Y-58184803D01*
X201634884Y-58184804D01*
X201618277Y-58201411D01*
X201616958Y-58202730D01*
X201598715Y-58220968D01*
X201592880Y-58226803D01*
X201592865Y-58226821D01*
X197353299Y-62466388D01*
X193223314Y-66596373D01*
X193223313Y-66596374D01*
X193221030Y-66598657D01*
X193220746Y-66598941D01*
X193220722Y-66598950D01*
X193139982Y-66679693D01*
X193035669Y-66823272D01*
X193035667Y-66823275D01*
X192988209Y-66916420D01*
X192952417Y-66946990D01*
X192933412Y-66950000D01*
X187066557Y-66950000D01*
X187023070Y-66931987D01*
X187011759Y-66916417D01*
X186964316Y-66823292D01*
X186955332Y-66810925D01*
X186860010Y-66679707D01*
X186838294Y-66657988D01*
X186821109Y-66640800D01*
X186821109Y-66640801D01*
X186815197Y-66634888D01*
X186815196Y-66634884D01*
X186794937Y-66614625D01*
X186794673Y-66614361D01*
X186772563Y-66592246D01*
X186772534Y-66592222D01*
X178412273Y-58231961D01*
X178401064Y-58220750D01*
X178401054Y-58220727D01*
X178320306Y-58139982D01*
X178248356Y-58087709D01*
X178176728Y-58035669D01*
X178176725Y-58035667D01*
X178018593Y-57955098D01*
X177849811Y-57900260D01*
X177732950Y-57881752D01*
X177674521Y-57872499D01*
X177674520Y-57872499D01*
X177585784Y-57872500D01*
X175003023Y-57872500D01*
X174996995Y-57872204D01*
X174835811Y-57856328D01*
X174823987Y-57853976D01*
X174671905Y-57807843D01*
X174660766Y-57803229D01*
X174520606Y-57728311D01*
X174510582Y-57721613D01*
X174387731Y-57620793D01*
X174379206Y-57612268D01*
X174278386Y-57489417D01*
X174271688Y-57479393D01*
X174202405Y-57349775D01*
X174196768Y-57339229D01*
X174192157Y-57328098D01*
X174146022Y-57176010D01*
X174143671Y-57164188D01*
X174142027Y-57147500D01*
X174127796Y-57003005D01*
X174127500Y-56996977D01*
X174127500Y-56189720D01*
X182437500Y-56189720D01*
X182437500Y-58870279D01*
X182437501Y-58870285D01*
X182468327Y-58944705D01*
X183115294Y-59591672D01*
X183189714Y-59622498D01*
X183189717Y-59622499D01*
X183189720Y-59622500D01*
X183270280Y-59622500D01*
X185120648Y-59622500D01*
X185164135Y-59640513D01*
X185689487Y-60165865D01*
X185707500Y-60209352D01*
X185707500Y-60820279D01*
X185707501Y-60820285D01*
X185738327Y-60894705D01*
X186215293Y-61371672D01*
X186256443Y-61388716D01*
X186256444Y-61388717D01*
X186256445Y-61388717D01*
X186289720Y-61402500D01*
X186289721Y-61402500D01*
X187730279Y-61402500D01*
X187730280Y-61402500D01*
X187763557Y-61388716D01*
X187804705Y-61371672D01*
X187804705Y-61371671D01*
X187804707Y-61371671D01*
X188265865Y-60910513D01*
X188309352Y-60892500D01*
X188489751Y-60892500D01*
X188533238Y-60910513D01*
X188551251Y-60954000D01*
X188546570Y-60977535D01*
X188538301Y-60997500D01*
X188527500Y-61023575D01*
X188527500Y-61124025D01*
X188565941Y-61216830D01*
X188636970Y-61287859D01*
X188729775Y-61326300D01*
X188729776Y-61326300D01*
X188830224Y-61326300D01*
X188830225Y-61326300D01*
X188923030Y-61287859D01*
X188994059Y-61216830D01*
X189032500Y-61124025D01*
X189032500Y-61023575D01*
X189020535Y-60994690D01*
X189013430Y-60977535D01*
X189013430Y-60965301D01*
X189008749Y-60954000D01*
X189013430Y-60942697D01*
X189013431Y-60930465D01*
X189022080Y-60921815D01*
X189026762Y-60910513D01*
X189038063Y-60905831D01*
X189046714Y-60897181D01*
X189070249Y-60892500D01*
X189140648Y-60892500D01*
X189184135Y-60910513D01*
X189561732Y-61288110D01*
X189636152Y-61318936D01*
X189636155Y-61318937D01*
X189636158Y-61318938D01*
X189954238Y-61318938D01*
X189973227Y-61322852D01*
X189973472Y-61322084D01*
X189976343Y-61322998D01*
X189976344Y-61322998D01*
X189976346Y-61322999D01*
X190094640Y-61348224D01*
X190133414Y-61374910D01*
X190141962Y-61421198D01*
X190115276Y-61459972D01*
X190105349Y-61465191D01*
X190006969Y-61505941D01*
X189935941Y-61576969D01*
X189916168Y-61624707D01*
X189897500Y-61669775D01*
X189897500Y-61770225D01*
X189935941Y-61863030D01*
X190006970Y-61934059D01*
X190099775Y-61972500D01*
X190099776Y-61972500D01*
X190200224Y-61972500D01*
X190200225Y-61972500D01*
X190293030Y-61934059D01*
X190364059Y-61863030D01*
X190368159Y-61853132D01*
X190368161Y-61853128D01*
X195499569Y-61853128D01*
X195499569Y-61975815D01*
X195523501Y-62096129D01*
X195523506Y-62096146D01*
X195570448Y-62209471D01*
X195570451Y-62209478D01*
X195570452Y-62209479D01*
X195638608Y-62311483D01*
X195725357Y-62398232D01*
X195725356Y-62398232D01*
X195776531Y-62432425D01*
X195827363Y-62466390D01*
X195880165Y-62488261D01*
X195940694Y-62513334D01*
X195940698Y-62513335D01*
X195940705Y-62513338D01*
X196061025Y-62537271D01*
X196061026Y-62537272D01*
X196061029Y-62537272D01*
X196183712Y-62537272D01*
X196183712Y-62537271D01*
X196304033Y-62513338D01*
X196417375Y-62466390D01*
X196519381Y-62398232D01*
X196606129Y-62311484D01*
X196674287Y-62209478D01*
X196721235Y-62096136D01*
X196745168Y-61975815D01*
X196745169Y-61975815D01*
X196745169Y-61853129D01*
X196745168Y-61853128D01*
X196739886Y-61826576D01*
X196721235Y-61732808D01*
X196721232Y-61732801D01*
X196721231Y-61732797D01*
X196695125Y-61669774D01*
X196674287Y-61619466D01*
X196606129Y-61517460D01*
X196519381Y-61430712D01*
X196519380Y-61430711D01*
X196519381Y-61430711D01*
X196433935Y-61373619D01*
X196417375Y-61362554D01*
X196417368Y-61362551D01*
X196304043Y-61315609D01*
X196304026Y-61315604D01*
X196183712Y-61291672D01*
X196183709Y-61291672D01*
X196061029Y-61291672D01*
X196061026Y-61291672D01*
X195940711Y-61315604D01*
X195940694Y-61315609D01*
X195827369Y-61362551D01*
X195827361Y-61362555D01*
X195725357Y-61430711D01*
X195638608Y-61517460D01*
X195570452Y-61619464D01*
X195570448Y-61619472D01*
X195523506Y-61732797D01*
X195523501Y-61732814D01*
X195499569Y-61853128D01*
X190368161Y-61853128D01*
X190379158Y-61826580D01*
X190379159Y-61826576D01*
X190384462Y-61813772D01*
X190402500Y-61770225D01*
X190402500Y-61669775D01*
X190364059Y-61576970D01*
X190293030Y-61505941D01*
X190247923Y-61487257D01*
X190214639Y-61453973D01*
X190214639Y-61406903D01*
X190247923Y-61373619D01*
X190271458Y-61368938D01*
X190292541Y-61368938D01*
X190292542Y-61368938D01*
X190385347Y-61330497D01*
X190456376Y-61259468D01*
X190485474Y-61189217D01*
X190518757Y-61155934D01*
X190565827Y-61155933D01*
X190599111Y-61189216D01*
X190599112Y-61189217D01*
X190623705Y-61248589D01*
X190628941Y-61261230D01*
X190699970Y-61332259D01*
X190792775Y-61370700D01*
X190792875Y-61370700D01*
X190808848Y-61373435D01*
X190808962Y-61372974D01*
X190811890Y-61373694D01*
X190840037Y-61377741D01*
X190926442Y-61390166D01*
X190961175Y-61407553D01*
X191235294Y-61681672D01*
X191309714Y-61712498D01*
X191309717Y-61712499D01*
X191309720Y-61712500D01*
X191309721Y-61712500D01*
X193080279Y-61712500D01*
X193080280Y-61712500D01*
X193154707Y-61681671D01*
X193581671Y-61254707D01*
X193612500Y-61180280D01*
X193612500Y-61099720D01*
X193612500Y-60416287D01*
X194062728Y-60416287D01*
X194062728Y-60538974D01*
X194086660Y-60659288D01*
X194086665Y-60659305D01*
X194131679Y-60767975D01*
X194133610Y-60772637D01*
X194133611Y-60772638D01*
X194201767Y-60874642D01*
X194288516Y-60961391D01*
X194288515Y-60961391D01*
X194339690Y-60995584D01*
X194390522Y-61029549D01*
X194443324Y-61051420D01*
X194503853Y-61076493D01*
X194503857Y-61076494D01*
X194503864Y-61076497D01*
X194624184Y-61100430D01*
X194624185Y-61100431D01*
X194624188Y-61100431D01*
X194746871Y-61100431D01*
X194746871Y-61100430D01*
X194867192Y-61076497D01*
X194872895Y-61074135D01*
X194916381Y-61056122D01*
X194980534Y-61029549D01*
X195082540Y-60961391D01*
X195169288Y-60874643D01*
X195237446Y-60772637D01*
X195284394Y-60659295D01*
X195308327Y-60538974D01*
X195308328Y-60538974D01*
X195308328Y-60416288D01*
X195308327Y-60416287D01*
X195287471Y-60311433D01*
X195285885Y-60303463D01*
X197862500Y-60303463D01*
X197862500Y-60376536D01*
X197881409Y-60447106D01*
X197881411Y-60447111D01*
X197917944Y-60510389D01*
X197969611Y-60562056D01*
X198032889Y-60598589D01*
X198032893Y-60598590D01*
X198103464Y-60617500D01*
X198103466Y-60617500D01*
X198176535Y-60617500D01*
X198207651Y-60609162D01*
X198247111Y-60598589D01*
X198310389Y-60562056D01*
X198362056Y-60510389D01*
X198398589Y-60447111D01*
X198406848Y-60416287D01*
X198417500Y-60376536D01*
X198417500Y-60303463D01*
X198398590Y-60232893D01*
X198398589Y-60232889D01*
X198362056Y-60169611D01*
X198310389Y-60117944D01*
X198247111Y-60081411D01*
X198247106Y-60081409D01*
X198176536Y-60062500D01*
X198176534Y-60062500D01*
X198103466Y-60062500D01*
X198103464Y-60062500D01*
X198032893Y-60081409D01*
X198032888Y-60081411D01*
X197969612Y-60117943D01*
X197969607Y-60117947D01*
X197917947Y-60169607D01*
X197917943Y-60169612D01*
X197881411Y-60232888D01*
X197881409Y-60232893D01*
X197862500Y-60303463D01*
X195285885Y-60303463D01*
X195284395Y-60295971D01*
X195284390Y-60295956D01*
X195258266Y-60232888D01*
X195237446Y-60182625D01*
X195169288Y-60080619D01*
X195082540Y-59993871D01*
X195082539Y-59993870D01*
X195082540Y-59993870D01*
X194980535Y-59925714D01*
X194980536Y-59925714D01*
X194980534Y-59925713D01*
X194980527Y-59925710D01*
X194867202Y-59878768D01*
X194867185Y-59878763D01*
X194746871Y-59854831D01*
X194746868Y-59854831D01*
X194624188Y-59854831D01*
X194624185Y-59854831D01*
X194503870Y-59878763D01*
X194503853Y-59878768D01*
X194390528Y-59925710D01*
X194390520Y-59925714D01*
X194288516Y-59993870D01*
X194201767Y-60080619D01*
X194133611Y-60182623D01*
X194133607Y-60182631D01*
X194086665Y-60295956D01*
X194086660Y-60295973D01*
X194062728Y-60416287D01*
X193612500Y-60416287D01*
X193612500Y-60109352D01*
X193630513Y-60065865D01*
X193995865Y-59700513D01*
X194039352Y-59682500D01*
X194660279Y-59682500D01*
X194660280Y-59682500D01*
X194691148Y-59669714D01*
X194734705Y-59651672D01*
X194734705Y-59651671D01*
X194734707Y-59651671D01*
X194942915Y-59443463D01*
X198802500Y-59443463D01*
X198802500Y-59516536D01*
X198821409Y-59587106D01*
X198821411Y-59587111D01*
X198857944Y-59650389D01*
X198909611Y-59702056D01*
X198972889Y-59738589D01*
X198972893Y-59738590D01*
X199043464Y-59757500D01*
X199043466Y-59757500D01*
X199116535Y-59757500D01*
X199147651Y-59749162D01*
X199187111Y-59738589D01*
X199250389Y-59702056D01*
X199302056Y-59650389D01*
X199338589Y-59587111D01*
X199349011Y-59548216D01*
X199357500Y-59516536D01*
X199357500Y-59443463D01*
X199338590Y-59372893D01*
X199338589Y-59372889D01*
X199302056Y-59309611D01*
X199250389Y-59257944D01*
X199187111Y-59221411D01*
X199187106Y-59221409D01*
X199116536Y-59202500D01*
X199116534Y-59202500D01*
X199043466Y-59202500D01*
X199043464Y-59202500D01*
X198972893Y-59221409D01*
X198972888Y-59221411D01*
X198909612Y-59257943D01*
X198909607Y-59257947D01*
X198857947Y-59309607D01*
X198857943Y-59309612D01*
X198821411Y-59372888D01*
X198821409Y-59372893D01*
X198802500Y-59443463D01*
X194942915Y-59443463D01*
X195335866Y-59050513D01*
X195379353Y-59032500D01*
X195512406Y-59032500D01*
X195555893Y-59050513D01*
X195564006Y-59060538D01*
X195668526Y-59221716D01*
X195668715Y-59221951D01*
X195669083Y-59222573D01*
X195670198Y-59224293D01*
X195670126Y-59224339D01*
X195672368Y-59228131D01*
X195672575Y-59227993D01*
X195675941Y-59233030D01*
X195746970Y-59304059D01*
X195839775Y-59342500D01*
X195839776Y-59342500D01*
X195940224Y-59342500D01*
X195940225Y-59342500D01*
X196033030Y-59304059D01*
X196104059Y-59233030D01*
X196142500Y-59140225D01*
X196142500Y-59039775D01*
X196104059Y-58946970D01*
X196033030Y-58875941D01*
X196027993Y-58872575D01*
X196028124Y-58872378D01*
X196024231Y-58870080D01*
X196024196Y-58870135D01*
X196022905Y-58869298D01*
X196022014Y-58868772D01*
X196021665Y-58868494D01*
X196021662Y-58868491D01*
X195891408Y-58784024D01*
X195847989Y-58755868D01*
X195847329Y-58755564D01*
X195846919Y-58755278D01*
X195846054Y-58754802D01*
X195846104Y-58754710D01*
X195829570Y-58743191D01*
X195744705Y-58658327D01*
X195670285Y-58627501D01*
X195670280Y-58627500D01*
X195310280Y-58627500D01*
X195229720Y-58627500D01*
X195229719Y-58627500D01*
X195155292Y-58658328D01*
X194554135Y-59259487D01*
X194510648Y-59277500D01*
X193970280Y-59277500D01*
X193889720Y-59277500D01*
X193889719Y-59277500D01*
X193889714Y-59277501D01*
X193815294Y-59308327D01*
X193238327Y-59885294D01*
X193207501Y-59959714D01*
X193207500Y-59959720D01*
X193207500Y-61030648D01*
X193189487Y-61074135D01*
X192974135Y-61289487D01*
X192930648Y-61307500D01*
X192734261Y-61307500D01*
X192690774Y-61289487D01*
X192672761Y-61246000D01*
X192690774Y-61202513D01*
X192704071Y-61189216D01*
X192732898Y-61160389D01*
X192769431Y-61097111D01*
X192787534Y-61029551D01*
X192788342Y-61026536D01*
X192788342Y-60953463D01*
X192769432Y-60882893D01*
X192769431Y-60882889D01*
X192732898Y-60819611D01*
X192681231Y-60767944D01*
X192617953Y-60731411D01*
X192617948Y-60731409D01*
X192547378Y-60712500D01*
X192547376Y-60712500D01*
X192474308Y-60712500D01*
X192474306Y-60712500D01*
X192403735Y-60731409D01*
X192403730Y-60731411D01*
X192340454Y-60767943D01*
X192340449Y-60767947D01*
X192288789Y-60819607D01*
X192288785Y-60819612D01*
X192252253Y-60882888D01*
X192252251Y-60882893D01*
X192233342Y-60953463D01*
X192233342Y-61026536D01*
X192252251Y-61097106D01*
X192252253Y-61097111D01*
X192288786Y-61160389D01*
X192288789Y-61160392D01*
X192330910Y-61202513D01*
X192348923Y-61246000D01*
X192330910Y-61289487D01*
X192287423Y-61307500D01*
X191729935Y-61307500D01*
X191686448Y-61289487D01*
X191668435Y-61246000D01*
X191673116Y-61222465D01*
X191686887Y-61189218D01*
X191695500Y-61168425D01*
X191695500Y-61067975D01*
X191657059Y-60975170D01*
X191586030Y-60904141D01*
X191493225Y-60865700D01*
X191457000Y-60865700D01*
X191413513Y-60847687D01*
X191395500Y-60804200D01*
X191395500Y-60767975D01*
X191357059Y-60675170D01*
X191286030Y-60604141D01*
X191193225Y-60565700D01*
X191092775Y-60565700D01*
X191092774Y-60565700D01*
X191092769Y-60565701D01*
X191075490Y-60572858D01*
X191028420Y-60572857D01*
X190995138Y-60539572D01*
X190995139Y-60492502D01*
X191008467Y-60472555D01*
X191470477Y-60010546D01*
X191487924Y-59968425D01*
X191497500Y-59945307D01*
X191497500Y-59908440D01*
X191498504Y-59902953D01*
X191508479Y-59887513D01*
X191515513Y-59870533D01*
X191557717Y-59828329D01*
X191660478Y-59725568D01*
X191687500Y-59660330D01*
X191687500Y-59589715D01*
X191687500Y-59535063D01*
X191705513Y-59491576D01*
X191724059Y-59473030D01*
X191762500Y-59380225D01*
X191762500Y-59304000D01*
X191780513Y-59260513D01*
X191824000Y-59242500D01*
X192467933Y-59242500D01*
X192511420Y-59260513D01*
X192529433Y-59304000D01*
X192528251Y-59315998D01*
X192527500Y-59319773D01*
X192527500Y-59319775D01*
X192527500Y-59420225D01*
X192565941Y-59513030D01*
X192636970Y-59584059D01*
X192729775Y-59622500D01*
X192729776Y-59622500D01*
X192830224Y-59622500D01*
X192830225Y-59622500D01*
X192923030Y-59584059D01*
X192923030Y-59584058D01*
X192923032Y-59584058D01*
X192924816Y-59582866D01*
X192958985Y-59572500D01*
X193040279Y-59572500D01*
X193040280Y-59572500D01*
X193051204Y-59567975D01*
X193114705Y-59541672D01*
X193114705Y-59541671D01*
X193114707Y-59541671D01*
X195306603Y-57349775D01*
X196747500Y-57349775D01*
X196747500Y-57450225D01*
X196785941Y-57543030D01*
X196856970Y-57614059D01*
X196949775Y-57652500D01*
X196949776Y-57652500D01*
X197050224Y-57652500D01*
X197050225Y-57652500D01*
X197143030Y-57614059D01*
X197214059Y-57543030D01*
X197214235Y-57542605D01*
X198373251Y-57542605D01*
X198373251Y-57665292D01*
X198397183Y-57785606D01*
X198397188Y-57785623D01*
X198438988Y-57886534D01*
X198444133Y-57898955D01*
X198447041Y-57903307D01*
X198512290Y-58000960D01*
X198599039Y-58087709D01*
X198599038Y-58087709D01*
X198644865Y-58118329D01*
X198701045Y-58155867D01*
X198747943Y-58175293D01*
X198814376Y-58202811D01*
X198814380Y-58202812D01*
X198814387Y-58202815D01*
X198934707Y-58226748D01*
X198934708Y-58226749D01*
X198934711Y-58226749D01*
X199057394Y-58226749D01*
X199057394Y-58226748D01*
X199177715Y-58202815D01*
X199177921Y-58202730D01*
X199221197Y-58184804D01*
X199291057Y-58155867D01*
X199393063Y-58087709D01*
X199479811Y-58000961D01*
X199547969Y-57898955D01*
X199594917Y-57785613D01*
X199618850Y-57665292D01*
X199618851Y-57665292D01*
X199618851Y-57542606D01*
X199618850Y-57542605D01*
X199613568Y-57516053D01*
X199594917Y-57422285D01*
X199594914Y-57422278D01*
X199594913Y-57422274D01*
X199564882Y-57349774D01*
X199547969Y-57308943D01*
X199479811Y-57206937D01*
X199393063Y-57120189D01*
X199393062Y-57120188D01*
X199393063Y-57120188D01*
X199291058Y-57052032D01*
X199291059Y-57052032D01*
X199291057Y-57052031D01*
X199291050Y-57052028D01*
X199177725Y-57005086D01*
X199177708Y-57005081D01*
X199057394Y-56981149D01*
X199057391Y-56981149D01*
X198934711Y-56981149D01*
X198934708Y-56981149D01*
X198814393Y-57005081D01*
X198814376Y-57005086D01*
X198701051Y-57052028D01*
X198701043Y-57052032D01*
X198599039Y-57120188D01*
X198512290Y-57206937D01*
X198444134Y-57308941D01*
X198444130Y-57308949D01*
X198397188Y-57422274D01*
X198397183Y-57422291D01*
X198373251Y-57542605D01*
X197214235Y-57542605D01*
X197252500Y-57450225D01*
X197252500Y-57349775D01*
X197214059Y-57256970D01*
X197143030Y-57185941D01*
X197050225Y-57147500D01*
X196949775Y-57147500D01*
X196949774Y-57147500D01*
X196856969Y-57185941D01*
X196785941Y-57256969D01*
X196751867Y-57339233D01*
X196747500Y-57349775D01*
X195306603Y-57349775D01*
X197171671Y-55484707D01*
X197202500Y-55410280D01*
X197202500Y-55329721D01*
X197202500Y-54159720D01*
X197202498Y-54159714D01*
X197171672Y-54085294D01*
X196684559Y-53598181D01*
X196674748Y-53585380D01*
X196673482Y-53583181D01*
X196673481Y-53583178D01*
X196545747Y-53361320D01*
X196543647Y-53357800D01*
X196543277Y-53357201D01*
X196535118Y-53348691D01*
X196526252Y-53336879D01*
X196522059Y-53329615D01*
X196522056Y-53329612D01*
X196522056Y-53329611D01*
X196470389Y-53277944D01*
X196407111Y-53241411D01*
X196407106Y-53241409D01*
X196336536Y-53222500D01*
X196336534Y-53222500D01*
X196263466Y-53222500D01*
X196263464Y-53222500D01*
X196192893Y-53241409D01*
X196192888Y-53241411D01*
X196129612Y-53277943D01*
X196129607Y-53277947D01*
X196077947Y-53329607D01*
X196077943Y-53329612D01*
X196041411Y-53392888D01*
X196041409Y-53392893D01*
X196022500Y-53463463D01*
X196022500Y-53536536D01*
X196041409Y-53607106D01*
X196041411Y-53607111D01*
X196077944Y-53670389D01*
X196077947Y-53670392D01*
X196129608Y-53722054D01*
X196138007Y-53726903D01*
X196147751Y-53733876D01*
X196161320Y-53745747D01*
X196189530Y-53761989D01*
X196384920Y-53874485D01*
X196384688Y-53874887D01*
X196398106Y-53884484D01*
X196779487Y-54265865D01*
X196797500Y-54309352D01*
X196797500Y-55260648D01*
X196779487Y-55304135D01*
X195307487Y-56776135D01*
X195264000Y-56794148D01*
X195220513Y-56776135D01*
X195202500Y-56732648D01*
X195202500Y-55341349D01*
X195204615Y-55325360D01*
X195271840Y-55075677D01*
X195272227Y-55074142D01*
X195272820Y-55071799D01*
X195272982Y-55071115D01*
X195273234Y-55059288D01*
X195275317Y-55044679D01*
X195277500Y-55036534D01*
X195277500Y-54963463D01*
X195258590Y-54892893D01*
X195258589Y-54892889D01*
X195222056Y-54829611D01*
X195170389Y-54777944D01*
X195107111Y-54741411D01*
X195107106Y-54741409D01*
X195036536Y-54722500D01*
X195036534Y-54722500D01*
X194963466Y-54722500D01*
X194963464Y-54722500D01*
X194892893Y-54741409D01*
X194892888Y-54741411D01*
X194829612Y-54777943D01*
X194829607Y-54777947D01*
X194777947Y-54829607D01*
X194777943Y-54829612D01*
X194741411Y-54892888D01*
X194741409Y-54892893D01*
X194722500Y-54963463D01*
X194722500Y-55036534D01*
X194725007Y-55045892D01*
X194726965Y-55057708D01*
X194728167Y-55075710D01*
X194728168Y-55075712D01*
X194795247Y-55324849D01*
X194794797Y-55324970D01*
X194797500Y-55341242D01*
X194797500Y-56790648D01*
X194779487Y-56834135D01*
X192794135Y-58819487D01*
X192750648Y-58837500D01*
X191329719Y-58837500D01*
X191275436Y-58859985D01*
X191228366Y-58859985D01*
X191195082Y-58826701D01*
X191194299Y-58824119D01*
X191192498Y-58819771D01*
X191154059Y-58726970D01*
X191083030Y-58655941D01*
X190990225Y-58617500D01*
X190889775Y-58617500D01*
X190889773Y-58617500D01*
X190842240Y-58637189D01*
X190795169Y-58637188D01*
X190761886Y-58603905D01*
X190759301Y-58564452D01*
X190777500Y-58496536D01*
X190777500Y-58423463D01*
X190758590Y-58352893D01*
X190758589Y-58352889D01*
X190722056Y-58289611D01*
X190670389Y-58237944D01*
X190607111Y-58201411D01*
X190607106Y-58201409D01*
X190536536Y-58182500D01*
X190536534Y-58182500D01*
X190463466Y-58182500D01*
X190463464Y-58182500D01*
X190392893Y-58201409D01*
X190392888Y-58201411D01*
X190329612Y-58237943D01*
X190329607Y-58237947D01*
X190277947Y-58289607D01*
X190277943Y-58289612D01*
X190241411Y-58352888D01*
X190241409Y-58352893D01*
X190222500Y-58423463D01*
X190222500Y-58496536D01*
X190241409Y-58567106D01*
X190241411Y-58567111D01*
X190277944Y-58630389D01*
X190329611Y-58682056D01*
X190392889Y-58718589D01*
X190392893Y-58718590D01*
X190463464Y-58737500D01*
X190463466Y-58737500D01*
X190536535Y-58737500D01*
X190567651Y-58729162D01*
X190607111Y-58718589D01*
X190610949Y-58716372D01*
X190657614Y-58710225D01*
X190694960Y-58738876D01*
X190701108Y-58785543D01*
X190698521Y-58793165D01*
X190687500Y-58819771D01*
X190687500Y-58819775D01*
X190687500Y-58920225D01*
X190725941Y-59013030D01*
X190796970Y-59084059D01*
X190889775Y-59122500D01*
X190889779Y-59122500D01*
X190895714Y-59123681D01*
X190895040Y-59127067D01*
X190927500Y-59140513D01*
X190945513Y-59184000D01*
X190940831Y-59207536D01*
X190927500Y-59239716D01*
X190927500Y-59335372D01*
X190923695Y-59356667D01*
X190922571Y-59359713D01*
X190892675Y-59548216D01*
X190868072Y-59588344D01*
X190822300Y-59599323D01*
X190788447Y-59582069D01*
X190144705Y-58938327D01*
X190070285Y-58907501D01*
X190070280Y-58907500D01*
X190070279Y-58907500D01*
X189609353Y-58907500D01*
X189565866Y-58889487D01*
X189202913Y-58526534D01*
X188781960Y-58105582D01*
X191116327Y-58105582D01*
X191116327Y-58206032D01*
X191154768Y-58298837D01*
X191225797Y-58369866D01*
X191318602Y-58408307D01*
X191318603Y-58408307D01*
X191419051Y-58408307D01*
X191419052Y-58408307D01*
X191511857Y-58369866D01*
X191582886Y-58298837D01*
X191621327Y-58206032D01*
X191621327Y-58105582D01*
X191620777Y-58104255D01*
X191940000Y-58104255D01*
X191940000Y-58204705D01*
X191978441Y-58297510D01*
X192049470Y-58368539D01*
X192142275Y-58406980D01*
X192142276Y-58406980D01*
X192242724Y-58406980D01*
X192242725Y-58406980D01*
X192335530Y-58368539D01*
X192406559Y-58297510D01*
X192445000Y-58204705D01*
X192445000Y-58104255D01*
X192406559Y-58011450D01*
X192335530Y-57940421D01*
X192242725Y-57901980D01*
X192142275Y-57901980D01*
X192142274Y-57901980D01*
X192049469Y-57940421D01*
X191978441Y-58011449D01*
X191944562Y-58093242D01*
X191940000Y-58104255D01*
X191620777Y-58104255D01*
X191605403Y-58067140D01*
X191582886Y-58012777D01*
X191511857Y-57941748D01*
X191419052Y-57903307D01*
X191318602Y-57903307D01*
X191318601Y-57903307D01*
X191225796Y-57941748D01*
X191154768Y-58012776D01*
X191116877Y-58104255D01*
X191116327Y-58105582D01*
X188781960Y-58105582D01*
X188454707Y-57778329D01*
X188454705Y-57778327D01*
X188380285Y-57747501D01*
X188380280Y-57747500D01*
X185130280Y-57747500D01*
X185049720Y-57747500D01*
X185049719Y-57747500D01*
X185049714Y-57747501D01*
X184975294Y-57778327D01*
X184975293Y-57778327D01*
X184958174Y-57795447D01*
X184914687Y-57813459D01*
X184871200Y-57795445D01*
X184855284Y-57767878D01*
X184848589Y-57742889D01*
X184812056Y-57679611D01*
X184760389Y-57627944D01*
X184697111Y-57591411D01*
X184697106Y-57591409D01*
X184626536Y-57572500D01*
X184626534Y-57572500D01*
X184553466Y-57572500D01*
X184553464Y-57572500D01*
X184482893Y-57591409D01*
X184482888Y-57591411D01*
X184419612Y-57627943D01*
X184419607Y-57627947D01*
X184367947Y-57679607D01*
X184367943Y-57679612D01*
X184331411Y-57742888D01*
X184331409Y-57742893D01*
X184312501Y-57813459D01*
X184312500Y-57813463D01*
X184312500Y-57886533D01*
X184313451Y-57890083D01*
X184307306Y-57936751D01*
X184269963Y-57965405D01*
X184254046Y-57967500D01*
X183969719Y-57967500D01*
X183952485Y-57974639D01*
X183895292Y-57998328D01*
X183775293Y-58118329D01*
X183718327Y-58175294D01*
X183687501Y-58249714D01*
X183687500Y-58249720D01*
X183687500Y-58260859D01*
X183680872Y-58288631D01*
X183679985Y-58290383D01*
X183656674Y-58329972D01*
X183648041Y-58353497D01*
X183646414Y-58356713D01*
X183646050Y-58357025D01*
X183644804Y-58359689D01*
X183631411Y-58382887D01*
X183612500Y-58453463D01*
X183612500Y-58513003D01*
X183594487Y-58556490D01*
X183551000Y-58574503D01*
X183507513Y-58556490D01*
X183385513Y-58434490D01*
X183367500Y-58391003D01*
X183367500Y-56718997D01*
X183385513Y-56675510D01*
X186172560Y-53888463D01*
X186892500Y-53888463D01*
X186892500Y-53961536D01*
X186911409Y-54032106D01*
X186911411Y-54032111D01*
X186947944Y-54095389D01*
X186999611Y-54147056D01*
X187062889Y-54183589D01*
X187062893Y-54183590D01*
X187133464Y-54202500D01*
X187133466Y-54202500D01*
X187206535Y-54202500D01*
X187237651Y-54194162D01*
X187277111Y-54183589D01*
X187340389Y-54147056D01*
X187392056Y-54095389D01*
X187428589Y-54032111D01*
X187435926Y-54004725D01*
X187447500Y-53961536D01*
X187447500Y-53888463D01*
X187428590Y-53817893D01*
X187428589Y-53817889D01*
X187392056Y-53754611D01*
X187340389Y-53702944D01*
X187277111Y-53666411D01*
X187277106Y-53666409D01*
X187206536Y-53647500D01*
X187206534Y-53647500D01*
X187133466Y-53647500D01*
X187133464Y-53647500D01*
X187062893Y-53666409D01*
X187062888Y-53666411D01*
X186999612Y-53702943D01*
X186999607Y-53702947D01*
X186947947Y-53754607D01*
X186947943Y-53754612D01*
X186911411Y-53817888D01*
X186911409Y-53817893D01*
X186892500Y-53888463D01*
X186172560Y-53888463D01*
X187127560Y-52933463D01*
X193922500Y-52933463D01*
X193922500Y-53006536D01*
X193941409Y-53077106D01*
X193941411Y-53077111D01*
X193977944Y-53140389D01*
X194029611Y-53192056D01*
X194092889Y-53228589D01*
X194124039Y-53236935D01*
X194161380Y-53265588D01*
X194167525Y-53312256D01*
X194138871Y-53349599D01*
X194124040Y-53355743D01*
X194102890Y-53361410D01*
X194102888Y-53361411D01*
X194039612Y-53397943D01*
X194039607Y-53397947D01*
X193987947Y-53449607D01*
X193987943Y-53449612D01*
X193951411Y-53512888D01*
X193951409Y-53512893D01*
X193932500Y-53583463D01*
X193932500Y-53656536D01*
X193951409Y-53727106D01*
X193951411Y-53727111D01*
X193987944Y-53790389D01*
X194039611Y-53842056D01*
X194102889Y-53878589D01*
X194102893Y-53878590D01*
X194173464Y-53897500D01*
X194173466Y-53897500D01*
X194246535Y-53897500D01*
X194280261Y-53888463D01*
X194317111Y-53878589D01*
X194380389Y-53842056D01*
X194432056Y-53790389D01*
X194468589Y-53727111D01*
X194483788Y-53670387D01*
X194487500Y-53656536D01*
X194487500Y-53583463D01*
X194468590Y-53512893D01*
X194468589Y-53512889D01*
X194432056Y-53449611D01*
X194380389Y-53397944D01*
X194317111Y-53361411D01*
X194317106Y-53361409D01*
X194285961Y-53353064D01*
X194248618Y-53324410D01*
X194242475Y-53277742D01*
X194271129Y-53240399D01*
X194285956Y-53234257D01*
X194307111Y-53228589D01*
X194370389Y-53192056D01*
X194422056Y-53140389D01*
X194458589Y-53077111D01*
X194467863Y-53042500D01*
X194477500Y-53006536D01*
X194477500Y-52933463D01*
X194458590Y-52862893D01*
X194458589Y-52862889D01*
X194422056Y-52799611D01*
X194370389Y-52747944D01*
X194307111Y-52711411D01*
X194307106Y-52711409D01*
X194236536Y-52692500D01*
X194236534Y-52692500D01*
X194163466Y-52692500D01*
X194163464Y-52692500D01*
X194092893Y-52711409D01*
X194092888Y-52711411D01*
X194029612Y-52747943D01*
X194029607Y-52747947D01*
X193977947Y-52799607D01*
X193977943Y-52799612D01*
X193941411Y-52862888D01*
X193941409Y-52862893D01*
X193922500Y-52933463D01*
X187127560Y-52933463D01*
X188397560Y-51663463D01*
X195372500Y-51663463D01*
X195372500Y-51736536D01*
X195391409Y-51807106D01*
X195391411Y-51807111D01*
X195427944Y-51870389D01*
X195479611Y-51922056D01*
X195542889Y-51958589D01*
X195542893Y-51958590D01*
X195613464Y-51977500D01*
X195613466Y-51977500D01*
X195686535Y-51977500D01*
X195717651Y-51969162D01*
X195757111Y-51958589D01*
X195820389Y-51922056D01*
X195872056Y-51870389D01*
X195908589Y-51807111D01*
X195918188Y-51771286D01*
X195927500Y-51736536D01*
X195927500Y-51663463D01*
X195908590Y-51592893D01*
X195908589Y-51592889D01*
X195872056Y-51529611D01*
X195820389Y-51477944D01*
X195757111Y-51441411D01*
X195757106Y-51441409D01*
X195686536Y-51422500D01*
X195686534Y-51422500D01*
X195613466Y-51422500D01*
X195613464Y-51422500D01*
X195542893Y-51441409D01*
X195542888Y-51441411D01*
X195479612Y-51477943D01*
X195479607Y-51477947D01*
X195427947Y-51529607D01*
X195427943Y-51529612D01*
X195391411Y-51592888D01*
X195391409Y-51592893D01*
X195372500Y-51663463D01*
X188397560Y-51663463D01*
X188825510Y-51235513D01*
X188868997Y-51217500D01*
X193423483Y-51217500D01*
X193434873Y-51218563D01*
X193455090Y-51222374D01*
X193716575Y-51219751D01*
X193728430Y-51219100D01*
X193730520Y-51218891D01*
X193730523Y-51218889D01*
X193734142Y-51218079D01*
X193734155Y-51218137D01*
X193736532Y-51217500D01*
X193736534Y-51217500D01*
X193807111Y-51198589D01*
X193870389Y-51162056D01*
X193922056Y-51110389D01*
X193958589Y-51047111D01*
X193971175Y-51000139D01*
X193977500Y-50976536D01*
X193977500Y-50903463D01*
X193958590Y-50832893D01*
X193958589Y-50832889D01*
X193922056Y-50769611D01*
X193870389Y-50717944D01*
X193807111Y-50681411D01*
X193807106Y-50681409D01*
X193736536Y-50662500D01*
X193736534Y-50662500D01*
X193689000Y-50662500D01*
X193645513Y-50644487D01*
X193627500Y-50601000D01*
X193627500Y-50533463D01*
X193608590Y-50462893D01*
X193608589Y-50462889D01*
X193591486Y-50433265D01*
X195545855Y-50433265D01*
X195545855Y-50506338D01*
X195564764Y-50576908D01*
X195564766Y-50576913D01*
X195601299Y-50640191D01*
X195652966Y-50691858D01*
X195716244Y-50728391D01*
X195716248Y-50728392D01*
X195786819Y-50747302D01*
X195786821Y-50747302D01*
X195859890Y-50747302D01*
X195891006Y-50738964D01*
X195930466Y-50728391D01*
X195993744Y-50691858D01*
X196045411Y-50640191D01*
X196081944Y-50576913D01*
X196093586Y-50533466D01*
X196100855Y-50506338D01*
X196100855Y-50433265D01*
X196081945Y-50362695D01*
X196081944Y-50362691D01*
X196045411Y-50299413D01*
X195993744Y-50247746D01*
X195930466Y-50211213D01*
X195930461Y-50211211D01*
X195859891Y-50192302D01*
X195859889Y-50192302D01*
X195786821Y-50192302D01*
X195786819Y-50192302D01*
X195716248Y-50211211D01*
X195716243Y-50211213D01*
X195652967Y-50247745D01*
X195652962Y-50247749D01*
X195601302Y-50299409D01*
X195601298Y-50299414D01*
X195564766Y-50362690D01*
X195564764Y-50362695D01*
X195545855Y-50433265D01*
X193591486Y-50433265D01*
X193572056Y-50399611D01*
X193520389Y-50347944D01*
X193457111Y-50311411D01*
X193457106Y-50311409D01*
X193386536Y-50292500D01*
X193386534Y-50292500D01*
X193313466Y-50292500D01*
X193313464Y-50292500D01*
X193242893Y-50311409D01*
X193242888Y-50311411D01*
X193179612Y-50347943D01*
X193179607Y-50347947D01*
X193127947Y-50399607D01*
X193127941Y-50399615D01*
X193116835Y-50418851D01*
X193113400Y-50424151D01*
X193099142Y-50443855D01*
X193056592Y-50536637D01*
X193022090Y-50568657D01*
X193000690Y-50572500D01*
X188604692Y-50572500D01*
X188539454Y-50599522D01*
X184887487Y-54251489D01*
X184844000Y-54269502D01*
X184800513Y-54251489D01*
X184782500Y-54208002D01*
X184782500Y-53661349D01*
X184784615Y-53645360D01*
X184851840Y-53395677D01*
X184852544Y-53392889D01*
X184852820Y-53391799D01*
X184852982Y-53391115D01*
X184853234Y-53379288D01*
X184855317Y-53364679D01*
X184856194Y-53361409D01*
X184857500Y-53356534D01*
X184857500Y-53283466D01*
X184857500Y-53283463D01*
X184838590Y-53212893D01*
X184838589Y-53212889D01*
X184802056Y-53149611D01*
X184750389Y-53097944D01*
X184687111Y-53061411D01*
X184687106Y-53061409D01*
X184616536Y-53042500D01*
X184616534Y-53042500D01*
X184543466Y-53042500D01*
X184543464Y-53042500D01*
X184472893Y-53061409D01*
X184472888Y-53061411D01*
X184409612Y-53097943D01*
X184409607Y-53097947D01*
X184357947Y-53149607D01*
X184357943Y-53149612D01*
X184321411Y-53212888D01*
X184321409Y-53212893D01*
X184302500Y-53283463D01*
X184302500Y-53356534D01*
X184305007Y-53365892D01*
X184306965Y-53377708D01*
X184308167Y-53395710D01*
X184308168Y-53395712D01*
X184375247Y-53644849D01*
X184374797Y-53644970D01*
X184377500Y-53661242D01*
X184377500Y-54180648D01*
X184359487Y-54224135D01*
X182468327Y-56115294D01*
X182437501Y-56189714D01*
X182437500Y-56189720D01*
X174127500Y-56189720D01*
X174127500Y-55063463D01*
X176772500Y-55063463D01*
X176772500Y-55136536D01*
X176791409Y-55207106D01*
X176791411Y-55207111D01*
X176827944Y-55270389D01*
X176879611Y-55322056D01*
X176942889Y-55358589D01*
X176942893Y-55358590D01*
X177013464Y-55377500D01*
X177013466Y-55377500D01*
X177086535Y-55377500D01*
X177117651Y-55369162D01*
X177157111Y-55358589D01*
X177220389Y-55322056D01*
X177272056Y-55270389D01*
X177308589Y-55207111D01*
X177315926Y-55179725D01*
X177327500Y-55136536D01*
X177327500Y-55063463D01*
X177308590Y-54992893D01*
X177308589Y-54992889D01*
X177272056Y-54929611D01*
X177220389Y-54877944D01*
X177157111Y-54841411D01*
X177157106Y-54841409D01*
X177086536Y-54822500D01*
X177086534Y-54822500D01*
X177013466Y-54822500D01*
X177013464Y-54822500D01*
X176942893Y-54841409D01*
X176942888Y-54841411D01*
X176879612Y-54877943D01*
X176879607Y-54877947D01*
X176827947Y-54929607D01*
X176827943Y-54929612D01*
X176791411Y-54992888D01*
X176791409Y-54992893D01*
X176772500Y-55063463D01*
X174127500Y-55063463D01*
X174127500Y-53043463D01*
X181772500Y-53043463D01*
X181772500Y-53116536D01*
X181791409Y-53187106D01*
X181791411Y-53187111D01*
X181827944Y-53250389D01*
X181879611Y-53302056D01*
X181942889Y-53338589D01*
X181942893Y-53338590D01*
X182013464Y-53357500D01*
X182013466Y-53357500D01*
X182086535Y-53357500D01*
X182139443Y-53343323D01*
X182157111Y-53338589D01*
X182220389Y-53302056D01*
X182272056Y-53250389D01*
X182308589Y-53187111D01*
X182318638Y-53149607D01*
X182327500Y-53116536D01*
X182327500Y-53043463D01*
X182308590Y-52972893D01*
X182308589Y-52972889D01*
X182272056Y-52909611D01*
X182220389Y-52857944D01*
X182157111Y-52821411D01*
X182157106Y-52821409D01*
X182086536Y-52802500D01*
X182086534Y-52802500D01*
X182013466Y-52802500D01*
X182013464Y-52802500D01*
X181942893Y-52821409D01*
X181942888Y-52821411D01*
X181879612Y-52857943D01*
X181879607Y-52857947D01*
X181827947Y-52909607D01*
X181827943Y-52909612D01*
X181791411Y-52972888D01*
X181791409Y-52972893D01*
X181772500Y-53043463D01*
X174127500Y-53043463D01*
X174127500Y-53003022D01*
X174127796Y-52996994D01*
X174134053Y-52933463D01*
X174143671Y-52835807D01*
X174146023Y-52823987D01*
X174192159Y-52671897D01*
X174196766Y-52660773D01*
X174271688Y-52520604D01*
X174278386Y-52510582D01*
X174379209Y-52387727D01*
X174387727Y-52379209D01*
X174510583Y-52278385D01*
X174520606Y-52271688D01*
X174660773Y-52196766D01*
X174671897Y-52192159D01*
X174823991Y-52146022D01*
X174835807Y-52143671D01*
X174996995Y-52127796D01*
X175003023Y-52127500D01*
X175029101Y-52127500D01*
X177970906Y-52127500D01*
X177970912Y-52127503D01*
X178000013Y-52127500D01*
X178025361Y-52127500D01*
X178031714Y-52127500D01*
X178031902Y-52127479D01*
X178088744Y-52127476D01*
X178264020Y-52099706D01*
X178432797Y-52044866D01*
X178590920Y-51964307D01*
X178734500Y-51860011D01*
X178779322Y-51815199D01*
X178779330Y-51815196D01*
X178797290Y-51797236D01*
X178817831Y-51776701D01*
X178817831Y-51776700D01*
X178823206Y-51771327D01*
X178823234Y-51771290D01*
X179897110Y-50697414D01*
X183588401Y-50697414D01*
X183588401Y-50797864D01*
X183626842Y-50890669D01*
X183697871Y-50961698D01*
X183790676Y-51000139D01*
X183790677Y-51000139D01*
X183891125Y-51000139D01*
X183891126Y-51000139D01*
X183983931Y-50961698D01*
X184054960Y-50890669D01*
X184093401Y-50797864D01*
X184093401Y-50697414D01*
X184054960Y-50604609D01*
X183983931Y-50533580D01*
X183891126Y-50495139D01*
X183790676Y-50495139D01*
X183790675Y-50495139D01*
X183697870Y-50533580D01*
X183626842Y-50604608D01*
X183595030Y-50681411D01*
X183588401Y-50697414D01*
X179897110Y-50697414D01*
X180851704Y-49742820D01*
X184542995Y-49742820D01*
X184542995Y-49843270D01*
X184581436Y-49936075D01*
X184652465Y-50007104D01*
X184745270Y-50045545D01*
X184745271Y-50045545D01*
X184845719Y-50045545D01*
X184845720Y-50045545D01*
X184938525Y-50007104D01*
X184982166Y-49963463D01*
X191122500Y-49963463D01*
X191122500Y-50036536D01*
X191141409Y-50107106D01*
X191141411Y-50107111D01*
X191177944Y-50170389D01*
X191229611Y-50222056D01*
X191292889Y-50258589D01*
X191292893Y-50258590D01*
X191363464Y-50277500D01*
X191363466Y-50277500D01*
X191436535Y-50277500D01*
X191467651Y-50269162D01*
X191507111Y-50258589D01*
X191570389Y-50222056D01*
X191622056Y-50170389D01*
X191658589Y-50107111D01*
X191675086Y-50045544D01*
X191677500Y-50036536D01*
X191677500Y-49963463D01*
X191658590Y-49892893D01*
X191658589Y-49892889D01*
X191622056Y-49829611D01*
X191570389Y-49777944D01*
X191507111Y-49741411D01*
X191507106Y-49741409D01*
X191436536Y-49722500D01*
X191436534Y-49722500D01*
X191363466Y-49722500D01*
X191363464Y-49722500D01*
X191292893Y-49741409D01*
X191292888Y-49741411D01*
X191229612Y-49777943D01*
X191229607Y-49777947D01*
X191177947Y-49829607D01*
X191177943Y-49829612D01*
X191141411Y-49892888D01*
X191141409Y-49892893D01*
X191122500Y-49963463D01*
X184982166Y-49963463D01*
X185009554Y-49936075D01*
X185009625Y-49935904D01*
X185009627Y-49935900D01*
X185047993Y-49843275D01*
X185047995Y-49843269D01*
X185047995Y-49742820D01*
X185009554Y-49650015D01*
X184938525Y-49578986D01*
X184845720Y-49540545D01*
X184745270Y-49540545D01*
X184745269Y-49540545D01*
X184652464Y-49578986D01*
X184581436Y-49650014D01*
X184543579Y-49741411D01*
X184542995Y-49742820D01*
X180851704Y-49742820D01*
X181474412Y-49120112D01*
X183881599Y-49120112D01*
X183881599Y-49193185D01*
X183900508Y-49263755D01*
X183900510Y-49263760D01*
X183937043Y-49327038D01*
X183988710Y-49378705D01*
X184051988Y-49415238D01*
X184051992Y-49415239D01*
X184122563Y-49434149D01*
X184122565Y-49434149D01*
X184195634Y-49434149D01*
X184226750Y-49425811D01*
X184266210Y-49415238D01*
X184329488Y-49378705D01*
X184381155Y-49327038D01*
X184417688Y-49263760D01*
X184425025Y-49236374D01*
X184436599Y-49193185D01*
X184436599Y-49120112D01*
X184417689Y-49049542D01*
X184417688Y-49049538D01*
X184381155Y-48986260D01*
X184329488Y-48934593D01*
X184266210Y-48898060D01*
X184266205Y-48898058D01*
X184195635Y-48879149D01*
X184195633Y-48879149D01*
X184122565Y-48879149D01*
X184122563Y-48879149D01*
X184051992Y-48898058D01*
X184051987Y-48898060D01*
X183988711Y-48934592D01*
X183988706Y-48934596D01*
X183937046Y-48986256D01*
X183937042Y-48986261D01*
X183900510Y-49049537D01*
X183900508Y-49049542D01*
X183881599Y-49120112D01*
X181474412Y-49120112D01*
X182261061Y-48333463D01*
X192412500Y-48333463D01*
X192412500Y-48406536D01*
X192431409Y-48477106D01*
X192431411Y-48477111D01*
X192467944Y-48540389D01*
X192519611Y-48592056D01*
X192582889Y-48628589D01*
X192582893Y-48628590D01*
X192653464Y-48647500D01*
X192653466Y-48647500D01*
X192726535Y-48647500D01*
X192757651Y-48639162D01*
X192797111Y-48628589D01*
X192860389Y-48592056D01*
X192912056Y-48540389D01*
X192948589Y-48477111D01*
X192955926Y-48449725D01*
X192967500Y-48406536D01*
X192967500Y-48333463D01*
X192948590Y-48262893D01*
X192948589Y-48262889D01*
X192912056Y-48199611D01*
X192860389Y-48147944D01*
X192797111Y-48111411D01*
X192797106Y-48111409D01*
X192726536Y-48092500D01*
X192726534Y-48092500D01*
X192653466Y-48092500D01*
X192653464Y-48092500D01*
X192582893Y-48111409D01*
X192582888Y-48111411D01*
X192519612Y-48147943D01*
X192519607Y-48147947D01*
X192467947Y-48199607D01*
X192467943Y-48199612D01*
X192431411Y-48262888D01*
X192431409Y-48262893D01*
X192412500Y-48333463D01*
X182261061Y-48333463D01*
X186916877Y-43677648D01*
X186920397Y-43674394D01*
X187019022Y-43590164D01*
X187026812Y-43584505D01*
X187135314Y-43518014D01*
X187143892Y-43513644D01*
X187261452Y-43464946D01*
X187270629Y-43461965D01*
X187394347Y-43432258D01*
X187403873Y-43430749D01*
X187509625Y-43422420D01*
X187532953Y-43420583D01*
X187537782Y-43420393D01*
X188220899Y-43420393D01*
X188246549Y-43420393D01*
X188253435Y-43420780D01*
G37*
%TD.AperFunction*%
%TD*%
%TA.AperFunction,Conductor*%
%TO.N,Net-(J1-~{RESET})*%
G36*
X190921791Y-61021329D02*
G01*
X190922258Y-61021663D01*
X191096273Y-61152852D01*
X191100816Y-61160569D01*
X191098573Y-61169238D01*
X191097503Y-61170468D01*
X191005094Y-61262877D01*
X190996821Y-61266304D01*
X190995156Y-61266185D01*
X190830751Y-61242543D01*
X190823049Y-61237973D01*
X190820835Y-61229297D01*
X190820921Y-61228783D01*
X190841838Y-61119860D01*
X190843648Y-61115498D01*
X190905538Y-61024429D01*
X190913023Y-61019513D01*
X190921791Y-61021329D01*
G37*
%TD.AperFunction*%
%TD*%
%TA.AperFunction,Conductor*%
%TO.N,Net-(J1-~{RESET})*%
G36*
X195775898Y-58867040D02*
G01*
X195949570Y-58979662D01*
X195954647Y-58987039D01*
X195953021Y-58995845D01*
X195952983Y-58995903D01*
X195892037Y-59088682D01*
X195888682Y-59092037D01*
X195795903Y-59152983D01*
X195787107Y-59154661D01*
X195779700Y-59149628D01*
X195779662Y-59149570D01*
X195667040Y-58975898D01*
X195665414Y-58967092D01*
X195668582Y-58961261D01*
X195761260Y-58868583D01*
X195769532Y-58865157D01*
X195775898Y-58867040D01*
G37*
%TD.AperFunction*%
%TD*%
%TA.AperFunction,Conductor*%
%TO.N,/SDA*%
G36*
X193623185Y-50825304D02*
G01*
X193624604Y-50827023D01*
X193662271Y-50882725D01*
X193699656Y-50938012D01*
X193701453Y-50942357D01*
X193726619Y-51073352D01*
X193724814Y-51082123D01*
X193717336Y-51087049D01*
X193715246Y-51087258D01*
X193453761Y-51089881D01*
X193445454Y-51086538D01*
X193441945Y-51078299D01*
X193441944Y-51078182D01*
X193441944Y-50994846D01*
X193445371Y-50986573D01*
X193493934Y-50938010D01*
X193606640Y-50825303D01*
X193614912Y-50821877D01*
X193623185Y-50825304D01*
G37*
%TD.AperFunction*%
%TD*%
%TA.AperFunction,Conductor*%
%TO.N,/SDA*%
G36*
X184023547Y-58516486D02*
G01*
X184030964Y-58521501D01*
X184032662Y-58530293D01*
X184032108Y-58532178D01*
X183926812Y-58803655D01*
X183920626Y-58810129D01*
X183911673Y-58810332D01*
X183907631Y-58807697D01*
X183851029Y-58751095D01*
X183848747Y-58747870D01*
X183769646Y-58582467D01*
X183769169Y-58573527D01*
X183773688Y-58567702D01*
X183886643Y-58492015D01*
X183895422Y-58490258D01*
X184023547Y-58516486D01*
G37*
%TD.AperFunction*%
%TD*%
%TA.AperFunction,Conductor*%
%TO.N,/SDA*%
G36*
X183913989Y-58177172D02*
G01*
X183916325Y-58178981D01*
X184008917Y-58271573D01*
X184012237Y-58278265D01*
X184035636Y-58449867D01*
X184033358Y-58458528D01*
X184026368Y-58462915D01*
X183894111Y-58489730D01*
X183885322Y-58488015D01*
X183885222Y-58487948D01*
X183774369Y-58412823D01*
X183769443Y-58405345D01*
X183770850Y-58397203D01*
X183897972Y-58181315D01*
X183905121Y-58175927D01*
X183913989Y-58177172D01*
G37*
%TD.AperFunction*%
%TD*%
%TA.AperFunction,Conductor*%
%TO.N,/SCL*%
G36*
X193235091Y-50493336D02*
G01*
X193236674Y-50494216D01*
X193244032Y-50499094D01*
X193346901Y-50567283D01*
X193351904Y-50574710D01*
X193351927Y-50574828D01*
X193377322Y-50707013D01*
X193375517Y-50715784D01*
X193369490Y-50720334D01*
X193142799Y-50794945D01*
X193133869Y-50794276D01*
X193128027Y-50787489D01*
X193127441Y-50783831D01*
X193127441Y-50702554D01*
X193128506Y-50697677D01*
X193219579Y-50499093D01*
X193226143Y-50493002D01*
X193235091Y-50493336D01*
G37*
%TD.AperFunction*%
%TD*%
%TA.AperFunction,Conductor*%
%TO.N,/SCL*%
G36*
X184725909Y-58516991D02*
G01*
X184733336Y-58521994D01*
X184735101Y-58530520D01*
X184701746Y-58716773D01*
X184698502Y-58722984D01*
X184639876Y-58781610D01*
X184631603Y-58785037D01*
X184623330Y-58781610D01*
X184622284Y-58780410D01*
X184472733Y-58583166D01*
X184470466Y-58574505D01*
X184474988Y-58566776D01*
X184475475Y-58566426D01*
X184585223Y-58492050D01*
X184593993Y-58490246D01*
X184725909Y-58516991D01*
G37*
%TD.AperFunction*%
%TD*%
%TA.AperFunction,Conductor*%
%TO.N,/SCL*%
G36*
X184580929Y-58494502D02*
G01*
X184585945Y-58501920D01*
X184585971Y-58506485D01*
X184563146Y-58624641D01*
X184558212Y-58632114D01*
X184549439Y-58633910D01*
X184548500Y-58633688D01*
X184476715Y-58613567D01*
X184469674Y-58608034D01*
X184468607Y-58599143D01*
X184471598Y-58594030D01*
X184528170Y-58537459D01*
X184497625Y-58530942D01*
X184490250Y-58525865D01*
X184488624Y-58517059D01*
X184493702Y-58509683D01*
X184497719Y-58508038D01*
X184572139Y-58492804D01*
X184580929Y-58494502D01*
G37*
%TD.AperFunction*%
%TD*%
%TA.AperFunction,Conductor*%
%TO.N,/SCL*%
G36*
X184490862Y-58470463D02*
G01*
X184573493Y-58487217D01*
X184580919Y-58492219D01*
X184582634Y-58501008D01*
X184580852Y-58505247D01*
X184512617Y-58605935D01*
X184505139Y-58610861D01*
X184497342Y-58609649D01*
X184426892Y-58571330D01*
X184421261Y-58564367D01*
X184422204Y-58555462D01*
X184424206Y-58552782D01*
X184483850Y-58493139D01*
X184481280Y-58491106D01*
X184476918Y-58483288D01*
X184479362Y-58474673D01*
X184487182Y-58470310D01*
X184490862Y-58470463D01*
G37*
%TD.AperFunction*%
%TD*%
%TA.AperFunction,Conductor*%
%TO.N,/UART_TX*%
G36*
X195134947Y-55026760D02*
G01*
X195142359Y-55031784D01*
X195144049Y-55040578D01*
X195143887Y-55041262D01*
X195077331Y-55288460D01*
X195071871Y-55295558D01*
X195066033Y-55297118D01*
X194933967Y-55297118D01*
X194925694Y-55293691D01*
X194922669Y-55288460D01*
X194856112Y-55041262D01*
X194857270Y-55032382D01*
X194864368Y-55026922D01*
X194865036Y-55026763D01*
X194997647Y-54999484D01*
X195002353Y-54999484D01*
X195134947Y-55026760D01*
G37*
%TD.AperFunction*%
%TD*%
%TA.AperFunction,Conductor*%
%TO.N,/UART_TX*%
G36*
X191204294Y-59374029D02*
G01*
X191207323Y-59379274D01*
X191261588Y-59581842D01*
X191260418Y-59590721D01*
X191253314Y-59596172D01*
X191252658Y-59596327D01*
X191144569Y-59618708D01*
X191139825Y-59618708D01*
X191030531Y-59596077D01*
X191023124Y-59591044D01*
X191021347Y-59582789D01*
X191053435Y-59380468D01*
X191058116Y-59372835D01*
X191064991Y-59370602D01*
X191196021Y-59370602D01*
X191204294Y-59374029D01*
G37*
%TD.AperFunction*%
%TD*%
%TA.AperFunction,Conductor*%
%TO.N,/UART_RX*%
G36*
X196430549Y-53426833D02*
G01*
X196430919Y-53427432D01*
X196558653Y-53649290D01*
X196559811Y-53658170D01*
X196556786Y-53663401D01*
X196463401Y-53756786D01*
X196455128Y-53760213D01*
X196449290Y-53758653D01*
X196227432Y-53630919D01*
X196221972Y-53623821D01*
X196223130Y-53614941D01*
X196223487Y-53614362D01*
X196297970Y-53501300D01*
X196301300Y-53497970D01*
X196414343Y-53423499D01*
X196423136Y-53421810D01*
X196430549Y-53426833D01*
G37*
%TD.AperFunction*%
%TD*%
%TA.AperFunction,Conductor*%
%TO.N,/LED*%
G36*
X184714947Y-53346760D02*
G01*
X184722359Y-53351784D01*
X184724049Y-53360578D01*
X184723887Y-53361262D01*
X184657331Y-53608460D01*
X184651871Y-53615558D01*
X184646033Y-53617118D01*
X184513967Y-53617118D01*
X184505694Y-53613691D01*
X184502669Y-53608460D01*
X184436112Y-53361262D01*
X184437270Y-53352382D01*
X184444368Y-53346922D01*
X184445036Y-53346763D01*
X184577647Y-53319484D01*
X184582353Y-53319484D01*
X184714947Y-53346760D01*
G37*
%TD.AperFunction*%
%TD*%
%TA.AperFunction,Conductor*%
%TO.N,/LED*%
G36*
X190215226Y-60997920D02*
G01*
X190220303Y-61005297D01*
X190220317Y-61005365D01*
X190242825Y-61114066D01*
X190242825Y-61118810D01*
X190220317Y-61227510D01*
X190215284Y-61234917D01*
X190206488Y-61236595D01*
X190206420Y-61236581D01*
X190003979Y-61193412D01*
X189996602Y-61188335D01*
X189994719Y-61181969D01*
X189994719Y-61050906D01*
X189998146Y-61042633D01*
X190003977Y-61039463D01*
X190206421Y-60996294D01*
X190215226Y-60997920D01*
G37*
%TD.AperFunction*%
%TD*%
M02*
