%TF.GenerationSoftware,KiCad,Pcbnew,8.99.0-unknown-77b1d367df~178~ubuntu23.10.1*%
%TF.CreationDate,2024-10-31T14:46:16-04:00*%
%TF.ProjectId,nRF54L15_nPM2100_CR2032,6e524635-344c-4313-955f-6e504d323130,rev?*%
%TF.SameCoordinates,Original*%
%TF.FileFunction,Legend,Top*%
%TF.FilePolarity,Positive*%
%FSLAX46Y46*%
G04 Gerber Fmt 4.6, Leading zero omitted, Abs format (unit mm)*
G04 Created by KiCad (PCBNEW 8.99.0-unknown-77b1d367df~178~ubuntu23.10.1) date 2024-10-31 14:46:16*
%MOMM*%
%LPD*%
G01*
G04 APERTURE LIST*
%ADD10C,0.100000*%
%ADD11C,0.300000*%
%ADD12C,0.120000*%
%ADD13C,0.200000*%
G04 APERTURE END LIST*
D10*
X193100000Y-57800000D02*
X193100000Y-66292893D01*
X186700000Y-63292893D02*
G75*
G02*
X187200007Y-63792893I0J-500007D01*
G01*
X187200000Y-67007107D02*
X187200000Y-70800000D01*
X188200000Y-71800000D02*
G75*
G02*
X187200000Y-70800000I0J1000000D01*
G01*
X192800000Y-70800000D02*
G75*
G02*
X191800000Y-71800000I-1000000J0D01*
G01*
X192800000Y-67007107D02*
G75*
G02*
X192946444Y-66653550I500000J7D01*
G01*
X184107107Y-63292893D02*
X186700000Y-63292893D01*
X183500000Y-57800000D02*
X183500000Y-62685786D01*
X192600000Y-57300000D02*
G75*
G02*
X193100000Y-57800000I0J-500000D01*
G01*
X187200000Y-63792893D02*
X187200000Y-67007107D01*
X183646447Y-63039340D02*
G75*
G02*
X183500010Y-62685786I353553J353540D01*
G01*
X183500000Y-57800000D02*
G75*
G02*
X184000000Y-57300000I500000J0D01*
G01*
X192800000Y-70800000D02*
X192800000Y-67007107D01*
X184107107Y-63292893D02*
G75*
G02*
X183753552Y-63146449I-7J499993D01*
G01*
X184000000Y-57300000D02*
X192600000Y-57300000D01*
X193100000Y-66292893D02*
G75*
G02*
X192953557Y-66646449I-500000J-7D01*
G01*
X191800000Y-71800000D02*
X188200000Y-71800000D01*
X183646447Y-63039340D02*
X183753554Y-63146447D01*
X192946447Y-66653553D02*
X192953554Y-66646446D01*
D11*
X193607142Y-52178328D02*
X193607142Y-53392614D01*
X193607142Y-53392614D02*
X193678571Y-53535471D01*
X193678571Y-53535471D02*
X193750000Y-53606900D01*
X193750000Y-53606900D02*
X193892857Y-53678328D01*
X193892857Y-53678328D02*
X194178571Y-53678328D01*
X194178571Y-53678328D02*
X194321428Y-53606900D01*
X194321428Y-53606900D02*
X194392857Y-53535471D01*
X194392857Y-53535471D02*
X194464285Y-53392614D01*
X194464285Y-53392614D02*
X194464285Y-52178328D01*
X195107143Y-53249757D02*
X195821429Y-53249757D01*
X194964286Y-53678328D02*
X195464286Y-52178328D01*
X195464286Y-52178328D02*
X195964286Y-53678328D01*
X197321428Y-53678328D02*
X196821428Y-52964042D01*
X196464285Y-53678328D02*
X196464285Y-52178328D01*
X196464285Y-52178328D02*
X197035714Y-52178328D01*
X197035714Y-52178328D02*
X197178571Y-52249757D01*
X197178571Y-52249757D02*
X197250000Y-52321185D01*
X197250000Y-52321185D02*
X197321428Y-52464042D01*
X197321428Y-52464042D02*
X197321428Y-52678328D01*
X197321428Y-52678328D02*
X197250000Y-52821185D01*
X197250000Y-52821185D02*
X197178571Y-52892614D01*
X197178571Y-52892614D02*
X197035714Y-52964042D01*
X197035714Y-52964042D02*
X196464285Y-52964042D01*
X197750000Y-52178328D02*
X198607143Y-52178328D01*
X198178571Y-53678328D02*
X198178571Y-52178328D01*
D12*
%TO.C,U1*%
X189594550Y-59294600D02*
X190152275Y-59294600D01*
X189594550Y-59894200D02*
X189594550Y-59294600D01*
X192065450Y-59294600D02*
X191507725Y-59294600D01*
X192065450Y-59894200D02*
X192065450Y-59294600D01*
X192065450Y-61333400D02*
X192065450Y-61933000D01*
X192065450Y-61933000D02*
X191507725Y-61933000D01*
D13*
X190020000Y-62393800D02*
G75*
G02*
X189820000Y-62393800I-100000J0D01*
G01*
X189820000Y-62393800D02*
G75*
G02*
X190020000Y-62393800I100000J0D01*
G01*
D12*
%TO.C,U2*%
X184071250Y-59050050D02*
X184545625Y-59050050D01*
X184071250Y-59529425D02*
X184071250Y-59050050D01*
X184071250Y-60728175D02*
X184071250Y-61207550D01*
X184071250Y-61207550D02*
X184545625Y-61207550D01*
X186208750Y-60728175D02*
X186208750Y-61207550D01*
X186208750Y-61207550D02*
X185734375Y-61207550D01*
D13*
X185890000Y-58578800D02*
G75*
G02*
X185690000Y-58578800I-100000J0D01*
G01*
X185690000Y-58578800D02*
G75*
G02*
X185890000Y-58578800I100000J0D01*
G01*
D12*
%TO.C,TP2*%
X197700000Y-55000000D02*
G75*
G02*
X196300000Y-55000000I-700000J0D01*
G01*
X196300000Y-55000000D02*
G75*
G02*
X197700000Y-55000000I700000J0D01*
G01*
%TO.C,Y2*%
X188355000Y-62718800D02*
X188355000Y-62268800D01*
X189205000Y-62443800D02*
X189205000Y-62268800D01*
X189205000Y-62718800D02*
X189205000Y-62618800D01*
X189305000Y-62618800D01*
X189205000Y-62718800D01*
G36*
X189205000Y-62718800D02*
G01*
X189205000Y-62618800D01*
X189305000Y-62618800D01*
X189205000Y-62718800D01*
G37*
%TO.C,AE1*%
X188440000Y-69225000D02*
X188440000Y-71625000D01*
X188440000Y-71625000D02*
X191640000Y-71625000D01*
X191640000Y-69225000D02*
X188440000Y-69225000D01*
%TO.C,TP1*%
X195700000Y-55000000D02*
G75*
G02*
X194300000Y-55000000I-700000J0D01*
G01*
X194300000Y-55000000D02*
G75*
G02*
X195700000Y-55000000I700000J0D01*
G01*
%TO.C,Y1*%
X190980000Y-57663800D02*
X190980000Y-59063800D01*
X190980000Y-57663800D02*
X192580000Y-57663800D01*
X190980000Y-59063800D02*
X192580000Y-59063800D01*
%TO.C,R4*%
X181720000Y-50846359D02*
X181720000Y-51153641D01*
X182480000Y-50846359D02*
X182480000Y-51153641D01*
%TO.C,D1*%
X187715000Y-48865000D02*
X187715000Y-51135000D01*
X187715000Y-51135000D02*
X191600000Y-51135000D01*
X191600000Y-48865000D02*
X187715000Y-48865000D01*
%TO.C,Q1*%
X184600000Y-49440000D02*
X183950000Y-49440000D01*
X184600000Y-49440000D02*
X185250000Y-49440000D01*
X184600000Y-52560000D02*
X183950000Y-52560000D01*
X184600000Y-52560000D02*
X185250000Y-52560000D01*
X183437500Y-49490000D02*
X183197500Y-49160000D01*
X183677500Y-49160000D01*
X183437500Y-49490000D01*
G36*
X183437500Y-49490000D02*
G01*
X183197500Y-49160000D01*
X183677500Y-49160000D01*
X183437500Y-49490000D01*
G37*
%TO.C,J1*%
X197200000Y-57603949D02*
X197649013Y-57154936D01*
X197649013Y-57154936D02*
X198098026Y-57603949D01*
%TO.C,JP1*%
X179247918Y-57622183D02*
X179672183Y-57197918D01*
X180237868Y-59602082D02*
X179247918Y-58612132D01*
X180662132Y-57197918D02*
X181652082Y-58187868D01*
X181652082Y-59177817D02*
X181227817Y-59602082D01*
X179247918Y-58612132D02*
G75*
G02*
X179247917Y-57622182I494957J494975D01*
G01*
X179672183Y-57197918D02*
G75*
G02*
X180662131Y-57197918I494974J-494974D01*
G01*
X181227817Y-59602082D02*
G75*
G02*
X180237868Y-59602082I-494974J494975D01*
G01*
X181652082Y-58187868D02*
G75*
G02*
X181652083Y-59177817I-494975J-494975D01*
G01*
%TO.C,SW1*%
X187800000Y-55050000D02*
X187800000Y-54950000D01*
X187800000Y-56750000D02*
X192200000Y-56750000D01*
X192200000Y-53250000D02*
X187800000Y-53250000D01*
X192200000Y-55050000D02*
X192200000Y-54950000D01*
%TO.C,R1*%
X186620000Y-50356359D02*
X186620000Y-50663641D01*
X187380000Y-50356359D02*
X187380000Y-50663641D01*
%TO.C,C13*%
X186510000Y-61075964D02*
X186510000Y-61291636D01*
X187230000Y-61075964D02*
X187230000Y-61291636D01*
%TD*%
M02*
