%TF.GenerationSoftware,KiCad,Pcbnew,8.99.0-unknown-ce20689caf~181~ubuntu24.04.1*%
%TF.CreationDate,2024-12-06T11:41:52-05:00*%
%TF.ProjectId,nRF54L15_nPM2100_CR2032,6e524635-344c-4313-955f-6e504d323130,rev?*%
%TF.SameCoordinates,Original*%
%TF.FileFunction,AssemblyDrawing,Top*%
%FSLAX46Y46*%
G04 Gerber Fmt 4.6, Leading zero omitted, Abs format (unit mm)*
G04 Created by KiCad (PCBNEW 8.99.0-unknown-ce20689caf~181~ubuntu24.04.1) date 2024-12-06 11:41:52*
%MOMM*%
%LPD*%
G01*
G04 APERTURE LIST*
%ADD10C,0.150000*%
%ADD11C,0.040000*%
%ADD12C,0.090000*%
%ADD13C,0.120000*%
%ADD14C,0.075000*%
%ADD15C,0.100000*%
G04 APERTURE END LIST*
D10*
X192746602Y-66554380D02*
X193413269Y-66554380D01*
X192841840Y-66554380D02*
X192794221Y-66506761D01*
X192794221Y-66506761D02*
X192746602Y-66411523D01*
X192746602Y-66411523D02*
X192746602Y-66268666D01*
X192746602Y-66268666D02*
X192794221Y-66173428D01*
X192794221Y-66173428D02*
X192889459Y-66125809D01*
X192889459Y-66125809D02*
X193413269Y-66125809D01*
X193413269Y-65078190D02*
X192937078Y-65411523D01*
X193413269Y-65649618D02*
X192413269Y-65649618D01*
X192413269Y-65649618D02*
X192413269Y-65268666D01*
X192413269Y-65268666D02*
X192460888Y-65173428D01*
X192460888Y-65173428D02*
X192508507Y-65125809D01*
X192508507Y-65125809D02*
X192603745Y-65078190D01*
X192603745Y-65078190D02*
X192746602Y-65078190D01*
X192746602Y-65078190D02*
X192841840Y-65125809D01*
X192841840Y-65125809D02*
X192889459Y-65173428D01*
X192889459Y-65173428D02*
X192937078Y-65268666D01*
X192937078Y-65268666D02*
X192937078Y-65649618D01*
X192889459Y-64316285D02*
X192889459Y-64649618D01*
X193413269Y-64649618D02*
X192413269Y-64649618D01*
X192413269Y-64649618D02*
X192413269Y-64173428D01*
X192413269Y-63316285D02*
X192413269Y-63792475D01*
X192413269Y-63792475D02*
X192889459Y-63840094D01*
X192889459Y-63840094D02*
X192841840Y-63792475D01*
X192841840Y-63792475D02*
X192794221Y-63697237D01*
X192794221Y-63697237D02*
X192794221Y-63459142D01*
X192794221Y-63459142D02*
X192841840Y-63363904D01*
X192841840Y-63363904D02*
X192889459Y-63316285D01*
X192889459Y-63316285D02*
X192984697Y-63268666D01*
X192984697Y-63268666D02*
X193222792Y-63268666D01*
X193222792Y-63268666D02*
X193318030Y-63316285D01*
X193318030Y-63316285D02*
X193365650Y-63363904D01*
X193365650Y-63363904D02*
X193413269Y-63459142D01*
X193413269Y-63459142D02*
X193413269Y-63697237D01*
X193413269Y-63697237D02*
X193365650Y-63792475D01*
X193365650Y-63792475D02*
X193318030Y-63840094D01*
X192746602Y-62411523D02*
X193413269Y-62411523D01*
X192365650Y-62649618D02*
X193079935Y-62887713D01*
X193079935Y-62887713D02*
X193079935Y-62268666D01*
X193413269Y-61411523D02*
X193413269Y-61887713D01*
X193413269Y-61887713D02*
X192413269Y-61887713D01*
X193413269Y-60554380D02*
X193413269Y-61125808D01*
X193413269Y-60840094D02*
X192413269Y-60840094D01*
X192413269Y-60840094D02*
X192556126Y-60935332D01*
X192556126Y-60935332D02*
X192651364Y-61030570D01*
X192651364Y-61030570D02*
X192698983Y-61125808D01*
X192413269Y-59649618D02*
X192413269Y-60125808D01*
X192413269Y-60125808D02*
X192889459Y-60173427D01*
X192889459Y-60173427D02*
X192841840Y-60125808D01*
X192841840Y-60125808D02*
X192794221Y-60030570D01*
X192794221Y-60030570D02*
X192794221Y-59792475D01*
X192794221Y-59792475D02*
X192841840Y-59697237D01*
X192841840Y-59697237D02*
X192889459Y-59649618D01*
X192889459Y-59649618D02*
X192984697Y-59601999D01*
X192984697Y-59601999D02*
X193222792Y-59601999D01*
X193222792Y-59601999D02*
X193318030Y-59649618D01*
X193318030Y-59649618D02*
X193365650Y-59697237D01*
X193365650Y-59697237D02*
X193413269Y-59792475D01*
X193413269Y-59792475D02*
X193413269Y-60030570D01*
X193413269Y-60030570D02*
X193365650Y-60125808D01*
X193365650Y-60125808D02*
X193318030Y-60173427D01*
X193032316Y-59173427D02*
X193032316Y-58411523D01*
X193318030Y-57363904D02*
X193365650Y-57411523D01*
X193365650Y-57411523D02*
X193413269Y-57554380D01*
X193413269Y-57554380D02*
X193413269Y-57649618D01*
X193413269Y-57649618D02*
X193365650Y-57792475D01*
X193365650Y-57792475D02*
X193270411Y-57887713D01*
X193270411Y-57887713D02*
X193175173Y-57935332D01*
X193175173Y-57935332D02*
X192984697Y-57982951D01*
X192984697Y-57982951D02*
X192841840Y-57982951D01*
X192841840Y-57982951D02*
X192651364Y-57935332D01*
X192651364Y-57935332D02*
X192556126Y-57887713D01*
X192556126Y-57887713D02*
X192460888Y-57792475D01*
X192460888Y-57792475D02*
X192413269Y-57649618D01*
X192413269Y-57649618D02*
X192413269Y-57554380D01*
X192413269Y-57554380D02*
X192460888Y-57411523D01*
X192460888Y-57411523D02*
X192508507Y-57363904D01*
X193127554Y-56982951D02*
X193127554Y-56506761D01*
X193413269Y-57078189D02*
X192413269Y-56744856D01*
X192413269Y-56744856D02*
X193413269Y-56411523D01*
X192413269Y-56173427D02*
X193413269Y-55506761D01*
X192413269Y-55506761D02*
X193413269Y-56173427D01*
X192413269Y-55221046D02*
X193413269Y-54554380D01*
X192413269Y-54554380D02*
X193413269Y-55221046D01*
X190297819Y-61363904D02*
X191107342Y-61363904D01*
X191107342Y-61363904D02*
X191202580Y-61316285D01*
X191202580Y-61316285D02*
X191250200Y-61268666D01*
X191250200Y-61268666D02*
X191297819Y-61173428D01*
X191297819Y-61173428D02*
X191297819Y-60982952D01*
X191297819Y-60982952D02*
X191250200Y-60887714D01*
X191250200Y-60887714D02*
X191202580Y-60840095D01*
X191202580Y-60840095D02*
X191107342Y-60792476D01*
X191107342Y-60792476D02*
X190297819Y-60792476D01*
X191297819Y-59792476D02*
X191297819Y-60363904D01*
X191297819Y-60078190D02*
X190297819Y-60078190D01*
X190297819Y-60078190D02*
X190440676Y-60173428D01*
X190440676Y-60173428D02*
X190535914Y-60268666D01*
X190535914Y-60268666D02*
X190583533Y-60363904D01*
X189010000Y-66098152D02*
X189010000Y-66764819D01*
X188771905Y-65717200D02*
X188533810Y-66431485D01*
X188533810Y-66431485D02*
X189152857Y-66431485D01*
X189533810Y-66669580D02*
X189581429Y-66717200D01*
X189581429Y-66717200D02*
X189533810Y-66764819D01*
X189533810Y-66764819D02*
X189486191Y-66717200D01*
X189486191Y-66717200D02*
X189533810Y-66669580D01*
X189533810Y-66669580D02*
X189533810Y-66764819D01*
X189914762Y-65764819D02*
X190581428Y-65764819D01*
X190581428Y-65764819D02*
X190152857Y-66764819D01*
X190962381Y-66098152D02*
X190962381Y-66764819D01*
X190962381Y-66193390D02*
X191010000Y-66145771D01*
X191010000Y-66145771D02*
X191105238Y-66098152D01*
X191105238Y-66098152D02*
X191248095Y-66098152D01*
X191248095Y-66098152D02*
X191343333Y-66145771D01*
X191343333Y-66145771D02*
X191390952Y-66241009D01*
X191390952Y-66241009D02*
X191390952Y-66764819D01*
X191867143Y-66764819D02*
X191867143Y-65764819D01*
X191867143Y-66241009D02*
X192438571Y-66241009D01*
X192438571Y-66764819D02*
X192438571Y-65764819D01*
D11*
X190468333Y-68153574D02*
X190349285Y-68153574D01*
X190349285Y-68153574D02*
X190349285Y-67903574D01*
X190658809Y-67903574D02*
X190611190Y-67903574D01*
X190611190Y-67903574D02*
X190587381Y-67915479D01*
X190587381Y-67915479D02*
X190575476Y-67927384D01*
X190575476Y-67927384D02*
X190551666Y-67963098D01*
X190551666Y-67963098D02*
X190539762Y-68010717D01*
X190539762Y-68010717D02*
X190539762Y-68105955D01*
X190539762Y-68105955D02*
X190551666Y-68129765D01*
X190551666Y-68129765D02*
X190563571Y-68141670D01*
X190563571Y-68141670D02*
X190587381Y-68153574D01*
X190587381Y-68153574D02*
X190635000Y-68153574D01*
X190635000Y-68153574D02*
X190658809Y-68141670D01*
X190658809Y-68141670D02*
X190670714Y-68129765D01*
X190670714Y-68129765D02*
X190682619Y-68105955D01*
X190682619Y-68105955D02*
X190682619Y-68046431D01*
X190682619Y-68046431D02*
X190670714Y-68022622D01*
X190670714Y-68022622D02*
X190658809Y-68010717D01*
X190658809Y-68010717D02*
X190635000Y-67998812D01*
X190635000Y-67998812D02*
X190587381Y-67998812D01*
X190587381Y-67998812D02*
X190563571Y-68010717D01*
X190563571Y-68010717D02*
X190551666Y-68022622D01*
X190551666Y-68022622D02*
X190539762Y-68046431D01*
D10*
X187834819Y-62455228D02*
X187834819Y-63026656D01*
X187834819Y-62740942D02*
X186834819Y-62740942D01*
X186834819Y-62740942D02*
X186977676Y-62836180D01*
X186977676Y-62836180D02*
X187072914Y-62931418D01*
X187072914Y-62931418D02*
X187120533Y-63026656D01*
X186834819Y-61836180D02*
X186834819Y-61740942D01*
X186834819Y-61740942D02*
X186882438Y-61645704D01*
X186882438Y-61645704D02*
X186930057Y-61598085D01*
X186930057Y-61598085D02*
X187025295Y-61550466D01*
X187025295Y-61550466D02*
X187215771Y-61502847D01*
X187215771Y-61502847D02*
X187453866Y-61502847D01*
X187453866Y-61502847D02*
X187644342Y-61550466D01*
X187644342Y-61550466D02*
X187739580Y-61598085D01*
X187739580Y-61598085D02*
X187787200Y-61645704D01*
X187787200Y-61645704D02*
X187834819Y-61740942D01*
X187834819Y-61740942D02*
X187834819Y-61836180D01*
X187834819Y-61836180D02*
X187787200Y-61931418D01*
X187787200Y-61931418D02*
X187739580Y-61979037D01*
X187739580Y-61979037D02*
X187644342Y-62026656D01*
X187644342Y-62026656D02*
X187453866Y-62074275D01*
X187453866Y-62074275D02*
X187215771Y-62074275D01*
X187215771Y-62074275D02*
X187025295Y-62026656D01*
X187025295Y-62026656D02*
X186930057Y-61979037D01*
X186930057Y-61979037D02*
X186882438Y-61931418D01*
X186882438Y-61931418D02*
X186834819Y-61836180D01*
X187168152Y-61074275D02*
X187834819Y-61074275D01*
X187263390Y-61074275D02*
X187215771Y-61026656D01*
X187215771Y-61026656D02*
X187168152Y-60931418D01*
X187168152Y-60931418D02*
X187168152Y-60788561D01*
X187168152Y-60788561D02*
X187215771Y-60693323D01*
X187215771Y-60693323D02*
X187311009Y-60645704D01*
X187311009Y-60645704D02*
X187834819Y-60645704D01*
X187311009Y-59836180D02*
X187311009Y-60169513D01*
X187834819Y-60169513D02*
X186834819Y-60169513D01*
X186834819Y-60169513D02*
X186834819Y-59693323D01*
D11*
X189199765Y-61544514D02*
X189211670Y-61556418D01*
X189211670Y-61556418D02*
X189223574Y-61592133D01*
X189223574Y-61592133D02*
X189223574Y-61615942D01*
X189223574Y-61615942D02*
X189211670Y-61651656D01*
X189211670Y-61651656D02*
X189187860Y-61675466D01*
X189187860Y-61675466D02*
X189164050Y-61687371D01*
X189164050Y-61687371D02*
X189116431Y-61699275D01*
X189116431Y-61699275D02*
X189080717Y-61699275D01*
X189080717Y-61699275D02*
X189033098Y-61687371D01*
X189033098Y-61687371D02*
X189009289Y-61675466D01*
X189009289Y-61675466D02*
X188985479Y-61651656D01*
X188985479Y-61651656D02*
X188973574Y-61615942D01*
X188973574Y-61615942D02*
X188973574Y-61592133D01*
X188973574Y-61592133D02*
X188985479Y-61556418D01*
X188985479Y-61556418D02*
X188997384Y-61544514D01*
X189223574Y-61306418D02*
X189223574Y-61449275D01*
X189223574Y-61377847D02*
X188973574Y-61377847D01*
X188973574Y-61377847D02*
X189009289Y-61401656D01*
X189009289Y-61401656D02*
X189033098Y-61425466D01*
X189033098Y-61425466D02*
X189045003Y-61449275D01*
X188997384Y-61211180D02*
X188985479Y-61199276D01*
X188985479Y-61199276D02*
X188973574Y-61175466D01*
X188973574Y-61175466D02*
X188973574Y-61115942D01*
X188973574Y-61115942D02*
X188985479Y-61092133D01*
X188985479Y-61092133D02*
X188997384Y-61080228D01*
X188997384Y-61080228D02*
X189021193Y-61068323D01*
X189021193Y-61068323D02*
X189045003Y-61068323D01*
X189045003Y-61068323D02*
X189080717Y-61080228D01*
X189080717Y-61080228D02*
X189223574Y-61223085D01*
X189223574Y-61223085D02*
X189223574Y-61068323D01*
D10*
X187233333Y-66764819D02*
X186661905Y-66764819D01*
X186947619Y-66764819D02*
X186947619Y-65764819D01*
X186947619Y-65764819D02*
X186852381Y-65907676D01*
X186852381Y-65907676D02*
X186757143Y-66002914D01*
X186757143Y-66002914D02*
X186661905Y-66050533D01*
X187852381Y-65764819D02*
X187947619Y-65764819D01*
X187947619Y-65764819D02*
X188042857Y-65812438D01*
X188042857Y-65812438D02*
X188090476Y-65860057D01*
X188090476Y-65860057D02*
X188138095Y-65955295D01*
X188138095Y-65955295D02*
X188185714Y-66145771D01*
X188185714Y-66145771D02*
X188185714Y-66383866D01*
X188185714Y-66383866D02*
X188138095Y-66574342D01*
X188138095Y-66574342D02*
X188090476Y-66669580D01*
X188090476Y-66669580D02*
X188042857Y-66717200D01*
X188042857Y-66717200D02*
X187947619Y-66764819D01*
X187947619Y-66764819D02*
X187852381Y-66764819D01*
X187852381Y-66764819D02*
X187757143Y-66717200D01*
X187757143Y-66717200D02*
X187709524Y-66669580D01*
X187709524Y-66669580D02*
X187661905Y-66574342D01*
X187661905Y-66574342D02*
X187614286Y-66383866D01*
X187614286Y-66383866D02*
X187614286Y-66145771D01*
X187614286Y-66145771D02*
X187661905Y-65955295D01*
X187661905Y-65955295D02*
X187709524Y-65860057D01*
X187709524Y-65860057D02*
X187757143Y-65812438D01*
X187757143Y-65812438D02*
X187852381Y-65764819D01*
X188614286Y-66098152D02*
X188614286Y-66764819D01*
X188614286Y-66193390D02*
X188661905Y-66145771D01*
X188661905Y-66145771D02*
X188757143Y-66098152D01*
X188757143Y-66098152D02*
X188900000Y-66098152D01*
X188900000Y-66098152D02*
X188995238Y-66145771D01*
X188995238Y-66145771D02*
X189042857Y-66241009D01*
X189042857Y-66241009D02*
X189042857Y-66764819D01*
X189519048Y-66764819D02*
X189519048Y-65764819D01*
X189519048Y-66241009D02*
X190090476Y-66241009D01*
X190090476Y-66764819D02*
X190090476Y-65764819D01*
D11*
X188358333Y-68153574D02*
X188239285Y-68153574D01*
X188239285Y-68153574D02*
X188239285Y-67903574D01*
X188417857Y-67903574D02*
X188584523Y-67903574D01*
X188584523Y-67903574D02*
X188477381Y-68153574D01*
D10*
X191744811Y-49733475D02*
X191340750Y-50137536D01*
X191542781Y-49935506D02*
X190835674Y-49228399D01*
X190835674Y-49228399D02*
X190869346Y-49396758D01*
X190869346Y-49396758D02*
X190869346Y-49531445D01*
X190869346Y-49531445D02*
X190835674Y-49632460D01*
X191475437Y-48588636D02*
X191542781Y-48521292D01*
X191542781Y-48521292D02*
X191643796Y-48487620D01*
X191643796Y-48487620D02*
X191711139Y-48487620D01*
X191711139Y-48487620D02*
X191812155Y-48521292D01*
X191812155Y-48521292D02*
X191980513Y-48622307D01*
X191980513Y-48622307D02*
X192148872Y-48790666D01*
X192148872Y-48790666D02*
X192249887Y-48959025D01*
X192249887Y-48959025D02*
X192283559Y-49060040D01*
X192283559Y-49060040D02*
X192283559Y-49127384D01*
X192283559Y-49127384D02*
X192249887Y-49228399D01*
X192249887Y-49228399D02*
X192182544Y-49295742D01*
X192182544Y-49295742D02*
X192081529Y-49329414D01*
X192081529Y-49329414D02*
X192014185Y-49329414D01*
X192014185Y-49329414D02*
X191913170Y-49295742D01*
X191913170Y-49295742D02*
X191744811Y-49194727D01*
X191744811Y-49194727D02*
X191576452Y-49026368D01*
X191576452Y-49026368D02*
X191475437Y-48858010D01*
X191475437Y-48858010D02*
X191441765Y-48756994D01*
X191441765Y-48756994D02*
X191441765Y-48689651D01*
X191441765Y-48689651D02*
X191475437Y-48588636D01*
X192148872Y-47915201D02*
X192216216Y-47847857D01*
X192216216Y-47847857D02*
X192317231Y-47814185D01*
X192317231Y-47814185D02*
X192384574Y-47814185D01*
X192384574Y-47814185D02*
X192485590Y-47847857D01*
X192485590Y-47847857D02*
X192653948Y-47948872D01*
X192653948Y-47948872D02*
X192822307Y-48117231D01*
X192822307Y-48117231D02*
X192923322Y-48285590D01*
X192923322Y-48285590D02*
X192956994Y-48386605D01*
X192956994Y-48386605D02*
X192956994Y-48453949D01*
X192956994Y-48453949D02*
X192923322Y-48554964D01*
X192923322Y-48554964D02*
X192855979Y-48622307D01*
X192855979Y-48622307D02*
X192754964Y-48655979D01*
X192754964Y-48655979D02*
X192687620Y-48655979D01*
X192687620Y-48655979D02*
X192586605Y-48622307D01*
X192586605Y-48622307D02*
X192418246Y-48521292D01*
X192418246Y-48521292D02*
X192249887Y-48352933D01*
X192249887Y-48352933D02*
X192148872Y-48184575D01*
X192148872Y-48184575D02*
X192115200Y-48083559D01*
X192115200Y-48083559D02*
X192115200Y-48016216D01*
X192115200Y-48016216D02*
X192148872Y-47915201D01*
X192923322Y-47612155D02*
X193394727Y-48083559D01*
X192990666Y-47679498D02*
X192990666Y-47612155D01*
X192990666Y-47612155D02*
X193024338Y-47511139D01*
X193024338Y-47511139D02*
X193125353Y-47410124D01*
X193125353Y-47410124D02*
X193226368Y-47376452D01*
X193226368Y-47376452D02*
X193327383Y-47410124D01*
X193327383Y-47410124D02*
X193697773Y-47780514D01*
X193899803Y-46837704D02*
X193664101Y-47073407D01*
X194034490Y-47443796D02*
X193327384Y-46736689D01*
X193327384Y-46736689D02*
X193664101Y-46399972D01*
D11*
X193690664Y-49717948D02*
X193690664Y-49734784D01*
X193690664Y-49734784D02*
X193673828Y-49768456D01*
X193673828Y-49768456D02*
X193656992Y-49785292D01*
X193656992Y-49785292D02*
X193623321Y-49802127D01*
X193623321Y-49802127D02*
X193589649Y-49802127D01*
X193589649Y-49802127D02*
X193564395Y-49793710D01*
X193564395Y-49793710D02*
X193522305Y-49768456D01*
X193522305Y-49768456D02*
X193497052Y-49743202D01*
X193497052Y-49743202D02*
X193471798Y-49701112D01*
X193471798Y-49701112D02*
X193463380Y-49675858D01*
X193463380Y-49675858D02*
X193463380Y-49642187D01*
X193463380Y-49642187D02*
X193480216Y-49608515D01*
X193480216Y-49608515D02*
X193497052Y-49591679D01*
X193497052Y-49591679D02*
X193530723Y-49574843D01*
X193530723Y-49574843D02*
X193547559Y-49574843D01*
X193875859Y-49566425D02*
X193774843Y-49667440D01*
X193825351Y-49616933D02*
X193648574Y-49440156D01*
X193648574Y-49440156D02*
X193656992Y-49482246D01*
X193656992Y-49482246D02*
X193656992Y-49515918D01*
X193656992Y-49515918D02*
X193648574Y-49541171D01*
X193850605Y-49238126D02*
X193816933Y-49271798D01*
X193816933Y-49271798D02*
X193808515Y-49297051D01*
X193808515Y-49297051D02*
X193808515Y-49313887D01*
X193808515Y-49313887D02*
X193816933Y-49355977D01*
X193816933Y-49355977D02*
X193842187Y-49398067D01*
X193842187Y-49398067D02*
X193909530Y-49465410D01*
X193909530Y-49465410D02*
X193934784Y-49473828D01*
X193934784Y-49473828D02*
X193951620Y-49473828D01*
X193951620Y-49473828D02*
X193976874Y-49465410D01*
X193976874Y-49465410D02*
X194010546Y-49431738D01*
X194010546Y-49431738D02*
X194018964Y-49406485D01*
X194018964Y-49406485D02*
X194018964Y-49389649D01*
X194018964Y-49389649D02*
X194010546Y-49364395D01*
X194010546Y-49364395D02*
X193968456Y-49322305D01*
X193968456Y-49322305D02*
X193943202Y-49313887D01*
X193943202Y-49313887D02*
X193926366Y-49313887D01*
X193926366Y-49313887D02*
X193901112Y-49322305D01*
X193901112Y-49322305D02*
X193867441Y-49355977D01*
X193867441Y-49355977D02*
X193859023Y-49381231D01*
X193859023Y-49381231D02*
X193859023Y-49398067D01*
X193859023Y-49398067D02*
X193867441Y-49423320D01*
D10*
X184561903Y-45814819D02*
X184561903Y-46529104D01*
X184561903Y-46529104D02*
X184514284Y-46671961D01*
X184514284Y-46671961D02*
X184419046Y-46767200D01*
X184419046Y-46767200D02*
X184276189Y-46814819D01*
X184276189Y-46814819D02*
X184180951Y-46814819D01*
X185466665Y-46148152D02*
X185466665Y-46814819D01*
X185038094Y-46148152D02*
X185038094Y-46671961D01*
X185038094Y-46671961D02*
X185085713Y-46767200D01*
X185085713Y-46767200D02*
X185180951Y-46814819D01*
X185180951Y-46814819D02*
X185323808Y-46814819D01*
X185323808Y-46814819D02*
X185419046Y-46767200D01*
X185419046Y-46767200D02*
X185466665Y-46719580D01*
X185942856Y-46814819D02*
X185942856Y-46148152D01*
X185942856Y-46243390D02*
X185990475Y-46195771D01*
X185990475Y-46195771D02*
X186085713Y-46148152D01*
X186085713Y-46148152D02*
X186228570Y-46148152D01*
X186228570Y-46148152D02*
X186323808Y-46195771D01*
X186323808Y-46195771D02*
X186371427Y-46291009D01*
X186371427Y-46291009D02*
X186371427Y-46814819D01*
X186371427Y-46291009D02*
X186419046Y-46195771D01*
X186419046Y-46195771D02*
X186514284Y-46148152D01*
X186514284Y-46148152D02*
X186657141Y-46148152D01*
X186657141Y-46148152D02*
X186752380Y-46195771D01*
X186752380Y-46195771D02*
X186799999Y-46291009D01*
X186799999Y-46291009D02*
X186799999Y-46814819D01*
X187276189Y-46148152D02*
X187276189Y-47148152D01*
X187276189Y-46195771D02*
X187371427Y-46148152D01*
X187371427Y-46148152D02*
X187561903Y-46148152D01*
X187561903Y-46148152D02*
X187657141Y-46195771D01*
X187657141Y-46195771D02*
X187704760Y-46243390D01*
X187704760Y-46243390D02*
X187752379Y-46338628D01*
X187752379Y-46338628D02*
X187752379Y-46624342D01*
X187752379Y-46624342D02*
X187704760Y-46719580D01*
X187704760Y-46719580D02*
X187657141Y-46767200D01*
X187657141Y-46767200D02*
X187561903Y-46814819D01*
X187561903Y-46814819D02*
X187371427Y-46814819D01*
X187371427Y-46814819D02*
X187276189Y-46767200D01*
X188561903Y-46767200D02*
X188466665Y-46814819D01*
X188466665Y-46814819D02*
X188276189Y-46814819D01*
X188276189Y-46814819D02*
X188180951Y-46767200D01*
X188180951Y-46767200D02*
X188133332Y-46671961D01*
X188133332Y-46671961D02*
X188133332Y-46291009D01*
X188133332Y-46291009D02*
X188180951Y-46195771D01*
X188180951Y-46195771D02*
X188276189Y-46148152D01*
X188276189Y-46148152D02*
X188466665Y-46148152D01*
X188466665Y-46148152D02*
X188561903Y-46195771D01*
X188561903Y-46195771D02*
X188609522Y-46291009D01*
X188609522Y-46291009D02*
X188609522Y-46386247D01*
X188609522Y-46386247D02*
X188133332Y-46481485D01*
X189038094Y-46814819D02*
X189038094Y-46148152D01*
X189038094Y-46338628D02*
X189085713Y-46243390D01*
X189085713Y-46243390D02*
X189133332Y-46195771D01*
X189133332Y-46195771D02*
X189228570Y-46148152D01*
X189228570Y-46148152D02*
X189323808Y-46148152D01*
X189419047Y-46910057D02*
X190180951Y-46910057D01*
X190371428Y-45910057D02*
X190419047Y-45862438D01*
X190419047Y-45862438D02*
X190514285Y-45814819D01*
X190514285Y-45814819D02*
X190752380Y-45814819D01*
X190752380Y-45814819D02*
X190847618Y-45862438D01*
X190847618Y-45862438D02*
X190895237Y-45910057D01*
X190895237Y-45910057D02*
X190942856Y-46005295D01*
X190942856Y-46005295D02*
X190942856Y-46100533D01*
X190942856Y-46100533D02*
X190895237Y-46243390D01*
X190895237Y-46243390D02*
X190323809Y-46814819D01*
X190323809Y-46814819D02*
X190942856Y-46814819D01*
X191133333Y-46910057D02*
X191895237Y-46910057D01*
X192085714Y-46767200D02*
X192228571Y-46814819D01*
X192228571Y-46814819D02*
X192466666Y-46814819D01*
X192466666Y-46814819D02*
X192561904Y-46767200D01*
X192561904Y-46767200D02*
X192609523Y-46719580D01*
X192609523Y-46719580D02*
X192657142Y-46624342D01*
X192657142Y-46624342D02*
X192657142Y-46529104D01*
X192657142Y-46529104D02*
X192609523Y-46433866D01*
X192609523Y-46433866D02*
X192561904Y-46386247D01*
X192561904Y-46386247D02*
X192466666Y-46338628D01*
X192466666Y-46338628D02*
X192276190Y-46291009D01*
X192276190Y-46291009D02*
X192180952Y-46243390D01*
X192180952Y-46243390D02*
X192133333Y-46195771D01*
X192133333Y-46195771D02*
X192085714Y-46100533D01*
X192085714Y-46100533D02*
X192085714Y-46005295D01*
X192085714Y-46005295D02*
X192133333Y-45910057D01*
X192133333Y-45910057D02*
X192180952Y-45862438D01*
X192180952Y-45862438D02*
X192276190Y-45814819D01*
X192276190Y-45814819D02*
X192514285Y-45814819D01*
X192514285Y-45814819D02*
X192657142Y-45862438D01*
X193085714Y-46814819D02*
X193085714Y-46148152D01*
X193085714Y-46243390D02*
X193133333Y-46195771D01*
X193133333Y-46195771D02*
X193228571Y-46148152D01*
X193228571Y-46148152D02*
X193371428Y-46148152D01*
X193371428Y-46148152D02*
X193466666Y-46195771D01*
X193466666Y-46195771D02*
X193514285Y-46291009D01*
X193514285Y-46291009D02*
X193514285Y-46814819D01*
X193514285Y-46291009D02*
X193561904Y-46195771D01*
X193561904Y-46195771D02*
X193657142Y-46148152D01*
X193657142Y-46148152D02*
X193799999Y-46148152D01*
X193799999Y-46148152D02*
X193895238Y-46195771D01*
X193895238Y-46195771D02*
X193942857Y-46291009D01*
X193942857Y-46291009D02*
X193942857Y-46814819D01*
X194847618Y-46814819D02*
X194847618Y-46291009D01*
X194847618Y-46291009D02*
X194799999Y-46195771D01*
X194799999Y-46195771D02*
X194704761Y-46148152D01*
X194704761Y-46148152D02*
X194514285Y-46148152D01*
X194514285Y-46148152D02*
X194419047Y-46195771D01*
X194847618Y-46767200D02*
X194752380Y-46814819D01*
X194752380Y-46814819D02*
X194514285Y-46814819D01*
X194514285Y-46814819D02*
X194419047Y-46767200D01*
X194419047Y-46767200D02*
X194371428Y-46671961D01*
X194371428Y-46671961D02*
X194371428Y-46576723D01*
X194371428Y-46576723D02*
X194419047Y-46481485D01*
X194419047Y-46481485D02*
X194514285Y-46433866D01*
X194514285Y-46433866D02*
X194752380Y-46433866D01*
X194752380Y-46433866D02*
X194847618Y-46386247D01*
X195466666Y-46814819D02*
X195371428Y-46767200D01*
X195371428Y-46767200D02*
X195323809Y-46671961D01*
X195323809Y-46671961D02*
X195323809Y-45814819D01*
X195990476Y-46814819D02*
X195895238Y-46767200D01*
X195895238Y-46767200D02*
X195847619Y-46671961D01*
X195847619Y-46671961D02*
X195847619Y-45814819D01*
X196133334Y-46910057D02*
X196895238Y-46910057D01*
X197466667Y-46291009D02*
X197609524Y-46338628D01*
X197609524Y-46338628D02*
X197657143Y-46386247D01*
X197657143Y-46386247D02*
X197704762Y-46481485D01*
X197704762Y-46481485D02*
X197704762Y-46624342D01*
X197704762Y-46624342D02*
X197657143Y-46719580D01*
X197657143Y-46719580D02*
X197609524Y-46767200D01*
X197609524Y-46767200D02*
X197514286Y-46814819D01*
X197514286Y-46814819D02*
X197133334Y-46814819D01*
X197133334Y-46814819D02*
X197133334Y-45814819D01*
X197133334Y-45814819D02*
X197466667Y-45814819D01*
X197466667Y-45814819D02*
X197561905Y-45862438D01*
X197561905Y-45862438D02*
X197609524Y-45910057D01*
X197609524Y-45910057D02*
X197657143Y-46005295D01*
X197657143Y-46005295D02*
X197657143Y-46100533D01*
X197657143Y-46100533D02*
X197609524Y-46195771D01*
X197609524Y-46195771D02*
X197561905Y-46243390D01*
X197561905Y-46243390D02*
X197466667Y-46291009D01*
X197466667Y-46291009D02*
X197133334Y-46291009D01*
X198133334Y-46814819D02*
X198133334Y-46148152D01*
X198133334Y-46338628D02*
X198180953Y-46243390D01*
X198180953Y-46243390D02*
X198228572Y-46195771D01*
X198228572Y-46195771D02*
X198323810Y-46148152D01*
X198323810Y-46148152D02*
X198419048Y-46148152D01*
X198752382Y-46814819D02*
X198752382Y-46148152D01*
X198752382Y-45814819D02*
X198704763Y-45862438D01*
X198704763Y-45862438D02*
X198752382Y-45910057D01*
X198752382Y-45910057D02*
X198800001Y-45862438D01*
X198800001Y-45862438D02*
X198752382Y-45814819D01*
X198752382Y-45814819D02*
X198752382Y-45910057D01*
X199657143Y-46814819D02*
X199657143Y-45814819D01*
X199657143Y-46767200D02*
X199561905Y-46814819D01*
X199561905Y-46814819D02*
X199371429Y-46814819D01*
X199371429Y-46814819D02*
X199276191Y-46767200D01*
X199276191Y-46767200D02*
X199228572Y-46719580D01*
X199228572Y-46719580D02*
X199180953Y-46624342D01*
X199180953Y-46624342D02*
X199180953Y-46338628D01*
X199180953Y-46338628D02*
X199228572Y-46243390D01*
X199228572Y-46243390D02*
X199276191Y-46195771D01*
X199276191Y-46195771D02*
X199371429Y-46148152D01*
X199371429Y-46148152D02*
X199561905Y-46148152D01*
X199561905Y-46148152D02*
X199657143Y-46195771D01*
X200561905Y-46148152D02*
X200561905Y-46957676D01*
X200561905Y-46957676D02*
X200514286Y-47052914D01*
X200514286Y-47052914D02*
X200466667Y-47100533D01*
X200466667Y-47100533D02*
X200371429Y-47148152D01*
X200371429Y-47148152D02*
X200228572Y-47148152D01*
X200228572Y-47148152D02*
X200133334Y-47100533D01*
X200561905Y-46767200D02*
X200466667Y-46814819D01*
X200466667Y-46814819D02*
X200276191Y-46814819D01*
X200276191Y-46814819D02*
X200180953Y-46767200D01*
X200180953Y-46767200D02*
X200133334Y-46719580D01*
X200133334Y-46719580D02*
X200085715Y-46624342D01*
X200085715Y-46624342D02*
X200085715Y-46338628D01*
X200085715Y-46338628D02*
X200133334Y-46243390D01*
X200133334Y-46243390D02*
X200180953Y-46195771D01*
X200180953Y-46195771D02*
X200276191Y-46148152D01*
X200276191Y-46148152D02*
X200466667Y-46148152D01*
X200466667Y-46148152D02*
X200561905Y-46195771D01*
X201419048Y-46767200D02*
X201323810Y-46814819D01*
X201323810Y-46814819D02*
X201133334Y-46814819D01*
X201133334Y-46814819D02*
X201038096Y-46767200D01*
X201038096Y-46767200D02*
X200990477Y-46671961D01*
X200990477Y-46671961D02*
X200990477Y-46291009D01*
X200990477Y-46291009D02*
X201038096Y-46195771D01*
X201038096Y-46195771D02*
X201133334Y-46148152D01*
X201133334Y-46148152D02*
X201323810Y-46148152D01*
X201323810Y-46148152D02*
X201419048Y-46195771D01*
X201419048Y-46195771D02*
X201466667Y-46291009D01*
X201466667Y-46291009D02*
X201466667Y-46386247D01*
X201466667Y-46386247D02*
X200990477Y-46481485D01*
X202323810Y-46814819D02*
X202323810Y-45814819D01*
X202323810Y-46767200D02*
X202228572Y-46814819D01*
X202228572Y-46814819D02*
X202038096Y-46814819D01*
X202038096Y-46814819D02*
X201942858Y-46767200D01*
X201942858Y-46767200D02*
X201895239Y-46719580D01*
X201895239Y-46719580D02*
X201847620Y-46624342D01*
X201847620Y-46624342D02*
X201847620Y-46338628D01*
X201847620Y-46338628D02*
X201895239Y-46243390D01*
X201895239Y-46243390D02*
X201942858Y-46195771D01*
X201942858Y-46195771D02*
X202038096Y-46148152D01*
X202038096Y-46148152D02*
X202228572Y-46148152D01*
X202228572Y-46148152D02*
X202323810Y-46195771D01*
D11*
X193083333Y-47388200D02*
X193083333Y-47573915D01*
X193083333Y-47573915D02*
X193070952Y-47611058D01*
X193070952Y-47611058D02*
X193046190Y-47635820D01*
X193046190Y-47635820D02*
X193009047Y-47648200D01*
X193009047Y-47648200D02*
X192984285Y-47648200D01*
X193207142Y-47648200D02*
X193207142Y-47388200D01*
X193207142Y-47388200D02*
X193306190Y-47388200D01*
X193306190Y-47388200D02*
X193330952Y-47400581D01*
X193330952Y-47400581D02*
X193343333Y-47412962D01*
X193343333Y-47412962D02*
X193355714Y-47437724D01*
X193355714Y-47437724D02*
X193355714Y-47474867D01*
X193355714Y-47474867D02*
X193343333Y-47499629D01*
X193343333Y-47499629D02*
X193330952Y-47512010D01*
X193330952Y-47512010D02*
X193306190Y-47524391D01*
X193306190Y-47524391D02*
X193207142Y-47524391D01*
X193454761Y-47412962D02*
X193467142Y-47400581D01*
X193467142Y-47400581D02*
X193491904Y-47388200D01*
X193491904Y-47388200D02*
X193553809Y-47388200D01*
X193553809Y-47388200D02*
X193578571Y-47400581D01*
X193578571Y-47400581D02*
X193590952Y-47412962D01*
X193590952Y-47412962D02*
X193603333Y-47437724D01*
X193603333Y-47437724D02*
X193603333Y-47462486D01*
X193603333Y-47462486D02*
X193590952Y-47499629D01*
X193590952Y-47499629D02*
X193442380Y-47648200D01*
X193442380Y-47648200D02*
X193603333Y-47648200D01*
D10*
X189330057Y-67531904D02*
X189282438Y-67484285D01*
X189282438Y-67484285D02*
X189234819Y-67389047D01*
X189234819Y-67389047D02*
X189234819Y-67150952D01*
X189234819Y-67150952D02*
X189282438Y-67055714D01*
X189282438Y-67055714D02*
X189330057Y-67008095D01*
X189330057Y-67008095D02*
X189425295Y-66960476D01*
X189425295Y-66960476D02*
X189520533Y-66960476D01*
X189520533Y-66960476D02*
X189663390Y-67008095D01*
X189663390Y-67008095D02*
X190234819Y-67579523D01*
X190234819Y-67579523D02*
X190234819Y-66960476D01*
X189568152Y-66531904D02*
X190234819Y-66531904D01*
X189663390Y-66531904D02*
X189615771Y-66484285D01*
X189615771Y-66484285D02*
X189568152Y-66389047D01*
X189568152Y-66389047D02*
X189568152Y-66246190D01*
X189568152Y-66246190D02*
X189615771Y-66150952D01*
X189615771Y-66150952D02*
X189711009Y-66103333D01*
X189711009Y-66103333D02*
X190234819Y-66103333D01*
X190234819Y-65627142D02*
X189234819Y-65627142D01*
X189711009Y-65627142D02*
X189711009Y-65055714D01*
X190234819Y-65055714D02*
X189234819Y-65055714D01*
D11*
X191623574Y-66311666D02*
X191623574Y-66430714D01*
X191623574Y-66430714D02*
X191373574Y-66430714D01*
X191456908Y-66121190D02*
X191623574Y-66121190D01*
X191361670Y-66180714D02*
X191540241Y-66240237D01*
X191540241Y-66240237D02*
X191540241Y-66085476D01*
D10*
X187050000Y-59781952D02*
X187050000Y-60448619D01*
X186811905Y-59401000D02*
X186573810Y-60115285D01*
X186573810Y-60115285D02*
X187192857Y-60115285D01*
X187573810Y-60353380D02*
X187621429Y-60401000D01*
X187621429Y-60401000D02*
X187573810Y-60448619D01*
X187573810Y-60448619D02*
X187526191Y-60401000D01*
X187526191Y-60401000D02*
X187573810Y-60353380D01*
X187573810Y-60353380D02*
X187573810Y-60448619D01*
X187954762Y-59448619D02*
X188621428Y-59448619D01*
X188621428Y-59448619D02*
X188192857Y-60448619D01*
X189430952Y-59781952D02*
X189430952Y-60448619D01*
X189002381Y-59781952D02*
X189002381Y-60305761D01*
X189002381Y-60305761D02*
X189050000Y-60401000D01*
X189050000Y-60401000D02*
X189145238Y-60448619D01*
X189145238Y-60448619D02*
X189288095Y-60448619D01*
X189288095Y-60448619D02*
X189383333Y-60401000D01*
X189383333Y-60401000D02*
X189430952Y-60353380D01*
X189907143Y-60448619D02*
X189907143Y-59448619D01*
X189907143Y-59924809D02*
X190478571Y-59924809D01*
X190478571Y-60448619D02*
X190478571Y-59448619D01*
D11*
X188508333Y-58937374D02*
X188389285Y-58937374D01*
X188389285Y-58937374D02*
X188389285Y-58687374D01*
X188722619Y-58937374D02*
X188579762Y-58937374D01*
X188651190Y-58937374D02*
X188651190Y-58687374D01*
X188651190Y-58687374D02*
X188627381Y-58723089D01*
X188627381Y-58723089D02*
X188603571Y-58746898D01*
X188603571Y-58746898D02*
X188579762Y-58758803D01*
D10*
X193666666Y-56004819D02*
X194238094Y-56004819D01*
X193952380Y-57004819D02*
X193952380Y-56004819D01*
X194952380Y-56957200D02*
X194857142Y-57004819D01*
X194857142Y-57004819D02*
X194666666Y-57004819D01*
X194666666Y-57004819D02*
X194571428Y-56957200D01*
X194571428Y-56957200D02*
X194523809Y-56861961D01*
X194523809Y-56861961D02*
X194523809Y-56481009D01*
X194523809Y-56481009D02*
X194571428Y-56385771D01*
X194571428Y-56385771D02*
X194666666Y-56338152D01*
X194666666Y-56338152D02*
X194857142Y-56338152D01*
X194857142Y-56338152D02*
X194952380Y-56385771D01*
X194952380Y-56385771D02*
X194999999Y-56481009D01*
X194999999Y-56481009D02*
X194999999Y-56576247D01*
X194999999Y-56576247D02*
X194523809Y-56671485D01*
X195380952Y-56957200D02*
X195476190Y-57004819D01*
X195476190Y-57004819D02*
X195666666Y-57004819D01*
X195666666Y-57004819D02*
X195761904Y-56957200D01*
X195761904Y-56957200D02*
X195809523Y-56861961D01*
X195809523Y-56861961D02*
X195809523Y-56814342D01*
X195809523Y-56814342D02*
X195761904Y-56719104D01*
X195761904Y-56719104D02*
X195666666Y-56671485D01*
X195666666Y-56671485D02*
X195523809Y-56671485D01*
X195523809Y-56671485D02*
X195428571Y-56623866D01*
X195428571Y-56623866D02*
X195380952Y-56528628D01*
X195380952Y-56528628D02*
X195380952Y-56481009D01*
X195380952Y-56481009D02*
X195428571Y-56385771D01*
X195428571Y-56385771D02*
X195523809Y-56338152D01*
X195523809Y-56338152D02*
X195666666Y-56338152D01*
X195666666Y-56338152D02*
X195761904Y-56385771D01*
X196095238Y-56338152D02*
X196476190Y-56338152D01*
X196238095Y-56004819D02*
X196238095Y-56861961D01*
X196238095Y-56861961D02*
X196285714Y-56957200D01*
X196285714Y-56957200D02*
X196380952Y-57004819D01*
X196380952Y-57004819D02*
X196476190Y-57004819D01*
X196809524Y-57004819D02*
X196809524Y-56004819D01*
X196809524Y-56004819D02*
X197190476Y-56004819D01*
X197190476Y-56004819D02*
X197285714Y-56052438D01*
X197285714Y-56052438D02*
X197333333Y-56100057D01*
X197333333Y-56100057D02*
X197380952Y-56195295D01*
X197380952Y-56195295D02*
X197380952Y-56338152D01*
X197380952Y-56338152D02*
X197333333Y-56433390D01*
X197333333Y-56433390D02*
X197285714Y-56481009D01*
X197285714Y-56481009D02*
X197190476Y-56528628D01*
X197190476Y-56528628D02*
X196809524Y-56528628D01*
X197952381Y-57004819D02*
X197857143Y-56957200D01*
X197857143Y-56957200D02*
X197809524Y-56909580D01*
X197809524Y-56909580D02*
X197761905Y-56814342D01*
X197761905Y-56814342D02*
X197761905Y-56528628D01*
X197761905Y-56528628D02*
X197809524Y-56433390D01*
X197809524Y-56433390D02*
X197857143Y-56385771D01*
X197857143Y-56385771D02*
X197952381Y-56338152D01*
X197952381Y-56338152D02*
X198095238Y-56338152D01*
X198095238Y-56338152D02*
X198190476Y-56385771D01*
X198190476Y-56385771D02*
X198238095Y-56433390D01*
X198238095Y-56433390D02*
X198285714Y-56528628D01*
X198285714Y-56528628D02*
X198285714Y-56814342D01*
X198285714Y-56814342D02*
X198238095Y-56909580D01*
X198238095Y-56909580D02*
X198190476Y-56957200D01*
X198190476Y-56957200D02*
X198095238Y-57004819D01*
X198095238Y-57004819D02*
X197952381Y-57004819D01*
X198714286Y-57004819D02*
X198714286Y-56338152D01*
X198714286Y-56004819D02*
X198666667Y-56052438D01*
X198666667Y-56052438D02*
X198714286Y-56100057D01*
X198714286Y-56100057D02*
X198761905Y-56052438D01*
X198761905Y-56052438D02*
X198714286Y-56004819D01*
X198714286Y-56004819D02*
X198714286Y-56100057D01*
X199190476Y-56338152D02*
X199190476Y-57004819D01*
X199190476Y-56433390D02*
X199238095Y-56385771D01*
X199238095Y-56385771D02*
X199333333Y-56338152D01*
X199333333Y-56338152D02*
X199476190Y-56338152D01*
X199476190Y-56338152D02*
X199571428Y-56385771D01*
X199571428Y-56385771D02*
X199619047Y-56481009D01*
X199619047Y-56481009D02*
X199619047Y-57004819D01*
X199952381Y-56338152D02*
X200333333Y-56338152D01*
X200095238Y-56004819D02*
X200095238Y-56861961D01*
X200095238Y-56861961D02*
X200142857Y-56957200D01*
X200142857Y-56957200D02*
X200238095Y-57004819D01*
X200238095Y-57004819D02*
X200333333Y-57004819D01*
X195738095Y-53004819D02*
X196309523Y-53004819D01*
X196023809Y-54004819D02*
X196023809Y-53004819D01*
X196642857Y-54004819D02*
X196642857Y-53004819D01*
X196642857Y-53004819D02*
X197023809Y-53004819D01*
X197023809Y-53004819D02*
X197119047Y-53052438D01*
X197119047Y-53052438D02*
X197166666Y-53100057D01*
X197166666Y-53100057D02*
X197214285Y-53195295D01*
X197214285Y-53195295D02*
X197214285Y-53338152D01*
X197214285Y-53338152D02*
X197166666Y-53433390D01*
X197166666Y-53433390D02*
X197119047Y-53481009D01*
X197119047Y-53481009D02*
X197023809Y-53528628D01*
X197023809Y-53528628D02*
X196642857Y-53528628D01*
X197595238Y-53100057D02*
X197642857Y-53052438D01*
X197642857Y-53052438D02*
X197738095Y-53004819D01*
X197738095Y-53004819D02*
X197976190Y-53004819D01*
X197976190Y-53004819D02*
X198071428Y-53052438D01*
X198071428Y-53052438D02*
X198119047Y-53100057D01*
X198119047Y-53100057D02*
X198166666Y-53195295D01*
X198166666Y-53195295D02*
X198166666Y-53290533D01*
X198166666Y-53290533D02*
X198119047Y-53433390D01*
X198119047Y-53433390D02*
X197547619Y-54004819D01*
X197547619Y-54004819D02*
X198166666Y-54004819D01*
X189730057Y-61874751D02*
X189682438Y-61827132D01*
X189682438Y-61827132D02*
X189634819Y-61731894D01*
X189634819Y-61731894D02*
X189634819Y-61493799D01*
X189634819Y-61493799D02*
X189682438Y-61398561D01*
X189682438Y-61398561D02*
X189730057Y-61350942D01*
X189730057Y-61350942D02*
X189825295Y-61303323D01*
X189825295Y-61303323D02*
X189920533Y-61303323D01*
X189920533Y-61303323D02*
X190063390Y-61350942D01*
X190063390Y-61350942D02*
X190634819Y-61922370D01*
X190634819Y-61922370D02*
X190634819Y-61303323D01*
X190539580Y-60874751D02*
X190587200Y-60827132D01*
X190587200Y-60827132D02*
X190634819Y-60874751D01*
X190634819Y-60874751D02*
X190587200Y-60922370D01*
X190587200Y-60922370D02*
X190539580Y-60874751D01*
X190539580Y-60874751D02*
X190634819Y-60874751D01*
X189730057Y-60446180D02*
X189682438Y-60398561D01*
X189682438Y-60398561D02*
X189634819Y-60303323D01*
X189634819Y-60303323D02*
X189634819Y-60065228D01*
X189634819Y-60065228D02*
X189682438Y-59969990D01*
X189682438Y-59969990D02*
X189730057Y-59922371D01*
X189730057Y-59922371D02*
X189825295Y-59874752D01*
X189825295Y-59874752D02*
X189920533Y-59874752D01*
X189920533Y-59874752D02*
X190063390Y-59922371D01*
X190063390Y-59922371D02*
X190634819Y-60493799D01*
X190634819Y-60493799D02*
X190634819Y-59874752D01*
X189968152Y-59017609D02*
X190634819Y-59017609D01*
X189968152Y-59446180D02*
X190491961Y-59446180D01*
X190491961Y-59446180D02*
X190587200Y-59398561D01*
X190587200Y-59398561D02*
X190634819Y-59303323D01*
X190634819Y-59303323D02*
X190634819Y-59160466D01*
X190634819Y-59160466D02*
X190587200Y-59065228D01*
X190587200Y-59065228D02*
X190539580Y-59017609D01*
X190111009Y-58208085D02*
X190111009Y-58541418D01*
X190634819Y-58541418D02*
X189634819Y-58541418D01*
X189634819Y-58541418D02*
X189634819Y-58065228D01*
D11*
X188539765Y-60035466D02*
X188551670Y-60047370D01*
X188551670Y-60047370D02*
X188563574Y-60083085D01*
X188563574Y-60083085D02*
X188563574Y-60106894D01*
X188563574Y-60106894D02*
X188551670Y-60142608D01*
X188551670Y-60142608D02*
X188527860Y-60166418D01*
X188527860Y-60166418D02*
X188504050Y-60178323D01*
X188504050Y-60178323D02*
X188456431Y-60190227D01*
X188456431Y-60190227D02*
X188420717Y-60190227D01*
X188420717Y-60190227D02*
X188373098Y-60178323D01*
X188373098Y-60178323D02*
X188349289Y-60166418D01*
X188349289Y-60166418D02*
X188325479Y-60142608D01*
X188325479Y-60142608D02*
X188313574Y-60106894D01*
X188313574Y-60106894D02*
X188313574Y-60083085D01*
X188313574Y-60083085D02*
X188325479Y-60047370D01*
X188325479Y-60047370D02*
X188337384Y-60035466D01*
X188563574Y-59797370D02*
X188563574Y-59940227D01*
X188563574Y-59868799D02*
X188313574Y-59868799D01*
X188313574Y-59868799D02*
X188349289Y-59892608D01*
X188349289Y-59892608D02*
X188373098Y-59916418D01*
X188373098Y-59916418D02*
X188385003Y-59940227D01*
D10*
X191387200Y-65779513D02*
X191434819Y-65636656D01*
X191434819Y-65636656D02*
X191434819Y-65398561D01*
X191434819Y-65398561D02*
X191387200Y-65303323D01*
X191387200Y-65303323D02*
X191339580Y-65255704D01*
X191339580Y-65255704D02*
X191244342Y-65208085D01*
X191244342Y-65208085D02*
X191149104Y-65208085D01*
X191149104Y-65208085D02*
X191053866Y-65255704D01*
X191053866Y-65255704D02*
X191006247Y-65303323D01*
X191006247Y-65303323D02*
X190958628Y-65398561D01*
X190958628Y-65398561D02*
X190911009Y-65589037D01*
X190911009Y-65589037D02*
X190863390Y-65684275D01*
X190863390Y-65684275D02*
X190815771Y-65731894D01*
X190815771Y-65731894D02*
X190720533Y-65779513D01*
X190720533Y-65779513D02*
X190625295Y-65779513D01*
X190625295Y-65779513D02*
X190530057Y-65731894D01*
X190530057Y-65731894D02*
X190482438Y-65684275D01*
X190482438Y-65684275D02*
X190434819Y-65589037D01*
X190434819Y-65589037D02*
X190434819Y-65350942D01*
X190434819Y-65350942D02*
X190482438Y-65208085D01*
X191434819Y-64779513D02*
X190768152Y-64779513D01*
X190434819Y-64779513D02*
X190482438Y-64827132D01*
X190482438Y-64827132D02*
X190530057Y-64779513D01*
X190530057Y-64779513D02*
X190482438Y-64731894D01*
X190482438Y-64731894D02*
X190434819Y-64779513D01*
X190434819Y-64779513D02*
X190530057Y-64779513D01*
X190434819Y-64446180D02*
X190434819Y-63874752D01*
X191434819Y-64160466D02*
X190434819Y-64160466D01*
X191434819Y-63017609D02*
X191434819Y-63589037D01*
X191434819Y-63303323D02*
X190434819Y-63303323D01*
X190434819Y-63303323D02*
X190577676Y-63398561D01*
X190577676Y-63398561D02*
X190672914Y-63493799D01*
X190672914Y-63493799D02*
X190720533Y-63589037D01*
X191434819Y-62065228D02*
X191434819Y-62636656D01*
X191434819Y-62350942D02*
X190434819Y-62350942D01*
X190434819Y-62350942D02*
X190577676Y-62446180D01*
X190577676Y-62446180D02*
X190672914Y-62541418D01*
X190672914Y-62541418D02*
X190720533Y-62636656D01*
X191434819Y-61112847D02*
X191434819Y-61684275D01*
X191434819Y-61398561D02*
X190434819Y-61398561D01*
X190434819Y-61398561D02*
X190577676Y-61493799D01*
X190577676Y-61493799D02*
X190672914Y-61589037D01*
X190672914Y-61589037D02*
X190720533Y-61684275D01*
X190434819Y-60493799D02*
X190434819Y-60398561D01*
X190434819Y-60398561D02*
X190482438Y-60303323D01*
X190482438Y-60303323D02*
X190530057Y-60255704D01*
X190530057Y-60255704D02*
X190625295Y-60208085D01*
X190625295Y-60208085D02*
X190815771Y-60160466D01*
X190815771Y-60160466D02*
X191053866Y-60160466D01*
X191053866Y-60160466D02*
X191244342Y-60208085D01*
X191244342Y-60208085D02*
X191339580Y-60255704D01*
X191339580Y-60255704D02*
X191387200Y-60303323D01*
X191387200Y-60303323D02*
X191434819Y-60398561D01*
X191434819Y-60398561D02*
X191434819Y-60493799D01*
X191434819Y-60493799D02*
X191387200Y-60589037D01*
X191387200Y-60589037D02*
X191339580Y-60636656D01*
X191339580Y-60636656D02*
X191244342Y-60684275D01*
X191244342Y-60684275D02*
X191053866Y-60731894D01*
X191053866Y-60731894D02*
X190815771Y-60731894D01*
X190815771Y-60731894D02*
X190625295Y-60684275D01*
X190625295Y-60684275D02*
X190530057Y-60636656D01*
X190530057Y-60636656D02*
X190482438Y-60589037D01*
X190482438Y-60589037D02*
X190434819Y-60493799D01*
X190434819Y-59541418D02*
X190434819Y-59446180D01*
X190434819Y-59446180D02*
X190482438Y-59350942D01*
X190482438Y-59350942D02*
X190530057Y-59303323D01*
X190530057Y-59303323D02*
X190625295Y-59255704D01*
X190625295Y-59255704D02*
X190815771Y-59208085D01*
X190815771Y-59208085D02*
X191053866Y-59208085D01*
X191053866Y-59208085D02*
X191244342Y-59255704D01*
X191244342Y-59255704D02*
X191339580Y-59303323D01*
X191339580Y-59303323D02*
X191387200Y-59350942D01*
X191387200Y-59350942D02*
X191434819Y-59446180D01*
X191434819Y-59446180D02*
X191434819Y-59541418D01*
X191434819Y-59541418D02*
X191387200Y-59636656D01*
X191387200Y-59636656D02*
X191339580Y-59684275D01*
X191339580Y-59684275D02*
X191244342Y-59731894D01*
X191244342Y-59731894D02*
X191053866Y-59779513D01*
X191053866Y-59779513D02*
X190815771Y-59779513D01*
X190815771Y-59779513D02*
X190625295Y-59731894D01*
X190625295Y-59731894D02*
X190530057Y-59684275D01*
X190530057Y-59684275D02*
X190482438Y-59636656D01*
X190482438Y-59636656D02*
X190434819Y-59541418D01*
D12*
X188484762Y-62480705D02*
X188484762Y-62775943D01*
X188278095Y-62155943D02*
X188484762Y-62480705D01*
X188484762Y-62480705D02*
X188691428Y-62155943D01*
X188868572Y-62214991D02*
X188898096Y-62185467D01*
X188898096Y-62185467D02*
X188957143Y-62155943D01*
X188957143Y-62155943D02*
X189104762Y-62155943D01*
X189104762Y-62155943D02*
X189163810Y-62185467D01*
X189163810Y-62185467D02*
X189193334Y-62214991D01*
X189193334Y-62214991D02*
X189222857Y-62274039D01*
X189222857Y-62274039D02*
X189222857Y-62333086D01*
X189222857Y-62333086D02*
X189193334Y-62421658D01*
X189193334Y-62421658D02*
X188839048Y-62775943D01*
X188839048Y-62775943D02*
X189222857Y-62775943D01*
D10*
X188848571Y-57124819D02*
X188277143Y-57124819D01*
X188562857Y-57124819D02*
X188562857Y-56124819D01*
X188562857Y-56124819D02*
X188467619Y-56267676D01*
X188467619Y-56267676D02*
X188372381Y-56362914D01*
X188372381Y-56362914D02*
X188277143Y-56410533D01*
X189467619Y-56124819D02*
X189562857Y-56124819D01*
X189562857Y-56124819D02*
X189658095Y-56172438D01*
X189658095Y-56172438D02*
X189705714Y-56220057D01*
X189705714Y-56220057D02*
X189753333Y-56315295D01*
X189753333Y-56315295D02*
X189800952Y-56505771D01*
X189800952Y-56505771D02*
X189800952Y-56743866D01*
X189800952Y-56743866D02*
X189753333Y-56934342D01*
X189753333Y-56934342D02*
X189705714Y-57029580D01*
X189705714Y-57029580D02*
X189658095Y-57077200D01*
X189658095Y-57077200D02*
X189562857Y-57124819D01*
X189562857Y-57124819D02*
X189467619Y-57124819D01*
X189467619Y-57124819D02*
X189372381Y-57077200D01*
X189372381Y-57077200D02*
X189324762Y-57029580D01*
X189324762Y-57029580D02*
X189277143Y-56934342D01*
X189277143Y-56934342D02*
X189229524Y-56743866D01*
X189229524Y-56743866D02*
X189229524Y-56505771D01*
X189229524Y-56505771D02*
X189277143Y-56315295D01*
X189277143Y-56315295D02*
X189324762Y-56220057D01*
X189324762Y-56220057D02*
X189372381Y-56172438D01*
X189372381Y-56172438D02*
X189467619Y-56124819D01*
X190658095Y-56458152D02*
X190658095Y-57124819D01*
X190229524Y-56458152D02*
X190229524Y-56981961D01*
X190229524Y-56981961D02*
X190277143Y-57077200D01*
X190277143Y-57077200D02*
X190372381Y-57124819D01*
X190372381Y-57124819D02*
X190515238Y-57124819D01*
X190515238Y-57124819D02*
X190610476Y-57077200D01*
X190610476Y-57077200D02*
X190658095Y-57029580D01*
X191467619Y-56601009D02*
X191134286Y-56601009D01*
X191134286Y-57124819D02*
X191134286Y-56124819D01*
X191134286Y-56124819D02*
X191610476Y-56124819D01*
D11*
X189759285Y-57919765D02*
X189747381Y-57931670D01*
X189747381Y-57931670D02*
X189711666Y-57943574D01*
X189711666Y-57943574D02*
X189687857Y-57943574D01*
X189687857Y-57943574D02*
X189652143Y-57931670D01*
X189652143Y-57931670D02*
X189628333Y-57907860D01*
X189628333Y-57907860D02*
X189616428Y-57884050D01*
X189616428Y-57884050D02*
X189604524Y-57836431D01*
X189604524Y-57836431D02*
X189604524Y-57800717D01*
X189604524Y-57800717D02*
X189616428Y-57753098D01*
X189616428Y-57753098D02*
X189628333Y-57729289D01*
X189628333Y-57729289D02*
X189652143Y-57705479D01*
X189652143Y-57705479D02*
X189687857Y-57693574D01*
X189687857Y-57693574D02*
X189711666Y-57693574D01*
X189711666Y-57693574D02*
X189747381Y-57705479D01*
X189747381Y-57705479D02*
X189759285Y-57717384D01*
X189997381Y-57943574D02*
X189854524Y-57943574D01*
X189925952Y-57943574D02*
X189925952Y-57693574D01*
X189925952Y-57693574D02*
X189902143Y-57729289D01*
X189902143Y-57729289D02*
X189878333Y-57753098D01*
X189878333Y-57753098D02*
X189854524Y-57765003D01*
X190152142Y-57693574D02*
X190175952Y-57693574D01*
X190175952Y-57693574D02*
X190199761Y-57705479D01*
X190199761Y-57705479D02*
X190211666Y-57717384D01*
X190211666Y-57717384D02*
X190223571Y-57741193D01*
X190223571Y-57741193D02*
X190235476Y-57788812D01*
X190235476Y-57788812D02*
X190235476Y-57848336D01*
X190235476Y-57848336D02*
X190223571Y-57895955D01*
X190223571Y-57895955D02*
X190211666Y-57919765D01*
X190211666Y-57919765D02*
X190199761Y-57931670D01*
X190199761Y-57931670D02*
X190175952Y-57943574D01*
X190175952Y-57943574D02*
X190152142Y-57943574D01*
X190152142Y-57943574D02*
X190128333Y-57931670D01*
X190128333Y-57931670D02*
X190116428Y-57919765D01*
X190116428Y-57919765D02*
X190104523Y-57895955D01*
X190104523Y-57895955D02*
X190092619Y-57848336D01*
X190092619Y-57848336D02*
X190092619Y-57788812D01*
X190092619Y-57788812D02*
X190104523Y-57741193D01*
X190104523Y-57741193D02*
X190116428Y-57717384D01*
X190116428Y-57717384D02*
X190128333Y-57705479D01*
X190128333Y-57705479D02*
X190152142Y-57693574D01*
D10*
X184561903Y-44874819D02*
X184561903Y-45589104D01*
X184561903Y-45589104D02*
X184514284Y-45731961D01*
X184514284Y-45731961D02*
X184419046Y-45827200D01*
X184419046Y-45827200D02*
X184276189Y-45874819D01*
X184276189Y-45874819D02*
X184180951Y-45874819D01*
X185466665Y-45208152D02*
X185466665Y-45874819D01*
X185038094Y-45208152D02*
X185038094Y-45731961D01*
X185038094Y-45731961D02*
X185085713Y-45827200D01*
X185085713Y-45827200D02*
X185180951Y-45874819D01*
X185180951Y-45874819D02*
X185323808Y-45874819D01*
X185323808Y-45874819D02*
X185419046Y-45827200D01*
X185419046Y-45827200D02*
X185466665Y-45779580D01*
X185942856Y-45874819D02*
X185942856Y-45208152D01*
X185942856Y-45303390D02*
X185990475Y-45255771D01*
X185990475Y-45255771D02*
X186085713Y-45208152D01*
X186085713Y-45208152D02*
X186228570Y-45208152D01*
X186228570Y-45208152D02*
X186323808Y-45255771D01*
X186323808Y-45255771D02*
X186371427Y-45351009D01*
X186371427Y-45351009D02*
X186371427Y-45874819D01*
X186371427Y-45351009D02*
X186419046Y-45255771D01*
X186419046Y-45255771D02*
X186514284Y-45208152D01*
X186514284Y-45208152D02*
X186657141Y-45208152D01*
X186657141Y-45208152D02*
X186752380Y-45255771D01*
X186752380Y-45255771D02*
X186799999Y-45351009D01*
X186799999Y-45351009D02*
X186799999Y-45874819D01*
X187276189Y-45208152D02*
X187276189Y-46208152D01*
X187276189Y-45255771D02*
X187371427Y-45208152D01*
X187371427Y-45208152D02*
X187561903Y-45208152D01*
X187561903Y-45208152D02*
X187657141Y-45255771D01*
X187657141Y-45255771D02*
X187704760Y-45303390D01*
X187704760Y-45303390D02*
X187752379Y-45398628D01*
X187752379Y-45398628D02*
X187752379Y-45684342D01*
X187752379Y-45684342D02*
X187704760Y-45779580D01*
X187704760Y-45779580D02*
X187657141Y-45827200D01*
X187657141Y-45827200D02*
X187561903Y-45874819D01*
X187561903Y-45874819D02*
X187371427Y-45874819D01*
X187371427Y-45874819D02*
X187276189Y-45827200D01*
X188561903Y-45827200D02*
X188466665Y-45874819D01*
X188466665Y-45874819D02*
X188276189Y-45874819D01*
X188276189Y-45874819D02*
X188180951Y-45827200D01*
X188180951Y-45827200D02*
X188133332Y-45731961D01*
X188133332Y-45731961D02*
X188133332Y-45351009D01*
X188133332Y-45351009D02*
X188180951Y-45255771D01*
X188180951Y-45255771D02*
X188276189Y-45208152D01*
X188276189Y-45208152D02*
X188466665Y-45208152D01*
X188466665Y-45208152D02*
X188561903Y-45255771D01*
X188561903Y-45255771D02*
X188609522Y-45351009D01*
X188609522Y-45351009D02*
X188609522Y-45446247D01*
X188609522Y-45446247D02*
X188133332Y-45541485D01*
X189038094Y-45874819D02*
X189038094Y-45208152D01*
X189038094Y-45398628D02*
X189085713Y-45303390D01*
X189085713Y-45303390D02*
X189133332Y-45255771D01*
X189133332Y-45255771D02*
X189228570Y-45208152D01*
X189228570Y-45208152D02*
X189323808Y-45208152D01*
X189419047Y-45970057D02*
X190180951Y-45970057D01*
X190371428Y-44970057D02*
X190419047Y-44922438D01*
X190419047Y-44922438D02*
X190514285Y-44874819D01*
X190514285Y-44874819D02*
X190752380Y-44874819D01*
X190752380Y-44874819D02*
X190847618Y-44922438D01*
X190847618Y-44922438D02*
X190895237Y-44970057D01*
X190895237Y-44970057D02*
X190942856Y-45065295D01*
X190942856Y-45065295D02*
X190942856Y-45160533D01*
X190942856Y-45160533D02*
X190895237Y-45303390D01*
X190895237Y-45303390D02*
X190323809Y-45874819D01*
X190323809Y-45874819D02*
X190942856Y-45874819D01*
X191133333Y-45970057D02*
X191895237Y-45970057D01*
X192085714Y-45827200D02*
X192228571Y-45874819D01*
X192228571Y-45874819D02*
X192466666Y-45874819D01*
X192466666Y-45874819D02*
X192561904Y-45827200D01*
X192561904Y-45827200D02*
X192609523Y-45779580D01*
X192609523Y-45779580D02*
X192657142Y-45684342D01*
X192657142Y-45684342D02*
X192657142Y-45589104D01*
X192657142Y-45589104D02*
X192609523Y-45493866D01*
X192609523Y-45493866D02*
X192561904Y-45446247D01*
X192561904Y-45446247D02*
X192466666Y-45398628D01*
X192466666Y-45398628D02*
X192276190Y-45351009D01*
X192276190Y-45351009D02*
X192180952Y-45303390D01*
X192180952Y-45303390D02*
X192133333Y-45255771D01*
X192133333Y-45255771D02*
X192085714Y-45160533D01*
X192085714Y-45160533D02*
X192085714Y-45065295D01*
X192085714Y-45065295D02*
X192133333Y-44970057D01*
X192133333Y-44970057D02*
X192180952Y-44922438D01*
X192180952Y-44922438D02*
X192276190Y-44874819D01*
X192276190Y-44874819D02*
X192514285Y-44874819D01*
X192514285Y-44874819D02*
X192657142Y-44922438D01*
X193085714Y-45874819D02*
X193085714Y-45208152D01*
X193085714Y-45303390D02*
X193133333Y-45255771D01*
X193133333Y-45255771D02*
X193228571Y-45208152D01*
X193228571Y-45208152D02*
X193371428Y-45208152D01*
X193371428Y-45208152D02*
X193466666Y-45255771D01*
X193466666Y-45255771D02*
X193514285Y-45351009D01*
X193514285Y-45351009D02*
X193514285Y-45874819D01*
X193514285Y-45351009D02*
X193561904Y-45255771D01*
X193561904Y-45255771D02*
X193657142Y-45208152D01*
X193657142Y-45208152D02*
X193799999Y-45208152D01*
X193799999Y-45208152D02*
X193895238Y-45255771D01*
X193895238Y-45255771D02*
X193942857Y-45351009D01*
X193942857Y-45351009D02*
X193942857Y-45874819D01*
X194847618Y-45874819D02*
X194847618Y-45351009D01*
X194847618Y-45351009D02*
X194799999Y-45255771D01*
X194799999Y-45255771D02*
X194704761Y-45208152D01*
X194704761Y-45208152D02*
X194514285Y-45208152D01*
X194514285Y-45208152D02*
X194419047Y-45255771D01*
X194847618Y-45827200D02*
X194752380Y-45874819D01*
X194752380Y-45874819D02*
X194514285Y-45874819D01*
X194514285Y-45874819D02*
X194419047Y-45827200D01*
X194419047Y-45827200D02*
X194371428Y-45731961D01*
X194371428Y-45731961D02*
X194371428Y-45636723D01*
X194371428Y-45636723D02*
X194419047Y-45541485D01*
X194419047Y-45541485D02*
X194514285Y-45493866D01*
X194514285Y-45493866D02*
X194752380Y-45493866D01*
X194752380Y-45493866D02*
X194847618Y-45446247D01*
X195466666Y-45874819D02*
X195371428Y-45827200D01*
X195371428Y-45827200D02*
X195323809Y-45731961D01*
X195323809Y-45731961D02*
X195323809Y-44874819D01*
X195990476Y-45874819D02*
X195895238Y-45827200D01*
X195895238Y-45827200D02*
X195847619Y-45731961D01*
X195847619Y-45731961D02*
X195847619Y-44874819D01*
X196133334Y-45970057D02*
X196895238Y-45970057D01*
X197466667Y-45351009D02*
X197609524Y-45398628D01*
X197609524Y-45398628D02*
X197657143Y-45446247D01*
X197657143Y-45446247D02*
X197704762Y-45541485D01*
X197704762Y-45541485D02*
X197704762Y-45684342D01*
X197704762Y-45684342D02*
X197657143Y-45779580D01*
X197657143Y-45779580D02*
X197609524Y-45827200D01*
X197609524Y-45827200D02*
X197514286Y-45874819D01*
X197514286Y-45874819D02*
X197133334Y-45874819D01*
X197133334Y-45874819D02*
X197133334Y-44874819D01*
X197133334Y-44874819D02*
X197466667Y-44874819D01*
X197466667Y-44874819D02*
X197561905Y-44922438D01*
X197561905Y-44922438D02*
X197609524Y-44970057D01*
X197609524Y-44970057D02*
X197657143Y-45065295D01*
X197657143Y-45065295D02*
X197657143Y-45160533D01*
X197657143Y-45160533D02*
X197609524Y-45255771D01*
X197609524Y-45255771D02*
X197561905Y-45303390D01*
X197561905Y-45303390D02*
X197466667Y-45351009D01*
X197466667Y-45351009D02*
X197133334Y-45351009D01*
X198133334Y-45874819D02*
X198133334Y-45208152D01*
X198133334Y-45398628D02*
X198180953Y-45303390D01*
X198180953Y-45303390D02*
X198228572Y-45255771D01*
X198228572Y-45255771D02*
X198323810Y-45208152D01*
X198323810Y-45208152D02*
X198419048Y-45208152D01*
X198752382Y-45874819D02*
X198752382Y-45208152D01*
X198752382Y-44874819D02*
X198704763Y-44922438D01*
X198704763Y-44922438D02*
X198752382Y-44970057D01*
X198752382Y-44970057D02*
X198800001Y-44922438D01*
X198800001Y-44922438D02*
X198752382Y-44874819D01*
X198752382Y-44874819D02*
X198752382Y-44970057D01*
X199657143Y-45874819D02*
X199657143Y-44874819D01*
X199657143Y-45827200D02*
X199561905Y-45874819D01*
X199561905Y-45874819D02*
X199371429Y-45874819D01*
X199371429Y-45874819D02*
X199276191Y-45827200D01*
X199276191Y-45827200D02*
X199228572Y-45779580D01*
X199228572Y-45779580D02*
X199180953Y-45684342D01*
X199180953Y-45684342D02*
X199180953Y-45398628D01*
X199180953Y-45398628D02*
X199228572Y-45303390D01*
X199228572Y-45303390D02*
X199276191Y-45255771D01*
X199276191Y-45255771D02*
X199371429Y-45208152D01*
X199371429Y-45208152D02*
X199561905Y-45208152D01*
X199561905Y-45208152D02*
X199657143Y-45255771D01*
X200561905Y-45208152D02*
X200561905Y-46017676D01*
X200561905Y-46017676D02*
X200514286Y-46112914D01*
X200514286Y-46112914D02*
X200466667Y-46160533D01*
X200466667Y-46160533D02*
X200371429Y-46208152D01*
X200371429Y-46208152D02*
X200228572Y-46208152D01*
X200228572Y-46208152D02*
X200133334Y-46160533D01*
X200561905Y-45827200D02*
X200466667Y-45874819D01*
X200466667Y-45874819D02*
X200276191Y-45874819D01*
X200276191Y-45874819D02*
X200180953Y-45827200D01*
X200180953Y-45827200D02*
X200133334Y-45779580D01*
X200133334Y-45779580D02*
X200085715Y-45684342D01*
X200085715Y-45684342D02*
X200085715Y-45398628D01*
X200085715Y-45398628D02*
X200133334Y-45303390D01*
X200133334Y-45303390D02*
X200180953Y-45255771D01*
X200180953Y-45255771D02*
X200276191Y-45208152D01*
X200276191Y-45208152D02*
X200466667Y-45208152D01*
X200466667Y-45208152D02*
X200561905Y-45255771D01*
X201419048Y-45827200D02*
X201323810Y-45874819D01*
X201323810Y-45874819D02*
X201133334Y-45874819D01*
X201133334Y-45874819D02*
X201038096Y-45827200D01*
X201038096Y-45827200D02*
X200990477Y-45731961D01*
X200990477Y-45731961D02*
X200990477Y-45351009D01*
X200990477Y-45351009D02*
X201038096Y-45255771D01*
X201038096Y-45255771D02*
X201133334Y-45208152D01*
X201133334Y-45208152D02*
X201323810Y-45208152D01*
X201323810Y-45208152D02*
X201419048Y-45255771D01*
X201419048Y-45255771D02*
X201466667Y-45351009D01*
X201466667Y-45351009D02*
X201466667Y-45446247D01*
X201466667Y-45446247D02*
X200990477Y-45541485D01*
X202323810Y-45874819D02*
X202323810Y-44874819D01*
X202323810Y-45827200D02*
X202228572Y-45874819D01*
X202228572Y-45874819D02*
X202038096Y-45874819D01*
X202038096Y-45874819D02*
X201942858Y-45827200D01*
X201942858Y-45827200D02*
X201895239Y-45779580D01*
X201895239Y-45779580D02*
X201847620Y-45684342D01*
X201847620Y-45684342D02*
X201847620Y-45398628D01*
X201847620Y-45398628D02*
X201895239Y-45303390D01*
X201895239Y-45303390D02*
X201942858Y-45255771D01*
X201942858Y-45255771D02*
X202038096Y-45208152D01*
X202038096Y-45208152D02*
X202228572Y-45208152D01*
X202228572Y-45208152D02*
X202323810Y-45255771D01*
D11*
X193083333Y-46448200D02*
X193083333Y-46633915D01*
X193083333Y-46633915D02*
X193070952Y-46671058D01*
X193070952Y-46671058D02*
X193046190Y-46695820D01*
X193046190Y-46695820D02*
X193009047Y-46708200D01*
X193009047Y-46708200D02*
X192984285Y-46708200D01*
X193207142Y-46708200D02*
X193207142Y-46448200D01*
X193207142Y-46448200D02*
X193306190Y-46448200D01*
X193306190Y-46448200D02*
X193330952Y-46460581D01*
X193330952Y-46460581D02*
X193343333Y-46472962D01*
X193343333Y-46472962D02*
X193355714Y-46497724D01*
X193355714Y-46497724D02*
X193355714Y-46534867D01*
X193355714Y-46534867D02*
X193343333Y-46559629D01*
X193343333Y-46559629D02*
X193330952Y-46572010D01*
X193330952Y-46572010D02*
X193306190Y-46584391D01*
X193306190Y-46584391D02*
X193207142Y-46584391D01*
X193442380Y-46448200D02*
X193603333Y-46448200D01*
X193603333Y-46448200D02*
X193516666Y-46547248D01*
X193516666Y-46547248D02*
X193553809Y-46547248D01*
X193553809Y-46547248D02*
X193578571Y-46559629D01*
X193578571Y-46559629D02*
X193590952Y-46572010D01*
X193590952Y-46572010D02*
X193603333Y-46596772D01*
X193603333Y-46596772D02*
X193603333Y-46658677D01*
X193603333Y-46658677D02*
X193590952Y-46683439D01*
X193590952Y-46683439D02*
X193578571Y-46695820D01*
X193578571Y-46695820D02*
X193553809Y-46708200D01*
X193553809Y-46708200D02*
X193479523Y-46708200D01*
X193479523Y-46708200D02*
X193454761Y-46695820D01*
X193454761Y-46695820D02*
X193442380Y-46683439D01*
D10*
X194544646Y-47838567D02*
X194611989Y-47905911D01*
X194611989Y-47905911D02*
X194645661Y-48006926D01*
X194645661Y-48006926D02*
X194645661Y-48074270D01*
X194645661Y-48074270D02*
X194611989Y-48175285D01*
X194611989Y-48175285D02*
X194510974Y-48343644D01*
X194510974Y-48343644D02*
X194342615Y-48512002D01*
X194342615Y-48512002D02*
X194174256Y-48613018D01*
X194174256Y-48613018D02*
X194073241Y-48646689D01*
X194073241Y-48646689D02*
X194005898Y-48646689D01*
X194005898Y-48646689D02*
X193904882Y-48613018D01*
X193904882Y-48613018D02*
X193837539Y-48545674D01*
X193837539Y-48545674D02*
X193803867Y-48444659D01*
X193803867Y-48444659D02*
X193803867Y-48377315D01*
X193803867Y-48377315D02*
X193837539Y-48276300D01*
X193837539Y-48276300D02*
X193938554Y-48107941D01*
X193938554Y-48107941D02*
X194106913Y-47939583D01*
X194106913Y-47939583D02*
X194275272Y-47838567D01*
X194275272Y-47838567D02*
X194376287Y-47804896D01*
X194376287Y-47804896D02*
X194443630Y-47804896D01*
X194443630Y-47804896D02*
X194544646Y-47838567D01*
X194443631Y-49017079D02*
X194443631Y-49084422D01*
X194443631Y-49084422D02*
X194376287Y-49084422D01*
X194376287Y-49084422D02*
X194376287Y-49017079D01*
X194376287Y-49017079D02*
X194443631Y-49017079D01*
X194443631Y-49017079D02*
X194376287Y-49084422D01*
X195319096Y-48747704D02*
X195386439Y-48747704D01*
X195386439Y-48747704D02*
X195487454Y-48781376D01*
X195487454Y-48781376D02*
X195655813Y-48949735D01*
X195655813Y-48949735D02*
X195689485Y-49050750D01*
X195689485Y-49050750D02*
X195689485Y-49118094D01*
X195689485Y-49118094D02*
X195655813Y-49219109D01*
X195655813Y-49219109D02*
X195588470Y-49286452D01*
X195588470Y-49286452D02*
X195453783Y-49353796D01*
X195453783Y-49353796D02*
X194645661Y-49353796D01*
X194645661Y-49353796D02*
X195083393Y-49791529D01*
X195992531Y-49421139D02*
X196059874Y-49421139D01*
X196059874Y-49421139D02*
X196160890Y-49454811D01*
X196160890Y-49454811D02*
X196329248Y-49623170D01*
X196329248Y-49623170D02*
X196362920Y-49724185D01*
X196362920Y-49724185D02*
X196362920Y-49791529D01*
X196362920Y-49791529D02*
X196329248Y-49892544D01*
X196329248Y-49892544D02*
X196261905Y-49959888D01*
X196261905Y-49959888D02*
X196127218Y-50027231D01*
X196127218Y-50027231D02*
X195319096Y-50027231D01*
X195319096Y-50027231D02*
X195756829Y-50464964D01*
X196834325Y-50599651D02*
X196362920Y-51071055D01*
X196531279Y-50296605D02*
X196160890Y-50666994D01*
X196160890Y-50666994D02*
X196127218Y-50768010D01*
X196127218Y-50768010D02*
X196160890Y-50869025D01*
X196160890Y-50869025D02*
X196261905Y-50970040D01*
X196261905Y-50970040D02*
X196362920Y-51003712D01*
X196362920Y-51003712D02*
X196430264Y-51003712D01*
X197305729Y-51273086D02*
X197070027Y-51037384D01*
X196699638Y-51407773D02*
X197406744Y-50700666D01*
X197406744Y-50700666D02*
X197743462Y-51037384D01*
D11*
X196703717Y-48448998D02*
X196686881Y-48448998D01*
X196686881Y-48448998D02*
X196653209Y-48432162D01*
X196653209Y-48432162D02*
X196636373Y-48415326D01*
X196636373Y-48415326D02*
X196619538Y-48381655D01*
X196619538Y-48381655D02*
X196619538Y-48347983D01*
X196619538Y-48347983D02*
X196627955Y-48322729D01*
X196627955Y-48322729D02*
X196653209Y-48280639D01*
X196653209Y-48280639D02*
X196678463Y-48255386D01*
X196678463Y-48255386D02*
X196720553Y-48230132D01*
X196720553Y-48230132D02*
X196745807Y-48221714D01*
X196745807Y-48221714D02*
X196779478Y-48221714D01*
X196779478Y-48221714D02*
X196813150Y-48238550D01*
X196813150Y-48238550D02*
X196829986Y-48255386D01*
X196829986Y-48255386D02*
X196846822Y-48289057D01*
X196846822Y-48289057D02*
X196846822Y-48305893D01*
X196855240Y-48634193D02*
X196754225Y-48533177D01*
X196804732Y-48583685D02*
X196981509Y-48406908D01*
X196981509Y-48406908D02*
X196939419Y-48415326D01*
X196939419Y-48415326D02*
X196905747Y-48415326D01*
X196905747Y-48415326D02*
X196880494Y-48406908D01*
X197191957Y-48617357D02*
X197107778Y-48533177D01*
X197107778Y-48533177D02*
X197015180Y-48608939D01*
X197015180Y-48608939D02*
X197032016Y-48608939D01*
X197032016Y-48608939D02*
X197057270Y-48617357D01*
X197057270Y-48617357D02*
X197099360Y-48659446D01*
X197099360Y-48659446D02*
X197107778Y-48684700D01*
X197107778Y-48684700D02*
X197107778Y-48701536D01*
X197107778Y-48701536D02*
X197099360Y-48726790D01*
X197099360Y-48726790D02*
X197057270Y-48768880D01*
X197057270Y-48768880D02*
X197032016Y-48777298D01*
X197032016Y-48777298D02*
X197015180Y-48777298D01*
X197015180Y-48777298D02*
X196989927Y-48768880D01*
X196989927Y-48768880D02*
X196947837Y-48726790D01*
X196947837Y-48726790D02*
X196939419Y-48701536D01*
X196939419Y-48701536D02*
X196939419Y-48684700D01*
D10*
X188632380Y-58218619D02*
X188060952Y-58218619D01*
X188346666Y-58218619D02*
X188346666Y-57218619D01*
X188346666Y-57218619D02*
X188251428Y-57361476D01*
X188251428Y-57361476D02*
X188156190Y-57456714D01*
X188156190Y-57456714D02*
X188060952Y-57504333D01*
X189251428Y-57218619D02*
X189346666Y-57218619D01*
X189346666Y-57218619D02*
X189441904Y-57266238D01*
X189441904Y-57266238D02*
X189489523Y-57313857D01*
X189489523Y-57313857D02*
X189537142Y-57409095D01*
X189537142Y-57409095D02*
X189584761Y-57599571D01*
X189584761Y-57599571D02*
X189584761Y-57837666D01*
X189584761Y-57837666D02*
X189537142Y-58028142D01*
X189537142Y-58028142D02*
X189489523Y-58123380D01*
X189489523Y-58123380D02*
X189441904Y-58171000D01*
X189441904Y-58171000D02*
X189346666Y-58218619D01*
X189346666Y-58218619D02*
X189251428Y-58218619D01*
X189251428Y-58218619D02*
X189156190Y-58171000D01*
X189156190Y-58171000D02*
X189108571Y-58123380D01*
X189108571Y-58123380D02*
X189060952Y-58028142D01*
X189060952Y-58028142D02*
X189013333Y-57837666D01*
X189013333Y-57837666D02*
X189013333Y-57599571D01*
X189013333Y-57599571D02*
X189060952Y-57409095D01*
X189060952Y-57409095D02*
X189108571Y-57313857D01*
X189108571Y-57313857D02*
X189156190Y-57266238D01*
X189156190Y-57266238D02*
X189251428Y-57218619D01*
X190203809Y-57218619D02*
X190299047Y-57218619D01*
X190299047Y-57218619D02*
X190394285Y-57266238D01*
X190394285Y-57266238D02*
X190441904Y-57313857D01*
X190441904Y-57313857D02*
X190489523Y-57409095D01*
X190489523Y-57409095D02*
X190537142Y-57599571D01*
X190537142Y-57599571D02*
X190537142Y-57837666D01*
X190537142Y-57837666D02*
X190489523Y-58028142D01*
X190489523Y-58028142D02*
X190441904Y-58123380D01*
X190441904Y-58123380D02*
X190394285Y-58171000D01*
X190394285Y-58171000D02*
X190299047Y-58218619D01*
X190299047Y-58218619D02*
X190203809Y-58218619D01*
X190203809Y-58218619D02*
X190108571Y-58171000D01*
X190108571Y-58171000D02*
X190060952Y-58123380D01*
X190060952Y-58123380D02*
X190013333Y-58028142D01*
X190013333Y-58028142D02*
X189965714Y-57837666D01*
X189965714Y-57837666D02*
X189965714Y-57599571D01*
X189965714Y-57599571D02*
X190013333Y-57409095D01*
X190013333Y-57409095D02*
X190060952Y-57313857D01*
X190060952Y-57313857D02*
X190108571Y-57266238D01*
X190108571Y-57266238D02*
X190203809Y-57218619D01*
X190965714Y-57551952D02*
X190965714Y-58218619D01*
X190965714Y-57647190D02*
X191013333Y-57599571D01*
X191013333Y-57599571D02*
X191108571Y-57551952D01*
X191108571Y-57551952D02*
X191251428Y-57551952D01*
X191251428Y-57551952D02*
X191346666Y-57599571D01*
X191346666Y-57599571D02*
X191394285Y-57694809D01*
X191394285Y-57694809D02*
X191394285Y-58218619D01*
X192203809Y-57694809D02*
X191870476Y-57694809D01*
X191870476Y-58218619D02*
X191870476Y-57218619D01*
X191870476Y-57218619D02*
X192346666Y-57218619D01*
D11*
X190019285Y-59583565D02*
X190007381Y-59595470D01*
X190007381Y-59595470D02*
X189971666Y-59607374D01*
X189971666Y-59607374D02*
X189947857Y-59607374D01*
X189947857Y-59607374D02*
X189912143Y-59595470D01*
X189912143Y-59595470D02*
X189888333Y-59571660D01*
X189888333Y-59571660D02*
X189876428Y-59547850D01*
X189876428Y-59547850D02*
X189864524Y-59500231D01*
X189864524Y-59500231D02*
X189864524Y-59464517D01*
X189864524Y-59464517D02*
X189876428Y-59416898D01*
X189876428Y-59416898D02*
X189888333Y-59393089D01*
X189888333Y-59393089D02*
X189912143Y-59369279D01*
X189912143Y-59369279D02*
X189947857Y-59357374D01*
X189947857Y-59357374D02*
X189971666Y-59357374D01*
X189971666Y-59357374D02*
X190007381Y-59369279D01*
X190007381Y-59369279D02*
X190019285Y-59381184D01*
X190257381Y-59607374D02*
X190114524Y-59607374D01*
X190185952Y-59607374D02*
X190185952Y-59357374D01*
X190185952Y-59357374D02*
X190162143Y-59393089D01*
X190162143Y-59393089D02*
X190138333Y-59416898D01*
X190138333Y-59416898D02*
X190114524Y-59428803D01*
X190495476Y-59607374D02*
X190352619Y-59607374D01*
X190424047Y-59607374D02*
X190424047Y-59357374D01*
X190424047Y-59357374D02*
X190400238Y-59393089D01*
X190400238Y-59393089D02*
X190376428Y-59416898D01*
X190376428Y-59416898D02*
X190352619Y-59428803D01*
D10*
X183994819Y-59265238D02*
X183994819Y-59836666D01*
X183994819Y-59550952D02*
X182994819Y-59550952D01*
X182994819Y-59550952D02*
X183137676Y-59646190D01*
X183137676Y-59646190D02*
X183232914Y-59741428D01*
X183232914Y-59741428D02*
X183280533Y-59836666D01*
X182994819Y-58646190D02*
X182994819Y-58550952D01*
X182994819Y-58550952D02*
X183042438Y-58455714D01*
X183042438Y-58455714D02*
X183090057Y-58408095D01*
X183090057Y-58408095D02*
X183185295Y-58360476D01*
X183185295Y-58360476D02*
X183375771Y-58312857D01*
X183375771Y-58312857D02*
X183613866Y-58312857D01*
X183613866Y-58312857D02*
X183804342Y-58360476D01*
X183804342Y-58360476D02*
X183899580Y-58408095D01*
X183899580Y-58408095D02*
X183947200Y-58455714D01*
X183947200Y-58455714D02*
X183994819Y-58550952D01*
X183994819Y-58550952D02*
X183994819Y-58646190D01*
X183994819Y-58646190D02*
X183947200Y-58741428D01*
X183947200Y-58741428D02*
X183899580Y-58789047D01*
X183899580Y-58789047D02*
X183804342Y-58836666D01*
X183804342Y-58836666D02*
X183613866Y-58884285D01*
X183613866Y-58884285D02*
X183375771Y-58884285D01*
X183375771Y-58884285D02*
X183185295Y-58836666D01*
X183185295Y-58836666D02*
X183090057Y-58789047D01*
X183090057Y-58789047D02*
X183042438Y-58741428D01*
X183042438Y-58741428D02*
X182994819Y-58646190D01*
X183994819Y-57884285D02*
X182994819Y-57884285D01*
X183613866Y-57789047D02*
X183994819Y-57503333D01*
X183328152Y-57503333D02*
X183709104Y-57884285D01*
X183994819Y-56503333D02*
X183518628Y-56836666D01*
X183994819Y-57074761D02*
X182994819Y-57074761D01*
X182994819Y-57074761D02*
X182994819Y-56693809D01*
X182994819Y-56693809D02*
X183042438Y-56598571D01*
X183042438Y-56598571D02*
X183090057Y-56550952D01*
X183090057Y-56550952D02*
X183185295Y-56503333D01*
X183185295Y-56503333D02*
X183328152Y-56503333D01*
X183328152Y-56503333D02*
X183423390Y-56550952D01*
X183423390Y-56550952D02*
X183471009Y-56598571D01*
X183471009Y-56598571D02*
X183518628Y-56693809D01*
X183518628Y-56693809D02*
X183518628Y-57074761D01*
D11*
X185383574Y-58211666D02*
X185264527Y-58294999D01*
X185383574Y-58354523D02*
X185133574Y-58354523D01*
X185133574Y-58354523D02*
X185133574Y-58259285D01*
X185133574Y-58259285D02*
X185145479Y-58235475D01*
X185145479Y-58235475D02*
X185157384Y-58223570D01*
X185157384Y-58223570D02*
X185181193Y-58211666D01*
X185181193Y-58211666D02*
X185216908Y-58211666D01*
X185216908Y-58211666D02*
X185240717Y-58223570D01*
X185240717Y-58223570D02*
X185252622Y-58235475D01*
X185252622Y-58235475D02*
X185264527Y-58259285D01*
X185264527Y-58259285D02*
X185264527Y-58354523D01*
X185133574Y-58128332D02*
X185133574Y-57973570D01*
X185133574Y-57973570D02*
X185228812Y-58056904D01*
X185228812Y-58056904D02*
X185228812Y-58021189D01*
X185228812Y-58021189D02*
X185240717Y-57997380D01*
X185240717Y-57997380D02*
X185252622Y-57985475D01*
X185252622Y-57985475D02*
X185276431Y-57973570D01*
X185276431Y-57973570D02*
X185335955Y-57973570D01*
X185335955Y-57973570D02*
X185359765Y-57985475D01*
X185359765Y-57985475D02*
X185371670Y-57997380D01*
X185371670Y-57997380D02*
X185383574Y-58021189D01*
X185383574Y-58021189D02*
X185383574Y-58092618D01*
X185383574Y-58092618D02*
X185371670Y-58116427D01*
X185371670Y-58116427D02*
X185359765Y-58128332D01*
D10*
X183994285Y-68119104D02*
X184470475Y-68119104D01*
X183899047Y-68404819D02*
X184232380Y-67404819D01*
X184232380Y-67404819D02*
X184565713Y-68404819D01*
X184899047Y-67738152D02*
X184899047Y-68404819D01*
X184899047Y-67833390D02*
X184946666Y-67785771D01*
X184946666Y-67785771D02*
X185041904Y-67738152D01*
X185041904Y-67738152D02*
X185184761Y-67738152D01*
X185184761Y-67738152D02*
X185279999Y-67785771D01*
X185279999Y-67785771D02*
X185327618Y-67881009D01*
X185327618Y-67881009D02*
X185327618Y-68404819D01*
X185660952Y-67738152D02*
X186041904Y-67738152D01*
X185803809Y-67404819D02*
X185803809Y-68261961D01*
X185803809Y-68261961D02*
X185851428Y-68357200D01*
X185851428Y-68357200D02*
X185946666Y-68404819D01*
X185946666Y-68404819D02*
X186041904Y-68404819D01*
X186756190Y-68357200D02*
X186660952Y-68404819D01*
X186660952Y-68404819D02*
X186470476Y-68404819D01*
X186470476Y-68404819D02*
X186375238Y-68357200D01*
X186375238Y-68357200D02*
X186327619Y-68261961D01*
X186327619Y-68261961D02*
X186327619Y-67881009D01*
X186327619Y-67881009D02*
X186375238Y-67785771D01*
X186375238Y-67785771D02*
X186470476Y-67738152D01*
X186470476Y-67738152D02*
X186660952Y-67738152D01*
X186660952Y-67738152D02*
X186756190Y-67785771D01*
X186756190Y-67785771D02*
X186803809Y-67881009D01*
X186803809Y-67881009D02*
X186803809Y-67976247D01*
X186803809Y-67976247D02*
X186327619Y-68071485D01*
X187232381Y-67738152D02*
X187232381Y-68404819D01*
X187232381Y-67833390D02*
X187280000Y-67785771D01*
X187280000Y-67785771D02*
X187375238Y-67738152D01*
X187375238Y-67738152D02*
X187518095Y-67738152D01*
X187518095Y-67738152D02*
X187613333Y-67785771D01*
X187613333Y-67785771D02*
X187660952Y-67881009D01*
X187660952Y-67881009D02*
X187660952Y-68404819D01*
X188137143Y-67738152D02*
X188137143Y-68404819D01*
X188137143Y-67833390D02*
X188184762Y-67785771D01*
X188184762Y-67785771D02*
X188280000Y-67738152D01*
X188280000Y-67738152D02*
X188422857Y-67738152D01*
X188422857Y-67738152D02*
X188518095Y-67785771D01*
X188518095Y-67785771D02*
X188565714Y-67881009D01*
X188565714Y-67881009D02*
X188565714Y-68404819D01*
X189470476Y-68404819D02*
X189470476Y-67881009D01*
X189470476Y-67881009D02*
X189422857Y-67785771D01*
X189422857Y-67785771D02*
X189327619Y-67738152D01*
X189327619Y-67738152D02*
X189137143Y-67738152D01*
X189137143Y-67738152D02*
X189041905Y-67785771D01*
X189470476Y-68357200D02*
X189375238Y-68404819D01*
X189375238Y-68404819D02*
X189137143Y-68404819D01*
X189137143Y-68404819D02*
X189041905Y-68357200D01*
X189041905Y-68357200D02*
X188994286Y-68261961D01*
X188994286Y-68261961D02*
X188994286Y-68166723D01*
X188994286Y-68166723D02*
X189041905Y-68071485D01*
X189041905Y-68071485D02*
X189137143Y-68023866D01*
X189137143Y-68023866D02*
X189375238Y-68023866D01*
X189375238Y-68023866D02*
X189470476Y-67976247D01*
X189708572Y-68500057D02*
X190470476Y-68500057D01*
X191280000Y-68309580D02*
X191232381Y-68357200D01*
X191232381Y-68357200D02*
X191089524Y-68404819D01*
X191089524Y-68404819D02*
X190994286Y-68404819D01*
X190994286Y-68404819D02*
X190851429Y-68357200D01*
X190851429Y-68357200D02*
X190756191Y-68261961D01*
X190756191Y-68261961D02*
X190708572Y-68166723D01*
X190708572Y-68166723D02*
X190660953Y-67976247D01*
X190660953Y-67976247D02*
X190660953Y-67833390D01*
X190660953Y-67833390D02*
X190708572Y-67642914D01*
X190708572Y-67642914D02*
X190756191Y-67547676D01*
X190756191Y-67547676D02*
X190851429Y-67452438D01*
X190851429Y-67452438D02*
X190994286Y-67404819D01*
X190994286Y-67404819D02*
X191089524Y-67404819D01*
X191089524Y-67404819D02*
X191232381Y-67452438D01*
X191232381Y-67452438D02*
X191280000Y-67500057D01*
X191708572Y-68404819D02*
X191708572Y-67404819D01*
X192137143Y-68404819D02*
X192137143Y-67881009D01*
X192137143Y-67881009D02*
X192089524Y-67785771D01*
X192089524Y-67785771D02*
X191994286Y-67738152D01*
X191994286Y-67738152D02*
X191851429Y-67738152D01*
X191851429Y-67738152D02*
X191756191Y-67785771D01*
X191756191Y-67785771D02*
X191708572Y-67833390D01*
X192613334Y-68404819D02*
X192613334Y-67738152D01*
X192613334Y-67404819D02*
X192565715Y-67452438D01*
X192565715Y-67452438D02*
X192613334Y-67500057D01*
X192613334Y-67500057D02*
X192660953Y-67452438D01*
X192660953Y-67452438D02*
X192613334Y-67404819D01*
X192613334Y-67404819D02*
X192613334Y-67500057D01*
X193089524Y-67738152D02*
X193089524Y-68738152D01*
X193089524Y-67785771D02*
X193184762Y-67738152D01*
X193184762Y-67738152D02*
X193375238Y-67738152D01*
X193375238Y-67738152D02*
X193470476Y-67785771D01*
X193470476Y-67785771D02*
X193518095Y-67833390D01*
X193518095Y-67833390D02*
X193565714Y-67928628D01*
X193565714Y-67928628D02*
X193565714Y-68214342D01*
X193565714Y-68214342D02*
X193518095Y-68309580D01*
X193518095Y-68309580D02*
X193470476Y-68357200D01*
X193470476Y-68357200D02*
X193375238Y-68404819D01*
X193375238Y-68404819D02*
X193184762Y-68404819D01*
X193184762Y-68404819D02*
X193089524Y-68357200D01*
D13*
X187846666Y-69935283D02*
X188227619Y-69935283D01*
X187770476Y-70163855D02*
X188037143Y-69363855D01*
X188037143Y-69363855D02*
X188303809Y-70163855D01*
X188570476Y-69744807D02*
X188837142Y-69744807D01*
X188951428Y-70163855D02*
X188570476Y-70163855D01*
X188570476Y-70163855D02*
X188570476Y-69363855D01*
X188570476Y-69363855D02*
X188951428Y-69363855D01*
X189713333Y-70163855D02*
X189256190Y-70163855D01*
X189484762Y-70163855D02*
X189484762Y-69363855D01*
X189484762Y-69363855D02*
X189408571Y-69478140D01*
X189408571Y-69478140D02*
X189332381Y-69554331D01*
X189332381Y-69554331D02*
X189256190Y-69592426D01*
D10*
X180182380Y-52484819D02*
X179610952Y-52484819D01*
X179896666Y-52484819D02*
X179896666Y-51484819D01*
X179896666Y-51484819D02*
X179801428Y-51627676D01*
X179801428Y-51627676D02*
X179706190Y-51722914D01*
X179706190Y-51722914D02*
X179610952Y-51770533D01*
X180801428Y-51484819D02*
X180896666Y-51484819D01*
X180896666Y-51484819D02*
X180991904Y-51532438D01*
X180991904Y-51532438D02*
X181039523Y-51580057D01*
X181039523Y-51580057D02*
X181087142Y-51675295D01*
X181087142Y-51675295D02*
X181134761Y-51865771D01*
X181134761Y-51865771D02*
X181134761Y-52103866D01*
X181134761Y-52103866D02*
X181087142Y-52294342D01*
X181087142Y-52294342D02*
X181039523Y-52389580D01*
X181039523Y-52389580D02*
X180991904Y-52437200D01*
X180991904Y-52437200D02*
X180896666Y-52484819D01*
X180896666Y-52484819D02*
X180801428Y-52484819D01*
X180801428Y-52484819D02*
X180706190Y-52437200D01*
X180706190Y-52437200D02*
X180658571Y-52389580D01*
X180658571Y-52389580D02*
X180610952Y-52294342D01*
X180610952Y-52294342D02*
X180563333Y-52103866D01*
X180563333Y-52103866D02*
X180563333Y-51865771D01*
X180563333Y-51865771D02*
X180610952Y-51675295D01*
X180610952Y-51675295D02*
X180658571Y-51580057D01*
X180658571Y-51580057D02*
X180706190Y-51532438D01*
X180706190Y-51532438D02*
X180801428Y-51484819D01*
X181753809Y-51484819D02*
X181849047Y-51484819D01*
X181849047Y-51484819D02*
X181944285Y-51532438D01*
X181944285Y-51532438D02*
X181991904Y-51580057D01*
X181991904Y-51580057D02*
X182039523Y-51675295D01*
X182039523Y-51675295D02*
X182087142Y-51865771D01*
X182087142Y-51865771D02*
X182087142Y-52103866D01*
X182087142Y-52103866D02*
X182039523Y-52294342D01*
X182039523Y-52294342D02*
X181991904Y-52389580D01*
X181991904Y-52389580D02*
X181944285Y-52437200D01*
X181944285Y-52437200D02*
X181849047Y-52484819D01*
X181849047Y-52484819D02*
X181753809Y-52484819D01*
X181753809Y-52484819D02*
X181658571Y-52437200D01*
X181658571Y-52437200D02*
X181610952Y-52389580D01*
X181610952Y-52389580D02*
X181563333Y-52294342D01*
X181563333Y-52294342D02*
X181515714Y-52103866D01*
X181515714Y-52103866D02*
X181515714Y-51865771D01*
X181515714Y-51865771D02*
X181563333Y-51675295D01*
X181563333Y-51675295D02*
X181610952Y-51580057D01*
X181610952Y-51580057D02*
X181658571Y-51532438D01*
X181658571Y-51532438D02*
X181753809Y-51484819D01*
X182515714Y-51818152D02*
X182515714Y-52484819D01*
X182515714Y-51913390D02*
X182563333Y-51865771D01*
X182563333Y-51865771D02*
X182658571Y-51818152D01*
X182658571Y-51818152D02*
X182801428Y-51818152D01*
X182801428Y-51818152D02*
X182896666Y-51865771D01*
X182896666Y-51865771D02*
X182944285Y-51961009D01*
X182944285Y-51961009D02*
X182944285Y-52484819D01*
X183753809Y-51961009D02*
X183420476Y-51961009D01*
X183420476Y-52484819D02*
X183420476Y-51484819D01*
X183420476Y-51484819D02*
X183896666Y-51484819D01*
D11*
X181688333Y-53849765D02*
X181676429Y-53861670D01*
X181676429Y-53861670D02*
X181640714Y-53873574D01*
X181640714Y-53873574D02*
X181616905Y-53873574D01*
X181616905Y-53873574D02*
X181581191Y-53861670D01*
X181581191Y-53861670D02*
X181557381Y-53837860D01*
X181557381Y-53837860D02*
X181545476Y-53814050D01*
X181545476Y-53814050D02*
X181533572Y-53766431D01*
X181533572Y-53766431D02*
X181533572Y-53730717D01*
X181533572Y-53730717D02*
X181545476Y-53683098D01*
X181545476Y-53683098D02*
X181557381Y-53659289D01*
X181557381Y-53659289D02*
X181581191Y-53635479D01*
X181581191Y-53635479D02*
X181616905Y-53623574D01*
X181616905Y-53623574D02*
X181640714Y-53623574D01*
X181640714Y-53623574D02*
X181676429Y-53635479D01*
X181676429Y-53635479D02*
X181688333Y-53647384D01*
X181902619Y-53706908D02*
X181902619Y-53873574D01*
X181843095Y-53611670D02*
X181783572Y-53790241D01*
X181783572Y-53790241D02*
X181938333Y-53790241D01*
D10*
X191666666Y-56004819D02*
X192238094Y-56004819D01*
X191952380Y-57004819D02*
X191952380Y-56004819D01*
X192952380Y-56957200D02*
X192857142Y-57004819D01*
X192857142Y-57004819D02*
X192666666Y-57004819D01*
X192666666Y-57004819D02*
X192571428Y-56957200D01*
X192571428Y-56957200D02*
X192523809Y-56861961D01*
X192523809Y-56861961D02*
X192523809Y-56481009D01*
X192523809Y-56481009D02*
X192571428Y-56385771D01*
X192571428Y-56385771D02*
X192666666Y-56338152D01*
X192666666Y-56338152D02*
X192857142Y-56338152D01*
X192857142Y-56338152D02*
X192952380Y-56385771D01*
X192952380Y-56385771D02*
X192999999Y-56481009D01*
X192999999Y-56481009D02*
X192999999Y-56576247D01*
X192999999Y-56576247D02*
X192523809Y-56671485D01*
X193380952Y-56957200D02*
X193476190Y-57004819D01*
X193476190Y-57004819D02*
X193666666Y-57004819D01*
X193666666Y-57004819D02*
X193761904Y-56957200D01*
X193761904Y-56957200D02*
X193809523Y-56861961D01*
X193809523Y-56861961D02*
X193809523Y-56814342D01*
X193809523Y-56814342D02*
X193761904Y-56719104D01*
X193761904Y-56719104D02*
X193666666Y-56671485D01*
X193666666Y-56671485D02*
X193523809Y-56671485D01*
X193523809Y-56671485D02*
X193428571Y-56623866D01*
X193428571Y-56623866D02*
X193380952Y-56528628D01*
X193380952Y-56528628D02*
X193380952Y-56481009D01*
X193380952Y-56481009D02*
X193428571Y-56385771D01*
X193428571Y-56385771D02*
X193523809Y-56338152D01*
X193523809Y-56338152D02*
X193666666Y-56338152D01*
X193666666Y-56338152D02*
X193761904Y-56385771D01*
X194095238Y-56338152D02*
X194476190Y-56338152D01*
X194238095Y-56004819D02*
X194238095Y-56861961D01*
X194238095Y-56861961D02*
X194285714Y-56957200D01*
X194285714Y-56957200D02*
X194380952Y-57004819D01*
X194380952Y-57004819D02*
X194476190Y-57004819D01*
X194809524Y-57004819D02*
X194809524Y-56004819D01*
X194809524Y-56004819D02*
X195190476Y-56004819D01*
X195190476Y-56004819D02*
X195285714Y-56052438D01*
X195285714Y-56052438D02*
X195333333Y-56100057D01*
X195333333Y-56100057D02*
X195380952Y-56195295D01*
X195380952Y-56195295D02*
X195380952Y-56338152D01*
X195380952Y-56338152D02*
X195333333Y-56433390D01*
X195333333Y-56433390D02*
X195285714Y-56481009D01*
X195285714Y-56481009D02*
X195190476Y-56528628D01*
X195190476Y-56528628D02*
X194809524Y-56528628D01*
X195952381Y-57004819D02*
X195857143Y-56957200D01*
X195857143Y-56957200D02*
X195809524Y-56909580D01*
X195809524Y-56909580D02*
X195761905Y-56814342D01*
X195761905Y-56814342D02*
X195761905Y-56528628D01*
X195761905Y-56528628D02*
X195809524Y-56433390D01*
X195809524Y-56433390D02*
X195857143Y-56385771D01*
X195857143Y-56385771D02*
X195952381Y-56338152D01*
X195952381Y-56338152D02*
X196095238Y-56338152D01*
X196095238Y-56338152D02*
X196190476Y-56385771D01*
X196190476Y-56385771D02*
X196238095Y-56433390D01*
X196238095Y-56433390D02*
X196285714Y-56528628D01*
X196285714Y-56528628D02*
X196285714Y-56814342D01*
X196285714Y-56814342D02*
X196238095Y-56909580D01*
X196238095Y-56909580D02*
X196190476Y-56957200D01*
X196190476Y-56957200D02*
X196095238Y-57004819D01*
X196095238Y-57004819D02*
X195952381Y-57004819D01*
X196714286Y-57004819D02*
X196714286Y-56338152D01*
X196714286Y-56004819D02*
X196666667Y-56052438D01*
X196666667Y-56052438D02*
X196714286Y-56100057D01*
X196714286Y-56100057D02*
X196761905Y-56052438D01*
X196761905Y-56052438D02*
X196714286Y-56004819D01*
X196714286Y-56004819D02*
X196714286Y-56100057D01*
X197190476Y-56338152D02*
X197190476Y-57004819D01*
X197190476Y-56433390D02*
X197238095Y-56385771D01*
X197238095Y-56385771D02*
X197333333Y-56338152D01*
X197333333Y-56338152D02*
X197476190Y-56338152D01*
X197476190Y-56338152D02*
X197571428Y-56385771D01*
X197571428Y-56385771D02*
X197619047Y-56481009D01*
X197619047Y-56481009D02*
X197619047Y-57004819D01*
X197952381Y-56338152D02*
X198333333Y-56338152D01*
X198095238Y-56004819D02*
X198095238Y-56861961D01*
X198095238Y-56861961D02*
X198142857Y-56957200D01*
X198142857Y-56957200D02*
X198238095Y-57004819D01*
X198238095Y-57004819D02*
X198333333Y-57004819D01*
X193738095Y-53004819D02*
X194309523Y-53004819D01*
X194023809Y-54004819D02*
X194023809Y-53004819D01*
X194642857Y-54004819D02*
X194642857Y-53004819D01*
X194642857Y-53004819D02*
X195023809Y-53004819D01*
X195023809Y-53004819D02*
X195119047Y-53052438D01*
X195119047Y-53052438D02*
X195166666Y-53100057D01*
X195166666Y-53100057D02*
X195214285Y-53195295D01*
X195214285Y-53195295D02*
X195214285Y-53338152D01*
X195214285Y-53338152D02*
X195166666Y-53433390D01*
X195166666Y-53433390D02*
X195119047Y-53481009D01*
X195119047Y-53481009D02*
X195023809Y-53528628D01*
X195023809Y-53528628D02*
X194642857Y-53528628D01*
X196166666Y-54004819D02*
X195595238Y-54004819D01*
X195880952Y-54004819D02*
X195880952Y-53004819D01*
X195880952Y-53004819D02*
X195785714Y-53147676D01*
X195785714Y-53147676D02*
X195690476Y-53242914D01*
X195690476Y-53242914D02*
X195595238Y-53290533D01*
X187970476Y-59409299D02*
X188589523Y-59409299D01*
X188589523Y-59409299D02*
X188256190Y-59790251D01*
X188256190Y-59790251D02*
X188399047Y-59790251D01*
X188399047Y-59790251D02*
X188494285Y-59837870D01*
X188494285Y-59837870D02*
X188541904Y-59885489D01*
X188541904Y-59885489D02*
X188589523Y-59980727D01*
X188589523Y-59980727D02*
X188589523Y-60218822D01*
X188589523Y-60218822D02*
X188541904Y-60314060D01*
X188541904Y-60314060D02*
X188494285Y-60361680D01*
X188494285Y-60361680D02*
X188399047Y-60409299D01*
X188399047Y-60409299D02*
X188113333Y-60409299D01*
X188113333Y-60409299D02*
X188018095Y-60361680D01*
X188018095Y-60361680D02*
X187970476Y-60314060D01*
X188970476Y-59504537D02*
X189018095Y-59456918D01*
X189018095Y-59456918D02*
X189113333Y-59409299D01*
X189113333Y-59409299D02*
X189351428Y-59409299D01*
X189351428Y-59409299D02*
X189446666Y-59456918D01*
X189446666Y-59456918D02*
X189494285Y-59504537D01*
X189494285Y-59504537D02*
X189541904Y-59599775D01*
X189541904Y-59599775D02*
X189541904Y-59695013D01*
X189541904Y-59695013D02*
X189494285Y-59837870D01*
X189494285Y-59837870D02*
X188922857Y-60409299D01*
X188922857Y-60409299D02*
X189541904Y-60409299D01*
X189970476Y-60314060D02*
X190018095Y-60361680D01*
X190018095Y-60361680D02*
X189970476Y-60409299D01*
X189970476Y-60409299D02*
X189922857Y-60361680D01*
X189922857Y-60361680D02*
X189970476Y-60314060D01*
X189970476Y-60314060D02*
X189970476Y-60409299D01*
X190351428Y-59409299D02*
X191018094Y-59409299D01*
X191018094Y-59409299D02*
X190589523Y-60409299D01*
X191827618Y-59409299D02*
X191637142Y-59409299D01*
X191637142Y-59409299D02*
X191541904Y-59456918D01*
X191541904Y-59456918D02*
X191494285Y-59504537D01*
X191494285Y-59504537D02*
X191399047Y-59647394D01*
X191399047Y-59647394D02*
X191351428Y-59837870D01*
X191351428Y-59837870D02*
X191351428Y-60218822D01*
X191351428Y-60218822D02*
X191399047Y-60314060D01*
X191399047Y-60314060D02*
X191446666Y-60361680D01*
X191446666Y-60361680D02*
X191541904Y-60409299D01*
X191541904Y-60409299D02*
X191732380Y-60409299D01*
X191732380Y-60409299D02*
X191827618Y-60361680D01*
X191827618Y-60361680D02*
X191875237Y-60314060D01*
X191875237Y-60314060D02*
X191922856Y-60218822D01*
X191922856Y-60218822D02*
X191922856Y-59980727D01*
X191922856Y-59980727D02*
X191875237Y-59885489D01*
X191875237Y-59885489D02*
X191827618Y-59837870D01*
X191827618Y-59837870D02*
X191732380Y-59790251D01*
X191732380Y-59790251D02*
X191541904Y-59790251D01*
X191541904Y-59790251D02*
X191446666Y-59837870D01*
X191446666Y-59837870D02*
X191399047Y-59885489D01*
X191399047Y-59885489D02*
X191351428Y-59980727D01*
X192494285Y-59837870D02*
X192399047Y-59790251D01*
X192399047Y-59790251D02*
X192351428Y-59742632D01*
X192351428Y-59742632D02*
X192303809Y-59647394D01*
X192303809Y-59647394D02*
X192303809Y-59599775D01*
X192303809Y-59599775D02*
X192351428Y-59504537D01*
X192351428Y-59504537D02*
X192399047Y-59456918D01*
X192399047Y-59456918D02*
X192494285Y-59409299D01*
X192494285Y-59409299D02*
X192684761Y-59409299D01*
X192684761Y-59409299D02*
X192779999Y-59456918D01*
X192779999Y-59456918D02*
X192827618Y-59504537D01*
X192827618Y-59504537D02*
X192875237Y-59599775D01*
X192875237Y-59599775D02*
X192875237Y-59647394D01*
X192875237Y-59647394D02*
X192827618Y-59742632D01*
X192827618Y-59742632D02*
X192779999Y-59790251D01*
X192779999Y-59790251D02*
X192684761Y-59837870D01*
X192684761Y-59837870D02*
X192494285Y-59837870D01*
X192494285Y-59837870D02*
X192399047Y-59885489D01*
X192399047Y-59885489D02*
X192351428Y-59933108D01*
X192351428Y-59933108D02*
X192303809Y-60028346D01*
X192303809Y-60028346D02*
X192303809Y-60218822D01*
X192303809Y-60218822D02*
X192351428Y-60314060D01*
X192351428Y-60314060D02*
X192399047Y-60361680D01*
X192399047Y-60361680D02*
X192494285Y-60409299D01*
X192494285Y-60409299D02*
X192684761Y-60409299D01*
X192684761Y-60409299D02*
X192779999Y-60361680D01*
X192779999Y-60361680D02*
X192827618Y-60314060D01*
X192827618Y-60314060D02*
X192875237Y-60218822D01*
X192875237Y-60218822D02*
X192875237Y-60028346D01*
X192875237Y-60028346D02*
X192827618Y-59933108D01*
X192827618Y-59933108D02*
X192779999Y-59885489D01*
X192779999Y-59885489D02*
X192684761Y-59837870D01*
X193303809Y-60409299D02*
X193303809Y-59409299D01*
X193399047Y-60028346D02*
X193684761Y-60409299D01*
X193684761Y-59742632D02*
X193303809Y-60123584D01*
X194113333Y-60409299D02*
X194113333Y-59409299D01*
X194113333Y-59885489D02*
X194684761Y-59885489D01*
X194684761Y-60409299D02*
X194684761Y-59409299D01*
X195065714Y-59742632D02*
X195589523Y-59742632D01*
X195589523Y-59742632D02*
X195065714Y-60409299D01*
X195065714Y-60409299D02*
X195589523Y-60409299D01*
D14*
X191541905Y-58143794D02*
X191541905Y-58381889D01*
X191375239Y-57881889D02*
X191541905Y-58143794D01*
X191541905Y-58143794D02*
X191708572Y-57881889D01*
X192137143Y-58381889D02*
X191851429Y-58381889D01*
X191994286Y-58381889D02*
X191994286Y-57881889D01*
X191994286Y-57881889D02*
X191946667Y-57953318D01*
X191946667Y-57953318D02*
X191899048Y-58000937D01*
X191899048Y-58000937D02*
X191851429Y-58024746D01*
D10*
X179532380Y-58554819D02*
X178960952Y-58554819D01*
X179246666Y-58554819D02*
X179246666Y-57554819D01*
X179246666Y-57554819D02*
X179151428Y-57697676D01*
X179151428Y-57697676D02*
X179056190Y-57792914D01*
X179056190Y-57792914D02*
X178960952Y-57840533D01*
X180151428Y-57554819D02*
X180246666Y-57554819D01*
X180246666Y-57554819D02*
X180341904Y-57602438D01*
X180341904Y-57602438D02*
X180389523Y-57650057D01*
X180389523Y-57650057D02*
X180437142Y-57745295D01*
X180437142Y-57745295D02*
X180484761Y-57935771D01*
X180484761Y-57935771D02*
X180484761Y-58173866D01*
X180484761Y-58173866D02*
X180437142Y-58364342D01*
X180437142Y-58364342D02*
X180389523Y-58459580D01*
X180389523Y-58459580D02*
X180341904Y-58507200D01*
X180341904Y-58507200D02*
X180246666Y-58554819D01*
X180246666Y-58554819D02*
X180151428Y-58554819D01*
X180151428Y-58554819D02*
X180056190Y-58507200D01*
X180056190Y-58507200D02*
X180008571Y-58459580D01*
X180008571Y-58459580D02*
X179960952Y-58364342D01*
X179960952Y-58364342D02*
X179913333Y-58173866D01*
X179913333Y-58173866D02*
X179913333Y-57935771D01*
X179913333Y-57935771D02*
X179960952Y-57745295D01*
X179960952Y-57745295D02*
X180008571Y-57650057D01*
X180008571Y-57650057D02*
X180056190Y-57602438D01*
X180056190Y-57602438D02*
X180151428Y-57554819D01*
X181103809Y-57554819D02*
X181199047Y-57554819D01*
X181199047Y-57554819D02*
X181294285Y-57602438D01*
X181294285Y-57602438D02*
X181341904Y-57650057D01*
X181341904Y-57650057D02*
X181389523Y-57745295D01*
X181389523Y-57745295D02*
X181437142Y-57935771D01*
X181437142Y-57935771D02*
X181437142Y-58173866D01*
X181437142Y-58173866D02*
X181389523Y-58364342D01*
X181389523Y-58364342D02*
X181341904Y-58459580D01*
X181341904Y-58459580D02*
X181294285Y-58507200D01*
X181294285Y-58507200D02*
X181199047Y-58554819D01*
X181199047Y-58554819D02*
X181103809Y-58554819D01*
X181103809Y-58554819D02*
X181008571Y-58507200D01*
X181008571Y-58507200D02*
X180960952Y-58459580D01*
X180960952Y-58459580D02*
X180913333Y-58364342D01*
X180913333Y-58364342D02*
X180865714Y-58173866D01*
X180865714Y-58173866D02*
X180865714Y-57935771D01*
X180865714Y-57935771D02*
X180913333Y-57745295D01*
X180913333Y-57745295D02*
X180960952Y-57650057D01*
X180960952Y-57650057D02*
X181008571Y-57602438D01*
X181008571Y-57602438D02*
X181103809Y-57554819D01*
X181865714Y-57888152D02*
X181865714Y-58554819D01*
X181865714Y-57983390D02*
X181913333Y-57935771D01*
X181913333Y-57935771D02*
X182008571Y-57888152D01*
X182008571Y-57888152D02*
X182151428Y-57888152D01*
X182151428Y-57888152D02*
X182246666Y-57935771D01*
X182246666Y-57935771D02*
X182294285Y-58031009D01*
X182294285Y-58031009D02*
X182294285Y-58554819D01*
X183103809Y-58031009D02*
X182770476Y-58031009D01*
X182770476Y-58554819D02*
X182770476Y-57554819D01*
X182770476Y-57554819D02*
X183246666Y-57554819D01*
D11*
X181038333Y-56459765D02*
X181026429Y-56471670D01*
X181026429Y-56471670D02*
X180990714Y-56483574D01*
X180990714Y-56483574D02*
X180966905Y-56483574D01*
X180966905Y-56483574D02*
X180931191Y-56471670D01*
X180931191Y-56471670D02*
X180907381Y-56447860D01*
X180907381Y-56447860D02*
X180895476Y-56424050D01*
X180895476Y-56424050D02*
X180883572Y-56376431D01*
X180883572Y-56376431D02*
X180883572Y-56340717D01*
X180883572Y-56340717D02*
X180895476Y-56293098D01*
X180895476Y-56293098D02*
X180907381Y-56269289D01*
X180907381Y-56269289D02*
X180931191Y-56245479D01*
X180931191Y-56245479D02*
X180966905Y-56233574D01*
X180966905Y-56233574D02*
X180990714Y-56233574D01*
X180990714Y-56233574D02*
X181026429Y-56245479D01*
X181026429Y-56245479D02*
X181038333Y-56257384D01*
X181121667Y-56233574D02*
X181276429Y-56233574D01*
X181276429Y-56233574D02*
X181193095Y-56328812D01*
X181193095Y-56328812D02*
X181228810Y-56328812D01*
X181228810Y-56328812D02*
X181252619Y-56340717D01*
X181252619Y-56340717D02*
X181264524Y-56352622D01*
X181264524Y-56352622D02*
X181276429Y-56376431D01*
X181276429Y-56376431D02*
X181276429Y-56435955D01*
X181276429Y-56435955D02*
X181264524Y-56459765D01*
X181264524Y-56459765D02*
X181252619Y-56471670D01*
X181252619Y-56471670D02*
X181228810Y-56483574D01*
X181228810Y-56483574D02*
X181157381Y-56483574D01*
X181157381Y-56483574D02*
X181133572Y-56471670D01*
X181133572Y-56471670D02*
X181121667Y-56459765D01*
D10*
X183284285Y-52604819D02*
X182712857Y-52604819D01*
X182998571Y-52604819D02*
X182998571Y-51604819D01*
X182998571Y-51604819D02*
X182903333Y-51747676D01*
X182903333Y-51747676D02*
X182808095Y-51842914D01*
X182808095Y-51842914D02*
X182712857Y-51890533D01*
X183712857Y-52604819D02*
X183712857Y-51604819D01*
X183712857Y-51604819D02*
X184046190Y-52319104D01*
X184046190Y-52319104D02*
X184379523Y-51604819D01*
X184379523Y-51604819D02*
X184379523Y-52604819D01*
X185427142Y-52604819D02*
X185093809Y-52128628D01*
X184855714Y-52604819D02*
X184855714Y-51604819D01*
X184855714Y-51604819D02*
X185236666Y-51604819D01*
X185236666Y-51604819D02*
X185331904Y-51652438D01*
X185331904Y-51652438D02*
X185379523Y-51700057D01*
X185379523Y-51700057D02*
X185427142Y-51795295D01*
X185427142Y-51795295D02*
X185427142Y-51938152D01*
X185427142Y-51938152D02*
X185379523Y-52033390D01*
X185379523Y-52033390D02*
X185331904Y-52081009D01*
X185331904Y-52081009D02*
X185236666Y-52128628D01*
X185236666Y-52128628D02*
X184855714Y-52128628D01*
D11*
X184026667Y-53438200D02*
X183940000Y-53314391D01*
X183878095Y-53438200D02*
X183878095Y-53178200D01*
X183878095Y-53178200D02*
X183977143Y-53178200D01*
X183977143Y-53178200D02*
X184001905Y-53190581D01*
X184001905Y-53190581D02*
X184014286Y-53202962D01*
X184014286Y-53202962D02*
X184026667Y-53227724D01*
X184026667Y-53227724D02*
X184026667Y-53264867D01*
X184026667Y-53264867D02*
X184014286Y-53289629D01*
X184014286Y-53289629D02*
X184001905Y-53302010D01*
X184001905Y-53302010D02*
X183977143Y-53314391D01*
X183977143Y-53314391D02*
X183878095Y-53314391D01*
X184249524Y-53264867D02*
X184249524Y-53438200D01*
X184187619Y-53165820D02*
X184125714Y-53351534D01*
X184125714Y-53351534D02*
X184286667Y-53351534D01*
D10*
X186230057Y-63264751D02*
X186182438Y-63217132D01*
X186182438Y-63217132D02*
X186134819Y-63121894D01*
X186134819Y-63121894D02*
X186134819Y-62883799D01*
X186134819Y-62883799D02*
X186182438Y-62788561D01*
X186182438Y-62788561D02*
X186230057Y-62740942D01*
X186230057Y-62740942D02*
X186325295Y-62693323D01*
X186325295Y-62693323D02*
X186420533Y-62693323D01*
X186420533Y-62693323D02*
X186563390Y-62740942D01*
X186563390Y-62740942D02*
X187134819Y-63312370D01*
X187134819Y-63312370D02*
X187134819Y-62693323D01*
X187039580Y-62264751D02*
X187087200Y-62217132D01*
X187087200Y-62217132D02*
X187134819Y-62264751D01*
X187134819Y-62264751D02*
X187087200Y-62312370D01*
X187087200Y-62312370D02*
X187039580Y-62264751D01*
X187039580Y-62264751D02*
X187134819Y-62264751D01*
X186230057Y-61836180D02*
X186182438Y-61788561D01*
X186182438Y-61788561D02*
X186134819Y-61693323D01*
X186134819Y-61693323D02*
X186134819Y-61455228D01*
X186134819Y-61455228D02*
X186182438Y-61359990D01*
X186182438Y-61359990D02*
X186230057Y-61312371D01*
X186230057Y-61312371D02*
X186325295Y-61264752D01*
X186325295Y-61264752D02*
X186420533Y-61264752D01*
X186420533Y-61264752D02*
X186563390Y-61312371D01*
X186563390Y-61312371D02*
X187134819Y-61883799D01*
X187134819Y-61883799D02*
X187134819Y-61264752D01*
X186468152Y-60407609D02*
X187134819Y-60407609D01*
X186468152Y-60836180D02*
X186991961Y-60836180D01*
X186991961Y-60836180D02*
X187087200Y-60788561D01*
X187087200Y-60788561D02*
X187134819Y-60693323D01*
X187134819Y-60693323D02*
X187134819Y-60550466D01*
X187134819Y-60550466D02*
X187087200Y-60455228D01*
X187087200Y-60455228D02*
X187039580Y-60407609D01*
X186611009Y-59598085D02*
X186611009Y-59931418D01*
X187134819Y-59931418D02*
X186134819Y-59931418D01*
X186134819Y-59931418D02*
X186134819Y-59455228D01*
D11*
X188499765Y-61425466D02*
X188511670Y-61437370D01*
X188511670Y-61437370D02*
X188523574Y-61473085D01*
X188523574Y-61473085D02*
X188523574Y-61496894D01*
X188523574Y-61496894D02*
X188511670Y-61532608D01*
X188511670Y-61532608D02*
X188487860Y-61556418D01*
X188487860Y-61556418D02*
X188464050Y-61568323D01*
X188464050Y-61568323D02*
X188416431Y-61580227D01*
X188416431Y-61580227D02*
X188380717Y-61580227D01*
X188380717Y-61580227D02*
X188333098Y-61568323D01*
X188333098Y-61568323D02*
X188309289Y-61556418D01*
X188309289Y-61556418D02*
X188285479Y-61532608D01*
X188285479Y-61532608D02*
X188273574Y-61496894D01*
X188273574Y-61496894D02*
X188273574Y-61473085D01*
X188273574Y-61473085D02*
X188285479Y-61437370D01*
X188285479Y-61437370D02*
X188297384Y-61425466D01*
X188297384Y-61330227D02*
X188285479Y-61318323D01*
X188285479Y-61318323D02*
X188273574Y-61294513D01*
X188273574Y-61294513D02*
X188273574Y-61234989D01*
X188273574Y-61234989D02*
X188285479Y-61211180D01*
X188285479Y-61211180D02*
X188297384Y-61199275D01*
X188297384Y-61199275D02*
X188321193Y-61187370D01*
X188321193Y-61187370D02*
X188345003Y-61187370D01*
X188345003Y-61187370D02*
X188380717Y-61199275D01*
X188380717Y-61199275D02*
X188523574Y-61342132D01*
X188523574Y-61342132D02*
X188523574Y-61187370D01*
D10*
X184119047Y-51989104D02*
X184595237Y-51989104D01*
X184023809Y-52274819D02*
X184357142Y-51274819D01*
X184357142Y-51274819D02*
X184690475Y-52274819D01*
X185023809Y-52274819D02*
X185023809Y-51274819D01*
X185023809Y-51274819D02*
X185404761Y-51274819D01*
X185404761Y-51274819D02*
X185499999Y-51322438D01*
X185499999Y-51322438D02*
X185547618Y-51370057D01*
X185547618Y-51370057D02*
X185595237Y-51465295D01*
X185595237Y-51465295D02*
X185595237Y-51608152D01*
X185595237Y-51608152D02*
X185547618Y-51703390D01*
X185547618Y-51703390D02*
X185499999Y-51751009D01*
X185499999Y-51751009D02*
X185404761Y-51798628D01*
X185404761Y-51798628D02*
X185023809Y-51798628D01*
X185880952Y-51274819D02*
X186452380Y-51274819D01*
X186166666Y-52274819D02*
X186166666Y-51274819D01*
X186690476Y-51274819D02*
X187309523Y-51274819D01*
X187309523Y-51274819D02*
X186976190Y-51655771D01*
X186976190Y-51655771D02*
X187119047Y-51655771D01*
X187119047Y-51655771D02*
X187214285Y-51703390D01*
X187214285Y-51703390D02*
X187261904Y-51751009D01*
X187261904Y-51751009D02*
X187309523Y-51846247D01*
X187309523Y-51846247D02*
X187309523Y-52084342D01*
X187309523Y-52084342D02*
X187261904Y-52179580D01*
X187261904Y-52179580D02*
X187214285Y-52227200D01*
X187214285Y-52227200D02*
X187119047Y-52274819D01*
X187119047Y-52274819D02*
X186833333Y-52274819D01*
X186833333Y-52274819D02*
X186738095Y-52227200D01*
X186738095Y-52227200D02*
X186690476Y-52179580D01*
X187690476Y-51370057D02*
X187738095Y-51322438D01*
X187738095Y-51322438D02*
X187833333Y-51274819D01*
X187833333Y-51274819D02*
X188071428Y-51274819D01*
X188071428Y-51274819D02*
X188166666Y-51322438D01*
X188166666Y-51322438D02*
X188214285Y-51370057D01*
X188214285Y-51370057D02*
X188261904Y-51465295D01*
X188261904Y-51465295D02*
X188261904Y-51560533D01*
X188261904Y-51560533D02*
X188214285Y-51703390D01*
X188214285Y-51703390D02*
X187642857Y-52274819D01*
X187642857Y-52274819D02*
X188261904Y-52274819D01*
X189214285Y-52274819D02*
X188642857Y-52274819D01*
X188928571Y-52274819D02*
X188928571Y-51274819D01*
X188928571Y-51274819D02*
X188833333Y-51417676D01*
X188833333Y-51417676D02*
X188738095Y-51512914D01*
X188738095Y-51512914D02*
X188642857Y-51560533D01*
X190071428Y-51274819D02*
X189880952Y-51274819D01*
X189880952Y-51274819D02*
X189785714Y-51322438D01*
X189785714Y-51322438D02*
X189738095Y-51370057D01*
X189738095Y-51370057D02*
X189642857Y-51512914D01*
X189642857Y-51512914D02*
X189595238Y-51703390D01*
X189595238Y-51703390D02*
X189595238Y-52084342D01*
X189595238Y-52084342D02*
X189642857Y-52179580D01*
X189642857Y-52179580D02*
X189690476Y-52227200D01*
X189690476Y-52227200D02*
X189785714Y-52274819D01*
X189785714Y-52274819D02*
X189976190Y-52274819D01*
X189976190Y-52274819D02*
X190071428Y-52227200D01*
X190071428Y-52227200D02*
X190119047Y-52179580D01*
X190119047Y-52179580D02*
X190166666Y-52084342D01*
X190166666Y-52084342D02*
X190166666Y-51846247D01*
X190166666Y-51846247D02*
X190119047Y-51751009D01*
X190119047Y-51751009D02*
X190071428Y-51703390D01*
X190071428Y-51703390D02*
X189976190Y-51655771D01*
X189976190Y-51655771D02*
X189785714Y-51655771D01*
X189785714Y-51655771D02*
X189690476Y-51703390D01*
X189690476Y-51703390D02*
X189642857Y-51751009D01*
X189642857Y-51751009D02*
X189595238Y-51846247D01*
X191071428Y-52274819D02*
X190595238Y-52274819D01*
X190595238Y-52274819D02*
X190595238Y-51274819D01*
X191261905Y-51274819D02*
X191595238Y-52274819D01*
X191595238Y-52274819D02*
X191928571Y-51274819D01*
X192595238Y-51751009D02*
X192738095Y-51798628D01*
X192738095Y-51798628D02*
X192785714Y-51846247D01*
X192785714Y-51846247D02*
X192833333Y-51941485D01*
X192833333Y-51941485D02*
X192833333Y-52084342D01*
X192833333Y-52084342D02*
X192785714Y-52179580D01*
X192785714Y-52179580D02*
X192738095Y-52227200D01*
X192738095Y-52227200D02*
X192642857Y-52274819D01*
X192642857Y-52274819D02*
X192261905Y-52274819D01*
X192261905Y-52274819D02*
X192261905Y-51274819D01*
X192261905Y-51274819D02*
X192595238Y-51274819D01*
X192595238Y-51274819D02*
X192690476Y-51322438D01*
X192690476Y-51322438D02*
X192738095Y-51370057D01*
X192738095Y-51370057D02*
X192785714Y-51465295D01*
X192785714Y-51465295D02*
X192785714Y-51560533D01*
X192785714Y-51560533D02*
X192738095Y-51655771D01*
X192738095Y-51655771D02*
X192690476Y-51703390D01*
X192690476Y-51703390D02*
X192595238Y-51751009D01*
X192595238Y-51751009D02*
X192261905Y-51751009D01*
X193833333Y-52179580D02*
X193785714Y-52227200D01*
X193785714Y-52227200D02*
X193642857Y-52274819D01*
X193642857Y-52274819D02*
X193547619Y-52274819D01*
X193547619Y-52274819D02*
X193404762Y-52227200D01*
X193404762Y-52227200D02*
X193309524Y-52131961D01*
X193309524Y-52131961D02*
X193261905Y-52036723D01*
X193261905Y-52036723D02*
X193214286Y-51846247D01*
X193214286Y-51846247D02*
X193214286Y-51703390D01*
X193214286Y-51703390D02*
X193261905Y-51512914D01*
X193261905Y-51512914D02*
X193309524Y-51417676D01*
X193309524Y-51417676D02*
X193404762Y-51322438D01*
X193404762Y-51322438D02*
X193547619Y-51274819D01*
X193547619Y-51274819D02*
X193642857Y-51274819D01*
X193642857Y-51274819D02*
X193785714Y-51322438D01*
X193785714Y-51322438D02*
X193833333Y-51370057D01*
X194976190Y-51227200D02*
X194119048Y-52512914D01*
X195309524Y-52274819D02*
X195309524Y-51274819D01*
X195309524Y-51274819D02*
X195547619Y-51274819D01*
X195547619Y-51274819D02*
X195690476Y-51322438D01*
X195690476Y-51322438D02*
X195785714Y-51417676D01*
X195785714Y-51417676D02*
X195833333Y-51512914D01*
X195833333Y-51512914D02*
X195880952Y-51703390D01*
X195880952Y-51703390D02*
X195880952Y-51846247D01*
X195880952Y-51846247D02*
X195833333Y-52036723D01*
X195833333Y-52036723D02*
X195785714Y-52131961D01*
X195785714Y-52131961D02*
X195690476Y-52227200D01*
X195690476Y-52227200D02*
X195547619Y-52274819D01*
X195547619Y-52274819D02*
X195309524Y-52274819D01*
D13*
X189409524Y-50363855D02*
X189409524Y-49563855D01*
X189409524Y-49563855D02*
X189600000Y-49563855D01*
X189600000Y-49563855D02*
X189714286Y-49601950D01*
X189714286Y-49601950D02*
X189790476Y-49678140D01*
X189790476Y-49678140D02*
X189828571Y-49754331D01*
X189828571Y-49754331D02*
X189866667Y-49906712D01*
X189866667Y-49906712D02*
X189866667Y-50020998D01*
X189866667Y-50020998D02*
X189828571Y-50173379D01*
X189828571Y-50173379D02*
X189790476Y-50249569D01*
X189790476Y-50249569D02*
X189714286Y-50325760D01*
X189714286Y-50325760D02*
X189600000Y-50363855D01*
X189600000Y-50363855D02*
X189409524Y-50363855D01*
X190628571Y-50363855D02*
X190171428Y-50363855D01*
X190400000Y-50363855D02*
X190400000Y-49563855D01*
X190400000Y-49563855D02*
X190323809Y-49678140D01*
X190323809Y-49678140D02*
X190247619Y-49754331D01*
X190247619Y-49754331D02*
X190171428Y-49792426D01*
D10*
X186913333Y-61818619D02*
X186341905Y-61818619D01*
X186627619Y-61818619D02*
X186627619Y-60818619D01*
X186627619Y-60818619D02*
X186532381Y-60961476D01*
X186532381Y-60961476D02*
X186437143Y-61056714D01*
X186437143Y-61056714D02*
X186341905Y-61104333D01*
X187532381Y-60818619D02*
X187627619Y-60818619D01*
X187627619Y-60818619D02*
X187722857Y-60866238D01*
X187722857Y-60866238D02*
X187770476Y-60913857D01*
X187770476Y-60913857D02*
X187818095Y-61009095D01*
X187818095Y-61009095D02*
X187865714Y-61199571D01*
X187865714Y-61199571D02*
X187865714Y-61437666D01*
X187865714Y-61437666D02*
X187818095Y-61628142D01*
X187818095Y-61628142D02*
X187770476Y-61723380D01*
X187770476Y-61723380D02*
X187722857Y-61771000D01*
X187722857Y-61771000D02*
X187627619Y-61818619D01*
X187627619Y-61818619D02*
X187532381Y-61818619D01*
X187532381Y-61818619D02*
X187437143Y-61771000D01*
X187437143Y-61771000D02*
X187389524Y-61723380D01*
X187389524Y-61723380D02*
X187341905Y-61628142D01*
X187341905Y-61628142D02*
X187294286Y-61437666D01*
X187294286Y-61437666D02*
X187294286Y-61199571D01*
X187294286Y-61199571D02*
X187341905Y-61009095D01*
X187341905Y-61009095D02*
X187389524Y-60913857D01*
X187389524Y-60913857D02*
X187437143Y-60866238D01*
X187437143Y-60866238D02*
X187532381Y-60818619D01*
X188484762Y-60818619D02*
X188580000Y-60818619D01*
X188580000Y-60818619D02*
X188675238Y-60866238D01*
X188675238Y-60866238D02*
X188722857Y-60913857D01*
X188722857Y-60913857D02*
X188770476Y-61009095D01*
X188770476Y-61009095D02*
X188818095Y-61199571D01*
X188818095Y-61199571D02*
X188818095Y-61437666D01*
X188818095Y-61437666D02*
X188770476Y-61628142D01*
X188770476Y-61628142D02*
X188722857Y-61723380D01*
X188722857Y-61723380D02*
X188675238Y-61771000D01*
X188675238Y-61771000D02*
X188580000Y-61818619D01*
X188580000Y-61818619D02*
X188484762Y-61818619D01*
X188484762Y-61818619D02*
X188389524Y-61771000D01*
X188389524Y-61771000D02*
X188341905Y-61723380D01*
X188341905Y-61723380D02*
X188294286Y-61628142D01*
X188294286Y-61628142D02*
X188246667Y-61437666D01*
X188246667Y-61437666D02*
X188246667Y-61199571D01*
X188246667Y-61199571D02*
X188294286Y-61009095D01*
X188294286Y-61009095D02*
X188341905Y-60913857D01*
X188341905Y-60913857D02*
X188389524Y-60866238D01*
X188389524Y-60866238D02*
X188484762Y-60818619D01*
X189818095Y-61818619D02*
X189484762Y-61342428D01*
X189246667Y-61818619D02*
X189246667Y-60818619D01*
X189246667Y-60818619D02*
X189627619Y-60818619D01*
X189627619Y-60818619D02*
X189722857Y-60866238D01*
X189722857Y-60866238D02*
X189770476Y-60913857D01*
X189770476Y-60913857D02*
X189818095Y-61009095D01*
X189818095Y-61009095D02*
X189818095Y-61151952D01*
X189818095Y-61151952D02*
X189770476Y-61247190D01*
X189770476Y-61247190D02*
X189722857Y-61294809D01*
X189722857Y-61294809D02*
X189627619Y-61342428D01*
X189627619Y-61342428D02*
X189246667Y-61342428D01*
D11*
X187871667Y-59616422D02*
X187788333Y-59616422D01*
X187788333Y-59747374D02*
X187788333Y-59497374D01*
X187788333Y-59497374D02*
X187907381Y-59497374D01*
X188085953Y-59616422D02*
X188121667Y-59628327D01*
X188121667Y-59628327D02*
X188133572Y-59640231D01*
X188133572Y-59640231D02*
X188145476Y-59664041D01*
X188145476Y-59664041D02*
X188145476Y-59699755D01*
X188145476Y-59699755D02*
X188133572Y-59723565D01*
X188133572Y-59723565D02*
X188121667Y-59735470D01*
X188121667Y-59735470D02*
X188097857Y-59747374D01*
X188097857Y-59747374D02*
X188002619Y-59747374D01*
X188002619Y-59747374D02*
X188002619Y-59497374D01*
X188002619Y-59497374D02*
X188085953Y-59497374D01*
X188085953Y-59497374D02*
X188109762Y-59509279D01*
X188109762Y-59509279D02*
X188121667Y-59521184D01*
X188121667Y-59521184D02*
X188133572Y-59544993D01*
X188133572Y-59544993D02*
X188133572Y-59568803D01*
X188133572Y-59568803D02*
X188121667Y-59592612D01*
X188121667Y-59592612D02*
X188109762Y-59604517D01*
X188109762Y-59604517D02*
X188085953Y-59616422D01*
X188085953Y-59616422D02*
X188002619Y-59616422D01*
X188383572Y-59747374D02*
X188240715Y-59747374D01*
X188312143Y-59747374D02*
X188312143Y-59497374D01*
X188312143Y-59497374D02*
X188288334Y-59533089D01*
X188288334Y-59533089D02*
X188264524Y-59556898D01*
X188264524Y-59556898D02*
X188240715Y-59568803D01*
D10*
X194944482Y-54254466D02*
X195281199Y-53917748D01*
X195079169Y-54523840D02*
X194607764Y-53581031D01*
X194607764Y-53581031D02*
X195550573Y-54052435D01*
X195786276Y-53816733D02*
X195079169Y-53109626D01*
X195079169Y-53109626D02*
X195247528Y-52941267D01*
X195247528Y-52941267D02*
X195382215Y-52873924D01*
X195382215Y-52873924D02*
X195516902Y-52873924D01*
X195516902Y-52873924D02*
X195617917Y-52907595D01*
X195617917Y-52907595D02*
X195786276Y-53008611D01*
X195786276Y-53008611D02*
X195887291Y-53109626D01*
X195887291Y-53109626D02*
X195988306Y-53277985D01*
X195988306Y-53277985D02*
X196021978Y-53379000D01*
X196021978Y-53379000D02*
X196021978Y-53513687D01*
X196021978Y-53513687D02*
X195954634Y-53648374D01*
X195954634Y-53648374D02*
X195786276Y-53816733D01*
X195718932Y-52469863D02*
X196897443Y-52705565D01*
X196190337Y-51998458D02*
X196426039Y-53176969D01*
X197503535Y-52099473D02*
X197166817Y-52436191D01*
X197166817Y-52436191D02*
X196459711Y-51729084D01*
X196964787Y-51224008D02*
X197402520Y-50786275D01*
X197402520Y-50786275D02*
X197436192Y-51291351D01*
X197436192Y-51291351D02*
X197537207Y-51190336D01*
X197537207Y-51190336D02*
X197638222Y-51156664D01*
X197638222Y-51156664D02*
X197705566Y-51156664D01*
X197705566Y-51156664D02*
X197806581Y-51190336D01*
X197806581Y-51190336D02*
X197974940Y-51358695D01*
X197974940Y-51358695D02*
X198008611Y-51459710D01*
X198008611Y-51459710D02*
X198008611Y-51527053D01*
X198008611Y-51527053D02*
X197974940Y-51628069D01*
X197974940Y-51628069D02*
X197772909Y-51830099D01*
X197772909Y-51830099D02*
X197671894Y-51863771D01*
X197671894Y-51863771D02*
X197604550Y-51863771D01*
X198008611Y-50180183D02*
X197873924Y-50314870D01*
X197873924Y-50314870D02*
X197840253Y-50415886D01*
X197840253Y-50415886D02*
X197840253Y-50483229D01*
X197840253Y-50483229D02*
X197873924Y-50651588D01*
X197873924Y-50651588D02*
X197974940Y-50819947D01*
X197974940Y-50819947D02*
X198244314Y-51089321D01*
X198244314Y-51089321D02*
X198345329Y-51122992D01*
X198345329Y-51122992D02*
X198412672Y-51122992D01*
X198412672Y-51122992D02*
X198513688Y-51089321D01*
X198513688Y-51089321D02*
X198648375Y-50954634D01*
X198648375Y-50954634D02*
X198682046Y-50853618D01*
X198682046Y-50853618D02*
X198682046Y-50786275D01*
X198682046Y-50786275D02*
X198648375Y-50685260D01*
X198648375Y-50685260D02*
X198480016Y-50516901D01*
X198480016Y-50516901D02*
X198379001Y-50483229D01*
X198379001Y-50483229D02*
X198311657Y-50483229D01*
X198311657Y-50483229D02*
X198210642Y-50516901D01*
X198210642Y-50516901D02*
X198075955Y-50651588D01*
X198075955Y-50651588D02*
X198042283Y-50752603D01*
X198042283Y-50752603D02*
X198042283Y-50819947D01*
X198042283Y-50819947D02*
X198075955Y-50920962D01*
X198682046Y-49506748D02*
X198547359Y-49641435D01*
X198547359Y-49641435D02*
X198513688Y-49742451D01*
X198513688Y-49742451D02*
X198513688Y-49809794D01*
X198513688Y-49809794D02*
X198547359Y-49978153D01*
X198547359Y-49978153D02*
X198648375Y-50146512D01*
X198648375Y-50146512D02*
X198917749Y-50415886D01*
X198917749Y-50415886D02*
X199018764Y-50449557D01*
X199018764Y-50449557D02*
X199086107Y-50449557D01*
X199086107Y-50449557D02*
X199187123Y-50415886D01*
X199187123Y-50415886D02*
X199321810Y-50281199D01*
X199321810Y-50281199D02*
X199355481Y-50180183D01*
X199355481Y-50180183D02*
X199355481Y-50112840D01*
X199355481Y-50112840D02*
X199321810Y-50011825D01*
X199321810Y-50011825D02*
X199153451Y-49843466D01*
X199153451Y-49843466D02*
X199052436Y-49809794D01*
X199052436Y-49809794D02*
X198985092Y-49809794D01*
X198985092Y-49809794D02*
X198884077Y-49843466D01*
X198884077Y-49843466D02*
X198749390Y-49978153D01*
X198749390Y-49978153D02*
X198715718Y-50079168D01*
X198715718Y-50079168D02*
X198715718Y-50146512D01*
X198715718Y-50146512D02*
X198749390Y-50247527D01*
D14*
X194537875Y-50076623D02*
X194824085Y-50362833D01*
X194824085Y-50362833D02*
X194874592Y-50379669D01*
X194874592Y-50379669D02*
X194908264Y-50379669D01*
X194908264Y-50379669D02*
X194958772Y-50362833D01*
X194958772Y-50362833D02*
X195026115Y-50295489D01*
X195026115Y-50295489D02*
X195042951Y-50244982D01*
X195042951Y-50244982D02*
X195042951Y-50211310D01*
X195042951Y-50211310D02*
X195026115Y-50160802D01*
X195026115Y-50160802D02*
X194739905Y-49874592D01*
X194874593Y-49739905D02*
X195093459Y-49521039D01*
X195093459Y-49521039D02*
X195110295Y-49773577D01*
X195110295Y-49773577D02*
X195160803Y-49723069D01*
X195160803Y-49723069D02*
X195211310Y-49706233D01*
X195211310Y-49706233D02*
X195244982Y-49706233D01*
X195244982Y-49706233D02*
X195295490Y-49723069D01*
X195295490Y-49723069D02*
X195379669Y-49807249D01*
X195379669Y-49807249D02*
X195396505Y-49857756D01*
X195396505Y-49857756D02*
X195396505Y-49891428D01*
X195396505Y-49891428D02*
X195379669Y-49941936D01*
X195379669Y-49941936D02*
X195278654Y-50042951D01*
X195278654Y-50042951D02*
X195228146Y-50059787D01*
X195228146Y-50059787D02*
X195194474Y-50059787D01*
D10*
X188000057Y-55952381D02*
X187952438Y-56047619D01*
X187952438Y-56047619D02*
X187857200Y-56142857D01*
X187857200Y-56142857D02*
X187714342Y-56285714D01*
X187714342Y-56285714D02*
X187666723Y-56380952D01*
X187666723Y-56380952D02*
X187666723Y-56476190D01*
X187904819Y-56428571D02*
X187857200Y-56523809D01*
X187857200Y-56523809D02*
X187761961Y-56619047D01*
X187761961Y-56619047D02*
X187571485Y-56666666D01*
X187571485Y-56666666D02*
X187238152Y-56666666D01*
X187238152Y-56666666D02*
X187047676Y-56619047D01*
X187047676Y-56619047D02*
X186952438Y-56523809D01*
X186952438Y-56523809D02*
X186904819Y-56428571D01*
X186904819Y-56428571D02*
X186904819Y-56238095D01*
X186904819Y-56238095D02*
X186952438Y-56142857D01*
X186952438Y-56142857D02*
X187047676Y-56047619D01*
X187047676Y-56047619D02*
X187238152Y-56000000D01*
X187238152Y-56000000D02*
X187571485Y-56000000D01*
X187571485Y-56000000D02*
X187761961Y-56047619D01*
X187761961Y-56047619D02*
X187857200Y-56142857D01*
X187857200Y-56142857D02*
X187904819Y-56238095D01*
X187904819Y-56238095D02*
X187904819Y-56428571D01*
X188000057Y-55809524D02*
X188000057Y-55047619D01*
X187904819Y-54809523D02*
X186904819Y-54809523D01*
X186904819Y-54809523D02*
X187904819Y-54238095D01*
X187904819Y-54238095D02*
X186904819Y-54238095D01*
X187904819Y-53761904D02*
X186904819Y-53761904D01*
X186904819Y-53761904D02*
X187619104Y-53428571D01*
X187619104Y-53428571D02*
X186904819Y-53095238D01*
X186904819Y-53095238D02*
X187904819Y-53095238D01*
X186904819Y-52428571D02*
X186904819Y-52238095D01*
X186904819Y-52238095D02*
X186952438Y-52142857D01*
X186952438Y-52142857D02*
X187047676Y-52047619D01*
X187047676Y-52047619D02*
X187238152Y-52000000D01*
X187238152Y-52000000D02*
X187571485Y-52000000D01*
X187571485Y-52000000D02*
X187761961Y-52047619D01*
X187761961Y-52047619D02*
X187857200Y-52142857D01*
X187857200Y-52142857D02*
X187904819Y-52238095D01*
X187904819Y-52238095D02*
X187904819Y-52428571D01*
X187904819Y-52428571D02*
X187857200Y-52523809D01*
X187857200Y-52523809D02*
X187761961Y-52619047D01*
X187761961Y-52619047D02*
X187571485Y-52666666D01*
X187571485Y-52666666D02*
X187238152Y-52666666D01*
X187238152Y-52666666D02*
X187047676Y-52619047D01*
X187047676Y-52619047D02*
X186952438Y-52523809D01*
X186952438Y-52523809D02*
X186904819Y-52428571D01*
X187857200Y-51619047D02*
X187904819Y-51476190D01*
X187904819Y-51476190D02*
X187904819Y-51238095D01*
X187904819Y-51238095D02*
X187857200Y-51142857D01*
X187857200Y-51142857D02*
X187809580Y-51095238D01*
X187809580Y-51095238D02*
X187714342Y-51047619D01*
X187714342Y-51047619D02*
X187619104Y-51047619D01*
X187619104Y-51047619D02*
X187523866Y-51095238D01*
X187523866Y-51095238D02*
X187476247Y-51142857D01*
X187476247Y-51142857D02*
X187428628Y-51238095D01*
X187428628Y-51238095D02*
X187381009Y-51428571D01*
X187381009Y-51428571D02*
X187333390Y-51523809D01*
X187333390Y-51523809D02*
X187285771Y-51571428D01*
X187285771Y-51571428D02*
X187190533Y-51619047D01*
X187190533Y-51619047D02*
X187095295Y-51619047D01*
X187095295Y-51619047D02*
X187000057Y-51571428D01*
X187000057Y-51571428D02*
X186952438Y-51523809D01*
X186952438Y-51523809D02*
X186904819Y-51428571D01*
X186904819Y-51428571D02*
X186904819Y-51190476D01*
X186904819Y-51190476D02*
X186952438Y-51047619D01*
X188000057Y-50857143D02*
X188000057Y-50095238D01*
X186952438Y-49333333D02*
X186904819Y-49428571D01*
X186904819Y-49428571D02*
X186904819Y-49571428D01*
X186904819Y-49571428D02*
X186952438Y-49714285D01*
X186952438Y-49714285D02*
X187047676Y-49809523D01*
X187047676Y-49809523D02*
X187142914Y-49857142D01*
X187142914Y-49857142D02*
X187333390Y-49904761D01*
X187333390Y-49904761D02*
X187476247Y-49904761D01*
X187476247Y-49904761D02*
X187666723Y-49857142D01*
X187666723Y-49857142D02*
X187761961Y-49809523D01*
X187761961Y-49809523D02*
X187857200Y-49714285D01*
X187857200Y-49714285D02*
X187904819Y-49571428D01*
X187904819Y-49571428D02*
X187904819Y-49476190D01*
X187904819Y-49476190D02*
X187857200Y-49333333D01*
X187857200Y-49333333D02*
X187809580Y-49285714D01*
X187809580Y-49285714D02*
X187476247Y-49285714D01*
X187476247Y-49285714D02*
X187476247Y-49476190D01*
X187857200Y-48904761D02*
X187904819Y-48761904D01*
X187904819Y-48761904D02*
X187904819Y-48523809D01*
X187904819Y-48523809D02*
X187857200Y-48428571D01*
X187857200Y-48428571D02*
X187809580Y-48380952D01*
X187809580Y-48380952D02*
X187714342Y-48333333D01*
X187714342Y-48333333D02*
X187619104Y-48333333D01*
X187619104Y-48333333D02*
X187523866Y-48380952D01*
X187523866Y-48380952D02*
X187476247Y-48428571D01*
X187476247Y-48428571D02*
X187428628Y-48523809D01*
X187428628Y-48523809D02*
X187381009Y-48714285D01*
X187381009Y-48714285D02*
X187333390Y-48809523D01*
X187333390Y-48809523D02*
X187285771Y-48857142D01*
X187285771Y-48857142D02*
X187190533Y-48904761D01*
X187190533Y-48904761D02*
X187095295Y-48904761D01*
X187095295Y-48904761D02*
X187000057Y-48857142D01*
X187000057Y-48857142D02*
X186952438Y-48809523D01*
X186952438Y-48809523D02*
X186904819Y-48714285D01*
X186904819Y-48714285D02*
X186904819Y-48476190D01*
X186904819Y-48476190D02*
X186952438Y-48333333D01*
X187904819Y-47904761D02*
X186904819Y-47904761D01*
X186904819Y-47904761D02*
X186904819Y-47666666D01*
X186904819Y-47666666D02*
X186952438Y-47523809D01*
X186952438Y-47523809D02*
X187047676Y-47428571D01*
X187047676Y-47428571D02*
X187142914Y-47380952D01*
X187142914Y-47380952D02*
X187333390Y-47333333D01*
X187333390Y-47333333D02*
X187476247Y-47333333D01*
X187476247Y-47333333D02*
X187666723Y-47380952D01*
X187666723Y-47380952D02*
X187761961Y-47428571D01*
X187761961Y-47428571D02*
X187857200Y-47523809D01*
X187857200Y-47523809D02*
X187904819Y-47666666D01*
X187904819Y-47666666D02*
X187904819Y-47904761D01*
D14*
X185125028Y-52047619D02*
X185101219Y-52095238D01*
X185101219Y-52095238D02*
X185053600Y-52142857D01*
X185053600Y-52142857D02*
X184982171Y-52214285D01*
X184982171Y-52214285D02*
X184958361Y-52261904D01*
X184958361Y-52261904D02*
X184958361Y-52309523D01*
X185077409Y-52285714D02*
X185053600Y-52333333D01*
X185053600Y-52333333D02*
X185005980Y-52380952D01*
X185005980Y-52380952D02*
X184910742Y-52404761D01*
X184910742Y-52404761D02*
X184744076Y-52404761D01*
X184744076Y-52404761D02*
X184648838Y-52380952D01*
X184648838Y-52380952D02*
X184601219Y-52333333D01*
X184601219Y-52333333D02*
X184577409Y-52285714D01*
X184577409Y-52285714D02*
X184577409Y-52190476D01*
X184577409Y-52190476D02*
X184601219Y-52142857D01*
X184601219Y-52142857D02*
X184648838Y-52095238D01*
X184648838Y-52095238D02*
X184744076Y-52071428D01*
X184744076Y-52071428D02*
X184910742Y-52071428D01*
X184910742Y-52071428D02*
X185005980Y-52095238D01*
X185005980Y-52095238D02*
X185053600Y-52142857D01*
X185053600Y-52142857D02*
X185077409Y-52190476D01*
X185077409Y-52190476D02*
X185077409Y-52285714D01*
X185077409Y-51595237D02*
X185077409Y-51880951D01*
X185077409Y-51738094D02*
X184577409Y-51738094D01*
X184577409Y-51738094D02*
X184648838Y-51785713D01*
X184648838Y-51785713D02*
X184696457Y-51833332D01*
X184696457Y-51833332D02*
X184720266Y-51880951D01*
D10*
X196578796Y-59250201D02*
X197083872Y-59755277D01*
X197083872Y-59755277D02*
X197151216Y-59889964D01*
X197151216Y-59889964D02*
X197151216Y-60024651D01*
X197151216Y-60024651D02*
X197083872Y-60159338D01*
X197083872Y-60159338D02*
X197016529Y-60226682D01*
X197993010Y-59250201D02*
X197588949Y-59654262D01*
X197790979Y-59452231D02*
X197083872Y-58745124D01*
X197083872Y-58745124D02*
X197117544Y-58913483D01*
X197117544Y-58913483D02*
X197117544Y-59048170D01*
X197117544Y-59048170D02*
X197083872Y-59149185D01*
X194686524Y-46414811D02*
X194282463Y-46010750D01*
X194484493Y-46212781D02*
X195191600Y-45505674D01*
X195191600Y-45505674D02*
X195023241Y-45539346D01*
X195023241Y-45539346D02*
X194888554Y-45539346D01*
X194888554Y-45539346D02*
X194787539Y-45505674D01*
X195831363Y-46145437D02*
X195898707Y-46212781D01*
X195898707Y-46212781D02*
X195932379Y-46313796D01*
X195932379Y-46313796D02*
X195932379Y-46381139D01*
X195932379Y-46381139D02*
X195898707Y-46482155D01*
X195898707Y-46482155D02*
X195797692Y-46650513D01*
X195797692Y-46650513D02*
X195629333Y-46818872D01*
X195629333Y-46818872D02*
X195460974Y-46919887D01*
X195460974Y-46919887D02*
X195359959Y-46953559D01*
X195359959Y-46953559D02*
X195292615Y-46953559D01*
X195292615Y-46953559D02*
X195191600Y-46919887D01*
X195191600Y-46919887D02*
X195124257Y-46852544D01*
X195124257Y-46852544D02*
X195090585Y-46751529D01*
X195090585Y-46751529D02*
X195090585Y-46684185D01*
X195090585Y-46684185D02*
X195124257Y-46583170D01*
X195124257Y-46583170D02*
X195225272Y-46414811D01*
X195225272Y-46414811D02*
X195393631Y-46246452D01*
X195393631Y-46246452D02*
X195561989Y-46145437D01*
X195561989Y-46145437D02*
X195663005Y-46111765D01*
X195663005Y-46111765D02*
X195730348Y-46111765D01*
X195730348Y-46111765D02*
X195831363Y-46145437D01*
X196504798Y-46818872D02*
X196572142Y-46886216D01*
X196572142Y-46886216D02*
X196605814Y-46987231D01*
X196605814Y-46987231D02*
X196605814Y-47054574D01*
X196605814Y-47054574D02*
X196572142Y-47155590D01*
X196572142Y-47155590D02*
X196471127Y-47323948D01*
X196471127Y-47323948D02*
X196302768Y-47492307D01*
X196302768Y-47492307D02*
X196134409Y-47593322D01*
X196134409Y-47593322D02*
X196033394Y-47626994D01*
X196033394Y-47626994D02*
X195966050Y-47626994D01*
X195966050Y-47626994D02*
X195865035Y-47593322D01*
X195865035Y-47593322D02*
X195797692Y-47525979D01*
X195797692Y-47525979D02*
X195764020Y-47424964D01*
X195764020Y-47424964D02*
X195764020Y-47357620D01*
X195764020Y-47357620D02*
X195797692Y-47256605D01*
X195797692Y-47256605D02*
X195898707Y-47088246D01*
X195898707Y-47088246D02*
X196067066Y-46919887D01*
X196067066Y-46919887D02*
X196235424Y-46818872D01*
X196235424Y-46818872D02*
X196336440Y-46785200D01*
X196336440Y-46785200D02*
X196403783Y-46785200D01*
X196403783Y-46785200D02*
X196504798Y-46818872D01*
X196807844Y-47593322D02*
X196336440Y-48064727D01*
X196740501Y-47660666D02*
X196807844Y-47660666D01*
X196807844Y-47660666D02*
X196908860Y-47694338D01*
X196908860Y-47694338D02*
X197009875Y-47795353D01*
X197009875Y-47795353D02*
X197043547Y-47896368D01*
X197043547Y-47896368D02*
X197009875Y-47997383D01*
X197009875Y-47997383D02*
X196639485Y-48367773D01*
X197582295Y-48569803D02*
X197346592Y-48334101D01*
X196976203Y-48704490D02*
X197683310Y-47997384D01*
X197683310Y-47997384D02*
X198020027Y-48334101D01*
D11*
X194702051Y-48360664D02*
X194685215Y-48360664D01*
X194685215Y-48360664D02*
X194651543Y-48343828D01*
X194651543Y-48343828D02*
X194634707Y-48326992D01*
X194634707Y-48326992D02*
X194617872Y-48293321D01*
X194617872Y-48293321D02*
X194617872Y-48259649D01*
X194617872Y-48259649D02*
X194626289Y-48234395D01*
X194626289Y-48234395D02*
X194651543Y-48192305D01*
X194651543Y-48192305D02*
X194676797Y-48167052D01*
X194676797Y-48167052D02*
X194718887Y-48141798D01*
X194718887Y-48141798D02*
X194744141Y-48133380D01*
X194744141Y-48133380D02*
X194777812Y-48133380D01*
X194777812Y-48133380D02*
X194811484Y-48150216D01*
X194811484Y-48150216D02*
X194828320Y-48167052D01*
X194828320Y-48167052D02*
X194845156Y-48200723D01*
X194845156Y-48200723D02*
X194845156Y-48217559D01*
X194853574Y-48545859D02*
X194752559Y-48444843D01*
X194803066Y-48495351D02*
X194979843Y-48318574D01*
X194979843Y-48318574D02*
X194937753Y-48326992D01*
X194937753Y-48326992D02*
X194904081Y-48326992D01*
X194904081Y-48326992D02*
X194878828Y-48318574D01*
X195089276Y-48428007D02*
X195207127Y-48545859D01*
X195207127Y-48545859D02*
X194954589Y-48646874D01*
D10*
X194015661Y-62217619D02*
X194015661Y-62789047D01*
X194015661Y-62503333D02*
X193015661Y-62503333D01*
X193015661Y-62503333D02*
X193158518Y-62598571D01*
X193158518Y-62598571D02*
X193253756Y-62693809D01*
X193253756Y-62693809D02*
X193301375Y-62789047D01*
X193015661Y-61598571D02*
X193015661Y-61503333D01*
X193015661Y-61503333D02*
X193063280Y-61408095D01*
X193063280Y-61408095D02*
X193110899Y-61360476D01*
X193110899Y-61360476D02*
X193206137Y-61312857D01*
X193206137Y-61312857D02*
X193396613Y-61265238D01*
X193396613Y-61265238D02*
X193634708Y-61265238D01*
X193634708Y-61265238D02*
X193825184Y-61312857D01*
X193825184Y-61312857D02*
X193920422Y-61360476D01*
X193920422Y-61360476D02*
X193968042Y-61408095D01*
X193968042Y-61408095D02*
X194015661Y-61503333D01*
X194015661Y-61503333D02*
X194015661Y-61598571D01*
X194015661Y-61598571D02*
X193968042Y-61693809D01*
X193968042Y-61693809D02*
X193920422Y-61741428D01*
X193920422Y-61741428D02*
X193825184Y-61789047D01*
X193825184Y-61789047D02*
X193634708Y-61836666D01*
X193634708Y-61836666D02*
X193396613Y-61836666D01*
X193396613Y-61836666D02*
X193206137Y-61789047D01*
X193206137Y-61789047D02*
X193110899Y-61741428D01*
X193110899Y-61741428D02*
X193063280Y-61693809D01*
X193063280Y-61693809D02*
X193015661Y-61598571D01*
X193015661Y-60646190D02*
X193015661Y-60550952D01*
X193015661Y-60550952D02*
X193063280Y-60455714D01*
X193063280Y-60455714D02*
X193110899Y-60408095D01*
X193110899Y-60408095D02*
X193206137Y-60360476D01*
X193206137Y-60360476D02*
X193396613Y-60312857D01*
X193396613Y-60312857D02*
X193634708Y-60312857D01*
X193634708Y-60312857D02*
X193825184Y-60360476D01*
X193825184Y-60360476D02*
X193920422Y-60408095D01*
X193920422Y-60408095D02*
X193968042Y-60455714D01*
X193968042Y-60455714D02*
X194015661Y-60550952D01*
X194015661Y-60550952D02*
X194015661Y-60646190D01*
X194015661Y-60646190D02*
X193968042Y-60741428D01*
X193968042Y-60741428D02*
X193920422Y-60789047D01*
X193920422Y-60789047D02*
X193825184Y-60836666D01*
X193825184Y-60836666D02*
X193634708Y-60884285D01*
X193634708Y-60884285D02*
X193396613Y-60884285D01*
X193396613Y-60884285D02*
X193206137Y-60836666D01*
X193206137Y-60836666D02*
X193110899Y-60789047D01*
X193110899Y-60789047D02*
X193063280Y-60741428D01*
X193063280Y-60741428D02*
X193015661Y-60646190D01*
X193348994Y-59884285D02*
X194015661Y-59884285D01*
X193444232Y-59884285D02*
X193396613Y-59836666D01*
X193396613Y-59836666D02*
X193348994Y-59741428D01*
X193348994Y-59741428D02*
X193348994Y-59598571D01*
X193348994Y-59598571D02*
X193396613Y-59503333D01*
X193396613Y-59503333D02*
X193491851Y-59455714D01*
X193491851Y-59455714D02*
X194015661Y-59455714D01*
X193491851Y-58646190D02*
X193491851Y-58979523D01*
X194015661Y-58979523D02*
X193015661Y-58979523D01*
X193015661Y-58979523D02*
X193015661Y-58503333D01*
D11*
X191920607Y-60711666D02*
X191932512Y-60723570D01*
X191932512Y-60723570D02*
X191944416Y-60759285D01*
X191944416Y-60759285D02*
X191944416Y-60783094D01*
X191944416Y-60783094D02*
X191932512Y-60818808D01*
X191932512Y-60818808D02*
X191908702Y-60842618D01*
X191908702Y-60842618D02*
X191884892Y-60854523D01*
X191884892Y-60854523D02*
X191837273Y-60866427D01*
X191837273Y-60866427D02*
X191801559Y-60866427D01*
X191801559Y-60866427D02*
X191753940Y-60854523D01*
X191753940Y-60854523D02*
X191730131Y-60842618D01*
X191730131Y-60842618D02*
X191706321Y-60818808D01*
X191706321Y-60818808D02*
X191694416Y-60783094D01*
X191694416Y-60783094D02*
X191694416Y-60759285D01*
X191694416Y-60759285D02*
X191706321Y-60723570D01*
X191706321Y-60723570D02*
X191718226Y-60711666D01*
X191801559Y-60568808D02*
X191789654Y-60592618D01*
X191789654Y-60592618D02*
X191777750Y-60604523D01*
X191777750Y-60604523D02*
X191753940Y-60616427D01*
X191753940Y-60616427D02*
X191742035Y-60616427D01*
X191742035Y-60616427D02*
X191718226Y-60604523D01*
X191718226Y-60604523D02*
X191706321Y-60592618D01*
X191706321Y-60592618D02*
X191694416Y-60568808D01*
X191694416Y-60568808D02*
X191694416Y-60521189D01*
X191694416Y-60521189D02*
X191706321Y-60497380D01*
X191706321Y-60497380D02*
X191718226Y-60485475D01*
X191718226Y-60485475D02*
X191742035Y-60473570D01*
X191742035Y-60473570D02*
X191753940Y-60473570D01*
X191753940Y-60473570D02*
X191777750Y-60485475D01*
X191777750Y-60485475D02*
X191789654Y-60497380D01*
X191789654Y-60497380D02*
X191801559Y-60521189D01*
X191801559Y-60521189D02*
X191801559Y-60568808D01*
X191801559Y-60568808D02*
X191813464Y-60592618D01*
X191813464Y-60592618D02*
X191825369Y-60604523D01*
X191825369Y-60604523D02*
X191849178Y-60616427D01*
X191849178Y-60616427D02*
X191896797Y-60616427D01*
X191896797Y-60616427D02*
X191920607Y-60604523D01*
X191920607Y-60604523D02*
X191932512Y-60592618D01*
X191932512Y-60592618D02*
X191944416Y-60568808D01*
X191944416Y-60568808D02*
X191944416Y-60521189D01*
X191944416Y-60521189D02*
X191932512Y-60497380D01*
X191932512Y-60497380D02*
X191920607Y-60485475D01*
X191920607Y-60485475D02*
X191896797Y-60473570D01*
X191896797Y-60473570D02*
X191849178Y-60473570D01*
X191849178Y-60473570D02*
X191825369Y-60485475D01*
X191825369Y-60485475D02*
X191813464Y-60497380D01*
X191813464Y-60497380D02*
X191801559Y-60521189D01*
D10*
X189234819Y-64693808D02*
X189234819Y-64074761D01*
X189234819Y-64074761D02*
X189615771Y-64408094D01*
X189615771Y-64408094D02*
X189615771Y-64265237D01*
X189615771Y-64265237D02*
X189663390Y-64169999D01*
X189663390Y-64169999D02*
X189711009Y-64122380D01*
X189711009Y-64122380D02*
X189806247Y-64074761D01*
X189806247Y-64074761D02*
X190044342Y-64074761D01*
X190044342Y-64074761D02*
X190139580Y-64122380D01*
X190139580Y-64122380D02*
X190187200Y-64169999D01*
X190187200Y-64169999D02*
X190234819Y-64265237D01*
X190234819Y-64265237D02*
X190234819Y-64550951D01*
X190234819Y-64550951D02*
X190187200Y-64646189D01*
X190187200Y-64646189D02*
X190139580Y-64693808D01*
X190139580Y-63646189D02*
X190187200Y-63598570D01*
X190187200Y-63598570D02*
X190234819Y-63646189D01*
X190234819Y-63646189D02*
X190187200Y-63693808D01*
X190187200Y-63693808D02*
X190139580Y-63646189D01*
X190139580Y-63646189D02*
X190234819Y-63646189D01*
X189234819Y-62741428D02*
X189234819Y-62931904D01*
X189234819Y-62931904D02*
X189282438Y-63027142D01*
X189282438Y-63027142D02*
X189330057Y-63074761D01*
X189330057Y-63074761D02*
X189472914Y-63169999D01*
X189472914Y-63169999D02*
X189663390Y-63217618D01*
X189663390Y-63217618D02*
X190044342Y-63217618D01*
X190044342Y-63217618D02*
X190139580Y-63169999D01*
X190139580Y-63169999D02*
X190187200Y-63122380D01*
X190187200Y-63122380D02*
X190234819Y-63027142D01*
X190234819Y-63027142D02*
X190234819Y-62836666D01*
X190234819Y-62836666D02*
X190187200Y-62741428D01*
X190187200Y-62741428D02*
X190139580Y-62693809D01*
X190139580Y-62693809D02*
X190044342Y-62646190D01*
X190044342Y-62646190D02*
X189806247Y-62646190D01*
X189806247Y-62646190D02*
X189711009Y-62693809D01*
X189711009Y-62693809D02*
X189663390Y-62741428D01*
X189663390Y-62741428D02*
X189615771Y-62836666D01*
X189615771Y-62836666D02*
X189615771Y-63027142D01*
X189615771Y-63027142D02*
X189663390Y-63122380D01*
X189663390Y-63122380D02*
X189711009Y-63169999D01*
X189711009Y-63169999D02*
X189806247Y-63217618D01*
X189568152Y-62217618D02*
X190234819Y-62217618D01*
X189663390Y-62217618D02*
X189615771Y-62169999D01*
X189615771Y-62169999D02*
X189568152Y-62074761D01*
X189568152Y-62074761D02*
X189568152Y-61931904D01*
X189568152Y-61931904D02*
X189615771Y-61836666D01*
X189615771Y-61836666D02*
X189711009Y-61789047D01*
X189711009Y-61789047D02*
X190234819Y-61789047D01*
X190234819Y-61312856D02*
X189234819Y-61312856D01*
X189711009Y-61312856D02*
X189711009Y-60741428D01*
X190234819Y-60741428D02*
X189234819Y-60741428D01*
D11*
X191623574Y-62711666D02*
X191623574Y-62830714D01*
X191623574Y-62830714D02*
X191373574Y-62830714D01*
X191397384Y-62640237D02*
X191385479Y-62628333D01*
X191385479Y-62628333D02*
X191373574Y-62604523D01*
X191373574Y-62604523D02*
X191373574Y-62544999D01*
X191373574Y-62544999D02*
X191385479Y-62521190D01*
X191385479Y-62521190D02*
X191397384Y-62509285D01*
X191397384Y-62509285D02*
X191421193Y-62497380D01*
X191421193Y-62497380D02*
X191445003Y-62497380D01*
X191445003Y-62497380D02*
X191480717Y-62509285D01*
X191480717Y-62509285D02*
X191623574Y-62652142D01*
X191623574Y-62652142D02*
X191623574Y-62497380D01*
D10*
X184125661Y-47194270D02*
X184193005Y-47194270D01*
X184193005Y-47194270D02*
X184294020Y-47227942D01*
X184294020Y-47227942D02*
X184462379Y-47396301D01*
X184462379Y-47396301D02*
X184496051Y-47497316D01*
X184496051Y-47497316D02*
X184496051Y-47564659D01*
X184496051Y-47564659D02*
X184462379Y-47665675D01*
X184462379Y-47665675D02*
X184395035Y-47733018D01*
X184395035Y-47733018D02*
X184260348Y-47800362D01*
X184260348Y-47800362D02*
X183452226Y-47800362D01*
X183452226Y-47800362D02*
X183889959Y-48238094D01*
X184260348Y-48473797D02*
X184260348Y-48541140D01*
X184260348Y-48541140D02*
X184193005Y-48541140D01*
X184193005Y-48541140D02*
X184193005Y-48473797D01*
X184193005Y-48473797D02*
X184260348Y-48473797D01*
X184260348Y-48473797D02*
X184193005Y-48541140D01*
X185135814Y-48204422D02*
X185203157Y-48204422D01*
X185203157Y-48204422D02*
X185304172Y-48238094D01*
X185304172Y-48238094D02*
X185472531Y-48406453D01*
X185472531Y-48406453D02*
X185506203Y-48507468D01*
X185506203Y-48507468D02*
X185506203Y-48574812D01*
X185506203Y-48574812D02*
X185472531Y-48675827D01*
X185472531Y-48675827D02*
X185405188Y-48743170D01*
X185405188Y-48743170D02*
X185270501Y-48810514D01*
X185270501Y-48810514D02*
X184462379Y-48810514D01*
X184462379Y-48810514D02*
X184900111Y-49248247D01*
X185977607Y-49382934D02*
X185506203Y-49854338D01*
X185674562Y-49079888D02*
X185304172Y-49450277D01*
X185304172Y-49450277D02*
X185270501Y-49551292D01*
X185270501Y-49551292D02*
X185304172Y-49652308D01*
X185304172Y-49652308D02*
X185405188Y-49753323D01*
X185405188Y-49753323D02*
X185506203Y-49786995D01*
X185506203Y-49786995D02*
X185573546Y-49786995D01*
X186449012Y-50056369D02*
X186213310Y-49820666D01*
X185842920Y-50191056D02*
X186550027Y-49483949D01*
X186550027Y-49483949D02*
X186886745Y-49820666D01*
D11*
X186183717Y-47568998D02*
X186166881Y-47568998D01*
X186166881Y-47568998D02*
X186133209Y-47552162D01*
X186133209Y-47552162D02*
X186116373Y-47535326D01*
X186116373Y-47535326D02*
X186099538Y-47501655D01*
X186099538Y-47501655D02*
X186099538Y-47467983D01*
X186099538Y-47467983D02*
X186107955Y-47442729D01*
X186107955Y-47442729D02*
X186133209Y-47400639D01*
X186133209Y-47400639D02*
X186158463Y-47375386D01*
X186158463Y-47375386D02*
X186200553Y-47350132D01*
X186200553Y-47350132D02*
X186225807Y-47341714D01*
X186225807Y-47341714D02*
X186259478Y-47341714D01*
X186259478Y-47341714D02*
X186293150Y-47358550D01*
X186293150Y-47358550D02*
X186309986Y-47375386D01*
X186309986Y-47375386D02*
X186326822Y-47409057D01*
X186326822Y-47409057D02*
X186326822Y-47425893D01*
X186394165Y-47493237D02*
X186411001Y-47493237D01*
X186411001Y-47493237D02*
X186436255Y-47501655D01*
X186436255Y-47501655D02*
X186478345Y-47543744D01*
X186478345Y-47543744D02*
X186486763Y-47568998D01*
X186486763Y-47568998D02*
X186486763Y-47585834D01*
X186486763Y-47585834D02*
X186478345Y-47611088D01*
X186478345Y-47611088D02*
X186461509Y-47627924D01*
X186461509Y-47627924D02*
X186427837Y-47644760D01*
X186427837Y-47644760D02*
X186225807Y-47644760D01*
X186225807Y-47644760D02*
X186335240Y-47754193D01*
X186621449Y-47686849D02*
X186638285Y-47703685D01*
X186638285Y-47703685D02*
X186646703Y-47728939D01*
X186646703Y-47728939D02*
X186646703Y-47745775D01*
X186646703Y-47745775D02*
X186638285Y-47771028D01*
X186638285Y-47771028D02*
X186613032Y-47813118D01*
X186613032Y-47813118D02*
X186570942Y-47855208D01*
X186570942Y-47855208D02*
X186528852Y-47880462D01*
X186528852Y-47880462D02*
X186503598Y-47888880D01*
X186503598Y-47888880D02*
X186486762Y-47888880D01*
X186486762Y-47888880D02*
X186461509Y-47880462D01*
X186461509Y-47880462D02*
X186444673Y-47863626D01*
X186444673Y-47863626D02*
X186436255Y-47838372D01*
X186436255Y-47838372D02*
X186436255Y-47821536D01*
X186436255Y-47821536D02*
X186444673Y-47796282D01*
X186444673Y-47796282D02*
X186469927Y-47754193D01*
X186469927Y-47754193D02*
X186512016Y-47712103D01*
X186512016Y-47712103D02*
X186554106Y-47686849D01*
X186554106Y-47686849D02*
X186579360Y-47678431D01*
X186579360Y-47678431D02*
X186596196Y-47678431D01*
X186596196Y-47678431D02*
X186621449Y-47686849D01*
D10*
X190288152Y-68539999D02*
X190954819Y-68539999D01*
X189907200Y-68778094D02*
X190621485Y-69016189D01*
X190621485Y-69016189D02*
X190621485Y-68397142D01*
X190859580Y-68016189D02*
X190907200Y-67968570D01*
X190907200Y-67968570D02*
X190954819Y-68016189D01*
X190954819Y-68016189D02*
X190907200Y-68063808D01*
X190907200Y-68063808D02*
X190859580Y-68016189D01*
X190859580Y-68016189D02*
X190954819Y-68016189D01*
X189954819Y-67635237D02*
X189954819Y-66968571D01*
X189954819Y-66968571D02*
X190954819Y-67397142D01*
X190288152Y-66587618D02*
X190954819Y-66587618D01*
X190383390Y-66587618D02*
X190335771Y-66539999D01*
X190335771Y-66539999D02*
X190288152Y-66444761D01*
X190288152Y-66444761D02*
X190288152Y-66301904D01*
X190288152Y-66301904D02*
X190335771Y-66206666D01*
X190335771Y-66206666D02*
X190431009Y-66159047D01*
X190431009Y-66159047D02*
X190954819Y-66159047D01*
X190954819Y-65682856D02*
X189954819Y-65682856D01*
X190431009Y-65682856D02*
X190431009Y-65111428D01*
X190954819Y-65111428D02*
X189954819Y-65111428D01*
D11*
X188883574Y-67200713D02*
X188883574Y-67319761D01*
X188883574Y-67319761D02*
X188633574Y-67319761D01*
X188883574Y-66986427D02*
X188883574Y-67129284D01*
X188883574Y-67057856D02*
X188633574Y-67057856D01*
X188633574Y-67057856D02*
X188669289Y-67081665D01*
X188669289Y-67081665D02*
X188693098Y-67105475D01*
X188693098Y-67105475D02*
X188705003Y-67129284D01*
X188740717Y-66843570D02*
X188728812Y-66867380D01*
X188728812Y-66867380D02*
X188716908Y-66879285D01*
X188716908Y-66879285D02*
X188693098Y-66891189D01*
X188693098Y-66891189D02*
X188681193Y-66891189D01*
X188681193Y-66891189D02*
X188657384Y-66879285D01*
X188657384Y-66879285D02*
X188645479Y-66867380D01*
X188645479Y-66867380D02*
X188633574Y-66843570D01*
X188633574Y-66843570D02*
X188633574Y-66795951D01*
X188633574Y-66795951D02*
X188645479Y-66772142D01*
X188645479Y-66772142D02*
X188657384Y-66760237D01*
X188657384Y-66760237D02*
X188681193Y-66748332D01*
X188681193Y-66748332D02*
X188693098Y-66748332D01*
X188693098Y-66748332D02*
X188716908Y-66760237D01*
X188716908Y-66760237D02*
X188728812Y-66772142D01*
X188728812Y-66772142D02*
X188740717Y-66795951D01*
X188740717Y-66795951D02*
X188740717Y-66843570D01*
X188740717Y-66843570D02*
X188752622Y-66867380D01*
X188752622Y-66867380D02*
X188764527Y-66879285D01*
X188764527Y-66879285D02*
X188788336Y-66891189D01*
X188788336Y-66891189D02*
X188835955Y-66891189D01*
X188835955Y-66891189D02*
X188859765Y-66879285D01*
X188859765Y-66879285D02*
X188871670Y-66867380D01*
X188871670Y-66867380D02*
X188883574Y-66843570D01*
X188883574Y-66843570D02*
X188883574Y-66795951D01*
X188883574Y-66795951D02*
X188871670Y-66772142D01*
X188871670Y-66772142D02*
X188859765Y-66760237D01*
X188859765Y-66760237D02*
X188835955Y-66748332D01*
X188835955Y-66748332D02*
X188788336Y-66748332D01*
X188788336Y-66748332D02*
X188764527Y-66760237D01*
X188764527Y-66760237D02*
X188752622Y-66772142D01*
X188752622Y-66772142D02*
X188740717Y-66795951D01*
D10*
X168961902Y-56454819D02*
X168961902Y-57169104D01*
X168961902Y-57169104D02*
X168914283Y-57311961D01*
X168914283Y-57311961D02*
X168819045Y-57407200D01*
X168819045Y-57407200D02*
X168676188Y-57454819D01*
X168676188Y-57454819D02*
X168580950Y-57454819D01*
X169866664Y-56788152D02*
X169866664Y-57454819D01*
X169438093Y-56788152D02*
X169438093Y-57311961D01*
X169438093Y-57311961D02*
X169485712Y-57407200D01*
X169485712Y-57407200D02*
X169580950Y-57454819D01*
X169580950Y-57454819D02*
X169723807Y-57454819D01*
X169723807Y-57454819D02*
X169819045Y-57407200D01*
X169819045Y-57407200D02*
X169866664Y-57359580D01*
X170342855Y-57454819D02*
X170342855Y-56788152D01*
X170342855Y-56883390D02*
X170390474Y-56835771D01*
X170390474Y-56835771D02*
X170485712Y-56788152D01*
X170485712Y-56788152D02*
X170628569Y-56788152D01*
X170628569Y-56788152D02*
X170723807Y-56835771D01*
X170723807Y-56835771D02*
X170771426Y-56931009D01*
X170771426Y-56931009D02*
X170771426Y-57454819D01*
X170771426Y-56931009D02*
X170819045Y-56835771D01*
X170819045Y-56835771D02*
X170914283Y-56788152D01*
X170914283Y-56788152D02*
X171057140Y-56788152D01*
X171057140Y-56788152D02*
X171152379Y-56835771D01*
X171152379Y-56835771D02*
X171199998Y-56931009D01*
X171199998Y-56931009D02*
X171199998Y-57454819D01*
X171676188Y-56788152D02*
X171676188Y-57788152D01*
X171676188Y-56835771D02*
X171771426Y-56788152D01*
X171771426Y-56788152D02*
X171961902Y-56788152D01*
X171961902Y-56788152D02*
X172057140Y-56835771D01*
X172057140Y-56835771D02*
X172104759Y-56883390D01*
X172104759Y-56883390D02*
X172152378Y-56978628D01*
X172152378Y-56978628D02*
X172152378Y-57264342D01*
X172152378Y-57264342D02*
X172104759Y-57359580D01*
X172104759Y-57359580D02*
X172057140Y-57407200D01*
X172057140Y-57407200D02*
X171961902Y-57454819D01*
X171961902Y-57454819D02*
X171771426Y-57454819D01*
X171771426Y-57454819D02*
X171676188Y-57407200D01*
X172961902Y-57407200D02*
X172866664Y-57454819D01*
X172866664Y-57454819D02*
X172676188Y-57454819D01*
X172676188Y-57454819D02*
X172580950Y-57407200D01*
X172580950Y-57407200D02*
X172533331Y-57311961D01*
X172533331Y-57311961D02*
X172533331Y-56931009D01*
X172533331Y-56931009D02*
X172580950Y-56835771D01*
X172580950Y-56835771D02*
X172676188Y-56788152D01*
X172676188Y-56788152D02*
X172866664Y-56788152D01*
X172866664Y-56788152D02*
X172961902Y-56835771D01*
X172961902Y-56835771D02*
X173009521Y-56931009D01*
X173009521Y-56931009D02*
X173009521Y-57026247D01*
X173009521Y-57026247D02*
X172533331Y-57121485D01*
X173438093Y-57454819D02*
X173438093Y-56788152D01*
X173438093Y-56978628D02*
X173485712Y-56883390D01*
X173485712Y-56883390D02*
X173533331Y-56835771D01*
X173533331Y-56835771D02*
X173628569Y-56788152D01*
X173628569Y-56788152D02*
X173723807Y-56788152D01*
X173819046Y-57550057D02*
X174580950Y-57550057D01*
X174771427Y-56550057D02*
X174819046Y-56502438D01*
X174819046Y-56502438D02*
X174914284Y-56454819D01*
X174914284Y-56454819D02*
X175152379Y-56454819D01*
X175152379Y-56454819D02*
X175247617Y-56502438D01*
X175247617Y-56502438D02*
X175295236Y-56550057D01*
X175295236Y-56550057D02*
X175342855Y-56645295D01*
X175342855Y-56645295D02*
X175342855Y-56740533D01*
X175342855Y-56740533D02*
X175295236Y-56883390D01*
X175295236Y-56883390D02*
X174723808Y-57454819D01*
X174723808Y-57454819D02*
X175342855Y-57454819D01*
X175533332Y-57550057D02*
X176295236Y-57550057D01*
X176485713Y-57407200D02*
X176628570Y-57454819D01*
X176628570Y-57454819D02*
X176866665Y-57454819D01*
X176866665Y-57454819D02*
X176961903Y-57407200D01*
X176961903Y-57407200D02*
X177009522Y-57359580D01*
X177009522Y-57359580D02*
X177057141Y-57264342D01*
X177057141Y-57264342D02*
X177057141Y-57169104D01*
X177057141Y-57169104D02*
X177009522Y-57073866D01*
X177009522Y-57073866D02*
X176961903Y-57026247D01*
X176961903Y-57026247D02*
X176866665Y-56978628D01*
X176866665Y-56978628D02*
X176676189Y-56931009D01*
X176676189Y-56931009D02*
X176580951Y-56883390D01*
X176580951Y-56883390D02*
X176533332Y-56835771D01*
X176533332Y-56835771D02*
X176485713Y-56740533D01*
X176485713Y-56740533D02*
X176485713Y-56645295D01*
X176485713Y-56645295D02*
X176533332Y-56550057D01*
X176533332Y-56550057D02*
X176580951Y-56502438D01*
X176580951Y-56502438D02*
X176676189Y-56454819D01*
X176676189Y-56454819D02*
X176914284Y-56454819D01*
X176914284Y-56454819D02*
X177057141Y-56502438D01*
X177485713Y-57454819D02*
X177485713Y-56788152D01*
X177485713Y-56883390D02*
X177533332Y-56835771D01*
X177533332Y-56835771D02*
X177628570Y-56788152D01*
X177628570Y-56788152D02*
X177771427Y-56788152D01*
X177771427Y-56788152D02*
X177866665Y-56835771D01*
X177866665Y-56835771D02*
X177914284Y-56931009D01*
X177914284Y-56931009D02*
X177914284Y-57454819D01*
X177914284Y-56931009D02*
X177961903Y-56835771D01*
X177961903Y-56835771D02*
X178057141Y-56788152D01*
X178057141Y-56788152D02*
X178199998Y-56788152D01*
X178199998Y-56788152D02*
X178295237Y-56835771D01*
X178295237Y-56835771D02*
X178342856Y-56931009D01*
X178342856Y-56931009D02*
X178342856Y-57454819D01*
X179247617Y-57454819D02*
X179247617Y-56931009D01*
X179247617Y-56931009D02*
X179199998Y-56835771D01*
X179199998Y-56835771D02*
X179104760Y-56788152D01*
X179104760Y-56788152D02*
X178914284Y-56788152D01*
X178914284Y-56788152D02*
X178819046Y-56835771D01*
X179247617Y-57407200D02*
X179152379Y-57454819D01*
X179152379Y-57454819D02*
X178914284Y-57454819D01*
X178914284Y-57454819D02*
X178819046Y-57407200D01*
X178819046Y-57407200D02*
X178771427Y-57311961D01*
X178771427Y-57311961D02*
X178771427Y-57216723D01*
X178771427Y-57216723D02*
X178819046Y-57121485D01*
X178819046Y-57121485D02*
X178914284Y-57073866D01*
X178914284Y-57073866D02*
X179152379Y-57073866D01*
X179152379Y-57073866D02*
X179247617Y-57026247D01*
X179866665Y-57454819D02*
X179771427Y-57407200D01*
X179771427Y-57407200D02*
X179723808Y-57311961D01*
X179723808Y-57311961D02*
X179723808Y-56454819D01*
X180390475Y-57454819D02*
X180295237Y-57407200D01*
X180295237Y-57407200D02*
X180247618Y-57311961D01*
X180247618Y-57311961D02*
X180247618Y-56454819D01*
X180533333Y-57550057D02*
X181295237Y-57550057D01*
X181866666Y-56931009D02*
X182009523Y-56978628D01*
X182009523Y-56978628D02*
X182057142Y-57026247D01*
X182057142Y-57026247D02*
X182104761Y-57121485D01*
X182104761Y-57121485D02*
X182104761Y-57264342D01*
X182104761Y-57264342D02*
X182057142Y-57359580D01*
X182057142Y-57359580D02*
X182009523Y-57407200D01*
X182009523Y-57407200D02*
X181914285Y-57454819D01*
X181914285Y-57454819D02*
X181533333Y-57454819D01*
X181533333Y-57454819D02*
X181533333Y-56454819D01*
X181533333Y-56454819D02*
X181866666Y-56454819D01*
X181866666Y-56454819D02*
X181961904Y-56502438D01*
X181961904Y-56502438D02*
X182009523Y-56550057D01*
X182009523Y-56550057D02*
X182057142Y-56645295D01*
X182057142Y-56645295D02*
X182057142Y-56740533D01*
X182057142Y-56740533D02*
X182009523Y-56835771D01*
X182009523Y-56835771D02*
X181961904Y-56883390D01*
X181961904Y-56883390D02*
X181866666Y-56931009D01*
X181866666Y-56931009D02*
X181533333Y-56931009D01*
X182533333Y-57454819D02*
X182533333Y-56788152D01*
X182533333Y-56978628D02*
X182580952Y-56883390D01*
X182580952Y-56883390D02*
X182628571Y-56835771D01*
X182628571Y-56835771D02*
X182723809Y-56788152D01*
X182723809Y-56788152D02*
X182819047Y-56788152D01*
X183152381Y-57454819D02*
X183152381Y-56788152D01*
X183152381Y-56454819D02*
X183104762Y-56502438D01*
X183104762Y-56502438D02*
X183152381Y-56550057D01*
X183152381Y-56550057D02*
X183200000Y-56502438D01*
X183200000Y-56502438D02*
X183152381Y-56454819D01*
X183152381Y-56454819D02*
X183152381Y-56550057D01*
X184057142Y-57454819D02*
X184057142Y-56454819D01*
X184057142Y-57407200D02*
X183961904Y-57454819D01*
X183961904Y-57454819D02*
X183771428Y-57454819D01*
X183771428Y-57454819D02*
X183676190Y-57407200D01*
X183676190Y-57407200D02*
X183628571Y-57359580D01*
X183628571Y-57359580D02*
X183580952Y-57264342D01*
X183580952Y-57264342D02*
X183580952Y-56978628D01*
X183580952Y-56978628D02*
X183628571Y-56883390D01*
X183628571Y-56883390D02*
X183676190Y-56835771D01*
X183676190Y-56835771D02*
X183771428Y-56788152D01*
X183771428Y-56788152D02*
X183961904Y-56788152D01*
X183961904Y-56788152D02*
X184057142Y-56835771D01*
X184961904Y-56788152D02*
X184961904Y-57597676D01*
X184961904Y-57597676D02*
X184914285Y-57692914D01*
X184914285Y-57692914D02*
X184866666Y-57740533D01*
X184866666Y-57740533D02*
X184771428Y-57788152D01*
X184771428Y-57788152D02*
X184628571Y-57788152D01*
X184628571Y-57788152D02*
X184533333Y-57740533D01*
X184961904Y-57407200D02*
X184866666Y-57454819D01*
X184866666Y-57454819D02*
X184676190Y-57454819D01*
X184676190Y-57454819D02*
X184580952Y-57407200D01*
X184580952Y-57407200D02*
X184533333Y-57359580D01*
X184533333Y-57359580D02*
X184485714Y-57264342D01*
X184485714Y-57264342D02*
X184485714Y-56978628D01*
X184485714Y-56978628D02*
X184533333Y-56883390D01*
X184533333Y-56883390D02*
X184580952Y-56835771D01*
X184580952Y-56835771D02*
X184676190Y-56788152D01*
X184676190Y-56788152D02*
X184866666Y-56788152D01*
X184866666Y-56788152D02*
X184961904Y-56835771D01*
X185819047Y-57407200D02*
X185723809Y-57454819D01*
X185723809Y-57454819D02*
X185533333Y-57454819D01*
X185533333Y-57454819D02*
X185438095Y-57407200D01*
X185438095Y-57407200D02*
X185390476Y-57311961D01*
X185390476Y-57311961D02*
X185390476Y-56931009D01*
X185390476Y-56931009D02*
X185438095Y-56835771D01*
X185438095Y-56835771D02*
X185533333Y-56788152D01*
X185533333Y-56788152D02*
X185723809Y-56788152D01*
X185723809Y-56788152D02*
X185819047Y-56835771D01*
X185819047Y-56835771D02*
X185866666Y-56931009D01*
X185866666Y-56931009D02*
X185866666Y-57026247D01*
X185866666Y-57026247D02*
X185390476Y-57121485D01*
X186723809Y-57454819D02*
X186723809Y-56454819D01*
X186723809Y-57407200D02*
X186628571Y-57454819D01*
X186628571Y-57454819D02*
X186438095Y-57454819D01*
X186438095Y-57454819D02*
X186342857Y-57407200D01*
X186342857Y-57407200D02*
X186295238Y-57359580D01*
X186295238Y-57359580D02*
X186247619Y-57264342D01*
X186247619Y-57264342D02*
X186247619Y-56978628D01*
X186247619Y-56978628D02*
X186295238Y-56883390D01*
X186295238Y-56883390D02*
X186342857Y-56835771D01*
X186342857Y-56835771D02*
X186438095Y-56788152D01*
X186438095Y-56788152D02*
X186628571Y-56788152D01*
X186628571Y-56788152D02*
X186723809Y-56835771D01*
X183294819Y-59265238D02*
X183294819Y-59836666D01*
X183294819Y-59550952D02*
X182294819Y-59550952D01*
X182294819Y-59550952D02*
X182437676Y-59646190D01*
X182437676Y-59646190D02*
X182532914Y-59741428D01*
X182532914Y-59741428D02*
X182580533Y-59836666D01*
X182294819Y-58646190D02*
X182294819Y-58550952D01*
X182294819Y-58550952D02*
X182342438Y-58455714D01*
X182342438Y-58455714D02*
X182390057Y-58408095D01*
X182390057Y-58408095D02*
X182485295Y-58360476D01*
X182485295Y-58360476D02*
X182675771Y-58312857D01*
X182675771Y-58312857D02*
X182913866Y-58312857D01*
X182913866Y-58312857D02*
X183104342Y-58360476D01*
X183104342Y-58360476D02*
X183199580Y-58408095D01*
X183199580Y-58408095D02*
X183247200Y-58455714D01*
X183247200Y-58455714D02*
X183294819Y-58550952D01*
X183294819Y-58550952D02*
X183294819Y-58646190D01*
X183294819Y-58646190D02*
X183247200Y-58741428D01*
X183247200Y-58741428D02*
X183199580Y-58789047D01*
X183199580Y-58789047D02*
X183104342Y-58836666D01*
X183104342Y-58836666D02*
X182913866Y-58884285D01*
X182913866Y-58884285D02*
X182675771Y-58884285D01*
X182675771Y-58884285D02*
X182485295Y-58836666D01*
X182485295Y-58836666D02*
X182390057Y-58789047D01*
X182390057Y-58789047D02*
X182342438Y-58741428D01*
X182342438Y-58741428D02*
X182294819Y-58646190D01*
X183294819Y-57884285D02*
X182294819Y-57884285D01*
X182913866Y-57789047D02*
X183294819Y-57503333D01*
X182628152Y-57503333D02*
X183009104Y-57884285D01*
X183294819Y-56503333D02*
X182818628Y-56836666D01*
X183294819Y-57074761D02*
X182294819Y-57074761D01*
X182294819Y-57074761D02*
X182294819Y-56693809D01*
X182294819Y-56693809D02*
X182342438Y-56598571D01*
X182342438Y-56598571D02*
X182390057Y-56550952D01*
X182390057Y-56550952D02*
X182485295Y-56503333D01*
X182485295Y-56503333D02*
X182628152Y-56503333D01*
X182628152Y-56503333D02*
X182723390Y-56550952D01*
X182723390Y-56550952D02*
X182771009Y-56598571D01*
X182771009Y-56598571D02*
X182818628Y-56693809D01*
X182818628Y-56693809D02*
X182818628Y-57074761D01*
D11*
X184683574Y-58211666D02*
X184564527Y-58294999D01*
X184683574Y-58354523D02*
X184433574Y-58354523D01*
X184433574Y-58354523D02*
X184433574Y-58259285D01*
X184433574Y-58259285D02*
X184445479Y-58235475D01*
X184445479Y-58235475D02*
X184457384Y-58223570D01*
X184457384Y-58223570D02*
X184481193Y-58211666D01*
X184481193Y-58211666D02*
X184516908Y-58211666D01*
X184516908Y-58211666D02*
X184540717Y-58223570D01*
X184540717Y-58223570D02*
X184552622Y-58235475D01*
X184552622Y-58235475D02*
X184564527Y-58259285D01*
X184564527Y-58259285D02*
X184564527Y-58354523D01*
X184457384Y-58116427D02*
X184445479Y-58104523D01*
X184445479Y-58104523D02*
X184433574Y-58080713D01*
X184433574Y-58080713D02*
X184433574Y-58021189D01*
X184433574Y-58021189D02*
X184445479Y-57997380D01*
X184445479Y-57997380D02*
X184457384Y-57985475D01*
X184457384Y-57985475D02*
X184481193Y-57973570D01*
X184481193Y-57973570D02*
X184505003Y-57973570D01*
X184505003Y-57973570D02*
X184540717Y-57985475D01*
X184540717Y-57985475D02*
X184683574Y-58128332D01*
X184683574Y-58128332D02*
X184683574Y-57973570D01*
D10*
X186952381Y-57957200D02*
X187095238Y-58004819D01*
X187095238Y-58004819D02*
X187333333Y-58004819D01*
X187333333Y-58004819D02*
X187428571Y-57957200D01*
X187428571Y-57957200D02*
X187476190Y-57909580D01*
X187476190Y-57909580D02*
X187523809Y-57814342D01*
X187523809Y-57814342D02*
X187523809Y-57719104D01*
X187523809Y-57719104D02*
X187476190Y-57623866D01*
X187476190Y-57623866D02*
X187428571Y-57576247D01*
X187428571Y-57576247D02*
X187333333Y-57528628D01*
X187333333Y-57528628D02*
X187142857Y-57481009D01*
X187142857Y-57481009D02*
X187047619Y-57433390D01*
X187047619Y-57433390D02*
X187000000Y-57385771D01*
X187000000Y-57385771D02*
X186952381Y-57290533D01*
X186952381Y-57290533D02*
X186952381Y-57195295D01*
X186952381Y-57195295D02*
X187000000Y-57100057D01*
X187000000Y-57100057D02*
X187047619Y-57052438D01*
X187047619Y-57052438D02*
X187142857Y-57004819D01*
X187142857Y-57004819D02*
X187380952Y-57004819D01*
X187380952Y-57004819D02*
X187523809Y-57052438D01*
X187857143Y-57004819D02*
X188095238Y-58004819D01*
X188095238Y-58004819D02*
X188285714Y-57290533D01*
X188285714Y-57290533D02*
X188476190Y-58004819D01*
X188476190Y-58004819D02*
X188714286Y-57004819D01*
X188857143Y-58100057D02*
X189619047Y-58100057D01*
X189857143Y-58004819D02*
X189857143Y-57004819D01*
X189857143Y-57004819D02*
X190238095Y-57004819D01*
X190238095Y-57004819D02*
X190333333Y-57052438D01*
X190333333Y-57052438D02*
X190380952Y-57100057D01*
X190380952Y-57100057D02*
X190428571Y-57195295D01*
X190428571Y-57195295D02*
X190428571Y-57338152D01*
X190428571Y-57338152D02*
X190380952Y-57433390D01*
X190380952Y-57433390D02*
X190333333Y-57481009D01*
X190333333Y-57481009D02*
X190238095Y-57528628D01*
X190238095Y-57528628D02*
X189857143Y-57528628D01*
X191285714Y-57338152D02*
X191285714Y-58004819D01*
X190857143Y-57338152D02*
X190857143Y-57861961D01*
X190857143Y-57861961D02*
X190904762Y-57957200D01*
X190904762Y-57957200D02*
X191000000Y-58004819D01*
X191000000Y-58004819D02*
X191142857Y-58004819D01*
X191142857Y-58004819D02*
X191238095Y-57957200D01*
X191238095Y-57957200D02*
X191285714Y-57909580D01*
X191714286Y-57957200D02*
X191809524Y-58004819D01*
X191809524Y-58004819D02*
X192000000Y-58004819D01*
X192000000Y-58004819D02*
X192095238Y-57957200D01*
X192095238Y-57957200D02*
X192142857Y-57861961D01*
X192142857Y-57861961D02*
X192142857Y-57814342D01*
X192142857Y-57814342D02*
X192095238Y-57719104D01*
X192095238Y-57719104D02*
X192000000Y-57671485D01*
X192000000Y-57671485D02*
X191857143Y-57671485D01*
X191857143Y-57671485D02*
X191761905Y-57623866D01*
X191761905Y-57623866D02*
X191714286Y-57528628D01*
X191714286Y-57528628D02*
X191714286Y-57481009D01*
X191714286Y-57481009D02*
X191761905Y-57385771D01*
X191761905Y-57385771D02*
X191857143Y-57338152D01*
X191857143Y-57338152D02*
X192000000Y-57338152D01*
X192000000Y-57338152D02*
X192095238Y-57385771D01*
X192571429Y-58004819D02*
X192571429Y-57004819D01*
X193000000Y-58004819D02*
X193000000Y-57481009D01*
X193000000Y-57481009D02*
X192952381Y-57385771D01*
X192952381Y-57385771D02*
X192857143Y-57338152D01*
X192857143Y-57338152D02*
X192714286Y-57338152D01*
X192714286Y-57338152D02*
X192619048Y-57385771D01*
X192619048Y-57385771D02*
X192571429Y-57433390D01*
X188716667Y-55407200D02*
X188859524Y-55454819D01*
X188859524Y-55454819D02*
X189097619Y-55454819D01*
X189097619Y-55454819D02*
X189192857Y-55407200D01*
X189192857Y-55407200D02*
X189240476Y-55359580D01*
X189240476Y-55359580D02*
X189288095Y-55264342D01*
X189288095Y-55264342D02*
X189288095Y-55169104D01*
X189288095Y-55169104D02*
X189240476Y-55073866D01*
X189240476Y-55073866D02*
X189192857Y-55026247D01*
X189192857Y-55026247D02*
X189097619Y-54978628D01*
X189097619Y-54978628D02*
X188907143Y-54931009D01*
X188907143Y-54931009D02*
X188811905Y-54883390D01*
X188811905Y-54883390D02*
X188764286Y-54835771D01*
X188764286Y-54835771D02*
X188716667Y-54740533D01*
X188716667Y-54740533D02*
X188716667Y-54645295D01*
X188716667Y-54645295D02*
X188764286Y-54550057D01*
X188764286Y-54550057D02*
X188811905Y-54502438D01*
X188811905Y-54502438D02*
X188907143Y-54454819D01*
X188907143Y-54454819D02*
X189145238Y-54454819D01*
X189145238Y-54454819D02*
X189288095Y-54502438D01*
X189621429Y-54454819D02*
X189859524Y-55454819D01*
X189859524Y-55454819D02*
X190050000Y-54740533D01*
X190050000Y-54740533D02*
X190240476Y-55454819D01*
X190240476Y-55454819D02*
X190478572Y-54454819D01*
X191383333Y-55454819D02*
X190811905Y-55454819D01*
X191097619Y-55454819D02*
X191097619Y-54454819D01*
X191097619Y-54454819D02*
X191002381Y-54597676D01*
X191002381Y-54597676D02*
X190907143Y-54692914D01*
X190907143Y-54692914D02*
X190811905Y-54740533D01*
X189200476Y-62974819D02*
X188629048Y-62974819D01*
X188914762Y-62974819D02*
X188914762Y-61974819D01*
X188914762Y-61974819D02*
X188819524Y-62117676D01*
X188819524Y-62117676D02*
X188724286Y-62212914D01*
X188724286Y-62212914D02*
X188629048Y-62260533D01*
X189629048Y-62879580D02*
X189676667Y-62927200D01*
X189676667Y-62927200D02*
X189629048Y-62974819D01*
X189629048Y-62974819D02*
X189581429Y-62927200D01*
X189581429Y-62927200D02*
X189629048Y-62879580D01*
X189629048Y-62879580D02*
X189629048Y-62974819D01*
X190057619Y-62070057D02*
X190105238Y-62022438D01*
X190105238Y-62022438D02*
X190200476Y-61974819D01*
X190200476Y-61974819D02*
X190438571Y-61974819D01*
X190438571Y-61974819D02*
X190533809Y-62022438D01*
X190533809Y-62022438D02*
X190581428Y-62070057D01*
X190581428Y-62070057D02*
X190629047Y-62165295D01*
X190629047Y-62165295D02*
X190629047Y-62260533D01*
X190629047Y-62260533D02*
X190581428Y-62403390D01*
X190581428Y-62403390D02*
X190010000Y-62974819D01*
X190010000Y-62974819D02*
X190629047Y-62974819D01*
X191057619Y-62308152D02*
X191057619Y-63308152D01*
X191057619Y-62355771D02*
X191152857Y-62308152D01*
X191152857Y-62308152D02*
X191343333Y-62308152D01*
X191343333Y-62308152D02*
X191438571Y-62355771D01*
X191438571Y-62355771D02*
X191486190Y-62403390D01*
X191486190Y-62403390D02*
X191533809Y-62498628D01*
X191533809Y-62498628D02*
X191533809Y-62784342D01*
X191533809Y-62784342D02*
X191486190Y-62879580D01*
X191486190Y-62879580D02*
X191438571Y-62927200D01*
X191438571Y-62927200D02*
X191343333Y-62974819D01*
X191343333Y-62974819D02*
X191152857Y-62974819D01*
X191152857Y-62974819D02*
X191057619Y-62927200D01*
X192295714Y-62451009D02*
X191962381Y-62451009D01*
X191962381Y-62974819D02*
X191962381Y-61974819D01*
X191962381Y-61974819D02*
X192438571Y-61974819D01*
D11*
X190468333Y-64339765D02*
X190456429Y-64351670D01*
X190456429Y-64351670D02*
X190420714Y-64363574D01*
X190420714Y-64363574D02*
X190396905Y-64363574D01*
X190396905Y-64363574D02*
X190361191Y-64351670D01*
X190361191Y-64351670D02*
X190337381Y-64327860D01*
X190337381Y-64327860D02*
X190325476Y-64304050D01*
X190325476Y-64304050D02*
X190313572Y-64256431D01*
X190313572Y-64256431D02*
X190313572Y-64220717D01*
X190313572Y-64220717D02*
X190325476Y-64173098D01*
X190325476Y-64173098D02*
X190337381Y-64149289D01*
X190337381Y-64149289D02*
X190361191Y-64125479D01*
X190361191Y-64125479D02*
X190396905Y-64113574D01*
X190396905Y-64113574D02*
X190420714Y-64113574D01*
X190420714Y-64113574D02*
X190456429Y-64125479D01*
X190456429Y-64125479D02*
X190468333Y-64137384D01*
X190682619Y-64113574D02*
X190635000Y-64113574D01*
X190635000Y-64113574D02*
X190611191Y-64125479D01*
X190611191Y-64125479D02*
X190599286Y-64137384D01*
X190599286Y-64137384D02*
X190575476Y-64173098D01*
X190575476Y-64173098D02*
X190563572Y-64220717D01*
X190563572Y-64220717D02*
X190563572Y-64315955D01*
X190563572Y-64315955D02*
X190575476Y-64339765D01*
X190575476Y-64339765D02*
X190587381Y-64351670D01*
X190587381Y-64351670D02*
X190611191Y-64363574D01*
X190611191Y-64363574D02*
X190658810Y-64363574D01*
X190658810Y-64363574D02*
X190682619Y-64351670D01*
X190682619Y-64351670D02*
X190694524Y-64339765D01*
X190694524Y-64339765D02*
X190706429Y-64315955D01*
X190706429Y-64315955D02*
X190706429Y-64256431D01*
X190706429Y-64256431D02*
X190694524Y-64232622D01*
X190694524Y-64232622D02*
X190682619Y-64220717D01*
X190682619Y-64220717D02*
X190658810Y-64208812D01*
X190658810Y-64208812D02*
X190611191Y-64208812D01*
X190611191Y-64208812D02*
X190587381Y-64220717D01*
X190587381Y-64220717D02*
X190575476Y-64232622D01*
X190575476Y-64232622D02*
X190563572Y-64256431D01*
D10*
X189200476Y-64774819D02*
X188629048Y-64774819D01*
X188914762Y-64774819D02*
X188914762Y-63774819D01*
X188914762Y-63774819D02*
X188819524Y-63917676D01*
X188819524Y-63917676D02*
X188724286Y-64012914D01*
X188724286Y-64012914D02*
X188629048Y-64060533D01*
X189629048Y-64679580D02*
X189676667Y-64727200D01*
X189676667Y-64727200D02*
X189629048Y-64774819D01*
X189629048Y-64774819D02*
X189581429Y-64727200D01*
X189581429Y-64727200D02*
X189629048Y-64679580D01*
X189629048Y-64679580D02*
X189629048Y-64774819D01*
X190057619Y-63870057D02*
X190105238Y-63822438D01*
X190105238Y-63822438D02*
X190200476Y-63774819D01*
X190200476Y-63774819D02*
X190438571Y-63774819D01*
X190438571Y-63774819D02*
X190533809Y-63822438D01*
X190533809Y-63822438D02*
X190581428Y-63870057D01*
X190581428Y-63870057D02*
X190629047Y-63965295D01*
X190629047Y-63965295D02*
X190629047Y-64060533D01*
X190629047Y-64060533D02*
X190581428Y-64203390D01*
X190581428Y-64203390D02*
X190010000Y-64774819D01*
X190010000Y-64774819D02*
X190629047Y-64774819D01*
X191057619Y-64108152D02*
X191057619Y-65108152D01*
X191057619Y-64155771D02*
X191152857Y-64108152D01*
X191152857Y-64108152D02*
X191343333Y-64108152D01*
X191343333Y-64108152D02*
X191438571Y-64155771D01*
X191438571Y-64155771D02*
X191486190Y-64203390D01*
X191486190Y-64203390D02*
X191533809Y-64298628D01*
X191533809Y-64298628D02*
X191533809Y-64584342D01*
X191533809Y-64584342D02*
X191486190Y-64679580D01*
X191486190Y-64679580D02*
X191438571Y-64727200D01*
X191438571Y-64727200D02*
X191343333Y-64774819D01*
X191343333Y-64774819D02*
X191152857Y-64774819D01*
X191152857Y-64774819D02*
X191057619Y-64727200D01*
X192295714Y-64251009D02*
X191962381Y-64251009D01*
X191962381Y-64774819D02*
X191962381Y-63774819D01*
X191962381Y-63774819D02*
X192438571Y-63774819D01*
D11*
X190468333Y-66139765D02*
X190456429Y-66151670D01*
X190456429Y-66151670D02*
X190420714Y-66163574D01*
X190420714Y-66163574D02*
X190396905Y-66163574D01*
X190396905Y-66163574D02*
X190361191Y-66151670D01*
X190361191Y-66151670D02*
X190337381Y-66127860D01*
X190337381Y-66127860D02*
X190325476Y-66104050D01*
X190325476Y-66104050D02*
X190313572Y-66056431D01*
X190313572Y-66056431D02*
X190313572Y-66020717D01*
X190313572Y-66020717D02*
X190325476Y-65973098D01*
X190325476Y-65973098D02*
X190337381Y-65949289D01*
X190337381Y-65949289D02*
X190361191Y-65925479D01*
X190361191Y-65925479D02*
X190396905Y-65913574D01*
X190396905Y-65913574D02*
X190420714Y-65913574D01*
X190420714Y-65913574D02*
X190456429Y-65925479D01*
X190456429Y-65925479D02*
X190468333Y-65937384D01*
X190587381Y-66163574D02*
X190635000Y-66163574D01*
X190635000Y-66163574D02*
X190658810Y-66151670D01*
X190658810Y-66151670D02*
X190670714Y-66139765D01*
X190670714Y-66139765D02*
X190694524Y-66104050D01*
X190694524Y-66104050D02*
X190706429Y-66056431D01*
X190706429Y-66056431D02*
X190706429Y-65961193D01*
X190706429Y-65961193D02*
X190694524Y-65937384D01*
X190694524Y-65937384D02*
X190682619Y-65925479D01*
X190682619Y-65925479D02*
X190658810Y-65913574D01*
X190658810Y-65913574D02*
X190611191Y-65913574D01*
X190611191Y-65913574D02*
X190587381Y-65925479D01*
X190587381Y-65925479D02*
X190575476Y-65937384D01*
X190575476Y-65937384D02*
X190563572Y-65961193D01*
X190563572Y-65961193D02*
X190563572Y-66020717D01*
X190563572Y-66020717D02*
X190575476Y-66044527D01*
X190575476Y-66044527D02*
X190587381Y-66056431D01*
X190587381Y-66056431D02*
X190611191Y-66068336D01*
X190611191Y-66068336D02*
X190658810Y-66068336D01*
X190658810Y-66068336D02*
X190682619Y-66056431D01*
X190682619Y-66056431D02*
X190694524Y-66044527D01*
X190694524Y-66044527D02*
X190706429Y-66020717D01*
D10*
X189568152Y-65969999D02*
X190234819Y-65969999D01*
X189187200Y-66208094D02*
X189901485Y-66446189D01*
X189901485Y-66446189D02*
X189901485Y-65827142D01*
X190139580Y-65446189D02*
X190187200Y-65398570D01*
X190187200Y-65398570D02*
X190234819Y-65446189D01*
X190234819Y-65446189D02*
X190187200Y-65493808D01*
X190187200Y-65493808D02*
X190139580Y-65446189D01*
X190139580Y-65446189D02*
X190234819Y-65446189D01*
X189234819Y-65065237D02*
X189234819Y-64398571D01*
X189234819Y-64398571D02*
X190234819Y-64827142D01*
X189568152Y-64017618D02*
X190234819Y-64017618D01*
X189663390Y-64017618D02*
X189615771Y-63969999D01*
X189615771Y-63969999D02*
X189568152Y-63874761D01*
X189568152Y-63874761D02*
X189568152Y-63731904D01*
X189568152Y-63731904D02*
X189615771Y-63636666D01*
X189615771Y-63636666D02*
X189711009Y-63589047D01*
X189711009Y-63589047D02*
X190234819Y-63589047D01*
X190234819Y-63112856D02*
X189234819Y-63112856D01*
X189711009Y-63112856D02*
X189711009Y-62541428D01*
X190234819Y-62541428D02*
X189234819Y-62541428D01*
D11*
X191623574Y-64511666D02*
X191623574Y-64630714D01*
X191623574Y-64630714D02*
X191373574Y-64630714D01*
X191373574Y-64452142D02*
X191373574Y-64297380D01*
X191373574Y-64297380D02*
X191468812Y-64380714D01*
X191468812Y-64380714D02*
X191468812Y-64344999D01*
X191468812Y-64344999D02*
X191480717Y-64321190D01*
X191480717Y-64321190D02*
X191492622Y-64309285D01*
X191492622Y-64309285D02*
X191516431Y-64297380D01*
X191516431Y-64297380D02*
X191575955Y-64297380D01*
X191575955Y-64297380D02*
X191599765Y-64309285D01*
X191599765Y-64309285D02*
X191611670Y-64321190D01*
X191611670Y-64321190D02*
X191623574Y-64344999D01*
X191623574Y-64344999D02*
X191623574Y-64416428D01*
X191623574Y-64416428D02*
X191611670Y-64440237D01*
X191611670Y-64440237D02*
X191599765Y-64452142D01*
D10*
X179671455Y-47681024D02*
X180378562Y-46973918D01*
X180378562Y-46973918D02*
X180109188Y-47714696D01*
X180109188Y-47714696D02*
X180849966Y-47445322D01*
X180849966Y-47445322D02*
X180142860Y-48152429D01*
X180479577Y-48489146D02*
X181186684Y-47782040D01*
X181186684Y-47782040D02*
X181456058Y-48051414D01*
X181456058Y-48051414D02*
X181489730Y-48152429D01*
X181489730Y-48152429D02*
X181489730Y-48219772D01*
X181489730Y-48219772D02*
X181456058Y-48320788D01*
X181456058Y-48320788D02*
X181355043Y-48421803D01*
X181355043Y-48421803D02*
X181254027Y-48455475D01*
X181254027Y-48455475D02*
X181186684Y-48455475D01*
X181186684Y-48455475D02*
X181085669Y-48421803D01*
X181085669Y-48421803D02*
X180816295Y-48152429D01*
X181826447Y-48421803D02*
X182264180Y-48859536D01*
X182264180Y-48859536D02*
X181759104Y-48893207D01*
X181759104Y-48893207D02*
X181860119Y-48994223D01*
X181860119Y-48994223D02*
X181893791Y-49095238D01*
X181893791Y-49095238D02*
X181893791Y-49162581D01*
X181893791Y-49162581D02*
X181860119Y-49263597D01*
X181860119Y-49263597D02*
X181691760Y-49431955D01*
X181691760Y-49431955D02*
X181590745Y-49465627D01*
X181590745Y-49465627D02*
X181523401Y-49465627D01*
X181523401Y-49465627D02*
X181422386Y-49431955D01*
X181422386Y-49431955D02*
X181220356Y-49229925D01*
X181220356Y-49229925D02*
X181186684Y-49128910D01*
X181186684Y-49128910D02*
X181186684Y-49061566D01*
X182634569Y-49701329D02*
X182163165Y-50172734D01*
X182735584Y-49263597D02*
X182062149Y-49600314D01*
X182062149Y-49600314D02*
X182499882Y-50038047D01*
X182533554Y-50543123D02*
X183240661Y-49836016D01*
X183240661Y-49836016D02*
X183409020Y-50004375D01*
X183409020Y-50004375D02*
X183476363Y-50139062D01*
X183476363Y-50139062D02*
X183476363Y-50273749D01*
X183476363Y-50273749D02*
X183442691Y-50374765D01*
X183442691Y-50374765D02*
X183341676Y-50543123D01*
X183341676Y-50543123D02*
X183240661Y-50644139D01*
X183240661Y-50644139D02*
X183072302Y-50745154D01*
X183072302Y-50745154D02*
X182971287Y-50778826D01*
X182971287Y-50778826D02*
X182836600Y-50778826D01*
X182836600Y-50778826D02*
X182701913Y-50711482D01*
X182701913Y-50711482D02*
X182533554Y-50543123D01*
X183846752Y-50442108D02*
X184250813Y-50846169D01*
X183341676Y-51351245D02*
X184048783Y-50644139D01*
X184621203Y-51216558D02*
X184688546Y-51283902D01*
X184688546Y-51283902D02*
X184722218Y-51384917D01*
X184722218Y-51384917D02*
X184722218Y-51452261D01*
X184722218Y-51452261D02*
X184688546Y-51553276D01*
X184688546Y-51553276D02*
X184587531Y-51721635D01*
X184587531Y-51721635D02*
X184419172Y-51889993D01*
X184419172Y-51889993D02*
X184250813Y-51991009D01*
X184250813Y-51991009D02*
X184149798Y-52024680D01*
X184149798Y-52024680D02*
X184082455Y-52024680D01*
X184082455Y-52024680D02*
X183981439Y-51991009D01*
X183981439Y-51991009D02*
X183914096Y-51923665D01*
X183914096Y-51923665D02*
X183880424Y-51822650D01*
X183880424Y-51822650D02*
X183880424Y-51755306D01*
X183880424Y-51755306D02*
X183914096Y-51654291D01*
X183914096Y-51654291D02*
X184015111Y-51485932D01*
X184015111Y-51485932D02*
X184183470Y-51317574D01*
X184183470Y-51317574D02*
X184351829Y-51216558D01*
X184351829Y-51216558D02*
X184452844Y-51182887D01*
X184452844Y-51182887D02*
X184520188Y-51182887D01*
X184520188Y-51182887D02*
X184621203Y-51216558D01*
X185496668Y-52092024D02*
X185159951Y-51755307D01*
X185159951Y-51755307D02*
X184789562Y-52058352D01*
X184789562Y-52058352D02*
X184856905Y-52058352D01*
X184856905Y-52058352D02*
X184957920Y-52092024D01*
X184957920Y-52092024D02*
X185126279Y-52260383D01*
X185126279Y-52260383D02*
X185159951Y-52361398D01*
X185159951Y-52361398D02*
X185159951Y-52428742D01*
X185159951Y-52428742D02*
X185126279Y-52529757D01*
X185126279Y-52529757D02*
X184957920Y-52698116D01*
X184957920Y-52698116D02*
X184856905Y-52731787D01*
X184856905Y-52731787D02*
X184789562Y-52731787D01*
X184789562Y-52731787D02*
X184688546Y-52698116D01*
X184688546Y-52698116D02*
X184520188Y-52529757D01*
X184520188Y-52529757D02*
X184486516Y-52428742D01*
X184486516Y-52428742D02*
X184486516Y-52361398D01*
X185395653Y-52866474D02*
X185934401Y-53405222D01*
X186170103Y-53775611D02*
X186506821Y-54112329D01*
X185900729Y-53910298D02*
X186843538Y-53438894D01*
X186843538Y-53438894D02*
X186372134Y-54381703D01*
X180984654Y-51115543D02*
X181691761Y-50408436D01*
X181691761Y-50408436D02*
X181422387Y-51149215D01*
X181422387Y-51149215D02*
X182163165Y-50879841D01*
X182163165Y-50879841D02*
X181456058Y-51586948D01*
X181792776Y-51923665D02*
X182499882Y-51216558D01*
X182196837Y-52327726D02*
X182297852Y-51620619D01*
X182903943Y-51620619D02*
X182095821Y-51620619D01*
X182870272Y-53001161D02*
X182466211Y-52597100D01*
X182668241Y-52799130D02*
X183375348Y-52092024D01*
X183375348Y-52092024D02*
X183206989Y-52125695D01*
X183206989Y-52125695D02*
X183072302Y-52125695D01*
X183072302Y-52125695D02*
X182971287Y-52092024D01*
X186284819Y-52619047D02*
X186284819Y-53190475D01*
X186284819Y-52904761D02*
X185284819Y-52904761D01*
X185284819Y-52904761D02*
X185427676Y-52999999D01*
X185427676Y-52999999D02*
X185522914Y-53095237D01*
X185522914Y-53095237D02*
X185570533Y-53190475D01*
X186284819Y-52190475D02*
X185284819Y-52190475D01*
X185903866Y-52095237D02*
X186284819Y-51809523D01*
X185618152Y-51809523D02*
X185999104Y-52190475D01*
X186284819Y-50809523D02*
X185808628Y-51142856D01*
X186284819Y-51380951D02*
X185284819Y-51380951D01*
X185284819Y-51380951D02*
X185284819Y-50999999D01*
X185284819Y-50999999D02*
X185332438Y-50904761D01*
X185332438Y-50904761D02*
X185380057Y-50857142D01*
X185380057Y-50857142D02*
X185475295Y-50809523D01*
X185475295Y-50809523D02*
X185618152Y-50809523D01*
X185618152Y-50809523D02*
X185713390Y-50857142D01*
X185713390Y-50857142D02*
X185761009Y-50904761D01*
X185761009Y-50904761D02*
X185808628Y-50999999D01*
X185808628Y-50999999D02*
X185808628Y-51380951D01*
D11*
X187118200Y-52043332D02*
X186994391Y-52129999D01*
X187118200Y-52191904D02*
X186858200Y-52191904D01*
X186858200Y-52191904D02*
X186858200Y-52092856D01*
X186858200Y-52092856D02*
X186870581Y-52068094D01*
X186870581Y-52068094D02*
X186882962Y-52055713D01*
X186882962Y-52055713D02*
X186907724Y-52043332D01*
X186907724Y-52043332D02*
X186944867Y-52043332D01*
X186944867Y-52043332D02*
X186969629Y-52055713D01*
X186969629Y-52055713D02*
X186982010Y-52068094D01*
X186982010Y-52068094D02*
X186994391Y-52092856D01*
X186994391Y-52092856D02*
X186994391Y-52191904D01*
X187118200Y-51795713D02*
X187118200Y-51944285D01*
X187118200Y-51869999D02*
X186858200Y-51869999D01*
X186858200Y-51869999D02*
X186895343Y-51894761D01*
X186895343Y-51894761D02*
X186920105Y-51919523D01*
X186920105Y-51919523D02*
X186932486Y-51944285D01*
D10*
X187534819Y-63322370D02*
X187534819Y-62703323D01*
X187534819Y-62703323D02*
X187915771Y-63036656D01*
X187915771Y-63036656D02*
X187915771Y-62893799D01*
X187915771Y-62893799D02*
X187963390Y-62798561D01*
X187963390Y-62798561D02*
X188011009Y-62750942D01*
X188011009Y-62750942D02*
X188106247Y-62703323D01*
X188106247Y-62703323D02*
X188344342Y-62703323D01*
X188344342Y-62703323D02*
X188439580Y-62750942D01*
X188439580Y-62750942D02*
X188487200Y-62798561D01*
X188487200Y-62798561D02*
X188534819Y-62893799D01*
X188534819Y-62893799D02*
X188534819Y-63179513D01*
X188534819Y-63179513D02*
X188487200Y-63274751D01*
X188487200Y-63274751D02*
X188439580Y-63322370D01*
X188439580Y-62274751D02*
X188487200Y-62227132D01*
X188487200Y-62227132D02*
X188534819Y-62274751D01*
X188534819Y-62274751D02*
X188487200Y-62322370D01*
X188487200Y-62322370D02*
X188439580Y-62274751D01*
X188439580Y-62274751D02*
X188534819Y-62274751D01*
X188534819Y-61750942D02*
X188534819Y-61560466D01*
X188534819Y-61560466D02*
X188487200Y-61465228D01*
X188487200Y-61465228D02*
X188439580Y-61417609D01*
X188439580Y-61417609D02*
X188296723Y-61322371D01*
X188296723Y-61322371D02*
X188106247Y-61274752D01*
X188106247Y-61274752D02*
X187725295Y-61274752D01*
X187725295Y-61274752D02*
X187630057Y-61322371D01*
X187630057Y-61322371D02*
X187582438Y-61369990D01*
X187582438Y-61369990D02*
X187534819Y-61465228D01*
X187534819Y-61465228D02*
X187534819Y-61655704D01*
X187534819Y-61655704D02*
X187582438Y-61750942D01*
X187582438Y-61750942D02*
X187630057Y-61798561D01*
X187630057Y-61798561D02*
X187725295Y-61846180D01*
X187725295Y-61846180D02*
X187963390Y-61846180D01*
X187963390Y-61846180D02*
X188058628Y-61798561D01*
X188058628Y-61798561D02*
X188106247Y-61750942D01*
X188106247Y-61750942D02*
X188153866Y-61655704D01*
X188153866Y-61655704D02*
X188153866Y-61465228D01*
X188153866Y-61465228D02*
X188106247Y-61369990D01*
X188106247Y-61369990D02*
X188058628Y-61322371D01*
X188058628Y-61322371D02*
X187963390Y-61274752D01*
X187868152Y-60846180D02*
X188868152Y-60846180D01*
X187915771Y-60846180D02*
X187868152Y-60750942D01*
X187868152Y-60750942D02*
X187868152Y-60560466D01*
X187868152Y-60560466D02*
X187915771Y-60465228D01*
X187915771Y-60465228D02*
X187963390Y-60417609D01*
X187963390Y-60417609D02*
X188058628Y-60369990D01*
X188058628Y-60369990D02*
X188344342Y-60369990D01*
X188344342Y-60369990D02*
X188439580Y-60417609D01*
X188439580Y-60417609D02*
X188487200Y-60465228D01*
X188487200Y-60465228D02*
X188534819Y-60560466D01*
X188534819Y-60560466D02*
X188534819Y-60750942D01*
X188534819Y-60750942D02*
X188487200Y-60846180D01*
X188011009Y-59608085D02*
X188011009Y-59941418D01*
X188534819Y-59941418D02*
X187534819Y-59941418D01*
X187534819Y-59941418D02*
X187534819Y-59465228D01*
D11*
X189899765Y-61435466D02*
X189911670Y-61447370D01*
X189911670Y-61447370D02*
X189923574Y-61483085D01*
X189923574Y-61483085D02*
X189923574Y-61506894D01*
X189923574Y-61506894D02*
X189911670Y-61542608D01*
X189911670Y-61542608D02*
X189887860Y-61566418D01*
X189887860Y-61566418D02*
X189864050Y-61578323D01*
X189864050Y-61578323D02*
X189816431Y-61590227D01*
X189816431Y-61590227D02*
X189780717Y-61590227D01*
X189780717Y-61590227D02*
X189733098Y-61578323D01*
X189733098Y-61578323D02*
X189709289Y-61566418D01*
X189709289Y-61566418D02*
X189685479Y-61542608D01*
X189685479Y-61542608D02*
X189673574Y-61506894D01*
X189673574Y-61506894D02*
X189673574Y-61483085D01*
X189673574Y-61483085D02*
X189685479Y-61447370D01*
X189685479Y-61447370D02*
X189697384Y-61435466D01*
X189673574Y-61209275D02*
X189673574Y-61328323D01*
X189673574Y-61328323D02*
X189792622Y-61340227D01*
X189792622Y-61340227D02*
X189780717Y-61328323D01*
X189780717Y-61328323D02*
X189768812Y-61304513D01*
X189768812Y-61304513D02*
X189768812Y-61244989D01*
X189768812Y-61244989D02*
X189780717Y-61221180D01*
X189780717Y-61221180D02*
X189792622Y-61209275D01*
X189792622Y-61209275D02*
X189816431Y-61197370D01*
X189816431Y-61197370D02*
X189875955Y-61197370D01*
X189875955Y-61197370D02*
X189899765Y-61209275D01*
X189899765Y-61209275D02*
X189911670Y-61221180D01*
X189911670Y-61221180D02*
X189923574Y-61244989D01*
X189923574Y-61244989D02*
X189923574Y-61304513D01*
X189923574Y-61304513D02*
X189911670Y-61328323D01*
X189911670Y-61328323D02*
X189899765Y-61340227D01*
D10*
X179807200Y-59980951D02*
X179854819Y-59838094D01*
X179854819Y-59838094D02*
X179854819Y-59599999D01*
X179854819Y-59599999D02*
X179807200Y-59504761D01*
X179807200Y-59504761D02*
X179759580Y-59457142D01*
X179759580Y-59457142D02*
X179664342Y-59409523D01*
X179664342Y-59409523D02*
X179569104Y-59409523D01*
X179569104Y-59409523D02*
X179473866Y-59457142D01*
X179473866Y-59457142D02*
X179426247Y-59504761D01*
X179426247Y-59504761D02*
X179378628Y-59599999D01*
X179378628Y-59599999D02*
X179331009Y-59790475D01*
X179331009Y-59790475D02*
X179283390Y-59885713D01*
X179283390Y-59885713D02*
X179235771Y-59933332D01*
X179235771Y-59933332D02*
X179140533Y-59980951D01*
X179140533Y-59980951D02*
X179045295Y-59980951D01*
X179045295Y-59980951D02*
X178950057Y-59933332D01*
X178950057Y-59933332D02*
X178902438Y-59885713D01*
X178902438Y-59885713D02*
X178854819Y-59790475D01*
X178854819Y-59790475D02*
X178854819Y-59552380D01*
X178854819Y-59552380D02*
X178902438Y-59409523D01*
X179854819Y-58980951D02*
X179188152Y-58980951D01*
X178854819Y-58980951D02*
X178902438Y-59028570D01*
X178902438Y-59028570D02*
X178950057Y-58980951D01*
X178950057Y-58980951D02*
X178902438Y-58933332D01*
X178902438Y-58933332D02*
X178854819Y-58980951D01*
X178854819Y-58980951D02*
X178950057Y-58980951D01*
X179854819Y-58504761D02*
X178854819Y-58504761D01*
X178854819Y-58504761D02*
X178854819Y-58123809D01*
X178854819Y-58123809D02*
X178902438Y-58028571D01*
X178902438Y-58028571D02*
X178950057Y-57980952D01*
X178950057Y-57980952D02*
X179045295Y-57933333D01*
X179045295Y-57933333D02*
X179188152Y-57933333D01*
X179188152Y-57933333D02*
X179283390Y-57980952D01*
X179283390Y-57980952D02*
X179331009Y-58028571D01*
X179331009Y-58028571D02*
X179378628Y-58123809D01*
X179378628Y-58123809D02*
X179378628Y-58504761D01*
X178854819Y-57599999D02*
X178854819Y-56980952D01*
X178854819Y-56980952D02*
X179235771Y-57314285D01*
X179235771Y-57314285D02*
X179235771Y-57171428D01*
X179235771Y-57171428D02*
X179283390Y-57076190D01*
X179283390Y-57076190D02*
X179331009Y-57028571D01*
X179331009Y-57028571D02*
X179426247Y-56980952D01*
X179426247Y-56980952D02*
X179664342Y-56980952D01*
X179664342Y-56980952D02*
X179759580Y-57028571D01*
X179759580Y-57028571D02*
X179807200Y-57076190D01*
X179807200Y-57076190D02*
X179854819Y-57171428D01*
X179854819Y-57171428D02*
X179854819Y-57457142D01*
X179854819Y-57457142D02*
X179807200Y-57552380D01*
X179807200Y-57552380D02*
X179759580Y-57599999D01*
X178950057Y-56599999D02*
X178902438Y-56552380D01*
X178902438Y-56552380D02*
X178854819Y-56457142D01*
X178854819Y-56457142D02*
X178854819Y-56219047D01*
X178854819Y-56219047D02*
X178902438Y-56123809D01*
X178902438Y-56123809D02*
X178950057Y-56076190D01*
X178950057Y-56076190D02*
X179045295Y-56028571D01*
X179045295Y-56028571D02*
X179140533Y-56028571D01*
X179140533Y-56028571D02*
X179283390Y-56076190D01*
X179283390Y-56076190D02*
X179854819Y-56647618D01*
X179854819Y-56647618D02*
X179854819Y-56028571D01*
X179188152Y-55171428D02*
X179854819Y-55171428D01*
X178807200Y-55409523D02*
X179521485Y-55647618D01*
X179521485Y-55647618D02*
X179521485Y-55028571D01*
X178854819Y-54742856D02*
X178854819Y-54123809D01*
X178854819Y-54123809D02*
X179235771Y-54457142D01*
X179235771Y-54457142D02*
X179235771Y-54314285D01*
X179235771Y-54314285D02*
X179283390Y-54219047D01*
X179283390Y-54219047D02*
X179331009Y-54171428D01*
X179331009Y-54171428D02*
X179426247Y-54123809D01*
X179426247Y-54123809D02*
X179664342Y-54123809D01*
X179664342Y-54123809D02*
X179759580Y-54171428D01*
X179759580Y-54171428D02*
X179807200Y-54219047D01*
X179807200Y-54219047D02*
X179854819Y-54314285D01*
X179854819Y-54314285D02*
X179854819Y-54599999D01*
X179854819Y-54599999D02*
X179807200Y-54695237D01*
X179807200Y-54695237D02*
X179759580Y-54742856D01*
X178950057Y-53742856D02*
X178902438Y-53695237D01*
X178902438Y-53695237D02*
X178854819Y-53599999D01*
X178854819Y-53599999D02*
X178854819Y-53361904D01*
X178854819Y-53361904D02*
X178902438Y-53266666D01*
X178902438Y-53266666D02*
X178950057Y-53219047D01*
X178950057Y-53219047D02*
X179045295Y-53171428D01*
X179045295Y-53171428D02*
X179140533Y-53171428D01*
X179140533Y-53171428D02*
X179283390Y-53219047D01*
X179283390Y-53219047D02*
X179854819Y-53790475D01*
X179854819Y-53790475D02*
X179854819Y-53171428D01*
X179854819Y-52742856D02*
X178854819Y-52742856D01*
X178854819Y-52742856D02*
X178854819Y-52504761D01*
X178854819Y-52504761D02*
X178902438Y-52361904D01*
X178902438Y-52361904D02*
X178997676Y-52266666D01*
X178997676Y-52266666D02*
X179092914Y-52219047D01*
X179092914Y-52219047D02*
X179283390Y-52171428D01*
X179283390Y-52171428D02*
X179426247Y-52171428D01*
X179426247Y-52171428D02*
X179616723Y-52219047D01*
X179616723Y-52219047D02*
X179711961Y-52266666D01*
X179711961Y-52266666D02*
X179807200Y-52361904D01*
X179807200Y-52361904D02*
X179854819Y-52504761D01*
X179854819Y-52504761D02*
X179854819Y-52742856D01*
X179854819Y-51171428D02*
X179378628Y-51504761D01*
X179854819Y-51742856D02*
X178854819Y-51742856D01*
X178854819Y-51742856D02*
X178854819Y-51361904D01*
X178854819Y-51361904D02*
X178902438Y-51266666D01*
X178902438Y-51266666D02*
X178950057Y-51219047D01*
X178950057Y-51219047D02*
X179045295Y-51171428D01*
X179045295Y-51171428D02*
X179188152Y-51171428D01*
X179188152Y-51171428D02*
X179283390Y-51219047D01*
X179283390Y-51219047D02*
X179331009Y-51266666D01*
X179331009Y-51266666D02*
X179378628Y-51361904D01*
X179378628Y-51361904D02*
X179378628Y-51742856D01*
X178854819Y-50838094D02*
X178854819Y-50219047D01*
X178854819Y-50219047D02*
X179235771Y-50552380D01*
X179235771Y-50552380D02*
X179235771Y-50409523D01*
X179235771Y-50409523D02*
X179283390Y-50314285D01*
X179283390Y-50314285D02*
X179331009Y-50266666D01*
X179331009Y-50266666D02*
X179426247Y-50219047D01*
X179426247Y-50219047D02*
X179664342Y-50219047D01*
X179664342Y-50219047D02*
X179759580Y-50266666D01*
X179759580Y-50266666D02*
X179807200Y-50314285D01*
X179807200Y-50314285D02*
X179854819Y-50409523D01*
X179854819Y-50409523D02*
X179854819Y-50695237D01*
X179854819Y-50695237D02*
X179807200Y-50790475D01*
X179807200Y-50790475D02*
X179759580Y-50838094D01*
D14*
X181019047Y-54827409D02*
X181019047Y-55232171D01*
X181019047Y-55232171D02*
X181042857Y-55279790D01*
X181042857Y-55279790D02*
X181066666Y-55303600D01*
X181066666Y-55303600D02*
X181114285Y-55327409D01*
X181114285Y-55327409D02*
X181209523Y-55327409D01*
X181209523Y-55327409D02*
X181257142Y-55303600D01*
X181257142Y-55303600D02*
X181280952Y-55279790D01*
X181280952Y-55279790D02*
X181304761Y-55232171D01*
X181304761Y-55232171D02*
X181304761Y-54827409D01*
X181519048Y-54875028D02*
X181542857Y-54851219D01*
X181542857Y-54851219D02*
X181590476Y-54827409D01*
X181590476Y-54827409D02*
X181709524Y-54827409D01*
X181709524Y-54827409D02*
X181757143Y-54851219D01*
X181757143Y-54851219D02*
X181780952Y-54875028D01*
X181780952Y-54875028D02*
X181804762Y-54922647D01*
X181804762Y-54922647D02*
X181804762Y-54970266D01*
X181804762Y-54970266D02*
X181780952Y-55041695D01*
X181780952Y-55041695D02*
X181495238Y-55327409D01*
X181495238Y-55327409D02*
X181804762Y-55327409D01*
D15*
%TO.C,U1*%
X189727550Y-61301200D02*
X189727550Y-59402800D01*
X190227550Y-61801200D02*
X189727550Y-61301200D01*
X190227550Y-61801200D02*
X191958450Y-61801200D01*
X191958450Y-59402800D02*
X189727550Y-59402800D01*
X191958450Y-61801200D02*
X191958450Y-59402800D01*
%TO.C,L6*%
X190210000Y-67210000D02*
X190810000Y-67210000D01*
X190210000Y-67510000D02*
X190210000Y-67210000D01*
X190810000Y-67210000D02*
X190810000Y-67510000D01*
X190810000Y-67510000D02*
X190210000Y-67510000D01*
%TO.C,C12*%
X188280000Y-61083800D02*
X188580000Y-61083800D01*
X188280000Y-61683800D02*
X188280000Y-61083800D01*
X188580000Y-61083800D02*
X188580000Y-61683800D01*
X188580000Y-61683800D02*
X188280000Y-61683800D01*
%TO.C,L7*%
X188100000Y-67210000D02*
X188700000Y-67210000D01*
X188100000Y-67510000D02*
X188100000Y-67210000D01*
X188700000Y-67210000D02*
X188700000Y-67510000D01*
X188700000Y-67510000D02*
X188100000Y-67510000D01*
%TO.C,C16*%
X192941802Y-49166066D02*
X193366066Y-48741802D01*
X193153934Y-49378198D02*
X192941802Y-49166066D01*
X193366066Y-48741802D02*
X193578198Y-48953934D01*
X193578198Y-48953934D02*
X193153934Y-49378198D01*
%TO.C,JP2*%
X192775000Y-47260000D02*
X193825000Y-47260000D01*
X192775000Y-47800000D02*
X192775000Y-47260000D01*
X193825000Y-47260000D02*
X193825000Y-47800000D01*
X193825000Y-47800000D02*
X192775000Y-47800000D01*
%TO.C,L4*%
X190680000Y-65970000D02*
X190980000Y-65970000D01*
X190680000Y-66570000D02*
X190680000Y-65970000D01*
X190980000Y-65970000D02*
X190980000Y-66570000D01*
X190980000Y-66570000D02*
X190680000Y-66570000D01*
%TO.C,L1*%
X188050000Y-58573800D02*
X189050000Y-58573800D01*
X188050000Y-59073800D02*
X188050000Y-58573800D01*
X189050000Y-58573800D02*
X189050000Y-59073800D01*
X189050000Y-59073800D02*
X188050000Y-59073800D01*
%TO.C,C1*%
X188980000Y-59693800D02*
X189280000Y-59693800D01*
X188980000Y-60293800D02*
X188980000Y-59693800D01*
X189280000Y-59693800D02*
X189280000Y-60293800D01*
X189280000Y-60293800D02*
X188980000Y-60293800D01*
%TO.C,Y2*%
X188498500Y-62775300D02*
X189061500Y-62775300D01*
X189061500Y-62212300D01*
X188498500Y-62212300D01*
X188498500Y-62775300D01*
%TO.C,C10*%
X189420000Y-57580000D02*
X190420000Y-57580000D01*
X189420000Y-58080000D02*
X189420000Y-57580000D01*
X190420000Y-57580000D02*
X190420000Y-58080000D01*
X190420000Y-58080000D02*
X189420000Y-58080000D01*
%TO.C,JP3*%
X192775000Y-46320000D02*
X193825000Y-46320000D01*
X192775000Y-46860000D02*
X192775000Y-46320000D01*
X193825000Y-46320000D02*
X193825000Y-46860000D01*
X193825000Y-46860000D02*
X192775000Y-46860000D01*
%TO.C,C15*%
X196081802Y-48873934D02*
X196293934Y-48661802D01*
X196293934Y-48661802D02*
X196718198Y-49086066D01*
X196506066Y-49298198D02*
X196081802Y-48873934D01*
X196718198Y-49086066D02*
X196506066Y-49298198D01*
%TO.C,C11*%
X189880000Y-58663800D02*
X190480000Y-58663800D01*
X189880000Y-58963800D02*
X189880000Y-58663800D01*
X190480000Y-58663800D02*
X190480000Y-58963800D01*
X190480000Y-58963800D02*
X189880000Y-58963800D01*
%TO.C,R3*%
X184440000Y-57870000D02*
X184740000Y-57870000D01*
X184440000Y-58470000D02*
X184440000Y-57870000D01*
X184740000Y-57870000D02*
X184740000Y-58470000D01*
X184740000Y-58470000D02*
X184440000Y-58470000D01*
%TO.C,AE1*%
X190280000Y-70800000D02*
X187280000Y-70800000D01*
X187280000Y-68800000D01*
X190280000Y-68800000D01*
X190280000Y-70800000D01*
%TO.C,C4*%
X181430000Y-52930000D02*
X182030000Y-52930000D01*
X181430000Y-53230000D02*
X181430000Y-52930000D01*
X182030000Y-52930000D02*
X182030000Y-53230000D01*
X182030000Y-53230000D02*
X181430000Y-53230000D01*
%TO.C,Y1*%
X191180000Y-57654480D02*
X192380000Y-57654480D01*
X192380000Y-58654480D01*
X191180000Y-58654480D01*
X191180000Y-57654480D01*
%TO.C,C3*%
X180780000Y-56900000D02*
X181380000Y-56900000D01*
X180780000Y-57200000D02*
X180780000Y-56900000D01*
X181380000Y-56900000D02*
X181380000Y-57200000D01*
X181380000Y-57200000D02*
X180780000Y-57200000D01*
%TO.C,R4*%
X183545000Y-53050000D02*
X184595000Y-53050000D01*
X183545000Y-53590000D02*
X183545000Y-53050000D01*
X184595000Y-53050000D02*
X184595000Y-53590000D01*
X184595000Y-53590000D02*
X183545000Y-53590000D01*
%TO.C,C2*%
X187580000Y-61083800D02*
X187880000Y-61083800D01*
X187580000Y-61683800D02*
X187580000Y-61083800D01*
X187880000Y-61083800D02*
X187880000Y-61683800D01*
X187880000Y-61683800D02*
X187580000Y-61683800D01*
%TO.C,D1*%
X188400000Y-49600000D02*
X188400000Y-50800000D01*
X188400000Y-50800000D02*
X191600000Y-50800000D01*
X188800000Y-49200000D02*
X188400000Y-49600000D01*
X191600000Y-49200000D02*
X188800000Y-49200000D01*
X191600000Y-50800000D02*
X191600000Y-49200000D01*
%TO.C,FB1*%
X187780000Y-60163800D02*
X188380000Y-60163800D01*
X187780000Y-60463800D02*
X187780000Y-60163800D01*
X188380000Y-60163800D02*
X188380000Y-60463800D01*
X188380000Y-60463800D02*
X187780000Y-60463800D01*
%TO.C,U3*%
X193762563Y-49611091D02*
X194964645Y-48409010D01*
X193762563Y-50318198D02*
X193762563Y-49611091D01*
X195035355Y-51590990D02*
X193762563Y-50318198D01*
X195035355Y-51590990D02*
X196590990Y-50035355D01*
X196590990Y-50035355D02*
X194964645Y-48409010D01*
%TO.C,Q1*%
X185550000Y-51500000D02*
X186150000Y-51500000D01*
X185550000Y-52350000D02*
X185550000Y-51500000D01*
X185550000Y-52350000D02*
X185700000Y-52500000D01*
X186150000Y-51500000D02*
X186150000Y-52500000D01*
X186150000Y-52500000D02*
X185700000Y-52500000D01*
%TO.C,C17*%
X195041802Y-47823934D02*
X195253934Y-47611802D01*
X195253934Y-47611802D02*
X195678198Y-48036066D01*
X195466066Y-48248198D02*
X195041802Y-47823934D01*
X195678198Y-48036066D02*
X195466066Y-48248198D01*
%TO.C,C8*%
X192360842Y-60370000D02*
X192660842Y-60370000D01*
X192360842Y-60970000D02*
X192360842Y-60370000D01*
X192660842Y-60370000D02*
X192660842Y-60970000D01*
X192660842Y-60970000D02*
X192360842Y-60970000D01*
%TO.C,L2*%
X190680000Y-62370000D02*
X190980000Y-62370000D01*
X190680000Y-62970000D02*
X190680000Y-62370000D01*
X190980000Y-62370000D02*
X190980000Y-62970000D01*
X190980000Y-62970000D02*
X190680000Y-62970000D01*
%TO.C,C20*%
X185561802Y-47993934D02*
X185773934Y-47781802D01*
X185773934Y-47781802D02*
X186198198Y-48206066D01*
X185986066Y-48418198D02*
X185561802Y-47993934D01*
X186198198Y-48206066D02*
X185986066Y-48418198D01*
%TO.C,L18*%
X189300000Y-66740000D02*
X189600000Y-66740000D01*
X189300000Y-67340000D02*
X189300000Y-66740000D01*
X189600000Y-66740000D02*
X189600000Y-67340000D01*
X189600000Y-67340000D02*
X189300000Y-67340000D01*
%TO.C,R2*%
X183740000Y-57870000D02*
X184040000Y-57870000D01*
X183740000Y-58470000D02*
X183740000Y-57870000D01*
X184040000Y-57870000D02*
X184040000Y-58470000D01*
X184040000Y-58470000D02*
X183740000Y-58470000D01*
%TO.C,SW1*%
X187900000Y-53400000D02*
X192100000Y-53400000D01*
X187900000Y-53900000D02*
X188400000Y-53400000D01*
X187900000Y-56100000D02*
X188400000Y-56600000D01*
X187900000Y-56600000D02*
X187900000Y-53400000D01*
X189099999Y-53900000D02*
X190800000Y-53900000D01*
X190800000Y-56100000D02*
X189099999Y-56100000D01*
X191600000Y-53400000D02*
X192100000Y-53900000D01*
X191600000Y-56600000D02*
X192100000Y-56100000D01*
X192100000Y-53400000D02*
X192100000Y-56600000D01*
X192100000Y-56600000D02*
X187900000Y-56600000D01*
X189100000Y-56099999D02*
G75*
G02*
X189100000Y-53900001I799998J1099999D01*
G01*
X190800000Y-53900001D02*
G75*
G02*
X190799999Y-56099999I-700000J-1099999D01*
G01*
%TO.C,C6*%
X190210000Y-63420000D02*
X190810000Y-63420000D01*
X190210000Y-63720000D02*
X190210000Y-63420000D01*
X190810000Y-63420000D02*
X190810000Y-63720000D01*
X190810000Y-63720000D02*
X190210000Y-63720000D01*
%TO.C,C9*%
X190210000Y-65220000D02*
X190810000Y-65220000D01*
X190210000Y-65520000D02*
X190210000Y-65220000D01*
X190810000Y-65220000D02*
X190810000Y-65520000D01*
X190810000Y-65520000D02*
X190210000Y-65520000D01*
%TO.C,L3*%
X190680000Y-64170000D02*
X190980000Y-64170000D01*
X190680000Y-64770000D02*
X190680000Y-64170000D01*
X190980000Y-64170000D02*
X190980000Y-64770000D01*
X190980000Y-64770000D02*
X190680000Y-64770000D01*
%TO.C,MK1*%
X186474874Y-49598591D02*
X183646447Y-52427018D01*
X181525126Y-50305697D01*
X184353553Y-47477270D01*
X186474874Y-49598591D01*
%TO.C,R1*%
X186730000Y-51475000D02*
X187270000Y-51475000D01*
X186730000Y-52525000D02*
X186730000Y-51475000D01*
X187270000Y-51475000D02*
X187270000Y-52525000D01*
X187270000Y-52525000D02*
X186730000Y-52525000D01*
%TO.C,C5*%
X188980000Y-61093800D02*
X189280000Y-61093800D01*
X188980000Y-61693800D02*
X188980000Y-61093800D01*
X189280000Y-61093800D02*
X189280000Y-61693800D01*
X189280000Y-61693800D02*
X188980000Y-61693800D01*
%TO.C,U2*%
X180300000Y-55775000D02*
X180300000Y-54425000D01*
X182000000Y-54425000D02*
X180300000Y-54425000D01*
X182500000Y-54925000D02*
X182000000Y-54425000D01*
X182500000Y-55775000D02*
X180300000Y-55775000D01*
X182500000Y-55775000D02*
X182500000Y-54925000D01*
%TD*%
M02*
