M48
; DRILL file {KiCad 8.99.0-unknown-77b1d367df~178~ubuntu23.10.1} date 2024-10-31T14:46:27-0400
; FORMAT={-:-/ absolute / inch / decimal}
; #@! TF.CreationDate,2024-10-31T14:46:27-04:00
; #@! TF.GenerationSoftware,Kicad,Pcbnew,8.99.0-unknown-77b1d367df~178~ubuntu23.10.1
; #@! TF.FileFunction,Plated,1,4,PTH
FMAT,2
INCH
; #@! TA.AperFunction,Plated,PTH,ViaDrill
T1C0.0059
; #@! TA.AperFunction,Plated,PTH,ViaDrill
T2C0.0118
%
G90
G05
T1
X7.1693Y-1.9878
X7.1693Y-2.028
X7.2308Y-2.0453
X7.2398Y-2.2776
X7.2398Y-2.3028
X7.2673Y-2.2776
X7.2673Y-2.3028
X7.2961Y-2.3037
X7.2976Y-2.3413
X7.2976Y-2.3586
X7.315Y-2.3933
X7.3244Y-2.4324
X7.3528Y-2.3301
X7.3528Y-2.3553
X7.3571Y-2.4276
X7.3909Y-2.4293
X7.4079Y-2.4555
X7.4189Y-2.4297
X7.4272Y-2.4783
X7.4323Y-2.4045
X7.4461Y-2.3494
X7.4461Y-2.4297
X7.4748Y-2.2879
X7.4748Y-2.3155
X7.4862Y-2.4299
X7.4894Y-2.3949
X7.4909Y-2.5028
X7.4909Y-2.5736
X7.5Y-2.3016
X7.5012Y-2.3594
X7.5012Y-2.3713
X7.5012Y-2.4067
X7.5012Y-2.4185
X7.513Y-2.3594
X7.513Y-2.3713
X7.513Y-2.4067
X7.5146Y-2.3331
X7.5248Y-2.3476
X7.5248Y-2.3949
X7.5342Y-2.2978
X7.5354Y-1.9685
X7.5366Y-2.4067
X7.5366Y-2.3476
X7.561Y-2.3461
X7.5666Y-2.2978
X7.5799Y-2.3765
X7.5799Y-2.4017
X7.5854Y-2.3091
X7.635Y-2.422
X7.6551Y-2.326
X7.6598Y-2.4146
X7.6772Y-2.1654
X7.6921Y-2.3374
X7.7091Y-2.3169
X7.7559Y-2.1654
X7.7559Y-2.2598
X7.8008Y-2.3756
X7.8378Y-2.3417
T2
X6.9705Y-2.1654
X7.4803Y-2.1654
M30
