%TF.GenerationSoftware,KiCad,Pcbnew,8.99.0-unknown-77b1d367df~178~ubuntu23.10.1*%
%TF.CreationDate,2024-10-31T14:46:16-04:00*%
%TF.ProjectId,nRF54L15_nPM2100_CR2032,6e524635-344c-4313-955f-6e504d323130,rev?*%
%TF.SameCoordinates,Original*%
%TF.FileFunction,Paste,Top*%
%TF.FilePolarity,Positive*%
%FSLAX46Y46*%
G04 Gerber Fmt 4.6, Leading zero omitted, Abs format (unit mm)*
G04 Created by KiCad (PCBNEW 8.99.0-unknown-77b1d367df~178~ubuntu23.10.1) date 2024-10-31 14:46:16*
%MOMM*%
%LPD*%
G01*
G04 APERTURE LIST*
G04 Aperture macros list*
%AMRoundRect*
0 Rectangle with rounded corners*
0 $1 Rounding radius*
0 $2 $3 $4 $5 $6 $7 $8 $9 X,Y pos of 4 corners*
0 Add a 4 corners polygon primitive as box body*
4,1,4,$2,$3,$4,$5,$6,$7,$8,$9,$2,$3,0*
0 Add four circle primitives for the rounded corners*
1,1,$1+$1,$2,$3*
1,1,$1+$1,$4,$5*
1,1,$1+$1,$6,$7*
1,1,$1+$1,$8,$9*
0 Add four rect primitives between the rounded corners*
20,1,$1+$1,$2,$3,$4,$5,0*
20,1,$1+$1,$4,$5,$6,$7,0*
20,1,$1+$1,$6,$7,$8,$9,0*
20,1,$1+$1,$8,$9,$2,$3,0*%
G04 Aperture macros list end*
%ADD10C,0.170000*%
%ADD11RoundRect,0.079500X-0.100500X0.079500X-0.100500X-0.079500X0.100500X-0.079500X0.100500X0.079500X0*%
%ADD12RoundRect,0.079500X0.079500X0.100500X-0.079500X0.100500X-0.079500X-0.100500X0.079500X-0.100500X0*%
%ADD13C,0.220000*%
%ADD14RoundRect,0.067500X-0.067500X0.067500X-0.067500X-0.067500X0.067500X-0.067500X0.067500X0.067500X0*%
%ADD15RoundRect,0.079500X0.100500X-0.079500X0.100500X0.079500X-0.100500X0.079500X-0.100500X-0.079500X0*%
%ADD16C,0.150000*%
%ADD17RoundRect,0.075000X-0.175000X-0.575000X0.175000X-0.575000X0.175000X0.575000X-0.175000X0.575000X0*%
%ADD18RoundRect,0.150000X-0.350000X-0.350000X0.350000X-0.350000X0.350000X0.350000X-0.350000X0.350000X0*%
%ADD19R,0.575000X1.114000*%
%ADD20RoundRect,0.135000X-0.185000X0.135000X-0.185000X-0.135000X0.185000X-0.135000X0.185000X0.135000X0*%
%ADD21RoundRect,0.250000X-0.375000X-0.625000X0.375000X-0.625000X0.375000X0.625000X-0.375000X0.625000X0*%
%ADD22RoundRect,0.079500X-0.079500X-0.100500X0.079500X-0.100500X0.079500X0.100500X-0.079500X0.100500X0*%
%ADD23RoundRect,0.147500X-0.147500X-0.172500X0.147500X-0.172500X0.147500X0.172500X-0.147500X0.172500X0*%
%ADD24RoundRect,0.150000X-0.587500X-0.150000X0.587500X-0.150000X0.587500X0.150000X-0.587500X0.150000X0*%
%ADD25R,1.050000X0.650000*%
%ADD26RoundRect,0.067500X0.067500X0.067500X-0.067500X0.067500X-0.067500X-0.067500X0.067500X-0.067500X0*%
%ADD27RoundRect,0.140000X-0.170000X0.140000X-0.170000X-0.140000X0.170000X-0.140000X0.170000X0.140000X0*%
G04 APERTURE END LIST*
D10*
%TO.C,U1*%
X189930000Y-61430000D03*
X189930000Y-61130000D03*
X189930000Y-60830000D03*
X189930000Y-60530000D03*
X189930000Y-60230000D03*
X189930000Y-59930000D03*
X189930000Y-59630000D03*
X190230000Y-61430000D03*
X190230000Y-60830000D03*
X190230000Y-60530000D03*
X190230000Y-60230000D03*
X190230000Y-59930000D03*
X190230000Y-59630000D03*
X190530000Y-61130000D03*
X190530000Y-60830000D03*
X190530000Y-60530000D03*
X190530000Y-60230000D03*
X190530000Y-59930000D03*
X190530000Y-59630000D03*
X190830000Y-61430000D03*
X190830000Y-61130000D03*
X190830000Y-60830000D03*
X190830000Y-60530000D03*
X190830000Y-60230000D03*
X190830000Y-59930000D03*
X190830000Y-59630000D03*
X191130000Y-61430000D03*
X191130000Y-61130000D03*
X191130000Y-60830000D03*
X191130000Y-60530000D03*
X191130000Y-60230000D03*
X191130000Y-59930000D03*
X191130000Y-59630000D03*
X191430000Y-61430000D03*
X191430000Y-61130000D03*
X191430000Y-60830000D03*
X191430000Y-60530000D03*
X191430000Y-60230000D03*
X191430000Y-59930000D03*
X191430000Y-59630000D03*
X191730000Y-61430000D03*
X191730000Y-61130000D03*
X191730000Y-60830000D03*
X191730000Y-60530000D03*
X191730000Y-60230000D03*
X191730000Y-59930000D03*
X191730000Y-59630000D03*
%TD*%
D11*
%TO.C,C12*%
X188430000Y-61038800D03*
X188430000Y-61728800D03*
%TD*%
D12*
%TO.C,C11*%
X190525000Y-58813800D03*
X189835000Y-58813800D03*
%TD*%
D13*
%TO.C,U2*%
X185800000Y-59468800D03*
X185800000Y-59908800D03*
X185800000Y-60348800D03*
X185800000Y-60788800D03*
X185360000Y-59468800D03*
X185360000Y-59908800D03*
X185360000Y-60348800D03*
X185360000Y-60788800D03*
X184920000Y-59468800D03*
X184920000Y-59908800D03*
X184920000Y-60348800D03*
X184920000Y-60788800D03*
X184480000Y-59468800D03*
X184480000Y-59908800D03*
X184480000Y-60348800D03*
X184480000Y-60788800D03*
%TD*%
D14*
%TO.C,L4*%
X190840000Y-65995000D03*
X190840000Y-66545000D03*
%TD*%
D15*
%TO.C,C7*%
X186760000Y-59848800D03*
X186760000Y-59158800D03*
%TD*%
%TO.C,C1*%
X189130000Y-60338800D03*
X189130000Y-59648800D03*
%TD*%
D16*
%TO.C,Y2*%
X188905000Y-62618800D03*
X188655000Y-62618800D03*
X188655000Y-62368800D03*
X188905000Y-62368800D03*
%TD*%
D12*
%TO.C,C10*%
X190525000Y-58113800D03*
X189835000Y-58113800D03*
%TD*%
D11*
%TO.C,R3*%
X184590000Y-57825000D03*
X184590000Y-58515000D03*
%TD*%
D17*
%TO.C,AE1*%
X189290000Y-70425000D03*
D18*
X190840000Y-70425000D03*
%TD*%
D12*
%TO.C,C4*%
X185985000Y-58513800D03*
X185295000Y-58513800D03*
%TD*%
D19*
%TO.C,Y1*%
X191367500Y-58363800D03*
X192192500Y-58363800D03*
%TD*%
D15*
%TO.C,C3*%
X186040000Y-62448800D03*
X186040000Y-61758800D03*
%TD*%
D20*
%TO.C,R4*%
X182100000Y-50490000D03*
X182100000Y-51510000D03*
%TD*%
D11*
%TO.C,C2*%
X187730000Y-61038800D03*
X187730000Y-61728800D03*
%TD*%
D21*
%TO.C,D1*%
X188600000Y-50000000D03*
X191400000Y-50000000D03*
%TD*%
D22*
%TO.C,FB1*%
X187735000Y-60313800D03*
X188425000Y-60313800D03*
%TD*%
D23*
%TO.C,L5*%
X184205000Y-61873800D03*
X185175000Y-61873800D03*
%TD*%
%TO.C,L1*%
X188065000Y-58823800D03*
X189035000Y-58823800D03*
%TD*%
D24*
%TO.C,Q1*%
X183662500Y-50050000D03*
X183662500Y-51950000D03*
X185537500Y-51000000D03*
%TD*%
D15*
%TO.C,C8*%
X192530000Y-61028800D03*
X192530000Y-60338800D03*
%TD*%
D14*
%TO.C,L2*%
X190840000Y-62395000D03*
X190840000Y-62945000D03*
%TD*%
D11*
%TO.C,R2*%
X183890000Y-57825000D03*
X183890000Y-58515000D03*
%TD*%
D25*
%TO.C,SW1*%
X187925000Y-53925000D03*
X192075000Y-53925000D03*
X187925000Y-56075000D03*
X192050000Y-56075000D03*
%TD*%
D26*
%TO.C,C6*%
X190795000Y-63570000D03*
X190245000Y-63570000D03*
%TD*%
%TO.C,C9*%
X190795000Y-65370000D03*
X190245000Y-65370000D03*
%TD*%
D14*
%TO.C,L3*%
X190840000Y-64195000D03*
X190840000Y-64745000D03*
%TD*%
D20*
%TO.C,R1*%
X187000000Y-50000000D03*
X187000000Y-51020000D03*
%TD*%
D27*
%TO.C,C13*%
X186870000Y-60703800D03*
X186870000Y-61663800D03*
%TD*%
D11*
%TO.C,C5*%
X189130000Y-61048800D03*
X189130000Y-61738800D03*
%TD*%
M02*
