%TF.GenerationSoftware,KiCad,Pcbnew,8.99.0-unknown-77b1d367df~178~ubuntu23.10.1*%
%TF.CreationDate,2024-10-31T14:46:16-04:00*%
%TF.ProjectId,nRF54L15_nPM2100_CR2032,6e524635-344c-4313-955f-6e504d323130,rev?*%
%TF.SameCoordinates,Original*%
%TF.FileFunction,Profile,NP*%
%FSLAX46Y46*%
G04 Gerber Fmt 4.6, Leading zero omitted, Abs format (unit mm)*
G04 Created by KiCad (PCBNEW 8.99.0-unknown-77b1d367df~178~ubuntu23.10.1) date 2024-10-31 14:46:16*
%MOMM*%
%LPD*%
G01*
G04 APERTURE LIST*
%TA.AperFunction,Profile*%
%ADD10C,0.050000*%
%TD*%
G04 APERTURE END LIST*
D10*
X175000000Y-52000000D02*
X178000000Y-52000000D01*
X188250000Y-43292893D02*
G75*
G02*
X189000007Y-44042893I0J-750007D01*
G01*
X174000000Y-57000000D02*
X174000000Y-53000000D01*
X193000000Y-71000000D02*
G75*
G02*
X192000000Y-72000000I-1000000J0D01*
G01*
X191000000Y-44042893D02*
G75*
G02*
X191750000Y-43292900I750000J-7D01*
G01*
X205000000Y-52000000D02*
G75*
G02*
X206000000Y-53000000I0J-1000000D01*
G01*
X189750000Y-44800000D02*
G75*
G02*
X189000000Y-44050000I0J750000D01*
G01*
X175000000Y-58000000D02*
G75*
G02*
X174000000Y-57000000I0J1000000D01*
G01*
X177585786Y-58000000D02*
X175000000Y-58000000D01*
X193000000Y-67414214D02*
G75*
G02*
X193292886Y-66707100I1000000J14D01*
G01*
X193171572Y-43585786D02*
X201292893Y-51707107D01*
X174000000Y-53000000D02*
G75*
G02*
X175000000Y-52000000I1000000J0D01*
G01*
X186707107Y-66707107D02*
X178292893Y-58292893D01*
X192464465Y-43292893D02*
G75*
G02*
X193171549Y-43585809I35J-999807D01*
G01*
X202414214Y-58000000D02*
X205000000Y-58000000D01*
X187535535Y-43292893D02*
X188250000Y-43292893D01*
X193000000Y-71000000D02*
X193000000Y-67414214D01*
X190000000Y-72000000D02*
X188000000Y-72000000D01*
X206000000Y-57000000D02*
G75*
G02*
X205000000Y-58000000I-1000000J0D01*
G01*
X202000000Y-52000000D02*
G75*
G02*
X201292914Y-51707086I0J999900D01*
G01*
X193292893Y-66707107D02*
X201707107Y-58292893D01*
X206000000Y-57000000D02*
X206000000Y-53000000D01*
X191000000Y-44042893D02*
X191000000Y-44050000D01*
X191750000Y-43292893D02*
X192464465Y-43292893D01*
X190000000Y-72000000D02*
X192000000Y-72000000D01*
X188000000Y-72000000D02*
G75*
G02*
X187000000Y-71000000I0J1000000D01*
G01*
X186828428Y-43585786D02*
X178707107Y-51707107D01*
X186707107Y-66707107D02*
G75*
G02*
X186999961Y-67414214I-707207J-707093D01*
G01*
X201707107Y-58292893D02*
G75*
G02*
X202414214Y-58000039I707093J-707207D01*
G01*
X191000000Y-44050000D02*
G75*
G02*
X190250000Y-44800000I-750000J0D01*
G01*
X187000000Y-71000000D02*
X187000000Y-67414214D01*
X177585786Y-58000000D02*
G75*
G02*
X178292900Y-58292886I14J-1000000D01*
G01*
X205000000Y-52000000D02*
X202000000Y-52000000D01*
X190250000Y-44800000D02*
X189750000Y-44800000D01*
X189000000Y-44042893D02*
X189000000Y-44050000D01*
X186828428Y-43585786D02*
G75*
G02*
X187535535Y-43292878I707172J-707214D01*
G01*
X178707107Y-51707107D02*
G75*
G02*
X178000000Y-51999983I-707207J707407D01*
G01*
M02*
