%TF.GenerationSoftware,KiCad,Pcbnew,8.99.0-unknown-ce20689caf~181~ubuntu24.04.1*%
%TF.CreationDate,2024-12-06T11:41:52-05:00*%
%TF.ProjectId,nRF54L15_nPM2100_CR2032,6e524635-344c-4313-955f-6e504d323130,rev?*%
%TF.SameCoordinates,Original*%
%TF.FileFunction,Other,Comment*%
%FSLAX46Y46*%
G04 Gerber Fmt 4.6, Leading zero omitted, Abs format (unit mm)*
G04 Created by KiCad (PCBNEW 8.99.0-unknown-ce20689caf~181~ubuntu24.04.1) date 2024-12-06 11:41:52*
%MOMM*%
%LPD*%
G01*
G04 APERTURE LIST*
%ADD10C,0.070000*%
G04 APERTURE END LIST*
D10*
X196452808Y-60403740D02*
X196169965Y-60120897D01*
X196614432Y-60242116D02*
X196331590Y-60201710D01*
X196331590Y-59959273D02*
X196331590Y-60282522D01*
X196587495Y-59972742D02*
X196681776Y-59878461D01*
X196870338Y-59986210D02*
X196735651Y-60120897D01*
X196735651Y-60120897D02*
X196452808Y-59838055D01*
X196452808Y-59838055D02*
X196587495Y-59703368D01*
X196843401Y-59716836D02*
X196937681Y-59622555D01*
X197126243Y-59730305D02*
X196991556Y-59864992D01*
X196991556Y-59864992D02*
X196708714Y-59582149D01*
X196708714Y-59582149D02*
X196843401Y-59447462D01*
X197247462Y-59609086D02*
X196964619Y-59326244D01*
X196964619Y-59326244D02*
X197072369Y-59218494D01*
X197072369Y-59218494D02*
X197112775Y-59205025D01*
X197112775Y-59205025D02*
X197139712Y-59205025D01*
X197139712Y-59205025D02*
X197180118Y-59218494D01*
X197180118Y-59218494D02*
X197220524Y-59258900D01*
X197220524Y-59258900D02*
X197233993Y-59299306D01*
X197233993Y-59299306D02*
X197233993Y-59326244D01*
X197233993Y-59326244D02*
X197220524Y-59366650D01*
X197220524Y-59366650D02*
X197112775Y-59474399D01*
X197301337Y-58989526D02*
X197355211Y-58935651D01*
X197355211Y-58935651D02*
X197395617Y-58922183D01*
X197395617Y-58922183D02*
X197449492Y-58922183D01*
X197449492Y-58922183D02*
X197516836Y-58962589D01*
X197516836Y-58962589D02*
X197611117Y-59056870D01*
X197611117Y-59056870D02*
X197651523Y-59124213D01*
X197651523Y-59124213D02*
X197651523Y-59178088D01*
X197651523Y-59178088D02*
X197638054Y-59218494D01*
X197638054Y-59218494D02*
X197584179Y-59272369D01*
X197584179Y-59272369D02*
X197543773Y-59285838D01*
X197543773Y-59285838D02*
X197489898Y-59285838D01*
X197489898Y-59285838D02*
X197422555Y-59245431D01*
X197422555Y-59245431D02*
X197328274Y-59151151D01*
X197328274Y-59151151D02*
X197287868Y-59083807D01*
X197287868Y-59083807D02*
X197287868Y-59029932D01*
X197287868Y-59029932D02*
X197301337Y-58989526D01*
X197543773Y-58747089D02*
X197772741Y-58976057D01*
X197772741Y-58976057D02*
X197813147Y-58989526D01*
X197813147Y-58989526D02*
X197840085Y-58989526D01*
X197840085Y-58989526D02*
X197880491Y-58976057D01*
X197880491Y-58976057D02*
X197934366Y-58922182D01*
X197934366Y-58922182D02*
X197947834Y-58881776D01*
X197947834Y-58881776D02*
X197947834Y-58854839D01*
X197947834Y-58854839D02*
X197934366Y-58814433D01*
X197934366Y-58814433D02*
X197705398Y-58585465D01*
X197799679Y-58491184D02*
X197961303Y-58329559D01*
X198163334Y-58693214D02*
X197880491Y-58410372D01*
M02*
