G04 #@! TF.GenerationSoftware,KiCad,Pcbnew,9.0.0-rc2-3baa6cd791~182~ubuntu24.04.1*
G04 #@! TF.CreationDate,2025-02-06T23:09:26-05:00*
G04 #@! TF.ProjectId,PCA20073_Tiny_Board,50434132-3030-4373-935f-54696e795f42,rev?*
G04 #@! TF.SameCoordinates,PX82a22f1PY713a4f2*
G04 #@! TF.FileFunction,Paste,Top*
G04 #@! TF.FilePolarity,Positive*
%FSLAX46Y46*%
G04 Gerber Fmt 4.6, Leading zero omitted, Abs format (unit mm)*
G04 Created by KiCad (PCBNEW 9.0.0-rc2-3baa6cd791~182~ubuntu24.04.1) date 2025-02-06 23:09:26*
%MOMM*%
%LPD*%
G01*
G04 APERTURE LIST*
%ADD10C,0.100000*%
%ADD11C,0.150000*%
%ADD12C,0.300000*%
%ADD13C,0.400000*%
%ADD14C,0.170000*%
G04 APERTURE END LIST*
D10*
D11*
X40023015Y-47279278D02*
X148023015Y-47279278D01*
X148023015Y-79279278D01*
X40023015Y-79279278D01*
X40023015Y-47279278D01*
D10*
D11*
X-126979185Y108727922D02*
X150023015Y108727922D01*
X150023015Y-81279278D01*
X-126979185Y-81279278D01*
X-126979185Y108727922D01*
D10*
D11*
X-124979185Y106727922D02*
X148023015Y106727922D01*
X148023015Y-79279278D01*
X-124979185Y-79279278D01*
X-124979185Y106727922D01*
D10*
D11*
X-76979185Y106727922D02*
X-76979185Y108727922D01*
D10*
D11*
X-26979185Y106727922D02*
X-26979185Y108727922D01*
D10*
D11*
X23020815Y106727922D02*
X23020815Y108727922D01*
D10*
D11*
X73020815Y106727922D02*
X73020815Y108727922D01*
D10*
D11*
X123020815Y106727922D02*
X123020815Y108727922D01*
D10*
D11*
X-100890025Y107134318D02*
X-101632882Y107134318D01*
X-101261454Y107134318D02*
X-101261454Y108434318D01*
X-101261454Y108434318D02*
X-101385263Y108248603D01*
X-101385263Y108248603D02*
X-101509073Y108124794D01*
X-101509073Y108124794D02*
X-101632882Y108062889D01*
D10*
D11*
X-51632882Y108310508D02*
X-51570978Y108372413D01*
X-51570978Y108372413D02*
X-51447168Y108434318D01*
X-51447168Y108434318D02*
X-51137644Y108434318D01*
X-51137644Y108434318D02*
X-51013835Y108372413D01*
X-51013835Y108372413D02*
X-50951930Y108310508D01*
X-50951930Y108310508D02*
X-50890025Y108186699D01*
X-50890025Y108186699D02*
X-50890025Y108062889D01*
X-50890025Y108062889D02*
X-50951930Y107877175D01*
X-50951930Y107877175D02*
X-51694787Y107134318D01*
X-51694787Y107134318D02*
X-50890025Y107134318D01*
D10*
D11*
X-1694787Y108434318D02*
X-890025Y108434318D01*
X-890025Y108434318D02*
X-1323359Y107939080D01*
X-1323359Y107939080D02*
X-1137644Y107939080D01*
X-1137644Y107939080D02*
X-1013835Y107877175D01*
X-1013835Y107877175D02*
X-951930Y107815270D01*
X-951930Y107815270D02*
X-890025Y107691461D01*
X-890025Y107691461D02*
X-890025Y107381937D01*
X-890025Y107381937D02*
X-951930Y107258127D01*
X-951930Y107258127D02*
X-1013835Y107196222D01*
X-1013835Y107196222D02*
X-1137644Y107134318D01*
X-1137644Y107134318D02*
X-1509073Y107134318D01*
X-1509073Y107134318D02*
X-1632882Y107196222D01*
X-1632882Y107196222D02*
X-1694787Y107258127D01*
D10*
D11*
X48986165Y108000984D02*
X48986165Y107134318D01*
X48676641Y108496222D02*
X48367118Y107567651D01*
X48367118Y107567651D02*
X49171879Y107567651D01*
D10*
D11*
X99048070Y108434318D02*
X98429022Y108434318D01*
X98429022Y108434318D02*
X98367118Y107815270D01*
X98367118Y107815270D02*
X98429022Y107877175D01*
X98429022Y107877175D02*
X98552832Y107939080D01*
X98552832Y107939080D02*
X98862356Y107939080D01*
X98862356Y107939080D02*
X98986165Y107877175D01*
X98986165Y107877175D02*
X99048070Y107815270D01*
X99048070Y107815270D02*
X99109975Y107691461D01*
X99109975Y107691461D02*
X99109975Y107381937D01*
X99109975Y107381937D02*
X99048070Y107258127D01*
X99048070Y107258127D02*
X98986165Y107196222D01*
X98986165Y107196222D02*
X98862356Y107134318D01*
X98862356Y107134318D02*
X98552832Y107134318D01*
X98552832Y107134318D02*
X98429022Y107196222D01*
X98429022Y107196222D02*
X98367118Y107258127D01*
D10*
D11*
X148986165Y108434318D02*
X148738546Y108434318D01*
X148738546Y108434318D02*
X148614737Y108372413D01*
X148614737Y108372413D02*
X148552832Y108310508D01*
X148552832Y108310508D02*
X148429022Y108124794D01*
X148429022Y108124794D02*
X148367118Y107877175D01*
X148367118Y107877175D02*
X148367118Y107381937D01*
X148367118Y107381937D02*
X148429022Y107258127D01*
X148429022Y107258127D02*
X148490927Y107196222D01*
X148490927Y107196222D02*
X148614737Y107134318D01*
X148614737Y107134318D02*
X148862356Y107134318D01*
X148862356Y107134318D02*
X148986165Y107196222D01*
X148986165Y107196222D02*
X149048070Y107258127D01*
X149048070Y107258127D02*
X149109975Y107381937D01*
X149109975Y107381937D02*
X149109975Y107691461D01*
X149109975Y107691461D02*
X149048070Y107815270D01*
X149048070Y107815270D02*
X148986165Y107877175D01*
X148986165Y107877175D02*
X148862356Y107939080D01*
X148862356Y107939080D02*
X148614737Y107939080D01*
X148614737Y107939080D02*
X148490927Y107877175D01*
X148490927Y107877175D02*
X148429022Y107815270D01*
X148429022Y107815270D02*
X148367118Y107691461D01*
D10*
D11*
X-76979185Y-79279278D02*
X-76979185Y-81279278D01*
D10*
D11*
X-26979185Y-79279278D02*
X-26979185Y-81279278D01*
D10*
D11*
X23020815Y-79279278D02*
X23020815Y-81279278D01*
D10*
D11*
X73020815Y-79279278D02*
X73020815Y-81279278D01*
D10*
D11*
X123020815Y-79279278D02*
X123020815Y-81279278D01*
D10*
D11*
X-100890025Y-80872882D02*
X-101632882Y-80872882D01*
X-101261454Y-80872882D02*
X-101261454Y-79572882D01*
X-101261454Y-79572882D02*
X-101385263Y-79758597D01*
X-101385263Y-79758597D02*
X-101509073Y-79882406D01*
X-101509073Y-79882406D02*
X-101632882Y-79944311D01*
D10*
D11*
X-51632882Y-79696692D02*
X-51570978Y-79634787D01*
X-51570978Y-79634787D02*
X-51447168Y-79572882D01*
X-51447168Y-79572882D02*
X-51137644Y-79572882D01*
X-51137644Y-79572882D02*
X-51013835Y-79634787D01*
X-51013835Y-79634787D02*
X-50951930Y-79696692D01*
X-50951930Y-79696692D02*
X-50890025Y-79820501D01*
X-50890025Y-79820501D02*
X-50890025Y-79944311D01*
X-50890025Y-79944311D02*
X-50951930Y-80130025D01*
X-50951930Y-80130025D02*
X-51694787Y-80872882D01*
X-51694787Y-80872882D02*
X-50890025Y-80872882D01*
D10*
D11*
X-1694787Y-79572882D02*
X-890025Y-79572882D01*
X-890025Y-79572882D02*
X-1323359Y-80068120D01*
X-1323359Y-80068120D02*
X-1137644Y-80068120D01*
X-1137644Y-80068120D02*
X-1013835Y-80130025D01*
X-1013835Y-80130025D02*
X-951930Y-80191930D01*
X-951930Y-80191930D02*
X-890025Y-80315739D01*
X-890025Y-80315739D02*
X-890025Y-80625263D01*
X-890025Y-80625263D02*
X-951930Y-80749073D01*
X-951930Y-80749073D02*
X-1013835Y-80810978D01*
X-1013835Y-80810978D02*
X-1137644Y-80872882D01*
X-1137644Y-80872882D02*
X-1509073Y-80872882D01*
X-1509073Y-80872882D02*
X-1632882Y-80810978D01*
X-1632882Y-80810978D02*
X-1694787Y-80749073D01*
D10*
D11*
X48986165Y-80006216D02*
X48986165Y-80872882D01*
X48676641Y-79510978D02*
X48367118Y-80439549D01*
X48367118Y-80439549D02*
X49171879Y-80439549D01*
D10*
D11*
X99048070Y-79572882D02*
X98429022Y-79572882D01*
X98429022Y-79572882D02*
X98367118Y-80191930D01*
X98367118Y-80191930D02*
X98429022Y-80130025D01*
X98429022Y-80130025D02*
X98552832Y-80068120D01*
X98552832Y-80068120D02*
X98862356Y-80068120D01*
X98862356Y-80068120D02*
X98986165Y-80130025D01*
X98986165Y-80130025D02*
X99048070Y-80191930D01*
X99048070Y-80191930D02*
X99109975Y-80315739D01*
X99109975Y-80315739D02*
X99109975Y-80625263D01*
X99109975Y-80625263D02*
X99048070Y-80749073D01*
X99048070Y-80749073D02*
X98986165Y-80810978D01*
X98986165Y-80810978D02*
X98862356Y-80872882D01*
X98862356Y-80872882D02*
X98552832Y-80872882D01*
X98552832Y-80872882D02*
X98429022Y-80810978D01*
X98429022Y-80810978D02*
X98367118Y-80749073D01*
D10*
D11*
X148986165Y-79572882D02*
X148738546Y-79572882D01*
X148738546Y-79572882D02*
X148614737Y-79634787D01*
X148614737Y-79634787D02*
X148552832Y-79696692D01*
X148552832Y-79696692D02*
X148429022Y-79882406D01*
X148429022Y-79882406D02*
X148367118Y-80130025D01*
X148367118Y-80130025D02*
X148367118Y-80625263D01*
X148367118Y-80625263D02*
X148429022Y-80749073D01*
X148429022Y-80749073D02*
X148490927Y-80810978D01*
X148490927Y-80810978D02*
X148614737Y-80872882D01*
X148614737Y-80872882D02*
X148862356Y-80872882D01*
X148862356Y-80872882D02*
X148986165Y-80810978D01*
X148986165Y-80810978D02*
X149048070Y-80749073D01*
X149048070Y-80749073D02*
X149109975Y-80625263D01*
X149109975Y-80625263D02*
X149109975Y-80315739D01*
X149109975Y-80315739D02*
X149048070Y-80191930D01*
X149048070Y-80191930D02*
X148986165Y-80130025D01*
X148986165Y-80130025D02*
X148862356Y-80068120D01*
X148862356Y-80068120D02*
X148614737Y-80068120D01*
X148614737Y-80068120D02*
X148490927Y-80130025D01*
X148490927Y-80130025D02*
X148429022Y-80191930D01*
X148429022Y-80191930D02*
X148367118Y-80315739D01*
D10*
D11*
X-126979185Y58727922D02*
X-124979185Y58727922D01*
D10*
D11*
X-126979185Y8727922D02*
X-124979185Y8727922D01*
D10*
D11*
X-126979185Y-41272078D02*
X-124979185Y-41272078D01*
D10*
D11*
X-126288709Y83505746D02*
X-125669662Y83505746D01*
X-126412519Y83134318D02*
X-125979186Y84434318D01*
X-125979186Y84434318D02*
X-125545852Y83134318D01*
D10*
D11*
X-125886328Y33815270D02*
X-125700614Y33753365D01*
X-125700614Y33753365D02*
X-125638709Y33691461D01*
X-125638709Y33691461D02*
X-125576805Y33567651D01*
X-125576805Y33567651D02*
X-125576805Y33381937D01*
X-125576805Y33381937D02*
X-125638709Y33258127D01*
X-125638709Y33258127D02*
X-125700614Y33196222D01*
X-125700614Y33196222D02*
X-125824424Y33134318D01*
X-125824424Y33134318D02*
X-126319662Y33134318D01*
X-126319662Y33134318D02*
X-126319662Y34434318D01*
X-126319662Y34434318D02*
X-125886328Y34434318D01*
X-125886328Y34434318D02*
X-125762519Y34372413D01*
X-125762519Y34372413D02*
X-125700614Y34310508D01*
X-125700614Y34310508D02*
X-125638709Y34186699D01*
X-125638709Y34186699D02*
X-125638709Y34062889D01*
X-125638709Y34062889D02*
X-125700614Y33939080D01*
X-125700614Y33939080D02*
X-125762519Y33877175D01*
X-125762519Y33877175D02*
X-125886328Y33815270D01*
X-125886328Y33815270D02*
X-126319662Y33815270D01*
D10*
D11*
X-125576805Y-16741873D02*
X-125638709Y-16803778D01*
X-125638709Y-16803778D02*
X-125824424Y-16865682D01*
X-125824424Y-16865682D02*
X-125948233Y-16865682D01*
X-125948233Y-16865682D02*
X-126133947Y-16803778D01*
X-126133947Y-16803778D02*
X-126257757Y-16679968D01*
X-126257757Y-16679968D02*
X-126319662Y-16556158D01*
X-126319662Y-16556158D02*
X-126381566Y-16308539D01*
X-126381566Y-16308539D02*
X-126381566Y-16122825D01*
X-126381566Y-16122825D02*
X-126319662Y-15875206D01*
X-126319662Y-15875206D02*
X-126257757Y-15751397D01*
X-126257757Y-15751397D02*
X-126133947Y-15627587D01*
X-126133947Y-15627587D02*
X-125948233Y-15565682D01*
X-125948233Y-15565682D02*
X-125824424Y-15565682D01*
X-125824424Y-15565682D02*
X-125638709Y-15627587D01*
X-125638709Y-15627587D02*
X-125576805Y-15689492D01*
D10*
D11*
X-126319662Y-66865682D02*
X-126319662Y-65565682D01*
X-126319662Y-65565682D02*
X-126010138Y-65565682D01*
X-126010138Y-65565682D02*
X-125824424Y-65627587D01*
X-125824424Y-65627587D02*
X-125700614Y-65751397D01*
X-125700614Y-65751397D02*
X-125638709Y-65875206D01*
X-125638709Y-65875206D02*
X-125576805Y-66122825D01*
X-125576805Y-66122825D02*
X-125576805Y-66308539D01*
X-125576805Y-66308539D02*
X-125638709Y-66556158D01*
X-125638709Y-66556158D02*
X-125700614Y-66679968D01*
X-125700614Y-66679968D02*
X-125824424Y-66803778D01*
X-125824424Y-66803778D02*
X-126010138Y-66865682D01*
X-126010138Y-66865682D02*
X-126319662Y-66865682D01*
D10*
D11*
X150023015Y58727922D02*
X148023015Y58727922D01*
D10*
D11*
X150023015Y8727922D02*
X148023015Y8727922D01*
D10*
D11*
X150023015Y-41272078D02*
X148023015Y-41272078D01*
D10*
D11*
X148713491Y83505746D02*
X149332538Y83505746D01*
X148589681Y83134318D02*
X149023014Y84434318D01*
X149023014Y84434318D02*
X149456348Y83134318D01*
D10*
D11*
X149115872Y33815270D02*
X149301586Y33753365D01*
X149301586Y33753365D02*
X149363491Y33691461D01*
X149363491Y33691461D02*
X149425395Y33567651D01*
X149425395Y33567651D02*
X149425395Y33381937D01*
X149425395Y33381937D02*
X149363491Y33258127D01*
X149363491Y33258127D02*
X149301586Y33196222D01*
X149301586Y33196222D02*
X149177776Y33134318D01*
X149177776Y33134318D02*
X148682538Y33134318D01*
X148682538Y33134318D02*
X148682538Y34434318D01*
X148682538Y34434318D02*
X149115872Y34434318D01*
X149115872Y34434318D02*
X149239681Y34372413D01*
X149239681Y34372413D02*
X149301586Y34310508D01*
X149301586Y34310508D02*
X149363491Y34186699D01*
X149363491Y34186699D02*
X149363491Y34062889D01*
X149363491Y34062889D02*
X149301586Y33939080D01*
X149301586Y33939080D02*
X149239681Y33877175D01*
X149239681Y33877175D02*
X149115872Y33815270D01*
X149115872Y33815270D02*
X148682538Y33815270D01*
D10*
D11*
X149425395Y-16741873D02*
X149363491Y-16803778D01*
X149363491Y-16803778D02*
X149177776Y-16865682D01*
X149177776Y-16865682D02*
X149053967Y-16865682D01*
X149053967Y-16865682D02*
X148868253Y-16803778D01*
X148868253Y-16803778D02*
X148744443Y-16679968D01*
X148744443Y-16679968D02*
X148682538Y-16556158D01*
X148682538Y-16556158D02*
X148620634Y-16308539D01*
X148620634Y-16308539D02*
X148620634Y-16122825D01*
X148620634Y-16122825D02*
X148682538Y-15875206D01*
X148682538Y-15875206D02*
X148744443Y-15751397D01*
X148744443Y-15751397D02*
X148868253Y-15627587D01*
X148868253Y-15627587D02*
X149053967Y-15565682D01*
X149053967Y-15565682D02*
X149177776Y-15565682D01*
X149177776Y-15565682D02*
X149363491Y-15627587D01*
X149363491Y-15627587D02*
X149425395Y-15689492D01*
D10*
D11*
X148682538Y-66865682D02*
X148682538Y-65565682D01*
X148682538Y-65565682D02*
X148992062Y-65565682D01*
X148992062Y-65565682D02*
X149177776Y-65627587D01*
X149177776Y-65627587D02*
X149301586Y-65751397D01*
X149301586Y-65751397D02*
X149363491Y-65875206D01*
X149363491Y-65875206D02*
X149425395Y-66122825D01*
X149425395Y-66122825D02*
X149425395Y-66308539D01*
X149425395Y-66308539D02*
X149363491Y-66556158D01*
X149363491Y-66556158D02*
X149301586Y-66679968D01*
X149301586Y-66679968D02*
X149177776Y-66803778D01*
X149177776Y-66803778D02*
X148992062Y-66865682D01*
X148992062Y-66865682D02*
X148682538Y-66865682D01*
D10*
D11*
X63478841Y-75065406D02*
X63478841Y-73565406D01*
X63478841Y-73565406D02*
X63835984Y-73565406D01*
X63835984Y-73565406D02*
X64050270Y-73636835D01*
X64050270Y-73636835D02*
X64193127Y-73779692D01*
X64193127Y-73779692D02*
X64264556Y-73922549D01*
X64264556Y-73922549D02*
X64335984Y-74208263D01*
X64335984Y-74208263D02*
X64335984Y-74422549D01*
X64335984Y-74422549D02*
X64264556Y-74708263D01*
X64264556Y-74708263D02*
X64193127Y-74851120D01*
X64193127Y-74851120D02*
X64050270Y-74993978D01*
X64050270Y-74993978D02*
X63835984Y-75065406D01*
X63835984Y-75065406D02*
X63478841Y-75065406D01*
X65621699Y-75065406D02*
X65621699Y-74279692D01*
X65621699Y-74279692D02*
X65550270Y-74136835D01*
X65550270Y-74136835D02*
X65407413Y-74065406D01*
X65407413Y-74065406D02*
X65121699Y-74065406D01*
X65121699Y-74065406D02*
X64978841Y-74136835D01*
X65621699Y-74993978D02*
X65478841Y-75065406D01*
X65478841Y-75065406D02*
X65121699Y-75065406D01*
X65121699Y-75065406D02*
X64978841Y-74993978D01*
X64978841Y-74993978D02*
X64907413Y-74851120D01*
X64907413Y-74851120D02*
X64907413Y-74708263D01*
X64907413Y-74708263D02*
X64978841Y-74565406D01*
X64978841Y-74565406D02*
X65121699Y-74493978D01*
X65121699Y-74493978D02*
X65478841Y-74493978D01*
X65478841Y-74493978D02*
X65621699Y-74422549D01*
X66121699Y-74065406D02*
X66693127Y-74065406D01*
X66335984Y-73565406D02*
X66335984Y-74851120D01*
X66335984Y-74851120D02*
X66407413Y-74993978D01*
X66407413Y-74993978D02*
X66550270Y-75065406D01*
X66550270Y-75065406D02*
X66693127Y-75065406D01*
X67764556Y-74993978D02*
X67621699Y-75065406D01*
X67621699Y-75065406D02*
X67335985Y-75065406D01*
X67335985Y-75065406D02*
X67193127Y-74993978D01*
X67193127Y-74993978D02*
X67121699Y-74851120D01*
X67121699Y-74851120D02*
X67121699Y-74279692D01*
X67121699Y-74279692D02*
X67193127Y-74136835D01*
X67193127Y-74136835D02*
X67335985Y-74065406D01*
X67335985Y-74065406D02*
X67621699Y-74065406D01*
X67621699Y-74065406D02*
X67764556Y-74136835D01*
X67764556Y-74136835D02*
X67835985Y-74279692D01*
X67835985Y-74279692D02*
X67835985Y-74422549D01*
X67835985Y-74422549D02*
X67121699Y-74565406D01*
X68478841Y-74922549D02*
X68550270Y-74993978D01*
X68550270Y-74993978D02*
X68478841Y-75065406D01*
X68478841Y-75065406D02*
X68407413Y-74993978D01*
X68407413Y-74993978D02*
X68478841Y-74922549D01*
X68478841Y-74922549D02*
X68478841Y-75065406D01*
X68478841Y-74136835D02*
X68550270Y-74208263D01*
X68550270Y-74208263D02*
X68478841Y-74279692D01*
X68478841Y-74279692D02*
X68407413Y-74208263D01*
X68407413Y-74208263D02*
X68478841Y-74136835D01*
X68478841Y-74136835D02*
X68478841Y-74279692D01*
D10*
D11*
X40023015Y-75779278D02*
X148023015Y-75779278D01*
D10*
D11*
X41478841Y-77865406D02*
X41478841Y-76365406D01*
X42335984Y-77865406D02*
X41693127Y-77008263D01*
X42335984Y-76365406D02*
X41478841Y-77222549D01*
X42978841Y-77865406D02*
X42978841Y-76865406D01*
X42978841Y-76365406D02*
X42907413Y-76436835D01*
X42907413Y-76436835D02*
X42978841Y-76508263D01*
X42978841Y-76508263D02*
X43050270Y-76436835D01*
X43050270Y-76436835D02*
X42978841Y-76365406D01*
X42978841Y-76365406D02*
X42978841Y-76508263D01*
X44550270Y-77722549D02*
X44478842Y-77793978D01*
X44478842Y-77793978D02*
X44264556Y-77865406D01*
X44264556Y-77865406D02*
X44121699Y-77865406D01*
X44121699Y-77865406D02*
X43907413Y-77793978D01*
X43907413Y-77793978D02*
X43764556Y-77651120D01*
X43764556Y-77651120D02*
X43693127Y-77508263D01*
X43693127Y-77508263D02*
X43621699Y-77222549D01*
X43621699Y-77222549D02*
X43621699Y-77008263D01*
X43621699Y-77008263D02*
X43693127Y-76722549D01*
X43693127Y-76722549D02*
X43764556Y-76579692D01*
X43764556Y-76579692D02*
X43907413Y-76436835D01*
X43907413Y-76436835D02*
X44121699Y-76365406D01*
X44121699Y-76365406D02*
X44264556Y-76365406D01*
X44264556Y-76365406D02*
X44478842Y-76436835D01*
X44478842Y-76436835D02*
X44550270Y-76508263D01*
X45835985Y-77865406D02*
X45835985Y-77079692D01*
X45835985Y-77079692D02*
X45764556Y-76936835D01*
X45764556Y-76936835D02*
X45621699Y-76865406D01*
X45621699Y-76865406D02*
X45335985Y-76865406D01*
X45335985Y-76865406D02*
X45193127Y-76936835D01*
X45835985Y-77793978D02*
X45693127Y-77865406D01*
X45693127Y-77865406D02*
X45335985Y-77865406D01*
X45335985Y-77865406D02*
X45193127Y-77793978D01*
X45193127Y-77793978D02*
X45121699Y-77651120D01*
X45121699Y-77651120D02*
X45121699Y-77508263D01*
X45121699Y-77508263D02*
X45193127Y-77365406D01*
X45193127Y-77365406D02*
X45335985Y-77293978D01*
X45335985Y-77293978D02*
X45693127Y-77293978D01*
X45693127Y-77293978D02*
X45835985Y-77222549D01*
X47193128Y-77865406D02*
X47193128Y-76365406D01*
X47193128Y-77793978D02*
X47050270Y-77865406D01*
X47050270Y-77865406D02*
X46764556Y-77865406D01*
X46764556Y-77865406D02*
X46621699Y-77793978D01*
X46621699Y-77793978D02*
X46550270Y-77722549D01*
X46550270Y-77722549D02*
X46478842Y-77579692D01*
X46478842Y-77579692D02*
X46478842Y-77151120D01*
X46478842Y-77151120D02*
X46550270Y-77008263D01*
X46550270Y-77008263D02*
X46621699Y-76936835D01*
X46621699Y-76936835D02*
X46764556Y-76865406D01*
X46764556Y-76865406D02*
X47050270Y-76865406D01*
X47050270Y-76865406D02*
X47193128Y-76936835D01*
X49050270Y-77079692D02*
X49550270Y-77079692D01*
X49764556Y-77865406D02*
X49050270Y-77865406D01*
X49050270Y-77865406D02*
X49050270Y-76365406D01*
X49050270Y-76365406D02*
X49764556Y-76365406D01*
X50407413Y-77722549D02*
X50478842Y-77793978D01*
X50478842Y-77793978D02*
X50407413Y-77865406D01*
X50407413Y-77865406D02*
X50335985Y-77793978D01*
X50335985Y-77793978D02*
X50407413Y-77722549D01*
X50407413Y-77722549D02*
X50407413Y-77865406D01*
X51121699Y-77865406D02*
X51121699Y-76365406D01*
X51121699Y-76365406D02*
X51478842Y-76365406D01*
X51478842Y-76365406D02*
X51693128Y-76436835D01*
X51693128Y-76436835D02*
X51835985Y-76579692D01*
X51835985Y-76579692D02*
X51907414Y-76722549D01*
X51907414Y-76722549D02*
X51978842Y-77008263D01*
X51978842Y-77008263D02*
X51978842Y-77222549D01*
X51978842Y-77222549D02*
X51907414Y-77508263D01*
X51907414Y-77508263D02*
X51835985Y-77651120D01*
X51835985Y-77651120D02*
X51693128Y-77793978D01*
X51693128Y-77793978D02*
X51478842Y-77865406D01*
X51478842Y-77865406D02*
X51121699Y-77865406D01*
X52621699Y-77722549D02*
X52693128Y-77793978D01*
X52693128Y-77793978D02*
X52621699Y-77865406D01*
X52621699Y-77865406D02*
X52550271Y-77793978D01*
X52550271Y-77793978D02*
X52621699Y-77722549D01*
X52621699Y-77722549D02*
X52621699Y-77865406D01*
X53264557Y-77436835D02*
X53978843Y-77436835D01*
X53121700Y-77865406D02*
X53621700Y-76365406D01*
X53621700Y-76365406D02*
X54121700Y-77865406D01*
X54621699Y-77722549D02*
X54693128Y-77793978D01*
X54693128Y-77793978D02*
X54621699Y-77865406D01*
X54621699Y-77865406D02*
X54550271Y-77793978D01*
X54550271Y-77793978D02*
X54621699Y-77722549D01*
X54621699Y-77722549D02*
X54621699Y-77865406D01*
X56550271Y-77865406D02*
X56835985Y-77865406D01*
X56835985Y-77865406D02*
X56978842Y-77793978D01*
X56978842Y-77793978D02*
X57050271Y-77722549D01*
X57050271Y-77722549D02*
X57193128Y-77508263D01*
X57193128Y-77508263D02*
X57264557Y-77222549D01*
X57264557Y-77222549D02*
X57264557Y-76651120D01*
X57264557Y-76651120D02*
X57193128Y-76508263D01*
X57193128Y-76508263D02*
X57121700Y-76436835D01*
X57121700Y-76436835D02*
X56978842Y-76365406D01*
X56978842Y-76365406D02*
X56693128Y-76365406D01*
X56693128Y-76365406D02*
X56550271Y-76436835D01*
X56550271Y-76436835D02*
X56478842Y-76508263D01*
X56478842Y-76508263D02*
X56407414Y-76651120D01*
X56407414Y-76651120D02*
X56407414Y-77008263D01*
X56407414Y-77008263D02*
X56478842Y-77151120D01*
X56478842Y-77151120D02*
X56550271Y-77222549D01*
X56550271Y-77222549D02*
X56693128Y-77293978D01*
X56693128Y-77293978D02*
X56978842Y-77293978D01*
X56978842Y-77293978D02*
X57121700Y-77222549D01*
X57121700Y-77222549D02*
X57193128Y-77151120D01*
X57193128Y-77151120D02*
X57264557Y-77008263D01*
X57907413Y-77722549D02*
X57978842Y-77793978D01*
X57978842Y-77793978D02*
X57907413Y-77865406D01*
X57907413Y-77865406D02*
X57835985Y-77793978D01*
X57835985Y-77793978D02*
X57907413Y-77722549D01*
X57907413Y-77722549D02*
X57907413Y-77865406D01*
X58907414Y-76365406D02*
X59050271Y-76365406D01*
X59050271Y-76365406D02*
X59193128Y-76436835D01*
X59193128Y-76436835D02*
X59264557Y-76508263D01*
X59264557Y-76508263D02*
X59335985Y-76651120D01*
X59335985Y-76651120D02*
X59407414Y-76936835D01*
X59407414Y-76936835D02*
X59407414Y-77293978D01*
X59407414Y-77293978D02*
X59335985Y-77579692D01*
X59335985Y-77579692D02*
X59264557Y-77722549D01*
X59264557Y-77722549D02*
X59193128Y-77793978D01*
X59193128Y-77793978D02*
X59050271Y-77865406D01*
X59050271Y-77865406D02*
X58907414Y-77865406D01*
X58907414Y-77865406D02*
X58764557Y-77793978D01*
X58764557Y-77793978D02*
X58693128Y-77722549D01*
X58693128Y-77722549D02*
X58621699Y-77579692D01*
X58621699Y-77579692D02*
X58550271Y-77293978D01*
X58550271Y-77293978D02*
X58550271Y-76936835D01*
X58550271Y-76936835D02*
X58621699Y-76651120D01*
X58621699Y-76651120D02*
X58693128Y-76508263D01*
X58693128Y-76508263D02*
X58764557Y-76436835D01*
X58764557Y-76436835D02*
X58907414Y-76365406D01*
X60050270Y-77722549D02*
X60121699Y-77793978D01*
X60121699Y-77793978D02*
X60050270Y-77865406D01*
X60050270Y-77865406D02*
X59978842Y-77793978D01*
X59978842Y-77793978D02*
X60050270Y-77722549D01*
X60050270Y-77722549D02*
X60050270Y-77865406D01*
X61050271Y-76365406D02*
X61193128Y-76365406D01*
X61193128Y-76365406D02*
X61335985Y-76436835D01*
X61335985Y-76436835D02*
X61407414Y-76508263D01*
X61407414Y-76508263D02*
X61478842Y-76651120D01*
X61478842Y-76651120D02*
X61550271Y-76936835D01*
X61550271Y-76936835D02*
X61550271Y-77293978D01*
X61550271Y-77293978D02*
X61478842Y-77579692D01*
X61478842Y-77579692D02*
X61407414Y-77722549D01*
X61407414Y-77722549D02*
X61335985Y-77793978D01*
X61335985Y-77793978D02*
X61193128Y-77865406D01*
X61193128Y-77865406D02*
X61050271Y-77865406D01*
X61050271Y-77865406D02*
X60907414Y-77793978D01*
X60907414Y-77793978D02*
X60835985Y-77722549D01*
X60835985Y-77722549D02*
X60764556Y-77579692D01*
X60764556Y-77579692D02*
X60693128Y-77293978D01*
X60693128Y-77293978D02*
X60693128Y-76936835D01*
X60693128Y-76936835D02*
X60764556Y-76651120D01*
X60764556Y-76651120D02*
X60835985Y-76508263D01*
X60835985Y-76508263D02*
X60907414Y-76436835D01*
X60907414Y-76436835D02*
X61050271Y-76365406D01*
X62193127Y-77293978D02*
X63335985Y-77293978D01*
X64050270Y-77865406D02*
X64050270Y-76865406D01*
X64050270Y-77151120D02*
X64121699Y-77008263D01*
X64121699Y-77008263D02*
X64193128Y-76936835D01*
X64193128Y-76936835D02*
X64335985Y-76865406D01*
X64335985Y-76865406D02*
X64478842Y-76865406D01*
X65621699Y-77793978D02*
X65478841Y-77865406D01*
X65478841Y-77865406D02*
X65193127Y-77865406D01*
X65193127Y-77865406D02*
X65050270Y-77793978D01*
X65050270Y-77793978D02*
X64978841Y-77722549D01*
X64978841Y-77722549D02*
X64907413Y-77579692D01*
X64907413Y-77579692D02*
X64907413Y-77151120D01*
X64907413Y-77151120D02*
X64978841Y-77008263D01*
X64978841Y-77008263D02*
X65050270Y-76936835D01*
X65050270Y-76936835D02*
X65193127Y-76865406D01*
X65193127Y-76865406D02*
X65478841Y-76865406D01*
X65478841Y-76865406D02*
X65621699Y-76936835D01*
X66193127Y-76508263D02*
X66264555Y-76436835D01*
X66264555Y-76436835D02*
X66407413Y-76365406D01*
X66407413Y-76365406D02*
X66764555Y-76365406D01*
X66764555Y-76365406D02*
X66907413Y-76436835D01*
X66907413Y-76436835D02*
X66978841Y-76508263D01*
X66978841Y-76508263D02*
X67050270Y-76651120D01*
X67050270Y-76651120D02*
X67050270Y-76793978D01*
X67050270Y-76793978D02*
X66978841Y-77008263D01*
X66978841Y-77008263D02*
X66121698Y-77865406D01*
X66121698Y-77865406D02*
X67050270Y-77865406D01*
D10*
D11*
X40023015Y-72779278D02*
X148023015Y-72779278D01*
D10*
D12*
X127434668Y-75057606D02*
X126934668Y-74343320D01*
X126577525Y-75057606D02*
X126577525Y-73557606D01*
X126577525Y-73557606D02*
X127148954Y-73557606D01*
X127148954Y-73557606D02*
X127291811Y-73629035D01*
X127291811Y-73629035D02*
X127363240Y-73700463D01*
X127363240Y-73700463D02*
X127434668Y-73843320D01*
X127434668Y-73843320D02*
X127434668Y-74057606D01*
X127434668Y-74057606D02*
X127363240Y-74200463D01*
X127363240Y-74200463D02*
X127291811Y-74271892D01*
X127291811Y-74271892D02*
X127148954Y-74343320D01*
X127148954Y-74343320D02*
X126577525Y-74343320D01*
X128648954Y-74986178D02*
X128506097Y-75057606D01*
X128506097Y-75057606D02*
X128220383Y-75057606D01*
X128220383Y-75057606D02*
X128077525Y-74986178D01*
X128077525Y-74986178D02*
X128006097Y-74843320D01*
X128006097Y-74843320D02*
X128006097Y-74271892D01*
X128006097Y-74271892D02*
X128077525Y-74129035D01*
X128077525Y-74129035D02*
X128220383Y-74057606D01*
X128220383Y-74057606D02*
X128506097Y-74057606D01*
X128506097Y-74057606D02*
X128648954Y-74129035D01*
X128648954Y-74129035D02*
X128720383Y-74271892D01*
X128720383Y-74271892D02*
X128720383Y-74414749D01*
X128720383Y-74414749D02*
X128006097Y-74557606D01*
X129220382Y-74057606D02*
X129577525Y-75057606D01*
X129577525Y-75057606D02*
X129934668Y-74057606D01*
X130506096Y-74914749D02*
X130577525Y-74986178D01*
X130577525Y-74986178D02*
X130506096Y-75057606D01*
X130506096Y-75057606D02*
X130434668Y-74986178D01*
X130434668Y-74986178D02*
X130506096Y-74914749D01*
X130506096Y-74914749D02*
X130506096Y-75057606D01*
X130506096Y-74129035D02*
X130577525Y-74200463D01*
X130577525Y-74200463D02*
X130506096Y-74271892D01*
X130506096Y-74271892D02*
X130434668Y-74200463D01*
X130434668Y-74200463D02*
X130506096Y-74129035D01*
X130506096Y-74129035D02*
X130506096Y-74271892D01*
D10*
D11*
X41407413Y-74993978D02*
X41621699Y-75065406D01*
X41621699Y-75065406D02*
X41978841Y-75065406D01*
X41978841Y-75065406D02*
X42121699Y-74993978D01*
X42121699Y-74993978D02*
X42193127Y-74922549D01*
X42193127Y-74922549D02*
X42264556Y-74779692D01*
X42264556Y-74779692D02*
X42264556Y-74636835D01*
X42264556Y-74636835D02*
X42193127Y-74493978D01*
X42193127Y-74493978D02*
X42121699Y-74422549D01*
X42121699Y-74422549D02*
X41978841Y-74351120D01*
X41978841Y-74351120D02*
X41693127Y-74279692D01*
X41693127Y-74279692D02*
X41550270Y-74208263D01*
X41550270Y-74208263D02*
X41478841Y-74136835D01*
X41478841Y-74136835D02*
X41407413Y-73993978D01*
X41407413Y-73993978D02*
X41407413Y-73851120D01*
X41407413Y-73851120D02*
X41478841Y-73708263D01*
X41478841Y-73708263D02*
X41550270Y-73636835D01*
X41550270Y-73636835D02*
X41693127Y-73565406D01*
X41693127Y-73565406D02*
X42050270Y-73565406D01*
X42050270Y-73565406D02*
X42264556Y-73636835D01*
X42907412Y-75065406D02*
X42907412Y-74065406D01*
X42907412Y-73565406D02*
X42835984Y-73636835D01*
X42835984Y-73636835D02*
X42907412Y-73708263D01*
X42907412Y-73708263D02*
X42978841Y-73636835D01*
X42978841Y-73636835D02*
X42907412Y-73565406D01*
X42907412Y-73565406D02*
X42907412Y-73708263D01*
X43478841Y-74065406D02*
X44264556Y-74065406D01*
X44264556Y-74065406D02*
X43478841Y-75065406D01*
X43478841Y-75065406D02*
X44264556Y-75065406D01*
X45407413Y-74993978D02*
X45264556Y-75065406D01*
X45264556Y-75065406D02*
X44978842Y-75065406D01*
X44978842Y-75065406D02*
X44835984Y-74993978D01*
X44835984Y-74993978D02*
X44764556Y-74851120D01*
X44764556Y-74851120D02*
X44764556Y-74279692D01*
X44764556Y-74279692D02*
X44835984Y-74136835D01*
X44835984Y-74136835D02*
X44978842Y-74065406D01*
X44978842Y-74065406D02*
X45264556Y-74065406D01*
X45264556Y-74065406D02*
X45407413Y-74136835D01*
X45407413Y-74136835D02*
X45478842Y-74279692D01*
X45478842Y-74279692D02*
X45478842Y-74422549D01*
X45478842Y-74422549D02*
X44764556Y-74565406D01*
X46121698Y-74922549D02*
X46193127Y-74993978D01*
X46193127Y-74993978D02*
X46121698Y-75065406D01*
X46121698Y-75065406D02*
X46050270Y-74993978D01*
X46050270Y-74993978D02*
X46121698Y-74922549D01*
X46121698Y-74922549D02*
X46121698Y-75065406D01*
X46121698Y-74136835D02*
X46193127Y-74208263D01*
X46193127Y-74208263D02*
X46121698Y-74279692D01*
X46121698Y-74279692D02*
X46050270Y-74208263D01*
X46050270Y-74208263D02*
X46121698Y-74136835D01*
X46121698Y-74136835D02*
X46121698Y-74279692D01*
X47907413Y-74636835D02*
X48621699Y-74636835D01*
X47764556Y-75065406D02*
X48264556Y-73565406D01*
X48264556Y-73565406D02*
X48764556Y-75065406D01*
X49907413Y-74065406D02*
X49907413Y-75065406D01*
X49550270Y-73493978D02*
X49193127Y-74565406D01*
X49193127Y-74565406D02*
X50121698Y-74565406D01*
D10*
D11*
X126478841Y-77865406D02*
X126478841Y-76365406D01*
X127835985Y-77865406D02*
X127835985Y-76365406D01*
X127835985Y-77793978D02*
X127693127Y-77865406D01*
X127693127Y-77865406D02*
X127407413Y-77865406D01*
X127407413Y-77865406D02*
X127264556Y-77793978D01*
X127264556Y-77793978D02*
X127193127Y-77722549D01*
X127193127Y-77722549D02*
X127121699Y-77579692D01*
X127121699Y-77579692D02*
X127121699Y-77151120D01*
X127121699Y-77151120D02*
X127193127Y-77008263D01*
X127193127Y-77008263D02*
X127264556Y-76936835D01*
X127264556Y-76936835D02*
X127407413Y-76865406D01*
X127407413Y-76865406D02*
X127693127Y-76865406D01*
X127693127Y-76865406D02*
X127835985Y-76936835D01*
X128550270Y-77722549D02*
X128621699Y-77793978D01*
X128621699Y-77793978D02*
X128550270Y-77865406D01*
X128550270Y-77865406D02*
X128478842Y-77793978D01*
X128478842Y-77793978D02*
X128550270Y-77722549D01*
X128550270Y-77722549D02*
X128550270Y-77865406D01*
X128550270Y-76936835D02*
X128621699Y-77008263D01*
X128621699Y-77008263D02*
X128550270Y-77079692D01*
X128550270Y-77079692D02*
X128478842Y-77008263D01*
X128478842Y-77008263D02*
X128550270Y-76936835D01*
X128550270Y-76936835D02*
X128550270Y-77079692D01*
X130264556Y-76365406D02*
X131264556Y-76365406D01*
X131264556Y-76365406D02*
X130621699Y-77865406D01*
X132907413Y-76293978D02*
X131621699Y-78222549D01*
X134193128Y-77865406D02*
X133335985Y-77865406D01*
X133764556Y-77865406D02*
X133764556Y-76365406D01*
X133764556Y-76365406D02*
X133621699Y-76579692D01*
X133621699Y-76579692D02*
X133478842Y-76722549D01*
X133478842Y-76722549D02*
X133335985Y-76793978D01*
X134693127Y-76365406D02*
X135693127Y-76365406D01*
X135693127Y-76365406D02*
X135050270Y-77865406D01*
D10*
D11*
X40023015Y-68779278D02*
X148023015Y-68779278D01*
D10*
D13*
X41714743Y-69483716D02*
X42857600Y-69483716D01*
X42036172Y-71483716D02*
X42286172Y-69483716D01*
X43274267Y-71483716D02*
X43440934Y-70150382D01*
X43524267Y-69483716D02*
X43417124Y-69578954D01*
X43417124Y-69578954D02*
X43500458Y-69674192D01*
X43500458Y-69674192D02*
X43607601Y-69578954D01*
X43607601Y-69578954D02*
X43524267Y-69483716D01*
X43524267Y-69483716D02*
X43500458Y-69674192D01*
X44107601Y-70150382D02*
X44869505Y-70150382D01*
X44476648Y-69483716D02*
X44262363Y-71198001D01*
X44262363Y-71198001D02*
X44333791Y-71388478D01*
X44333791Y-71388478D02*
X44512363Y-71483716D01*
X44512363Y-71483716D02*
X44702839Y-71483716D01*
X45655220Y-71483716D02*
X45476648Y-71388478D01*
X45476648Y-71388478D02*
X45405220Y-71198001D01*
X45405220Y-71198001D02*
X45619505Y-69483716D01*
X47190934Y-71388478D02*
X46988553Y-71483716D01*
X46988553Y-71483716D02*
X46607600Y-71483716D01*
X46607600Y-71483716D02*
X46429029Y-71388478D01*
X46429029Y-71388478D02*
X46357600Y-71198001D01*
X46357600Y-71198001D02*
X46452839Y-70436097D01*
X46452839Y-70436097D02*
X46571886Y-70245620D01*
X46571886Y-70245620D02*
X46774267Y-70150382D01*
X46774267Y-70150382D02*
X47155219Y-70150382D01*
X47155219Y-70150382D02*
X47333791Y-70245620D01*
X47333791Y-70245620D02*
X47405219Y-70436097D01*
X47405219Y-70436097D02*
X47381410Y-70626573D01*
X47381410Y-70626573D02*
X46405219Y-70817049D01*
X48155220Y-71293239D02*
X48238553Y-71388478D01*
X48238553Y-71388478D02*
X48131410Y-71483716D01*
X48131410Y-71483716D02*
X48048077Y-71388478D01*
X48048077Y-71388478D02*
X48155220Y-71293239D01*
X48155220Y-71293239D02*
X48131410Y-71483716D01*
X48286172Y-70245620D02*
X48369505Y-70340858D01*
X48369505Y-70340858D02*
X48262363Y-70436097D01*
X48262363Y-70436097D02*
X48179029Y-70340858D01*
X48179029Y-70340858D02*
X48286172Y-70245620D01*
X48286172Y-70245620D02*
X48262363Y-70436097D01*
D10*
D11*
X41978841Y-66879692D02*
X41478841Y-66879692D01*
X41478841Y-67665406D02*
X41478841Y-66165406D01*
X41478841Y-66165406D02*
X42193127Y-66165406D01*
X42764555Y-67665406D02*
X42764555Y-66665406D01*
X42764555Y-66165406D02*
X42693127Y-66236835D01*
X42693127Y-66236835D02*
X42764555Y-66308263D01*
X42764555Y-66308263D02*
X42835984Y-66236835D01*
X42835984Y-66236835D02*
X42764555Y-66165406D01*
X42764555Y-66165406D02*
X42764555Y-66308263D01*
X43693127Y-67665406D02*
X43550270Y-67593978D01*
X43550270Y-67593978D02*
X43478841Y-67451120D01*
X43478841Y-67451120D02*
X43478841Y-66165406D01*
X44835984Y-67593978D02*
X44693127Y-67665406D01*
X44693127Y-67665406D02*
X44407413Y-67665406D01*
X44407413Y-67665406D02*
X44264555Y-67593978D01*
X44264555Y-67593978D02*
X44193127Y-67451120D01*
X44193127Y-67451120D02*
X44193127Y-66879692D01*
X44193127Y-66879692D02*
X44264555Y-66736835D01*
X44264555Y-66736835D02*
X44407413Y-66665406D01*
X44407413Y-66665406D02*
X44693127Y-66665406D01*
X44693127Y-66665406D02*
X44835984Y-66736835D01*
X44835984Y-66736835D02*
X44907413Y-66879692D01*
X44907413Y-66879692D02*
X44907413Y-67022549D01*
X44907413Y-67022549D02*
X44193127Y-67165406D01*
X45550269Y-67522549D02*
X45621698Y-67593978D01*
X45621698Y-67593978D02*
X45550269Y-67665406D01*
X45550269Y-67665406D02*
X45478841Y-67593978D01*
X45478841Y-67593978D02*
X45550269Y-67522549D01*
X45550269Y-67522549D02*
X45550269Y-67665406D01*
X45550269Y-66736835D02*
X45621698Y-66808263D01*
X45621698Y-66808263D02*
X45550269Y-66879692D01*
X45550269Y-66879692D02*
X45478841Y-66808263D01*
X45478841Y-66808263D02*
X45550269Y-66736835D01*
X45550269Y-66736835D02*
X45550269Y-66879692D01*
X47407412Y-67665406D02*
X47407412Y-66165406D01*
X47407412Y-66165406D02*
X47978841Y-66165406D01*
X47978841Y-66165406D02*
X48121698Y-66236835D01*
X48121698Y-66236835D02*
X48193127Y-66308263D01*
X48193127Y-66308263D02*
X48264555Y-66451120D01*
X48264555Y-66451120D02*
X48264555Y-66665406D01*
X48264555Y-66665406D02*
X48193127Y-66808263D01*
X48193127Y-66808263D02*
X48121698Y-66879692D01*
X48121698Y-66879692D02*
X47978841Y-66951120D01*
X47978841Y-66951120D02*
X47407412Y-66951120D01*
X49764555Y-67522549D02*
X49693127Y-67593978D01*
X49693127Y-67593978D02*
X49478841Y-67665406D01*
X49478841Y-67665406D02*
X49335984Y-67665406D01*
X49335984Y-67665406D02*
X49121698Y-67593978D01*
X49121698Y-67593978D02*
X48978841Y-67451120D01*
X48978841Y-67451120D02*
X48907412Y-67308263D01*
X48907412Y-67308263D02*
X48835984Y-67022549D01*
X48835984Y-67022549D02*
X48835984Y-66808263D01*
X48835984Y-66808263D02*
X48907412Y-66522549D01*
X48907412Y-66522549D02*
X48978841Y-66379692D01*
X48978841Y-66379692D02*
X49121698Y-66236835D01*
X49121698Y-66236835D02*
X49335984Y-66165406D01*
X49335984Y-66165406D02*
X49478841Y-66165406D01*
X49478841Y-66165406D02*
X49693127Y-66236835D01*
X49693127Y-66236835D02*
X49764555Y-66308263D01*
X50335984Y-67236835D02*
X51050270Y-67236835D01*
X50193127Y-67665406D02*
X50693127Y-66165406D01*
X50693127Y-66165406D02*
X51193127Y-67665406D01*
X51621698Y-66308263D02*
X51693126Y-66236835D01*
X51693126Y-66236835D02*
X51835984Y-66165406D01*
X51835984Y-66165406D02*
X52193126Y-66165406D01*
X52193126Y-66165406D02*
X52335984Y-66236835D01*
X52335984Y-66236835D02*
X52407412Y-66308263D01*
X52407412Y-66308263D02*
X52478841Y-66451120D01*
X52478841Y-66451120D02*
X52478841Y-66593978D01*
X52478841Y-66593978D02*
X52407412Y-66808263D01*
X52407412Y-66808263D02*
X51550269Y-67665406D01*
X51550269Y-67665406D02*
X52478841Y-67665406D01*
X53407412Y-66165406D02*
X53550269Y-66165406D01*
X53550269Y-66165406D02*
X53693126Y-66236835D01*
X53693126Y-66236835D02*
X53764555Y-66308263D01*
X53764555Y-66308263D02*
X53835983Y-66451120D01*
X53835983Y-66451120D02*
X53907412Y-66736835D01*
X53907412Y-66736835D02*
X53907412Y-67093978D01*
X53907412Y-67093978D02*
X53835983Y-67379692D01*
X53835983Y-67379692D02*
X53764555Y-67522549D01*
X53764555Y-67522549D02*
X53693126Y-67593978D01*
X53693126Y-67593978D02*
X53550269Y-67665406D01*
X53550269Y-67665406D02*
X53407412Y-67665406D01*
X53407412Y-67665406D02*
X53264555Y-67593978D01*
X53264555Y-67593978D02*
X53193126Y-67522549D01*
X53193126Y-67522549D02*
X53121697Y-67379692D01*
X53121697Y-67379692D02*
X53050269Y-67093978D01*
X53050269Y-67093978D02*
X53050269Y-66736835D01*
X53050269Y-66736835D02*
X53121697Y-66451120D01*
X53121697Y-66451120D02*
X53193126Y-66308263D01*
X53193126Y-66308263D02*
X53264555Y-66236835D01*
X53264555Y-66236835D02*
X53407412Y-66165406D01*
X54835983Y-66165406D02*
X54978840Y-66165406D01*
X54978840Y-66165406D02*
X55121697Y-66236835D01*
X55121697Y-66236835D02*
X55193126Y-66308263D01*
X55193126Y-66308263D02*
X55264554Y-66451120D01*
X55264554Y-66451120D02*
X55335983Y-66736835D01*
X55335983Y-66736835D02*
X55335983Y-67093978D01*
X55335983Y-67093978D02*
X55264554Y-67379692D01*
X55264554Y-67379692D02*
X55193126Y-67522549D01*
X55193126Y-67522549D02*
X55121697Y-67593978D01*
X55121697Y-67593978D02*
X54978840Y-67665406D01*
X54978840Y-67665406D02*
X54835983Y-67665406D01*
X54835983Y-67665406D02*
X54693126Y-67593978D01*
X54693126Y-67593978D02*
X54621697Y-67522549D01*
X54621697Y-67522549D02*
X54550268Y-67379692D01*
X54550268Y-67379692D02*
X54478840Y-67093978D01*
X54478840Y-67093978D02*
X54478840Y-66736835D01*
X54478840Y-66736835D02*
X54550268Y-66451120D01*
X54550268Y-66451120D02*
X54621697Y-66308263D01*
X54621697Y-66308263D02*
X54693126Y-66236835D01*
X54693126Y-66236835D02*
X54835983Y-66165406D01*
X55835982Y-66165406D02*
X56835982Y-66165406D01*
X56835982Y-66165406D02*
X56193125Y-67665406D01*
X57264553Y-66165406D02*
X58193125Y-66165406D01*
X58193125Y-66165406D02*
X57693125Y-66736835D01*
X57693125Y-66736835D02*
X57907410Y-66736835D01*
X57907410Y-66736835D02*
X58050268Y-66808263D01*
X58050268Y-66808263D02*
X58121696Y-66879692D01*
X58121696Y-66879692D02*
X58193125Y-67022549D01*
X58193125Y-67022549D02*
X58193125Y-67379692D01*
X58193125Y-67379692D02*
X58121696Y-67522549D01*
X58121696Y-67522549D02*
X58050268Y-67593978D01*
X58050268Y-67593978D02*
X57907410Y-67665406D01*
X57907410Y-67665406D02*
X57478839Y-67665406D01*
X57478839Y-67665406D02*
X57335982Y-67593978D01*
X57335982Y-67593978D02*
X57264553Y-67522549D01*
X58478839Y-67808263D02*
X59621696Y-67808263D01*
X59764553Y-66165406D02*
X60621696Y-66165406D01*
X60193124Y-67665406D02*
X60193124Y-66165406D01*
X61121695Y-67665406D02*
X61121695Y-66665406D01*
X61121695Y-66165406D02*
X61050267Y-66236835D01*
X61050267Y-66236835D02*
X61121695Y-66308263D01*
X61121695Y-66308263D02*
X61193124Y-66236835D01*
X61193124Y-66236835D02*
X61121695Y-66165406D01*
X61121695Y-66165406D02*
X61121695Y-66308263D01*
X61835981Y-66665406D02*
X61835981Y-67665406D01*
X61835981Y-66808263D02*
X61907410Y-66736835D01*
X61907410Y-66736835D02*
X62050267Y-66665406D01*
X62050267Y-66665406D02*
X62264553Y-66665406D01*
X62264553Y-66665406D02*
X62407410Y-66736835D01*
X62407410Y-66736835D02*
X62478839Y-66879692D01*
X62478839Y-66879692D02*
X62478839Y-67665406D01*
X63050267Y-66665406D02*
X63407410Y-67665406D01*
X63764553Y-66665406D02*
X63407410Y-67665406D01*
X63407410Y-67665406D02*
X63264553Y-68022549D01*
X63264553Y-68022549D02*
X63193124Y-68093978D01*
X63193124Y-68093978D02*
X63050267Y-68165406D01*
X63978839Y-67808263D02*
X65121696Y-67808263D01*
X65978838Y-66879692D02*
X66193124Y-66951120D01*
X66193124Y-66951120D02*
X66264553Y-67022549D01*
X66264553Y-67022549D02*
X66335981Y-67165406D01*
X66335981Y-67165406D02*
X66335981Y-67379692D01*
X66335981Y-67379692D02*
X66264553Y-67522549D01*
X66264553Y-67522549D02*
X66193124Y-67593978D01*
X66193124Y-67593978D02*
X66050267Y-67665406D01*
X66050267Y-67665406D02*
X65478838Y-67665406D01*
X65478838Y-67665406D02*
X65478838Y-66165406D01*
X65478838Y-66165406D02*
X65978838Y-66165406D01*
X65978838Y-66165406D02*
X66121696Y-66236835D01*
X66121696Y-66236835D02*
X66193124Y-66308263D01*
X66193124Y-66308263D02*
X66264553Y-66451120D01*
X66264553Y-66451120D02*
X66264553Y-66593978D01*
X66264553Y-66593978D02*
X66193124Y-66736835D01*
X66193124Y-66736835D02*
X66121696Y-66808263D01*
X66121696Y-66808263D02*
X65978838Y-66879692D01*
X65978838Y-66879692D02*
X65478838Y-66879692D01*
X67193124Y-67665406D02*
X67050267Y-67593978D01*
X67050267Y-67593978D02*
X66978838Y-67522549D01*
X66978838Y-67522549D02*
X66907410Y-67379692D01*
X66907410Y-67379692D02*
X66907410Y-66951120D01*
X66907410Y-66951120D02*
X66978838Y-66808263D01*
X66978838Y-66808263D02*
X67050267Y-66736835D01*
X67050267Y-66736835D02*
X67193124Y-66665406D01*
X67193124Y-66665406D02*
X67407410Y-66665406D01*
X67407410Y-66665406D02*
X67550267Y-66736835D01*
X67550267Y-66736835D02*
X67621696Y-66808263D01*
X67621696Y-66808263D02*
X67693124Y-66951120D01*
X67693124Y-66951120D02*
X67693124Y-67379692D01*
X67693124Y-67379692D02*
X67621696Y-67522549D01*
X67621696Y-67522549D02*
X67550267Y-67593978D01*
X67550267Y-67593978D02*
X67407410Y-67665406D01*
X67407410Y-67665406D02*
X67193124Y-67665406D01*
X68978839Y-67665406D02*
X68978839Y-66879692D01*
X68978839Y-66879692D02*
X68907410Y-66736835D01*
X68907410Y-66736835D02*
X68764553Y-66665406D01*
X68764553Y-66665406D02*
X68478839Y-66665406D01*
X68478839Y-66665406D02*
X68335981Y-66736835D01*
X68978839Y-67593978D02*
X68835981Y-67665406D01*
X68835981Y-67665406D02*
X68478839Y-67665406D01*
X68478839Y-67665406D02*
X68335981Y-67593978D01*
X68335981Y-67593978D02*
X68264553Y-67451120D01*
X68264553Y-67451120D02*
X68264553Y-67308263D01*
X68264553Y-67308263D02*
X68335981Y-67165406D01*
X68335981Y-67165406D02*
X68478839Y-67093978D01*
X68478839Y-67093978D02*
X68835981Y-67093978D01*
X68835981Y-67093978D02*
X68978839Y-67022549D01*
X69693124Y-67665406D02*
X69693124Y-66665406D01*
X69693124Y-66951120D02*
X69764553Y-66808263D01*
X69764553Y-66808263D02*
X69835982Y-66736835D01*
X69835982Y-66736835D02*
X69978839Y-66665406D01*
X69978839Y-66665406D02*
X70121696Y-66665406D01*
X71264553Y-67665406D02*
X71264553Y-66165406D01*
X71264553Y-67593978D02*
X71121695Y-67665406D01*
X71121695Y-67665406D02*
X70835981Y-67665406D01*
X70835981Y-67665406D02*
X70693124Y-67593978D01*
X70693124Y-67593978D02*
X70621695Y-67522549D01*
X70621695Y-67522549D02*
X70550267Y-67379692D01*
X70550267Y-67379692D02*
X70550267Y-66951120D01*
X70550267Y-66951120D02*
X70621695Y-66808263D01*
X70621695Y-66808263D02*
X70693124Y-66736835D01*
X70693124Y-66736835D02*
X70835981Y-66665406D01*
X70835981Y-66665406D02*
X71121695Y-66665406D01*
X71121695Y-66665406D02*
X71264553Y-66736835D01*
X71978838Y-67522549D02*
X72050267Y-67593978D01*
X72050267Y-67593978D02*
X71978838Y-67665406D01*
X71978838Y-67665406D02*
X71907410Y-67593978D01*
X71907410Y-67593978D02*
X71978838Y-67522549D01*
X71978838Y-67522549D02*
X71978838Y-67665406D01*
X72693124Y-67665406D02*
X72693124Y-66165406D01*
X72835982Y-67093978D02*
X73264553Y-67665406D01*
X73264553Y-66665406D02*
X72693124Y-67236835D01*
X73907410Y-67665406D02*
X73907410Y-66665406D01*
X73907410Y-66165406D02*
X73835982Y-66236835D01*
X73835982Y-66236835D02*
X73907410Y-66308263D01*
X73907410Y-66308263D02*
X73978839Y-66236835D01*
X73978839Y-66236835D02*
X73907410Y-66165406D01*
X73907410Y-66165406D02*
X73907410Y-66308263D01*
X75264554Y-67593978D02*
X75121696Y-67665406D01*
X75121696Y-67665406D02*
X74835982Y-67665406D01*
X74835982Y-67665406D02*
X74693125Y-67593978D01*
X74693125Y-67593978D02*
X74621696Y-67522549D01*
X74621696Y-67522549D02*
X74550268Y-67379692D01*
X74550268Y-67379692D02*
X74550268Y-66951120D01*
X74550268Y-66951120D02*
X74621696Y-66808263D01*
X74621696Y-66808263D02*
X74693125Y-66736835D01*
X74693125Y-66736835D02*
X74835982Y-66665406D01*
X74835982Y-66665406D02*
X75121696Y-66665406D01*
X75121696Y-66665406D02*
X75264554Y-66736835D01*
X76550268Y-67665406D02*
X76550268Y-66879692D01*
X76550268Y-66879692D02*
X76478839Y-66736835D01*
X76478839Y-66736835D02*
X76335982Y-66665406D01*
X76335982Y-66665406D02*
X76050268Y-66665406D01*
X76050268Y-66665406D02*
X75907410Y-66736835D01*
X76550268Y-67593978D02*
X76407410Y-67665406D01*
X76407410Y-67665406D02*
X76050268Y-67665406D01*
X76050268Y-67665406D02*
X75907410Y-67593978D01*
X75907410Y-67593978D02*
X75835982Y-67451120D01*
X75835982Y-67451120D02*
X75835982Y-67308263D01*
X75835982Y-67308263D02*
X75907410Y-67165406D01*
X75907410Y-67165406D02*
X76050268Y-67093978D01*
X76050268Y-67093978D02*
X76407410Y-67093978D01*
X76407410Y-67093978D02*
X76550268Y-67022549D01*
X77907411Y-67665406D02*
X77907411Y-66165406D01*
X77907411Y-67593978D02*
X77764553Y-67665406D01*
X77764553Y-67665406D02*
X77478839Y-67665406D01*
X77478839Y-67665406D02*
X77335982Y-67593978D01*
X77335982Y-67593978D02*
X77264553Y-67522549D01*
X77264553Y-67522549D02*
X77193125Y-67379692D01*
X77193125Y-67379692D02*
X77193125Y-66951120D01*
X77193125Y-66951120D02*
X77264553Y-66808263D01*
X77264553Y-66808263D02*
X77335982Y-66736835D01*
X77335982Y-66736835D02*
X77478839Y-66665406D01*
X77478839Y-66665406D02*
X77764553Y-66665406D01*
X77764553Y-66665406D02*
X77907411Y-66736835D01*
X78264554Y-67808263D02*
X79407411Y-67808263D01*
X79764553Y-66665406D02*
X79764553Y-68165406D01*
X79764553Y-66736835D02*
X79907411Y-66665406D01*
X79907411Y-66665406D02*
X80193125Y-66665406D01*
X80193125Y-66665406D02*
X80335982Y-66736835D01*
X80335982Y-66736835D02*
X80407411Y-66808263D01*
X80407411Y-66808263D02*
X80478839Y-66951120D01*
X80478839Y-66951120D02*
X80478839Y-67379692D01*
X80478839Y-67379692D02*
X80407411Y-67522549D01*
X80407411Y-67522549D02*
X80335982Y-67593978D01*
X80335982Y-67593978D02*
X80193125Y-67665406D01*
X80193125Y-67665406D02*
X79907411Y-67665406D01*
X79907411Y-67665406D02*
X79764553Y-67593978D01*
X81764554Y-67593978D02*
X81621696Y-67665406D01*
X81621696Y-67665406D02*
X81335982Y-67665406D01*
X81335982Y-67665406D02*
X81193125Y-67593978D01*
X81193125Y-67593978D02*
X81121696Y-67522549D01*
X81121696Y-67522549D02*
X81050268Y-67379692D01*
X81050268Y-67379692D02*
X81050268Y-66951120D01*
X81050268Y-66951120D02*
X81121696Y-66808263D01*
X81121696Y-66808263D02*
X81193125Y-66736835D01*
X81193125Y-66736835D02*
X81335982Y-66665406D01*
X81335982Y-66665406D02*
X81621696Y-66665406D01*
X81621696Y-66665406D02*
X81764554Y-66736835D01*
X82407410Y-67665406D02*
X82407410Y-66165406D01*
X82407410Y-66736835D02*
X82550268Y-66665406D01*
X82550268Y-66665406D02*
X82835982Y-66665406D01*
X82835982Y-66665406D02*
X82978839Y-66736835D01*
X82978839Y-66736835D02*
X83050268Y-66808263D01*
X83050268Y-66808263D02*
X83121696Y-66951120D01*
X83121696Y-66951120D02*
X83121696Y-67379692D01*
X83121696Y-67379692D02*
X83050268Y-67522549D01*
X83050268Y-67522549D02*
X82978839Y-67593978D01*
X82978839Y-67593978D02*
X82835982Y-67665406D01*
X82835982Y-67665406D02*
X82550268Y-67665406D01*
X82550268Y-67665406D02*
X82407410Y-67593978D01*
D10*
D11*
X40023015Y-62779278D02*
X148023015Y-62779278D01*
D10*
D11*
X41407413Y-64893978D02*
X41621699Y-64965406D01*
X41621699Y-64965406D02*
X41978841Y-64965406D01*
X41978841Y-64965406D02*
X42121699Y-64893978D01*
X42121699Y-64893978D02*
X42193127Y-64822549D01*
X42193127Y-64822549D02*
X42264556Y-64679692D01*
X42264556Y-64679692D02*
X42264556Y-64536835D01*
X42264556Y-64536835D02*
X42193127Y-64393978D01*
X42193127Y-64393978D02*
X42121699Y-64322549D01*
X42121699Y-64322549D02*
X41978841Y-64251120D01*
X41978841Y-64251120D02*
X41693127Y-64179692D01*
X41693127Y-64179692D02*
X41550270Y-64108263D01*
X41550270Y-64108263D02*
X41478841Y-64036835D01*
X41478841Y-64036835D02*
X41407413Y-63893978D01*
X41407413Y-63893978D02*
X41407413Y-63751120D01*
X41407413Y-63751120D02*
X41478841Y-63608263D01*
X41478841Y-63608263D02*
X41550270Y-63536835D01*
X41550270Y-63536835D02*
X41693127Y-63465406D01*
X41693127Y-63465406D02*
X42050270Y-63465406D01*
X42050270Y-63465406D02*
X42264556Y-63536835D01*
X42907412Y-64965406D02*
X42907412Y-63465406D01*
X43550270Y-64965406D02*
X43550270Y-64179692D01*
X43550270Y-64179692D02*
X43478841Y-64036835D01*
X43478841Y-64036835D02*
X43335984Y-63965406D01*
X43335984Y-63965406D02*
X43121698Y-63965406D01*
X43121698Y-63965406D02*
X42978841Y-64036835D01*
X42978841Y-64036835D02*
X42907412Y-64108263D01*
X44835984Y-64893978D02*
X44693127Y-64965406D01*
X44693127Y-64965406D02*
X44407413Y-64965406D01*
X44407413Y-64965406D02*
X44264555Y-64893978D01*
X44264555Y-64893978D02*
X44193127Y-64751120D01*
X44193127Y-64751120D02*
X44193127Y-64179692D01*
X44193127Y-64179692D02*
X44264555Y-64036835D01*
X44264555Y-64036835D02*
X44407413Y-63965406D01*
X44407413Y-63965406D02*
X44693127Y-63965406D01*
X44693127Y-63965406D02*
X44835984Y-64036835D01*
X44835984Y-64036835D02*
X44907413Y-64179692D01*
X44907413Y-64179692D02*
X44907413Y-64322549D01*
X44907413Y-64322549D02*
X44193127Y-64465406D01*
X46121698Y-64893978D02*
X45978841Y-64965406D01*
X45978841Y-64965406D02*
X45693127Y-64965406D01*
X45693127Y-64965406D02*
X45550269Y-64893978D01*
X45550269Y-64893978D02*
X45478841Y-64751120D01*
X45478841Y-64751120D02*
X45478841Y-64179692D01*
X45478841Y-64179692D02*
X45550269Y-64036835D01*
X45550269Y-64036835D02*
X45693127Y-63965406D01*
X45693127Y-63965406D02*
X45978841Y-63965406D01*
X45978841Y-63965406D02*
X46121698Y-64036835D01*
X46121698Y-64036835D02*
X46193127Y-64179692D01*
X46193127Y-64179692D02*
X46193127Y-64322549D01*
X46193127Y-64322549D02*
X45478841Y-64465406D01*
X46621698Y-63965406D02*
X47193126Y-63965406D01*
X46835983Y-63465406D02*
X46835983Y-64751120D01*
X46835983Y-64751120D02*
X46907412Y-64893978D01*
X46907412Y-64893978D02*
X47050269Y-64965406D01*
X47050269Y-64965406D02*
X47193126Y-64965406D01*
X47693126Y-64822549D02*
X47764555Y-64893978D01*
X47764555Y-64893978D02*
X47693126Y-64965406D01*
X47693126Y-64965406D02*
X47621698Y-64893978D01*
X47621698Y-64893978D02*
X47693126Y-64822549D01*
X47693126Y-64822549D02*
X47693126Y-64965406D01*
X47693126Y-64036835D02*
X47764555Y-64108263D01*
X47764555Y-64108263D02*
X47693126Y-64179692D01*
X47693126Y-64179692D02*
X47621698Y-64108263D01*
X47621698Y-64108263D02*
X47693126Y-64036835D01*
X47693126Y-64036835D02*
X47693126Y-64179692D01*
D10*
D11*
X60023015Y-72779278D02*
X60023015Y-75779278D01*
D10*
D11*
X124023015Y-72779278D02*
X124023015Y-79279278D01*
D14*
X17518863Y9149264D03*
X17306731Y9361396D03*
X17094599Y9573528D03*
X16882467Y9785660D03*
X16670335Y9997792D03*
X16458203Y10209924D03*
X16246071Y10422056D03*
X17730995Y9361396D03*
X17306731Y9785660D03*
X17094599Y9997792D03*
X16882467Y10209924D03*
X16670335Y10422056D03*
X16458203Y10634188D03*
X17730995Y9785660D03*
X17518863Y9997792D03*
X17306731Y10209924D03*
X17094599Y10422056D03*
X16882467Y10634188D03*
X16670335Y10846320D03*
X18155259Y9785660D03*
X17943127Y9997792D03*
X17730995Y10209924D03*
X17518863Y10422056D03*
X17306731Y10634188D03*
X17094599Y10846320D03*
X16882467Y11058452D03*
X18367391Y9997792D03*
X18155259Y10209924D03*
X17943127Y10422056D03*
X17730995Y10634188D03*
X17518863Y10846320D03*
X17306731Y11058452D03*
X17094599Y11270584D03*
X18579523Y10209924D03*
X18367391Y10422056D03*
X18155259Y10634188D03*
X17943127Y10846320D03*
X17730995Y11058452D03*
X17518863Y11270584D03*
X17306731Y11482716D03*
X18791655Y10422056D03*
X18579523Y10634188D03*
X18367391Y10846320D03*
X18155259Y11058452D03*
X17943127Y11270584D03*
X17730995Y11482716D03*
X17518863Y11694849D03*
G36*
G01*
X22406597Y5776153D02*
X22548725Y5634025D01*
G75*
G02*
X22548725Y5521595I-56215J-56215D01*
G01*
X22436295Y5409165D01*
G75*
G02*
X22323865Y5409165I-56215J56215D01*
G01*
X22181737Y5551293D01*
G75*
G02*
X22181737Y5663723I56215J56215D01*
G01*
X22294167Y5776153D01*
G75*
G02*
X22406597Y5776153I56215J-56215D01*
G01*
G37*
G36*
G01*
X21918693Y5288249D02*
X22060821Y5146121D01*
G75*
G02*
X22060821Y5033691I-56215J-56215D01*
G01*
X21948391Y4921261D01*
G75*
G02*
X21835961Y4921261I-56215J56215D01*
G01*
X21693833Y5063389D01*
G75*
G02*
X21693833Y5175819I56215J56215D01*
G01*
X21806263Y5288249D01*
G75*
G02*
X21918693Y5288249I56215J-56215D01*
G01*
G37*
G36*
G01*
X15997240Y8389054D02*
X16139368Y8531182D01*
G75*
G02*
X16251798Y8531182I56215J-56215D01*
G01*
X16364228Y8418752D01*
G75*
G02*
X16364228Y8306322I-56215J-56215D01*
G01*
X16222100Y8164194D01*
G75*
G02*
X16109670Y8164194I-56215J56215D01*
G01*
X15997240Y8276624D01*
G75*
G02*
X15997240Y8389054I56215J56215D01*
G01*
G37*
G36*
G01*
X16485144Y7901150D02*
X16627272Y8043278D01*
G75*
G02*
X16739702Y8043278I56215J-56215D01*
G01*
X16852132Y7930848D01*
G75*
G02*
X16852132Y7818418I-56215J-56215D01*
G01*
X16710004Y7676290D01*
G75*
G02*
X16597574Y7676290I-56215J56215D01*
G01*
X16485144Y7788720D01*
G75*
G02*
X16485144Y7901150I56215J56215D01*
G01*
G37*
G36*
G01*
X20914602Y4284157D02*
X21056730Y4142029D01*
G75*
G02*
X21056730Y4029599I-56215J-56215D01*
G01*
X20944300Y3917169D01*
G75*
G02*
X20831870Y3917169I-56215J56215D01*
G01*
X20689742Y4059297D01*
G75*
G02*
X20689742Y4171727I56215J56215D01*
G01*
X20802172Y4284157D01*
G75*
G02*
X20914602Y4284157I56215J-56215D01*
G01*
G37*
G36*
G01*
X20426698Y3796253D02*
X20568826Y3654125D01*
G75*
G02*
X20568826Y3541695I-56215J-56215D01*
G01*
X20456396Y3429265D01*
G75*
G02*
X20343966Y3429265I-56215J56215D01*
G01*
X20201838Y3571393D01*
G75*
G02*
X20201838Y3683823I56215J56215D01*
G01*
X20314268Y3796253D01*
G75*
G02*
X20426698Y3796253I56215J-56215D01*
G01*
G37*
G36*
G01*
X11025269Y20737304D02*
X11226269Y20737304D01*
G75*
G02*
X11305769Y20657804I0J-79500D01*
G01*
X11305769Y20498804D01*
G75*
G02*
X11226269Y20419304I-79500J0D01*
G01*
X11025269Y20419304D01*
G75*
G02*
X10945769Y20498804I0J79500D01*
G01*
X10945769Y20657804D01*
G75*
G02*
X11025269Y20737304I79500J0D01*
G01*
G37*
G36*
G01*
X11025269Y20047304D02*
X11226269Y20047304D01*
G75*
G02*
X11305769Y19967804I0J-79500D01*
G01*
X11305769Y19808804D01*
G75*
G02*
X11226269Y19729304I-79500J0D01*
G01*
X11025269Y19729304D01*
G75*
G02*
X10945769Y19808804I0J79500D01*
G01*
X10945769Y19967804D01*
G75*
G02*
X11025269Y20047304I79500J0D01*
G01*
G37*
G36*
G01*
X10492908Y22025819D02*
X10754537Y21764190D01*
G75*
G02*
X10754537Y21573272I-95459J-95459D01*
G01*
X10563618Y21382353D01*
G75*
G02*
X10372700Y21382353I-95459J95459D01*
G01*
X10111071Y21643982D01*
G75*
G02*
X10111071Y21834900I95459J95459D01*
G01*
X10301990Y22025819D01*
G75*
G02*
X10492908Y22025819I95459J-95459D01*
G01*
G37*
G36*
G01*
X9771660Y21304571D02*
X10033289Y21042942D01*
G75*
G02*
X10033289Y20852024I-95459J-95459D01*
G01*
X9842370Y20661105D01*
G75*
G02*
X9651452Y20661105I-95459J95459D01*
G01*
X9389823Y20922734D01*
G75*
G02*
X9389823Y21113652I95459J95459D01*
G01*
X9580742Y21304571D01*
G75*
G02*
X9771660Y21304571I95459J-95459D01*
G01*
G37*
G36*
G01*
X21149361Y6631045D02*
X21291489Y6773173D01*
G75*
G02*
X21403919Y6773173I56215J-56215D01*
G01*
X21516349Y6660743D01*
G75*
G02*
X21516349Y6548313I-56215J-56215D01*
G01*
X21374221Y6406185D01*
G75*
G02*
X21261791Y6406185I-56215J56215D01*
G01*
X21149361Y6518615D01*
G75*
G02*
X21149361Y6631045I56215J56215D01*
G01*
G37*
G36*
G01*
X21637265Y6143141D02*
X21779393Y6285269D01*
G75*
G02*
X21891823Y6285269I56215J-56215D01*
G01*
X22004253Y6172839D01*
G75*
G02*
X22004253Y6060409I-56215J-56215D01*
G01*
X21862125Y5918281D01*
G75*
G02*
X21749695Y5918281I-56215J56215D01*
G01*
X21637265Y6030711D01*
G75*
G02*
X21637265Y6143141I56215J56215D01*
G01*
G37*
G36*
G01*
X14269778Y9325263D02*
X14025826Y9569215D01*
G75*
G02*
X14025826Y9777811I104298J104298D01*
G01*
X14234422Y9986407D01*
G75*
G02*
X14443018Y9986407I104298J-104298D01*
G01*
X14686970Y9742455D01*
G75*
G02*
X14686970Y9533859I-104298J-104298D01*
G01*
X14478374Y9325263D01*
G75*
G02*
X14269778Y9325263I-104298J104298D01*
G01*
G37*
G36*
G01*
X14955672Y10011157D02*
X14711720Y10255109D01*
G75*
G02*
X14711720Y10463705I104298J104298D01*
G01*
X14920316Y10672301D01*
G75*
G02*
X15128912Y10672301I104298J-104298D01*
G01*
X15372864Y10428349D01*
G75*
G02*
X15372864Y10219753I-104298J-104298D01*
G01*
X15164268Y10011157D01*
G75*
G02*
X14955672Y10011157I-104298J104298D01*
G01*
G37*
G36*
G01*
X16364228Y9296271D02*
X16222100Y9154143D01*
G75*
G02*
X16109670Y9154143I-56215J56215D01*
G01*
X15997240Y9266573D01*
G75*
G02*
X15997240Y9379003I56215J56215D01*
G01*
X16139368Y9521131D01*
G75*
G02*
X16251798Y9521131I56215J-56215D01*
G01*
X16364228Y9408701D01*
G75*
G02*
X16364228Y9296271I-56215J-56215D01*
G01*
G37*
G36*
G01*
X15876324Y9784175D02*
X15734196Y9642047D01*
G75*
G02*
X15621766Y9642047I-56215J56215D01*
G01*
X15509336Y9754477D01*
G75*
G02*
X15509336Y9866907I56215J56215D01*
G01*
X15651464Y10009035D01*
G75*
G02*
X15763894Y10009035I56215J-56215D01*
G01*
X15876324Y9896605D01*
G75*
G02*
X15876324Y9784175I-56215J-56215D01*
G01*
G37*
G36*
G01*
X15382552Y12327850D02*
X15622968Y12087434D01*
G75*
G02*
X15622968Y11889444I-98995J-98995D01*
G01*
X15424978Y11691454D01*
G75*
G02*
X15226988Y11691454I-98995J98995D01*
G01*
X14986572Y11931870D01*
G75*
G02*
X14986572Y12129860I98995J98995D01*
G01*
X15184562Y12327850D01*
G75*
G02*
X15382552Y12327850I98995J-98995D01*
G01*
G37*
G36*
G01*
X14703730Y11649028D02*
X14944146Y11408612D01*
G75*
G02*
X14944146Y11210622I-98995J-98995D01*
G01*
X14746156Y11012632D01*
G75*
G02*
X14548166Y11012632I-98995J98995D01*
G01*
X14307750Y11253048D01*
G75*
G02*
X14307750Y11451038I98995J98995D01*
G01*
X14505740Y11649028D01*
G75*
G02*
X14703730Y11649028I98995J-98995D01*
G01*
G37*
G36*
G01*
X9828227Y22690499D02*
X10089856Y22428870D01*
G75*
G02*
X10089856Y22237952I-95459J-95459D01*
G01*
X9898937Y22047033D01*
G75*
G02*
X9708019Y22047033I-95459J95459D01*
G01*
X9446390Y22308662D01*
G75*
G02*
X9446390Y22499580I95459J95459D01*
G01*
X9637309Y22690499D01*
G75*
G02*
X9828227Y22690499I95459J-95459D01*
G01*
G37*
G36*
G01*
X9106979Y21969251D02*
X9368608Y21707622D01*
G75*
G02*
X9368608Y21516704I-95459J-95459D01*
G01*
X9177689Y21325785D01*
G75*
G02*
X8986771Y21325785I-95459J95459D01*
G01*
X8725142Y21587414D01*
G75*
G02*
X8725142Y21778332I95459J95459D01*
G01*
X8916061Y21969251D01*
G75*
G02*
X9106979Y21969251I95459J-95459D01*
G01*
G37*
G36*
G01*
X12785516Y22409688D02*
X12785516Y22610688D01*
G75*
G02*
X12865016Y22690188I79500J0D01*
G01*
X13024016Y22690188D01*
G75*
G02*
X13103516Y22610688I0J-79500D01*
G01*
X13103516Y22409688D01*
G75*
G02*
X13024016Y22330188I-79500J0D01*
G01*
X12865016Y22330188D01*
G75*
G02*
X12785516Y22409688I0J79500D01*
G01*
G37*
G36*
G01*
X13475516Y22409688D02*
X13475516Y22610688D01*
G75*
G02*
X13555016Y22690188I79500J0D01*
G01*
X13714016Y22690188D01*
G75*
G02*
X13793516Y22610688I0J-79500D01*
G01*
X13793516Y22409688D01*
G75*
G02*
X13714016Y22330188I-79500J0D01*
G01*
X13555016Y22330188D01*
G75*
G02*
X13475516Y22409688I0J79500D01*
G01*
G37*
G36*
G01*
X16130176Y11585883D02*
X16272304Y11443755D01*
G75*
G02*
X16272304Y11331325I-56215J-56215D01*
G01*
X16159874Y11218895D01*
G75*
G02*
X16047444Y11218895I-56215J56215D01*
G01*
X15905316Y11361023D01*
G75*
G02*
X15905316Y11473453I56215J56215D01*
G01*
X16017746Y11585883D01*
G75*
G02*
X16130176Y11585883I56215J-56215D01*
G01*
G37*
G36*
G01*
X15642272Y11097979D02*
X15784400Y10955851D01*
G75*
G02*
X15784400Y10843421I-56215J-56215D01*
G01*
X15671970Y10730991D01*
G75*
G02*
X15559540Y10730991I-56215J56215D01*
G01*
X15417412Y10873119D01*
G75*
G02*
X15417412Y10985549I56215J56215D01*
G01*
X15529842Y11097979D01*
G75*
G02*
X15642272Y11097979I56215J-56215D01*
G01*
G37*
G36*
G01*
X11009450Y7946264D02*
X11151578Y8088392D01*
G75*
G02*
X11264008Y8088392I56215J-56215D01*
G01*
X11376438Y7975962D01*
G75*
G02*
X11376438Y7863532I-56215J-56215D01*
G01*
X11234310Y7721404D01*
G75*
G02*
X11121880Y7721404I-56215J56215D01*
G01*
X11009450Y7833834D01*
G75*
G02*
X11009450Y7946264I56215J56215D01*
G01*
G37*
G36*
G01*
X11497354Y7458360D02*
X11639482Y7600488D01*
G75*
G02*
X11751912Y7600488I56215J-56215D01*
G01*
X11864342Y7488058D01*
G75*
G02*
X11864342Y7375628I-56215J-56215D01*
G01*
X11722214Y7233500D01*
G75*
G02*
X11609784Y7233500I-56215J56215D01*
G01*
X11497354Y7345930D01*
G75*
G02*
X11497354Y7458360I56215J56215D01*
G01*
G37*
G36*
G01*
X22994556Y3584475D02*
X23807729Y2771302D01*
G75*
G02*
X23807729Y2665236I-53033J-53033D01*
G01*
X23560242Y2417749D01*
G75*
G02*
X23454176Y2417749I-53033J53033D01*
G01*
X22641003Y3230922D01*
G75*
G02*
X22641003Y3336988I53033J53033D01*
G01*
X22888490Y3584475D01*
G75*
G02*
X22994556Y3584475I53033J-53033D01*
G01*
G37*
G36*
G01*
X22234416Y2506137D02*
X22729391Y2011162D01*
G75*
G02*
X22729391Y1799030I-106066J-106066D01*
G01*
X22234416Y1304055D01*
G75*
G02*
X22022284Y1304055I-106066J106066D01*
G01*
X21527309Y1799030D01*
G75*
G02*
X21527309Y2011162I106066J106066D01*
G01*
X22022284Y2506137D01*
G75*
G02*
X22234416Y2506137I106066J-106066D01*
G01*
G37*
G36*
G01*
X6100715Y9665240D02*
X6242843Y9523112D01*
G75*
G02*
X6242843Y9410682I-56215J-56215D01*
G01*
X6130413Y9298252D01*
G75*
G02*
X6017983Y9298252I-56215J56215D01*
G01*
X5875855Y9440380D01*
G75*
G02*
X5875855Y9552810I56215J56215D01*
G01*
X5988285Y9665240D01*
G75*
G02*
X6100715Y9665240I56215J-56215D01*
G01*
G37*
G36*
G01*
X5612811Y9177336D02*
X5754939Y9035208D01*
G75*
G02*
X5754939Y8922778I-56215J-56215D01*
G01*
X5642509Y8810348D01*
G75*
G02*
X5530079Y8810348I-56215J56215D01*
G01*
X5387951Y8952476D01*
G75*
G02*
X5387951Y9064906I56215J56215D01*
G01*
X5500381Y9177336D01*
G75*
G02*
X5612811Y9177336I56215J-56215D01*
G01*
G37*
G36*
X16408902Y11867184D02*
G01*
X15621185Y12654901D01*
X16027772Y13061488D01*
X16815489Y12273771D01*
X16408902Y11867184D01*
G37*
G36*
X16992266Y12450548D02*
G01*
X16204549Y13238265D01*
X16611136Y13644852D01*
X17398853Y12857135D01*
X16992266Y12450548D01*
G37*
G36*
G01*
X7877673Y5543515D02*
X7735545Y5685643D01*
G75*
G02*
X7735545Y5798073I56215J56215D01*
G01*
X7847975Y5910503D01*
G75*
G02*
X7960405Y5910503I56215J-56215D01*
G01*
X8102533Y5768375D01*
G75*
G02*
X8102533Y5655945I-56215J-56215D01*
G01*
X7990103Y5543515D01*
G75*
G02*
X7877673Y5543515I-56215J56215D01*
G01*
G37*
G36*
G01*
X8365577Y6031419D02*
X8223449Y6173547D01*
G75*
G02*
X8223449Y6285977I56215J56215D01*
G01*
X8335879Y6398407D01*
G75*
G02*
X8448309Y6398407I56215J-56215D01*
G01*
X8590437Y6256279D01*
G75*
G02*
X8590437Y6143849I-56215J-56215D01*
G01*
X8478007Y6031419D01*
G75*
G02*
X8365577Y6031419I-56215J56215D01*
G01*
G37*
G36*
G01*
X8060460Y11405075D02*
X8322089Y11143446D01*
G75*
G02*
X8322089Y10952528I-95459J-95459D01*
G01*
X8131170Y10761609D01*
G75*
G02*
X7940252Y10761609I-95459J95459D01*
G01*
X7678623Y11023238D01*
G75*
G02*
X7678623Y11214156I95459J95459D01*
G01*
X7869542Y11405075D01*
G75*
G02*
X8060460Y11405075I95459J-95459D01*
G01*
G37*
G36*
G01*
X7339212Y10683827D02*
X7600841Y10422198D01*
G75*
G02*
X7600841Y10231280I-95459J-95459D01*
G01*
X7409922Y10040361D01*
G75*
G02*
X7219004Y10040361I-95459J95459D01*
G01*
X6957375Y10301990D01*
G75*
G02*
X6957375Y10492908I95459J95459D01*
G01*
X7148294Y10683827D01*
G75*
G02*
X7339212Y10683827I95459J-95459D01*
G01*
G37*
G36*
G01*
X15502265Y7894079D02*
X15644393Y8036207D01*
G75*
G02*
X15756823Y8036207I56215J-56215D01*
G01*
X15869253Y7923777D01*
G75*
G02*
X15869253Y7811347I-56215J-56215D01*
G01*
X15727125Y7669219D01*
G75*
G02*
X15614695Y7669219I-56215J56215D01*
G01*
X15502265Y7781649D01*
G75*
G02*
X15502265Y7894079I56215J56215D01*
G01*
G37*
G36*
G01*
X15990169Y7406175D02*
X16132297Y7548303D01*
G75*
G02*
X16244727Y7548303I56215J-56215D01*
G01*
X16357157Y7435873D01*
G75*
G02*
X16357157Y7323443I-56215J-56215D01*
G01*
X16215029Y7181315D01*
G75*
G02*
X16102599Y7181315I-56215J56215D01*
G01*
X15990169Y7293745D01*
G75*
G02*
X15990169Y7406175I56215J56215D01*
G01*
G37*
G36*
G01*
X8800271Y16216053D02*
X8437878Y16578446D01*
G75*
G02*
X8437878Y16887806I154680J154680D01*
G01*
X8747237Y17197165D01*
G75*
G02*
X9056597Y17197165I154680J-154680D01*
G01*
X9418990Y16834772D01*
G75*
G02*
X9418990Y16525412I-154680J-154680D01*
G01*
X9109631Y16216053D01*
G75*
G02*
X8800271Y16216053I-154680J154680D01*
G01*
G37*
G36*
G01*
X9913965Y17329747D02*
X9551572Y17692140D01*
G75*
G02*
X9551572Y18001500I154680J154680D01*
G01*
X9860931Y18310859D01*
G75*
G02*
X10170291Y18310859I154680J-154680D01*
G01*
X10532684Y17948466D01*
G75*
G02*
X10532684Y17639106I-154680J-154680D01*
G01*
X10223325Y17329747D01*
G75*
G02*
X9913965Y17329747I-154680J154680D01*
G01*
G37*
G36*
G01*
X15135276Y8185407D02*
X14993148Y8327535D01*
G75*
G02*
X14993148Y8439965I56215J56215D01*
G01*
X15105578Y8552395D01*
G75*
G02*
X15218008Y8552395I56215J-56215D01*
G01*
X15360136Y8410267D01*
G75*
G02*
X15360136Y8297837I-56215J-56215D01*
G01*
X15247706Y8185407D01*
G75*
G02*
X15135276Y8185407I-56215J56215D01*
G01*
G37*
G36*
G01*
X15623180Y8673311D02*
X15481052Y8815439D01*
G75*
G02*
X15481052Y8927869I56215J56215D01*
G01*
X15593482Y9040299D01*
G75*
G02*
X15705912Y9040299I56215J-56215D01*
G01*
X15848040Y8898171D01*
G75*
G02*
X15848040Y8785741I-56215J-56215D01*
G01*
X15735610Y8673311D01*
G75*
G02*
X15623180Y8673311I-56215J56215D01*
G01*
G37*
G36*
G01*
X12402815Y19743990D02*
X12138815Y19743990D01*
G75*
G02*
X12105815Y19776990I0J33000D01*
G01*
X12105815Y20100990D01*
G75*
G02*
X12138815Y20133990I33000J0D01*
G01*
X12402815Y20133990D01*
G75*
G02*
X12435815Y20100990I0J-33000D01*
G01*
X12435815Y19776990D01*
G75*
G02*
X12402815Y19743990I-33000J0D01*
G01*
G37*
G36*
G01*
X12902815Y19743990D02*
X12638815Y19743990D01*
G75*
G02*
X12605815Y19776990I0J33000D01*
G01*
X12605815Y20100990D01*
G75*
G02*
X12638815Y20133990I33000J0D01*
G01*
X12902815Y20133990D01*
G75*
G02*
X12935815Y20100990I0J-33000D01*
G01*
X12935815Y19776990D01*
G75*
G02*
X12902815Y19743990I-33000J0D01*
G01*
G37*
G36*
G01*
X13402815Y19743990D02*
X13138815Y19743990D01*
G75*
G02*
X13105815Y19776990I0J33000D01*
G01*
X13105815Y20100990D01*
G75*
G02*
X13138815Y20133990I33000J0D01*
G01*
X13402815Y20133990D01*
G75*
G02*
X13435815Y20100990I0J-33000D01*
G01*
X13435815Y19776990D01*
G75*
G02*
X13402815Y19743990I-33000J0D01*
G01*
G37*
G36*
G01*
X13902815Y19743990D02*
X13638815Y19743990D01*
G75*
G02*
X13605815Y19776990I0J33000D01*
G01*
X13605815Y20100990D01*
G75*
G02*
X13638815Y20133990I33000J0D01*
G01*
X13902815Y20133990D01*
G75*
G02*
X13935815Y20100990I0J-33000D01*
G01*
X13935815Y19776990D01*
G75*
G02*
X13902815Y19743990I-33000J0D01*
G01*
G37*
G36*
G01*
X14097215Y20383990D02*
X13773215Y20383990D01*
G75*
G02*
X13740215Y20416990I0J33000D01*
G01*
X13740215Y20680990D01*
G75*
G02*
X13773215Y20713990I33000J0D01*
G01*
X14097215Y20713990D01*
G75*
G02*
X14130215Y20680990I0J-33000D01*
G01*
X14130215Y20416990D01*
G75*
G02*
X14097215Y20383990I-33000J0D01*
G01*
G37*
G36*
G01*
X14097215Y20883990D02*
X13773215Y20883990D01*
G75*
G02*
X13740215Y20916990I0J33000D01*
G01*
X13740215Y21180990D01*
G75*
G02*
X13773215Y21213990I33000J0D01*
G01*
X14097215Y21213990D01*
G75*
G02*
X14130215Y21180990I0J-33000D01*
G01*
X14130215Y20916990D01*
G75*
G02*
X14097215Y20883990I-33000J0D01*
G01*
G37*
G36*
G01*
X13902815Y21463990D02*
X13638815Y21463990D01*
G75*
G02*
X13605815Y21496990I0J33000D01*
G01*
X13605815Y21820990D01*
G75*
G02*
X13638815Y21853990I33000J0D01*
G01*
X13902815Y21853990D01*
G75*
G02*
X13935815Y21820990I0J-33000D01*
G01*
X13935815Y21496990D01*
G75*
G02*
X13902815Y21463990I-33000J0D01*
G01*
G37*
G36*
G01*
X13402815Y21463990D02*
X13138815Y21463990D01*
G75*
G02*
X13105815Y21496990I0J33000D01*
G01*
X13105815Y21820990D01*
G75*
G02*
X13138815Y21853990I33000J0D01*
G01*
X13402815Y21853990D01*
G75*
G02*
X13435815Y21820990I0J-33000D01*
G01*
X13435815Y21496990D01*
G75*
G02*
X13402815Y21463990I-33000J0D01*
G01*
G37*
G36*
G01*
X12902815Y21463990D02*
X12638815Y21463990D01*
G75*
G02*
X12605815Y21496990I0J33000D01*
G01*
X12605815Y21820990D01*
G75*
G02*
X12638815Y21853990I33000J0D01*
G01*
X12902815Y21853990D01*
G75*
G02*
X12935815Y21820990I0J-33000D01*
G01*
X12935815Y21496990D01*
G75*
G02*
X12902815Y21463990I-33000J0D01*
G01*
G37*
G36*
G01*
X12402815Y21463990D02*
X12138815Y21463990D01*
G75*
G02*
X12105815Y21496990I0J33000D01*
G01*
X12105815Y21820990D01*
G75*
G02*
X12138815Y21853990I33000J0D01*
G01*
X12402815Y21853990D01*
G75*
G02*
X12435815Y21820990I0J-33000D01*
G01*
X12435815Y21496990D01*
G75*
G02*
X12402815Y21463990I-33000J0D01*
G01*
G37*
G36*
G01*
X12268415Y20883990D02*
X11944415Y20883990D01*
G75*
G02*
X11911415Y20916990I0J33000D01*
G01*
X11911415Y21180990D01*
G75*
G02*
X11944415Y21213990I33000J0D01*
G01*
X12268415Y21213990D01*
G75*
G02*
X12301415Y21180990I0J-33000D01*
G01*
X12301415Y20916990D01*
G75*
G02*
X12268415Y20883990I-33000J0D01*
G01*
G37*
G36*
G01*
X12268415Y20383990D02*
X11944415Y20383990D01*
G75*
G02*
X11911415Y20416990I0J33000D01*
G01*
X11911415Y20680990D01*
G75*
G02*
X11944415Y20713990I33000J0D01*
G01*
X12268415Y20713990D01*
G75*
G02*
X12301415Y20680990I0J-33000D01*
G01*
X12301415Y20416990D01*
G75*
G02*
X12268415Y20383990I-33000J0D01*
G01*
G37*
G36*
X8106423Y12278353D02*
G01*
X7823580Y12561196D01*
X8000357Y12737973D01*
X8283200Y12455130D01*
X8106423Y12278353D01*
G37*
G36*
X8424621Y12596551D02*
G01*
X8141778Y12879394D01*
X8318555Y13056171D01*
X8601398Y12773328D01*
X8424621Y12596551D01*
G37*
G36*
X7611449Y12773327D02*
G01*
X7328606Y13056170D01*
X7823581Y13551145D01*
X8106424Y13268302D01*
X7611449Y12773327D01*
G37*
G36*
G01*
X12315662Y22617759D02*
X12315662Y22416759D01*
G75*
G02*
X12236162Y22337259I-79500J0D01*
G01*
X12077162Y22337259D01*
G75*
G02*
X11997662Y22416759I0J79500D01*
G01*
X11997662Y22617759D01*
G75*
G02*
X12077162Y22697259I79500J0D01*
G01*
X12236162Y22697259D01*
G75*
G02*
X12315662Y22617759I0J-79500D01*
G01*
G37*
G36*
G01*
X11625662Y22617759D02*
X11625662Y22416759D01*
G75*
G02*
X11546162Y22337259I-79500J0D01*
G01*
X11387162Y22337259D01*
G75*
G02*
X11307662Y22416759I0J79500D01*
G01*
X11307662Y22617759D01*
G75*
G02*
X11387162Y22697259I79500J0D01*
G01*
X11546162Y22697259D01*
G75*
G02*
X11625662Y22617759I0J-79500D01*
G01*
G37*
G36*
G01*
X19208261Y11202604D02*
X19066133Y11060476D01*
G75*
G02*
X18953703Y11060476I-56215J56215D01*
G01*
X18841273Y11172906D01*
G75*
G02*
X18841273Y11285336I56215J56215D01*
G01*
X18983401Y11427464D01*
G75*
G02*
X19095831Y11427464I56215J-56215D01*
G01*
X19208261Y11315034D01*
G75*
G02*
X19208261Y11202604I-56215J-56215D01*
G01*
G37*
G36*
G01*
X18720357Y11690508D02*
X18578229Y11548380D01*
G75*
G02*
X18465799Y11548380I-56215J56215D01*
G01*
X18353369Y11660810D01*
G75*
G02*
X18353369Y11773240I56215J56215D01*
G01*
X18495497Y11915368D01*
G75*
G02*
X18607927Y11915368I56215J-56215D01*
G01*
X18720357Y11802938D01*
G75*
G02*
X18720357Y11690508I-56215J-56215D01*
G01*
G37*
G36*
G01*
X18603777Y9176630D02*
X18745905Y9318758D01*
G75*
G02*
X18858335Y9318758I56215J-56215D01*
G01*
X18970765Y9206328D01*
G75*
G02*
X18970765Y9093898I-56215J-56215D01*
G01*
X18828637Y8951770D01*
G75*
G02*
X18716207Y8951770I-56215J56215D01*
G01*
X18603777Y9064200D01*
G75*
G02*
X18603777Y9176630I56215J56215D01*
G01*
G37*
G36*
G01*
X19091681Y8688726D02*
X19233809Y8830854D01*
G75*
G02*
X19346239Y8830854I56215J-56215D01*
G01*
X19458669Y8718424D01*
G75*
G02*
X19458669Y8605994I-56215J-56215D01*
G01*
X19316541Y8463866D01*
G75*
G02*
X19204111Y8463866I-56215J56215D01*
G01*
X19091681Y8576296D01*
G75*
G02*
X19091681Y8688726I56215J56215D01*
G01*
G37*
G36*
G01*
X4724498Y15593179D02*
X4724498Y15794179D01*
G75*
G02*
X4803998Y15873679I79500J0D01*
G01*
X4962998Y15873679D01*
G75*
G02*
X5042498Y15794179I0J-79500D01*
G01*
X5042498Y15593179D01*
G75*
G02*
X4962998Y15513679I-79500J0D01*
G01*
X4803998Y15513679D01*
G75*
G02*
X4724498Y15593179I0J79500D01*
G01*
G37*
G36*
G01*
X5414498Y15593179D02*
X5414498Y15794179D01*
G75*
G02*
X5493998Y15873679I79500J0D01*
G01*
X5652998Y15873679D01*
G75*
G02*
X5732498Y15794179I0J-79500D01*
G01*
X5732498Y15593179D01*
G75*
G02*
X5652998Y15513679I-79500J0D01*
G01*
X5493998Y15513679D01*
G75*
G02*
X5414498Y15593179I0J79500D01*
G01*
G37*
G36*
G01*
X21572918Y4540130D02*
X21430790Y4398002D01*
G75*
G02*
X21318360Y4398002I-56215J56215D01*
G01*
X21205930Y4510432D01*
G75*
G02*
X21205930Y4622862I56215J56215D01*
G01*
X21348058Y4764990D01*
G75*
G02*
X21460488Y4764990I56215J-56215D01*
G01*
X21572918Y4652560D01*
G75*
G02*
X21572918Y4540130I-56215J-56215D01*
G01*
G37*
G36*
G01*
X21085014Y5028034D02*
X20942886Y4885906D01*
G75*
G02*
X20830456Y4885906I-56215J56215D01*
G01*
X20718026Y4998336D01*
G75*
G02*
X20718026Y5110766I56215J56215D01*
G01*
X20860154Y5252894D01*
G75*
G02*
X20972584Y5252894I56215J-56215D01*
G01*
X21085014Y5140464D01*
G75*
G02*
X21085014Y5028034I-56215J-56215D01*
G01*
G37*
G36*
G01*
X10514475Y7451289D02*
X10656603Y7593417D01*
G75*
G02*
X10769033Y7593417I56215J-56215D01*
G01*
X10881463Y7480987D01*
G75*
G02*
X10881463Y7368557I-56215J-56215D01*
G01*
X10739335Y7226429D01*
G75*
G02*
X10626905Y7226429I-56215J56215D01*
G01*
X10514475Y7338859D01*
G75*
G02*
X10514475Y7451289I56215J56215D01*
G01*
G37*
G36*
G01*
X11002379Y6963385D02*
X11144507Y7105513D01*
G75*
G02*
X11256937Y7105513I56215J-56215D01*
G01*
X11369367Y6993083D01*
G75*
G02*
X11369367Y6880653I-56215J-56215D01*
G01*
X11227239Y6738525D01*
G75*
G02*
X11114809Y6738525I-56215J56215D01*
G01*
X11002379Y6850955D01*
G75*
G02*
X11002379Y6963385I56215J56215D01*
G01*
G37*
G36*
X10652008Y12419774D02*
G01*
X10192388Y12879394D01*
X10934850Y13621856D01*
X11394470Y13162236D01*
X10652008Y12419774D01*
G37*
G36*
X13586501Y15354267D02*
G01*
X13126881Y15813887D01*
X13869343Y16556349D01*
X14328963Y16096729D01*
X13586501Y15354267D01*
G37*
G36*
X12172287Y10899495D02*
G01*
X11712667Y11359115D01*
X12455129Y12101577D01*
X12914749Y11641957D01*
X12172287Y10899495D01*
G37*
G36*
X15089103Y13816310D02*
G01*
X14629483Y14275930D01*
X15371945Y15018392D01*
X15831565Y14558772D01*
X15089103Y13816310D01*
G37*
G36*
G01*
X19726663Y8456087D02*
X19868791Y8313959D01*
G75*
G02*
X19868791Y8201529I-56215J-56215D01*
G01*
X19756361Y8089099D01*
G75*
G02*
X19643931Y8089099I-56215J56215D01*
G01*
X19501803Y8231227D01*
G75*
G02*
X19501803Y8343657I56215J56215D01*
G01*
X19614233Y8456087D01*
G75*
G02*
X19726663Y8456087I56215J-56215D01*
G01*
G37*
G36*
G01*
X19238759Y7968183D02*
X19380887Y7826055D01*
G75*
G02*
X19380887Y7713625I-56215J-56215D01*
G01*
X19268457Y7601195D01*
G75*
G02*
X19156027Y7601195I-56215J56215D01*
G01*
X19013899Y7743323D01*
G75*
G02*
X19013899Y7855753I56215J56215D01*
G01*
X19126329Y7968183D01*
G75*
G02*
X19238759Y7968183I56215J-56215D01*
G01*
G37*
G36*
G01*
X20999455Y7183295D02*
X21141583Y7041167D01*
G75*
G02*
X21141583Y6928737I-56215J-56215D01*
G01*
X21029153Y6816307D01*
G75*
G02*
X20916723Y6816307I-56215J56215D01*
G01*
X20774595Y6958435D01*
G75*
G02*
X20774595Y7070865I56215J56215D01*
G01*
X20887025Y7183295D01*
G75*
G02*
X20999455Y7183295I56215J-56215D01*
G01*
G37*
G36*
G01*
X20511551Y6695391D02*
X20653679Y6553263D01*
G75*
G02*
X20653679Y6440833I-56215J-56215D01*
G01*
X20541249Y6328403D01*
G75*
G02*
X20428819Y6328403I-56215J56215D01*
G01*
X20286691Y6470531D01*
G75*
G02*
X20286691Y6582961I56215J56215D01*
G01*
X20399121Y6695391D01*
G75*
G02*
X20511551Y6695391I56215J-56215D01*
G01*
G37*
G36*
G01*
X19876569Y7903837D02*
X20018697Y8045965D01*
G75*
G02*
X20131127Y8045965I56215J-56215D01*
G01*
X20243557Y7933535D01*
G75*
G02*
X20243557Y7821105I-56215J-56215D01*
G01*
X20101429Y7678977D01*
G75*
G02*
X19988999Y7678977I-56215J56215D01*
G01*
X19876569Y7791407D01*
G75*
G02*
X19876569Y7903837I56215J56215D01*
G01*
G37*
G36*
G01*
X20364473Y7415933D02*
X20506601Y7558061D01*
G75*
G02*
X20619031Y7558061I56215J-56215D01*
G01*
X20731461Y7445631D01*
G75*
G02*
X20731461Y7333201I-56215J-56215D01*
G01*
X20589333Y7191073D01*
G75*
G02*
X20476903Y7191073I-56215J56215D01*
G01*
X20364473Y7303503D01*
G75*
G02*
X20364473Y7415933I56215J56215D01*
G01*
G37*
G36*
G01*
X4558801Y13314655D02*
X4558801Y14144655D01*
G75*
G02*
X4618801Y14204655I60000J0D01*
G01*
X4898801Y14204655D01*
G75*
G02*
X4958801Y14144655I0J-60000D01*
G01*
X4958801Y13314655D01*
G75*
G02*
X4898801Y13254655I-60000J0D01*
G01*
X4618801Y13254655D01*
G75*
G02*
X4558801Y13314655I0J60000D01*
G01*
G37*
G36*
G01*
X4558801Y11964655D02*
X4558801Y12794655D01*
G75*
G02*
X4618801Y12854655I60000J0D01*
G01*
X4898801Y12854655D01*
G75*
G02*
X4958801Y12794655I0J-60000D01*
G01*
X4958801Y11964655D01*
G75*
G02*
X4898801Y11904655I-60000J0D01*
G01*
X4618801Y11904655D01*
G75*
G02*
X4558801Y11964655I0J60000D01*
G01*
G37*
G36*
G01*
X5458801Y11964655D02*
X5458801Y12794655D01*
G75*
G02*
X5518801Y12854655I60000J0D01*
G01*
X5798801Y12854655D01*
G75*
G02*
X5858801Y12794655I0J-60000D01*
G01*
X5858801Y11964655D01*
G75*
G02*
X5798801Y11904655I-60000J0D01*
G01*
X5518801Y11904655D01*
G75*
G02*
X5458801Y11964655I0J60000D01*
G01*
G37*
G36*
G01*
X5458801Y13314655D02*
X5458801Y14144655D01*
G75*
G02*
X5518801Y14204655I60000J0D01*
G01*
X5798801Y14204655D01*
G75*
G02*
X5858801Y14144655I0J-60000D01*
G01*
X5858801Y13314655D01*
G75*
G02*
X5798801Y13254655I-60000J0D01*
G01*
X5518801Y13254655D01*
G75*
G02*
X5458801Y13314655I0J60000D01*
G01*
G37*
G36*
G01*
X3861301Y14204655D02*
X4106301Y14204655D01*
G75*
G02*
X4158801Y14152155I0J-52500D01*
G01*
X4158801Y11957155D01*
G75*
G02*
X4106301Y11904655I-52500J0D01*
G01*
X3861301Y11904655D01*
G75*
G02*
X3808801Y11957155I0J52500D01*
G01*
X3808801Y14152155D01*
G75*
G02*
X3861301Y14204655I52500J0D01*
G01*
G37*
G36*
G01*
X5858801Y14902155D02*
X5858801Y14657155D01*
G75*
G02*
X5806301Y14604655I-52500J0D01*
G01*
X4611301Y14604655D01*
G75*
G02*
X4558801Y14657155I0J52500D01*
G01*
X4558801Y14902155D01*
G75*
G02*
X4611301Y14954655I52500J0D01*
G01*
X5806301Y14954655D01*
G75*
G02*
X5858801Y14902155I0J-52500D01*
G01*
G37*
G36*
G01*
X5858801Y11452155D02*
X5858801Y11207155D01*
G75*
G02*
X5806301Y11154655I-52500J0D01*
G01*
X4611301Y11154655D01*
G75*
G02*
X4558801Y11207155I0J52500D01*
G01*
X4558801Y11452155D01*
G75*
G02*
X4611301Y11504655I52500J0D01*
G01*
X5806301Y11504655D01*
G75*
G02*
X5858801Y11452155I0J-52500D01*
G01*
G37*
G36*
G01*
X6311301Y14204655D02*
X6556301Y14204655D01*
G75*
G02*
X6608801Y14152155I0J-52500D01*
G01*
X6608801Y11957155D01*
G75*
G02*
X6556301Y11904655I-52500J0D01*
G01*
X6311301Y11904655D01*
G75*
G02*
X6258801Y11957155I0J52500D01*
G01*
X6258801Y14152155D01*
G75*
G02*
X6311301Y14204655I52500J0D01*
G01*
G37*
G36*
G01*
X8095817Y14148650D02*
X8357446Y14410279D01*
G75*
G02*
X8548364Y14410279I95459J-95459D01*
G01*
X8739283Y14219360D01*
G75*
G02*
X8739283Y14028442I-95459J-95459D01*
G01*
X8477654Y13766813D01*
G75*
G02*
X8286736Y13766813I-95459J95459D01*
G01*
X8095817Y13957732D01*
G75*
G02*
X8095817Y14148650I95459J95459D01*
G01*
G37*
G36*
G01*
X8817065Y13427402D02*
X9078694Y13689031D01*
G75*
G02*
X9269612Y13689031I95459J-95459D01*
G01*
X9460531Y13498112D01*
G75*
G02*
X9460531Y13307194I-95459J-95459D01*
G01*
X9198902Y13045565D01*
G75*
G02*
X9007984Y13045565I-95459J95459D01*
G01*
X8817065Y13236484D01*
G75*
G02*
X8817065Y13427402I95459J95459D01*
G01*
G37*
G36*
G01*
X16499285Y8876958D02*
X16641413Y9019086D01*
G75*
G02*
X16753843Y9019086I56215J-56215D01*
G01*
X16866273Y8906656D01*
G75*
G02*
X16866273Y8794226I-56215J-56215D01*
G01*
X16724145Y8652098D01*
G75*
G02*
X16611715Y8652098I-56215J56215D01*
G01*
X16499285Y8764528D01*
G75*
G02*
X16499285Y8876958I56215J56215D01*
G01*
G37*
G36*
G01*
X16987189Y8389054D02*
X17129317Y8531182D01*
G75*
G02*
X17241747Y8531182I56215J-56215D01*
G01*
X17354177Y8418752D01*
G75*
G02*
X17354177Y8306322I-56215J-56215D01*
G01*
X17212049Y8164194D01*
G75*
G02*
X17099619Y8164194I-56215J56215D01*
G01*
X16987189Y8276624D01*
G75*
G02*
X16987189Y8389054I56215J56215D01*
G01*
G37*
G36*
G01*
X6497754Y8866563D02*
X6639176Y9007985D01*
G75*
G02*
X6780598Y9007985I70711J-70711D01*
G01*
X7098796Y8689787D01*
G75*
G02*
X7098796Y8548365I-70711J-70711D01*
G01*
X6957374Y8406943D01*
G75*
G02*
X6815952Y8406943I-70711J70711D01*
G01*
X6497754Y8725141D01*
G75*
G02*
X6497754Y8866563I70711J70711D01*
G01*
G37*
G36*
G01*
X6038135Y8406943D02*
X6179557Y8548365D01*
G75*
G02*
X6320979Y8548365I70711J-70711D01*
G01*
X6639177Y8230167D01*
G75*
G02*
X6639177Y8088745I-70711J-70711D01*
G01*
X6497755Y7947323D01*
G75*
G02*
X6356333Y7947323I-70711J70711D01*
G01*
X6038135Y8265521D01*
G75*
G02*
X6038135Y8406943I70711J70711D01*
G01*
G37*
G36*
G01*
X5578515Y7947324D02*
X5719937Y8088746D01*
G75*
G02*
X5861359Y8088746I70711J-70711D01*
G01*
X6179557Y7770548D01*
G75*
G02*
X6179557Y7629126I-70711J-70711D01*
G01*
X6038135Y7487704D01*
G75*
G02*
X5896713Y7487704I-70711J70711D01*
G01*
X5578515Y7805902D01*
G75*
G02*
X5578515Y7947324I70711J70711D01*
G01*
G37*
G36*
G01*
X6922018Y6603821D02*
X7063440Y6745243D01*
G75*
G02*
X7204862Y6745243I70711J-70711D01*
G01*
X7523060Y6427045D01*
G75*
G02*
X7523060Y6285623I-70711J-70711D01*
G01*
X7381638Y6144201D01*
G75*
G02*
X7240216Y6144201I-70711J70711D01*
G01*
X6922018Y6462399D01*
G75*
G02*
X6922018Y6603821I70711J70711D01*
G01*
G37*
G36*
G01*
X7381637Y7063441D02*
X7523059Y7204863D01*
G75*
G02*
X7664481Y7204863I70711J-70711D01*
G01*
X7982679Y6886665D01*
G75*
G02*
X7982679Y6745243I-70711J-70711D01*
G01*
X7841257Y6603821D01*
G75*
G02*
X7699835Y6603821I-70711J70711D01*
G01*
X7381637Y6922019D01*
G75*
G02*
X7381637Y7063441I70711J70711D01*
G01*
G37*
G36*
G01*
X7841257Y7523060D02*
X7982679Y7664482D01*
G75*
G02*
X8124101Y7664482I70711J-70711D01*
G01*
X8442299Y7346284D01*
G75*
G02*
X8442299Y7204862I-70711J-70711D01*
G01*
X8300877Y7063440D01*
G75*
G02*
X8159455Y7063440I-70711J70711D01*
G01*
X7841257Y7381638D01*
G75*
G02*
X7841257Y7523060I70711J70711D01*
G01*
G37*
M02*
