G04 #@! TF.GenerationSoftware,KiCad,Pcbnew,9.0.0-rc2-3baa6cd791~182~ubuntu24.04.1*
G04 #@! TF.CreationDate,2025-02-06T23:09:26-05:00*
G04 #@! TF.ProjectId,PCA20073_Tiny_Board,50434132-3030-4373-935f-54696e795f42,rev?*
G04 #@! TF.SameCoordinates,PX82a22f1PY713a4f2*
G04 #@! TF.FileFunction,Legend,Top*
G04 #@! TF.FilePolarity,Positive*
%FSLAX46Y46*%
G04 Gerber Fmt 4.6, Leading zero omitted, Abs format (unit mm)*
G04 Created by KiCad (PCBNEW 9.0.0-rc2-3baa6cd791~182~ubuntu24.04.1) date 2025-02-06 23:09:26*
%MOMM*%
%LPD*%
G01*
G04 APERTURE LIST*
%ADD10C,0.100000*%
%ADD11C,0.150000*%
%ADD12C,0.300000*%
%ADD13C,0.400000*%
%ADD14C,0.200000*%
%ADD15C,0.120000*%
G04 APERTURE END LIST*
D10*
D11*
X40023015Y-47279278D02*
X148023015Y-47279278D01*
X148023015Y-79279278D01*
X40023015Y-79279278D01*
X40023015Y-47279278D01*
D10*
D11*
X-126979185Y108727922D02*
X150023015Y108727922D01*
X150023015Y-81279278D01*
X-126979185Y-81279278D01*
X-126979185Y108727922D01*
D10*
D11*
X-124979185Y106727922D02*
X148023015Y106727922D01*
X148023015Y-79279278D01*
X-124979185Y-79279278D01*
X-124979185Y106727922D01*
D10*
D11*
X-76979185Y106727922D02*
X-76979185Y108727922D01*
D10*
D11*
X-26979185Y106727922D02*
X-26979185Y108727922D01*
D10*
D11*
X23020815Y106727922D02*
X23020815Y108727922D01*
D10*
D11*
X73020815Y106727922D02*
X73020815Y108727922D01*
D10*
D11*
X123020815Y106727922D02*
X123020815Y108727922D01*
D10*
D11*
X-100890025Y107134318D02*
X-101632882Y107134318D01*
X-101261454Y107134318D02*
X-101261454Y108434318D01*
X-101261454Y108434318D02*
X-101385263Y108248603D01*
X-101385263Y108248603D02*
X-101509073Y108124794D01*
X-101509073Y108124794D02*
X-101632882Y108062889D01*
D10*
D11*
X-51632882Y108310508D02*
X-51570978Y108372413D01*
X-51570978Y108372413D02*
X-51447168Y108434318D01*
X-51447168Y108434318D02*
X-51137644Y108434318D01*
X-51137644Y108434318D02*
X-51013835Y108372413D01*
X-51013835Y108372413D02*
X-50951930Y108310508D01*
X-50951930Y108310508D02*
X-50890025Y108186699D01*
X-50890025Y108186699D02*
X-50890025Y108062889D01*
X-50890025Y108062889D02*
X-50951930Y107877175D01*
X-50951930Y107877175D02*
X-51694787Y107134318D01*
X-51694787Y107134318D02*
X-50890025Y107134318D01*
D10*
D11*
X-1694787Y108434318D02*
X-890025Y108434318D01*
X-890025Y108434318D02*
X-1323359Y107939080D01*
X-1323359Y107939080D02*
X-1137644Y107939080D01*
X-1137644Y107939080D02*
X-1013835Y107877175D01*
X-1013835Y107877175D02*
X-951930Y107815270D01*
X-951930Y107815270D02*
X-890025Y107691461D01*
X-890025Y107691461D02*
X-890025Y107381937D01*
X-890025Y107381937D02*
X-951930Y107258127D01*
X-951930Y107258127D02*
X-1013835Y107196222D01*
X-1013835Y107196222D02*
X-1137644Y107134318D01*
X-1137644Y107134318D02*
X-1509073Y107134318D01*
X-1509073Y107134318D02*
X-1632882Y107196222D01*
X-1632882Y107196222D02*
X-1694787Y107258127D01*
D10*
D11*
X48986165Y108000984D02*
X48986165Y107134318D01*
X48676641Y108496222D02*
X48367118Y107567651D01*
X48367118Y107567651D02*
X49171879Y107567651D01*
D10*
D11*
X99048070Y108434318D02*
X98429022Y108434318D01*
X98429022Y108434318D02*
X98367118Y107815270D01*
X98367118Y107815270D02*
X98429022Y107877175D01*
X98429022Y107877175D02*
X98552832Y107939080D01*
X98552832Y107939080D02*
X98862356Y107939080D01*
X98862356Y107939080D02*
X98986165Y107877175D01*
X98986165Y107877175D02*
X99048070Y107815270D01*
X99048070Y107815270D02*
X99109975Y107691461D01*
X99109975Y107691461D02*
X99109975Y107381937D01*
X99109975Y107381937D02*
X99048070Y107258127D01*
X99048070Y107258127D02*
X98986165Y107196222D01*
X98986165Y107196222D02*
X98862356Y107134318D01*
X98862356Y107134318D02*
X98552832Y107134318D01*
X98552832Y107134318D02*
X98429022Y107196222D01*
X98429022Y107196222D02*
X98367118Y107258127D01*
D10*
D11*
X148986165Y108434318D02*
X148738546Y108434318D01*
X148738546Y108434318D02*
X148614737Y108372413D01*
X148614737Y108372413D02*
X148552832Y108310508D01*
X148552832Y108310508D02*
X148429022Y108124794D01*
X148429022Y108124794D02*
X148367118Y107877175D01*
X148367118Y107877175D02*
X148367118Y107381937D01*
X148367118Y107381937D02*
X148429022Y107258127D01*
X148429022Y107258127D02*
X148490927Y107196222D01*
X148490927Y107196222D02*
X148614737Y107134318D01*
X148614737Y107134318D02*
X148862356Y107134318D01*
X148862356Y107134318D02*
X148986165Y107196222D01*
X148986165Y107196222D02*
X149048070Y107258127D01*
X149048070Y107258127D02*
X149109975Y107381937D01*
X149109975Y107381937D02*
X149109975Y107691461D01*
X149109975Y107691461D02*
X149048070Y107815270D01*
X149048070Y107815270D02*
X148986165Y107877175D01*
X148986165Y107877175D02*
X148862356Y107939080D01*
X148862356Y107939080D02*
X148614737Y107939080D01*
X148614737Y107939080D02*
X148490927Y107877175D01*
X148490927Y107877175D02*
X148429022Y107815270D01*
X148429022Y107815270D02*
X148367118Y107691461D01*
D10*
D11*
X-76979185Y-79279278D02*
X-76979185Y-81279278D01*
D10*
D11*
X-26979185Y-79279278D02*
X-26979185Y-81279278D01*
D10*
D11*
X23020815Y-79279278D02*
X23020815Y-81279278D01*
D10*
D11*
X73020815Y-79279278D02*
X73020815Y-81279278D01*
D10*
D11*
X123020815Y-79279278D02*
X123020815Y-81279278D01*
D10*
D11*
X-100890025Y-80872882D02*
X-101632882Y-80872882D01*
X-101261454Y-80872882D02*
X-101261454Y-79572882D01*
X-101261454Y-79572882D02*
X-101385263Y-79758597D01*
X-101385263Y-79758597D02*
X-101509073Y-79882406D01*
X-101509073Y-79882406D02*
X-101632882Y-79944311D01*
D10*
D11*
X-51632882Y-79696692D02*
X-51570978Y-79634787D01*
X-51570978Y-79634787D02*
X-51447168Y-79572882D01*
X-51447168Y-79572882D02*
X-51137644Y-79572882D01*
X-51137644Y-79572882D02*
X-51013835Y-79634787D01*
X-51013835Y-79634787D02*
X-50951930Y-79696692D01*
X-50951930Y-79696692D02*
X-50890025Y-79820501D01*
X-50890025Y-79820501D02*
X-50890025Y-79944311D01*
X-50890025Y-79944311D02*
X-50951930Y-80130025D01*
X-50951930Y-80130025D02*
X-51694787Y-80872882D01*
X-51694787Y-80872882D02*
X-50890025Y-80872882D01*
D10*
D11*
X-1694787Y-79572882D02*
X-890025Y-79572882D01*
X-890025Y-79572882D02*
X-1323359Y-80068120D01*
X-1323359Y-80068120D02*
X-1137644Y-80068120D01*
X-1137644Y-80068120D02*
X-1013835Y-80130025D01*
X-1013835Y-80130025D02*
X-951930Y-80191930D01*
X-951930Y-80191930D02*
X-890025Y-80315739D01*
X-890025Y-80315739D02*
X-890025Y-80625263D01*
X-890025Y-80625263D02*
X-951930Y-80749073D01*
X-951930Y-80749073D02*
X-1013835Y-80810978D01*
X-1013835Y-80810978D02*
X-1137644Y-80872882D01*
X-1137644Y-80872882D02*
X-1509073Y-80872882D01*
X-1509073Y-80872882D02*
X-1632882Y-80810978D01*
X-1632882Y-80810978D02*
X-1694787Y-80749073D01*
D10*
D11*
X48986165Y-80006216D02*
X48986165Y-80872882D01*
X48676641Y-79510978D02*
X48367118Y-80439549D01*
X48367118Y-80439549D02*
X49171879Y-80439549D01*
D10*
D11*
X99048070Y-79572882D02*
X98429022Y-79572882D01*
X98429022Y-79572882D02*
X98367118Y-80191930D01*
X98367118Y-80191930D02*
X98429022Y-80130025D01*
X98429022Y-80130025D02*
X98552832Y-80068120D01*
X98552832Y-80068120D02*
X98862356Y-80068120D01*
X98862356Y-80068120D02*
X98986165Y-80130025D01*
X98986165Y-80130025D02*
X99048070Y-80191930D01*
X99048070Y-80191930D02*
X99109975Y-80315739D01*
X99109975Y-80315739D02*
X99109975Y-80625263D01*
X99109975Y-80625263D02*
X99048070Y-80749073D01*
X99048070Y-80749073D02*
X98986165Y-80810978D01*
X98986165Y-80810978D02*
X98862356Y-80872882D01*
X98862356Y-80872882D02*
X98552832Y-80872882D01*
X98552832Y-80872882D02*
X98429022Y-80810978D01*
X98429022Y-80810978D02*
X98367118Y-80749073D01*
D10*
D11*
X148986165Y-79572882D02*
X148738546Y-79572882D01*
X148738546Y-79572882D02*
X148614737Y-79634787D01*
X148614737Y-79634787D02*
X148552832Y-79696692D01*
X148552832Y-79696692D02*
X148429022Y-79882406D01*
X148429022Y-79882406D02*
X148367118Y-80130025D01*
X148367118Y-80130025D02*
X148367118Y-80625263D01*
X148367118Y-80625263D02*
X148429022Y-80749073D01*
X148429022Y-80749073D02*
X148490927Y-80810978D01*
X148490927Y-80810978D02*
X148614737Y-80872882D01*
X148614737Y-80872882D02*
X148862356Y-80872882D01*
X148862356Y-80872882D02*
X148986165Y-80810978D01*
X148986165Y-80810978D02*
X149048070Y-80749073D01*
X149048070Y-80749073D02*
X149109975Y-80625263D01*
X149109975Y-80625263D02*
X149109975Y-80315739D01*
X149109975Y-80315739D02*
X149048070Y-80191930D01*
X149048070Y-80191930D02*
X148986165Y-80130025D01*
X148986165Y-80130025D02*
X148862356Y-80068120D01*
X148862356Y-80068120D02*
X148614737Y-80068120D01*
X148614737Y-80068120D02*
X148490927Y-80130025D01*
X148490927Y-80130025D02*
X148429022Y-80191930D01*
X148429022Y-80191930D02*
X148367118Y-80315739D01*
D10*
D11*
X-126979185Y58727922D02*
X-124979185Y58727922D01*
D10*
D11*
X-126979185Y8727922D02*
X-124979185Y8727922D01*
D10*
D11*
X-126979185Y-41272078D02*
X-124979185Y-41272078D01*
D10*
D11*
X-126288709Y83505746D02*
X-125669662Y83505746D01*
X-126412519Y83134318D02*
X-125979186Y84434318D01*
X-125979186Y84434318D02*
X-125545852Y83134318D01*
D10*
D11*
X-125886328Y33815270D02*
X-125700614Y33753365D01*
X-125700614Y33753365D02*
X-125638709Y33691461D01*
X-125638709Y33691461D02*
X-125576805Y33567651D01*
X-125576805Y33567651D02*
X-125576805Y33381937D01*
X-125576805Y33381937D02*
X-125638709Y33258127D01*
X-125638709Y33258127D02*
X-125700614Y33196222D01*
X-125700614Y33196222D02*
X-125824424Y33134318D01*
X-125824424Y33134318D02*
X-126319662Y33134318D01*
X-126319662Y33134318D02*
X-126319662Y34434318D01*
X-126319662Y34434318D02*
X-125886328Y34434318D01*
X-125886328Y34434318D02*
X-125762519Y34372413D01*
X-125762519Y34372413D02*
X-125700614Y34310508D01*
X-125700614Y34310508D02*
X-125638709Y34186699D01*
X-125638709Y34186699D02*
X-125638709Y34062889D01*
X-125638709Y34062889D02*
X-125700614Y33939080D01*
X-125700614Y33939080D02*
X-125762519Y33877175D01*
X-125762519Y33877175D02*
X-125886328Y33815270D01*
X-125886328Y33815270D02*
X-126319662Y33815270D01*
D10*
D11*
X-125576805Y-16741873D02*
X-125638709Y-16803778D01*
X-125638709Y-16803778D02*
X-125824424Y-16865682D01*
X-125824424Y-16865682D02*
X-125948233Y-16865682D01*
X-125948233Y-16865682D02*
X-126133947Y-16803778D01*
X-126133947Y-16803778D02*
X-126257757Y-16679968D01*
X-126257757Y-16679968D02*
X-126319662Y-16556158D01*
X-126319662Y-16556158D02*
X-126381566Y-16308539D01*
X-126381566Y-16308539D02*
X-126381566Y-16122825D01*
X-126381566Y-16122825D02*
X-126319662Y-15875206D01*
X-126319662Y-15875206D02*
X-126257757Y-15751397D01*
X-126257757Y-15751397D02*
X-126133947Y-15627587D01*
X-126133947Y-15627587D02*
X-125948233Y-15565682D01*
X-125948233Y-15565682D02*
X-125824424Y-15565682D01*
X-125824424Y-15565682D02*
X-125638709Y-15627587D01*
X-125638709Y-15627587D02*
X-125576805Y-15689492D01*
D10*
D11*
X-126319662Y-66865682D02*
X-126319662Y-65565682D01*
X-126319662Y-65565682D02*
X-126010138Y-65565682D01*
X-126010138Y-65565682D02*
X-125824424Y-65627587D01*
X-125824424Y-65627587D02*
X-125700614Y-65751397D01*
X-125700614Y-65751397D02*
X-125638709Y-65875206D01*
X-125638709Y-65875206D02*
X-125576805Y-66122825D01*
X-125576805Y-66122825D02*
X-125576805Y-66308539D01*
X-125576805Y-66308539D02*
X-125638709Y-66556158D01*
X-125638709Y-66556158D02*
X-125700614Y-66679968D01*
X-125700614Y-66679968D02*
X-125824424Y-66803778D01*
X-125824424Y-66803778D02*
X-126010138Y-66865682D01*
X-126010138Y-66865682D02*
X-126319662Y-66865682D01*
D10*
D11*
X150023015Y58727922D02*
X148023015Y58727922D01*
D10*
D11*
X150023015Y8727922D02*
X148023015Y8727922D01*
D10*
D11*
X150023015Y-41272078D02*
X148023015Y-41272078D01*
D10*
D11*
X148713491Y83505746D02*
X149332538Y83505746D01*
X148589681Y83134318D02*
X149023014Y84434318D01*
X149023014Y84434318D02*
X149456348Y83134318D01*
D10*
D11*
X149115872Y33815270D02*
X149301586Y33753365D01*
X149301586Y33753365D02*
X149363491Y33691461D01*
X149363491Y33691461D02*
X149425395Y33567651D01*
X149425395Y33567651D02*
X149425395Y33381937D01*
X149425395Y33381937D02*
X149363491Y33258127D01*
X149363491Y33258127D02*
X149301586Y33196222D01*
X149301586Y33196222D02*
X149177776Y33134318D01*
X149177776Y33134318D02*
X148682538Y33134318D01*
X148682538Y33134318D02*
X148682538Y34434318D01*
X148682538Y34434318D02*
X149115872Y34434318D01*
X149115872Y34434318D02*
X149239681Y34372413D01*
X149239681Y34372413D02*
X149301586Y34310508D01*
X149301586Y34310508D02*
X149363491Y34186699D01*
X149363491Y34186699D02*
X149363491Y34062889D01*
X149363491Y34062889D02*
X149301586Y33939080D01*
X149301586Y33939080D02*
X149239681Y33877175D01*
X149239681Y33877175D02*
X149115872Y33815270D01*
X149115872Y33815270D02*
X148682538Y33815270D01*
D10*
D11*
X149425395Y-16741873D02*
X149363491Y-16803778D01*
X149363491Y-16803778D02*
X149177776Y-16865682D01*
X149177776Y-16865682D02*
X149053967Y-16865682D01*
X149053967Y-16865682D02*
X148868253Y-16803778D01*
X148868253Y-16803778D02*
X148744443Y-16679968D01*
X148744443Y-16679968D02*
X148682538Y-16556158D01*
X148682538Y-16556158D02*
X148620634Y-16308539D01*
X148620634Y-16308539D02*
X148620634Y-16122825D01*
X148620634Y-16122825D02*
X148682538Y-15875206D01*
X148682538Y-15875206D02*
X148744443Y-15751397D01*
X148744443Y-15751397D02*
X148868253Y-15627587D01*
X148868253Y-15627587D02*
X149053967Y-15565682D01*
X149053967Y-15565682D02*
X149177776Y-15565682D01*
X149177776Y-15565682D02*
X149363491Y-15627587D01*
X149363491Y-15627587D02*
X149425395Y-15689492D01*
D10*
D11*
X148682538Y-66865682D02*
X148682538Y-65565682D01*
X148682538Y-65565682D02*
X148992062Y-65565682D01*
X148992062Y-65565682D02*
X149177776Y-65627587D01*
X149177776Y-65627587D02*
X149301586Y-65751397D01*
X149301586Y-65751397D02*
X149363491Y-65875206D01*
X149363491Y-65875206D02*
X149425395Y-66122825D01*
X149425395Y-66122825D02*
X149425395Y-66308539D01*
X149425395Y-66308539D02*
X149363491Y-66556158D01*
X149363491Y-66556158D02*
X149301586Y-66679968D01*
X149301586Y-66679968D02*
X149177776Y-66803778D01*
X149177776Y-66803778D02*
X148992062Y-66865682D01*
X148992062Y-66865682D02*
X148682538Y-66865682D01*
D10*
D11*
X63478841Y-75065406D02*
X63478841Y-73565406D01*
X63478841Y-73565406D02*
X63835984Y-73565406D01*
X63835984Y-73565406D02*
X64050270Y-73636835D01*
X64050270Y-73636835D02*
X64193127Y-73779692D01*
X64193127Y-73779692D02*
X64264556Y-73922549D01*
X64264556Y-73922549D02*
X64335984Y-74208263D01*
X64335984Y-74208263D02*
X64335984Y-74422549D01*
X64335984Y-74422549D02*
X64264556Y-74708263D01*
X64264556Y-74708263D02*
X64193127Y-74851120D01*
X64193127Y-74851120D02*
X64050270Y-74993978D01*
X64050270Y-74993978D02*
X63835984Y-75065406D01*
X63835984Y-75065406D02*
X63478841Y-75065406D01*
X65621699Y-75065406D02*
X65621699Y-74279692D01*
X65621699Y-74279692D02*
X65550270Y-74136835D01*
X65550270Y-74136835D02*
X65407413Y-74065406D01*
X65407413Y-74065406D02*
X65121699Y-74065406D01*
X65121699Y-74065406D02*
X64978841Y-74136835D01*
X65621699Y-74993978D02*
X65478841Y-75065406D01*
X65478841Y-75065406D02*
X65121699Y-75065406D01*
X65121699Y-75065406D02*
X64978841Y-74993978D01*
X64978841Y-74993978D02*
X64907413Y-74851120D01*
X64907413Y-74851120D02*
X64907413Y-74708263D01*
X64907413Y-74708263D02*
X64978841Y-74565406D01*
X64978841Y-74565406D02*
X65121699Y-74493978D01*
X65121699Y-74493978D02*
X65478841Y-74493978D01*
X65478841Y-74493978D02*
X65621699Y-74422549D01*
X66121699Y-74065406D02*
X66693127Y-74065406D01*
X66335984Y-73565406D02*
X66335984Y-74851120D01*
X66335984Y-74851120D02*
X66407413Y-74993978D01*
X66407413Y-74993978D02*
X66550270Y-75065406D01*
X66550270Y-75065406D02*
X66693127Y-75065406D01*
X67764556Y-74993978D02*
X67621699Y-75065406D01*
X67621699Y-75065406D02*
X67335985Y-75065406D01*
X67335985Y-75065406D02*
X67193127Y-74993978D01*
X67193127Y-74993978D02*
X67121699Y-74851120D01*
X67121699Y-74851120D02*
X67121699Y-74279692D01*
X67121699Y-74279692D02*
X67193127Y-74136835D01*
X67193127Y-74136835D02*
X67335985Y-74065406D01*
X67335985Y-74065406D02*
X67621699Y-74065406D01*
X67621699Y-74065406D02*
X67764556Y-74136835D01*
X67764556Y-74136835D02*
X67835985Y-74279692D01*
X67835985Y-74279692D02*
X67835985Y-74422549D01*
X67835985Y-74422549D02*
X67121699Y-74565406D01*
X68478841Y-74922549D02*
X68550270Y-74993978D01*
X68550270Y-74993978D02*
X68478841Y-75065406D01*
X68478841Y-75065406D02*
X68407413Y-74993978D01*
X68407413Y-74993978D02*
X68478841Y-74922549D01*
X68478841Y-74922549D02*
X68478841Y-75065406D01*
X68478841Y-74136835D02*
X68550270Y-74208263D01*
X68550270Y-74208263D02*
X68478841Y-74279692D01*
X68478841Y-74279692D02*
X68407413Y-74208263D01*
X68407413Y-74208263D02*
X68478841Y-74136835D01*
X68478841Y-74136835D02*
X68478841Y-74279692D01*
D10*
D11*
X40023015Y-75779278D02*
X148023015Y-75779278D01*
D10*
D11*
X41478841Y-77865406D02*
X41478841Y-76365406D01*
X42335984Y-77865406D02*
X41693127Y-77008263D01*
X42335984Y-76365406D02*
X41478841Y-77222549D01*
X42978841Y-77865406D02*
X42978841Y-76865406D01*
X42978841Y-76365406D02*
X42907413Y-76436835D01*
X42907413Y-76436835D02*
X42978841Y-76508263D01*
X42978841Y-76508263D02*
X43050270Y-76436835D01*
X43050270Y-76436835D02*
X42978841Y-76365406D01*
X42978841Y-76365406D02*
X42978841Y-76508263D01*
X44550270Y-77722549D02*
X44478842Y-77793978D01*
X44478842Y-77793978D02*
X44264556Y-77865406D01*
X44264556Y-77865406D02*
X44121699Y-77865406D01*
X44121699Y-77865406D02*
X43907413Y-77793978D01*
X43907413Y-77793978D02*
X43764556Y-77651120D01*
X43764556Y-77651120D02*
X43693127Y-77508263D01*
X43693127Y-77508263D02*
X43621699Y-77222549D01*
X43621699Y-77222549D02*
X43621699Y-77008263D01*
X43621699Y-77008263D02*
X43693127Y-76722549D01*
X43693127Y-76722549D02*
X43764556Y-76579692D01*
X43764556Y-76579692D02*
X43907413Y-76436835D01*
X43907413Y-76436835D02*
X44121699Y-76365406D01*
X44121699Y-76365406D02*
X44264556Y-76365406D01*
X44264556Y-76365406D02*
X44478842Y-76436835D01*
X44478842Y-76436835D02*
X44550270Y-76508263D01*
X45835985Y-77865406D02*
X45835985Y-77079692D01*
X45835985Y-77079692D02*
X45764556Y-76936835D01*
X45764556Y-76936835D02*
X45621699Y-76865406D01*
X45621699Y-76865406D02*
X45335985Y-76865406D01*
X45335985Y-76865406D02*
X45193127Y-76936835D01*
X45835985Y-77793978D02*
X45693127Y-77865406D01*
X45693127Y-77865406D02*
X45335985Y-77865406D01*
X45335985Y-77865406D02*
X45193127Y-77793978D01*
X45193127Y-77793978D02*
X45121699Y-77651120D01*
X45121699Y-77651120D02*
X45121699Y-77508263D01*
X45121699Y-77508263D02*
X45193127Y-77365406D01*
X45193127Y-77365406D02*
X45335985Y-77293978D01*
X45335985Y-77293978D02*
X45693127Y-77293978D01*
X45693127Y-77293978D02*
X45835985Y-77222549D01*
X47193128Y-77865406D02*
X47193128Y-76365406D01*
X47193128Y-77793978D02*
X47050270Y-77865406D01*
X47050270Y-77865406D02*
X46764556Y-77865406D01*
X46764556Y-77865406D02*
X46621699Y-77793978D01*
X46621699Y-77793978D02*
X46550270Y-77722549D01*
X46550270Y-77722549D02*
X46478842Y-77579692D01*
X46478842Y-77579692D02*
X46478842Y-77151120D01*
X46478842Y-77151120D02*
X46550270Y-77008263D01*
X46550270Y-77008263D02*
X46621699Y-76936835D01*
X46621699Y-76936835D02*
X46764556Y-76865406D01*
X46764556Y-76865406D02*
X47050270Y-76865406D01*
X47050270Y-76865406D02*
X47193128Y-76936835D01*
X49050270Y-77079692D02*
X49550270Y-77079692D01*
X49764556Y-77865406D02*
X49050270Y-77865406D01*
X49050270Y-77865406D02*
X49050270Y-76365406D01*
X49050270Y-76365406D02*
X49764556Y-76365406D01*
X50407413Y-77722549D02*
X50478842Y-77793978D01*
X50478842Y-77793978D02*
X50407413Y-77865406D01*
X50407413Y-77865406D02*
X50335985Y-77793978D01*
X50335985Y-77793978D02*
X50407413Y-77722549D01*
X50407413Y-77722549D02*
X50407413Y-77865406D01*
X51121699Y-77865406D02*
X51121699Y-76365406D01*
X51121699Y-76365406D02*
X51478842Y-76365406D01*
X51478842Y-76365406D02*
X51693128Y-76436835D01*
X51693128Y-76436835D02*
X51835985Y-76579692D01*
X51835985Y-76579692D02*
X51907414Y-76722549D01*
X51907414Y-76722549D02*
X51978842Y-77008263D01*
X51978842Y-77008263D02*
X51978842Y-77222549D01*
X51978842Y-77222549D02*
X51907414Y-77508263D01*
X51907414Y-77508263D02*
X51835985Y-77651120D01*
X51835985Y-77651120D02*
X51693128Y-77793978D01*
X51693128Y-77793978D02*
X51478842Y-77865406D01*
X51478842Y-77865406D02*
X51121699Y-77865406D01*
X52621699Y-77722549D02*
X52693128Y-77793978D01*
X52693128Y-77793978D02*
X52621699Y-77865406D01*
X52621699Y-77865406D02*
X52550271Y-77793978D01*
X52550271Y-77793978D02*
X52621699Y-77722549D01*
X52621699Y-77722549D02*
X52621699Y-77865406D01*
X53264557Y-77436835D02*
X53978843Y-77436835D01*
X53121700Y-77865406D02*
X53621700Y-76365406D01*
X53621700Y-76365406D02*
X54121700Y-77865406D01*
X54621699Y-77722549D02*
X54693128Y-77793978D01*
X54693128Y-77793978D02*
X54621699Y-77865406D01*
X54621699Y-77865406D02*
X54550271Y-77793978D01*
X54550271Y-77793978D02*
X54621699Y-77722549D01*
X54621699Y-77722549D02*
X54621699Y-77865406D01*
X56550271Y-77865406D02*
X56835985Y-77865406D01*
X56835985Y-77865406D02*
X56978842Y-77793978D01*
X56978842Y-77793978D02*
X57050271Y-77722549D01*
X57050271Y-77722549D02*
X57193128Y-77508263D01*
X57193128Y-77508263D02*
X57264557Y-77222549D01*
X57264557Y-77222549D02*
X57264557Y-76651120D01*
X57264557Y-76651120D02*
X57193128Y-76508263D01*
X57193128Y-76508263D02*
X57121700Y-76436835D01*
X57121700Y-76436835D02*
X56978842Y-76365406D01*
X56978842Y-76365406D02*
X56693128Y-76365406D01*
X56693128Y-76365406D02*
X56550271Y-76436835D01*
X56550271Y-76436835D02*
X56478842Y-76508263D01*
X56478842Y-76508263D02*
X56407414Y-76651120D01*
X56407414Y-76651120D02*
X56407414Y-77008263D01*
X56407414Y-77008263D02*
X56478842Y-77151120D01*
X56478842Y-77151120D02*
X56550271Y-77222549D01*
X56550271Y-77222549D02*
X56693128Y-77293978D01*
X56693128Y-77293978D02*
X56978842Y-77293978D01*
X56978842Y-77293978D02*
X57121700Y-77222549D01*
X57121700Y-77222549D02*
X57193128Y-77151120D01*
X57193128Y-77151120D02*
X57264557Y-77008263D01*
X57907413Y-77722549D02*
X57978842Y-77793978D01*
X57978842Y-77793978D02*
X57907413Y-77865406D01*
X57907413Y-77865406D02*
X57835985Y-77793978D01*
X57835985Y-77793978D02*
X57907413Y-77722549D01*
X57907413Y-77722549D02*
X57907413Y-77865406D01*
X58907414Y-76365406D02*
X59050271Y-76365406D01*
X59050271Y-76365406D02*
X59193128Y-76436835D01*
X59193128Y-76436835D02*
X59264557Y-76508263D01*
X59264557Y-76508263D02*
X59335985Y-76651120D01*
X59335985Y-76651120D02*
X59407414Y-76936835D01*
X59407414Y-76936835D02*
X59407414Y-77293978D01*
X59407414Y-77293978D02*
X59335985Y-77579692D01*
X59335985Y-77579692D02*
X59264557Y-77722549D01*
X59264557Y-77722549D02*
X59193128Y-77793978D01*
X59193128Y-77793978D02*
X59050271Y-77865406D01*
X59050271Y-77865406D02*
X58907414Y-77865406D01*
X58907414Y-77865406D02*
X58764557Y-77793978D01*
X58764557Y-77793978D02*
X58693128Y-77722549D01*
X58693128Y-77722549D02*
X58621699Y-77579692D01*
X58621699Y-77579692D02*
X58550271Y-77293978D01*
X58550271Y-77293978D02*
X58550271Y-76936835D01*
X58550271Y-76936835D02*
X58621699Y-76651120D01*
X58621699Y-76651120D02*
X58693128Y-76508263D01*
X58693128Y-76508263D02*
X58764557Y-76436835D01*
X58764557Y-76436835D02*
X58907414Y-76365406D01*
X60050270Y-77722549D02*
X60121699Y-77793978D01*
X60121699Y-77793978D02*
X60050270Y-77865406D01*
X60050270Y-77865406D02*
X59978842Y-77793978D01*
X59978842Y-77793978D02*
X60050270Y-77722549D01*
X60050270Y-77722549D02*
X60050270Y-77865406D01*
X61050271Y-76365406D02*
X61193128Y-76365406D01*
X61193128Y-76365406D02*
X61335985Y-76436835D01*
X61335985Y-76436835D02*
X61407414Y-76508263D01*
X61407414Y-76508263D02*
X61478842Y-76651120D01*
X61478842Y-76651120D02*
X61550271Y-76936835D01*
X61550271Y-76936835D02*
X61550271Y-77293978D01*
X61550271Y-77293978D02*
X61478842Y-77579692D01*
X61478842Y-77579692D02*
X61407414Y-77722549D01*
X61407414Y-77722549D02*
X61335985Y-77793978D01*
X61335985Y-77793978D02*
X61193128Y-77865406D01*
X61193128Y-77865406D02*
X61050271Y-77865406D01*
X61050271Y-77865406D02*
X60907414Y-77793978D01*
X60907414Y-77793978D02*
X60835985Y-77722549D01*
X60835985Y-77722549D02*
X60764556Y-77579692D01*
X60764556Y-77579692D02*
X60693128Y-77293978D01*
X60693128Y-77293978D02*
X60693128Y-76936835D01*
X60693128Y-76936835D02*
X60764556Y-76651120D01*
X60764556Y-76651120D02*
X60835985Y-76508263D01*
X60835985Y-76508263D02*
X60907414Y-76436835D01*
X60907414Y-76436835D02*
X61050271Y-76365406D01*
X62193127Y-77293978D02*
X63335985Y-77293978D01*
X64050270Y-77865406D02*
X64050270Y-76865406D01*
X64050270Y-77151120D02*
X64121699Y-77008263D01*
X64121699Y-77008263D02*
X64193128Y-76936835D01*
X64193128Y-76936835D02*
X64335985Y-76865406D01*
X64335985Y-76865406D02*
X64478842Y-76865406D01*
X65621699Y-77793978D02*
X65478841Y-77865406D01*
X65478841Y-77865406D02*
X65193127Y-77865406D01*
X65193127Y-77865406D02*
X65050270Y-77793978D01*
X65050270Y-77793978D02*
X64978841Y-77722549D01*
X64978841Y-77722549D02*
X64907413Y-77579692D01*
X64907413Y-77579692D02*
X64907413Y-77151120D01*
X64907413Y-77151120D02*
X64978841Y-77008263D01*
X64978841Y-77008263D02*
X65050270Y-76936835D01*
X65050270Y-76936835D02*
X65193127Y-76865406D01*
X65193127Y-76865406D02*
X65478841Y-76865406D01*
X65478841Y-76865406D02*
X65621699Y-76936835D01*
X66193127Y-76508263D02*
X66264555Y-76436835D01*
X66264555Y-76436835D02*
X66407413Y-76365406D01*
X66407413Y-76365406D02*
X66764555Y-76365406D01*
X66764555Y-76365406D02*
X66907413Y-76436835D01*
X66907413Y-76436835D02*
X66978841Y-76508263D01*
X66978841Y-76508263D02*
X67050270Y-76651120D01*
X67050270Y-76651120D02*
X67050270Y-76793978D01*
X67050270Y-76793978D02*
X66978841Y-77008263D01*
X66978841Y-77008263D02*
X66121698Y-77865406D01*
X66121698Y-77865406D02*
X67050270Y-77865406D01*
D10*
D11*
X40023015Y-72779278D02*
X148023015Y-72779278D01*
D10*
D12*
X127434668Y-75057606D02*
X126934668Y-74343320D01*
X126577525Y-75057606D02*
X126577525Y-73557606D01*
X126577525Y-73557606D02*
X127148954Y-73557606D01*
X127148954Y-73557606D02*
X127291811Y-73629035D01*
X127291811Y-73629035D02*
X127363240Y-73700463D01*
X127363240Y-73700463D02*
X127434668Y-73843320D01*
X127434668Y-73843320D02*
X127434668Y-74057606D01*
X127434668Y-74057606D02*
X127363240Y-74200463D01*
X127363240Y-74200463D02*
X127291811Y-74271892D01*
X127291811Y-74271892D02*
X127148954Y-74343320D01*
X127148954Y-74343320D02*
X126577525Y-74343320D01*
X128648954Y-74986178D02*
X128506097Y-75057606D01*
X128506097Y-75057606D02*
X128220383Y-75057606D01*
X128220383Y-75057606D02*
X128077525Y-74986178D01*
X128077525Y-74986178D02*
X128006097Y-74843320D01*
X128006097Y-74843320D02*
X128006097Y-74271892D01*
X128006097Y-74271892D02*
X128077525Y-74129035D01*
X128077525Y-74129035D02*
X128220383Y-74057606D01*
X128220383Y-74057606D02*
X128506097Y-74057606D01*
X128506097Y-74057606D02*
X128648954Y-74129035D01*
X128648954Y-74129035D02*
X128720383Y-74271892D01*
X128720383Y-74271892D02*
X128720383Y-74414749D01*
X128720383Y-74414749D02*
X128006097Y-74557606D01*
X129220382Y-74057606D02*
X129577525Y-75057606D01*
X129577525Y-75057606D02*
X129934668Y-74057606D01*
X130506096Y-74914749D02*
X130577525Y-74986178D01*
X130577525Y-74986178D02*
X130506096Y-75057606D01*
X130506096Y-75057606D02*
X130434668Y-74986178D01*
X130434668Y-74986178D02*
X130506096Y-74914749D01*
X130506096Y-74914749D02*
X130506096Y-75057606D01*
X130506096Y-74129035D02*
X130577525Y-74200463D01*
X130577525Y-74200463D02*
X130506096Y-74271892D01*
X130506096Y-74271892D02*
X130434668Y-74200463D01*
X130434668Y-74200463D02*
X130506096Y-74129035D01*
X130506096Y-74129035D02*
X130506096Y-74271892D01*
D10*
D11*
X41407413Y-74993978D02*
X41621699Y-75065406D01*
X41621699Y-75065406D02*
X41978841Y-75065406D01*
X41978841Y-75065406D02*
X42121699Y-74993978D01*
X42121699Y-74993978D02*
X42193127Y-74922549D01*
X42193127Y-74922549D02*
X42264556Y-74779692D01*
X42264556Y-74779692D02*
X42264556Y-74636835D01*
X42264556Y-74636835D02*
X42193127Y-74493978D01*
X42193127Y-74493978D02*
X42121699Y-74422549D01*
X42121699Y-74422549D02*
X41978841Y-74351120D01*
X41978841Y-74351120D02*
X41693127Y-74279692D01*
X41693127Y-74279692D02*
X41550270Y-74208263D01*
X41550270Y-74208263D02*
X41478841Y-74136835D01*
X41478841Y-74136835D02*
X41407413Y-73993978D01*
X41407413Y-73993978D02*
X41407413Y-73851120D01*
X41407413Y-73851120D02*
X41478841Y-73708263D01*
X41478841Y-73708263D02*
X41550270Y-73636835D01*
X41550270Y-73636835D02*
X41693127Y-73565406D01*
X41693127Y-73565406D02*
X42050270Y-73565406D01*
X42050270Y-73565406D02*
X42264556Y-73636835D01*
X42907412Y-75065406D02*
X42907412Y-74065406D01*
X42907412Y-73565406D02*
X42835984Y-73636835D01*
X42835984Y-73636835D02*
X42907412Y-73708263D01*
X42907412Y-73708263D02*
X42978841Y-73636835D01*
X42978841Y-73636835D02*
X42907412Y-73565406D01*
X42907412Y-73565406D02*
X42907412Y-73708263D01*
X43478841Y-74065406D02*
X44264556Y-74065406D01*
X44264556Y-74065406D02*
X43478841Y-75065406D01*
X43478841Y-75065406D02*
X44264556Y-75065406D01*
X45407413Y-74993978D02*
X45264556Y-75065406D01*
X45264556Y-75065406D02*
X44978842Y-75065406D01*
X44978842Y-75065406D02*
X44835984Y-74993978D01*
X44835984Y-74993978D02*
X44764556Y-74851120D01*
X44764556Y-74851120D02*
X44764556Y-74279692D01*
X44764556Y-74279692D02*
X44835984Y-74136835D01*
X44835984Y-74136835D02*
X44978842Y-74065406D01*
X44978842Y-74065406D02*
X45264556Y-74065406D01*
X45264556Y-74065406D02*
X45407413Y-74136835D01*
X45407413Y-74136835D02*
X45478842Y-74279692D01*
X45478842Y-74279692D02*
X45478842Y-74422549D01*
X45478842Y-74422549D02*
X44764556Y-74565406D01*
X46121698Y-74922549D02*
X46193127Y-74993978D01*
X46193127Y-74993978D02*
X46121698Y-75065406D01*
X46121698Y-75065406D02*
X46050270Y-74993978D01*
X46050270Y-74993978D02*
X46121698Y-74922549D01*
X46121698Y-74922549D02*
X46121698Y-75065406D01*
X46121698Y-74136835D02*
X46193127Y-74208263D01*
X46193127Y-74208263D02*
X46121698Y-74279692D01*
X46121698Y-74279692D02*
X46050270Y-74208263D01*
X46050270Y-74208263D02*
X46121698Y-74136835D01*
X46121698Y-74136835D02*
X46121698Y-74279692D01*
X47907413Y-74636835D02*
X48621699Y-74636835D01*
X47764556Y-75065406D02*
X48264556Y-73565406D01*
X48264556Y-73565406D02*
X48764556Y-75065406D01*
X49907413Y-74065406D02*
X49907413Y-75065406D01*
X49550270Y-73493978D02*
X49193127Y-74565406D01*
X49193127Y-74565406D02*
X50121698Y-74565406D01*
D10*
D11*
X126478841Y-77865406D02*
X126478841Y-76365406D01*
X127835985Y-77865406D02*
X127835985Y-76365406D01*
X127835985Y-77793978D02*
X127693127Y-77865406D01*
X127693127Y-77865406D02*
X127407413Y-77865406D01*
X127407413Y-77865406D02*
X127264556Y-77793978D01*
X127264556Y-77793978D02*
X127193127Y-77722549D01*
X127193127Y-77722549D02*
X127121699Y-77579692D01*
X127121699Y-77579692D02*
X127121699Y-77151120D01*
X127121699Y-77151120D02*
X127193127Y-77008263D01*
X127193127Y-77008263D02*
X127264556Y-76936835D01*
X127264556Y-76936835D02*
X127407413Y-76865406D01*
X127407413Y-76865406D02*
X127693127Y-76865406D01*
X127693127Y-76865406D02*
X127835985Y-76936835D01*
X128550270Y-77722549D02*
X128621699Y-77793978D01*
X128621699Y-77793978D02*
X128550270Y-77865406D01*
X128550270Y-77865406D02*
X128478842Y-77793978D01*
X128478842Y-77793978D02*
X128550270Y-77722549D01*
X128550270Y-77722549D02*
X128550270Y-77865406D01*
X128550270Y-76936835D02*
X128621699Y-77008263D01*
X128621699Y-77008263D02*
X128550270Y-77079692D01*
X128550270Y-77079692D02*
X128478842Y-77008263D01*
X128478842Y-77008263D02*
X128550270Y-76936835D01*
X128550270Y-76936835D02*
X128550270Y-77079692D01*
X130478842Y-77865406D02*
X130764556Y-77865406D01*
X130764556Y-77865406D02*
X130907413Y-77793978D01*
X130907413Y-77793978D02*
X130978842Y-77722549D01*
X130978842Y-77722549D02*
X131121699Y-77508263D01*
X131121699Y-77508263D02*
X131193128Y-77222549D01*
X131193128Y-77222549D02*
X131193128Y-76651120D01*
X131193128Y-76651120D02*
X131121699Y-76508263D01*
X131121699Y-76508263D02*
X131050271Y-76436835D01*
X131050271Y-76436835D02*
X130907413Y-76365406D01*
X130907413Y-76365406D02*
X130621699Y-76365406D01*
X130621699Y-76365406D02*
X130478842Y-76436835D01*
X130478842Y-76436835D02*
X130407413Y-76508263D01*
X130407413Y-76508263D02*
X130335985Y-76651120D01*
X130335985Y-76651120D02*
X130335985Y-77008263D01*
X130335985Y-77008263D02*
X130407413Y-77151120D01*
X130407413Y-77151120D02*
X130478842Y-77222549D01*
X130478842Y-77222549D02*
X130621699Y-77293978D01*
X130621699Y-77293978D02*
X130907413Y-77293978D01*
X130907413Y-77293978D02*
X131050271Y-77222549D01*
X131050271Y-77222549D02*
X131121699Y-77151120D01*
X131121699Y-77151120D02*
X131193128Y-77008263D01*
X132907413Y-76293978D02*
X131621699Y-78222549D01*
X134193128Y-77865406D02*
X133335985Y-77865406D01*
X133764556Y-77865406D02*
X133764556Y-76365406D01*
X133764556Y-76365406D02*
X133621699Y-76579692D01*
X133621699Y-76579692D02*
X133478842Y-76722549D01*
X133478842Y-76722549D02*
X133335985Y-76793978D01*
X134693127Y-76365406D02*
X135693127Y-76365406D01*
X135693127Y-76365406D02*
X135050270Y-77865406D01*
D10*
D11*
X40023015Y-68779278D02*
X148023015Y-68779278D01*
D10*
D13*
X41714743Y-69483716D02*
X42857600Y-69483716D01*
X42036172Y-71483716D02*
X42286172Y-69483716D01*
X43274267Y-71483716D02*
X43440934Y-70150382D01*
X43524267Y-69483716D02*
X43417124Y-69578954D01*
X43417124Y-69578954D02*
X43500458Y-69674192D01*
X43500458Y-69674192D02*
X43607601Y-69578954D01*
X43607601Y-69578954D02*
X43524267Y-69483716D01*
X43524267Y-69483716D02*
X43500458Y-69674192D01*
X44107601Y-70150382D02*
X44869505Y-70150382D01*
X44476648Y-69483716D02*
X44262363Y-71198001D01*
X44262363Y-71198001D02*
X44333791Y-71388478D01*
X44333791Y-71388478D02*
X44512363Y-71483716D01*
X44512363Y-71483716D02*
X44702839Y-71483716D01*
X45655220Y-71483716D02*
X45476648Y-71388478D01*
X45476648Y-71388478D02*
X45405220Y-71198001D01*
X45405220Y-71198001D02*
X45619505Y-69483716D01*
X47190934Y-71388478D02*
X46988553Y-71483716D01*
X46988553Y-71483716D02*
X46607600Y-71483716D01*
X46607600Y-71483716D02*
X46429029Y-71388478D01*
X46429029Y-71388478D02*
X46357600Y-71198001D01*
X46357600Y-71198001D02*
X46452839Y-70436097D01*
X46452839Y-70436097D02*
X46571886Y-70245620D01*
X46571886Y-70245620D02*
X46774267Y-70150382D01*
X46774267Y-70150382D02*
X47155219Y-70150382D01*
X47155219Y-70150382D02*
X47333791Y-70245620D01*
X47333791Y-70245620D02*
X47405219Y-70436097D01*
X47405219Y-70436097D02*
X47381410Y-70626573D01*
X47381410Y-70626573D02*
X46405219Y-70817049D01*
X48155220Y-71293239D02*
X48238553Y-71388478D01*
X48238553Y-71388478D02*
X48131410Y-71483716D01*
X48131410Y-71483716D02*
X48048077Y-71388478D01*
X48048077Y-71388478D02*
X48155220Y-71293239D01*
X48155220Y-71293239D02*
X48131410Y-71483716D01*
X48286172Y-70245620D02*
X48369505Y-70340858D01*
X48369505Y-70340858D02*
X48262363Y-70436097D01*
X48262363Y-70436097D02*
X48179029Y-70340858D01*
X48179029Y-70340858D02*
X48286172Y-70245620D01*
X48286172Y-70245620D02*
X48262363Y-70436097D01*
D10*
D11*
X41978841Y-66879692D02*
X41478841Y-66879692D01*
X41478841Y-67665406D02*
X41478841Y-66165406D01*
X41478841Y-66165406D02*
X42193127Y-66165406D01*
X42764555Y-67665406D02*
X42764555Y-66665406D01*
X42764555Y-66165406D02*
X42693127Y-66236835D01*
X42693127Y-66236835D02*
X42764555Y-66308263D01*
X42764555Y-66308263D02*
X42835984Y-66236835D01*
X42835984Y-66236835D02*
X42764555Y-66165406D01*
X42764555Y-66165406D02*
X42764555Y-66308263D01*
X43693127Y-67665406D02*
X43550270Y-67593978D01*
X43550270Y-67593978D02*
X43478841Y-67451120D01*
X43478841Y-67451120D02*
X43478841Y-66165406D01*
X44835984Y-67593978D02*
X44693127Y-67665406D01*
X44693127Y-67665406D02*
X44407413Y-67665406D01*
X44407413Y-67665406D02*
X44264555Y-67593978D01*
X44264555Y-67593978D02*
X44193127Y-67451120D01*
X44193127Y-67451120D02*
X44193127Y-66879692D01*
X44193127Y-66879692D02*
X44264555Y-66736835D01*
X44264555Y-66736835D02*
X44407413Y-66665406D01*
X44407413Y-66665406D02*
X44693127Y-66665406D01*
X44693127Y-66665406D02*
X44835984Y-66736835D01*
X44835984Y-66736835D02*
X44907413Y-66879692D01*
X44907413Y-66879692D02*
X44907413Y-67022549D01*
X44907413Y-67022549D02*
X44193127Y-67165406D01*
X45550269Y-67522549D02*
X45621698Y-67593978D01*
X45621698Y-67593978D02*
X45550269Y-67665406D01*
X45550269Y-67665406D02*
X45478841Y-67593978D01*
X45478841Y-67593978D02*
X45550269Y-67522549D01*
X45550269Y-67522549D02*
X45550269Y-67665406D01*
X45550269Y-66736835D02*
X45621698Y-66808263D01*
X45621698Y-66808263D02*
X45550269Y-66879692D01*
X45550269Y-66879692D02*
X45478841Y-66808263D01*
X45478841Y-66808263D02*
X45550269Y-66736835D01*
X45550269Y-66736835D02*
X45550269Y-66879692D01*
X47407412Y-67665406D02*
X47407412Y-66165406D01*
X47407412Y-66165406D02*
X47978841Y-66165406D01*
X47978841Y-66165406D02*
X48121698Y-66236835D01*
X48121698Y-66236835D02*
X48193127Y-66308263D01*
X48193127Y-66308263D02*
X48264555Y-66451120D01*
X48264555Y-66451120D02*
X48264555Y-66665406D01*
X48264555Y-66665406D02*
X48193127Y-66808263D01*
X48193127Y-66808263D02*
X48121698Y-66879692D01*
X48121698Y-66879692D02*
X47978841Y-66951120D01*
X47978841Y-66951120D02*
X47407412Y-66951120D01*
X49764555Y-67522549D02*
X49693127Y-67593978D01*
X49693127Y-67593978D02*
X49478841Y-67665406D01*
X49478841Y-67665406D02*
X49335984Y-67665406D01*
X49335984Y-67665406D02*
X49121698Y-67593978D01*
X49121698Y-67593978D02*
X48978841Y-67451120D01*
X48978841Y-67451120D02*
X48907412Y-67308263D01*
X48907412Y-67308263D02*
X48835984Y-67022549D01*
X48835984Y-67022549D02*
X48835984Y-66808263D01*
X48835984Y-66808263D02*
X48907412Y-66522549D01*
X48907412Y-66522549D02*
X48978841Y-66379692D01*
X48978841Y-66379692D02*
X49121698Y-66236835D01*
X49121698Y-66236835D02*
X49335984Y-66165406D01*
X49335984Y-66165406D02*
X49478841Y-66165406D01*
X49478841Y-66165406D02*
X49693127Y-66236835D01*
X49693127Y-66236835D02*
X49764555Y-66308263D01*
X50335984Y-67236835D02*
X51050270Y-67236835D01*
X50193127Y-67665406D02*
X50693127Y-66165406D01*
X50693127Y-66165406D02*
X51193127Y-67665406D01*
X51621698Y-66308263D02*
X51693126Y-66236835D01*
X51693126Y-66236835D02*
X51835984Y-66165406D01*
X51835984Y-66165406D02*
X52193126Y-66165406D01*
X52193126Y-66165406D02*
X52335984Y-66236835D01*
X52335984Y-66236835D02*
X52407412Y-66308263D01*
X52407412Y-66308263D02*
X52478841Y-66451120D01*
X52478841Y-66451120D02*
X52478841Y-66593978D01*
X52478841Y-66593978D02*
X52407412Y-66808263D01*
X52407412Y-66808263D02*
X51550269Y-67665406D01*
X51550269Y-67665406D02*
X52478841Y-67665406D01*
X53407412Y-66165406D02*
X53550269Y-66165406D01*
X53550269Y-66165406D02*
X53693126Y-66236835D01*
X53693126Y-66236835D02*
X53764555Y-66308263D01*
X53764555Y-66308263D02*
X53835983Y-66451120D01*
X53835983Y-66451120D02*
X53907412Y-66736835D01*
X53907412Y-66736835D02*
X53907412Y-67093978D01*
X53907412Y-67093978D02*
X53835983Y-67379692D01*
X53835983Y-67379692D02*
X53764555Y-67522549D01*
X53764555Y-67522549D02*
X53693126Y-67593978D01*
X53693126Y-67593978D02*
X53550269Y-67665406D01*
X53550269Y-67665406D02*
X53407412Y-67665406D01*
X53407412Y-67665406D02*
X53264555Y-67593978D01*
X53264555Y-67593978D02*
X53193126Y-67522549D01*
X53193126Y-67522549D02*
X53121697Y-67379692D01*
X53121697Y-67379692D02*
X53050269Y-67093978D01*
X53050269Y-67093978D02*
X53050269Y-66736835D01*
X53050269Y-66736835D02*
X53121697Y-66451120D01*
X53121697Y-66451120D02*
X53193126Y-66308263D01*
X53193126Y-66308263D02*
X53264555Y-66236835D01*
X53264555Y-66236835D02*
X53407412Y-66165406D01*
X54835983Y-66165406D02*
X54978840Y-66165406D01*
X54978840Y-66165406D02*
X55121697Y-66236835D01*
X55121697Y-66236835D02*
X55193126Y-66308263D01*
X55193126Y-66308263D02*
X55264554Y-66451120D01*
X55264554Y-66451120D02*
X55335983Y-66736835D01*
X55335983Y-66736835D02*
X55335983Y-67093978D01*
X55335983Y-67093978D02*
X55264554Y-67379692D01*
X55264554Y-67379692D02*
X55193126Y-67522549D01*
X55193126Y-67522549D02*
X55121697Y-67593978D01*
X55121697Y-67593978D02*
X54978840Y-67665406D01*
X54978840Y-67665406D02*
X54835983Y-67665406D01*
X54835983Y-67665406D02*
X54693126Y-67593978D01*
X54693126Y-67593978D02*
X54621697Y-67522549D01*
X54621697Y-67522549D02*
X54550268Y-67379692D01*
X54550268Y-67379692D02*
X54478840Y-67093978D01*
X54478840Y-67093978D02*
X54478840Y-66736835D01*
X54478840Y-66736835D02*
X54550268Y-66451120D01*
X54550268Y-66451120D02*
X54621697Y-66308263D01*
X54621697Y-66308263D02*
X54693126Y-66236835D01*
X54693126Y-66236835D02*
X54835983Y-66165406D01*
X55835982Y-66165406D02*
X56835982Y-66165406D01*
X56835982Y-66165406D02*
X56193125Y-67665406D01*
X57264553Y-66165406D02*
X58193125Y-66165406D01*
X58193125Y-66165406D02*
X57693125Y-66736835D01*
X57693125Y-66736835D02*
X57907410Y-66736835D01*
X57907410Y-66736835D02*
X58050268Y-66808263D01*
X58050268Y-66808263D02*
X58121696Y-66879692D01*
X58121696Y-66879692D02*
X58193125Y-67022549D01*
X58193125Y-67022549D02*
X58193125Y-67379692D01*
X58193125Y-67379692D02*
X58121696Y-67522549D01*
X58121696Y-67522549D02*
X58050268Y-67593978D01*
X58050268Y-67593978D02*
X57907410Y-67665406D01*
X57907410Y-67665406D02*
X57478839Y-67665406D01*
X57478839Y-67665406D02*
X57335982Y-67593978D01*
X57335982Y-67593978D02*
X57264553Y-67522549D01*
X58478839Y-67808263D02*
X59621696Y-67808263D01*
X59764553Y-66165406D02*
X60621696Y-66165406D01*
X60193124Y-67665406D02*
X60193124Y-66165406D01*
X61121695Y-67665406D02*
X61121695Y-66665406D01*
X61121695Y-66165406D02*
X61050267Y-66236835D01*
X61050267Y-66236835D02*
X61121695Y-66308263D01*
X61121695Y-66308263D02*
X61193124Y-66236835D01*
X61193124Y-66236835D02*
X61121695Y-66165406D01*
X61121695Y-66165406D02*
X61121695Y-66308263D01*
X61835981Y-66665406D02*
X61835981Y-67665406D01*
X61835981Y-66808263D02*
X61907410Y-66736835D01*
X61907410Y-66736835D02*
X62050267Y-66665406D01*
X62050267Y-66665406D02*
X62264553Y-66665406D01*
X62264553Y-66665406D02*
X62407410Y-66736835D01*
X62407410Y-66736835D02*
X62478839Y-66879692D01*
X62478839Y-66879692D02*
X62478839Y-67665406D01*
X63050267Y-66665406D02*
X63407410Y-67665406D01*
X63764553Y-66665406D02*
X63407410Y-67665406D01*
X63407410Y-67665406D02*
X63264553Y-68022549D01*
X63264553Y-68022549D02*
X63193124Y-68093978D01*
X63193124Y-68093978D02*
X63050267Y-68165406D01*
X63978839Y-67808263D02*
X65121696Y-67808263D01*
X65978838Y-66879692D02*
X66193124Y-66951120D01*
X66193124Y-66951120D02*
X66264553Y-67022549D01*
X66264553Y-67022549D02*
X66335981Y-67165406D01*
X66335981Y-67165406D02*
X66335981Y-67379692D01*
X66335981Y-67379692D02*
X66264553Y-67522549D01*
X66264553Y-67522549D02*
X66193124Y-67593978D01*
X66193124Y-67593978D02*
X66050267Y-67665406D01*
X66050267Y-67665406D02*
X65478838Y-67665406D01*
X65478838Y-67665406D02*
X65478838Y-66165406D01*
X65478838Y-66165406D02*
X65978838Y-66165406D01*
X65978838Y-66165406D02*
X66121696Y-66236835D01*
X66121696Y-66236835D02*
X66193124Y-66308263D01*
X66193124Y-66308263D02*
X66264553Y-66451120D01*
X66264553Y-66451120D02*
X66264553Y-66593978D01*
X66264553Y-66593978D02*
X66193124Y-66736835D01*
X66193124Y-66736835D02*
X66121696Y-66808263D01*
X66121696Y-66808263D02*
X65978838Y-66879692D01*
X65978838Y-66879692D02*
X65478838Y-66879692D01*
X67193124Y-67665406D02*
X67050267Y-67593978D01*
X67050267Y-67593978D02*
X66978838Y-67522549D01*
X66978838Y-67522549D02*
X66907410Y-67379692D01*
X66907410Y-67379692D02*
X66907410Y-66951120D01*
X66907410Y-66951120D02*
X66978838Y-66808263D01*
X66978838Y-66808263D02*
X67050267Y-66736835D01*
X67050267Y-66736835D02*
X67193124Y-66665406D01*
X67193124Y-66665406D02*
X67407410Y-66665406D01*
X67407410Y-66665406D02*
X67550267Y-66736835D01*
X67550267Y-66736835D02*
X67621696Y-66808263D01*
X67621696Y-66808263D02*
X67693124Y-66951120D01*
X67693124Y-66951120D02*
X67693124Y-67379692D01*
X67693124Y-67379692D02*
X67621696Y-67522549D01*
X67621696Y-67522549D02*
X67550267Y-67593978D01*
X67550267Y-67593978D02*
X67407410Y-67665406D01*
X67407410Y-67665406D02*
X67193124Y-67665406D01*
X68978839Y-67665406D02*
X68978839Y-66879692D01*
X68978839Y-66879692D02*
X68907410Y-66736835D01*
X68907410Y-66736835D02*
X68764553Y-66665406D01*
X68764553Y-66665406D02*
X68478839Y-66665406D01*
X68478839Y-66665406D02*
X68335981Y-66736835D01*
X68978839Y-67593978D02*
X68835981Y-67665406D01*
X68835981Y-67665406D02*
X68478839Y-67665406D01*
X68478839Y-67665406D02*
X68335981Y-67593978D01*
X68335981Y-67593978D02*
X68264553Y-67451120D01*
X68264553Y-67451120D02*
X68264553Y-67308263D01*
X68264553Y-67308263D02*
X68335981Y-67165406D01*
X68335981Y-67165406D02*
X68478839Y-67093978D01*
X68478839Y-67093978D02*
X68835981Y-67093978D01*
X68835981Y-67093978D02*
X68978839Y-67022549D01*
X69693124Y-67665406D02*
X69693124Y-66665406D01*
X69693124Y-66951120D02*
X69764553Y-66808263D01*
X69764553Y-66808263D02*
X69835982Y-66736835D01*
X69835982Y-66736835D02*
X69978839Y-66665406D01*
X69978839Y-66665406D02*
X70121696Y-66665406D01*
X71264553Y-67665406D02*
X71264553Y-66165406D01*
X71264553Y-67593978D02*
X71121695Y-67665406D01*
X71121695Y-67665406D02*
X70835981Y-67665406D01*
X70835981Y-67665406D02*
X70693124Y-67593978D01*
X70693124Y-67593978D02*
X70621695Y-67522549D01*
X70621695Y-67522549D02*
X70550267Y-67379692D01*
X70550267Y-67379692D02*
X70550267Y-66951120D01*
X70550267Y-66951120D02*
X70621695Y-66808263D01*
X70621695Y-66808263D02*
X70693124Y-66736835D01*
X70693124Y-66736835D02*
X70835981Y-66665406D01*
X70835981Y-66665406D02*
X71121695Y-66665406D01*
X71121695Y-66665406D02*
X71264553Y-66736835D01*
X71978838Y-67522549D02*
X72050267Y-67593978D01*
X72050267Y-67593978D02*
X71978838Y-67665406D01*
X71978838Y-67665406D02*
X71907410Y-67593978D01*
X71907410Y-67593978D02*
X71978838Y-67522549D01*
X71978838Y-67522549D02*
X71978838Y-67665406D01*
X72693124Y-67665406D02*
X72693124Y-66165406D01*
X72835982Y-67093978D02*
X73264553Y-67665406D01*
X73264553Y-66665406D02*
X72693124Y-67236835D01*
X73907410Y-67665406D02*
X73907410Y-66665406D01*
X73907410Y-66165406D02*
X73835982Y-66236835D01*
X73835982Y-66236835D02*
X73907410Y-66308263D01*
X73907410Y-66308263D02*
X73978839Y-66236835D01*
X73978839Y-66236835D02*
X73907410Y-66165406D01*
X73907410Y-66165406D02*
X73907410Y-66308263D01*
X75264554Y-67593978D02*
X75121696Y-67665406D01*
X75121696Y-67665406D02*
X74835982Y-67665406D01*
X74835982Y-67665406D02*
X74693125Y-67593978D01*
X74693125Y-67593978D02*
X74621696Y-67522549D01*
X74621696Y-67522549D02*
X74550268Y-67379692D01*
X74550268Y-67379692D02*
X74550268Y-66951120D01*
X74550268Y-66951120D02*
X74621696Y-66808263D01*
X74621696Y-66808263D02*
X74693125Y-66736835D01*
X74693125Y-66736835D02*
X74835982Y-66665406D01*
X74835982Y-66665406D02*
X75121696Y-66665406D01*
X75121696Y-66665406D02*
X75264554Y-66736835D01*
X76550268Y-67665406D02*
X76550268Y-66879692D01*
X76550268Y-66879692D02*
X76478839Y-66736835D01*
X76478839Y-66736835D02*
X76335982Y-66665406D01*
X76335982Y-66665406D02*
X76050268Y-66665406D01*
X76050268Y-66665406D02*
X75907410Y-66736835D01*
X76550268Y-67593978D02*
X76407410Y-67665406D01*
X76407410Y-67665406D02*
X76050268Y-67665406D01*
X76050268Y-67665406D02*
X75907410Y-67593978D01*
X75907410Y-67593978D02*
X75835982Y-67451120D01*
X75835982Y-67451120D02*
X75835982Y-67308263D01*
X75835982Y-67308263D02*
X75907410Y-67165406D01*
X75907410Y-67165406D02*
X76050268Y-67093978D01*
X76050268Y-67093978D02*
X76407410Y-67093978D01*
X76407410Y-67093978D02*
X76550268Y-67022549D01*
X77907411Y-67665406D02*
X77907411Y-66165406D01*
X77907411Y-67593978D02*
X77764553Y-67665406D01*
X77764553Y-67665406D02*
X77478839Y-67665406D01*
X77478839Y-67665406D02*
X77335982Y-67593978D01*
X77335982Y-67593978D02*
X77264553Y-67522549D01*
X77264553Y-67522549D02*
X77193125Y-67379692D01*
X77193125Y-67379692D02*
X77193125Y-66951120D01*
X77193125Y-66951120D02*
X77264553Y-66808263D01*
X77264553Y-66808263D02*
X77335982Y-66736835D01*
X77335982Y-66736835D02*
X77478839Y-66665406D01*
X77478839Y-66665406D02*
X77764553Y-66665406D01*
X77764553Y-66665406D02*
X77907411Y-66736835D01*
X78264554Y-67808263D02*
X79407411Y-67808263D01*
X79764553Y-66665406D02*
X79764553Y-68165406D01*
X79764553Y-66736835D02*
X79907411Y-66665406D01*
X79907411Y-66665406D02*
X80193125Y-66665406D01*
X80193125Y-66665406D02*
X80335982Y-66736835D01*
X80335982Y-66736835D02*
X80407411Y-66808263D01*
X80407411Y-66808263D02*
X80478839Y-66951120D01*
X80478839Y-66951120D02*
X80478839Y-67379692D01*
X80478839Y-67379692D02*
X80407411Y-67522549D01*
X80407411Y-67522549D02*
X80335982Y-67593978D01*
X80335982Y-67593978D02*
X80193125Y-67665406D01*
X80193125Y-67665406D02*
X79907411Y-67665406D01*
X79907411Y-67665406D02*
X79764553Y-67593978D01*
X81764554Y-67593978D02*
X81621696Y-67665406D01*
X81621696Y-67665406D02*
X81335982Y-67665406D01*
X81335982Y-67665406D02*
X81193125Y-67593978D01*
X81193125Y-67593978D02*
X81121696Y-67522549D01*
X81121696Y-67522549D02*
X81050268Y-67379692D01*
X81050268Y-67379692D02*
X81050268Y-66951120D01*
X81050268Y-66951120D02*
X81121696Y-66808263D01*
X81121696Y-66808263D02*
X81193125Y-66736835D01*
X81193125Y-66736835D02*
X81335982Y-66665406D01*
X81335982Y-66665406D02*
X81621696Y-66665406D01*
X81621696Y-66665406D02*
X81764554Y-66736835D01*
X82407410Y-67665406D02*
X82407410Y-66165406D01*
X82407410Y-66736835D02*
X82550268Y-66665406D01*
X82550268Y-66665406D02*
X82835982Y-66665406D01*
X82835982Y-66665406D02*
X82978839Y-66736835D01*
X82978839Y-66736835D02*
X83050268Y-66808263D01*
X83050268Y-66808263D02*
X83121696Y-66951120D01*
X83121696Y-66951120D02*
X83121696Y-67379692D01*
X83121696Y-67379692D02*
X83050268Y-67522549D01*
X83050268Y-67522549D02*
X82978839Y-67593978D01*
X82978839Y-67593978D02*
X82835982Y-67665406D01*
X82835982Y-67665406D02*
X82550268Y-67665406D01*
X82550268Y-67665406D02*
X82407410Y-67593978D01*
D10*
D11*
X40023015Y-62779278D02*
X148023015Y-62779278D01*
D10*
D11*
X41407413Y-64893978D02*
X41621699Y-64965406D01*
X41621699Y-64965406D02*
X41978841Y-64965406D01*
X41978841Y-64965406D02*
X42121699Y-64893978D01*
X42121699Y-64893978D02*
X42193127Y-64822549D01*
X42193127Y-64822549D02*
X42264556Y-64679692D01*
X42264556Y-64679692D02*
X42264556Y-64536835D01*
X42264556Y-64536835D02*
X42193127Y-64393978D01*
X42193127Y-64393978D02*
X42121699Y-64322549D01*
X42121699Y-64322549D02*
X41978841Y-64251120D01*
X41978841Y-64251120D02*
X41693127Y-64179692D01*
X41693127Y-64179692D02*
X41550270Y-64108263D01*
X41550270Y-64108263D02*
X41478841Y-64036835D01*
X41478841Y-64036835D02*
X41407413Y-63893978D01*
X41407413Y-63893978D02*
X41407413Y-63751120D01*
X41407413Y-63751120D02*
X41478841Y-63608263D01*
X41478841Y-63608263D02*
X41550270Y-63536835D01*
X41550270Y-63536835D02*
X41693127Y-63465406D01*
X41693127Y-63465406D02*
X42050270Y-63465406D01*
X42050270Y-63465406D02*
X42264556Y-63536835D01*
X42907412Y-64965406D02*
X42907412Y-63465406D01*
X43550270Y-64965406D02*
X43550270Y-64179692D01*
X43550270Y-64179692D02*
X43478841Y-64036835D01*
X43478841Y-64036835D02*
X43335984Y-63965406D01*
X43335984Y-63965406D02*
X43121698Y-63965406D01*
X43121698Y-63965406D02*
X42978841Y-64036835D01*
X42978841Y-64036835D02*
X42907412Y-64108263D01*
X44835984Y-64893978D02*
X44693127Y-64965406D01*
X44693127Y-64965406D02*
X44407413Y-64965406D01*
X44407413Y-64965406D02*
X44264555Y-64893978D01*
X44264555Y-64893978D02*
X44193127Y-64751120D01*
X44193127Y-64751120D02*
X44193127Y-64179692D01*
X44193127Y-64179692D02*
X44264555Y-64036835D01*
X44264555Y-64036835D02*
X44407413Y-63965406D01*
X44407413Y-63965406D02*
X44693127Y-63965406D01*
X44693127Y-63965406D02*
X44835984Y-64036835D01*
X44835984Y-64036835D02*
X44907413Y-64179692D01*
X44907413Y-64179692D02*
X44907413Y-64322549D01*
X44907413Y-64322549D02*
X44193127Y-64465406D01*
X46121698Y-64893978D02*
X45978841Y-64965406D01*
X45978841Y-64965406D02*
X45693127Y-64965406D01*
X45693127Y-64965406D02*
X45550269Y-64893978D01*
X45550269Y-64893978D02*
X45478841Y-64751120D01*
X45478841Y-64751120D02*
X45478841Y-64179692D01*
X45478841Y-64179692D02*
X45550269Y-64036835D01*
X45550269Y-64036835D02*
X45693127Y-63965406D01*
X45693127Y-63965406D02*
X45978841Y-63965406D01*
X45978841Y-63965406D02*
X46121698Y-64036835D01*
X46121698Y-64036835D02*
X46193127Y-64179692D01*
X46193127Y-64179692D02*
X46193127Y-64322549D01*
X46193127Y-64322549D02*
X45478841Y-64465406D01*
X46621698Y-63965406D02*
X47193126Y-63965406D01*
X46835983Y-63465406D02*
X46835983Y-64751120D01*
X46835983Y-64751120D02*
X46907412Y-64893978D01*
X46907412Y-64893978D02*
X47050269Y-64965406D01*
X47050269Y-64965406D02*
X47193126Y-64965406D01*
X47693126Y-64822549D02*
X47764555Y-64893978D01*
X47764555Y-64893978D02*
X47693126Y-64965406D01*
X47693126Y-64965406D02*
X47621698Y-64893978D01*
X47621698Y-64893978D02*
X47693126Y-64822549D01*
X47693126Y-64822549D02*
X47693126Y-64965406D01*
X47693126Y-64036835D02*
X47764555Y-64108263D01*
X47764555Y-64108263D02*
X47693126Y-64179692D01*
X47693126Y-64179692D02*
X47621698Y-64108263D01*
X47621698Y-64108263D02*
X47693126Y-64036835D01*
X47693126Y-64036835D02*
X47693126Y-64179692D01*
D10*
D11*
X60023015Y-72779278D02*
X60023015Y-75779278D01*
D10*
D11*
X124023015Y-72779278D02*
X124023015Y-79279278D01*
D10*
X13232947Y9555992D02*
X22213203Y575736D01*
X23627417Y575736D02*
G75*
G02*
X22213203Y575736I-707107J707108D01*
G01*
X26173001Y4535534D02*
G75*
G02*
X26173006Y3121315I-707086J-707112D01*
G01*
X15778531Y13515790D02*
G75*
G02*
X17192745Y13515790I707107J-707108D01*
G01*
X13232947Y10970206D02*
X15778531Y13515790D01*
X26173001Y4535534D02*
X17192745Y13515790D01*
X26173001Y3121320D02*
X23627417Y575736D01*
X13232947Y9555992D02*
G75*
G02*
X13232924Y10970229I707068J707130D01*
G01*
D14*
X10963241Y5849846D02*
X11017116Y5903721D01*
X11017116Y5903721D02*
X11097928Y5930658D01*
X11097928Y5930658D02*
X11151803Y5930658D01*
X11151803Y5930658D02*
X11232615Y5903721D01*
X11232615Y5903721D02*
X11367302Y5822909D01*
X11367302Y5822909D02*
X11501989Y5688222D01*
X11501989Y5688222D02*
X11582802Y5553535D01*
X11582802Y5553535D02*
X11609739Y5472723D01*
X11609739Y5472723D02*
X11609739Y5418848D01*
X11609739Y5418848D02*
X11582802Y5338036D01*
X11582802Y5338036D02*
X11528927Y5284161D01*
X11528927Y5284161D02*
X11448115Y5257223D01*
X11448115Y5257223D02*
X11394240Y5257223D01*
X11394240Y5257223D02*
X11313428Y5284161D01*
X11313428Y5284161D02*
X11178741Y5364973D01*
X11178741Y5364973D02*
X11044054Y5499660D01*
X11044054Y5499660D02*
X10963241Y5634347D01*
X10963241Y5634347D02*
X10936304Y5715159D01*
X10936304Y5715159D02*
X10936304Y5769034D01*
X10936304Y5769034D02*
X10963241Y5849846D01*
X11906051Y5769034D02*
X11959925Y5769034D01*
X11959925Y5769034D02*
X11959925Y5715159D01*
X11959925Y5715159D02*
X11906051Y5715159D01*
X11906051Y5715159D02*
X11906051Y5769034D01*
X11906051Y5769034D02*
X11959925Y5715159D01*
X11771363Y6657968D02*
X11825238Y6711843D01*
X11825238Y6711843D02*
X11906050Y6738780D01*
X11906050Y6738780D02*
X11959925Y6738780D01*
X11959925Y6738780D02*
X12040737Y6711843D01*
X12040737Y6711843D02*
X12175424Y6631031D01*
X12175424Y6631031D02*
X12310111Y6496344D01*
X12310111Y6496344D02*
X12390923Y6361657D01*
X12390923Y6361657D02*
X12417861Y6280845D01*
X12417861Y6280845D02*
X12417861Y6226970D01*
X12417861Y6226970D02*
X12390923Y6146158D01*
X12390923Y6146158D02*
X12337049Y6092283D01*
X12337049Y6092283D02*
X12256236Y6065345D01*
X12256236Y6065345D02*
X12202362Y6065345D01*
X12202362Y6065345D02*
X12121549Y6092283D01*
X12121549Y6092283D02*
X11986862Y6173095D01*
X11986862Y6173095D02*
X11852175Y6307782D01*
X11852175Y6307782D02*
X11771363Y6442469D01*
X11771363Y6442469D02*
X11744426Y6523281D01*
X11744426Y6523281D02*
X11744426Y6577156D01*
X11744426Y6577156D02*
X11771363Y6657968D01*
X12714172Y6577156D02*
X12768047Y6577156D01*
X12768047Y6577156D02*
X12768047Y6523281D01*
X12768047Y6523281D02*
X12714172Y6523281D01*
X12714172Y6523281D02*
X12714172Y6577156D01*
X12714172Y6577156D02*
X12768047Y6523281D01*
X13333732Y7088967D02*
X13010484Y6765718D01*
X13172108Y6927342D02*
X12606423Y7493028D01*
X12606423Y7493028D02*
X12633360Y7358341D01*
X12633360Y7358341D02*
X12633360Y7250591D01*
X12633360Y7250591D02*
X12606423Y7169779D01*
X11793151Y4750562D02*
X11793151Y4804437D01*
X11793151Y4804437D02*
X11820089Y4885249D01*
X11820089Y4885249D02*
X11954776Y5019936D01*
X11954776Y5019936D02*
X12035588Y5046874D01*
X12035588Y5046874D02*
X12089463Y5046874D01*
X12089463Y5046874D02*
X12170275Y5019936D01*
X12170275Y5019936D02*
X12224150Y4966062D01*
X12224150Y4966062D02*
X12278024Y4858312D01*
X12278024Y4858312D02*
X12278024Y4211814D01*
X12278024Y4211814D02*
X12628211Y4562001D01*
X12412712Y5477872D02*
X12466586Y5531747D01*
X12466586Y5531747D02*
X12547399Y5558685D01*
X12547399Y5558685D02*
X12601273Y5558685D01*
X12601273Y5558685D02*
X12682086Y5531747D01*
X12682086Y5531747D02*
X12816773Y5450935D01*
X12816773Y5450935D02*
X12951460Y5316248D01*
X12951460Y5316248D02*
X13032272Y5181561D01*
X13032272Y5181561D02*
X13059209Y5100749D01*
X13059209Y5100749D02*
X13059209Y5046874D01*
X13059209Y5046874D02*
X13032272Y4966062D01*
X13032272Y4966062D02*
X12978397Y4912187D01*
X12978397Y4912187D02*
X12897585Y4885250D01*
X12897585Y4885250D02*
X12843710Y4885250D01*
X12843710Y4885250D02*
X12762898Y4912187D01*
X12762898Y4912187D02*
X12628211Y4992999D01*
X12628211Y4992999D02*
X12493524Y5127686D01*
X12493524Y5127686D02*
X12412712Y5262373D01*
X12412712Y5262373D02*
X12385774Y5343185D01*
X12385774Y5343185D02*
X12385774Y5397060D01*
X12385774Y5397060D02*
X12412712Y5477872D01*
X12870648Y5828059D02*
X12870648Y5881934D01*
X12870648Y5881934D02*
X12897585Y5962746D01*
X12897585Y5962746D02*
X13032272Y6097433D01*
X13032272Y6097433D02*
X13113084Y6124370D01*
X13113084Y6124370D02*
X13166959Y6124370D01*
X13166959Y6124370D02*
X13247771Y6097433D01*
X13247771Y6097433D02*
X13301646Y6043558D01*
X13301646Y6043558D02*
X13355521Y5935808D01*
X13355521Y5935808D02*
X13355521Y5289311D01*
X13355521Y5289311D02*
X13705707Y5639497D01*
X13651832Y6716993D02*
X13382458Y6447619D01*
X13382458Y6447619D02*
X13624895Y6151308D01*
X13624895Y6151308D02*
X13624895Y6205183D01*
X13624895Y6205183D02*
X13651832Y6285995D01*
X13651832Y6285995D02*
X13786519Y6420682D01*
X13786519Y6420682D02*
X13867332Y6447619D01*
X13867332Y6447619D02*
X13921206Y6447619D01*
X13921206Y6447619D02*
X14002019Y6420682D01*
X14002019Y6420682D02*
X14136706Y6285995D01*
X14136706Y6285995D02*
X14163643Y6205183D01*
X14163643Y6205183D02*
X14163643Y6151308D01*
X14163643Y6151308D02*
X14136706Y6070496D01*
X14136706Y6070496D02*
X14002019Y5935809D01*
X14002019Y5935809D02*
X13921206Y5908871D01*
X13921206Y5908871D02*
X13867332Y5908871D01*
X14433017Y6474557D02*
X14486892Y6474557D01*
X14486892Y6474557D02*
X14486892Y6420682D01*
X14486892Y6420682D02*
X14433017Y6420682D01*
X14433017Y6420682D02*
X14433017Y6474557D01*
X14433017Y6474557D02*
X14486892Y6420682D01*
X14459954Y7525115D02*
X14190580Y7255741D01*
X14190580Y7255741D02*
X14433017Y6959430D01*
X14433017Y6959430D02*
X14433017Y7013305D01*
X14433017Y7013305D02*
X14459954Y7094117D01*
X14459954Y7094117D02*
X14594641Y7228804D01*
X14594641Y7228804D02*
X14675453Y7255741D01*
X14675453Y7255741D02*
X14729328Y7255741D01*
X14729328Y7255741D02*
X14810140Y7228804D01*
X14810140Y7228804D02*
X14944827Y7094117D01*
X14944827Y7094117D02*
X14971765Y7013305D01*
X14971765Y7013305D02*
X14971765Y6959430D01*
X14971765Y6959430D02*
X14944827Y6878618D01*
X14944827Y6878618D02*
X14810140Y6743931D01*
X14810140Y6743931D02*
X14729328Y6716993D01*
X14729328Y6716993D02*
X14675453Y6716993D01*
X20175839Y22949952D02*
X20552962Y22572828D01*
X19825652Y23030764D02*
X20095026Y22492016D01*
X20095026Y22492016D02*
X20445213Y22842202D01*
X20391338Y23542575D02*
X20445213Y23596450D01*
X20445213Y23596450D02*
X20526025Y23623387D01*
X20526025Y23623387D02*
X20579900Y23623387D01*
X20579900Y23623387D02*
X20660712Y23596450D01*
X20660712Y23596450D02*
X20795399Y23515638D01*
X20795399Y23515638D02*
X20930086Y23380951D01*
X20930086Y23380951D02*
X21010898Y23246264D01*
X21010898Y23246264D02*
X21037836Y23165451D01*
X21037836Y23165451D02*
X21037836Y23111577D01*
X21037836Y23111577D02*
X21010898Y23030764D01*
X21010898Y23030764D02*
X20957023Y22976890D01*
X20957023Y22976890D02*
X20876211Y22949952D01*
X20876211Y22949952D02*
X20822336Y22949952D01*
X20822336Y22949952D02*
X20741524Y22976890D01*
X20741524Y22976890D02*
X20606837Y23057702D01*
X20606837Y23057702D02*
X20472150Y23192389D01*
X20472150Y23192389D02*
X20391338Y23327076D01*
X20391338Y23327076D02*
X20364401Y23407888D01*
X20364401Y23407888D02*
X20364401Y23461763D01*
X20364401Y23461763D02*
X20391338Y23542575D01*
X20930086Y24081323D02*
X20983961Y24135198D01*
X20983961Y24135198D02*
X21064773Y24162135D01*
X21064773Y24162135D02*
X21118648Y24162135D01*
X21118648Y24162135D02*
X21199460Y24135198D01*
X21199460Y24135198D02*
X21334147Y24054386D01*
X21334147Y24054386D02*
X21468834Y23919699D01*
X21468834Y23919699D02*
X21549646Y23785012D01*
X21549646Y23785012D02*
X21576584Y23704200D01*
X21576584Y23704200D02*
X21576584Y23650325D01*
X21576584Y23650325D02*
X21549646Y23569513D01*
X21549646Y23569513D02*
X21495772Y23515638D01*
X21495772Y23515638D02*
X21414959Y23488700D01*
X21414959Y23488700D02*
X21361085Y23488700D01*
X21361085Y23488700D02*
X21280272Y23515638D01*
X21280272Y23515638D02*
X21145585Y23596450D01*
X21145585Y23596450D02*
X21010898Y23731137D01*
X21010898Y23731137D02*
X20930086Y23865824D01*
X20930086Y23865824D02*
X20903149Y23946636D01*
X20903149Y23946636D02*
X20903149Y24000511D01*
X20903149Y24000511D02*
X20930086Y24081323D01*
X21953708Y23973574D02*
X22061457Y24081323D01*
X22061457Y24081323D02*
X22088395Y24162136D01*
X22088395Y24162136D02*
X22088395Y24216010D01*
X22088395Y24216010D02*
X22061457Y24350697D01*
X22061457Y24350697D02*
X21980645Y24485384D01*
X21980645Y24485384D02*
X21765146Y24700884D01*
X21765146Y24700884D02*
X21684334Y24727821D01*
X21684334Y24727821D02*
X21630459Y24727821D01*
X21630459Y24727821D02*
X21549647Y24700884D01*
X21549647Y24700884D02*
X21441897Y24593134D01*
X21441897Y24593134D02*
X21414960Y24512322D01*
X21414960Y24512322D02*
X21414960Y24458447D01*
X21414960Y24458447D02*
X21441897Y24377635D01*
X21441897Y24377635D02*
X21576584Y24242948D01*
X21576584Y24242948D02*
X21657396Y24216010D01*
X21657396Y24216010D02*
X21711271Y24216010D01*
X21711271Y24216010D02*
X21792083Y24242948D01*
X21792083Y24242948D02*
X21899833Y24350697D01*
X21899833Y24350697D02*
X21926770Y24431510D01*
X21926770Y24431510D02*
X21926770Y24485384D01*
X21926770Y24485384D02*
X21899833Y24566197D01*
X21926770Y24970258D02*
X21926770Y25024133D01*
X21926770Y25024133D02*
X21953708Y25104945D01*
X21953708Y25104945D02*
X22088395Y25239632D01*
X22088395Y25239632D02*
X22169207Y25266569D01*
X22169207Y25266569D02*
X22223082Y25266569D01*
X22223082Y25266569D02*
X22303894Y25239632D01*
X22303894Y25239632D02*
X22357769Y25185757D01*
X22357769Y25185757D02*
X22411644Y25078007D01*
X22411644Y25078007D02*
X22411644Y24431510D01*
X22411644Y24431510D02*
X22761830Y24781696D01*
X23031204Y25051070D02*
X23138954Y25158820D01*
X23138954Y25158820D02*
X23165891Y25239632D01*
X23165891Y25239632D02*
X23165891Y25293507D01*
X23165891Y25293507D02*
X23138954Y25428194D01*
X23138954Y25428194D02*
X23058141Y25562881D01*
X23058141Y25562881D02*
X22842642Y25778380D01*
X22842642Y25778380D02*
X22761830Y25805317D01*
X22761830Y25805317D02*
X22707955Y25805317D01*
X22707955Y25805317D02*
X22627143Y25778380D01*
X22627143Y25778380D02*
X22519393Y25670630D01*
X22519393Y25670630D02*
X22492456Y25589818D01*
X22492456Y25589818D02*
X22492456Y25535943D01*
X22492456Y25535943D02*
X22519393Y25455131D01*
X22519393Y25455131D02*
X22654080Y25320444D01*
X22654080Y25320444D02*
X22734893Y25293507D01*
X22734893Y25293507D02*
X22788767Y25293507D01*
X22788767Y25293507D02*
X22869580Y25320444D01*
X22869580Y25320444D02*
X22977329Y25428194D01*
X22977329Y25428194D02*
X23004267Y25509006D01*
X23004267Y25509006D02*
X23004267Y25562881D01*
X23004267Y25562881D02*
X22977329Y25643693D01*
X19631942Y20961735D02*
X19685816Y21015609D01*
X19685816Y21015609D02*
X19766629Y21042547D01*
X19766629Y21042547D02*
X19820503Y21042547D01*
X19820503Y21042547D02*
X19901316Y21015609D01*
X19901316Y21015609D02*
X20036003Y20934797D01*
X20036003Y20934797D02*
X20170690Y20800110D01*
X20170690Y20800110D02*
X20251502Y20665423D01*
X20251502Y20665423D02*
X20278439Y20584611D01*
X20278439Y20584611D02*
X20278439Y20530736D01*
X20278439Y20530736D02*
X20251502Y20449924D01*
X20251502Y20449924D02*
X20197627Y20396049D01*
X20197627Y20396049D02*
X20116815Y20369112D01*
X20116815Y20369112D02*
X20062940Y20369112D01*
X20062940Y20369112D02*
X19982128Y20396049D01*
X19982128Y20396049D02*
X19847441Y20476861D01*
X19847441Y20476861D02*
X19712754Y20611548D01*
X19712754Y20611548D02*
X19631942Y20746235D01*
X19631942Y20746235D02*
X19605004Y20827048D01*
X19605004Y20827048D02*
X19605004Y20880922D01*
X19605004Y20880922D02*
X19631942Y20961735D01*
X20170690Y21500483D02*
X20224565Y21554358D01*
X20224565Y21554358D02*
X20305377Y21581295D01*
X20305377Y21581295D02*
X20359252Y21581295D01*
X20359252Y21581295D02*
X20440064Y21554358D01*
X20440064Y21554358D02*
X20574751Y21473545D01*
X20574751Y21473545D02*
X20709438Y21338858D01*
X20709438Y21338858D02*
X20790250Y21204171D01*
X20790250Y21204171D02*
X20817187Y21123359D01*
X20817187Y21123359D02*
X20817187Y21069484D01*
X20817187Y21069484D02*
X20790250Y20988672D01*
X20790250Y20988672D02*
X20736375Y20934797D01*
X20736375Y20934797D02*
X20655563Y20907860D01*
X20655563Y20907860D02*
X20601688Y20907860D01*
X20601688Y20907860D02*
X20520876Y20934797D01*
X20520876Y20934797D02*
X20386189Y21015610D01*
X20386189Y21015610D02*
X20251502Y21150297D01*
X20251502Y21150297D02*
X20170690Y21284984D01*
X20170690Y21284984D02*
X20143752Y21365796D01*
X20143752Y21365796D02*
X20143752Y21419671D01*
X20143752Y21419671D02*
X20170690Y21500483D01*
X20709438Y22039231D02*
X20763313Y22093106D01*
X20763313Y22093106D02*
X20844125Y22120043D01*
X20844125Y22120043D02*
X20898000Y22120043D01*
X20898000Y22120043D02*
X20978812Y22093106D01*
X20978812Y22093106D02*
X21113499Y22012294D01*
X21113499Y22012294D02*
X21248186Y21877607D01*
X21248186Y21877607D02*
X21328998Y21742920D01*
X21328998Y21742920D02*
X21355936Y21662107D01*
X21355936Y21662107D02*
X21355936Y21608233D01*
X21355936Y21608233D02*
X21328998Y21527420D01*
X21328998Y21527420D02*
X21275123Y21473546D01*
X21275123Y21473546D02*
X21194311Y21446608D01*
X21194311Y21446608D02*
X21140436Y21446608D01*
X21140436Y21446608D02*
X21059624Y21473546D01*
X21059624Y21473546D02*
X20924937Y21554358D01*
X20924937Y21554358D02*
X20790250Y21689045D01*
X20790250Y21689045D02*
X20709438Y21823732D01*
X20709438Y21823732D02*
X20682501Y21904544D01*
X20682501Y21904544D02*
X20682501Y21958419D01*
X20682501Y21958419D02*
X20709438Y22039231D01*
X22002433Y22200856D02*
X21679185Y21877607D01*
X21840809Y22039231D02*
X21275124Y22604917D01*
X21275124Y22604917D02*
X21302061Y22470230D01*
X21302061Y22470230D02*
X21302061Y22362480D01*
X21302061Y22362480D02*
X21275124Y22281668D01*
X22244870Y22443292D02*
X21679185Y23008978D01*
X22568119Y22766541D02*
X22002434Y22847353D01*
X22002434Y23332227D02*
X22002434Y22685729D01*
X22810556Y23008978D02*
X22244870Y23574663D01*
X22514244Y23305289D02*
X22837493Y23628538D01*
X23133804Y23332227D02*
X22568119Y23897912D01*
X23672552Y23870974D02*
X23403178Y23601600D01*
X23403178Y23601600D02*
X22837493Y24167286D01*
X23403178Y24732971D02*
X23510928Y24840721D01*
X23510928Y24840721D02*
X23591740Y24867658D01*
X23591740Y24867658D02*
X23699490Y24867658D01*
X23699490Y24867658D02*
X23834177Y24786846D01*
X23834177Y24786846D02*
X24022739Y24598284D01*
X24022739Y24598284D02*
X24103551Y24463597D01*
X24103551Y24463597D02*
X24103551Y24355848D01*
X24103551Y24355848D02*
X24076613Y24275035D01*
X24076613Y24275035D02*
X23968864Y24167286D01*
X23968864Y24167286D02*
X23888051Y24140348D01*
X23888051Y24140348D02*
X23780302Y24140348D01*
X23780302Y24140348D02*
X23645615Y24221161D01*
X23645615Y24221161D02*
X23457053Y24409722D01*
X23457053Y24409722D02*
X23376241Y24544409D01*
X23376241Y24544409D02*
X23376241Y24652159D01*
X23376241Y24652159D02*
X23403178Y24732971D01*
X21054474Y19431452D02*
X20488788Y19997137D01*
X20488788Y19997137D02*
X20704288Y20212637D01*
X20704288Y20212637D02*
X20785100Y20239574D01*
X20785100Y20239574D02*
X20838975Y20239574D01*
X20838975Y20239574D02*
X20919787Y20212637D01*
X20919787Y20212637D02*
X21000599Y20131824D01*
X21000599Y20131824D02*
X21027537Y20051012D01*
X21027537Y20051012D02*
X21027537Y19997137D01*
X21027537Y19997137D02*
X21000599Y19916325D01*
X21000599Y19916325D02*
X20785100Y19700826D01*
X21889533Y20374261D02*
X21889533Y20320386D01*
X21889533Y20320386D02*
X21835659Y20212637D01*
X21835659Y20212637D02*
X21781784Y20158762D01*
X21781784Y20158762D02*
X21674034Y20104887D01*
X21674034Y20104887D02*
X21566285Y20104887D01*
X21566285Y20104887D02*
X21485472Y20131824D01*
X21485472Y20131824D02*
X21350785Y20212637D01*
X21350785Y20212637D02*
X21269973Y20293449D01*
X21269973Y20293449D02*
X21189161Y20428136D01*
X21189161Y20428136D02*
X21162224Y20508948D01*
X21162224Y20508948D02*
X21162224Y20616698D01*
X21162224Y20616698D02*
X21216098Y20724447D01*
X21216098Y20724447D02*
X21269973Y20778322D01*
X21269973Y20778322D02*
X21377723Y20832197D01*
X21377723Y20832197D02*
X21431598Y20832197D01*
X21997283Y20697510D02*
X22266657Y20966884D01*
X22105033Y20482011D02*
X21727909Y21236258D01*
X21727909Y21236258D02*
X22482156Y20859134D01*
X22131970Y21532569D02*
X22131970Y21586444D01*
X22131970Y21586444D02*
X22158907Y21667256D01*
X22158907Y21667256D02*
X22293594Y21801943D01*
X22293594Y21801943D02*
X22374406Y21828881D01*
X22374406Y21828881D02*
X22428281Y21828881D01*
X22428281Y21828881D02*
X22509093Y21801943D01*
X22509093Y21801943D02*
X22562968Y21748068D01*
X22562968Y21748068D02*
X22616843Y21640319D01*
X22616843Y21640319D02*
X22616843Y20993821D01*
X22616843Y20993821D02*
X22967029Y21344007D01*
X22751530Y22259879D02*
X22805405Y22313754D01*
X22805405Y22313754D02*
X22886217Y22340691D01*
X22886217Y22340691D02*
X22940092Y22340691D01*
X22940092Y22340691D02*
X23020904Y22313754D01*
X23020904Y22313754D02*
X23155591Y22232942D01*
X23155591Y22232942D02*
X23290278Y22098255D01*
X23290278Y22098255D02*
X23371090Y21963568D01*
X23371090Y21963568D02*
X23398028Y21882756D01*
X23398028Y21882756D02*
X23398028Y21828881D01*
X23398028Y21828881D02*
X23371090Y21748069D01*
X23371090Y21748069D02*
X23317216Y21694194D01*
X23317216Y21694194D02*
X23236403Y21667256D01*
X23236403Y21667256D02*
X23182529Y21667256D01*
X23182529Y21667256D02*
X23101716Y21694194D01*
X23101716Y21694194D02*
X22967029Y21775006D01*
X22967029Y21775006D02*
X22832342Y21909693D01*
X22832342Y21909693D02*
X22751530Y22044380D01*
X22751530Y22044380D02*
X22724593Y22125192D01*
X22724593Y22125192D02*
X22724593Y22179067D01*
X22724593Y22179067D02*
X22751530Y22259879D01*
X23290278Y22798627D02*
X23344153Y22852502D01*
X23344153Y22852502D02*
X23424965Y22879440D01*
X23424965Y22879440D02*
X23478840Y22879440D01*
X23478840Y22879440D02*
X23559652Y22852502D01*
X23559652Y22852502D02*
X23694339Y22771690D01*
X23694339Y22771690D02*
X23829026Y22637003D01*
X23829026Y22637003D02*
X23909839Y22502316D01*
X23909839Y22502316D02*
X23936776Y22421504D01*
X23936776Y22421504D02*
X23936776Y22367629D01*
X23936776Y22367629D02*
X23909839Y22286817D01*
X23909839Y22286817D02*
X23855964Y22232942D01*
X23855964Y22232942D02*
X23775152Y22206004D01*
X23775152Y22206004D02*
X23721277Y22206004D01*
X23721277Y22206004D02*
X23640465Y22232942D01*
X23640465Y22232942D02*
X23505778Y22313754D01*
X23505778Y22313754D02*
X23371091Y22448441D01*
X23371091Y22448441D02*
X23290278Y22583128D01*
X23290278Y22583128D02*
X23263341Y22663940D01*
X23263341Y22663940D02*
X23263341Y22717815D01*
X23263341Y22717815D02*
X23290278Y22798627D01*
X23667402Y23175751D02*
X24044526Y23552875D01*
X24044526Y23552875D02*
X24367775Y22744753D01*
X24206150Y23714499D02*
X24556337Y24064686D01*
X24556337Y24064686D02*
X24583274Y23660624D01*
X24583274Y23660624D02*
X24664086Y23741437D01*
X24664086Y23741437D02*
X24744898Y23768374D01*
X24744898Y23768374D02*
X24798773Y23768374D01*
X24798773Y23768374D02*
X24879585Y23741437D01*
X24879585Y23741437D02*
X25014272Y23606750D01*
X25014272Y23606750D02*
X25041210Y23525937D01*
X25041210Y23525937D02*
X25041210Y23472063D01*
X25041210Y23472063D02*
X25014272Y23391250D01*
X25014272Y23391250D02*
X24852648Y23229626D01*
X24852648Y23229626D02*
X24771836Y23202689D01*
X24771836Y23202689D02*
X24717961Y23202689D01*
D15*
X15748975Y10453169D02*
X16143346Y10847540D01*
X16172956Y10029188D02*
X15748975Y10453169D01*
X17506135Y12210329D02*
X17111764Y11815958D01*
X17930116Y11786348D02*
X17506135Y12210329D01*
X18984978Y10731486D02*
X19408959Y10307505D01*
X19408959Y10307505D02*
X19014588Y9913134D01*
D14*
X18294150Y8478220D02*
G75*
G02*
X18094150Y8478220I-100000J0D01*
G01*
X18094150Y8478220D02*
G75*
G02*
X18294150Y8478220I100000J0D01*
G01*
D15*
X9912120Y21720803D02*
X9694839Y21503522D01*
X10449521Y21183402D02*
X10232240Y20966121D01*
X18670562Y18677669D02*
G75*
G02*
X17270562Y18677669I-700000J0D01*
G01*
X17270562Y18677669D02*
G75*
G02*
X18670562Y18677669I700000J0D01*
G01*
X17315641Y7106716D02*
X16997443Y7424914D01*
X17722227Y7902211D02*
X17598483Y8025954D01*
X17916681Y7707756D02*
X17845971Y7778467D01*
X17916681Y7849178D01*
X17916681Y7707756D01*
G36*
X17916681Y7707756D02*
G01*
X17845971Y7778467D01*
X17916681Y7849178D01*
X17916681Y7707756D01*
G37*
X14787052Y12001051D02*
X14634549Y11848548D01*
X15296169Y11491934D02*
X15143666Y11339431D01*
X9247439Y22385483D02*
X9030158Y22168202D01*
X9784840Y21848082D02*
X9567559Y21630801D01*
X22411193Y490883D02*
X24673935Y2753624D01*
X22976878Y4450681D02*
X20714137Y2187939D01*
X24673935Y2753624D02*
X22976878Y4450681D01*
X17256349Y17263456D02*
G75*
G02*
X15856349Y17263456I-700000J0D01*
G01*
X15856349Y17263456D02*
G75*
G02*
X17256349Y17263456I700000J0D01*
G01*
X15449359Y12685307D02*
X16015044Y13250993D01*
X15449359Y12685307D02*
X16439308Y11695358D01*
X16439308Y11695358D02*
X17004994Y12261043D01*
X7479672Y11100059D02*
X7262391Y10882778D01*
X8017073Y10562658D02*
X7799792Y10345377D01*
X7915504Y16733126D02*
X8954951Y15693679D01*
X8954951Y15693679D02*
X10570690Y17309418D01*
X9531243Y18348865D02*
X7915504Y16733126D01*
D10*
X11770815Y21998991D02*
X11770815Y21598990D01*
X11770815Y21998991D02*
X12170815Y21998990D01*
X11770815Y19798990D02*
X11770815Y19998990D01*
X11970815Y19598990D02*
X12170815Y19598990D01*
X14270815Y21998991D02*
X13870815Y21998990D01*
X14270815Y21998991D02*
X14270815Y21598990D01*
X14270815Y19998990D02*
X14270815Y19598989D01*
X14270815Y19598989D02*
X13870815Y19598990D01*
D15*
X11770815Y19598989D02*
X11770815Y19238990D01*
X11410815Y19598990D01*
X11770815Y19598989D01*
G36*
X11770815Y19598989D02*
G01*
X11770815Y19238990D01*
X11410815Y19598990D01*
X11770815Y19598989D01*
G37*
X7887220Y12129860D02*
X7180113Y12836967D01*
X8749891Y12992531D02*
X8042784Y13699638D01*
X8304413Y11811662D02*
X7908433Y11811662D01*
X8106423Y12009652D01*
X8304413Y11811662D01*
G36*
X8304413Y11811662D02*
G01*
X7908433Y11811662D01*
X8106423Y12009652D01*
X8304413Y11811662D01*
G37*
X19953254Y17612821D02*
X20588254Y17612821D01*
X19953254Y16977821D02*
X19953254Y17612821D01*
X3192030Y5171929D02*
X4181980Y6161879D01*
X3616295Y3757715D02*
X3192030Y4181980D01*
X5171929Y6161879D02*
X5596194Y5737614D01*
X5596194Y4747665D02*
X4606244Y3757715D01*
X3192030Y4181980D02*
G75*
G02*
X3192030Y5171928I494974J494974D01*
G01*
X4181980Y6161879D02*
G75*
G02*
X5171929Y6161880I494975J-494975D01*
G01*
X4606244Y3757715D02*
G75*
G02*
X3616294Y3757714I-494975J494946D01*
G01*
X5596194Y5737614D02*
G75*
G02*
X5596194Y4747665I-494975J-494974D01*
G01*
X11500535Y12136932D02*
X11429825Y12207642D01*
X12702617Y10934850D02*
X15813887Y14046120D01*
X13339013Y16520994D02*
X10227743Y13409724D01*
X14611805Y15248202D02*
X14541095Y15318912D01*
D10*
X3308801Y15154655D02*
X3608801Y15154655D01*
X3458801Y15304655D02*
X3608801Y15154655D01*
X3608801Y15454655D02*
X3308801Y15154655D01*
X3608801Y15454655D02*
X3458801Y15154655D01*
X3608801Y15304655D02*
X3308801Y15154655D01*
X3608801Y15154655D02*
X3608801Y15454655D01*
X3608801Y14654655D02*
X3608801Y14854655D01*
X3608801Y11454655D02*
X3608801Y10954655D01*
X4108801Y15154655D02*
X3908801Y15154655D01*
X4108801Y10954655D02*
X3608801Y10954655D01*
X6308801Y15154655D02*
X6808801Y15154655D01*
X6308801Y10954655D02*
X6808801Y10954655D01*
X6808801Y14654655D02*
X6808801Y15154655D01*
X6808801Y11454655D02*
X6808801Y10954655D01*
D15*
X8400833Y13567862D02*
X8618114Y13350581D01*
X8938234Y14105263D02*
X9155515Y13887982D01*
X5695188Y7250824D02*
X6685138Y6260874D01*
X7328605Y8898383D02*
X8325626Y7901362D01*
X7434671Y9188296D02*
X7031620Y9124657D01*
X7095260Y9527708D01*
X7434671Y9188296D01*
G36*
X7434671Y9188296D02*
G01*
X7031620Y9124657D01*
X7095260Y9527708D01*
X7434671Y9188296D01*
G37*
M02*
