M48
; DRILL file {KiCad 9.0.0-rc2-3baa6cd791~182~ubuntu24.04.1} date 2025-02-04T14:31:57-0500
; FORMAT={-:-/ absolute / inch / decimal}
; #@! TF.CreationDate,2025-02-04T14:31:57-05:00
; #@! TF.GenerationSoftware,Kicad,Pcbnew,9.0.0-rc2-3baa6cd791~182~ubuntu24.04.1
; #@! TF.FileFunction,MixedPlating,1,4
FMAT,2
INCH
; #@! TA.AperFunction,Plated,PTH,ViaDrill
T1C0.0059
; #@! TA.AperFunction,Plated,PTH,ViaDrill
T2C0.0118
; #@! TA.AperFunction,NonPlated,NPTH,ComponentDrill
T3C0.0390
%
G90
G05
T1
X5.5436Y-3.8833
X5.5436Y-3.939
X5.5436Y-3.9947
X5.5436Y-4.0503
X5.5436Y-4.2731
X5.5436Y-4.3287
X5.5478Y-4.4972
X5.5714Y-3.9111
X5.5714Y-3.9668
X5.5714Y-4.0225
X5.5714Y-4.3009
X5.5714Y-4.3566
X5.5802Y-4.1338
X5.5802Y-4.1869
X5.5993Y-3.8833
X5.5993Y-3.939
X5.5993Y-3.9947
X5.5993Y-4.3844
X5.6113Y-4.0565
X5.6129Y-4.3195
X5.6157Y-4.1338
X5.6157Y-4.1869
X5.6271Y-3.9111
X5.6271Y-3.9668
X5.6271Y-4.0225
X5.6307Y-4.3017
X5.6424Y-4.3496
X5.655Y-3.772
X5.655Y-3.939
X5.655Y-3.9947
X5.6795Y-4.2664
X5.6828Y-3.7998
X5.6828Y-3.8555
X5.6828Y-3.9111
X5.6828Y-3.9668
X5.6828Y-4.3009
X5.6953Y-4.4025
X5.7079Y-4.238
X5.7106Y-3.772
X5.7106Y-3.8276
X5.7106Y-3.8833
X5.7106Y-3.939
X5.7106Y-4.2731
X5.7106Y-4.4958
X5.7232Y-4.4303
X5.7343Y-4.1812
X5.7385Y-3.8555
X5.7385Y-3.9111
X5.7385Y-4.5236
X5.7663Y-3.8833
X5.7663Y-3.9947
X5.7663Y-4.4958
X5.7882Y-3.9727
X5.7942Y-4.2452
X5.7942Y-4.3009
X5.7942Y-4.3566
X5.7942Y-4.4679
X5.7942Y-4.5236
X5.7958Y-3.8744
X5.7968Y-4.1827
X5.822Y-4.2174
X5.822Y-4.3287
X5.822Y-4.4958
X5.8309Y-3.8903
X5.8326Y-4.4011
X5.8342Y-4.3638
X5.842Y-3.7873
X5.8498Y-4.2452
X5.8498Y-4.3009
X5.8498Y-4.4679
X5.8498Y-4.5236
X5.8521Y-4.3816
X5.8695Y-3.8456
X5.8754Y-3.9173
X5.876Y-3.8893
X5.8777Y-4.2731
X5.8777Y-4.4958
X5.8955Y-3.9178
X5.9055Y-4.3566
X5.9055Y-4.4679
X5.9055Y-4.5236
X5.9154Y-3.8893
X5.9287Y-3.7881
X5.9334Y-4.3287
X5.9334Y-4.4401
X5.9334Y-4.4958
X5.935Y-3.8216
X5.9415Y-3.8456
X5.9592Y-4.3914
X5.9612Y-3.7998
X5.9612Y-4.4679
X5.9612Y-4.5236
X5.9659Y-3.9604
X5.9687Y-4.2282
X5.9687Y-4.3212
X5.9709Y-3.8847
X5.9843Y-3.9782
X5.989Y-3.772
X5.989Y-3.8276
X5.989Y-4.4401
X6.0078Y-4.2439
X6.0114Y-4.2882
X6.0158Y-4.2163
X6.0169Y-3.7998
X6.0169Y-3.8555
X6.0169Y-3.9111
X6.0289Y-4.3837
X6.0315Y-4.1836
X6.0391Y-3.9167
X6.0394Y-4.2154
X6.0406Y-4.3369
X6.0447Y-3.772
X6.0447Y-3.8276
X6.0447Y-3.8833
X6.0447Y-3.9947
X6.0447Y-4.4401
X6.0447Y-4.4958
X6.049Y-4.3642
X6.0492Y-4.264
X6.0539Y-4.3869
X6.0544Y-4.1606
X6.0659Y-4.2306
X6.0659Y-4.2473
X6.0659Y-4.2974
X6.0659Y-4.264
X6.0681Y-4.2124
X6.0682Y-4.345
X6.0698Y-4.4017
X6.0725Y-3.7998
X6.0725Y-3.8555
X6.0725Y-4.4679
X6.0725Y-4.5236
X6.0825Y-4.2974
X6.0826Y-4.2807
X6.0904Y-4.2046
X6.0968Y-4.3168
X6.0993Y-4.264
X6.0993Y-4.2807
X6.1004Y-3.772
X6.1004Y-3.8276
X6.1004Y-3.8833
X6.1004Y-4.4401
X6.1004Y-4.4958
X6.1046Y-4.1781
X6.111Y-4.3226
X6.116Y-4.264
X6.1243Y-4.2129
X6.1282Y-3.7998
X6.1282Y-3.8555
X6.1282Y-4.0782
X6.1282Y-4.4122
X6.1282Y-4.4679
X6.1282Y-4.5236
X6.1422Y-4.2307
X6.1494Y-4.3671
X6.1561Y-3.8276
X6.1561Y-3.8833
X6.1561Y-3.939
X6.1561Y-4.0503
X6.1561Y-4.4401
X6.1561Y-4.4958
X6.1672Y-4.0058
X6.1769Y-4.1057
X6.1833Y-4.0837
X6.1839Y-3.8555
X6.1839Y-3.9111
X6.1839Y-3.9668
X6.1839Y-4.3009
X6.1839Y-4.4679
X6.1995Y-4.4173
X6.2117Y-3.8833
X6.2117Y-4.2731
X6.2117Y-4.3287
X6.2165Y-4.4754
X6.2396Y-3.9111
X6.2396Y-4.2452
X6.2396Y-4.3009
X6.2396Y-4.3566
X6.2674Y-3.939
X6.2674Y-4.2174
X6.2674Y-4.2731
X6.2674Y-4.3287
X6.2674Y-4.3844
X6.2808Y-4.0559
X6.283Y-4.0058
X6.2953Y-3.9668
X6.2953Y-4.2452
X6.2953Y-4.3009
X6.2953Y-4.3566
T2
X5.9055Y-4.1339
T3
X6.1884Y-4.1559
X6.2284Y-3.9559
X6.2684Y-4.1559
M30
