%TF.GenerationSoftware,KiCad,Pcbnew,9.0.0-rc2-3baa6cd791~182~ubuntu24.04.1*%
%TF.CreationDate,2025-01-30T23:50:26-05:00*%
%TF.ProjectId,PCA20073_nRF54L15_Tiny_Board,50434132-3030-4373-935f-6e524635344c,rev?*%
%TF.SameCoordinates,Original*%
%TF.FileFunction,Other,Comment*%
%FSLAX46Y46*%
G04 Gerber Fmt 4.6, Leading zero omitted, Abs format (unit mm)*
G04 Created by KiCad (PCBNEW 9.0.0-rc2-3baa6cd791~182~ubuntu24.04.1) date 2025-01-30 23:50:26*
%MOMM*%
%LPD*%
G01*
G04 APERTURE LIST*
%ADD10C,0.070000*%
G04 APERTURE END LIST*
D10*
X156530293Y-44278690D02*
X156130293Y-44278690D01*
X156530293Y-44050119D02*
X156301722Y-44221548D01*
X156130293Y-44050119D02*
X156358865Y-44278690D01*
X156320769Y-43878690D02*
X156320769Y-43745357D01*
X156530293Y-43688214D02*
X156530293Y-43878690D01*
X156530293Y-43878690D02*
X156130293Y-43878690D01*
X156130293Y-43878690D02*
X156130293Y-43688214D01*
X156320769Y-43516785D02*
X156320769Y-43383452D01*
X156530293Y-43326309D02*
X156530293Y-43516785D01*
X156530293Y-43516785D02*
X156130293Y-43516785D01*
X156130293Y-43516785D02*
X156130293Y-43326309D01*
X156530293Y-43154880D02*
X156130293Y-43154880D01*
X156130293Y-43154880D02*
X156130293Y-43002499D01*
X156130293Y-43002499D02*
X156149341Y-42964404D01*
X156149341Y-42964404D02*
X156168388Y-42945357D01*
X156168388Y-42945357D02*
X156206484Y-42926309D01*
X156206484Y-42926309D02*
X156263626Y-42926309D01*
X156263626Y-42926309D02*
X156301722Y-42945357D01*
X156301722Y-42945357D02*
X156320769Y-42964404D01*
X156320769Y-42964404D02*
X156339817Y-43002499D01*
X156339817Y-43002499D02*
X156339817Y-43154880D01*
X156130293Y-42678690D02*
X156130293Y-42602499D01*
X156130293Y-42602499D02*
X156149341Y-42564404D01*
X156149341Y-42564404D02*
X156187436Y-42526309D01*
X156187436Y-42526309D02*
X156263626Y-42507261D01*
X156263626Y-42507261D02*
X156396960Y-42507261D01*
X156396960Y-42507261D02*
X156473150Y-42526309D01*
X156473150Y-42526309D02*
X156511246Y-42564404D01*
X156511246Y-42564404D02*
X156530293Y-42602499D01*
X156530293Y-42602499D02*
X156530293Y-42678690D01*
X156530293Y-42678690D02*
X156511246Y-42716785D01*
X156511246Y-42716785D02*
X156473150Y-42754880D01*
X156473150Y-42754880D02*
X156396960Y-42773928D01*
X156396960Y-42773928D02*
X156263626Y-42773928D01*
X156263626Y-42773928D02*
X156187436Y-42754880D01*
X156187436Y-42754880D02*
X156149341Y-42716785D01*
X156149341Y-42716785D02*
X156130293Y-42678690D01*
X156130293Y-42335832D02*
X156454103Y-42335832D01*
X156454103Y-42335832D02*
X156492198Y-42316785D01*
X156492198Y-42316785D02*
X156511246Y-42297737D01*
X156511246Y-42297737D02*
X156530293Y-42259642D01*
X156530293Y-42259642D02*
X156530293Y-42183451D01*
X156530293Y-42183451D02*
X156511246Y-42145356D01*
X156511246Y-42145356D02*
X156492198Y-42126309D01*
X156492198Y-42126309D02*
X156454103Y-42107261D01*
X156454103Y-42107261D02*
X156130293Y-42107261D01*
X156130293Y-41973927D02*
X156130293Y-41745356D01*
X156530293Y-41859642D02*
X156130293Y-41859642D01*
X189279030Y-77027427D02*
X188879030Y-77027427D01*
X189279030Y-76798856D02*
X189050459Y-76970285D01*
X188879030Y-76798856D02*
X189107602Y-77027427D01*
X189069506Y-76627427D02*
X189069506Y-76494094D01*
X189279030Y-76436951D02*
X189279030Y-76627427D01*
X189279030Y-76627427D02*
X188879030Y-76627427D01*
X188879030Y-76627427D02*
X188879030Y-76436951D01*
X189069506Y-76265522D02*
X189069506Y-76132189D01*
X189279030Y-76075046D02*
X189279030Y-76265522D01*
X189279030Y-76265522D02*
X188879030Y-76265522D01*
X188879030Y-76265522D02*
X188879030Y-76075046D01*
X189279030Y-75903617D02*
X188879030Y-75903617D01*
X188879030Y-75903617D02*
X188879030Y-75751236D01*
X188879030Y-75751236D02*
X188898078Y-75713141D01*
X188898078Y-75713141D02*
X188917125Y-75694094D01*
X188917125Y-75694094D02*
X188955221Y-75675046D01*
X188955221Y-75675046D02*
X189012363Y-75675046D01*
X189012363Y-75675046D02*
X189050459Y-75694094D01*
X189050459Y-75694094D02*
X189069506Y-75713141D01*
X189069506Y-75713141D02*
X189088554Y-75751236D01*
X189088554Y-75751236D02*
X189088554Y-75903617D01*
X188879030Y-75427427D02*
X188879030Y-75351236D01*
X188879030Y-75351236D02*
X188898078Y-75313141D01*
X188898078Y-75313141D02*
X188936173Y-75275046D01*
X188936173Y-75275046D02*
X189012363Y-75255998D01*
X189012363Y-75255998D02*
X189145697Y-75255998D01*
X189145697Y-75255998D02*
X189221887Y-75275046D01*
X189221887Y-75275046D02*
X189259983Y-75313141D01*
X189259983Y-75313141D02*
X189279030Y-75351236D01*
X189279030Y-75351236D02*
X189279030Y-75427427D01*
X189279030Y-75427427D02*
X189259983Y-75465522D01*
X189259983Y-75465522D02*
X189221887Y-75503617D01*
X189221887Y-75503617D02*
X189145697Y-75522665D01*
X189145697Y-75522665D02*
X189012363Y-75522665D01*
X189012363Y-75522665D02*
X188936173Y-75503617D01*
X188936173Y-75503617D02*
X188898078Y-75465522D01*
X188898078Y-75465522D02*
X188879030Y-75427427D01*
X188879030Y-75084569D02*
X189202840Y-75084569D01*
X189202840Y-75084569D02*
X189240935Y-75065522D01*
X189240935Y-75065522D02*
X189259983Y-75046474D01*
X189259983Y-75046474D02*
X189279030Y-75008379D01*
X189279030Y-75008379D02*
X189279030Y-74932188D01*
X189279030Y-74932188D02*
X189259983Y-74894093D01*
X189259983Y-74894093D02*
X189240935Y-74875046D01*
X189240935Y-74875046D02*
X189202840Y-74855998D01*
X189202840Y-74855998D02*
X188879030Y-74855998D01*
X188879030Y-74722664D02*
X188879030Y-74494093D01*
X189279030Y-74608379D02*
X188879030Y-74608379D01*
X123781556Y-109776164D02*
X123381556Y-109776164D01*
X123781556Y-109547593D02*
X123552985Y-109719022D01*
X123381556Y-109547593D02*
X123610128Y-109776164D01*
X123572032Y-109376164D02*
X123572032Y-109242831D01*
X123781556Y-109185688D02*
X123781556Y-109376164D01*
X123781556Y-109376164D02*
X123381556Y-109376164D01*
X123381556Y-109376164D02*
X123381556Y-109185688D01*
X123572032Y-109014259D02*
X123572032Y-108880926D01*
X123781556Y-108823783D02*
X123781556Y-109014259D01*
X123781556Y-109014259D02*
X123381556Y-109014259D01*
X123381556Y-109014259D02*
X123381556Y-108823783D01*
X123781556Y-108652354D02*
X123381556Y-108652354D01*
X123381556Y-108652354D02*
X123381556Y-108499973D01*
X123381556Y-108499973D02*
X123400604Y-108461878D01*
X123400604Y-108461878D02*
X123419651Y-108442831D01*
X123419651Y-108442831D02*
X123457747Y-108423783D01*
X123457747Y-108423783D02*
X123514889Y-108423783D01*
X123514889Y-108423783D02*
X123552985Y-108442831D01*
X123552985Y-108442831D02*
X123572032Y-108461878D01*
X123572032Y-108461878D02*
X123591080Y-108499973D01*
X123591080Y-108499973D02*
X123591080Y-108652354D01*
X123381556Y-108176164D02*
X123381556Y-108099973D01*
X123381556Y-108099973D02*
X123400604Y-108061878D01*
X123400604Y-108061878D02*
X123438699Y-108023783D01*
X123438699Y-108023783D02*
X123514889Y-108004735D01*
X123514889Y-108004735D02*
X123648223Y-108004735D01*
X123648223Y-108004735D02*
X123724413Y-108023783D01*
X123724413Y-108023783D02*
X123762509Y-108061878D01*
X123762509Y-108061878D02*
X123781556Y-108099973D01*
X123781556Y-108099973D02*
X123781556Y-108176164D01*
X123781556Y-108176164D02*
X123762509Y-108214259D01*
X123762509Y-108214259D02*
X123724413Y-108252354D01*
X123724413Y-108252354D02*
X123648223Y-108271402D01*
X123648223Y-108271402D02*
X123514889Y-108271402D01*
X123514889Y-108271402D02*
X123438699Y-108252354D01*
X123438699Y-108252354D02*
X123400604Y-108214259D01*
X123400604Y-108214259D02*
X123381556Y-108176164D01*
X123381556Y-107833306D02*
X123705366Y-107833306D01*
X123705366Y-107833306D02*
X123743461Y-107814259D01*
X123743461Y-107814259D02*
X123762509Y-107795211D01*
X123762509Y-107795211D02*
X123781556Y-107757116D01*
X123781556Y-107757116D02*
X123781556Y-107680925D01*
X123781556Y-107680925D02*
X123762509Y-107642830D01*
X123762509Y-107642830D02*
X123743461Y-107623783D01*
X123743461Y-107623783D02*
X123705366Y-107604735D01*
X123705366Y-107604735D02*
X123381556Y-107604735D01*
X123381556Y-107471401D02*
X123381556Y-107242830D01*
X123781556Y-107357116D02*
X123381556Y-107357116D01*
X123781556Y-77027427D02*
X123381556Y-77027427D01*
X123781556Y-76798856D02*
X123552985Y-76970285D01*
X123381556Y-76798856D02*
X123610128Y-77027427D01*
X123572032Y-76627427D02*
X123572032Y-76494094D01*
X123781556Y-76436951D02*
X123781556Y-76627427D01*
X123781556Y-76627427D02*
X123381556Y-76627427D01*
X123381556Y-76627427D02*
X123381556Y-76436951D01*
X123572032Y-76265522D02*
X123572032Y-76132189D01*
X123781556Y-76075046D02*
X123781556Y-76265522D01*
X123781556Y-76265522D02*
X123381556Y-76265522D01*
X123381556Y-76265522D02*
X123381556Y-76075046D01*
X123781556Y-75903617D02*
X123381556Y-75903617D01*
X123381556Y-75903617D02*
X123381556Y-75751236D01*
X123381556Y-75751236D02*
X123400604Y-75713141D01*
X123400604Y-75713141D02*
X123419651Y-75694094D01*
X123419651Y-75694094D02*
X123457747Y-75675046D01*
X123457747Y-75675046D02*
X123514889Y-75675046D01*
X123514889Y-75675046D02*
X123552985Y-75694094D01*
X123552985Y-75694094D02*
X123572032Y-75713141D01*
X123572032Y-75713141D02*
X123591080Y-75751236D01*
X123591080Y-75751236D02*
X123591080Y-75903617D01*
X123381556Y-75427427D02*
X123381556Y-75351236D01*
X123381556Y-75351236D02*
X123400604Y-75313141D01*
X123400604Y-75313141D02*
X123438699Y-75275046D01*
X123438699Y-75275046D02*
X123514889Y-75255998D01*
X123514889Y-75255998D02*
X123648223Y-75255998D01*
X123648223Y-75255998D02*
X123724413Y-75275046D01*
X123724413Y-75275046D02*
X123762509Y-75313141D01*
X123762509Y-75313141D02*
X123781556Y-75351236D01*
X123781556Y-75351236D02*
X123781556Y-75427427D01*
X123781556Y-75427427D02*
X123762509Y-75465522D01*
X123762509Y-75465522D02*
X123724413Y-75503617D01*
X123724413Y-75503617D02*
X123648223Y-75522665D01*
X123648223Y-75522665D02*
X123514889Y-75522665D01*
X123514889Y-75522665D02*
X123438699Y-75503617D01*
X123438699Y-75503617D02*
X123400604Y-75465522D01*
X123400604Y-75465522D02*
X123381556Y-75427427D01*
X123381556Y-75084569D02*
X123705366Y-75084569D01*
X123705366Y-75084569D02*
X123743461Y-75065522D01*
X123743461Y-75065522D02*
X123762509Y-75046474D01*
X123762509Y-75046474D02*
X123781556Y-75008379D01*
X123781556Y-75008379D02*
X123781556Y-74932188D01*
X123781556Y-74932188D02*
X123762509Y-74894093D01*
X123762509Y-74894093D02*
X123743461Y-74875046D01*
X123743461Y-74875046D02*
X123705366Y-74855998D01*
X123705366Y-74855998D02*
X123381556Y-74855998D01*
X123381556Y-74722664D02*
X123381556Y-74494093D01*
X123781556Y-74608379D02*
X123381556Y-74608379D01*
X189279030Y-109776164D02*
X188879030Y-109776164D01*
X189279030Y-109547593D02*
X189050459Y-109719022D01*
X188879030Y-109547593D02*
X189107602Y-109776164D01*
X189069506Y-109376164D02*
X189069506Y-109242831D01*
X189279030Y-109185688D02*
X189279030Y-109376164D01*
X189279030Y-109376164D02*
X188879030Y-109376164D01*
X188879030Y-109376164D02*
X188879030Y-109185688D01*
X189069506Y-109014259D02*
X189069506Y-108880926D01*
X189279030Y-108823783D02*
X189279030Y-109014259D01*
X189279030Y-109014259D02*
X188879030Y-109014259D01*
X188879030Y-109014259D02*
X188879030Y-108823783D01*
X189279030Y-108652354D02*
X188879030Y-108652354D01*
X188879030Y-108652354D02*
X188879030Y-108499973D01*
X188879030Y-108499973D02*
X188898078Y-108461878D01*
X188898078Y-108461878D02*
X188917125Y-108442831D01*
X188917125Y-108442831D02*
X188955221Y-108423783D01*
X188955221Y-108423783D02*
X189012363Y-108423783D01*
X189012363Y-108423783D02*
X189050459Y-108442831D01*
X189050459Y-108442831D02*
X189069506Y-108461878D01*
X189069506Y-108461878D02*
X189088554Y-108499973D01*
X189088554Y-108499973D02*
X189088554Y-108652354D01*
X188879030Y-108176164D02*
X188879030Y-108099973D01*
X188879030Y-108099973D02*
X188898078Y-108061878D01*
X188898078Y-108061878D02*
X188936173Y-108023783D01*
X188936173Y-108023783D02*
X189012363Y-108004735D01*
X189012363Y-108004735D02*
X189145697Y-108004735D01*
X189145697Y-108004735D02*
X189221887Y-108023783D01*
X189221887Y-108023783D02*
X189259983Y-108061878D01*
X189259983Y-108061878D02*
X189279030Y-108099973D01*
X189279030Y-108099973D02*
X189279030Y-108176164D01*
X189279030Y-108176164D02*
X189259983Y-108214259D01*
X189259983Y-108214259D02*
X189221887Y-108252354D01*
X189221887Y-108252354D02*
X189145697Y-108271402D01*
X189145697Y-108271402D02*
X189012363Y-108271402D01*
X189012363Y-108271402D02*
X188936173Y-108252354D01*
X188936173Y-108252354D02*
X188898078Y-108214259D01*
X188898078Y-108214259D02*
X188879030Y-108176164D01*
X188879030Y-107833306D02*
X189202840Y-107833306D01*
X189202840Y-107833306D02*
X189240935Y-107814259D01*
X189240935Y-107814259D02*
X189259983Y-107795211D01*
X189259983Y-107795211D02*
X189279030Y-107757116D01*
X189279030Y-107757116D02*
X189279030Y-107680925D01*
X189279030Y-107680925D02*
X189259983Y-107642830D01*
X189259983Y-107642830D02*
X189240935Y-107623783D01*
X189240935Y-107623783D02*
X189202840Y-107604735D01*
X189202840Y-107604735D02*
X188879030Y-107604735D01*
X188879030Y-107471401D02*
X188879030Y-107242830D01*
X189279030Y-107357116D02*
X188879030Y-107357116D01*
X189279030Y-44278690D02*
X188879030Y-44278690D01*
X189279030Y-44050119D02*
X189050459Y-44221548D01*
X188879030Y-44050119D02*
X189107602Y-44278690D01*
X189069506Y-43878690D02*
X189069506Y-43745357D01*
X189279030Y-43688214D02*
X189279030Y-43878690D01*
X189279030Y-43878690D02*
X188879030Y-43878690D01*
X188879030Y-43878690D02*
X188879030Y-43688214D01*
X189069506Y-43516785D02*
X189069506Y-43383452D01*
X189279030Y-43326309D02*
X189279030Y-43516785D01*
X189279030Y-43516785D02*
X188879030Y-43516785D01*
X188879030Y-43516785D02*
X188879030Y-43326309D01*
X189279030Y-43154880D02*
X188879030Y-43154880D01*
X188879030Y-43154880D02*
X188879030Y-43002499D01*
X188879030Y-43002499D02*
X188898078Y-42964404D01*
X188898078Y-42964404D02*
X188917125Y-42945357D01*
X188917125Y-42945357D02*
X188955221Y-42926309D01*
X188955221Y-42926309D02*
X189012363Y-42926309D01*
X189012363Y-42926309D02*
X189050459Y-42945357D01*
X189050459Y-42945357D02*
X189069506Y-42964404D01*
X189069506Y-42964404D02*
X189088554Y-43002499D01*
X189088554Y-43002499D02*
X189088554Y-43154880D01*
X188879030Y-42678690D02*
X188879030Y-42602499D01*
X188879030Y-42602499D02*
X188898078Y-42564404D01*
X188898078Y-42564404D02*
X188936173Y-42526309D01*
X188936173Y-42526309D02*
X189012363Y-42507261D01*
X189012363Y-42507261D02*
X189145697Y-42507261D01*
X189145697Y-42507261D02*
X189221887Y-42526309D01*
X189221887Y-42526309D02*
X189259983Y-42564404D01*
X189259983Y-42564404D02*
X189279030Y-42602499D01*
X189279030Y-42602499D02*
X189279030Y-42678690D01*
X189279030Y-42678690D02*
X189259983Y-42716785D01*
X189259983Y-42716785D02*
X189221887Y-42754880D01*
X189221887Y-42754880D02*
X189145697Y-42773928D01*
X189145697Y-42773928D02*
X189012363Y-42773928D01*
X189012363Y-42773928D02*
X188936173Y-42754880D01*
X188936173Y-42754880D02*
X188898078Y-42716785D01*
X188898078Y-42716785D02*
X188879030Y-42678690D01*
X188879030Y-42335832D02*
X189202840Y-42335832D01*
X189202840Y-42335832D02*
X189240935Y-42316785D01*
X189240935Y-42316785D02*
X189259983Y-42297737D01*
X189259983Y-42297737D02*
X189279030Y-42259642D01*
X189279030Y-42259642D02*
X189279030Y-42183451D01*
X189279030Y-42183451D02*
X189259983Y-42145356D01*
X189259983Y-42145356D02*
X189240935Y-42126309D01*
X189240935Y-42126309D02*
X189202840Y-42107261D01*
X189202840Y-42107261D02*
X188879030Y-42107261D01*
X188879030Y-41973927D02*
X188879030Y-41745356D01*
X189279030Y-41859642D02*
X188879030Y-41859642D01*
X123781556Y-44278690D02*
X123381556Y-44278690D01*
X123781556Y-44050119D02*
X123552985Y-44221548D01*
X123381556Y-44050119D02*
X123610128Y-44278690D01*
X123572032Y-43878690D02*
X123572032Y-43745357D01*
X123781556Y-43688214D02*
X123781556Y-43878690D01*
X123781556Y-43878690D02*
X123381556Y-43878690D01*
X123381556Y-43878690D02*
X123381556Y-43688214D01*
X123572032Y-43516785D02*
X123572032Y-43383452D01*
X123781556Y-43326309D02*
X123781556Y-43516785D01*
X123781556Y-43516785D02*
X123381556Y-43516785D01*
X123381556Y-43516785D02*
X123381556Y-43326309D01*
X123781556Y-43154880D02*
X123381556Y-43154880D01*
X123381556Y-43154880D02*
X123381556Y-43002499D01*
X123381556Y-43002499D02*
X123400604Y-42964404D01*
X123400604Y-42964404D02*
X123419651Y-42945357D01*
X123419651Y-42945357D02*
X123457747Y-42926309D01*
X123457747Y-42926309D02*
X123514889Y-42926309D01*
X123514889Y-42926309D02*
X123552985Y-42945357D01*
X123552985Y-42945357D02*
X123572032Y-42964404D01*
X123572032Y-42964404D02*
X123591080Y-43002499D01*
X123591080Y-43002499D02*
X123591080Y-43154880D01*
X123381556Y-42678690D02*
X123381556Y-42602499D01*
X123381556Y-42602499D02*
X123400604Y-42564404D01*
X123400604Y-42564404D02*
X123438699Y-42526309D01*
X123438699Y-42526309D02*
X123514889Y-42507261D01*
X123514889Y-42507261D02*
X123648223Y-42507261D01*
X123648223Y-42507261D02*
X123724413Y-42526309D01*
X123724413Y-42526309D02*
X123762509Y-42564404D01*
X123762509Y-42564404D02*
X123781556Y-42602499D01*
X123781556Y-42602499D02*
X123781556Y-42678690D01*
X123781556Y-42678690D02*
X123762509Y-42716785D01*
X123762509Y-42716785D02*
X123724413Y-42754880D01*
X123724413Y-42754880D02*
X123648223Y-42773928D01*
X123648223Y-42773928D02*
X123514889Y-42773928D01*
X123514889Y-42773928D02*
X123438699Y-42754880D01*
X123438699Y-42754880D02*
X123400604Y-42716785D01*
X123400604Y-42716785D02*
X123381556Y-42678690D01*
X123381556Y-42335832D02*
X123705366Y-42335832D01*
X123705366Y-42335832D02*
X123743461Y-42316785D01*
X123743461Y-42316785D02*
X123762509Y-42297737D01*
X123762509Y-42297737D02*
X123781556Y-42259642D01*
X123781556Y-42259642D02*
X123781556Y-42183451D01*
X123781556Y-42183451D02*
X123762509Y-42145356D01*
X123762509Y-42145356D02*
X123743461Y-42126309D01*
X123743461Y-42126309D02*
X123705366Y-42107261D01*
X123705366Y-42107261D02*
X123381556Y-42107261D01*
X123381556Y-41973927D02*
X123381556Y-41745356D01*
X123781556Y-41859642D02*
X123381556Y-41859642D01*
X156530293Y-109776164D02*
X156130293Y-109776164D01*
X156530293Y-109547593D02*
X156301722Y-109719022D01*
X156130293Y-109547593D02*
X156358865Y-109776164D01*
X156320769Y-109376164D02*
X156320769Y-109242831D01*
X156530293Y-109185688D02*
X156530293Y-109376164D01*
X156530293Y-109376164D02*
X156130293Y-109376164D01*
X156130293Y-109376164D02*
X156130293Y-109185688D01*
X156320769Y-109014259D02*
X156320769Y-108880926D01*
X156530293Y-108823783D02*
X156530293Y-109014259D01*
X156530293Y-109014259D02*
X156130293Y-109014259D01*
X156130293Y-109014259D02*
X156130293Y-108823783D01*
X156530293Y-108652354D02*
X156130293Y-108652354D01*
X156130293Y-108652354D02*
X156130293Y-108499973D01*
X156130293Y-108499973D02*
X156149341Y-108461878D01*
X156149341Y-108461878D02*
X156168388Y-108442831D01*
X156168388Y-108442831D02*
X156206484Y-108423783D01*
X156206484Y-108423783D02*
X156263626Y-108423783D01*
X156263626Y-108423783D02*
X156301722Y-108442831D01*
X156301722Y-108442831D02*
X156320769Y-108461878D01*
X156320769Y-108461878D02*
X156339817Y-108499973D01*
X156339817Y-108499973D02*
X156339817Y-108652354D01*
X156130293Y-108176164D02*
X156130293Y-108099973D01*
X156130293Y-108099973D02*
X156149341Y-108061878D01*
X156149341Y-108061878D02*
X156187436Y-108023783D01*
X156187436Y-108023783D02*
X156263626Y-108004735D01*
X156263626Y-108004735D02*
X156396960Y-108004735D01*
X156396960Y-108004735D02*
X156473150Y-108023783D01*
X156473150Y-108023783D02*
X156511246Y-108061878D01*
X156511246Y-108061878D02*
X156530293Y-108099973D01*
X156530293Y-108099973D02*
X156530293Y-108176164D01*
X156530293Y-108176164D02*
X156511246Y-108214259D01*
X156511246Y-108214259D02*
X156473150Y-108252354D01*
X156473150Y-108252354D02*
X156396960Y-108271402D01*
X156396960Y-108271402D02*
X156263626Y-108271402D01*
X156263626Y-108271402D02*
X156187436Y-108252354D01*
X156187436Y-108252354D02*
X156149341Y-108214259D01*
X156149341Y-108214259D02*
X156130293Y-108176164D01*
X156130293Y-107833306D02*
X156454103Y-107833306D01*
X156454103Y-107833306D02*
X156492198Y-107814259D01*
X156492198Y-107814259D02*
X156511246Y-107795211D01*
X156511246Y-107795211D02*
X156530293Y-107757116D01*
X156530293Y-107757116D02*
X156530293Y-107680925D01*
X156530293Y-107680925D02*
X156511246Y-107642830D01*
X156511246Y-107642830D02*
X156492198Y-107623783D01*
X156492198Y-107623783D02*
X156454103Y-107604735D01*
X156454103Y-107604735D02*
X156130293Y-107604735D01*
X156130293Y-107471401D02*
X156130293Y-107242830D01*
X156530293Y-107357116D02*
X156130293Y-107357116D01*
X156530293Y-77027427D02*
X156130293Y-77027427D01*
X156530293Y-76798856D02*
X156301722Y-76970285D01*
X156130293Y-76798856D02*
X156358865Y-77027427D01*
X156320769Y-76627427D02*
X156320769Y-76494094D01*
X156530293Y-76436951D02*
X156530293Y-76627427D01*
X156530293Y-76627427D02*
X156130293Y-76627427D01*
X156130293Y-76627427D02*
X156130293Y-76436951D01*
X156320769Y-76265522D02*
X156320769Y-76132189D01*
X156530293Y-76075046D02*
X156530293Y-76265522D01*
X156530293Y-76265522D02*
X156130293Y-76265522D01*
X156130293Y-76265522D02*
X156130293Y-76075046D01*
X156530293Y-75903617D02*
X156130293Y-75903617D01*
X156130293Y-75903617D02*
X156130293Y-75751236D01*
X156130293Y-75751236D02*
X156149341Y-75713141D01*
X156149341Y-75713141D02*
X156168388Y-75694094D01*
X156168388Y-75694094D02*
X156206484Y-75675046D01*
X156206484Y-75675046D02*
X156263626Y-75675046D01*
X156263626Y-75675046D02*
X156301722Y-75694094D01*
X156301722Y-75694094D02*
X156320769Y-75713141D01*
X156320769Y-75713141D02*
X156339817Y-75751236D01*
X156339817Y-75751236D02*
X156339817Y-75903617D01*
X156130293Y-75427427D02*
X156130293Y-75351236D01*
X156130293Y-75351236D02*
X156149341Y-75313141D01*
X156149341Y-75313141D02*
X156187436Y-75275046D01*
X156187436Y-75275046D02*
X156263626Y-75255998D01*
X156263626Y-75255998D02*
X156396960Y-75255998D01*
X156396960Y-75255998D02*
X156473150Y-75275046D01*
X156473150Y-75275046D02*
X156511246Y-75313141D01*
X156511246Y-75313141D02*
X156530293Y-75351236D01*
X156530293Y-75351236D02*
X156530293Y-75427427D01*
X156530293Y-75427427D02*
X156511246Y-75465522D01*
X156511246Y-75465522D02*
X156473150Y-75503617D01*
X156473150Y-75503617D02*
X156396960Y-75522665D01*
X156396960Y-75522665D02*
X156263626Y-75522665D01*
X156263626Y-75522665D02*
X156187436Y-75503617D01*
X156187436Y-75503617D02*
X156149341Y-75465522D01*
X156149341Y-75465522D02*
X156130293Y-75427427D01*
X156130293Y-75084569D02*
X156454103Y-75084569D01*
X156454103Y-75084569D02*
X156492198Y-75065522D01*
X156492198Y-75065522D02*
X156511246Y-75046474D01*
X156511246Y-75046474D02*
X156530293Y-75008379D01*
X156530293Y-75008379D02*
X156530293Y-74932188D01*
X156530293Y-74932188D02*
X156511246Y-74894093D01*
X156511246Y-74894093D02*
X156492198Y-74875046D01*
X156492198Y-74875046D02*
X156454103Y-74855998D01*
X156454103Y-74855998D02*
X156130293Y-74855998D01*
X156130293Y-74722664D02*
X156130293Y-74494093D01*
X156530293Y-74608379D02*
X156130293Y-74608379D01*
M02*
