%TF.GenerationSoftware,KiCad,Pcbnew,9.0.0-rc2-3baa6cd791~182~ubuntu24.04.1*%
%TF.CreationDate,2025-01-30T23:50:26-05:00*%
%TF.ProjectId,PCA20073_nRF54L15_Tiny_Board,50434132-3030-4373-935f-6e524635344c,rev?*%
%TF.SameCoordinates,Original*%
%TF.FileFunction,Glue,Top*%
%TF.FilePolarity,Positive*%
%FSLAX46Y46*%
G04 Gerber Fmt 4.6, Leading zero omitted, Abs format (unit mm)*
G04 Created by KiCad (PCBNEW 9.0.0-rc2-3baa6cd791~182~ubuntu24.04.1) date 2025-01-30 23:50:26*
%MOMM*%
%LPD*%
G01*
G04 APERTURE LIST*
%ADD10C,0.066667*%
%ADD11C,0.093333*%
%ADD12C,0.100000*%
G04 APERTURE END LIST*
D10*
%TO.C,Y1*%
X184431056Y-111489872D02*
G75*
G02*
X184337720Y-111489872I-46668J0D01*
G01*
X184337720Y-111489872D02*
G75*
G02*
X184431056Y-111489872I46668J0D01*
G01*
X184431056Y-111489872D02*
G75*
G02*
X184337720Y-111489872I-46668J0D01*
G01*
X184337720Y-111489872D02*
G75*
G02*
X184431056Y-111489872I46668J0D01*
G01*
D11*
X184431056Y-111489872D02*
G75*
G02*
X184337720Y-111489872I-46668J0D01*
G01*
X184337720Y-111489872D02*
G75*
G02*
X184431056Y-111489872I46668J0D01*
G01*
D12*
X184431056Y-111489872D02*
G75*
G02*
X184337720Y-111489872I-46668J0D01*
G01*
X184337720Y-111489872D02*
G75*
G02*
X184431056Y-111489872I46668J0D01*
G01*
D10*
X184431056Y-78741135D02*
G75*
G02*
X184337720Y-78741135I-46668J0D01*
G01*
X184337720Y-78741135D02*
G75*
G02*
X184431056Y-78741135I46668J0D01*
G01*
X184431056Y-78741135D02*
G75*
G02*
X184337720Y-78741135I-46668J0D01*
G01*
X184337720Y-78741135D02*
G75*
G02*
X184431056Y-78741135I46668J0D01*
G01*
D11*
X184431056Y-78741135D02*
G75*
G02*
X184337720Y-78741135I-46668J0D01*
G01*
X184337720Y-78741135D02*
G75*
G02*
X184431056Y-78741135I46668J0D01*
G01*
D12*
X184431056Y-78741135D02*
G75*
G02*
X184337720Y-78741135I-46668J0D01*
G01*
X184337720Y-78741135D02*
G75*
G02*
X184431056Y-78741135I46668J0D01*
G01*
D10*
X151682319Y-78741135D02*
G75*
G02*
X151588983Y-78741135I-46668J0D01*
G01*
X151588983Y-78741135D02*
G75*
G02*
X151682319Y-78741135I46668J0D01*
G01*
X151682319Y-78741135D02*
G75*
G02*
X151588983Y-78741135I-46668J0D01*
G01*
X151588983Y-78741135D02*
G75*
G02*
X151682319Y-78741135I46668J0D01*
G01*
D11*
X151682319Y-78741135D02*
G75*
G02*
X151588983Y-78741135I-46668J0D01*
G01*
X151588983Y-78741135D02*
G75*
G02*
X151682319Y-78741135I46668J0D01*
G01*
D12*
X151682319Y-78741135D02*
G75*
G02*
X151588983Y-78741135I-46668J0D01*
G01*
X151588983Y-78741135D02*
G75*
G02*
X151682319Y-78741135I46668J0D01*
G01*
D10*
X118933582Y-45992398D02*
G75*
G02*
X118840246Y-45992398I-46668J0D01*
G01*
X118840246Y-45992398D02*
G75*
G02*
X118933582Y-45992398I46668J0D01*
G01*
X118933582Y-45992398D02*
G75*
G02*
X118840246Y-45992398I-46668J0D01*
G01*
X118840246Y-45992398D02*
G75*
G02*
X118933582Y-45992398I46668J0D01*
G01*
D11*
X118933582Y-45992398D02*
G75*
G02*
X118840246Y-45992398I-46668J0D01*
G01*
X118840246Y-45992398D02*
G75*
G02*
X118933582Y-45992398I46668J0D01*
G01*
D12*
X118933582Y-45992398D02*
G75*
G02*
X118840246Y-45992398I-46668J0D01*
G01*
X118840246Y-45992398D02*
G75*
G02*
X118933582Y-45992398I46668J0D01*
G01*
D10*
X118933582Y-78741135D02*
G75*
G02*
X118840246Y-78741135I-46668J0D01*
G01*
X118840246Y-78741135D02*
G75*
G02*
X118933582Y-78741135I46668J0D01*
G01*
X118933582Y-78741135D02*
G75*
G02*
X118840246Y-78741135I-46668J0D01*
G01*
X118840246Y-78741135D02*
G75*
G02*
X118933582Y-78741135I46668J0D01*
G01*
D11*
X118933582Y-78741135D02*
G75*
G02*
X118840246Y-78741135I-46668J0D01*
G01*
X118840246Y-78741135D02*
G75*
G02*
X118933582Y-78741135I46668J0D01*
G01*
D12*
X118933582Y-78741135D02*
G75*
G02*
X118840246Y-78741135I-46668J0D01*
G01*
X118840246Y-78741135D02*
G75*
G02*
X118933582Y-78741135I46668J0D01*
G01*
D10*
X151682319Y-111489872D02*
G75*
G02*
X151588983Y-111489872I-46668J0D01*
G01*
X151588983Y-111489872D02*
G75*
G02*
X151682319Y-111489872I46668J0D01*
G01*
X151682319Y-111489872D02*
G75*
G02*
X151588983Y-111489872I-46668J0D01*
G01*
X151588983Y-111489872D02*
G75*
G02*
X151682319Y-111489872I46668J0D01*
G01*
D11*
X151682319Y-111489872D02*
G75*
G02*
X151588983Y-111489872I-46668J0D01*
G01*
X151588983Y-111489872D02*
G75*
G02*
X151682319Y-111489872I46668J0D01*
G01*
D12*
X151682319Y-111489872D02*
G75*
G02*
X151588983Y-111489872I-46668J0D01*
G01*
X151588983Y-111489872D02*
G75*
G02*
X151682319Y-111489872I46668J0D01*
G01*
D10*
X151682319Y-45992398D02*
G75*
G02*
X151588983Y-45992398I-46668J0D01*
G01*
X151588983Y-45992398D02*
G75*
G02*
X151682319Y-45992398I46668J0D01*
G01*
X151682319Y-45992398D02*
G75*
G02*
X151588983Y-45992398I-46668J0D01*
G01*
X151588983Y-45992398D02*
G75*
G02*
X151682319Y-45992398I46668J0D01*
G01*
D11*
X151682319Y-45992398D02*
G75*
G02*
X151588983Y-45992398I-46668J0D01*
G01*
X151588983Y-45992398D02*
G75*
G02*
X151682319Y-45992398I46668J0D01*
G01*
D12*
X151682319Y-45992398D02*
G75*
G02*
X151588983Y-45992398I-46668J0D01*
G01*
X151588983Y-45992398D02*
G75*
G02*
X151682319Y-45992398I46668J0D01*
G01*
D10*
X184431056Y-45992398D02*
G75*
G02*
X184337720Y-45992398I-46668J0D01*
G01*
X184337720Y-45992398D02*
G75*
G02*
X184431056Y-45992398I46668J0D01*
G01*
X184431056Y-45992398D02*
G75*
G02*
X184337720Y-45992398I-46668J0D01*
G01*
X184337720Y-45992398D02*
G75*
G02*
X184431056Y-45992398I46668J0D01*
G01*
D11*
X184431056Y-45992398D02*
G75*
G02*
X184337720Y-45992398I-46668J0D01*
G01*
X184337720Y-45992398D02*
G75*
G02*
X184431056Y-45992398I46668J0D01*
G01*
D12*
X184431056Y-45992398D02*
G75*
G02*
X184337720Y-45992398I-46668J0D01*
G01*
X184337720Y-45992398D02*
G75*
G02*
X184431056Y-45992398I46668J0D01*
G01*
D10*
X118933582Y-111489872D02*
G75*
G02*
X118840246Y-111489872I-46668J0D01*
G01*
X118840246Y-111489872D02*
G75*
G02*
X118933582Y-111489872I46668J0D01*
G01*
X118933582Y-111489872D02*
G75*
G02*
X118840246Y-111489872I-46668J0D01*
G01*
X118840246Y-111489872D02*
G75*
G02*
X118933582Y-111489872I46668J0D01*
G01*
D11*
X118933582Y-111489872D02*
G75*
G02*
X118840246Y-111489872I-46668J0D01*
G01*
X118840246Y-111489872D02*
G75*
G02*
X118933582Y-111489872I46668J0D01*
G01*
D12*
X118933582Y-111489872D02*
G75*
G02*
X118840246Y-111489872I-46668J0D01*
G01*
X118840246Y-111489872D02*
G75*
G02*
X118933582Y-111489872I46668J0D01*
G01*
%TD*%
M02*
