M48
; DRILL file {KiCad 9.0.0-rc2-3baa6cd791~182~ubuntu24.04.1} date 2025-01-30T23:50:59-0500
; FORMAT={-:-/ absolute / metric / decimal}
; #@! TF.CreationDate,2025-01-30T23:50:59-05:00
; #@! TF.GenerationSoftware,Kicad,Pcbnew,9.0.0-rc2-3baa6cd791~182~ubuntu24.04.1
; #@! TF.FileFunction,MixedPlating,1,4
FMAT,2
METRIC
; #@! TA.AperFunction,Plated,PTH,ViaDrill
T1C0.150
; #@! TA.AperFunction,Plated,PTH,ViaDrill
T2C0.300
; #@! TA.AperFunction,NonPlated,NPTH,ComponentDrill
T3C0.500
; #@! TA.AperFunction,NonPlated,NPTH,ComponentDrill
T4C0.991
; #@! TA.AperFunction,NonPlated,NPTH,ComponentDrill
T5C1.500
%
G90
G05
T1
X106.205Y-38.657
X106.205Y-41.485
X106.205Y-49.263
X106.205Y-71.405
X106.205Y-74.234
X106.205Y-82.012
X106.205Y-104.154
X106.205Y-106.982
X106.205Y-114.761
X106.311Y-54.248
X106.311Y-86.997
X106.311Y-119.746
X107.136Y-45.019
X107.136Y-46.369
X107.136Y-77.767
X107.136Y-79.117
X107.136Y-110.516
X107.136Y-111.866
X107.62Y-40.071
X107.62Y-72.819
X107.62Y-105.568
X107.925Y-43.055
X107.925Y-75.803
X107.925Y-108.552
X107.966Y-49.737
X107.966Y-82.486
X107.966Y-115.234
X108.036Y-45.019
X108.036Y-46.369
X108.036Y-77.767
X108.036Y-79.117
X108.036Y-110.516
X108.036Y-111.866
X108.419Y-49.284
X108.419Y-82.033
X108.419Y-114.782
X108.716Y-50.501
X108.716Y-83.249
X108.716Y-115.998
X109.034Y-35.828
X109.034Y-38.657
X109.034Y-41.485
X109.034Y-68.577
X109.034Y-71.405
X109.034Y-74.234
X109.034Y-101.326
X109.034Y-104.154
X109.034Y-106.982
X109.656Y-48.386
X109.656Y-81.135
X109.656Y-113.884
X110.059Y-51.844
X110.059Y-84.593
X110.059Y-117.342
X110.377Y-47.665
X110.377Y-80.414
X110.377Y-113.163
X110.448Y-37.242
X110.448Y-40.071
X110.448Y-69.991
X110.448Y-72.819
X110.448Y-102.74
X110.448Y-105.568
X110.766Y-52.551
X110.766Y-85.3
X110.766Y-118.049
X111.049Y-46.223
X111.049Y-78.971
X111.049Y-111.72
X111.155Y-54.213
X111.155Y-86.962
X111.155Y-119.71
X111.862Y-38.657
X111.862Y-71.405
X111.862Y-104.154
X112.308Y-44.518
X112.308Y-77.267
X112.308Y-110.016
X112.419Y-40.928
X112.419Y-73.677
X112.419Y-106.426
X112.569Y-47.849
X112.569Y-49.263
X112.569Y-80.598
X112.569Y-82.012
X112.569Y-113.346
X112.569Y-114.761
X112.612Y-38.43
X112.612Y-71.179
X112.612Y-103.928
X112.636Y-46.261
X112.636Y-79.01
X112.636Y-111.759
X112.958Y-42.581
X112.958Y-75.33
X112.958Y-108.078
X113.503Y-38.835
X113.503Y-71.584
X113.503Y-104.333
X113.545Y-51.809
X113.545Y-84.557
X113.545Y-117.306
X113.588Y-50.861
X113.588Y-83.61
X113.588Y-116.359
X113.63Y-53.859
X113.63Y-86.608
X113.63Y-119.357
X113.784Y-36.217
X113.784Y-68.966
X113.784Y-101.714
X114.04Y-51.314
X114.04Y-84.062
X114.04Y-116.811
X114.483Y-37.699
X114.483Y-70.448
X114.483Y-103.197
X114.634Y-39.519
X114.634Y-72.268
X114.634Y-105.017
X114.648Y-38.809
X114.648Y-71.558
X114.648Y-104.307
X115.143Y-39.533
X115.143Y-72.282
X115.143Y-105.031
X115.648Y-38.809
X115.648Y-71.558
X115.648Y-104.307
X115.986Y-36.238
X115.986Y-68.987
X115.986Y-101.736
X116.148Y-37.089
X116.148Y-69.838
X116.148Y-102.587
X116.312Y-37.699
X116.312Y-70.448
X116.312Y-103.197
X116.762Y-51.561
X116.762Y-84.31
X116.762Y-117.059
X116.932Y-40.615
X116.932Y-73.364
X116.932Y-106.113
X117.003Y-47.418
X117.003Y-49.779
X117.003Y-80.166
X117.003Y-82.528
X117.003Y-112.915
X117.003Y-115.277
X117.059Y-38.692
X117.059Y-71.441
X117.059Y-104.189
X117.165Y-53.859
X117.165Y-86.608
X117.165Y-119.357
X117.399Y-41.068
X117.399Y-73.817
X117.399Y-106.565
X117.995Y-47.816
X117.995Y-80.565
X117.995Y-113.314
X118.087Y-48.941
X118.087Y-81.689
X118.087Y-114.438
X118.198Y-47.114
X118.198Y-79.862
X118.198Y-112.611
X118.226Y-39.364
X118.226Y-72.112
X118.226Y-104.861
X118.533Y-51.366
X118.533Y-84.115
X118.533Y-116.863
X118.597Y-46.284
X118.597Y-79.033
X118.597Y-111.782
X118.792Y-39.505
X118.792Y-72.254
X118.792Y-105.003
X118.799Y-47.092
X118.799Y-79.841
X118.799Y-112.59
X118.83Y-50.178
X118.83Y-82.927
X118.83Y-115.675
X118.933Y-41.485
X118.933Y-74.234
X118.933Y-106.982
X119.042Y-50.871
X119.042Y-83.62
X119.042Y-116.368
X119.047Y-48.326
X119.047Y-81.075
X119.047Y-113.824
X119.167Y-51.448
X119.167Y-84.197
X119.167Y-116.946
X119.179Y-45.701
X119.179Y-78.449
X119.179Y-111.198
X119.471Y-47.478
X119.471Y-80.227
X119.471Y-112.976
X119.471Y-47.902
X119.471Y-49.175
X119.471Y-80.651
X119.471Y-81.924
X119.471Y-113.4
X119.471Y-114.672
X119.472Y-48.327
X119.472Y-81.076
X119.472Y-113.824
X119.527Y-47.015
X119.527Y-79.763
X119.527Y-112.512
X119.53Y-50.383
X119.53Y-83.132
X119.53Y-115.881
X119.57Y-51.823
X119.57Y-84.572
X119.57Y-117.32
X119.676Y-36.429
X119.676Y-69.178
X119.676Y-101.927
X119.894Y-49.174
X119.894Y-81.923
X119.894Y-114.672
X119.896Y-48.751
X119.896Y-81.499
X119.896Y-114.248
X120.093Y-46.817
X120.093Y-79.565
X120.093Y-112.314
X120.256Y-49.666
X120.256Y-82.415
X120.256Y-115.164
X120.32Y-48.326
X120.32Y-48.751
X120.32Y-81.075
X120.32Y-81.499
X120.32Y-113.824
X120.32Y-114.248
X120.34Y-51.689
X120.34Y-84.437
X120.34Y-117.186
X120.454Y-46.145
X120.454Y-78.894
X120.454Y-111.642
X120.616Y-49.815
X120.616Y-82.563
X120.616Y-115.312
X120.701Y-53.859
X120.701Y-86.608
X120.701Y-119.357
X120.744Y-48.326
X120.744Y-81.075
X120.744Y-113.824
X120.989Y-46.995
X120.989Y-79.744
X120.989Y-112.492
X121.055Y-36.535
X121.055Y-52.092
X121.055Y-69.284
X121.055Y-84.84
X121.055Y-102.033
X121.055Y-117.589
X121.409Y-47.481
X121.409Y-80.229
X121.409Y-112.978
X121.422Y-44.766
X121.422Y-77.515
X121.422Y-110.263
X121.592Y-50.946
X121.592Y-83.695
X121.592Y-116.444
X121.762Y-52.799
X121.762Y-85.547
X121.762Y-118.296
X121.832Y-38.586
X121.832Y-71.335
X121.832Y-104.083
X122.045Y-41.768
X122.045Y-74.517
X122.045Y-107.265
X122.292Y-44.306
X122.292Y-77.055
X122.292Y-109.804
X122.455Y-43.748
X122.455Y-76.496
X122.455Y-109.245
X122.469Y-37.949
X122.469Y-40.778
X122.469Y-49.263
X122.469Y-53.506
X122.469Y-70.698
X122.469Y-73.527
X122.469Y-82.012
X122.469Y-86.255
X122.469Y-103.447
X122.469Y-106.275
X122.469Y-114.761
X122.469Y-119.003
X122.865Y-52.219
X122.865Y-84.968
X122.865Y-117.716
X123.098Y-46.272
X123.098Y-79.021
X123.098Y-111.77
X123.119Y-46.958
X123.119Y-79.707
X123.119Y-112.455
X123.176Y-49.97
X123.176Y-82.719
X123.176Y-115.468
X123.296Y-53.697
X123.296Y-86.445
X123.296Y-119.194
X123.883Y-39.364
X123.883Y-47.849
X123.883Y-50.677
X123.883Y-72.112
X123.883Y-80.598
X123.883Y-83.426
X123.883Y-104.861
X123.883Y-113.346
X123.883Y-116.175
X124.59Y-48.556
X124.59Y-51.384
X124.59Y-81.305
X124.59Y-84.133
X124.59Y-114.054
X124.59Y-116.882
X124.93Y-43.041
X124.93Y-75.789
X124.93Y-108.538
X124.986Y-41.768
X124.986Y-74.517
X124.986Y-107.265
X125.297Y-49.263
X125.297Y-82.012
X125.297Y-114.761
X138.954Y-38.657
X138.954Y-41.485
X138.954Y-49.263
X138.954Y-71.405
X138.954Y-74.234
X138.954Y-82.012
X138.954Y-104.154
X138.954Y-106.982
X138.954Y-114.761
X139.06Y-54.248
X139.06Y-86.997
X139.06Y-119.746
X139.884Y-45.019
X139.884Y-46.369
X139.884Y-77.767
X139.884Y-79.117
X139.884Y-110.516
X139.884Y-111.866
X140.368Y-40.071
X140.368Y-72.819
X140.368Y-105.568
X140.674Y-43.055
X140.674Y-75.803
X140.674Y-108.552
X140.715Y-49.737
X140.715Y-82.486
X140.715Y-115.234
X140.784Y-45.019
X140.784Y-46.369
X140.784Y-77.767
X140.784Y-79.117
X140.784Y-110.516
X140.784Y-111.866
X141.167Y-49.284
X141.167Y-82.033
X141.167Y-114.782
X141.464Y-50.501
X141.464Y-83.249
X141.464Y-115.998
X141.782Y-35.828
X141.782Y-38.657
X141.782Y-41.485
X141.782Y-68.577
X141.782Y-71.405
X141.782Y-74.234
X141.782Y-101.326
X141.782Y-104.154
X141.782Y-106.982
X142.405Y-48.386
X142.405Y-81.135
X142.405Y-113.884
X142.808Y-51.844
X142.808Y-84.593
X142.808Y-117.342
X143.126Y-47.665
X143.126Y-80.414
X143.126Y-113.163
X143.197Y-37.242
X143.197Y-40.071
X143.197Y-69.991
X143.197Y-72.819
X143.197Y-102.74
X143.197Y-105.568
X143.515Y-52.551
X143.515Y-85.3
X143.515Y-118.049
X143.798Y-46.223
X143.798Y-78.971
X143.798Y-111.72
X143.904Y-54.213
X143.904Y-86.962
X143.904Y-119.71
X144.611Y-38.657
X144.611Y-71.405
X144.611Y-104.154
X145.056Y-44.518
X145.056Y-77.267
X145.056Y-110.016
X145.168Y-40.928
X145.168Y-73.677
X145.168Y-106.426
X145.318Y-47.849
X145.318Y-49.263
X145.318Y-80.598
X145.318Y-82.012
X145.318Y-113.346
X145.318Y-114.761
X145.36Y-38.43
X145.36Y-71.179
X145.36Y-103.928
X145.385Y-46.261
X145.385Y-79.01
X145.385Y-111.759
X145.707Y-42.581
X145.707Y-75.33
X145.707Y-108.078
X146.251Y-38.835
X146.251Y-71.584
X146.251Y-104.333
X146.294Y-51.809
X146.294Y-84.557
X146.294Y-117.306
X146.336Y-50.861
X146.336Y-83.61
X146.336Y-116.359
X146.379Y-53.859
X146.379Y-86.608
X146.379Y-119.357
X146.532Y-36.217
X146.532Y-68.966
X146.532Y-101.714
X146.789Y-51.314
X146.789Y-84.062
X146.789Y-116.811
X147.232Y-37.699
X147.232Y-70.448
X147.232Y-103.197
X147.383Y-39.519
X147.383Y-72.268
X147.383Y-105.017
X147.396Y-38.809
X147.396Y-71.558
X147.396Y-104.307
X147.892Y-39.533
X147.892Y-72.282
X147.892Y-105.031
X148.396Y-38.809
X148.396Y-71.558
X148.396Y-104.307
X148.735Y-36.238
X148.735Y-68.987
X148.735Y-101.736
X148.896Y-37.089
X148.896Y-69.838
X148.896Y-102.587
X149.061Y-37.699
X149.061Y-70.448
X149.061Y-103.197
X149.511Y-51.561
X149.511Y-84.31
X149.511Y-117.059
X149.681Y-40.615
X149.681Y-73.364
X149.681Y-106.113
X149.752Y-47.418
X149.752Y-49.779
X149.752Y-80.166
X149.752Y-82.528
X149.752Y-112.915
X149.752Y-115.277
X149.808Y-38.692
X149.808Y-71.441
X149.808Y-104.189
X149.914Y-53.859
X149.914Y-86.608
X149.914Y-119.357
X150.148Y-41.068
X150.148Y-73.817
X150.148Y-106.565
X150.744Y-47.816
X150.744Y-80.565
X150.744Y-113.314
X150.836Y-48.941
X150.836Y-81.689
X150.836Y-114.438
X150.947Y-47.114
X150.947Y-79.862
X150.947Y-112.611
X150.975Y-39.364
X150.975Y-72.112
X150.975Y-104.861
X151.282Y-51.366
X151.282Y-84.115
X151.282Y-116.863
X151.346Y-46.284
X151.346Y-79.033
X151.346Y-111.782
X151.541Y-39.505
X151.541Y-72.254
X151.541Y-105.003
X151.548Y-47.092
X151.548Y-79.841
X151.548Y-112.59
X151.579Y-50.178
X151.579Y-82.927
X151.579Y-115.675
X151.682Y-41.485
X151.682Y-74.234
X151.682Y-106.982
X151.791Y-50.871
X151.791Y-83.62
X151.791Y-116.368
X151.796Y-48.326
X151.796Y-81.075
X151.796Y-113.824
X151.915Y-51.448
X151.915Y-84.197
X151.915Y-116.946
X151.927Y-45.701
X151.927Y-78.449
X151.927Y-111.198
X152.22Y-47.478
X152.22Y-80.227
X152.22Y-112.976
X152.22Y-47.902
X152.22Y-49.175
X152.22Y-80.651
X152.22Y-81.924
X152.22Y-113.4
X152.22Y-114.672
X152.221Y-48.327
X152.221Y-81.076
X152.221Y-113.824
X152.276Y-47.015
X152.276Y-79.763
X152.276Y-112.512
X152.279Y-50.383
X152.279Y-83.132
X152.279Y-115.881
X152.318Y-51.823
X152.318Y-84.572
X152.318Y-117.32
X152.424Y-36.429
X152.424Y-69.178
X152.424Y-101.927
X152.643Y-49.174
X152.643Y-81.923
X152.643Y-114.672
X152.644Y-48.751
X152.644Y-81.499
X152.644Y-114.248
X152.842Y-46.817
X152.842Y-79.565
X152.842Y-112.314
X153.004Y-49.666
X153.004Y-82.415
X153.004Y-115.164
X153.069Y-48.326
X153.069Y-48.751
X153.069Y-81.075
X153.069Y-81.499
X153.069Y-113.824
X153.069Y-114.248
X153.089Y-51.689
X153.089Y-84.437
X153.089Y-117.186
X153.202Y-46.145
X153.202Y-78.894
X153.202Y-111.642
X153.365Y-49.815
X153.365Y-82.563
X153.365Y-115.312
X153.45Y-53.859
X153.45Y-86.608
X153.45Y-119.357
X153.493Y-48.326
X153.493Y-81.075
X153.493Y-113.824
X153.738Y-46.995
X153.738Y-79.744
X153.738Y-112.492
X153.803Y-36.535
X153.803Y-52.092
X153.803Y-69.284
X153.803Y-84.84
X153.803Y-102.033
X153.803Y-117.589
X154.157Y-47.481
X154.157Y-80.229
X154.157Y-112.978
X154.171Y-44.766
X154.171Y-77.515
X154.171Y-110.263
X154.341Y-50.946
X154.341Y-83.695
X154.341Y-116.444
X154.51Y-52.799
X154.51Y-85.547
X154.51Y-118.296
X154.581Y-38.586
X154.581Y-71.335
X154.581Y-104.083
X154.793Y-41.768
X154.793Y-74.517
X154.793Y-107.265
X155.041Y-44.306
X155.041Y-77.055
X155.041Y-109.804
X155.203Y-43.748
X155.203Y-76.496
X155.203Y-109.245
X155.218Y-37.949
X155.218Y-40.778
X155.218Y-49.263
X155.218Y-53.506
X155.218Y-70.698
X155.218Y-73.527
X155.218Y-82.012
X155.218Y-86.255
X155.218Y-103.447
X155.218Y-106.275
X155.218Y-114.761
X155.218Y-119.003
X155.613Y-52.219
X155.613Y-84.968
X155.613Y-117.716
X155.847Y-46.272
X155.847Y-79.021
X155.847Y-111.77
X155.868Y-46.958
X155.868Y-79.707
X155.868Y-112.455
X155.925Y-49.97
X155.925Y-82.719
X155.925Y-115.468
X156.045Y-53.697
X156.045Y-86.445
X156.045Y-119.194
X156.632Y-39.364
X156.632Y-47.849
X156.632Y-50.677
X156.632Y-72.112
X156.632Y-80.598
X156.632Y-83.426
X156.632Y-104.861
X156.632Y-113.346
X156.632Y-116.175
X157.339Y-48.556
X157.339Y-51.384
X157.339Y-81.305
X157.339Y-84.133
X157.339Y-114.054
X157.339Y-116.882
X157.678Y-43.041
X157.678Y-75.789
X157.678Y-108.538
X157.735Y-41.768
X157.735Y-74.517
X157.735Y-107.265
X158.046Y-49.263
X158.046Y-82.012
X158.046Y-114.761
X171.703Y-38.657
X171.703Y-41.485
X171.703Y-49.263
X171.703Y-71.405
X171.703Y-74.234
X171.703Y-82.012
X171.703Y-104.154
X171.703Y-106.982
X171.703Y-114.761
X171.809Y-54.248
X171.809Y-86.997
X171.809Y-119.746
X172.633Y-45.019
X172.633Y-46.369
X172.633Y-77.767
X172.633Y-79.117
X172.633Y-110.516
X172.633Y-111.866
X173.117Y-40.071
X173.117Y-72.819
X173.117Y-105.568
X173.423Y-43.055
X173.423Y-75.803
X173.423Y-108.552
X173.463Y-49.737
X173.463Y-82.486
X173.463Y-115.234
X173.533Y-45.019
X173.533Y-46.369
X173.533Y-77.767
X173.533Y-79.117
X173.533Y-110.516
X173.533Y-111.866
X173.916Y-49.284
X173.916Y-82.033
X173.916Y-114.782
X174.213Y-50.501
X174.213Y-83.249
X174.213Y-115.998
X174.531Y-35.828
X174.531Y-38.657
X174.531Y-41.485
X174.531Y-68.577
X174.531Y-71.405
X174.531Y-74.234
X174.531Y-101.326
X174.531Y-104.154
X174.531Y-106.982
X175.153Y-48.386
X175.153Y-81.135
X175.153Y-113.884
X175.557Y-51.844
X175.557Y-84.593
X175.557Y-117.342
X175.875Y-47.665
X175.875Y-80.414
X175.875Y-113.163
X175.945Y-37.242
X175.945Y-40.071
X175.945Y-69.991
X175.945Y-72.819
X175.945Y-102.74
X175.945Y-105.568
X176.264Y-52.551
X176.264Y-85.3
X176.264Y-118.049
X176.546Y-46.223
X176.546Y-78.971
X176.546Y-111.72
X176.653Y-54.213
X176.653Y-86.962
X176.653Y-119.71
X177.36Y-38.657
X177.36Y-71.405
X177.36Y-104.154
X177.805Y-44.518
X177.805Y-77.267
X177.805Y-110.016
X177.916Y-40.928
X177.916Y-73.677
X177.916Y-106.426
X178.067Y-47.849
X178.067Y-49.263
X178.067Y-80.598
X178.067Y-82.012
X178.067Y-113.346
X178.067Y-114.761
X178.109Y-38.43
X178.109Y-71.179
X178.109Y-103.928
X178.134Y-46.261
X178.134Y-79.01
X178.134Y-111.759
X178.456Y-42.581
X178.456Y-75.33
X178.456Y-108.078
X179.0Y-38.835
X179.0Y-71.584
X179.0Y-104.333
X179.043Y-51.809
X179.043Y-84.557
X179.043Y-117.306
X179.085Y-50.861
X179.085Y-83.61
X179.085Y-116.359
X179.127Y-53.859
X179.127Y-86.608
X179.127Y-119.357
X179.281Y-36.217
X179.281Y-68.966
X179.281Y-101.714
X179.538Y-51.314
X179.538Y-84.062
X179.538Y-116.811
X179.981Y-37.699
X179.981Y-70.448
X179.981Y-103.197
X180.132Y-39.519
X180.132Y-72.268
X180.132Y-105.017
X180.145Y-38.809
X180.145Y-71.558
X180.145Y-104.307
X180.641Y-39.533
X180.641Y-72.282
X180.641Y-105.031
X181.145Y-38.809
X181.145Y-71.558
X181.145Y-104.307
X181.484Y-36.238
X181.484Y-68.987
X181.484Y-101.736
X181.645Y-37.089
X181.645Y-69.838
X181.645Y-102.587
X181.81Y-37.699
X181.81Y-70.448
X181.81Y-103.197
X182.26Y-51.561
X182.26Y-84.31
X182.26Y-117.059
X182.43Y-40.615
X182.43Y-73.364
X182.43Y-106.113
X182.5Y-47.418
X182.5Y-49.779
X182.5Y-80.166
X182.5Y-82.528
X182.5Y-112.915
X182.5Y-115.277
X182.557Y-38.692
X182.557Y-71.441
X182.557Y-104.189
X182.663Y-53.859
X182.663Y-86.608
X182.663Y-119.357
X182.896Y-41.068
X182.896Y-73.817
X182.896Y-106.565
X183.493Y-47.816
X183.493Y-80.565
X183.493Y-113.314
X183.585Y-48.941
X183.585Y-81.689
X183.585Y-114.438
X183.695Y-47.114
X183.695Y-79.862
X183.695Y-112.611
X183.724Y-39.364
X183.724Y-72.112
X183.724Y-104.861
X184.03Y-51.366
X184.03Y-84.115
X184.03Y-116.863
X184.095Y-46.284
X184.095Y-79.033
X184.095Y-111.782
X184.289Y-39.505
X184.289Y-72.254
X184.289Y-105.003
X184.296Y-47.092
X184.296Y-79.841
X184.296Y-112.59
X184.327Y-50.178
X184.327Y-82.927
X184.327Y-115.675
X184.431Y-41.485
X184.431Y-74.234
X184.431Y-106.982
X184.539Y-50.871
X184.539Y-83.62
X184.539Y-116.368
X184.545Y-48.326
X184.545Y-81.075
X184.545Y-113.824
X184.664Y-51.448
X184.664Y-84.197
X184.664Y-116.946
X184.676Y-45.701
X184.676Y-78.449
X184.676Y-111.198
X184.968Y-47.478
X184.968Y-80.227
X184.968Y-112.976
X184.969Y-47.902
X184.969Y-49.175
X184.969Y-80.651
X184.969Y-81.924
X184.969Y-113.4
X184.969Y-114.672
X184.969Y-48.327
X184.969Y-81.076
X184.969Y-113.824
X185.025Y-47.015
X185.025Y-79.763
X185.025Y-112.512
X185.027Y-50.383
X185.027Y-83.132
X185.027Y-115.881
X185.067Y-51.823
X185.067Y-84.572
X185.067Y-117.32
X185.173Y-36.429
X185.173Y-69.178
X185.173Y-101.927
X185.392Y-49.174
X185.392Y-81.923
X185.392Y-114.672
X185.393Y-48.751
X185.393Y-81.499
X185.393Y-114.248
X185.59Y-46.817
X185.59Y-79.565
X185.59Y-112.314
X185.753Y-49.666
X185.753Y-82.415
X185.753Y-115.164
X185.817Y-48.326
X185.817Y-48.751
X185.817Y-81.075
X185.817Y-81.499
X185.817Y-113.824
X185.817Y-114.248
X185.838Y-51.689
X185.838Y-84.437
X185.838Y-117.186
X185.951Y-46.145
X185.951Y-78.894
X185.951Y-111.642
X186.114Y-49.815
X186.114Y-82.563
X186.114Y-115.312
X186.198Y-53.859
X186.198Y-86.608
X186.198Y-119.357
X186.242Y-48.326
X186.242Y-81.075
X186.242Y-113.824
X186.487Y-46.995
X186.487Y-79.744
X186.487Y-112.492
X186.552Y-36.535
X186.552Y-52.092
X186.552Y-69.284
X186.552Y-84.84
X186.552Y-102.033
X186.552Y-117.589
X186.906Y-47.481
X186.906Y-80.229
X186.906Y-112.978
X186.92Y-44.766
X186.92Y-77.515
X186.92Y-110.263
X187.089Y-50.946
X187.089Y-83.695
X187.089Y-116.444
X187.259Y-52.799
X187.259Y-85.547
X187.259Y-118.296
X187.33Y-38.586
X187.33Y-71.335
X187.33Y-104.083
X187.542Y-41.768
X187.542Y-74.517
X187.542Y-107.265
X187.789Y-44.306
X187.789Y-77.055
X187.789Y-109.804
X187.952Y-43.748
X187.952Y-76.496
X187.952Y-109.245
X187.966Y-37.949
X187.966Y-40.778
X187.966Y-49.263
X187.966Y-53.506
X187.966Y-70.698
X187.966Y-73.527
X187.966Y-82.012
X187.966Y-86.255
X187.966Y-103.447
X187.966Y-106.275
X187.966Y-114.761
X187.966Y-119.003
X188.362Y-52.219
X188.362Y-84.968
X188.362Y-117.716
X188.596Y-46.272
X188.596Y-79.021
X188.596Y-111.77
X188.617Y-46.958
X188.617Y-79.707
X188.617Y-112.455
X188.673Y-49.97
X188.673Y-82.719
X188.673Y-115.468
X188.794Y-53.697
X188.794Y-86.445
X188.794Y-119.194
X189.38Y-39.364
X189.38Y-47.849
X189.38Y-50.677
X189.38Y-72.112
X189.38Y-80.598
X189.38Y-83.426
X189.38Y-104.861
X189.38Y-113.346
X189.38Y-116.175
X190.088Y-48.556
X190.088Y-51.384
X190.088Y-81.305
X190.088Y-84.133
X190.088Y-114.054
X190.088Y-116.882
X190.427Y-43.041
X190.427Y-75.789
X190.427Y-108.538
X190.484Y-41.768
X190.484Y-74.517
X190.484Y-107.265
X190.795Y-49.263
X190.795Y-82.012
X190.795Y-114.761
T2
X115.398Y-45.02
X115.398Y-77.769
X115.398Y-110.518
X148.146Y-45.02
X148.146Y-77.769
X148.146Y-110.518
X180.895Y-45.02
X180.895Y-77.769
X180.895Y-110.518
T3
X105.284Y-43.124
X105.284Y-44.249
X105.284Y-45.374
X105.284Y-46.499
X105.284Y-47.624
X105.284Y-75.873
X105.284Y-76.998
X105.284Y-78.123
X105.284Y-79.248
X105.284Y-80.373
X105.284Y-108.622
X105.284Y-109.747
X105.284Y-110.872
X105.284Y-111.997
X105.284Y-113.122
X113.501Y-34.907
X113.501Y-67.656
X113.501Y-100.404
X113.501Y-55.427
X113.501Y-88.176
X113.501Y-120.925
X114.626Y-34.907
X114.626Y-67.656
X114.626Y-100.404
X114.626Y-55.427
X114.626Y-88.176
X114.626Y-120.925
X115.751Y-34.907
X115.751Y-67.656
X115.751Y-100.404
X115.751Y-55.427
X115.751Y-88.176
X115.751Y-120.925
X116.876Y-34.907
X116.876Y-67.656
X116.876Y-100.404
X116.876Y-55.427
X116.876Y-88.176
X116.876Y-120.925
X118.001Y-34.907
X118.001Y-67.656
X118.001Y-100.404
X118.001Y-55.427
X118.001Y-88.176
X118.001Y-120.925
X125.804Y-43.124
X125.804Y-44.249
X125.804Y-45.374
X125.804Y-46.499
X125.804Y-47.624
X125.804Y-75.873
X125.804Y-76.998
X125.804Y-78.123
X125.804Y-79.248
X125.804Y-80.373
X125.804Y-108.622
X125.804Y-109.747
X125.804Y-110.872
X125.804Y-111.997
X125.804Y-113.122
X138.033Y-43.124
X138.033Y-44.249
X138.033Y-45.374
X138.033Y-46.499
X138.033Y-47.624
X138.033Y-75.873
X138.033Y-76.998
X138.033Y-78.123
X138.033Y-79.248
X138.033Y-80.373
X138.033Y-108.622
X138.033Y-109.747
X138.033Y-110.872
X138.033Y-111.997
X138.033Y-113.122
X146.25Y-34.907
X146.25Y-67.656
X146.25Y-100.404
X146.25Y-55.427
X146.25Y-88.176
X146.25Y-120.925
X147.375Y-34.907
X147.375Y-67.656
X147.375Y-100.404
X147.375Y-55.427
X147.375Y-88.176
X147.375Y-120.925
X148.5Y-34.907
X148.5Y-67.656
X148.5Y-100.404
X148.5Y-55.427
X148.5Y-88.176
X148.5Y-120.925
X149.625Y-34.907
X149.625Y-67.656
X149.625Y-100.404
X149.625Y-55.427
X149.625Y-88.176
X149.625Y-120.925
X150.75Y-34.907
X150.75Y-67.656
X150.75Y-100.404
X150.75Y-55.427
X150.75Y-88.176
X150.75Y-120.925
X158.553Y-43.124
X158.553Y-44.249
X158.553Y-45.374
X158.553Y-46.499
X158.553Y-47.624
X158.553Y-75.873
X158.553Y-76.998
X158.553Y-78.123
X158.553Y-79.248
X158.553Y-80.373
X158.553Y-108.622
X158.553Y-109.747
X158.553Y-110.872
X158.553Y-111.997
X158.553Y-113.122
X170.781Y-43.124
X170.781Y-44.249
X170.781Y-45.374
X170.781Y-46.499
X170.781Y-47.624
X170.781Y-75.873
X170.781Y-76.998
X170.781Y-78.123
X170.781Y-79.248
X170.781Y-80.373
X170.781Y-108.622
X170.781Y-109.747
X170.781Y-110.872
X170.781Y-111.997
X170.781Y-113.122
X178.999Y-34.907
X178.999Y-67.656
X178.999Y-100.404
X178.999Y-55.427
X178.999Y-88.176
X178.999Y-120.925
X180.124Y-34.907
X180.124Y-67.656
X180.124Y-100.404
X180.124Y-55.427
X180.124Y-88.176
X180.124Y-120.925
X181.249Y-34.907
X181.249Y-67.656
X181.249Y-100.404
X181.249Y-55.427
X181.249Y-88.176
X181.249Y-120.925
X182.374Y-34.907
X182.374Y-67.656
X182.374Y-100.404
X182.374Y-55.427
X182.374Y-88.176
X182.374Y-120.925
X183.499Y-34.907
X183.499Y-67.656
X183.499Y-100.404
X183.499Y-55.427
X183.499Y-88.176
X183.499Y-120.925
X191.302Y-43.124
X191.302Y-44.249
X191.302Y-45.374
X191.302Y-46.499
X191.302Y-47.624
X191.302Y-75.873
X191.302Y-76.998
X191.302Y-78.123
X191.302Y-79.248
X191.302Y-80.373
X191.302Y-108.622
X191.302Y-109.747
X191.302Y-110.872
X191.302Y-111.997
X191.302Y-113.122
T4
X122.584Y-45.581
X122.584Y-78.329
X122.584Y-111.078
X123.6Y-40.501
X123.6Y-73.249
X123.6Y-105.998
X124.616Y-45.581
X124.616Y-78.329
X124.616Y-111.078
X155.333Y-45.581
X155.333Y-78.329
X155.333Y-111.078
X156.349Y-40.501
X156.349Y-73.249
X156.349Y-105.998
X157.365Y-45.581
X157.365Y-78.329
X157.365Y-111.078
X188.082Y-45.581
X188.082Y-78.329
X188.082Y-111.078
X189.098Y-40.501
X189.098Y-73.249
X189.098Y-105.998
X190.114Y-45.581
X190.114Y-78.329
X190.114Y-111.078
T5
X97.877Y-25.0
X97.877Y-131.246
X199.123Y-25.0
M30
