%TF.GenerationSoftware,KiCad,Pcbnew,9.0.0-rc2-3baa6cd791~182~ubuntu24.04.1*%
%TF.CreationDate,2025-01-30T23:50:26-05:00*%
%TF.ProjectId,PCA20073_nRF54L15_Tiny_Board,50434132-3030-4373-935f-6e524635344c,rev?*%
%TF.SameCoordinates,Original*%
%TF.FileFunction,Other,User*%
%FSLAX46Y46*%
G04 Gerber Fmt 4.6, Leading zero omitted, Abs format (unit mm)*
G04 Created by KiCad (PCBNEW 9.0.0-rc2-3baa6cd791~182~ubuntu24.04.1) date 2025-01-30 23:50:26*
%MOMM*%
%LPD*%
G01*
G04 APERTURE LIST*
%ADD10C,0.050000*%
G04 APERTURE END LIST*
D10*
%TO.C,C4*%
X140198567Y-49758109D02*
X141188516Y-48768160D01*
X140693542Y-50253084D02*
X140198567Y-49758109D01*
X141188516Y-48768160D02*
X141683491Y-49263135D01*
X141683491Y-49263135D02*
X140693542Y-50253084D01*
%TO.C,U2*%
X140014719Y-116528376D02*
X142277460Y-118791117D01*
X141994618Y-114548477D02*
X140014719Y-116528376D01*
X141994618Y-114548477D02*
X144257359Y-116811218D01*
X142277460Y-118791117D02*
X144257359Y-116811218D01*
%TO.C,L2*%
X186163130Y-82358354D02*
X186658105Y-81863379D01*
X186658105Y-81863379D02*
X187648054Y-82853328D01*
X187153079Y-83348303D02*
X186163130Y-82358354D01*
X187648054Y-82853328D02*
X187153079Y-83348303D01*
%TO.C,AE1*%
X155839769Y-122199372D02*
X158102510Y-119936631D01*
X157395404Y-123755007D02*
X155839769Y-122199372D01*
X158102510Y-119936631D02*
X159658145Y-121492266D01*
X159640468Y-121509943D02*
X157395404Y-123755007D01*
%TO.C,Q1*%
X174849422Y-45692246D02*
X175697950Y-44843718D01*
X175697950Y-44843718D02*
X176829320Y-45975088D01*
X175980792Y-46823616D02*
X174849422Y-45692246D01*
X176829320Y-45975088D02*
X175980792Y-46823616D01*
%TO.C,C4*%
X107449830Y-49758109D02*
X108439779Y-48768160D01*
X107944805Y-50253084D02*
X107449830Y-49758109D01*
X108439779Y-48768160D02*
X108934754Y-49263135D01*
X108934754Y-49263135D02*
X107944805Y-50253084D01*
%TO.C,L1*%
X116086291Y-81823640D02*
X117401509Y-80508422D01*
X116750971Y-82488320D02*
X116086291Y-81823640D01*
X117401509Y-80508422D02*
X118066189Y-81173102D01*
X118066189Y-81173102D02*
X116750971Y-82488320D01*
%TO.C,L3*%
X154687185Y-83631147D02*
X155182160Y-83136172D01*
X155182160Y-83136172D02*
X156172109Y-84126121D01*
X155677134Y-84621096D02*
X154687185Y-83631147D01*
X156172109Y-84126121D02*
X155677134Y-84621096D01*
%TO.C,L18*%
X122779905Y-119172955D02*
X123274880Y-118677980D01*
X123274880Y-118677980D02*
X124264829Y-119667929D01*
X123769854Y-120162904D02*
X122779905Y-119172955D01*
X124264829Y-119667929D02*
X123769854Y-120162904D01*
%TO.C,TP1*%
X119933244Y-106982434D02*
G75*
G02*
X117933244Y-106982434I-1000000J0D01*
G01*
X117933244Y-106982434D02*
G75*
G02*
X119933244Y-106982434I1000000J0D01*
G01*
%TO.C,MK1*%
X174783170Y-47893761D02*
X171383170Y-47893761D01*
X171383170Y-43493763D01*
X174783170Y-43493763D01*
X174783170Y-47893761D01*
%TO.C,R2*%
X112576354Y-116832432D02*
X113071329Y-116337457D01*
X113071329Y-116337457D02*
X114061278Y-117327406D01*
X113566303Y-117822381D02*
X112576354Y-116832432D01*
X114061278Y-117327406D02*
X113566303Y-117822381D01*
%TO.C,L7*%
X122263717Y-55139192D02*
X123253666Y-54149243D01*
X122758692Y-55634167D02*
X122263717Y-55139192D01*
X123253666Y-54149243D02*
X123748641Y-54644218D01*
X123748641Y-54644218D02*
X122758692Y-55634167D01*
%TO.C,L2*%
X120665656Y-49609617D02*
X121160631Y-49114642D01*
X121160631Y-49114642D02*
X122150580Y-50104591D01*
X121655605Y-50599566D02*
X120665656Y-49609617D01*
X122150580Y-50104591D02*
X121655605Y-50599566D01*
%TO.C,JP3*%
X143543182Y-69814280D02*
X144858400Y-68499062D01*
X144207862Y-70478960D02*
X143543182Y-69814280D01*
X144858400Y-68499062D02*
X145523080Y-69163742D01*
X145523080Y-69163742D02*
X144207862Y-70478960D01*
%TO.C,R1*%
X175662594Y-110192699D02*
X176327274Y-109528019D01*
X176327274Y-109528019D02*
X177642492Y-110843237D01*
X176977812Y-111507917D02*
X175662594Y-110192699D01*
X177642492Y-110843237D02*
X176977812Y-111507917D01*
%TO.C,L1*%
X181583765Y-49074903D02*
X182898983Y-47759685D01*
X182248445Y-49739583D02*
X181583765Y-49074903D01*
X182898983Y-47759685D02*
X183563663Y-48424365D01*
X183563663Y-48424365D02*
X182248445Y-49739583D01*
%TO.C,FB1*%
X149803764Y-50383050D02*
X150793713Y-49393101D01*
X150298739Y-50878025D02*
X149803764Y-50383050D01*
X150793713Y-49393101D02*
X151288688Y-49888076D01*
X151288688Y-49888076D02*
X150298739Y-50878025D01*
%TO.C,C17*%
X113488557Y-68629894D02*
X114888557Y-68629894D01*
X113488557Y-69329894D02*
X113488557Y-68629894D01*
X114888557Y-68629894D02*
X114888557Y-69329894D01*
X114888557Y-69329894D02*
X113488557Y-69329894D01*
%TO.C,C10*%
X149122255Y-112893847D02*
X150409189Y-111606913D01*
X149772793Y-113544385D02*
X149122255Y-112893847D01*
X150409189Y-111606913D02*
X151059727Y-112257451D01*
X151059727Y-112257451D02*
X149772793Y-113544385D01*
%TO.C,C12*%
X118059119Y-50397193D02*
X118554094Y-49902218D01*
X118554094Y-49902218D02*
X119544043Y-50892167D01*
X119049068Y-51387142D02*
X118059119Y-50397193D01*
X119544043Y-50892167D02*
X119049068Y-51387142D01*
%TO.C,R4*%
X141775415Y-48350967D02*
X143090633Y-47035749D01*
X142440095Y-49015647D02*
X141775415Y-48350967D01*
X143090633Y-47035749D02*
X143755313Y-47700429D01*
X143755313Y-47700429D02*
X142440095Y-49015647D01*
%TO.C,Y1*%
X183182306Y-111560583D02*
X184313677Y-112691954D01*
X184313677Y-112691954D02*
X185586470Y-111419161D01*
X184455099Y-110287790D02*
X183182306Y-111560583D01*
X185586470Y-111419161D02*
X184455099Y-110287790D01*
%TO.C,C2*%
X183061618Y-50892168D02*
X183556593Y-50397193D01*
X183556593Y-50397193D02*
X184546542Y-51387142D01*
X184051567Y-51882117D02*
X183061618Y-50892168D01*
X184546542Y-51387142D02*
X184051567Y-51882117D01*
%TO.C,J1*%
X154348886Y-39540595D02*
X158348886Y-39540595D01*
X154348886Y-46540595D02*
X154348886Y-39540595D01*
X158348886Y-39540595D02*
X158348886Y-46540595D01*
X158348886Y-46540595D02*
X154348886Y-46540595D01*
%TO.C,D1*%
X143048207Y-107512764D02*
X145141243Y-105419728D01*
X144080583Y-108545140D02*
X143048207Y-107512764D01*
X145141243Y-105419728D02*
X146173619Y-106452104D01*
X146173619Y-106452104D02*
X144080583Y-108545140D01*
%TO.C,C9*%
X155097307Y-84988791D02*
X156087256Y-83998842D01*
X155592282Y-85483766D02*
X155097307Y-84988791D01*
X156087256Y-83998842D02*
X156582231Y-84493817D01*
X156582231Y-84493817D02*
X155592282Y-85483766D01*
%TO.C,TP1*%
X119933244Y-74233697D02*
G75*
G02*
X117933244Y-74233697I-1000000J0D01*
G01*
X117933244Y-74233697D02*
G75*
G02*
X119933244Y-74233697I1000000J0D01*
G01*
%TO.C,R3*%
X113071329Y-83588720D02*
X113566304Y-83093745D01*
X113566304Y-83093745D02*
X114556253Y-84083694D01*
X114061278Y-84578669D02*
X113071329Y-83588720D01*
X114556253Y-84083694D02*
X114061278Y-84578669D01*
%TO.C,C6*%
X186573252Y-83715999D02*
X187563201Y-82726050D01*
X187068227Y-84210974D02*
X186573252Y-83715999D01*
X187563201Y-82726050D02*
X188058176Y-83221025D01*
X188058176Y-83221025D02*
X187068227Y-84210974D01*
%TO.C,FB1*%
X182552501Y-115880524D02*
X183542450Y-114890575D01*
X183047476Y-116375499D02*
X182552501Y-115880524D01*
X183542450Y-114890575D02*
X184037425Y-115385550D01*
X184037425Y-115385550D02*
X183047476Y-116375499D01*
%TO.C,L4*%
X188708714Y-84903939D02*
X189203689Y-84408964D01*
X189203689Y-84408964D02*
X190193638Y-85398913D01*
X189698663Y-85893888D02*
X188708714Y-84903939D01*
X190193638Y-85398913D02*
X189698663Y-85893888D01*
%TO.C,C2*%
X150312881Y-50892168D02*
X150807856Y-50397193D01*
X150807856Y-50397193D02*
X151797805Y-51387142D01*
X151302830Y-51882117D02*
X150312881Y-50892168D01*
X151797805Y-51387142D02*
X151302830Y-51882117D01*
%TO.C,U3*%
X116797710Y-104746900D02*
X113997710Y-104746900D01*
X113997710Y-102146900D01*
X116797710Y-102146900D01*
X116797710Y-104746900D01*
%TO.C,C10*%
X116373518Y-112893847D02*
X117660452Y-111606913D01*
X117024056Y-113544385D02*
X116373518Y-112893847D01*
X117660452Y-111606913D02*
X118310990Y-112257451D01*
X118310990Y-112257451D02*
X117024056Y-113544385D01*
%TO.C,C16*%
X178650138Y-70563849D02*
X179350138Y-70563849D01*
X178650138Y-71963849D02*
X178650138Y-70563849D01*
X179350138Y-70563849D02*
X179350138Y-71963849D01*
X179350138Y-71963849D02*
X178650138Y-71963849D01*
%TO.C,U1*%
X150723851Y-81063641D02*
X152633039Y-79154453D01*
X152633039Y-79154453D02*
X154683649Y-81205063D01*
X152774461Y-83114251D02*
X150723851Y-81063641D01*
X154683649Y-81205063D02*
X152774461Y-83114251D01*
%TO.C,L2*%
X153414393Y-82358354D02*
X153909368Y-81863379D01*
X153909368Y-81863379D02*
X154899317Y-82853328D01*
X154404342Y-83348303D02*
X153414393Y-82358354D01*
X154899317Y-82853328D02*
X154404342Y-83348303D01*
%TO.C,C11*%
X117479291Y-47837466D02*
X118469240Y-46847517D01*
X117974266Y-48332441D02*
X117479291Y-47837466D01*
X118469240Y-46847517D02*
X118964215Y-47342492D01*
X118964215Y-47342492D02*
X117974266Y-48332441D01*
%TO.C,C12*%
X118059119Y-115894667D02*
X118554094Y-115399692D01*
X118554094Y-115399692D02*
X119544043Y-116389641D01*
X119049068Y-116884616D02*
X118059119Y-115894667D01*
X119544043Y-116389641D02*
X119049068Y-116884616D01*
%TO.C,R1*%
X142913857Y-44695225D02*
X143578537Y-44030545D01*
X143578537Y-44030545D02*
X144893755Y-45345763D01*
X144229075Y-46010443D02*
X142913857Y-44695225D01*
X144893755Y-45345763D02*
X144229075Y-46010443D01*
%TO.C,R2*%
X145325091Y-51334958D02*
X145820066Y-50839983D01*
X145820066Y-50839983D02*
X146810015Y-51829932D01*
X146315040Y-52324907D02*
X145325091Y-51334958D01*
X146810015Y-51829932D02*
X146315040Y-52324907D01*
%TO.C,C15*%
X180463885Y-101385702D02*
X181863885Y-101385702D01*
X180463885Y-102085702D02*
X180463885Y-101385702D01*
X181863885Y-101385702D02*
X181863885Y-102085702D01*
X181863885Y-102085702D02*
X180463885Y-102085702D01*
%TO.C,U3*%
X149546447Y-39249426D02*
X146746447Y-39249426D01*
X146746447Y-36649426D01*
X149546447Y-36649426D01*
X149546447Y-39249426D01*
%TO.C,R1*%
X110165120Y-110192699D02*
X110829800Y-109528019D01*
X110829800Y-109528019D02*
X112145018Y-110843237D01*
X111480338Y-111507917D02*
X110165120Y-110192699D01*
X112145018Y-110843237D02*
X111480338Y-111507917D01*
%TO.C,L3*%
X187435922Y-83631147D02*
X187930897Y-83136172D01*
X187930897Y-83136172D02*
X188920846Y-84126121D01*
X188425871Y-84621096D02*
X187435922Y-83631147D01*
X188920846Y-84126121D02*
X188425871Y-84621096D01*
%TO.C,C17*%
X113488557Y-101378631D02*
X114888557Y-101378631D01*
X113488557Y-102078631D02*
X113488557Y-101378631D01*
X114888557Y-101378631D02*
X114888557Y-102078631D01*
X114888557Y-102078631D02*
X113488557Y-102078631D01*
%TO.C,C16*%
X145901401Y-70563849D02*
X146601401Y-70563849D01*
X145901401Y-71963849D02*
X145901401Y-70563849D01*
X146601401Y-70563849D02*
X146601401Y-71963849D01*
X146601401Y-71963849D02*
X145901401Y-71963849D01*
%TO.C,C12*%
X118059119Y-83145930D02*
X118554094Y-82650955D01*
X118554094Y-82650955D02*
X119544043Y-83640904D01*
X119049068Y-84135879D02*
X118059119Y-83145930D01*
X119544043Y-83640904D02*
X119049068Y-84135879D01*
%TO.C,R3*%
X145820066Y-116337457D02*
X146315041Y-115842482D01*
X146315041Y-115842482D02*
X147304990Y-116832431D01*
X146810015Y-117327406D02*
X145820066Y-116337457D01*
X147304990Y-116832431D02*
X146810015Y-117327406D01*
%TO.C,AE1*%
X188588506Y-122199372D02*
X190851247Y-119936631D01*
X190144141Y-123755007D02*
X188588506Y-122199372D01*
X190851247Y-119936631D02*
X192406882Y-121492266D01*
X192389205Y-121509943D02*
X190144141Y-123755007D01*
%TO.C,JP1*%
X137469134Y-119568936D02*
X139236901Y-121336703D01*
X137469134Y-119568936D02*
X139802587Y-117235483D01*
X141570354Y-119003250D02*
X139236901Y-121336703D01*
X141570354Y-119003250D02*
X139802587Y-117235483D01*
%TO.C,R3*%
X178568803Y-83588720D02*
X179063778Y-83093745D01*
X179063778Y-83093745D02*
X180053727Y-84083694D01*
X179558752Y-84578669D02*
X178568803Y-83588720D01*
X180053727Y-84083694D02*
X179558752Y-84578669D01*
%TO.C,JP1*%
X104720397Y-119568936D02*
X106488164Y-121336703D01*
X104720397Y-119568936D02*
X107053850Y-117235483D01*
X108821617Y-119003250D02*
X106488164Y-121336703D01*
X108821617Y-119003250D02*
X107053850Y-117235483D01*
%TO.C,FB1*%
X149803764Y-83131787D02*
X150793713Y-82141838D01*
X150298739Y-83626762D02*
X149803764Y-83131787D01*
X150793713Y-82141838D02*
X151288688Y-82636813D01*
X151288688Y-82636813D02*
X150298739Y-83626762D01*
%TO.C,C4*%
X107449830Y-115255583D02*
X108439779Y-114265634D01*
X107944805Y-115750558D02*
X107449830Y-115255583D01*
X108439779Y-114265634D02*
X108934754Y-114760609D01*
X108934754Y-114760609D02*
X107944805Y-115750558D01*
%TO.C,U3*%
X182295184Y-104746900D02*
X179495184Y-104746900D01*
X179495184Y-102146900D01*
X182295184Y-102146900D01*
X182295184Y-104746900D01*
%TO.C,JP3*%
X176291919Y-102563017D02*
X177607137Y-101247799D01*
X176956599Y-103227697D02*
X176291919Y-102563017D01*
X177607137Y-101247799D02*
X178271817Y-101912479D01*
X178271817Y-101912479D02*
X176956599Y-103227697D01*
%TO.C,C1*%
X117571215Y-114416814D02*
X118066190Y-113921839D01*
X118066190Y-113921839D02*
X119056139Y-114911788D01*
X118561164Y-115406763D02*
X117571215Y-114416814D01*
X119056139Y-114911788D02*
X118561164Y-115406763D01*
%TO.C,C15*%
X180463885Y-35888228D02*
X181863885Y-35888228D01*
X180463885Y-36588228D02*
X180463885Y-35888228D01*
X181863885Y-35888228D02*
X181863885Y-36588228D01*
X181863885Y-36588228D02*
X180463885Y-36588228D01*
%TO.C,AE1*%
X123091032Y-122199372D02*
X125353773Y-119936631D01*
X124646667Y-123755007D02*
X123091032Y-122199372D01*
X125353773Y-119936631D02*
X126909408Y-121492266D01*
X126891731Y-121509943D02*
X124646667Y-123755007D01*
%TO.C,C6*%
X186573252Y-50967262D02*
X187563201Y-49977313D01*
X187068227Y-51462237D02*
X186573252Y-50967262D01*
X187563201Y-49977313D02*
X188058176Y-50472288D01*
X188058176Y-50472288D02*
X187068227Y-51462237D01*
%TO.C,C1*%
X150319952Y-81668077D02*
X150814927Y-81173102D01*
X150814927Y-81173102D02*
X151804876Y-82163051D01*
X151309901Y-82658026D02*
X150319952Y-81668077D01*
X151804876Y-82163051D02*
X151309901Y-82658026D01*
%TO.C,C16*%
X113152664Y-103312586D02*
X113852664Y-103312586D01*
X113152664Y-104712586D02*
X113152664Y-103312586D01*
X113852664Y-103312586D02*
X113852664Y-104712586D01*
X113852664Y-104712586D02*
X113152664Y-104712586D01*
%TO.C,JP2*%
X144207863Y-37730223D02*
X145523081Y-36415005D01*
X144872543Y-38394903D02*
X144207863Y-37730223D01*
X145523081Y-36415005D02*
X146187761Y-37079685D01*
X146187761Y-37079685D02*
X144872543Y-38394903D01*
%TO.C,L1*%
X181583765Y-81823640D02*
X182898983Y-80508422D01*
X182248445Y-82488320D02*
X181583765Y-81823640D01*
X182898983Y-80508422D02*
X183563663Y-81173102D01*
X183563663Y-81173102D02*
X182248445Y-82488320D01*
%TO.C,C2*%
X183061618Y-116389642D02*
X183556593Y-115894667D01*
X183556593Y-115894667D02*
X184546542Y-116884616D01*
X184051567Y-117379591D02*
X183061618Y-116389642D01*
X184546542Y-116884616D02*
X184051567Y-117379591D01*
%TO.C,Y1*%
X183182306Y-78811846D02*
X184313677Y-79943217D01*
X184313677Y-79943217D02*
X185586470Y-78670424D01*
X184455099Y-77539053D02*
X183182306Y-78811846D01*
X185586470Y-78670424D02*
X184455099Y-77539053D01*
%TO.C,U3*%
X116797710Y-39249426D02*
X113997710Y-39249426D01*
X113997710Y-36649426D01*
X116797710Y-36649426D01*
X116797710Y-39249426D01*
%TO.C,SW1*%
X144823045Y-78476338D02*
X148853554Y-74445829D01*
X147439340Y-81092633D02*
X144823045Y-78476338D01*
X148853554Y-74445829D02*
X151469849Y-77062124D01*
X151469849Y-77062124D02*
X147439340Y-81092633D01*
%TO.C,C4*%
X140198567Y-82506846D02*
X141188516Y-81516897D01*
X140693542Y-83001821D02*
X140198567Y-82506846D01*
X141188516Y-81516897D02*
X141683491Y-82011872D01*
X141683491Y-82011872D02*
X140693542Y-83001821D01*
%TO.C,C8*%
X120439977Y-79755606D02*
X120934952Y-79260631D01*
X120934952Y-79260631D02*
X121924901Y-80250580D01*
X121429926Y-80745555D02*
X120439977Y-79755606D01*
X121924901Y-80250580D02*
X121429926Y-80745555D01*
%TO.C,C12*%
X183556593Y-50397193D02*
X184051568Y-49902218D01*
X184051568Y-49902218D02*
X185041517Y-50892167D01*
X184546542Y-51387142D02*
X183556593Y-50397193D01*
X185041517Y-50892167D02*
X184546542Y-51387142D01*
%TO.C,C2*%
X150312881Y-116389642D02*
X150807856Y-115894667D01*
X150807856Y-115894667D02*
X151797805Y-116884616D01*
X151302830Y-117379591D02*
X150312881Y-116389642D01*
X151797805Y-116884616D02*
X151302830Y-117379591D01*
%TO.C,C20*%
X106905393Y-108202211D02*
X108305393Y-108202211D01*
X106905393Y-108902211D02*
X106905393Y-108202211D01*
X108305393Y-108202211D02*
X108305393Y-108902211D01*
X108305393Y-108902211D02*
X106905393Y-108902211D01*
%TO.C,C4*%
X172947304Y-115255583D02*
X173937253Y-114265634D01*
X173442279Y-115750558D02*
X172947304Y-115255583D01*
X173937253Y-114265634D02*
X174432228Y-114760609D01*
X174432228Y-114760609D02*
X173442279Y-115750558D01*
%TO.C,D1*%
X143048207Y-42015290D02*
X145141243Y-39922254D01*
X144080583Y-43047666D02*
X143048207Y-42015290D01*
X145141243Y-39922254D02*
X146173619Y-40954630D01*
X146173619Y-40954630D02*
X144080583Y-43047666D01*
%TO.C,AE1*%
X123091032Y-89450635D02*
X125353773Y-87187894D01*
X124646667Y-91006270D02*
X123091032Y-89450635D01*
X125353773Y-87187894D02*
X126909408Y-88743529D01*
X126891731Y-88761206D02*
X124646667Y-91006270D01*
%TO.C,C12*%
X150807856Y-83145930D02*
X151302831Y-82650955D01*
X151302831Y-82650955D02*
X152292780Y-83640904D01*
X151797805Y-84135879D02*
X150807856Y-83145930D01*
X152292780Y-83640904D02*
X151797805Y-84135879D01*
%TO.C,C5*%
X118561165Y-49909289D02*
X119056140Y-49414314D01*
X119056140Y-49414314D02*
X120046089Y-50404263D01*
X119551114Y-50899238D02*
X118561165Y-49909289D01*
X120046089Y-50404263D02*
X119551114Y-50899238D01*
%TO.C,JP3*%
X176291919Y-37065543D02*
X177607137Y-35750325D01*
X176956599Y-37730223D02*
X176291919Y-37065543D01*
X177607137Y-35750325D02*
X178271817Y-36415005D01*
X178271817Y-36415005D02*
X176956599Y-37730223D01*
%TO.C,L6*%
X156504449Y-119144670D02*
X157494398Y-118154721D01*
X156999424Y-119639645D02*
X156504449Y-119144670D01*
X157494398Y-118154721D02*
X157989373Y-118649696D01*
X157989373Y-118649696D02*
X156999424Y-119639645D01*
%TO.C,L7*%
X187761191Y-87887929D02*
X188751140Y-86897980D01*
X188256166Y-88382904D02*
X187761191Y-87887929D01*
X188751140Y-86897980D02*
X189246115Y-87392955D01*
X189246115Y-87392955D02*
X188256166Y-88382904D01*
%TO.C,Y2*%
X120611774Y-116467423D02*
X119621825Y-117457372D01*
X119056140Y-116891687D01*
X120046089Y-115901738D01*
X120611774Y-116467423D01*
%TO.C,L4*%
X188708714Y-117652676D02*
X189203689Y-117157701D01*
X189203689Y-117157701D02*
X190193638Y-118147650D01*
X189698663Y-118642625D02*
X188708714Y-117652676D01*
X190193638Y-118147650D02*
X189698663Y-118642625D01*
%TO.C,C15*%
X114966411Y-68636965D02*
X116366411Y-68636965D01*
X114966411Y-69336965D02*
X114966411Y-68636965D01*
X116366411Y-68636965D02*
X116366411Y-69336965D01*
X116366411Y-69336965D02*
X114966411Y-69336965D01*
%TO.C,R4*%
X109026678Y-81099704D02*
X110341896Y-79784486D01*
X109691358Y-81764384D02*
X109026678Y-81099704D01*
X110341896Y-79784486D02*
X111006576Y-80449166D01*
X111006576Y-80449166D02*
X109691358Y-81764384D01*
%TO.C,R3*%
X145820066Y-83588720D02*
X146315041Y-83093745D01*
X146315041Y-83093745D02*
X147304990Y-84083694D01*
X146810015Y-84578669D02*
X145820066Y-83588720D01*
X147304990Y-84083694D02*
X146810015Y-84578669D01*
%TO.C,C10*%
X181870992Y-80145110D02*
X183157926Y-78858176D01*
X182521530Y-80795648D02*
X181870992Y-80145110D01*
X183157926Y-78858176D02*
X183808464Y-79508714D01*
X183808464Y-79508714D02*
X182521530Y-80795648D01*
X116373518Y-80145110D02*
X117660452Y-78858176D01*
X117024056Y-80795648D02*
X116373518Y-80145110D01*
X117660452Y-78858176D02*
X118310990Y-79508714D01*
X118310990Y-79508714D02*
X117024056Y-80795648D01*
%TO.C,C5*%
X151309902Y-82658026D02*
X151804877Y-82163051D01*
X151804877Y-82163051D02*
X152794826Y-83153000D01*
X152299851Y-83647975D02*
X151309902Y-82658026D01*
X152794826Y-83153000D02*
X152299851Y-83647975D01*
%TO.C,C6*%
X153824515Y-116464736D02*
X154814464Y-115474787D01*
X154319490Y-116959711D02*
X153824515Y-116464736D01*
X154814464Y-115474787D02*
X155309439Y-115969762D01*
X155309439Y-115969762D02*
X154319490Y-116959711D01*
%TO.C,D1*%
X175796944Y-74764027D02*
X177889980Y-72670991D01*
X176829320Y-75796403D02*
X175796944Y-74764027D01*
X177889980Y-72670991D02*
X178922356Y-73703367D01*
X178922356Y-73703367D02*
X176829320Y-75796403D01*
%TO.C,L2*%
X186163130Y-115107091D02*
X186658105Y-114612116D01*
X186658105Y-114612116D02*
X187648054Y-115602065D01*
X187153079Y-116097040D02*
X186163130Y-115107091D01*
X187648054Y-115602065D02*
X187153079Y-116097040D01*
%TO.C,U3*%
X116797710Y-71998163D02*
X113997710Y-71998163D01*
X113997710Y-69398163D01*
X116797710Y-69398163D01*
X116797710Y-71998163D01*
%TO.C,C1*%
X117571215Y-81668077D02*
X118066190Y-81173102D01*
X118066190Y-81173102D02*
X119056139Y-82163051D01*
X118561164Y-82658026D02*
X117571215Y-81668077D01*
X119056139Y-82163051D02*
X118561164Y-82658026D01*
%TO.C,C8*%
X153188714Y-79755606D02*
X153683689Y-79260631D01*
X153683689Y-79260631D02*
X154673638Y-80250580D01*
X154178663Y-80745555D02*
X153188714Y-79755606D01*
X154673638Y-80250580D02*
X154178663Y-80745555D01*
%TO.C,C3*%
X109797425Y-118522416D02*
X110787374Y-117532467D01*
X110292400Y-119017391D02*
X109797425Y-118522416D01*
X110787374Y-117532467D02*
X111282349Y-118027442D01*
X111282349Y-118027442D02*
X110292400Y-119017391D01*
%TO.C,TP1*%
X152681981Y-106982434D02*
G75*
G02*
X150681981Y-106982434I-1000000J0D01*
G01*
X150681981Y-106982434D02*
G75*
G02*
X152681981Y-106982434I1000000J0D01*
G01*
%TO.C,J1*%
X187097623Y-72289332D02*
X191097623Y-72289332D01*
X187097623Y-79289332D02*
X187097623Y-72289332D01*
X191097623Y-72289332D02*
X191097623Y-79289332D01*
X191097623Y-79289332D02*
X187097623Y-79289332D01*
%TO.C,L1*%
X148835028Y-81823640D02*
X150150246Y-80508422D01*
X149499708Y-82488320D02*
X148835028Y-81823640D01*
X150150246Y-80508422D02*
X150814926Y-81173102D01*
X150814926Y-81173102D02*
X149499708Y-82488320D01*
%TO.C,Y1*%
X150433569Y-78811846D02*
X151564940Y-79943217D01*
X151564940Y-79943217D02*
X152837733Y-78670424D01*
X151706362Y-77539053D02*
X150433569Y-78811846D01*
X152837733Y-78670424D02*
X151706362Y-77539053D01*
%TO.C,C2*%
X150312881Y-83640905D02*
X150807856Y-83145930D01*
X150807856Y-83145930D02*
X151797805Y-84135879D01*
X151302830Y-84630854D02*
X150312881Y-83640905D01*
X151797805Y-84135879D02*
X151302830Y-84630854D01*
%TO.C,TP1*%
X185430718Y-106982434D02*
G75*
G02*
X183430718Y-106982434I-1000000J0D01*
G01*
X183430718Y-106982434D02*
G75*
G02*
X185430718Y-106982434I1000000J0D01*
G01*
%TO.C,C9*%
X122348570Y-117737528D02*
X123338519Y-116747579D01*
X122843545Y-118232503D02*
X122348570Y-117737528D01*
X123338519Y-116747579D02*
X123833494Y-117242554D01*
X123833494Y-117242554D02*
X122843545Y-118232503D01*
%TO.C,C2*%
X117564144Y-116389642D02*
X118059119Y-115894667D01*
X118059119Y-115894667D02*
X119049068Y-116884616D01*
X118554093Y-117379591D02*
X117564144Y-116389642D01*
X119049068Y-116884616D02*
X118554093Y-117379591D01*
%TO.C,U1*%
X183472588Y-81063641D02*
X185381776Y-79154453D01*
X185381776Y-79154453D02*
X187432386Y-81205063D01*
X185523198Y-83114251D02*
X183472588Y-81063641D01*
X187432386Y-81205063D02*
X185523198Y-83114251D01*
%TO.C,J1*%
X121600149Y-105038069D02*
X125600149Y-105038069D01*
X121600149Y-112038069D02*
X121600149Y-105038069D01*
X125600149Y-105038069D02*
X125600149Y-112038069D01*
X125600149Y-112038069D02*
X121600149Y-112038069D01*
%TO.C,U3*%
X149546447Y-71998163D02*
X146746447Y-71998163D01*
X146746447Y-69398163D01*
X149546447Y-69398163D01*
X149546447Y-71998163D01*
%TO.C,C16*%
X145901401Y-37815112D02*
X146601401Y-37815112D01*
X145901401Y-39215112D02*
X145901401Y-37815112D01*
X146601401Y-37815112D02*
X146601401Y-39215112D01*
X146601401Y-39215112D02*
X145901401Y-39215112D01*
%TO.C,C3*%
X175294899Y-118522416D02*
X176284848Y-117532467D01*
X175789874Y-119017391D02*
X175294899Y-118522416D01*
X176284848Y-117532467D02*
X176779823Y-118027442D01*
X176779823Y-118027442D02*
X175789874Y-119017391D01*
%TO.C,L18*%
X122779905Y-86424218D02*
X123274880Y-85929243D01*
X123274880Y-85929243D02*
X124264829Y-86919192D01*
X123769854Y-87414167D02*
X122779905Y-86424218D01*
X124264829Y-86919192D02*
X123769854Y-87414167D01*
X188277379Y-119172955D02*
X188772354Y-118677980D01*
X188772354Y-118677980D02*
X189762303Y-119667929D01*
X189267328Y-120162904D02*
X188277379Y-119172955D01*
X189762303Y-119667929D02*
X189267328Y-120162904D01*
%TO.C,JP2*%
X176956600Y-103227697D02*
X178271818Y-101912479D01*
X177621280Y-103892377D02*
X176956600Y-103227697D01*
X178271818Y-101912479D02*
X178936498Y-102577159D01*
X178936498Y-102577159D02*
X177621280Y-103892377D01*
%TO.C,TP2*%
X186844932Y-72819484D02*
G75*
G02*
X184844932Y-72819484I-1000000J0D01*
G01*
X184844932Y-72819484D02*
G75*
G02*
X186844932Y-72819484I1000000J0D01*
G01*
%TO.C,Y1*%
X117684832Y-46063109D02*
X118816203Y-47194480D01*
X118816203Y-47194480D02*
X120088996Y-45921687D01*
X118957625Y-44790316D02*
X117684832Y-46063109D01*
X120088996Y-45921687D02*
X118957625Y-44790316D01*
%TO.C,C20*%
X172402867Y-75453474D02*
X173802867Y-75453474D01*
X172402867Y-76153474D02*
X172402867Y-75453474D01*
X173802867Y-75453474D02*
X173802867Y-76153474D01*
X173802867Y-76153474D02*
X172402867Y-76153474D01*
%TO.C,L6*%
X189253186Y-119144670D02*
X190243135Y-118154721D01*
X189748161Y-119639645D02*
X189253186Y-119144670D01*
X190243135Y-118154721D02*
X190738110Y-118649696D01*
X190738110Y-118649696D02*
X189748161Y-119639645D01*
%TO.C,C16*%
X113152664Y-70563849D02*
X113852664Y-70563849D01*
X113152664Y-71963849D02*
X113152664Y-70563849D01*
X113852664Y-70563849D02*
X113852664Y-71963849D01*
X113852664Y-71963849D02*
X113152664Y-71963849D01*
%TO.C,C3*%
X109797425Y-53024942D02*
X110787374Y-52034993D01*
X110292400Y-53519917D02*
X109797425Y-53024942D01*
X110787374Y-52034993D02*
X111282349Y-52529968D01*
X111282349Y-52529968D02*
X110292400Y-53519917D01*
%TO.C,L3*%
X121938448Y-83631147D02*
X122433423Y-83136172D01*
X122433423Y-83136172D02*
X123423372Y-84126121D01*
X122928397Y-84621096D02*
X121938448Y-83631147D01*
X123423372Y-84126121D02*
X122928397Y-84621096D01*
%TO.C,TP1*%
X152681981Y-74233697D02*
G75*
G02*
X150681981Y-74233697I-1000000J0D01*
G01*
X150681981Y-74233697D02*
G75*
G02*
X152681981Y-74233697I1000000J0D01*
G01*
%TO.C,SW1*%
X112074308Y-45727601D02*
X116104817Y-41697092D01*
X114690603Y-48343896D02*
X112074308Y-45727601D01*
X116104817Y-41697092D02*
X118721112Y-44313387D01*
X118721112Y-44313387D02*
X114690603Y-48343896D01*
%TO.C,C15*%
X114966411Y-101385702D02*
X116366411Y-101385702D01*
X114966411Y-102085702D02*
X114966411Y-101385702D01*
X116366411Y-101385702D02*
X116366411Y-102085702D01*
X116366411Y-102085702D02*
X114966411Y-102085702D01*
%TO.C,JP1*%
X137469134Y-54071462D02*
X139236901Y-55839229D01*
X137469134Y-54071462D02*
X139802587Y-51738009D01*
X141570354Y-53505776D02*
X139236901Y-55839229D01*
X141570354Y-53505776D02*
X139802587Y-51738009D01*
%TO.C,SW1*%
X112074308Y-111225075D02*
X116104817Y-107194566D01*
X114690603Y-113841370D02*
X112074308Y-111225075D01*
X116104817Y-107194566D02*
X118721112Y-109810861D01*
X118721112Y-109810861D02*
X114690603Y-113841370D01*
%TO.C,C12*%
X183556593Y-115894667D02*
X184051568Y-115399692D01*
X184051568Y-115399692D02*
X185041517Y-116389641D01*
X184546542Y-116884616D02*
X183556593Y-115894667D01*
X185041517Y-116389641D02*
X184546542Y-116884616D01*
%TO.C,FB1*%
X117055027Y-83131787D02*
X118044976Y-82141838D01*
X117550002Y-83626762D02*
X117055027Y-83131787D01*
X118044976Y-82141838D02*
X118539951Y-82636813D01*
X118539951Y-82636813D02*
X117550002Y-83626762D01*
X149803764Y-115880524D02*
X150793713Y-114890575D01*
X150298739Y-116375499D02*
X149803764Y-115880524D01*
X150793713Y-114890575D02*
X151288688Y-115385550D01*
X151288688Y-115385550D02*
X150298739Y-116375499D01*
%TO.C,TP2*%
X186844932Y-105568221D02*
G75*
G02*
X184844932Y-105568221I-1000000J0D01*
G01*
X184844932Y-105568221D02*
G75*
G02*
X186844932Y-105568221I1000000J0D01*
G01*
X154096195Y-105568221D02*
G75*
G02*
X152096195Y-105568221I-1000000J0D01*
G01*
X152096195Y-105568221D02*
G75*
G02*
X154096195Y-105568221I1000000J0D01*
G01*
%TO.C,U2*%
X140014719Y-83779639D02*
X142277460Y-86042380D01*
X141994618Y-81799740D02*
X140014719Y-83779639D01*
X141994618Y-81799740D02*
X144257359Y-84062481D01*
X142277460Y-86042380D02*
X144257359Y-84062481D01*
%TO.C,D1*%
X110299470Y-74764027D02*
X112392506Y-72670991D01*
X111331846Y-75796403D02*
X110299470Y-74764027D01*
X112392506Y-72670991D02*
X113424882Y-73703367D01*
X113424882Y-73703367D02*
X111331846Y-75796403D01*
%TO.C,C3*%
X142546162Y-118522416D02*
X143536111Y-117532467D01*
X143041137Y-119017391D02*
X142546162Y-118522416D01*
X143536111Y-117532467D02*
X144031086Y-118027442D01*
X144031086Y-118027442D02*
X143041137Y-119017391D01*
%TO.C,C5*%
X151309902Y-49909289D02*
X151804877Y-49414314D01*
X151804877Y-49414314D02*
X152794826Y-50404263D01*
X152299851Y-50899238D02*
X151309902Y-49909289D01*
X152794826Y-50404263D02*
X152299851Y-50899238D01*
%TO.C,L7*%
X187761191Y-120636666D02*
X188751140Y-119646717D01*
X188256166Y-121131641D02*
X187761191Y-120636666D01*
X188751140Y-119646717D02*
X189246115Y-120141692D01*
X189246115Y-120141692D02*
X188256166Y-121131641D01*
%TO.C,R1*%
X110165120Y-77443962D02*
X110829800Y-76779282D01*
X110829800Y-76779282D02*
X112145018Y-78094500D01*
X111480338Y-78759180D02*
X110165120Y-77443962D01*
X112145018Y-78094500D02*
X111480338Y-78759180D01*
%TO.C,U3*%
X182295184Y-71998163D02*
X179495184Y-71998163D01*
X179495184Y-69398163D01*
X182295184Y-69398163D01*
X182295184Y-71998163D01*
%TO.C,JP2*%
X111459126Y-37730223D02*
X112774344Y-36415005D01*
X112123806Y-38394903D02*
X111459126Y-37730223D01*
X112774344Y-36415005D02*
X113439024Y-37079685D01*
X113439024Y-37079685D02*
X112123806Y-38394903D01*
%TO.C,C5*%
X118561165Y-115406763D02*
X119056140Y-114911788D01*
X119056140Y-114911788D02*
X120046089Y-115901737D01*
X119551114Y-116396712D02*
X118561165Y-115406763D01*
X120046089Y-115901737D02*
X119551114Y-116396712D01*
%TO.C,KiKit_FID_T_2*%
X202222785Y-25000000D02*
G75*
G02*
X201022785Y-25000000I-600000J0D01*
G01*
X201022785Y-25000000D02*
G75*
G02*
X202222785Y-25000000I600000J0D01*
G01*
%TO.C,JP3*%
X110794445Y-37065543D02*
X112109663Y-35750325D01*
X111459125Y-37730223D02*
X110794445Y-37065543D01*
X112109663Y-35750325D02*
X112774343Y-36415005D01*
X112774343Y-36415005D02*
X111459125Y-37730223D01*
%TO.C,C16*%
X178650138Y-37815112D02*
X179350138Y-37815112D01*
X178650138Y-39215112D02*
X178650138Y-37815112D01*
X179350138Y-37815112D02*
X179350138Y-39215112D01*
X179350138Y-39215112D02*
X178650138Y-39215112D01*
%TO.C,R1*%
X175662594Y-77443962D02*
X176327274Y-76779282D01*
X176327274Y-76779282D02*
X177642492Y-78094500D01*
X176977812Y-78759180D02*
X175662594Y-77443962D01*
X177642492Y-78094500D02*
X176977812Y-78759180D01*
%TO.C,AE1*%
X155839769Y-56701898D02*
X158102510Y-54439157D01*
X157395404Y-58257533D02*
X155839769Y-56701898D01*
X158102510Y-54439157D02*
X159658145Y-55994792D01*
X159640468Y-56012469D02*
X157395404Y-58257533D01*
%TO.C,R4*%
X141775415Y-81099704D02*
X143090633Y-79784486D01*
X142440095Y-81764384D02*
X141775415Y-81099704D01*
X143090633Y-79784486D02*
X143755313Y-80449166D01*
X143755313Y-80449166D02*
X142440095Y-81764384D01*
%TO.C,MK1*%
X174783170Y-80642498D02*
X171383170Y-80642498D01*
X171383170Y-76242500D01*
X174783170Y-76242500D01*
X174783170Y-80642498D01*
%TO.C,C17*%
X178986031Y-101378631D02*
X180386031Y-101378631D01*
X178986031Y-102078631D02*
X178986031Y-101378631D01*
X180386031Y-101378631D02*
X180386031Y-102078631D01*
X180386031Y-102078631D02*
X178986031Y-102078631D01*
%TO.C,KiKit_FID_T_3*%
X95977216Y-131245569D02*
G75*
G02*
X94777216Y-131245569I-600000J0D01*
G01*
X94777216Y-131245569D02*
G75*
G02*
X95977216Y-131245569I600000J0D01*
G01*
%TO.C,C9*%
X155097307Y-117737528D02*
X156087256Y-116747579D01*
X155592282Y-118232503D02*
X155097307Y-117737528D01*
X156087256Y-116747579D02*
X156582231Y-117242554D01*
X156582231Y-117242554D02*
X155592282Y-118232503D01*
%TO.C,Q1*%
X142100685Y-78440983D02*
X142949213Y-77592455D01*
X142949213Y-77592455D02*
X144080583Y-78723825D01*
X143232055Y-79572353D02*
X142100685Y-78440983D01*
X144080583Y-78723825D02*
X143232055Y-79572353D01*
%TO.C,L4*%
X155959977Y-84903939D02*
X156454952Y-84408964D01*
X156454952Y-84408964D02*
X157444901Y-85398913D01*
X156949926Y-85893888D02*
X155959977Y-84903939D01*
X157444901Y-85398913D02*
X156949926Y-85893888D01*
%TO.C,L7*%
X187761191Y-55139192D02*
X188751140Y-54149243D01*
X188256166Y-55634167D02*
X187761191Y-55139192D01*
X188751140Y-54149243D02*
X189246115Y-54644218D01*
X189246115Y-54644218D02*
X188256166Y-55634167D01*
%TO.C,TP2*%
X186844932Y-40070747D02*
G75*
G02*
X184844932Y-40070747I-1000000J0D01*
G01*
X184844932Y-40070747D02*
G75*
G02*
X186844932Y-40070747I1000000J0D01*
G01*
%TO.C,C11*%
X182976765Y-47837466D02*
X183966714Y-46847517D01*
X183471740Y-48332441D02*
X182976765Y-47837466D01*
X183966714Y-46847517D02*
X184461689Y-47342492D01*
X184461689Y-47342492D02*
X183471740Y-48332441D01*
%TO.C,Y2*%
X120611774Y-50969949D02*
X119621825Y-51959898D01*
X119056140Y-51394213D01*
X120046089Y-50404264D01*
X120611774Y-50969949D01*
%TO.C,R3*%
X178568803Y-116337457D02*
X179063778Y-115842482D01*
X179063778Y-115842482D02*
X180053727Y-116832431D01*
X179558752Y-117327406D02*
X178568803Y-116337457D01*
X180053727Y-116832431D02*
X179558752Y-117327406D01*
%TO.C,Q1*%
X142100685Y-111189720D02*
X142949213Y-110341192D01*
X142949213Y-110341192D02*
X144080583Y-111472562D01*
X143232055Y-112321090D02*
X142100685Y-111189720D01*
X144080583Y-111472562D02*
X143232055Y-112321090D01*
%TO.C,L1*%
X148835028Y-114572377D02*
X150150246Y-113257159D01*
X149499708Y-115237057D02*
X148835028Y-114572377D01*
X150150246Y-113257159D02*
X150814926Y-113921839D01*
X150814926Y-113921839D02*
X149499708Y-115237057D01*
%TO.C,C10*%
X181870992Y-47396373D02*
X183157926Y-46109439D01*
X182521530Y-48046911D02*
X181870992Y-47396373D01*
X183157926Y-46109439D02*
X183808464Y-46759977D01*
X183808464Y-46759977D02*
X182521530Y-48046911D01*
X149122255Y-80145110D02*
X150409189Y-78858176D01*
X149772793Y-80795648D02*
X149122255Y-80145110D01*
X150409189Y-78858176D02*
X151059727Y-79508714D01*
X151059727Y-79508714D02*
X149772793Y-80795648D01*
%TO.C,C1*%
X183068689Y-114416814D02*
X183563664Y-113921839D01*
X183563664Y-113921839D02*
X184553613Y-114911788D01*
X184058638Y-115406763D02*
X183068689Y-114416814D01*
X184553613Y-114911788D02*
X184058638Y-115406763D01*
%TO.C,U1*%
X183472588Y-48314904D02*
X185381776Y-46405716D01*
X185381776Y-46405716D02*
X187432386Y-48456326D01*
X185523198Y-50365514D02*
X183472588Y-48314904D01*
X187432386Y-48456326D02*
X185523198Y-50365514D01*
%TO.C,L4*%
X155959977Y-117652676D02*
X156454952Y-117157701D01*
X156454952Y-117157701D02*
X157444901Y-118147650D01*
X156949926Y-118642625D02*
X155959977Y-117652676D01*
X157444901Y-118147650D02*
X156949926Y-118642625D01*
%TO.C,J1*%
X121600149Y-72289332D02*
X125600149Y-72289332D01*
X121600149Y-79289332D02*
X121600149Y-72289332D01*
X125600149Y-72289332D02*
X125600149Y-79289332D01*
X125600149Y-79289332D02*
X121600149Y-79289332D01*
%TO.C,L18*%
X188277379Y-86424218D02*
X188772354Y-85929243D01*
X188772354Y-85929243D02*
X189762303Y-86919192D01*
X189267328Y-87414167D02*
X188277379Y-86424218D01*
X189762303Y-86919192D02*
X189267328Y-87414167D01*
%TO.C,C1*%
X150319952Y-48919340D02*
X150814927Y-48424365D01*
X150814927Y-48424365D02*
X151804876Y-49414314D01*
X151309901Y-49909289D02*
X150319952Y-48919340D01*
X151804876Y-49414314D02*
X151309901Y-49909289D01*
%TO.C,JP2*%
X111459126Y-70478960D02*
X112774344Y-69163742D01*
X112123806Y-71143640D02*
X111459126Y-70478960D01*
X112774344Y-69163742D02*
X113439024Y-69828422D01*
X113439024Y-69828422D02*
X112123806Y-71143640D01*
%TO.C,MK1*%
X174783170Y-113391235D02*
X171383170Y-113391235D01*
X171383170Y-108991237D01*
X174783170Y-108991237D01*
X174783170Y-113391235D01*
%TO.C,C3*%
X175294899Y-53024942D02*
X176284848Y-52034993D01*
X175789874Y-53519917D02*
X175294899Y-53024942D01*
X176284848Y-52034993D02*
X176779823Y-52529968D01*
X176779823Y-52529968D02*
X175789874Y-53519917D01*
%TO.C,C5*%
X118561165Y-82658026D02*
X119056140Y-82163051D01*
X119056140Y-82163051D02*
X120046089Y-83153000D01*
X119551114Y-83647975D02*
X118561165Y-82658026D01*
X120046089Y-83153000D02*
X119551114Y-83647975D01*
%TO.C,Q1*%
X174849422Y-78440983D02*
X175697950Y-77592455D01*
X175697950Y-77592455D02*
X176829320Y-78723825D01*
X175980792Y-79572353D02*
X174849422Y-78440983D01*
X176829320Y-78723825D02*
X175980792Y-79572353D01*
%TO.C,L3*%
X121938448Y-50882410D02*
X122433423Y-50387435D01*
X122433423Y-50387435D02*
X123423372Y-51377384D01*
X122928397Y-51872359D02*
X121938448Y-50882410D01*
X123423372Y-51377384D02*
X122928397Y-51872359D01*
%TO.C,U1*%
X117975114Y-48314904D02*
X119884302Y-46405716D01*
X119884302Y-46405716D02*
X121934912Y-48456326D01*
X120025724Y-50365514D02*
X117975114Y-48314904D01*
X121934912Y-48456326D02*
X120025724Y-50365514D01*
%TO.C,AE1*%
X123091032Y-56701898D02*
X125353773Y-54439157D01*
X124646667Y-58257533D02*
X123091032Y-56701898D01*
X125353773Y-54439157D02*
X126909408Y-55994792D01*
X126891731Y-56012469D02*
X124646667Y-58257533D01*
%TO.C,L4*%
X155959977Y-52155202D02*
X156454952Y-51660227D01*
X156454952Y-51660227D02*
X157444901Y-52650176D01*
X156949926Y-53145151D02*
X155959977Y-52155202D01*
X157444901Y-52650176D02*
X156949926Y-53145151D01*
%TO.C,JP3*%
X110794445Y-102563017D02*
X112109663Y-101247799D01*
X111459125Y-103227697D02*
X110794445Y-102563017D01*
X112109663Y-101247799D02*
X112774343Y-101912479D01*
X112774343Y-101912479D02*
X111459125Y-103227697D01*
%TO.C,C20*%
X172402867Y-42704737D02*
X173802867Y-42704737D01*
X172402867Y-43404737D02*
X172402867Y-42704737D01*
X173802867Y-42704737D02*
X173802867Y-43404737D01*
X173802867Y-43404737D02*
X172402867Y-43404737D01*
%TO.C,L6*%
X156504449Y-86395933D02*
X157494398Y-85405984D01*
X156999424Y-86890908D02*
X156504449Y-86395933D01*
X157494398Y-85405984D02*
X157989373Y-85900959D01*
X157989373Y-85900959D02*
X156999424Y-86890908D01*
%TO.C,U3*%
X149546447Y-104746900D02*
X146746447Y-104746900D01*
X146746447Y-102146900D01*
X149546447Y-102146900D01*
X149546447Y-104746900D01*
%TO.C,TP1*%
X152681981Y-41484960D02*
G75*
G02*
X150681981Y-41484960I-1000000J0D01*
G01*
X150681981Y-41484960D02*
G75*
G02*
X152681981Y-41484960I1000000J0D01*
G01*
%TO.C,C11*%
X182976765Y-80586203D02*
X183966714Y-79596254D01*
X183471740Y-81081178D02*
X182976765Y-80586203D01*
X183966714Y-79596254D02*
X184461689Y-80091229D01*
X184461689Y-80091229D02*
X183471740Y-81081178D01*
%TO.C,R4*%
X109026678Y-113848441D02*
X110341896Y-112533223D01*
X109691358Y-114513121D02*
X109026678Y-113848441D01*
X110341896Y-112533223D02*
X111006576Y-113197903D01*
X111006576Y-113197903D02*
X109691358Y-114513121D01*
%TO.C,C2*%
X183061618Y-83640905D02*
X183556593Y-83145930D01*
X183556593Y-83145930D02*
X184546542Y-84135879D01*
X184051567Y-84630854D02*
X183061618Y-83640905D01*
X184546542Y-84135879D02*
X184051567Y-84630854D01*
%TO.C,C1*%
X183068689Y-48919340D02*
X183563664Y-48424365D01*
X183563664Y-48424365D02*
X184553613Y-49414314D01*
X184058638Y-49909289D02*
X183068689Y-48919340D01*
X184553613Y-49414314D02*
X184058638Y-49909289D01*
%TO.C,U2*%
X140014719Y-51030902D02*
X142277460Y-53293643D01*
X141994618Y-49051003D02*
X140014719Y-51030902D01*
X141994618Y-49051003D02*
X144257359Y-51313744D01*
X142277460Y-53293643D02*
X144257359Y-51313744D01*
%TO.C,C15*%
X114966411Y-35888228D02*
X116366411Y-35888228D01*
X114966411Y-36588228D02*
X114966411Y-35888228D01*
X116366411Y-35888228D02*
X116366411Y-36588228D01*
X116366411Y-36588228D02*
X114966411Y-36588228D01*
%TO.C,C17*%
X178986031Y-68629894D02*
X180386031Y-68629894D01*
X178986031Y-69329894D02*
X178986031Y-68629894D01*
X180386031Y-68629894D02*
X180386031Y-69329894D01*
X180386031Y-69329894D02*
X178986031Y-69329894D01*
%TO.C,Y1*%
X117684832Y-78811846D02*
X118816203Y-79943217D01*
X118816203Y-79943217D02*
X120088996Y-78670424D01*
X118957625Y-77539053D02*
X117684832Y-78811846D01*
X120088996Y-78670424D02*
X118957625Y-77539053D01*
%TO.C,R1*%
X142913857Y-77443962D02*
X143578537Y-76779282D01*
X143578537Y-76779282D02*
X144893755Y-78094500D01*
X144229075Y-78759180D02*
X142913857Y-77443962D01*
X144893755Y-78094500D02*
X144229075Y-78759180D01*
%TO.C,C3*%
X142546162Y-85773679D02*
X143536111Y-84783730D01*
X143041137Y-86268654D02*
X142546162Y-85773679D01*
X143536111Y-84783730D02*
X144031086Y-85278705D01*
X144031086Y-85278705D02*
X143041137Y-86268654D01*
%TO.C,SW1*%
X177571782Y-45727601D02*
X181602291Y-41697092D01*
X180188077Y-48343896D02*
X177571782Y-45727601D01*
X181602291Y-41697092D02*
X184218586Y-44313387D01*
X184218586Y-44313387D02*
X180188077Y-48343896D01*
%TO.C,L2*%
X120665656Y-115107091D02*
X121160631Y-114612116D01*
X121160631Y-114612116D02*
X122150580Y-115602065D01*
X121655605Y-116097040D02*
X120665656Y-115107091D01*
X122150580Y-115602065D02*
X121655605Y-116097040D01*
%TO.C,C17*%
X146237294Y-35881157D02*
X147637294Y-35881157D01*
X146237294Y-36581157D02*
X146237294Y-35881157D01*
X147637294Y-35881157D02*
X147637294Y-36581157D01*
X147637294Y-36581157D02*
X146237294Y-36581157D01*
%TO.C,L3*%
X187435922Y-50882410D02*
X187930897Y-50387435D01*
X187930897Y-50387435D02*
X188920846Y-51377384D01*
X188425871Y-51872359D02*
X187435922Y-50882410D01*
X188920846Y-51377384D02*
X188425871Y-51872359D01*
%TO.C,L6*%
X156504449Y-53647196D02*
X157494398Y-52657247D01*
X156999424Y-54142171D02*
X156504449Y-53647196D01*
X157494398Y-52657247D02*
X157989373Y-53152222D01*
X157989373Y-53152222D02*
X156999424Y-54142171D01*
%TO.C,C10*%
X181870992Y-112893847D02*
X183157926Y-111606913D01*
X182521530Y-113544385D02*
X181870992Y-112893847D01*
X183157926Y-111606913D02*
X183808464Y-112257451D01*
X183808464Y-112257451D02*
X182521530Y-113544385D01*
%TO.C,D1*%
X110299470Y-107512764D02*
X112392506Y-105419728D01*
X111331846Y-108545140D02*
X110299470Y-107512764D01*
X112392506Y-105419728D02*
X113424882Y-106452104D01*
X113424882Y-106452104D02*
X111331846Y-108545140D01*
%TO.C,U2*%
X107265982Y-83779639D02*
X109528723Y-86042380D01*
X109245881Y-81799740D02*
X107265982Y-83779639D01*
X109245881Y-81799740D02*
X111508622Y-84062481D01*
X109528723Y-86042380D02*
X111508622Y-84062481D01*
%TO.C,L1*%
X181583765Y-114572377D02*
X182898983Y-113257159D01*
X182248445Y-115237057D02*
X181583765Y-114572377D01*
X182898983Y-113257159D02*
X183563663Y-113921839D01*
X183563663Y-113921839D02*
X182248445Y-115237057D01*
%TO.C,R4*%
X109026678Y-48350967D02*
X110341896Y-47035749D01*
X109691358Y-49015647D02*
X109026678Y-48350967D01*
X110341896Y-47035749D02*
X111006576Y-47700429D01*
X111006576Y-47700429D02*
X109691358Y-49015647D01*
%TO.C,R1*%
X142913857Y-110192699D02*
X143578537Y-109528019D01*
X143578537Y-109528019D02*
X144893755Y-110843237D01*
X144229075Y-111507917D02*
X142913857Y-110192699D01*
X144893755Y-110843237D02*
X144229075Y-111507917D01*
%TO.C,R3*%
X113071329Y-50839983D02*
X113566304Y-50345008D01*
X113566304Y-50345008D02*
X114556253Y-51334957D01*
X114061278Y-51829932D02*
X113071329Y-50839983D01*
X114556253Y-51334957D02*
X114061278Y-51829932D01*
%TO.C,C20*%
X139654130Y-42704737D02*
X141054130Y-42704737D01*
X139654130Y-43404737D02*
X139654130Y-42704737D01*
X141054130Y-42704737D02*
X141054130Y-43404737D01*
X141054130Y-43404737D02*
X139654130Y-43404737D01*
%TO.C,JP1*%
X170217871Y-119568936D02*
X171985638Y-121336703D01*
X170217871Y-119568936D02*
X172551324Y-117235483D01*
X174319091Y-119003250D02*
X171985638Y-121336703D01*
X174319091Y-119003250D02*
X172551324Y-117235483D01*
%TO.C,C8*%
X153188714Y-47006869D02*
X153683689Y-46511894D01*
X153683689Y-46511894D02*
X154673638Y-47501843D01*
X154178663Y-47996818D02*
X153188714Y-47006869D01*
X154673638Y-47501843D02*
X154178663Y-47996818D01*
%TO.C,FB1*%
X182552501Y-83131787D02*
X183542450Y-82141838D01*
X183047476Y-83626762D02*
X182552501Y-83131787D01*
X183542450Y-82141838D02*
X184037425Y-82636813D01*
X184037425Y-82636813D02*
X183047476Y-83626762D01*
%TO.C,J1*%
X187097623Y-105038069D02*
X191097623Y-105038069D01*
X187097623Y-112038069D02*
X187097623Y-105038069D01*
X191097623Y-105038069D02*
X191097623Y-112038069D01*
X191097623Y-112038069D02*
X187097623Y-112038069D01*
%TO.C,MK1*%
X109285696Y-113391235D02*
X105885696Y-113391235D01*
X105885696Y-108991237D01*
X109285696Y-108991237D01*
X109285696Y-113391235D01*
%TO.C,FB1*%
X117055027Y-115880524D02*
X118044976Y-114890575D01*
X117550002Y-116375499D02*
X117055027Y-115880524D01*
X118044976Y-114890575D02*
X118539951Y-115385550D01*
X118539951Y-115385550D02*
X117550002Y-116375499D01*
%TO.C,C9*%
X155097307Y-52240054D02*
X156087256Y-51250105D01*
X155592282Y-52735029D02*
X155097307Y-52240054D01*
X156087256Y-51250105D02*
X156582231Y-51745080D01*
X156582231Y-51745080D02*
X155592282Y-52735029D01*
%TO.C,C1*%
X117571215Y-48919340D02*
X118066190Y-48424365D01*
X118066190Y-48424365D02*
X119056139Y-49414314D01*
X118561164Y-49909289D02*
X117571215Y-48919340D01*
X119056139Y-49414314D02*
X118561164Y-49909289D01*
%TO.C,Q1*%
X174849422Y-111189720D02*
X175697950Y-110341192D01*
X175697950Y-110341192D02*
X176829320Y-111472562D01*
X175980792Y-112321090D02*
X174849422Y-111189720D01*
X176829320Y-111472562D02*
X175980792Y-112321090D01*
%TO.C,L2*%
X153414393Y-49609617D02*
X153909368Y-49114642D01*
X153909368Y-49114642D02*
X154899317Y-50104591D01*
X154404342Y-50599566D02*
X153414393Y-49609617D01*
X154899317Y-50104591D02*
X154404342Y-50599566D01*
%TO.C,L18*%
X122779905Y-53675481D02*
X123274880Y-53180506D01*
X123274880Y-53180506D02*
X124264829Y-54170455D01*
X123769854Y-54665430D02*
X122779905Y-53675481D01*
X124264829Y-54170455D02*
X123769854Y-54665430D01*
%TO.C,L4*%
X188708714Y-52155202D02*
X189203689Y-51660227D01*
X189203689Y-51660227D02*
X190193638Y-52650176D01*
X189698663Y-53145151D02*
X188708714Y-52155202D01*
X190193638Y-52650176D02*
X189698663Y-53145151D01*
%TO.C,L6*%
X189253186Y-53647196D02*
X190243135Y-52657247D01*
X189748161Y-54142171D02*
X189253186Y-53647196D01*
X190243135Y-52657247D02*
X190738110Y-53152222D01*
X190738110Y-53152222D02*
X189748161Y-54142171D01*
%TO.C,L3*%
X187435922Y-116379884D02*
X187930897Y-115884909D01*
X187930897Y-115884909D02*
X188920846Y-116874858D01*
X188425871Y-117369833D02*
X187435922Y-116379884D01*
X188920846Y-116874858D02*
X188425871Y-117369833D01*
%TO.C,U1*%
X150723851Y-48314904D02*
X152633039Y-46405716D01*
X152633039Y-46405716D02*
X154683649Y-48456326D01*
X152774461Y-50365514D02*
X150723851Y-48314904D01*
X154683649Y-48456326D02*
X152774461Y-50365514D01*
%TO.C,D1*%
X110299470Y-42015290D02*
X112392506Y-39922254D01*
X111331846Y-43047666D02*
X110299470Y-42015290D01*
X112392506Y-39922254D02*
X113424882Y-40954630D01*
X113424882Y-40954630D02*
X111331846Y-43047666D01*
%TO.C,C15*%
X147715148Y-35888228D02*
X149115148Y-35888228D01*
X147715148Y-36588228D02*
X147715148Y-35888228D01*
X149115148Y-35888228D02*
X149115148Y-36588228D01*
X149115148Y-36588228D02*
X147715148Y-36588228D01*
%TO.C,Y2*%
X153360511Y-50969949D02*
X152370562Y-51959898D01*
X151804877Y-51394213D01*
X152794826Y-50404264D01*
X153360511Y-50969949D01*
%TO.C,C15*%
X147715148Y-101385702D02*
X149115148Y-101385702D01*
X147715148Y-102085702D02*
X147715148Y-101385702D01*
X149115148Y-101385702D02*
X149115148Y-102085702D01*
X149115148Y-102085702D02*
X147715148Y-102085702D01*
%TO.C,C20*%
X139654130Y-108202211D02*
X141054130Y-108202211D01*
X139654130Y-108902211D02*
X139654130Y-108202211D01*
X141054130Y-108202211D02*
X141054130Y-108902211D01*
X141054130Y-108902211D02*
X139654130Y-108902211D01*
%TO.C,Y1*%
X150433569Y-111560583D02*
X151564940Y-112691954D01*
X151564940Y-112691954D02*
X152837733Y-111419161D01*
X151706362Y-110287790D02*
X150433569Y-111560583D01*
X152837733Y-111419161D02*
X151706362Y-110287790D01*
%TO.C,C12*%
X150807856Y-50397193D02*
X151302831Y-49902218D01*
X151302831Y-49902218D02*
X152292780Y-50892167D01*
X151797805Y-51387142D02*
X150807856Y-50397193D01*
X152292780Y-50892167D02*
X151797805Y-51387142D01*
%TO.C,C17*%
X113488557Y-35881157D02*
X114888557Y-35881157D01*
X113488557Y-36581157D02*
X113488557Y-35881157D01*
X114888557Y-35881157D02*
X114888557Y-36581157D01*
X114888557Y-36581157D02*
X113488557Y-36581157D01*
%TO.C,TP2*%
X154096195Y-72819484D02*
G75*
G02*
X152096195Y-72819484I-1000000J0D01*
G01*
X152096195Y-72819484D02*
G75*
G02*
X154096195Y-72819484I1000000J0D01*
G01*
%TO.C,D1*%
X175796944Y-107512764D02*
X177889980Y-105419728D01*
X176829320Y-108545140D02*
X175796944Y-107512764D01*
X177889980Y-105419728D02*
X178922356Y-106452104D01*
X178922356Y-106452104D02*
X176829320Y-108545140D01*
%TO.C,C16*%
X113152664Y-37815112D02*
X113852664Y-37815112D01*
X113152664Y-39215112D02*
X113152664Y-37815112D01*
X113852664Y-37815112D02*
X113852664Y-39215112D01*
X113852664Y-39215112D02*
X113152664Y-39215112D01*
%TO.C,C4*%
X107449830Y-82506846D02*
X108439779Y-81516897D01*
X107944805Y-83001821D02*
X107449830Y-82506846D01*
X108439779Y-81516897D02*
X108934754Y-82011872D01*
X108934754Y-82011872D02*
X107944805Y-83001821D01*
%TO.C,R3*%
X145820066Y-50839983D02*
X146315041Y-50345008D01*
X146315041Y-50345008D02*
X147304990Y-51334957D01*
X146810015Y-51829932D02*
X145820066Y-50839983D01*
X147304990Y-51334957D02*
X146810015Y-51829932D01*
%TO.C,L3*%
X154687185Y-50882410D02*
X155182160Y-50387435D01*
X155182160Y-50387435D02*
X156172109Y-51377384D01*
X155677134Y-51872359D02*
X154687185Y-50882410D01*
X156172109Y-51377384D02*
X155677134Y-51872359D01*
%TO.C,C3*%
X109797425Y-85773679D02*
X110787374Y-84783730D01*
X110292400Y-86268654D02*
X109797425Y-85773679D01*
X110787374Y-84783730D02*
X111282349Y-85278705D01*
X111282349Y-85278705D02*
X110292400Y-86268654D01*
%TO.C,C20*%
X106905393Y-75453474D02*
X108305393Y-75453474D01*
X106905393Y-76153474D02*
X106905393Y-75453474D01*
X108305393Y-75453474D02*
X108305393Y-76153474D01*
X108305393Y-76153474D02*
X106905393Y-76153474D01*
%TO.C,TP1*%
X185430718Y-74233697D02*
G75*
G02*
X183430718Y-74233697I-1000000J0D01*
G01*
X183430718Y-74233697D02*
G75*
G02*
X185430718Y-74233697I1000000J0D01*
G01*
%TO.C,Y2*%
X153360511Y-83718686D02*
X152370562Y-84708635D01*
X151804877Y-84142950D01*
X152794826Y-83153001D01*
X153360511Y-83718686D01*
%TO.C,C17*%
X146237294Y-68629894D02*
X147637294Y-68629894D01*
X146237294Y-69329894D02*
X146237294Y-68629894D01*
X147637294Y-68629894D02*
X147637294Y-69329894D01*
X147637294Y-69329894D02*
X146237294Y-69329894D01*
%TO.C,C2*%
X117564144Y-83640905D02*
X118059119Y-83145930D01*
X118059119Y-83145930D02*
X119049068Y-84135879D01*
X118554093Y-84630854D02*
X117564144Y-83640905D01*
X119049068Y-84135879D02*
X118554093Y-84630854D01*
%TO.C,C4*%
X172947304Y-82506846D02*
X173937253Y-81516897D01*
X173442279Y-83001821D02*
X172947304Y-82506846D01*
X173937253Y-81516897D02*
X174432228Y-82011872D01*
X174432228Y-82011872D02*
X173442279Y-83001821D01*
%TO.C,JP3*%
X143543182Y-102563017D02*
X144858400Y-101247799D01*
X144207862Y-103227697D02*
X143543182Y-102563017D01*
X144858400Y-101247799D02*
X145523080Y-101912479D01*
X145523080Y-101912479D02*
X144207862Y-103227697D01*
%TO.C,R3*%
X178568803Y-50839983D02*
X179063778Y-50345008D01*
X179063778Y-50345008D02*
X180053727Y-51334957D01*
X179558752Y-51829932D02*
X178568803Y-50839983D01*
X180053727Y-51334957D02*
X179558752Y-51829932D01*
%TO.C,C5*%
X184058639Y-49909289D02*
X184553614Y-49414314D01*
X184553614Y-49414314D02*
X185543563Y-50404263D01*
X185048588Y-50899238D02*
X184058639Y-49909289D01*
X185543563Y-50404263D02*
X185048588Y-50899238D01*
%TO.C,U1*%
X150723851Y-113812378D02*
X152633039Y-111903190D01*
X152633039Y-111903190D02*
X154683649Y-113953800D01*
X152774461Y-115862988D02*
X150723851Y-113812378D01*
X154683649Y-113953800D02*
X152774461Y-115862988D01*
%TO.C,Q1*%
X142100685Y-45692246D02*
X142949213Y-44843718D01*
X142949213Y-44843718D02*
X144080583Y-45975088D01*
X143232055Y-46823616D02*
X142100685Y-45692246D01*
X144080583Y-45975088D02*
X143232055Y-46823616D01*
%TO.C,L6*%
X123755712Y-119144670D02*
X124745661Y-118154721D01*
X124250687Y-119639645D02*
X123755712Y-119144670D01*
X124745661Y-118154721D02*
X125240636Y-118649696D01*
X125240636Y-118649696D02*
X124250687Y-119639645D01*
%TO.C,C9*%
X187846044Y-84988791D02*
X188835993Y-83998842D01*
X188341019Y-85483766D02*
X187846044Y-84988791D01*
X188835993Y-83998842D02*
X189330968Y-84493817D01*
X189330968Y-84493817D02*
X188341019Y-85483766D01*
%TO.C,C6*%
X121075778Y-50967262D02*
X122065727Y-49977313D01*
X121570753Y-51462237D02*
X121075778Y-50967262D01*
X122065727Y-49977313D02*
X122560702Y-50472288D01*
X122560702Y-50472288D02*
X121570753Y-51462237D01*
%TO.C,R4*%
X174524152Y-81099704D02*
X175839370Y-79784486D01*
X175188832Y-81764384D02*
X174524152Y-81099704D01*
X175839370Y-79784486D02*
X176504050Y-80449166D01*
X176504050Y-80449166D02*
X175188832Y-81764384D01*
%TO.C,C5*%
X184058639Y-82658026D02*
X184553614Y-82163051D01*
X184553614Y-82163051D02*
X185543563Y-83153000D01*
X185048588Y-83647975D02*
X184058639Y-82658026D01*
X185543563Y-83153000D02*
X185048588Y-83647975D01*
%TO.C,JP3*%
X110794445Y-69814280D02*
X112109663Y-68499062D01*
X111459125Y-70478960D02*
X110794445Y-69814280D01*
X112109663Y-68499062D02*
X112774343Y-69163742D01*
X112774343Y-69163742D02*
X111459125Y-70478960D01*
%TO.C,L7*%
X155012454Y-87887929D02*
X156002403Y-86897980D01*
X155507429Y-88382904D02*
X155012454Y-87887929D01*
X156002403Y-86897980D02*
X156497378Y-87392955D01*
X156497378Y-87392955D02*
X155507429Y-88382904D01*
%TO.C,R2*%
X112576354Y-51334958D02*
X113071329Y-50839983D01*
X113071329Y-50839983D02*
X114061278Y-51829932D01*
X113566303Y-52324907D02*
X112576354Y-51334958D01*
X114061278Y-51829932D02*
X113566303Y-52324907D01*
X145325091Y-116832432D02*
X145820066Y-116337457D01*
X145820066Y-116337457D02*
X146810015Y-117327406D01*
X146315040Y-117822381D02*
X145325091Y-116832432D01*
X146810015Y-117327406D02*
X146315040Y-117822381D01*
%TO.C,L7*%
X155012454Y-120636666D02*
X156002403Y-119646717D01*
X155507429Y-121131641D02*
X155012454Y-120636666D01*
X156002403Y-119646717D02*
X156497378Y-120141692D01*
X156497378Y-120141692D02*
X155507429Y-121131641D01*
%TO.C,C20*%
X139654130Y-75453474D02*
X141054130Y-75453474D01*
X139654130Y-76153474D02*
X139654130Y-75453474D01*
X141054130Y-75453474D02*
X141054130Y-76153474D01*
X141054130Y-76153474D02*
X139654130Y-76153474D01*
%TO.C,L7*%
X122263717Y-87887929D02*
X123253666Y-86897980D01*
X122758692Y-88382904D02*
X122263717Y-87887929D01*
X123253666Y-86897980D02*
X123748641Y-87392955D01*
X123748641Y-87392955D02*
X122758692Y-88382904D01*
%TO.C,AE1*%
X155839769Y-89450635D02*
X158102510Y-87187894D01*
X157395404Y-91006270D02*
X155839769Y-89450635D01*
X158102510Y-87187894D02*
X159658145Y-88743529D01*
X159640468Y-88761206D02*
X157395404Y-91006270D01*
%TO.C,FB1*%
X182552501Y-50383050D02*
X183542450Y-49393101D01*
X183047476Y-50878025D02*
X182552501Y-50383050D01*
X183542450Y-49393101D02*
X184037425Y-49888076D01*
X184037425Y-49888076D02*
X183047476Y-50878025D01*
%TO.C,L1*%
X148835028Y-49074903D02*
X150150246Y-47759685D01*
X149499708Y-49739583D02*
X148835028Y-49074903D01*
X150150246Y-47759685D02*
X150814926Y-48424365D01*
X150814926Y-48424365D02*
X149499708Y-49739583D01*
%TO.C,JP3*%
X176291919Y-69814280D02*
X177607137Y-68499062D01*
X176956599Y-70478960D02*
X176291919Y-69814280D01*
X177607137Y-68499062D02*
X178271817Y-69163742D01*
X178271817Y-69163742D02*
X176956599Y-70478960D01*
%TO.C,L4*%
X123211240Y-84903939D02*
X123706215Y-84408964D01*
X123706215Y-84408964D02*
X124696164Y-85398913D01*
X124201189Y-85893888D02*
X123211240Y-84903939D01*
X124696164Y-85398913D02*
X124201189Y-85893888D01*
%TO.C,C20*%
X172402867Y-108202211D02*
X173802867Y-108202211D01*
X172402867Y-108902211D02*
X172402867Y-108202211D01*
X173802867Y-108202211D02*
X173802867Y-108902211D01*
X173802867Y-108902211D02*
X172402867Y-108902211D01*
%TO.C,MK1*%
X109285696Y-47893761D02*
X105885696Y-47893761D01*
X105885696Y-43493763D01*
X109285696Y-43493763D01*
X109285696Y-47893761D01*
%TO.C,L2*%
X153414393Y-115107091D02*
X153909368Y-114612116D01*
X153909368Y-114612116D02*
X154899317Y-115602065D01*
X154404342Y-116097040D02*
X153414393Y-115107091D01*
X154899317Y-115602065D02*
X154404342Y-116097040D01*
%TO.C,TP2*%
X121347458Y-72819484D02*
G75*
G02*
X119347458Y-72819484I-1000000J0D01*
G01*
X119347458Y-72819484D02*
G75*
G02*
X121347458Y-72819484I1000000J0D01*
G01*
%TO.C,R2*%
X178073828Y-84083695D02*
X178568803Y-83588720D01*
X178568803Y-83588720D02*
X179558752Y-84578669D01*
X179063777Y-85073644D02*
X178073828Y-84083695D01*
X179558752Y-84578669D02*
X179063777Y-85073644D01*
%TO.C,L18*%
X155528642Y-86424218D02*
X156023617Y-85929243D01*
X156023617Y-85929243D02*
X157013566Y-86919192D01*
X156518591Y-87414167D02*
X155528642Y-86424218D01*
X157013566Y-86919192D02*
X156518591Y-87414167D01*
%TO.C,R2*%
X178073828Y-51334958D02*
X178568803Y-50839983D01*
X178568803Y-50839983D02*
X179558752Y-51829932D01*
X179063777Y-52324907D02*
X178073828Y-51334958D01*
X179558752Y-51829932D02*
X179063777Y-52324907D01*
%TO.C,C17*%
X146237294Y-101378631D02*
X147637294Y-101378631D01*
X146237294Y-102078631D02*
X146237294Y-101378631D01*
X147637294Y-101378631D02*
X147637294Y-102078631D01*
X147637294Y-102078631D02*
X146237294Y-102078631D01*
%TO.C,Y2*%
X120611774Y-83718686D02*
X119621825Y-84708635D01*
X119056140Y-84142950D01*
X120046089Y-83153001D01*
X120611774Y-83718686D01*
%TO.C,JP1*%
X170217871Y-86820199D02*
X171985638Y-88587966D01*
X170217871Y-86820199D02*
X172551324Y-84486746D01*
X174319091Y-86254513D02*
X171985638Y-88587966D01*
X174319091Y-86254513D02*
X172551324Y-84486746D01*
%TO.C,L6*%
X123755712Y-86395933D02*
X124745661Y-85405984D01*
X124250687Y-86890908D02*
X123755712Y-86395933D01*
X124745661Y-85405984D02*
X125240636Y-85900959D01*
X125240636Y-85900959D02*
X124250687Y-86890908D01*
%TO.C,U2*%
X107265982Y-116528376D02*
X109528723Y-118791117D01*
X109245881Y-114548477D02*
X107265982Y-116528376D01*
X109245881Y-114548477D02*
X111508622Y-116811218D01*
X109528723Y-118791117D02*
X111508622Y-116811218D01*
%TO.C,Y1*%
X150433569Y-46063109D02*
X151564940Y-47194480D01*
X151564940Y-47194480D02*
X152837733Y-45921687D01*
X151706362Y-44790316D02*
X150433569Y-46063109D01*
X152837733Y-45921687D02*
X151706362Y-44790316D01*
%TO.C,JP2*%
X144207863Y-103227697D02*
X145523081Y-101912479D01*
X144872543Y-103892377D02*
X144207863Y-103227697D01*
X145523081Y-101912479D02*
X146187761Y-102577159D01*
X146187761Y-102577159D02*
X144872543Y-103892377D01*
%TO.C,MK1*%
X142034433Y-47893761D02*
X138634433Y-47893761D01*
X138634433Y-43493763D01*
X142034433Y-43493763D01*
X142034433Y-47893761D01*
%TO.C,Y2*%
X186109248Y-116467423D02*
X185119299Y-117457372D01*
X184553614Y-116891687D01*
X185543563Y-115901738D01*
X186109248Y-116467423D01*
%TO.C,C17*%
X178986031Y-35881157D02*
X180386031Y-35881157D01*
X178986031Y-36581157D02*
X178986031Y-35881157D01*
X180386031Y-35881157D02*
X180386031Y-36581157D01*
X180386031Y-36581157D02*
X178986031Y-36581157D01*
%TO.C,MK1*%
X109285696Y-80642498D02*
X105885696Y-80642498D01*
X105885696Y-76242500D01*
X109285696Y-76242500D01*
X109285696Y-80642498D01*
%TO.C,C4*%
X140198567Y-115255583D02*
X141188516Y-114265634D01*
X140693542Y-115750558D02*
X140198567Y-115255583D01*
X141188516Y-114265634D02*
X141683491Y-114760609D01*
X141683491Y-114760609D02*
X140693542Y-115750558D01*
%TO.C,Y1*%
X183182306Y-46063109D02*
X184313677Y-47194480D01*
X184313677Y-47194480D02*
X185586470Y-45921687D01*
X184455099Y-44790316D02*
X183182306Y-46063109D01*
X185586470Y-45921687D02*
X184455099Y-44790316D01*
%TO.C,C16*%
X178650138Y-103312586D02*
X179350138Y-103312586D01*
X178650138Y-104712586D02*
X178650138Y-103312586D01*
X179350138Y-103312586D02*
X179350138Y-104712586D01*
X179350138Y-104712586D02*
X178650138Y-104712586D01*
%TO.C,R4*%
X174524152Y-48350967D02*
X175839370Y-47035749D01*
X175188832Y-49015647D02*
X174524152Y-48350967D01*
X175839370Y-47035749D02*
X176504050Y-47700429D01*
X176504050Y-47700429D02*
X175188832Y-49015647D01*
%TO.C,C20*%
X106905393Y-42704737D02*
X108305393Y-42704737D01*
X106905393Y-43404737D02*
X106905393Y-42704737D01*
X108305393Y-42704737D02*
X108305393Y-43404737D01*
X108305393Y-43404737D02*
X106905393Y-43404737D01*
%TO.C,C12*%
X150807856Y-115894667D02*
X151302831Y-115399692D01*
X151302831Y-115399692D02*
X152292780Y-116389641D01*
X151797805Y-116884616D02*
X150807856Y-115894667D01*
X152292780Y-116389641D02*
X151797805Y-116884616D01*
%TO.C,Y2*%
X186109248Y-50969949D02*
X185119299Y-51959898D01*
X184553614Y-51394213D01*
X185543563Y-50404264D01*
X186109248Y-50969949D01*
%TO.C,TP2*%
X121347458Y-105568221D02*
G75*
G02*
X119347458Y-105568221I-1000000J0D01*
G01*
X119347458Y-105568221D02*
G75*
G02*
X121347458Y-105568221I1000000J0D01*
G01*
%TO.C,C2*%
X117564144Y-50892168D02*
X118059119Y-50397193D01*
X118059119Y-50397193D02*
X119049068Y-51387142D01*
X118554093Y-51882117D02*
X117564144Y-50892168D01*
X119049068Y-51387142D02*
X118554093Y-51882117D01*
%TO.C,C9*%
X122348570Y-84988791D02*
X123338519Y-83998842D01*
X122843545Y-85483766D02*
X122348570Y-84988791D01*
X123338519Y-83998842D02*
X123833494Y-84493817D01*
X123833494Y-84493817D02*
X122843545Y-85483766D01*
%TO.C,J1*%
X187097623Y-39540595D02*
X191097623Y-39540595D01*
X187097623Y-46540595D02*
X187097623Y-39540595D01*
X191097623Y-39540595D02*
X191097623Y-46540595D01*
X191097623Y-46540595D02*
X187097623Y-46540595D01*
%TO.C,SW1*%
X177571782Y-78476338D02*
X181602291Y-74445829D01*
X180188077Y-81092633D02*
X177571782Y-78476338D01*
X181602291Y-74445829D02*
X184218586Y-77062124D01*
X184218586Y-77062124D02*
X180188077Y-81092633D01*
%TO.C,C15*%
X147715148Y-68636965D02*
X149115148Y-68636965D01*
X147715148Y-69336965D02*
X147715148Y-68636965D01*
X149115148Y-68636965D02*
X149115148Y-69336965D01*
X149115148Y-69336965D02*
X147715148Y-69336965D01*
%TO.C,L3*%
X121938448Y-116379884D02*
X122433423Y-115884909D01*
X122433423Y-115884909D02*
X123423372Y-116874858D01*
X122928397Y-117369833D02*
X121938448Y-116379884D01*
X123423372Y-116874858D02*
X122928397Y-117369833D01*
%TO.C,SW1*%
X144823045Y-45727601D02*
X148853554Y-41697092D01*
X147439340Y-48343896D02*
X144823045Y-45727601D01*
X148853554Y-41697092D02*
X151469849Y-44313387D01*
X151469849Y-44313387D02*
X147439340Y-48343896D01*
%TO.C,C12*%
X183556593Y-83145930D02*
X184051568Y-82650955D01*
X184051568Y-82650955D02*
X185041517Y-83640904D01*
X184546542Y-84135879D02*
X183556593Y-83145930D01*
X185041517Y-83640904D02*
X184546542Y-84135879D01*
%TO.C,C8*%
X120439977Y-112504343D02*
X120934952Y-112009368D01*
X120934952Y-112009368D02*
X121924901Y-112999317D01*
X121429926Y-113494292D02*
X120439977Y-112504343D01*
X121924901Y-112999317D02*
X121429926Y-113494292D01*
%TO.C,C11*%
X150228028Y-80586203D02*
X151217977Y-79596254D01*
X150723003Y-81081178D02*
X150228028Y-80586203D01*
X151217977Y-79596254D02*
X151712952Y-80091229D01*
X151712952Y-80091229D02*
X150723003Y-81081178D01*
%TO.C,L2*%
X186163130Y-49609617D02*
X186658105Y-49114642D01*
X186658105Y-49114642D02*
X187648054Y-50104591D01*
X187153079Y-50599566D02*
X186163130Y-49609617D01*
X187648054Y-50104591D02*
X187153079Y-50599566D01*
%TO.C,R2*%
X178073828Y-116832432D02*
X178568803Y-116337457D01*
X178568803Y-116337457D02*
X179558752Y-117327406D01*
X179063777Y-117822381D02*
X178073828Y-116832432D01*
X179558752Y-117327406D02*
X179063777Y-117822381D01*
%TO.C,JP2*%
X176956600Y-70478960D02*
X178271818Y-69163742D01*
X177621280Y-71143640D02*
X176956600Y-70478960D01*
X178271818Y-69163742D02*
X178936498Y-69828422D01*
X178936498Y-69828422D02*
X177621280Y-71143640D01*
%TO.C,R4*%
X141775415Y-113848441D02*
X143090633Y-112533223D01*
X142440095Y-114513121D02*
X141775415Y-113848441D01*
X143090633Y-112533223D02*
X143755313Y-113197903D01*
X143755313Y-113197903D02*
X142440095Y-114513121D01*
%TO.C,U1*%
X183472588Y-113812378D02*
X185381776Y-111903190D01*
X185381776Y-111903190D02*
X187432386Y-113953800D01*
X185523198Y-115862988D02*
X183472588Y-113812378D01*
X187432386Y-113953800D02*
X185523198Y-115862988D01*
%TO.C,L18*%
X155528642Y-119172955D02*
X156023617Y-118677980D01*
X156023617Y-118677980D02*
X157013566Y-119667929D01*
X156518591Y-120162904D02*
X155528642Y-119172955D01*
X157013566Y-119667929D02*
X156518591Y-120162904D01*
%TO.C,C11*%
X150228028Y-47837466D02*
X151217977Y-46847517D01*
X150723003Y-48332441D02*
X150228028Y-47837466D01*
X151217977Y-46847517D02*
X151712952Y-47342492D01*
X151712952Y-47342492D02*
X150723003Y-48332441D01*
%TO.C,U1*%
X117975114Y-113812378D02*
X119884302Y-111903190D01*
X119884302Y-111903190D02*
X121934912Y-113953800D01*
X120025724Y-115862988D02*
X117975114Y-113812378D01*
X121934912Y-113953800D02*
X120025724Y-115862988D01*
%TO.C,KiKit_FID_T_1*%
X95977216Y-25000000D02*
G75*
G02*
X94777216Y-25000000I-600000J0D01*
G01*
X94777216Y-25000000D02*
G75*
G02*
X95977216Y-25000000I600000J0D01*
G01*
%TO.C,C1*%
X183068689Y-81668077D02*
X183563664Y-81173102D01*
X183563664Y-81173102D02*
X184553613Y-82163051D01*
X184058638Y-82658026D02*
X183068689Y-81668077D01*
X184553613Y-82163051D02*
X184058638Y-82658026D01*
%TO.C,C9*%
X122348570Y-52240054D02*
X123338519Y-51250105D01*
X122843545Y-52735029D02*
X122348570Y-52240054D01*
X123338519Y-51250105D02*
X123833494Y-51745080D01*
X123833494Y-51745080D02*
X122843545Y-52735029D01*
%TO.C,R4*%
X174524152Y-113848441D02*
X175839370Y-112533223D01*
X175188832Y-114513121D02*
X174524152Y-113848441D01*
X175839370Y-112533223D02*
X176504050Y-113197903D01*
X176504050Y-113197903D02*
X175188832Y-114513121D01*
%TO.C,Q1*%
X109351948Y-45692246D02*
X110200476Y-44843718D01*
X110200476Y-44843718D02*
X111331846Y-45975088D01*
X110483318Y-46823616D02*
X109351948Y-45692246D01*
X111331846Y-45975088D02*
X110483318Y-46823616D01*
%TO.C,JP2*%
X176956600Y-37730223D02*
X178271818Y-36415005D01*
X177621280Y-38394903D02*
X176956600Y-37730223D01*
X178271818Y-36415005D02*
X178936498Y-37079685D01*
X178936498Y-37079685D02*
X177621280Y-38394903D01*
%TO.C,L18*%
X155528642Y-53675481D02*
X156023617Y-53180506D01*
X156023617Y-53180506D02*
X157013566Y-54170455D01*
X156518591Y-54665430D02*
X155528642Y-53675481D01*
X157013566Y-54170455D02*
X156518591Y-54665430D01*
%TO.C,Y2*%
X186109248Y-83718686D02*
X185119299Y-84708635D01*
X184553614Y-84142950D01*
X185543563Y-83153001D01*
X186109248Y-83718686D01*
%TO.C,Y1*%
X117684832Y-111560583D02*
X118816203Y-112691954D01*
X118816203Y-112691954D02*
X120088996Y-111419161D01*
X118957625Y-110287790D02*
X117684832Y-111560583D01*
X120088996Y-111419161D02*
X118957625Y-110287790D01*
%TO.C,SW1*%
X112074308Y-78476338D02*
X116104817Y-74445829D01*
X114690603Y-81092633D02*
X112074308Y-78476338D01*
X116104817Y-74445829D02*
X118721112Y-77062124D01*
X118721112Y-77062124D02*
X114690603Y-81092633D01*
%TO.C,C11*%
X117479291Y-113334940D02*
X118469240Y-112344991D01*
X117974266Y-113829915D02*
X117479291Y-113334940D01*
X118469240Y-112344991D02*
X118964215Y-112839966D01*
X118964215Y-112839966D02*
X117974266Y-113829915D01*
%TO.C,C6*%
X121075778Y-116464736D02*
X122065727Y-115474787D01*
X121570753Y-116959711D02*
X121075778Y-116464736D01*
X122065727Y-115474787D02*
X122560702Y-115969762D01*
X122560702Y-115969762D02*
X121570753Y-116959711D01*
%TO.C,C11*%
X117479291Y-80586203D02*
X118469240Y-79596254D01*
X117974266Y-81081178D02*
X117479291Y-80586203D01*
X118469240Y-79596254D02*
X118964215Y-80091229D01*
X118964215Y-80091229D02*
X117974266Y-81081178D01*
%TO.C,JP1*%
X104720397Y-86820199D02*
X106488164Y-88587966D01*
X104720397Y-86820199D02*
X107053850Y-84486746D01*
X108821617Y-86254513D02*
X106488164Y-88587966D01*
X108821617Y-86254513D02*
X107053850Y-84486746D01*
%TO.C,L4*%
X123211240Y-52155202D02*
X123706215Y-51660227D01*
X123706215Y-51660227D02*
X124696164Y-52650176D01*
X124201189Y-53145151D02*
X123211240Y-52155202D01*
X124696164Y-52650176D02*
X124201189Y-53145151D01*
%TO.C,R1*%
X175662594Y-44695225D02*
X176327274Y-44030545D01*
X176327274Y-44030545D02*
X177642492Y-45345763D01*
X176977812Y-46010443D02*
X175662594Y-44695225D01*
X177642492Y-45345763D02*
X176977812Y-46010443D01*
%TO.C,U2*%
X172763456Y-83779639D02*
X175026197Y-86042380D01*
X174743355Y-81799740D02*
X172763456Y-83779639D01*
X174743355Y-81799740D02*
X177006096Y-84062481D01*
X175026197Y-86042380D02*
X177006096Y-84062481D01*
%TO.C,R2*%
X145325091Y-84083695D02*
X145820066Y-83588720D01*
X145820066Y-83588720D02*
X146810015Y-84578669D01*
X146315040Y-85073644D02*
X145325091Y-84083695D01*
X146810015Y-84578669D02*
X146315040Y-85073644D01*
%TO.C,C11*%
X182976765Y-113334940D02*
X183966714Y-112344991D01*
X183471740Y-113829915D02*
X182976765Y-113334940D01*
X183966714Y-112344991D02*
X184461689Y-112839966D01*
X184461689Y-112839966D02*
X183471740Y-113829915D01*
%TO.C,U1*%
X117975114Y-81063641D02*
X119884302Y-79154453D01*
X119884302Y-79154453D02*
X121934912Y-81205063D01*
X120025724Y-83114251D02*
X117975114Y-81063641D01*
X121934912Y-81205063D02*
X120025724Y-83114251D01*
%TO.C,C8*%
X185937451Y-79755606D02*
X186432426Y-79260631D01*
X186432426Y-79260631D02*
X187422375Y-80250580D01*
X186927400Y-80745555D02*
X185937451Y-79755606D01*
X187422375Y-80250580D02*
X186927400Y-80745555D01*
%TO.C,L7*%
X122263717Y-120636666D02*
X123253666Y-119646717D01*
X122758692Y-121131641D02*
X122263717Y-120636666D01*
X123253666Y-119646717D02*
X123748641Y-120141692D01*
X123748641Y-120141692D02*
X122758692Y-121131641D01*
%TO.C,D1*%
X175796944Y-42015290D02*
X177889980Y-39922254D01*
X176829320Y-43047666D02*
X175796944Y-42015290D01*
X177889980Y-39922254D02*
X178922356Y-40954630D01*
X178922356Y-40954630D02*
X176829320Y-43047666D01*
%TO.C,U2*%
X107265982Y-51030902D02*
X109528723Y-53293643D01*
X109245881Y-49051003D02*
X107265982Y-51030902D01*
X109245881Y-49051003D02*
X111508622Y-51313744D01*
X109528723Y-53293643D02*
X111508622Y-51313744D01*
%TO.C,L1*%
X116086291Y-114572377D02*
X117401509Y-113257159D01*
X116750971Y-115237057D02*
X116086291Y-114572377D01*
X117401509Y-113257159D02*
X118066189Y-113921839D01*
X118066189Y-113921839D02*
X116750971Y-115237057D01*
%TO.C,R3*%
X113071329Y-116337457D02*
X113566304Y-115842482D01*
X113566304Y-115842482D02*
X114556253Y-116832431D01*
X114061278Y-117327406D02*
X113071329Y-116337457D01*
X114556253Y-116832431D02*
X114061278Y-117327406D01*
%TO.C,AE1*%
X188588506Y-89450635D02*
X190851247Y-87187894D01*
X190144141Y-91006270D02*
X188588506Y-89450635D01*
X190851247Y-87187894D02*
X192406882Y-88743529D01*
X192389205Y-88761206D02*
X190144141Y-91006270D01*
%TO.C,L6*%
X123755712Y-53647196D02*
X124745661Y-52657247D01*
X124250687Y-54142171D02*
X123755712Y-53647196D01*
X124745661Y-52657247D02*
X125240636Y-53152222D01*
X125240636Y-53152222D02*
X124250687Y-54142171D01*
%TO.C,C6*%
X186573252Y-116464736D02*
X187563201Y-115474787D01*
X187068227Y-116959711D02*
X186573252Y-116464736D01*
X187563201Y-115474787D02*
X188058176Y-115969762D01*
X188058176Y-115969762D02*
X187068227Y-116959711D01*
%TO.C,C10*%
X116373518Y-47396373D02*
X117660452Y-46109439D01*
X117024056Y-48046911D02*
X116373518Y-47396373D01*
X117660452Y-46109439D02*
X118310990Y-46759977D01*
X118310990Y-46759977D02*
X117024056Y-48046911D01*
%TO.C,Y2*%
X153360511Y-116467423D02*
X152370562Y-117457372D01*
X151804877Y-116891687D01*
X152794826Y-115901738D01*
X153360511Y-116467423D01*
%TO.C,J1*%
X121600149Y-39540595D02*
X125600149Y-39540595D01*
X121600149Y-46540595D02*
X121600149Y-39540595D01*
X125600149Y-39540595D02*
X125600149Y-46540595D01*
X125600149Y-46540595D02*
X121600149Y-46540595D01*
%TO.C,C5*%
X184058639Y-115406763D02*
X184553614Y-114911788D01*
X184553614Y-114911788D02*
X185543563Y-115901737D01*
X185048588Y-116396712D02*
X184058639Y-115406763D01*
X185543563Y-115901737D02*
X185048588Y-116396712D01*
%TO.C,TP2*%
X154096195Y-40070747D02*
G75*
G02*
X152096195Y-40070747I-1000000J0D01*
G01*
X152096195Y-40070747D02*
G75*
G02*
X154096195Y-40070747I1000000J0D01*
G01*
%TO.C,D1*%
X143048207Y-74764027D02*
X145141243Y-72670991D01*
X144080583Y-75796403D02*
X143048207Y-74764027D01*
X145141243Y-72670991D02*
X146173619Y-73703367D01*
X146173619Y-73703367D02*
X144080583Y-75796403D01*
%TO.C,R2*%
X112576354Y-84083695D02*
X113071329Y-83588720D01*
X113071329Y-83588720D02*
X114061278Y-84578669D01*
X113566303Y-85073644D02*
X112576354Y-84083695D01*
X114061278Y-84578669D02*
X113566303Y-85073644D01*
%TO.C,L6*%
X189253186Y-86395933D02*
X190243135Y-85405984D01*
X189748161Y-86890908D02*
X189253186Y-86395933D01*
X190243135Y-85405984D02*
X190738110Y-85900959D01*
X190738110Y-85900959D02*
X189748161Y-86890908D01*
%TO.C,L4*%
X123211240Y-117652676D02*
X123706215Y-117157701D01*
X123706215Y-117157701D02*
X124696164Y-118147650D01*
X124201189Y-118642625D02*
X123211240Y-117652676D01*
X124696164Y-118147650D02*
X124201189Y-118642625D01*
%TO.C,C15*%
X180463885Y-68636965D02*
X181863885Y-68636965D01*
X180463885Y-69336965D02*
X180463885Y-68636965D01*
X181863885Y-68636965D02*
X181863885Y-69336965D01*
X181863885Y-69336965D02*
X180463885Y-69336965D01*
%TO.C,TP1*%
X119933244Y-41484960D02*
G75*
G02*
X117933244Y-41484960I-1000000J0D01*
G01*
X117933244Y-41484960D02*
G75*
G02*
X119933244Y-41484960I1000000J0D01*
G01*
%TO.C,C6*%
X153824515Y-50967262D02*
X154814464Y-49977313D01*
X154319490Y-51462237D02*
X153824515Y-50967262D01*
X154814464Y-49977313D02*
X155309439Y-50472288D01*
X155309439Y-50472288D02*
X154319490Y-51462237D01*
%TO.C,J1*%
X154348886Y-105038069D02*
X158348886Y-105038069D01*
X154348886Y-112038069D02*
X154348886Y-105038069D01*
X158348886Y-105038069D02*
X158348886Y-112038069D01*
X158348886Y-112038069D02*
X154348886Y-112038069D01*
%TO.C,L1*%
X116086291Y-49074903D02*
X117401509Y-47759685D01*
X116750971Y-49739583D02*
X116086291Y-49074903D01*
X117401509Y-47759685D02*
X118066189Y-48424365D01*
X118066189Y-48424365D02*
X116750971Y-49739583D01*
%TO.C,U2*%
X172763456Y-116528376D02*
X175026197Y-118791117D01*
X174743355Y-114548477D02*
X172763456Y-116528376D01*
X174743355Y-114548477D02*
X177006096Y-116811218D01*
X175026197Y-118791117D02*
X177006096Y-116811218D01*
%TO.C,TP2*%
X121347458Y-40070747D02*
G75*
G02*
X119347458Y-40070747I-1000000J0D01*
G01*
X119347458Y-40070747D02*
G75*
G02*
X121347458Y-40070747I1000000J0D01*
G01*
%TO.C,SW1*%
X144823045Y-111225075D02*
X148853554Y-107194566D01*
X147439340Y-113841370D02*
X144823045Y-111225075D01*
X148853554Y-107194566D02*
X151469849Y-109810861D01*
X151469849Y-109810861D02*
X147439340Y-113841370D01*
%TO.C,JP2*%
X111459126Y-103227697D02*
X112774344Y-101912479D01*
X112123806Y-103892377D02*
X111459126Y-103227697D01*
X112774344Y-101912479D02*
X113439024Y-102577159D01*
X113439024Y-102577159D02*
X112123806Y-103892377D01*
%TO.C,SW1*%
X177571782Y-111225075D02*
X181602291Y-107194566D01*
X180188077Y-113841370D02*
X177571782Y-111225075D01*
X181602291Y-107194566D02*
X184218586Y-109810861D01*
X184218586Y-109810861D02*
X180188077Y-113841370D01*
%TO.C,C8*%
X120439977Y-47006869D02*
X120934952Y-46511894D01*
X120934952Y-46511894D02*
X121924901Y-47501843D01*
X121429926Y-47996818D02*
X120439977Y-47006869D01*
X121924901Y-47501843D02*
X121429926Y-47996818D01*
%TO.C,C9*%
X187846044Y-52240054D02*
X188835993Y-51250105D01*
X188341019Y-52735029D02*
X187846044Y-52240054D01*
X188835993Y-51250105D02*
X189330968Y-51745080D01*
X189330968Y-51745080D02*
X188341019Y-52735029D01*
%TO.C,MK1*%
X142034433Y-113391235D02*
X138634433Y-113391235D01*
X138634433Y-108991237D01*
X142034433Y-108991237D01*
X142034433Y-113391235D01*
%TO.C,C9*%
X187846044Y-117737528D02*
X188835993Y-116747579D01*
X188341019Y-118232503D02*
X187846044Y-117737528D01*
X188835993Y-116747579D02*
X189330968Y-117242554D01*
X189330968Y-117242554D02*
X188341019Y-118232503D01*
%TO.C,L7*%
X155012454Y-55139192D02*
X156002403Y-54149243D01*
X155507429Y-55634167D02*
X155012454Y-55139192D01*
X156002403Y-54149243D02*
X156497378Y-54644218D01*
X156497378Y-54644218D02*
X155507429Y-55634167D01*
%TO.C,C6*%
X153824515Y-83715999D02*
X154814464Y-82726050D01*
X154319490Y-84210974D02*
X153824515Y-83715999D01*
X154814464Y-82726050D02*
X155309439Y-83221025D01*
X155309439Y-83221025D02*
X154319490Y-84210974D01*
X121075778Y-83715999D02*
X122065727Y-82726050D01*
X121570753Y-84210974D02*
X121075778Y-83715999D01*
X122065727Y-82726050D02*
X122560702Y-83221025D01*
X122560702Y-83221025D02*
X121570753Y-84210974D01*
%TO.C,JP1*%
X104720397Y-54071462D02*
X106488164Y-55839229D01*
X104720397Y-54071462D02*
X107053850Y-51738009D01*
X108821617Y-53505776D02*
X106488164Y-55839229D01*
X108821617Y-53505776D02*
X107053850Y-51738009D01*
%TO.C,R1*%
X110165120Y-44695225D02*
X110829800Y-44030545D01*
X110829800Y-44030545D02*
X112145018Y-45345763D01*
X111480338Y-46010443D02*
X110165120Y-44695225D01*
X112145018Y-45345763D02*
X111480338Y-46010443D01*
%TO.C,C5*%
X151309902Y-115406763D02*
X151804877Y-114911788D01*
X151804877Y-114911788D02*
X152794826Y-115901737D01*
X152299851Y-116396712D02*
X151309902Y-115406763D01*
X152794826Y-115901737D02*
X152299851Y-116396712D01*
%TO.C,U2*%
X172763456Y-51030902D02*
X175026197Y-53293643D01*
X174743355Y-49051003D02*
X172763456Y-51030902D01*
X174743355Y-49051003D02*
X177006096Y-51313744D01*
X175026197Y-53293643D02*
X177006096Y-51313744D01*
%TO.C,AE1*%
X188588506Y-56701898D02*
X190851247Y-54439157D01*
X190144141Y-58257533D02*
X188588506Y-56701898D01*
X190851247Y-54439157D02*
X192406882Y-55994792D01*
X192389205Y-56012469D02*
X190144141Y-58257533D01*
%TO.C,J1*%
X154348886Y-72289332D02*
X158348886Y-72289332D01*
X154348886Y-79289332D02*
X154348886Y-72289332D01*
X158348886Y-72289332D02*
X158348886Y-79289332D01*
X158348886Y-79289332D02*
X154348886Y-79289332D01*
%TO.C,L3*%
X154687185Y-116379884D02*
X155182160Y-115884909D01*
X155182160Y-115884909D02*
X156172109Y-116874858D01*
X155677134Y-117369833D02*
X154687185Y-116379884D01*
X156172109Y-116874858D02*
X155677134Y-117369833D01*
%TO.C,C4*%
X172947304Y-49758109D02*
X173937253Y-48768160D01*
X173442279Y-50253084D02*
X172947304Y-49758109D01*
X173937253Y-48768160D02*
X174432228Y-49263135D01*
X174432228Y-49263135D02*
X173442279Y-50253084D01*
%TO.C,JP1*%
X137469134Y-86820199D02*
X139236901Y-88587966D01*
X137469134Y-86820199D02*
X139802587Y-84486746D01*
X141570354Y-86254513D02*
X139236901Y-88587966D01*
X141570354Y-86254513D02*
X139802587Y-84486746D01*
%TO.C,C8*%
X185937451Y-112504343D02*
X186432426Y-112009368D01*
X186432426Y-112009368D02*
X187422375Y-112999317D01*
X186927400Y-113494292D02*
X185937451Y-112504343D01*
X187422375Y-112999317D02*
X186927400Y-113494292D01*
%TO.C,C11*%
X150228028Y-113334940D02*
X151217977Y-112344991D01*
X150723003Y-113829915D02*
X150228028Y-113334940D01*
X151217977Y-112344991D02*
X151712952Y-112839966D01*
X151712952Y-112839966D02*
X150723003Y-113829915D01*
%TO.C,JP2*%
X144207863Y-70478960D02*
X145523081Y-69163742D01*
X144872543Y-71143640D02*
X144207863Y-70478960D01*
X145523081Y-69163742D02*
X146187761Y-69828422D01*
X146187761Y-69828422D02*
X144872543Y-71143640D01*
%TO.C,C16*%
X145901401Y-103312586D02*
X146601401Y-103312586D01*
X145901401Y-104712586D02*
X145901401Y-103312586D01*
X146601401Y-103312586D02*
X146601401Y-104712586D01*
X146601401Y-104712586D02*
X145901401Y-104712586D01*
%TO.C,C3*%
X175294899Y-85773679D02*
X176284848Y-84783730D01*
X175789874Y-86268654D02*
X175294899Y-85773679D01*
X176284848Y-84783730D02*
X176779823Y-85278705D01*
X176779823Y-85278705D02*
X175789874Y-86268654D01*
%TO.C,Q1*%
X109351948Y-111189720D02*
X110200476Y-110341192D01*
X110200476Y-110341192D02*
X111331846Y-111472562D01*
X110483318Y-112321090D02*
X109351948Y-111189720D01*
X111331846Y-111472562D02*
X110483318Y-112321090D01*
%TO.C,U3*%
X182295184Y-39249426D02*
X179495184Y-39249426D01*
X179495184Y-36649426D01*
X182295184Y-36649426D01*
X182295184Y-39249426D01*
%TO.C,C8*%
X185937451Y-47006869D02*
X186432426Y-46511894D01*
X186432426Y-46511894D02*
X187422375Y-47501843D01*
X186927400Y-47996818D02*
X185937451Y-47006869D01*
X187422375Y-47501843D02*
X186927400Y-47996818D01*
%TO.C,TP1*%
X185430718Y-41484960D02*
G75*
G02*
X183430718Y-41484960I-1000000J0D01*
G01*
X183430718Y-41484960D02*
G75*
G02*
X185430718Y-41484960I1000000J0D01*
G01*
%TO.C,C1*%
X150319952Y-114416814D02*
X150814927Y-113921839D01*
X150814927Y-113921839D02*
X151804876Y-114911788D01*
X151309901Y-115406763D02*
X150319952Y-114416814D01*
X151804876Y-114911788D02*
X151309901Y-115406763D01*
%TO.C,FB1*%
X117055027Y-50383050D02*
X118044976Y-49393101D01*
X117550002Y-50878025D02*
X117055027Y-50383050D01*
X118044976Y-49393101D02*
X118539951Y-49888076D01*
X118539951Y-49888076D02*
X117550002Y-50878025D01*
%TO.C,L18*%
X188277379Y-53675481D02*
X188772354Y-53180506D01*
X188772354Y-53180506D02*
X189762303Y-54170455D01*
X189267328Y-54665430D02*
X188277379Y-53675481D01*
X189762303Y-54170455D02*
X189267328Y-54665430D01*
%TO.C,L2*%
X120665656Y-82358354D02*
X121160631Y-81863379D01*
X121160631Y-81863379D02*
X122150580Y-82853328D01*
X121655605Y-83348303D02*
X120665656Y-82358354D01*
X122150580Y-82853328D02*
X121655605Y-83348303D01*
%TO.C,JP1*%
X170217871Y-54071462D02*
X171985638Y-55839229D01*
X170217871Y-54071462D02*
X172551324Y-51738009D01*
X174319091Y-53505776D02*
X171985638Y-55839229D01*
X174319091Y-53505776D02*
X172551324Y-51738009D01*
%TO.C,Q1*%
X109351948Y-78440983D02*
X110200476Y-77592455D01*
X110200476Y-77592455D02*
X111331846Y-78723825D01*
X110483318Y-79572353D02*
X109351948Y-78440983D01*
X111331846Y-78723825D02*
X110483318Y-79572353D01*
%TO.C,C10*%
X149122255Y-47396373D02*
X150409189Y-46109439D01*
X149772793Y-48046911D02*
X149122255Y-47396373D01*
X150409189Y-46109439D02*
X151059727Y-46759977D01*
X151059727Y-46759977D02*
X149772793Y-48046911D01*
%TO.C,JP3*%
X143543182Y-37065543D02*
X144858400Y-35750325D01*
X144207862Y-37730223D02*
X143543182Y-37065543D01*
X144858400Y-35750325D02*
X145523080Y-36415005D01*
X145523080Y-36415005D02*
X144207862Y-37730223D01*
%TO.C,C8*%
X153188714Y-112504343D02*
X153683689Y-112009368D01*
X153683689Y-112009368D02*
X154673638Y-112999317D01*
X154178663Y-113494292D02*
X153188714Y-112504343D01*
X154673638Y-112999317D02*
X154178663Y-113494292D01*
%TO.C,MK1*%
X142034433Y-80642498D02*
X138634433Y-80642498D01*
X138634433Y-76242500D01*
X142034433Y-76242500D01*
X142034433Y-80642498D01*
%TO.C,C3*%
X142546162Y-53024942D02*
X143536111Y-52034993D01*
X143041137Y-53519917D02*
X142546162Y-53024942D01*
X143536111Y-52034993D02*
X144031086Y-52529968D01*
X144031086Y-52529968D02*
X143041137Y-53519917D01*
%TD*%
M02*
