%TF.GenerationSoftware,KiCad,Pcbnew,9.0.0-rc2-3baa6cd791~182~ubuntu24.04.1*%
%TF.CreationDate,2025-01-30T23:50:26-05:00*%
%TF.ProjectId,PCA20073_nRF54L15_Tiny_Board,50434132-3030-4373-935f-6e524635344c,rev?*%
%TF.SameCoordinates,Original*%
%TF.FileFunction,Paste,Bot*%
%TF.FilePolarity,Positive*%
%FSLAX46Y46*%
G04 Gerber Fmt 4.6, Leading zero omitted, Abs format (unit mm)*
G04 Created by KiCad (PCBNEW 9.0.0-rc2-3baa6cd791~182~ubuntu24.04.1) date 2025-01-30 23:50:26*
%MOMM*%
%LPD*%
G01*
G04 APERTURE LIST*
G04 Aperture macros list*
%AMRoundRect*
0 Rectangle with rounded corners*
0 $1 Rounding radius*
0 $2 $3 $4 $5 $6 $7 $8 $9 X,Y pos of 4 corners*
0 Add a 4 corners polygon primitive as box body*
4,1,4,$2,$3,$4,$5,$6,$7,$8,$9,$2,$3,0*
0 Add four circle primitives for the rounded corners*
1,1,$1+$1,$2,$3*
1,1,$1+$1,$4,$5*
1,1,$1+$1,$6,$7*
1,1,$1+$1,$8,$9*
0 Add four rect primitives between the rounded corners*
20,1,$1+$1,$2,$3,$4,$5,0*
20,1,$1+$1,$4,$5,$6,$7,0*
20,1,$1+$1,$6,$7,$8,$9,0*
20,1,$1+$1,$8,$9,$2,$3,0*%
G04 Aperture macros list end*
%ADD10C,0.000000*%
%ADD11RoundRect,0.250000X0.000000X3.181981X-3.181981X0.000000X0.000000X-3.181981X3.181981X0.000000X0*%
%ADD12RoundRect,0.125000X0.000000X1.237437X-1.237437X0.000000X0.000000X-1.237437X1.237437X0.000000X0*%
G04 APERTURE END LIST*
D10*
%TO.C,BT1*%
G36*
X147439340Y-41909224D02*
G01*
X147439340Y-41909224D01*
G75*
G02*
X148853554Y-41909224I707107J-707108D01*
G01*
X151257717Y-44313387D01*
G75*
G02*
X151257717Y-45727601I-707117J-707113D01*
G01*
X148853554Y-48131764D01*
G75*
G02*
X147439340Y-48131764I-707107J707108D01*
G01*
X145035177Y-45727601D01*
G75*
G02*
X145035177Y-44313387I707123J707101D01*
G01*
X147439340Y-41909224D01*
G37*
G36*
X180188077Y-41909224D02*
G01*
X180188077Y-41909224D01*
G75*
G02*
X181602291Y-41909224I707107J-707108D01*
G01*
X184006454Y-44313387D01*
G75*
G02*
X184006454Y-45727601I-707154J-707113D01*
G01*
X181602291Y-48131764D01*
G75*
G02*
X180188077Y-48131764I-707107J707108D01*
G01*
X177783914Y-45727601D01*
G75*
G02*
X177783914Y-44313387I707086J707101D01*
G01*
X180188077Y-41909224D01*
G37*
G36*
X114690603Y-41909224D02*
G01*
X114690603Y-41909224D01*
G75*
G02*
X116104817Y-41909224I707107J-707108D01*
G01*
X118508980Y-44313387D01*
G75*
G02*
X118508980Y-45727601I-707080J-707113D01*
G01*
X116104817Y-48131764D01*
G75*
G02*
X114690603Y-48131764I-707107J707108D01*
G01*
X112286440Y-45727601D01*
G75*
G02*
X112286440Y-44313387I707060J707101D01*
G01*
X114690603Y-41909224D01*
G37*
G36*
X147439340Y-74657961D02*
G01*
X147439340Y-74657961D01*
G75*
G02*
X148853554Y-74657961I707107J-707108D01*
G01*
X151257717Y-77062124D01*
G75*
G02*
X151257717Y-78476338I-707117J-707076D01*
G01*
X148853554Y-80880501D01*
G75*
G02*
X147439340Y-80880501I-707107J707108D01*
G01*
X145035177Y-78476338D01*
G75*
G02*
X145035177Y-77062124I707123J707138D01*
G01*
X147439340Y-74657961D01*
G37*
G36*
X180188077Y-107406698D02*
G01*
X180188077Y-107406698D01*
G75*
G02*
X181602291Y-107406698I707107J-707108D01*
G01*
X184006454Y-109810861D01*
G75*
G02*
X184006454Y-111225075I-707154J-707139D01*
G01*
X181602291Y-113629238D01*
G75*
G02*
X180188077Y-113629238I-707107J707108D01*
G01*
X177783914Y-111225075D01*
G75*
G02*
X177783914Y-109810861I707086J707075D01*
G01*
X180188077Y-107406698D01*
G37*
G36*
X180188077Y-74657961D02*
G01*
X180188077Y-74657961D01*
G75*
G02*
X181602291Y-74657961I707107J-707108D01*
G01*
X184006454Y-77062124D01*
G75*
G02*
X184006454Y-78476338I-707154J-707076D01*
G01*
X181602291Y-80880501D01*
G75*
G02*
X180188077Y-80880501I-707107J707108D01*
G01*
X177783914Y-78476338D01*
G75*
G02*
X177783914Y-77062124I707086J707138D01*
G01*
X180188077Y-74657961D01*
G37*
G36*
X114690603Y-107406698D02*
G01*
X114690603Y-107406698D01*
G75*
G02*
X116104817Y-107406698I707107J-707108D01*
G01*
X118508980Y-109810861D01*
G75*
G02*
X118508980Y-111225075I-707080J-707139D01*
G01*
X116104817Y-113629238D01*
G75*
G02*
X114690603Y-113629238I-707107J707108D01*
G01*
X112286440Y-111225075D01*
G75*
G02*
X112286440Y-109810861I707060J707075D01*
G01*
X114690603Y-107406698D01*
G37*
G36*
X147439340Y-107406698D02*
G01*
X147439340Y-107406698D01*
G75*
G02*
X148853554Y-107406698I707107J-707108D01*
G01*
X151257717Y-109810861D01*
G75*
G02*
X151257717Y-111225075I-707117J-707139D01*
G01*
X148853554Y-113629238D01*
G75*
G02*
X147439340Y-113629238I-707107J707108D01*
G01*
X145035177Y-111225075D01*
G75*
G02*
X145035177Y-109810861I707123J707075D01*
G01*
X147439340Y-107406698D01*
G37*
G36*
X114690603Y-74657961D02*
G01*
X114690603Y-74657961D01*
G75*
G02*
X116104817Y-74657961I707107J-707108D01*
G01*
X118508980Y-77062124D01*
G75*
G02*
X118508980Y-78476338I-707080J-707076D01*
G01*
X116104817Y-80880501D01*
G75*
G02*
X114690603Y-80880501I-707107J707108D01*
G01*
X112286440Y-78476338D01*
G75*
G02*
X112286440Y-77062124I707060J707138D01*
G01*
X114690603Y-74657961D01*
G37*
%TD*%
D11*
%TO.C,BT1*%
X157303480Y-35863461D03*
X138989414Y-54177527D03*
D12*
X149843503Y-45020494D03*
X148146447Y-43323438D03*
X148146447Y-46717550D03*
X146449391Y-45020494D03*
%TD*%
D11*
%TO.C,BT1*%
X190052217Y-35863461D03*
X171738151Y-54177527D03*
D12*
X182592240Y-45020494D03*
X180895184Y-43323438D03*
X180895184Y-46717550D03*
X179198128Y-45020494D03*
%TD*%
D11*
%TO.C,BT1*%
X124554743Y-35863461D03*
X106240677Y-54177527D03*
D12*
X117094766Y-45020494D03*
X115397710Y-43323438D03*
X115397710Y-46717550D03*
X113700654Y-45020494D03*
%TD*%
D11*
%TO.C,BT1*%
X157303480Y-68612198D03*
X138989414Y-86926264D03*
D12*
X149843503Y-77769231D03*
X148146447Y-76072175D03*
X148146447Y-79466287D03*
X146449391Y-77769231D03*
%TD*%
D11*
%TO.C,BT1*%
X190052217Y-101360935D03*
X171738151Y-119675001D03*
D12*
X182592240Y-110517968D03*
X180895184Y-108820912D03*
X180895184Y-112215024D03*
X179198128Y-110517968D03*
%TD*%
D11*
%TO.C,BT1*%
X190052217Y-68612198D03*
X171738151Y-86926264D03*
D12*
X182592240Y-77769231D03*
X180895184Y-76072175D03*
X180895184Y-79466287D03*
X179198128Y-77769231D03*
%TD*%
D11*
%TO.C,BT1*%
X124554743Y-101360935D03*
X106240677Y-119675001D03*
D12*
X117094766Y-110517968D03*
X115397710Y-108820912D03*
X115397710Y-112215024D03*
X113700654Y-110517968D03*
%TD*%
D11*
%TO.C,BT1*%
X157303480Y-101360935D03*
X138989414Y-119675001D03*
D12*
X149843503Y-110517968D03*
X148146447Y-108820912D03*
X148146447Y-112215024D03*
X146449391Y-110517968D03*
%TD*%
D11*
%TO.C,BT1*%
X124554743Y-68612198D03*
X106240677Y-86926264D03*
D12*
X117094766Y-77769231D03*
X115397710Y-76072175D03*
X115397710Y-79466287D03*
X113700654Y-77769231D03*
%TD*%
M02*
