%TF.GenerationSoftware,KiCad,Pcbnew,9.0.0-rc2-3baa6cd791~182~ubuntu24.04.1*%
%TF.CreationDate,2025-01-30T23:50:26-05:00*%
%TF.ProjectId,PCA20073_nRF54L15_Tiny_Board,50434132-3030-4373-935f-6e524635344c,rev?*%
%TF.SameCoordinates,Original*%
%TF.FileFunction,Soldermask,Top*%
%TF.FilePolarity,Negative*%
%FSLAX46Y46*%
G04 Gerber Fmt 4.6, Leading zero omitted, Abs format (unit mm)*
G04 Created by KiCad (PCBNEW 9.0.0-rc2-3baa6cd791~182~ubuntu24.04.1) date 2025-01-30 23:50:26*
%MOMM*%
%LPD*%
G01*
G04 APERTURE LIST*
G04 Aperture macros list*
%AMRoundRect*
0 Rectangle with rounded corners*
0 $1 Rounding radius*
0 $2 $3 $4 $5 $6 $7 $8 $9 X,Y pos of 4 corners*
0 Add a 4 corners polygon primitive as box body*
4,1,4,$2,$3,$4,$5,$6,$7,$8,$9,$2,$3,0*
0 Add four circle primitives for the rounded corners*
1,1,$1+$1,$2,$3*
1,1,$1+$1,$4,$5*
1,1,$1+$1,$6,$7*
1,1,$1+$1,$8,$9*
0 Add four rect primitives between the rounded corners*
20,1,$1+$1,$2,$3,$4,$5,0*
20,1,$1+$1,$4,$5,$6,$7,0*
20,1,$1+$1,$6,$7,$8,$9,0*
20,1,$1+$1,$8,$9,$2,$3,0*%
%AMRotRect*
0 Rectangle, with rotation*
0 The origin of the aperture is its center*
0 $1 length*
0 $2 width*
0 $3 Rotation angle, in degrees counterclockwise*
0 Add horizontal line*
21,1,$1,$2,0,0,$3*%
%AMFreePoly0*
4,1,23,0.499999,-0.750000,0.000000,-0.750000,0.000000,-0.745722,-0.065263,-0.745722,-0.191342,-0.711940,-0.304381,-0.646677,-0.396677,-0.554382,-0.461940,-0.441342,-0.495722,-0.315263,-0.495722,-0.250000,-0.500000,-0.250000,-0.500000,0.250000,-0.495722,0.250000,-0.495722,0.315263,-0.461940,0.441342,-0.396677,0.554382,-0.304381,0.646677,-0.191342,0.711940,-0.065263,0.745722,0.000000,0.745722,
0.000000,0.750000,0.499999,0.750000,0.499999,-0.750000,0.499999,-0.750000,$1*%
%AMFreePoly1*
4,1,23,0.000000,0.745722,0.065263,0.745722,0.191342,0.711940,0.304381,0.646677,0.396677,0.554382,0.461940,0.441342,0.495722,0.315263,0.495722,0.250000,0.500000,0.250000,0.500000,-0.250000,0.495722,-0.250000,0.495722,-0.315263,0.461940,-0.441342,0.396677,-0.554382,0.304381,-0.646677,0.191342,-0.711940,0.065263,-0.745722,0.000000,-0.745722,0.000000,-0.750000,-0.499999,-0.750000,
-0.499999,0.750000,0.000000,0.750000,0.000000,0.745722,0.000000,0.745722,$1*%
G04 Aperture macros list end*
%ADD10C,0.500000*%
%ADD11RoundRect,0.100000X0.021213X0.162635X-0.162635X-0.021213X-0.021213X-0.162635X0.162635X0.021213X0*%
%ADD12RoundRect,0.100000X-0.229810X0.088388X0.088388X-0.229810X0.229810X-0.088388X-0.088388X0.229810X0*%
%ADD13C,1.500000*%
%ADD14RoundRect,0.100000X-0.162635X0.021213X0.021213X-0.162635X0.162635X-0.021213X-0.021213X0.162635X0*%
%ADD15RoundRect,0.075000X-0.282843X0.530330X-0.530330X0.282843X0.282843X-0.530330X0.530330X-0.282843X0*%
%ADD16RoundRect,0.150000X0.000000X0.494975X-0.494975X0.000000X0.000000X-0.494975X0.494975X0.000000X0*%
%ADD17RotRect,0.250000X0.400000X45.000000*%
%ADD18RotRect,0.700000X0.400000X45.000000*%
%ADD19RoundRect,0.147500X0.017678X-0.226274X0.226274X-0.017678X-0.017678X0.226274X-0.226274X0.017678X0*%
%ADD20RoundRect,0.100000X0.162635X-0.021213X-0.021213X0.162635X-0.162635X0.021213X0.021213X-0.162635X0*%
%ADD21C,1.000000*%
%ADD22RoundRect,0.060000X-0.140000X-0.415000X0.140000X-0.415000X0.140000X0.415000X-0.140000X0.415000X0*%
%ADD23RoundRect,0.052500X-0.122500X1.097500X-0.122500X-1.097500X0.122500X-1.097500X0.122500X1.097500X0*%
%ADD24RoundRect,0.052500X0.597500X0.122500X-0.597500X0.122500X-0.597500X-0.122500X0.597500X-0.122500X0*%
%ADD25RoundRect,0.135000X-0.035355X0.226274X-0.226274X0.035355X0.035355X-0.226274X0.226274X-0.035355X0*%
%ADD26RoundRect,0.135000X-0.226274X-0.035355X-0.035355X-0.226274X0.226274X0.035355X0.035355X0.226274X0*%
%ADD27RoundRect,0.100000X-0.021213X-0.162635X0.162635X0.021213X0.021213X0.162635X-0.162635X-0.021213X0*%
%ADD28RoundRect,0.100000X0.130000X0.100000X-0.130000X0.100000X-0.130000X-0.100000X0.130000X-0.100000X0*%
%ADD29RoundRect,0.140000X-0.021213X0.219203X-0.219203X0.021213X0.021213X-0.219203X0.219203X-0.021213X0*%
%ADD30RotRect,0.575000X1.114000X45.000000*%
%ADD31C,0.990600*%
%ADD32C,0.787400*%
%ADD33RoundRect,0.218750X0.026517X-0.335876X0.335876X-0.026517X-0.026517X0.335876X-0.335876X0.026517X0*%
%ADD34RoundRect,0.033000X0.132000X-0.162000X0.132000X0.162000X-0.132000X0.162000X-0.132000X-0.162000X0*%
%ADD35RoundRect,0.033000X0.162000X-0.132000X0.162000X0.132000X-0.162000X0.132000X-0.162000X-0.132000X0*%
%ADD36RoundRect,0.100000X-0.100000X0.130000X-0.100000X-0.130000X0.100000X-0.130000X0.100000X0.130000X0*%
%ADD37C,0.200000*%
%ADD38RoundRect,0.100000X-0.130000X-0.100000X0.130000X-0.100000X0.130000X0.100000X-0.130000X0.100000X0*%
%ADD39FreePoly0,45.000000*%
%ADD40FreePoly1,45.000000*%
%ADD41RotRect,1.050000X0.650000X45.000000*%
%ADD42C,0.150000*%
G04 APERTURE END LIST*
D10*
%TO.C,KiKit_MB_13_5*%
X105284002Y-75872784D03*
%TD*%
%TO.C,KiKit_MB_13_2*%
X105284002Y-79247784D03*
%TD*%
%TO.C,KiKit_MB_30_1*%
X158553049Y-108621521D03*
%TD*%
%TO.C,KiKit_MB_21_2*%
X170781475Y-79247784D03*
%TD*%
D11*
%TO.C,C4*%
X141167303Y-49284348D03*
X140714755Y-49736896D03*
%TD*%
D10*
%TO.C,KiKit_MB_3_2*%
X114626263Y-34906784D03*
%TD*%
%TO.C,KiKit_MB_4_2*%
X116876264Y-55427096D03*
%TD*%
D12*
%TO.C,U2*%
X141923907Y-115538426D03*
X141464288Y-115998046D03*
X141004668Y-116457665D03*
X142348171Y-117801168D03*
X142807790Y-117341548D03*
X143267410Y-116881929D03*
%TD*%
D13*
%TO.C,KiKit_TO_2*%
X199122785Y-25000000D03*
%TD*%
D14*
%TO.C,L2*%
X186679318Y-82379567D03*
X187131866Y-82832115D03*
%TD*%
D10*
%TO.C,KiKit_MB_32_4*%
X147375000Y-120924570D03*
%TD*%
D15*
%TO.C,AE1*%
X158349998Y-121244778D03*
D16*
X157253982Y-122340794D03*
%TD*%
D10*
%TO.C,KiKit_MB_18_4*%
X158553049Y-79247784D03*
%TD*%
D17*
%TO.C,Q1*%
X175927759Y-46240253D03*
X176245957Y-45922055D03*
D18*
X175591884Y-45586180D03*
%TD*%
D10*
%TO.C,KiKit_MB_26_1*%
X125804312Y-108621521D03*
%TD*%
%TO.C,KiKit_MB_2_3*%
X125804312Y-45374048D03*
%TD*%
D11*
%TO.C,C4*%
X108418566Y-49284348D03*
X107966018Y-49736896D03*
%TD*%
D10*
%TO.C,KiKit_MB_17_2*%
X138032738Y-79247784D03*
%TD*%
%TO.C,KiKit_MB_25_2*%
X105284002Y-111996521D03*
%TD*%
D19*
%TO.C,L1*%
X116733293Y-81841318D03*
X117419187Y-81155424D03*
%TD*%
D10*
%TO.C,KiKit_MB_1_2*%
X105284002Y-46499048D03*
%TD*%
D14*
%TO.C,L3*%
X155203373Y-83652360D03*
X155655921Y-84104908D03*
%TD*%
D20*
%TO.C,L18*%
X123748641Y-119646716D03*
X123296093Y-119194168D03*
%TD*%
D21*
%TO.C,TP1*%
X118933244Y-106982434D03*
%TD*%
D10*
%TO.C,KiKit_MB_28_3*%
X115751264Y-120924570D03*
%TD*%
D22*
%TO.C,MK1*%
X172633170Y-45018762D03*
X172633170Y-46368762D03*
X173533170Y-46368762D03*
X173533170Y-45018762D03*
D23*
X171858170Y-45693762D03*
D24*
X173083170Y-43968762D03*
X173083170Y-47418762D03*
D23*
X174308170Y-45693762D03*
%TD*%
D10*
%TO.C,KiKit_MB_34_4*%
X191301786Y-111996521D03*
%TD*%
%TO.C,KiKit_MB_7_2*%
X147374999Y-34906784D03*
%TD*%
%TO.C,KiKit_MB_17_1*%
X138032738Y-80372784D03*
%TD*%
D14*
%TO.C,R2*%
X113092542Y-116853645D03*
X113545090Y-117306193D03*
%TD*%
D11*
%TO.C,L7*%
X123232453Y-54665431D03*
X122779905Y-55117979D03*
%TD*%
D14*
%TO.C,L2*%
X121181844Y-49630830D03*
X121634392Y-50083378D03*
%TD*%
D25*
%TO.C,JP3*%
X144893755Y-69128387D03*
X144172507Y-69849635D03*
%TD*%
D26*
%TO.C,R1*%
X176291919Y-110157344D03*
X177013167Y-110878592D03*
%TD*%
D10*
%TO.C,KiKit_MB_14_4*%
X125804312Y-79247784D03*
%TD*%
D19*
%TO.C,L1*%
X182230767Y-49092581D03*
X182916661Y-48406687D03*
%TD*%
D10*
%TO.C,KiKit_MB_23_1*%
X178998736Y-67655514D03*
%TD*%
D27*
%TO.C,FB1*%
X150319952Y-50361837D03*
X150772500Y-49909289D03*
%TD*%
D28*
%TO.C,C17*%
X114508557Y-68979894D03*
X113868557Y-68979894D03*
%TD*%
D29*
%TO.C,C10*%
X150430402Y-112236238D03*
X149751580Y-112915060D03*
%TD*%
D10*
%TO.C,KiKit_MB_19_5*%
X150749999Y-67655536D03*
%TD*%
%TO.C,KiKit_MB_20_4*%
X147375000Y-88175833D03*
%TD*%
D14*
%TO.C,C12*%
X118575307Y-50418406D03*
X119027855Y-50870954D03*
%TD*%
D25*
%TO.C,R4*%
X143125988Y-47665074D03*
X142404740Y-48386322D03*
%TD*%
D30*
%TO.C,Y1*%
X184092706Y-111781554D03*
X184676070Y-111198190D03*
%TD*%
D14*
%TO.C,C2*%
X183577806Y-50913381D03*
X184030354Y-51365929D03*
%TD*%
D31*
%TO.C,J1*%
X156348886Y-40500595D03*
X157364886Y-45580595D03*
X155332886Y-45580595D03*
D32*
X155713886Y-41770595D03*
X156983886Y-41770595D03*
X155713886Y-43040595D03*
X156983886Y-43040595D03*
X155713886Y-44310595D03*
X156983886Y-44310595D03*
%TD*%
D33*
%TO.C,D1*%
X144054066Y-107539281D03*
X145167760Y-106425587D03*
%TD*%
D11*
%TO.C,C9*%
X156066043Y-84515030D03*
X155613495Y-84967578D03*
%TD*%
D21*
%TO.C,TP1*%
X118933244Y-74233697D03*
%TD*%
D10*
%TO.C,KiKit_MB_9_4*%
X170781475Y-44249048D03*
%TD*%
D14*
%TO.C,R3*%
X113587517Y-83609933D03*
X114040065Y-84062481D03*
%TD*%
D11*
%TO.C,C6*%
X187541988Y-83242238D03*
X187089440Y-83694786D03*
%TD*%
D27*
%TO.C,FB1*%
X183068689Y-115859311D03*
X183521237Y-115406763D03*
%TD*%
D14*
%TO.C,L4*%
X189224902Y-84925152D03*
X189677450Y-85377700D03*
%TD*%
%TO.C,C2*%
X150829069Y-50913381D03*
X151281617Y-51365929D03*
%TD*%
D10*
%TO.C,KiKit_MB_27_5*%
X118001262Y-100404273D03*
%TD*%
D34*
%TO.C,U3*%
X114647710Y-104306900D03*
X115147710Y-104306900D03*
X115647710Y-104306900D03*
X116147710Y-104306900D03*
D35*
X116312110Y-103696900D03*
X116312110Y-103196900D03*
D34*
X116147710Y-102586900D03*
X115647710Y-102586900D03*
X115147710Y-102586900D03*
X114647710Y-102586900D03*
D35*
X114483310Y-103196900D03*
X114483310Y-103696900D03*
%TD*%
D29*
%TO.C,C10*%
X117681665Y-112236238D03*
X117002843Y-112915060D03*
%TD*%
D36*
%TO.C,C16*%
X179000138Y-70943849D03*
X179000138Y-71583849D03*
%TD*%
D37*
%TO.C,U1*%
X152644494Y-82347889D03*
X152432362Y-82135757D03*
X152220230Y-81923625D03*
X152008098Y-81711493D03*
X151795966Y-81499361D03*
X151583834Y-81287228D03*
X151371702Y-81075096D03*
X152856626Y-82135757D03*
X152432362Y-81711493D03*
X152220230Y-81499361D03*
X152008098Y-81287228D03*
X151795966Y-81075096D03*
X151583834Y-80862964D03*
X152856626Y-81711493D03*
X152644494Y-81499361D03*
X152432362Y-81287228D03*
X152220230Y-81075096D03*
X152008098Y-80862964D03*
X151795966Y-80650832D03*
X153280891Y-81711493D03*
X153068759Y-81499361D03*
X152856626Y-81287228D03*
X152644494Y-81075096D03*
X152432362Y-80862964D03*
X152220230Y-80650832D03*
X152008098Y-80438700D03*
X153493023Y-81499361D03*
X153280891Y-81287228D03*
X153068759Y-81075096D03*
X152856626Y-80862964D03*
X152644494Y-80650832D03*
X152432362Y-80438700D03*
X152220230Y-80226568D03*
X153705155Y-81287228D03*
X153493023Y-81075096D03*
X153280891Y-80862964D03*
X153068759Y-80650832D03*
X152856626Y-80438700D03*
X152644494Y-80226568D03*
X152432362Y-80014436D03*
X153917287Y-81075096D03*
X153705155Y-80862964D03*
X153493023Y-80650832D03*
X153280891Y-80438700D03*
X153068759Y-80226568D03*
X152856626Y-80014436D03*
X152644494Y-79802304D03*
%TD*%
D14*
%TO.C,L2*%
X153930581Y-82379567D03*
X154383129Y-82832115D03*
%TD*%
D11*
%TO.C,C11*%
X118448027Y-47363705D03*
X117995479Y-47816253D03*
%TD*%
D10*
%TO.C,KiKit_MB_31_5*%
X150749999Y-100404273D03*
%TD*%
D14*
%TO.C,C12*%
X118575307Y-115915880D03*
X119027855Y-116368428D03*
%TD*%
D26*
%TO.C,R1*%
X143543182Y-44659870D03*
X144264430Y-45381118D03*
%TD*%
D14*
%TO.C,R2*%
X145841279Y-51356171D03*
X146293827Y-51808719D03*
%TD*%
D38*
%TO.C,C15*%
X180843885Y-101735702D03*
X181483885Y-101735702D03*
%TD*%
D34*
%TO.C,U3*%
X147396447Y-38809426D03*
X147896447Y-38809426D03*
X148396447Y-38809426D03*
X148896447Y-38809426D03*
D35*
X149060847Y-38199426D03*
X149060847Y-37699426D03*
D34*
X148896447Y-37089426D03*
X148396447Y-37089426D03*
X147896447Y-37089426D03*
X147396447Y-37089426D03*
D35*
X147232047Y-37699426D03*
X147232047Y-38199426D03*
%TD*%
D10*
%TO.C,KiKit_MB_28_2*%
X116876264Y-120924570D03*
%TD*%
D26*
%TO.C,R1*%
X110794445Y-110157344D03*
X111515693Y-110878592D03*
%TD*%
D10*
%TO.C,KiKit_MB_33_2*%
X170781475Y-111996521D03*
%TD*%
D14*
%TO.C,L3*%
X187952110Y-83652360D03*
X188404658Y-84104908D03*
%TD*%
D28*
%TO.C,C17*%
X114508557Y-101728631D03*
X113868557Y-101728631D03*
%TD*%
D36*
%TO.C,C16*%
X146251401Y-70943849D03*
X146251401Y-71583849D03*
%TD*%
D10*
%TO.C,KiKit_MB_32_1*%
X150750000Y-120924570D03*
%TD*%
D14*
%TO.C,C12*%
X118575307Y-83167143D03*
X119027855Y-83619691D03*
%TD*%
%TO.C,R3*%
X146336254Y-116358670D03*
X146788802Y-116811218D03*
%TD*%
D15*
%TO.C,AE1*%
X191098735Y-121244778D03*
D16*
X190002719Y-122340794D03*
%TD*%
D10*
%TO.C,KiKit_MB_8_1*%
X150750000Y-55427096D03*
%TD*%
D39*
%TO.C,JP1*%
X139060125Y-119745712D03*
D40*
X139979363Y-118826474D03*
%TD*%
D14*
%TO.C,R3*%
X179084991Y-83609933D03*
X179537539Y-84062481D03*
%TD*%
D39*
%TO.C,JP1*%
X106311388Y-119745712D03*
D40*
X107230626Y-118826474D03*
%TD*%
D27*
%TO.C,FB1*%
X150319952Y-83110574D03*
X150772500Y-82658026D03*
%TD*%
D11*
%TO.C,C4*%
X108418566Y-114781822D03*
X107966018Y-115234370D03*
%TD*%
D10*
%TO.C,KiKit_MB_12_5*%
X178998737Y-55427096D03*
%TD*%
D34*
%TO.C,U3*%
X180145184Y-104306900D03*
X180645184Y-104306900D03*
X181145184Y-104306900D03*
X181645184Y-104306900D03*
D35*
X181809584Y-103696900D03*
X181809584Y-103196900D03*
D34*
X181645184Y-102586900D03*
X181145184Y-102586900D03*
X180645184Y-102586900D03*
X180145184Y-102586900D03*
D35*
X179980784Y-103196900D03*
X179980784Y-103696900D03*
%TD*%
D10*
%TO.C,KiKit_MB_16_4*%
X114626264Y-88175833D03*
%TD*%
D25*
%TO.C,JP3*%
X177642492Y-101877124D03*
X176921244Y-102598372D03*
%TD*%
D10*
%TO.C,KiKit_MB_20_1*%
X150750000Y-88175833D03*
%TD*%
D20*
%TO.C,C1*%
X118539951Y-114890575D03*
X118087403Y-114438027D03*
%TD*%
D38*
%TO.C,C15*%
X180843885Y-36238228D03*
X181483885Y-36238228D03*
%TD*%
D15*
%TO.C,AE1*%
X125601261Y-121244778D03*
D16*
X124505245Y-122340794D03*
%TD*%
D11*
%TO.C,C6*%
X187541988Y-50493501D03*
X187089440Y-50946049D03*
%TD*%
D20*
%TO.C,C1*%
X151288688Y-82141838D03*
X150836140Y-81689290D03*
%TD*%
D10*
%TO.C,KiKit_MB_23_5*%
X183498736Y-67655536D03*
%TD*%
D36*
%TO.C,C16*%
X113502664Y-103692586D03*
X113502664Y-104332586D03*
%TD*%
D10*
%TO.C,KiKit_MB_16_1*%
X118001263Y-88175833D03*
%TD*%
D25*
%TO.C,JP2*%
X145558436Y-37044330D03*
X144837188Y-37765578D03*
%TD*%
D19*
%TO.C,L1*%
X182230767Y-81841318D03*
X182916661Y-81155424D03*
%TD*%
D14*
%TO.C,C2*%
X183577806Y-116410855D03*
X184030354Y-116863403D03*
%TD*%
D30*
%TO.C,Y1*%
X184092706Y-79032817D03*
X184676070Y-78449453D03*
%TD*%
D10*
%TO.C,KiKit_MB_10_5*%
X191301786Y-47624047D03*
%TD*%
%TO.C,KiKit_MB_11_5*%
X183498736Y-34906800D03*
%TD*%
D34*
%TO.C,U3*%
X114647710Y-38809426D03*
X115147710Y-38809426D03*
X115647710Y-38809426D03*
X116147710Y-38809426D03*
D35*
X116312110Y-38199426D03*
X116312110Y-37699426D03*
D34*
X116147710Y-37089426D03*
X115647710Y-37089426D03*
X115147710Y-37089426D03*
X114647710Y-37089426D03*
D35*
X114483310Y-37699426D03*
X114483310Y-38199426D03*
%TD*%
D41*
%TO.C,SW1*%
X145919061Y-78476338D03*
X148853554Y-75541845D03*
X147439340Y-79996617D03*
X150356156Y-77079802D03*
%TD*%
D10*
%TO.C,KiKit_MB_22_4*%
X191301786Y-79247784D03*
%TD*%
D11*
%TO.C,C4*%
X141167303Y-82033085D03*
X140714755Y-82485633D03*
%TD*%
D10*
%TO.C,KiKit_MB_6_2*%
X158553049Y-44249048D03*
%TD*%
%TO.C,KiKit_MB_25_5*%
X105284002Y-108621521D03*
%TD*%
D20*
%TO.C,C8*%
X121408713Y-80229367D03*
X120956165Y-79776819D03*
%TD*%
D14*
%TO.C,C12*%
X184072781Y-50418406D03*
X184525329Y-50870954D03*
%TD*%
D10*
%TO.C,KiKit_MB_5_2*%
X138032738Y-46499048D03*
%TD*%
D14*
%TO.C,C2*%
X150829069Y-116410855D03*
X151281617Y-116863403D03*
%TD*%
D10*
%TO.C,KiKit_MB_10_3*%
X191301786Y-45374048D03*
%TD*%
D38*
%TO.C,C20*%
X107285393Y-108552211D03*
X107925393Y-108552211D03*
%TD*%
D11*
%TO.C,C4*%
X173916040Y-114781822D03*
X173463492Y-115234370D03*
%TD*%
D33*
%TO.C,D1*%
X144054066Y-42041807D03*
X145167760Y-40928113D03*
%TD*%
D15*
%TO.C,AE1*%
X125601261Y-88496041D03*
D16*
X124505245Y-89592057D03*
%TD*%
D10*
%TO.C,KiKit_MB_3_5*%
X118001262Y-34906800D03*
%TD*%
D14*
%TO.C,C12*%
X151324044Y-83167143D03*
X151776592Y-83619691D03*
%TD*%
%TO.C,C5*%
X119077353Y-49930502D03*
X119529901Y-50383050D03*
%TD*%
D25*
%TO.C,JP3*%
X177642492Y-36379650D03*
X176921244Y-37100898D03*
%TD*%
D10*
%TO.C,KiKit_MB_21_4*%
X170781475Y-76997784D03*
%TD*%
D11*
%TO.C,L6*%
X157473185Y-118670909D03*
X157020637Y-119123457D03*
%TD*%
%TO.C,L7*%
X188729927Y-87414168D03*
X188277379Y-87866716D03*
%TD*%
D42*
%TO.C,Y2*%
X120010734Y-116679555D03*
X119833957Y-116856332D03*
X119657180Y-116679555D03*
X119833957Y-116502778D03*
%TD*%
D14*
%TO.C,L4*%
X189224902Y-117673889D03*
X189677450Y-118126437D03*
%TD*%
D10*
%TO.C,KiKit_MB_19_1*%
X146249999Y-67655514D03*
%TD*%
D38*
%TO.C,C15*%
X115346411Y-68986965D03*
X115986411Y-68986965D03*
%TD*%
D10*
%TO.C,KiKit_MB_32_2*%
X149625000Y-120924570D03*
%TD*%
D25*
%TO.C,R4*%
X110377251Y-80413811D03*
X109656003Y-81135059D03*
%TD*%
D10*
%TO.C,KiKit_MB_17_4*%
X138032738Y-76997784D03*
%TD*%
D14*
%TO.C,R3*%
X146336254Y-83609933D03*
X146788802Y-84062481D03*
%TD*%
D29*
%TO.C,C10*%
X183179139Y-79487501D03*
X182500317Y-80166323D03*
%TD*%
%TO.C,C10*%
X117681665Y-79487501D03*
X117002843Y-80166323D03*
%TD*%
D10*
%TO.C,KiKit_MB_6_5*%
X158553049Y-47624047D03*
%TD*%
D14*
%TO.C,C5*%
X151826090Y-82679239D03*
X152278638Y-83131787D03*
%TD*%
D11*
%TO.C,C6*%
X154793251Y-115990975D03*
X154340703Y-116443523D03*
%TD*%
D33*
%TO.C,D1*%
X176802803Y-74790544D03*
X177916497Y-73676850D03*
%TD*%
D14*
%TO.C,L2*%
X186679318Y-115128304D03*
X187131866Y-115580852D03*
%TD*%
D34*
%TO.C,U3*%
X114647710Y-71558163D03*
X115147710Y-71558163D03*
X115647710Y-71558163D03*
X116147710Y-71558163D03*
D35*
X116312110Y-70948163D03*
X116312110Y-70448163D03*
D34*
X116147710Y-69838163D03*
X115647710Y-69838163D03*
X115147710Y-69838163D03*
X114647710Y-69838163D03*
D35*
X114483310Y-70448163D03*
X114483310Y-70948163D03*
%TD*%
D10*
%TO.C,KiKit_MB_34_2*%
X191301786Y-109746521D03*
%TD*%
D20*
%TO.C,C1*%
X118539951Y-82141838D03*
X118087403Y-81689290D03*
%TD*%
%TO.C,C8*%
X154157450Y-80229367D03*
X153704902Y-79776819D03*
%TD*%
D27*
%TO.C,C3*%
X110313613Y-118501203D03*
X110766161Y-118048655D03*
%TD*%
D21*
%TO.C,TP1*%
X151681981Y-106982434D03*
%TD*%
D31*
%TO.C,J1*%
X189097623Y-73249332D03*
X190113623Y-78329332D03*
X188081623Y-78329332D03*
D32*
X188462623Y-74519332D03*
X189732623Y-74519332D03*
X188462623Y-75789332D03*
X189732623Y-75789332D03*
X188462623Y-77059332D03*
X189732623Y-77059332D03*
%TD*%
D19*
%TO.C,L1*%
X149482030Y-81841318D03*
X150167924Y-81155424D03*
%TD*%
D10*
%TO.C,KiKit_MB_24_1*%
X183498737Y-88175833D03*
%TD*%
D30*
%TO.C,Y1*%
X151343969Y-79032817D03*
X151927333Y-78449453D03*
%TD*%
D14*
%TO.C,C2*%
X150829069Y-83662118D03*
X151281617Y-84114666D03*
%TD*%
D21*
%TO.C,TP1*%
X184430718Y-106982434D03*
%TD*%
D10*
%TO.C,KiKit_MB_23_2*%
X180123736Y-67655520D03*
%TD*%
D11*
%TO.C,C9*%
X123317306Y-117263767D03*
X122864758Y-117716315D03*
%TD*%
D14*
%TO.C,C2*%
X118080332Y-116410855D03*
X118532880Y-116863403D03*
%TD*%
D37*
%TO.C,U1*%
X185393231Y-82347889D03*
X185181099Y-82135757D03*
X184968967Y-81923625D03*
X184756835Y-81711493D03*
X184544703Y-81499361D03*
X184332571Y-81287228D03*
X184120439Y-81075096D03*
X185605363Y-82135757D03*
X185181099Y-81711493D03*
X184968967Y-81499361D03*
X184756835Y-81287228D03*
X184544703Y-81075096D03*
X184332571Y-80862964D03*
X185605363Y-81711493D03*
X185393231Y-81499361D03*
X185181099Y-81287228D03*
X184968967Y-81075096D03*
X184756835Y-80862964D03*
X184544703Y-80650832D03*
X186029628Y-81711493D03*
X185817496Y-81499361D03*
X185605363Y-81287228D03*
X185393231Y-81075096D03*
X185181099Y-80862964D03*
X184968967Y-80650832D03*
X184756835Y-80438700D03*
X186241760Y-81499361D03*
X186029628Y-81287228D03*
X185817496Y-81075096D03*
X185605363Y-80862964D03*
X185393231Y-80650832D03*
X185181099Y-80438700D03*
X184968967Y-80226568D03*
X186453892Y-81287228D03*
X186241760Y-81075096D03*
X186029628Y-80862964D03*
X185817496Y-80650832D03*
X185605363Y-80438700D03*
X185393231Y-80226568D03*
X185181099Y-80014436D03*
X186666024Y-81075096D03*
X186453892Y-80862964D03*
X186241760Y-80650832D03*
X186029628Y-80438700D03*
X185817496Y-80226568D03*
X185605363Y-80014436D03*
X185393231Y-79802304D03*
%TD*%
D31*
%TO.C,J1*%
X123600149Y-105998069D03*
X124616149Y-111078069D03*
X122584149Y-111078069D03*
D32*
X122965149Y-107268069D03*
X124235149Y-107268069D03*
X122965149Y-108538069D03*
X124235149Y-108538069D03*
X122965149Y-109808069D03*
X124235149Y-109808069D03*
%TD*%
D34*
%TO.C,U3*%
X147396447Y-71558163D03*
X147896447Y-71558163D03*
X148396447Y-71558163D03*
X148896447Y-71558163D03*
D35*
X149060847Y-70948163D03*
X149060847Y-70448163D03*
D34*
X148896447Y-69838163D03*
X148396447Y-69838163D03*
X147896447Y-69838163D03*
X147396447Y-69838163D03*
D35*
X147232047Y-70448163D03*
X147232047Y-70948163D03*
%TD*%
D10*
%TO.C,KiKit_MB_2_4*%
X125804312Y-46499048D03*
%TD*%
%TO.C,KiKit_MB_15_5*%
X118001262Y-67655536D03*
%TD*%
%TO.C,KiKit_MB_27_4*%
X116876263Y-100404267D03*
%TD*%
D36*
%TO.C,C16*%
X146251401Y-38195112D03*
X146251401Y-38835112D03*
%TD*%
D27*
%TO.C,C3*%
X175811087Y-118501203D03*
X176263635Y-118048655D03*
%TD*%
D10*
%TO.C,KiKit_MB_16_5*%
X113501264Y-88175833D03*
%TD*%
%TO.C,KiKit_MB_35_5*%
X183498736Y-100404273D03*
%TD*%
D20*
%TO.C,L18*%
X123748641Y-86897979D03*
X123296093Y-86445431D03*
%TD*%
%TO.C,L18*%
X189246115Y-119646716D03*
X188793567Y-119194168D03*
%TD*%
D10*
%TO.C,KiKit_MB_27_1*%
X113501263Y-100404251D03*
%TD*%
D25*
%TO.C,JP2*%
X178307173Y-102541804D03*
X177585925Y-103263052D03*
%TD*%
D10*
%TO.C,KiKit_MB_18_2*%
X158553049Y-76997784D03*
%TD*%
D21*
%TO.C,TP2*%
X185844932Y-72819484D03*
%TD*%
D30*
%TO.C,Y1*%
X118595232Y-46284080D03*
X119178596Y-45700716D03*
%TD*%
D10*
%TO.C,KiKit_MB_24_2*%
X182373737Y-88175833D03*
%TD*%
%TO.C,KiKit_MB_22_3*%
X191301786Y-78122784D03*
%TD*%
D38*
%TO.C,C20*%
X172782867Y-75803474D03*
X173422867Y-75803474D03*
%TD*%
D11*
%TO.C,L6*%
X190221922Y-118670909D03*
X189769374Y-119123457D03*
%TD*%
D36*
%TO.C,C16*%
X113502664Y-70943849D03*
X113502664Y-71583849D03*
%TD*%
D27*
%TO.C,C3*%
X110313613Y-53003729D03*
X110766161Y-52551181D03*
%TD*%
D13*
%TO.C,KiKit_TO_3*%
X97877216Y-131245569D03*
%TD*%
D10*
%TO.C,KiKit_MB_5_5*%
X138032738Y-43124048D03*
%TD*%
D14*
%TO.C,L3*%
X122454636Y-83652360D03*
X122907184Y-84104908D03*
%TD*%
D21*
%TO.C,TP1*%
X151681981Y-74233697D03*
%TD*%
D41*
%TO.C,SW1*%
X113170324Y-45727601D03*
X116104817Y-42793108D03*
X114690603Y-47247880D03*
X117607419Y-44331065D03*
%TD*%
D10*
%TO.C,KiKit_MB_31_2*%
X147374999Y-100404257D03*
%TD*%
D38*
%TO.C,C15*%
X115346411Y-101735702D03*
X115986411Y-101735702D03*
%TD*%
D39*
%TO.C,JP1*%
X139060125Y-54248238D03*
D40*
X139979363Y-53329000D03*
%TD*%
D41*
%TO.C,SW1*%
X113170324Y-111225075D03*
X116104817Y-108290582D03*
X114690603Y-112745354D03*
X117607419Y-109828539D03*
%TD*%
D14*
%TO.C,C12*%
X184072781Y-115915880D03*
X184525329Y-116368428D03*
%TD*%
D27*
%TO.C,FB1*%
X117571215Y-83110574D03*
X118023763Y-82658026D03*
%TD*%
%TO.C,FB1*%
X150319952Y-115859311D03*
X150772500Y-115406763D03*
%TD*%
D21*
%TO.C,TP2*%
X185844932Y-105568221D03*
%TD*%
%TO.C,TP2*%
X153096195Y-105568221D03*
%TD*%
D12*
%TO.C,U2*%
X141923907Y-82789689D03*
X141464288Y-83249309D03*
X141004668Y-83708928D03*
X142348171Y-85052431D03*
X142807790Y-84592811D03*
X143267410Y-84133192D03*
%TD*%
D10*
%TO.C,KiKit_MB_12_4*%
X180123737Y-55427096D03*
%TD*%
D33*
%TO.C,D1*%
X111305329Y-74790544D03*
X112419023Y-73676850D03*
%TD*%
D27*
%TO.C,C3*%
X143062350Y-118501203D03*
X143514898Y-118048655D03*
%TD*%
D10*
%TO.C,KiKit_MB_5_1*%
X138032738Y-47624047D03*
%TD*%
D14*
%TO.C,C5*%
X151826090Y-49930502D03*
X152278638Y-50383050D03*
%TD*%
D11*
%TO.C,L7*%
X188729927Y-120162905D03*
X188277379Y-120615453D03*
%TD*%
D10*
%TO.C,KiKit_MB_13_4*%
X105284002Y-76997784D03*
%TD*%
D26*
%TO.C,R1*%
X110794445Y-77408607D03*
X111515693Y-78129855D03*
%TD*%
D10*
%TO.C,KiKit_MB_18_1*%
X158553049Y-75872784D03*
%TD*%
D34*
%TO.C,U3*%
X180145184Y-71558163D03*
X180645184Y-71558163D03*
X181145184Y-71558163D03*
X181645184Y-71558163D03*
D35*
X181809584Y-70948163D03*
X181809584Y-70448163D03*
D34*
X181645184Y-69838163D03*
X181145184Y-69838163D03*
X180645184Y-69838163D03*
X180145184Y-69838163D03*
D35*
X179980784Y-70448163D03*
X179980784Y-70948163D03*
%TD*%
D25*
%TO.C,JP2*%
X112809699Y-37044330D03*
X112088451Y-37765578D03*
%TD*%
D14*
%TO.C,C5*%
X119077353Y-115427976D03*
X119529901Y-115880524D03*
%TD*%
D21*
%TO.C,KiKit_FID_T_2*%
X201622785Y-25000000D03*
%TD*%
D10*
%TO.C,KiKit_MB_14_3*%
X125804312Y-78122784D03*
%TD*%
D25*
%TO.C,JP3*%
X112145018Y-36379650D03*
X111423770Y-37100898D03*
%TD*%
D36*
%TO.C,C16*%
X179000138Y-38195112D03*
X179000138Y-38835112D03*
%TD*%
D26*
%TO.C,R1*%
X176291919Y-77408607D03*
X177013167Y-78129855D03*
%TD*%
D15*
%TO.C,AE1*%
X158349998Y-55747304D03*
D16*
X157253982Y-56843320D03*
%TD*%
D10*
%TO.C,KiKit_MB_10_4*%
X191301786Y-46499048D03*
%TD*%
%TO.C,KiKit_MB_1_3*%
X105284002Y-45374048D03*
%TD*%
%TO.C,KiKit_MB_7_1*%
X146249999Y-34906778D03*
%TD*%
D25*
%TO.C,R4*%
X143125988Y-80413811D03*
X142404740Y-81135059D03*
%TD*%
D22*
%TO.C,MK1*%
X172633170Y-77767499D03*
X172633170Y-79117499D03*
X173533170Y-79117499D03*
X173533170Y-77767499D03*
D23*
X171858170Y-78442499D03*
D24*
X173083170Y-76717499D03*
X173083170Y-80167499D03*
D23*
X174308170Y-78442499D03*
%TD*%
D28*
%TO.C,C17*%
X180006031Y-101728631D03*
X179366031Y-101728631D03*
%TD*%
D21*
%TO.C,KiKit_FID_T_3*%
X95377216Y-131245569D03*
%TD*%
D11*
%TO.C,C9*%
X156066043Y-117263767D03*
X155613495Y-117716315D03*
%TD*%
D17*
%TO.C,Q1*%
X143179022Y-78988990D03*
X143497220Y-78670792D03*
D18*
X142843147Y-78334917D03*
%TD*%
D10*
%TO.C,KiKit_MB_11_1*%
X178998736Y-34906778D03*
%TD*%
D14*
%TO.C,L4*%
X156476165Y-84925152D03*
X156928713Y-85377700D03*
%TD*%
D11*
%TO.C,L7*%
X188729927Y-54665431D03*
X188277379Y-55117979D03*
%TD*%
D10*
%TO.C,KiKit_MB_12_1*%
X183498737Y-55427096D03*
%TD*%
D21*
%TO.C,TP2*%
X185844932Y-40070747D03*
%TD*%
D11*
%TO.C,C11*%
X183945501Y-47363705D03*
X183492953Y-47816253D03*
%TD*%
D10*
%TO.C,KiKit_MB_27_3*%
X115751263Y-100404262D03*
%TD*%
D42*
%TO.C,Y2*%
X120010734Y-51182081D03*
X119833957Y-51358858D03*
X119657180Y-51182081D03*
X119833957Y-51005304D03*
%TD*%
D10*
%TO.C,KiKit_MB_22_2*%
X191301786Y-76997784D03*
%TD*%
D14*
%TO.C,R3*%
X179084991Y-116358670D03*
X179537539Y-116811218D03*
%TD*%
D17*
%TO.C,Q1*%
X143179022Y-111737727D03*
X143497220Y-111419529D03*
D18*
X142843147Y-111083654D03*
%TD*%
D19*
%TO.C,L1*%
X149482030Y-114590055D03*
X150167924Y-113904161D03*
%TD*%
D10*
%TO.C,KiKit_MB_8_2*%
X149625000Y-55427096D03*
%TD*%
D29*
%TO.C,C10*%
X183179139Y-46738764D03*
X182500317Y-47417586D03*
%TD*%
%TO.C,C10*%
X150430402Y-79487501D03*
X149751580Y-80166323D03*
%TD*%
D10*
%TO.C,KiKit_MB_32_5*%
X146250000Y-120924570D03*
%TD*%
D20*
%TO.C,C1*%
X184037425Y-114890575D03*
X183584877Y-114438027D03*
%TD*%
D10*
%TO.C,KiKit_MB_35_3*%
X181248736Y-100404262D03*
%TD*%
D37*
%TO.C,U1*%
X185393231Y-49599152D03*
X185181099Y-49387020D03*
X184968967Y-49174888D03*
X184756835Y-48962756D03*
X184544703Y-48750624D03*
X184332571Y-48538491D03*
X184120439Y-48326359D03*
X185605363Y-49387020D03*
X185181099Y-48962756D03*
X184968967Y-48750624D03*
X184756835Y-48538491D03*
X184544703Y-48326359D03*
X184332571Y-48114227D03*
X185605363Y-48962756D03*
X185393231Y-48750624D03*
X185181099Y-48538491D03*
X184968967Y-48326359D03*
X184756835Y-48114227D03*
X184544703Y-47902095D03*
X186029628Y-48962756D03*
X185817496Y-48750624D03*
X185605363Y-48538491D03*
X185393231Y-48326359D03*
X185181099Y-48114227D03*
X184968967Y-47902095D03*
X184756835Y-47689963D03*
X186241760Y-48750624D03*
X186029628Y-48538491D03*
X185817496Y-48326359D03*
X185605363Y-48114227D03*
X185393231Y-47902095D03*
X185181099Y-47689963D03*
X184968967Y-47477831D03*
X186453892Y-48538491D03*
X186241760Y-48326359D03*
X186029628Y-48114227D03*
X185817496Y-47902095D03*
X185605363Y-47689963D03*
X185393231Y-47477831D03*
X185181099Y-47265699D03*
X186666024Y-48326359D03*
X186453892Y-48114227D03*
X186241760Y-47902095D03*
X186029628Y-47689963D03*
X185817496Y-47477831D03*
X185605363Y-47265699D03*
X185393231Y-47053567D03*
%TD*%
D14*
%TO.C,L4*%
X156476165Y-117673889D03*
X156928713Y-118126437D03*
%TD*%
D31*
%TO.C,J1*%
X123600149Y-73249332D03*
X124616149Y-78329332D03*
X122584149Y-78329332D03*
D32*
X122965149Y-74519332D03*
X124235149Y-74519332D03*
X122965149Y-75789332D03*
X124235149Y-75789332D03*
X122965149Y-77059332D03*
X124235149Y-77059332D03*
%TD*%
D20*
%TO.C,L18*%
X189246115Y-86897979D03*
X188793567Y-86445431D03*
%TD*%
D10*
%TO.C,KiKit_MB_13_3*%
X105284002Y-78122784D03*
%TD*%
D20*
%TO.C,C1*%
X151288688Y-49393101D03*
X150836140Y-48940553D03*
%TD*%
D10*
%TO.C,KiKit_MB_22_5*%
X191301786Y-80372784D03*
%TD*%
D25*
%TO.C,JP2*%
X112809699Y-69793067D03*
X112088451Y-70514315D03*
%TD*%
D10*
%TO.C,KiKit_MB_33_3*%
X170781475Y-110871521D03*
%TD*%
D22*
%TO.C,MK1*%
X172633170Y-110516236D03*
X172633170Y-111866236D03*
X173533170Y-111866236D03*
X173533170Y-110516236D03*
D23*
X171858170Y-111191236D03*
D24*
X173083170Y-109466236D03*
X173083170Y-112916236D03*
D23*
X174308170Y-111191236D03*
%TD*%
D27*
%TO.C,C3*%
X175811087Y-53003729D03*
X176263635Y-52551181D03*
%TD*%
D14*
%TO.C,C5*%
X119077353Y-82679239D03*
X119529901Y-83131787D03*
%TD*%
D17*
%TO.C,Q1*%
X175927759Y-78988990D03*
X176245957Y-78670792D03*
D18*
X175591884Y-78334917D03*
%TD*%
D14*
%TO.C,L3*%
X122454636Y-50903623D03*
X122907184Y-51356171D03*
%TD*%
D37*
%TO.C,U1*%
X119895757Y-49599152D03*
X119683625Y-49387020D03*
X119471493Y-49174888D03*
X119259361Y-48962756D03*
X119047229Y-48750624D03*
X118835097Y-48538491D03*
X118622965Y-48326359D03*
X120107889Y-49387020D03*
X119683625Y-48962756D03*
X119471493Y-48750624D03*
X119259361Y-48538491D03*
X119047229Y-48326359D03*
X118835097Y-48114227D03*
X120107889Y-48962756D03*
X119895757Y-48750624D03*
X119683625Y-48538491D03*
X119471493Y-48326359D03*
X119259361Y-48114227D03*
X119047229Y-47902095D03*
X120532154Y-48962756D03*
X120320022Y-48750624D03*
X120107889Y-48538491D03*
X119895757Y-48326359D03*
X119683625Y-48114227D03*
X119471493Y-47902095D03*
X119259361Y-47689963D03*
X120744286Y-48750624D03*
X120532154Y-48538491D03*
X120320022Y-48326359D03*
X120107889Y-48114227D03*
X119895757Y-47902095D03*
X119683625Y-47689963D03*
X119471493Y-47477831D03*
X120956418Y-48538491D03*
X120744286Y-48326359D03*
X120532154Y-48114227D03*
X120320022Y-47902095D03*
X120107889Y-47689963D03*
X119895757Y-47477831D03*
X119683625Y-47265699D03*
X121168550Y-48326359D03*
X120956418Y-48114227D03*
X120744286Y-47902095D03*
X120532154Y-47689963D03*
X120320022Y-47477831D03*
X120107889Y-47265699D03*
X119895757Y-47053567D03*
%TD*%
D15*
%TO.C,AE1*%
X125601261Y-55747304D03*
D16*
X124505245Y-56843320D03*
%TD*%
D10*
%TO.C,KiKit_MB_34_1*%
X191301786Y-108621521D03*
%TD*%
D14*
%TO.C,L4*%
X156476165Y-52176415D03*
X156928713Y-52628963D03*
%TD*%
D25*
%TO.C,JP3*%
X112145018Y-101877124D03*
X111423770Y-102598372D03*
%TD*%
D38*
%TO.C,C20*%
X172782867Y-43054737D03*
X173422867Y-43054737D03*
%TD*%
D10*
%TO.C,KiKit_MB_25_1*%
X105284002Y-113121521D03*
%TD*%
D11*
%TO.C,L6*%
X157473185Y-85922172D03*
X157020637Y-86374720D03*
%TD*%
D34*
%TO.C,U3*%
X147396447Y-104306900D03*
X147896447Y-104306900D03*
X148396447Y-104306900D03*
X148896447Y-104306900D03*
D35*
X149060847Y-103696900D03*
X149060847Y-103196900D03*
D34*
X148896447Y-102586900D03*
X148396447Y-102586900D03*
X147896447Y-102586900D03*
X147396447Y-102586900D03*
D35*
X147232047Y-103196900D03*
X147232047Y-103696900D03*
%TD*%
D21*
%TO.C,TP1*%
X151681981Y-41484960D03*
%TD*%
D11*
%TO.C,C11*%
X183945501Y-80112442D03*
X183492953Y-80564990D03*
%TD*%
D25*
%TO.C,R4*%
X110377251Y-113162548D03*
X109656003Y-113883796D03*
%TD*%
D10*
%TO.C,KiKit_MB_28_1*%
X118001263Y-120924570D03*
%TD*%
D14*
%TO.C,C2*%
X183577806Y-83662118D03*
X184030354Y-84114666D03*
%TD*%
D10*
%TO.C,KiKit_MB_19_4*%
X149624999Y-67655530D03*
%TD*%
%TO.C,KiKit_MB_23_3*%
X181248736Y-67655525D03*
%TD*%
%TO.C,KiKit_MB_10_2*%
X191301786Y-44249048D03*
%TD*%
D20*
%TO.C,C1*%
X184037425Y-49393101D03*
X183584877Y-48940553D03*
%TD*%
D10*
%TO.C,KiKit_MB_24_5*%
X178998737Y-88175833D03*
%TD*%
D12*
%TO.C,U2*%
X141923907Y-50040952D03*
X141464288Y-50500572D03*
X141004668Y-50960191D03*
X142348171Y-52303694D03*
X142807790Y-51844074D03*
X143267410Y-51384455D03*
%TD*%
D10*
%TO.C,KiKit_MB_26_4*%
X125804312Y-111996521D03*
%TD*%
%TO.C,KiKit_MB_36_2*%
X182373737Y-120924570D03*
%TD*%
D38*
%TO.C,C15*%
X115346411Y-36238228D03*
X115986411Y-36238228D03*
%TD*%
D10*
%TO.C,KiKit_MB_17_3*%
X138032738Y-78122784D03*
%TD*%
D28*
%TO.C,C17*%
X180006031Y-68979894D03*
X179366031Y-68979894D03*
%TD*%
D30*
%TO.C,Y1*%
X118595232Y-79032817D03*
X119178596Y-78449453D03*
%TD*%
D26*
%TO.C,R1*%
X143543182Y-77408607D03*
X144264430Y-78129855D03*
%TD*%
D27*
%TO.C,C3*%
X143062350Y-85752466D03*
X143514898Y-85299918D03*
%TD*%
D41*
%TO.C,SW1*%
X178667798Y-45727601D03*
X181602291Y-42793108D03*
X180188077Y-47247880D03*
X183104893Y-44331065D03*
%TD*%
D14*
%TO.C,L2*%
X121181844Y-115128304D03*
X121634392Y-115580852D03*
%TD*%
D10*
%TO.C,KiKit_MB_36_3*%
X181248737Y-120924570D03*
%TD*%
D28*
%TO.C,C17*%
X147257294Y-36231157D03*
X146617294Y-36231157D03*
%TD*%
D14*
%TO.C,L3*%
X187952110Y-50903623D03*
X188404658Y-51356171D03*
%TD*%
D10*
%TO.C,KiKit_MB_34_5*%
X191301786Y-113121521D03*
%TD*%
D11*
%TO.C,L6*%
X157473185Y-53173435D03*
X157020637Y-53625983D03*
%TD*%
D29*
%TO.C,C10*%
X183179139Y-112236238D03*
X182500317Y-112915060D03*
%TD*%
D33*
%TO.C,D1*%
X111305329Y-107539281D03*
X112419023Y-106425587D03*
%TD*%
D12*
%TO.C,U2*%
X109175170Y-82789689D03*
X108715551Y-83249309D03*
X108255931Y-83708928D03*
X109599434Y-85052431D03*
X110059053Y-84592811D03*
X110518673Y-84133192D03*
%TD*%
D19*
%TO.C,L1*%
X182230767Y-114590055D03*
X182916661Y-113904161D03*
%TD*%
D25*
%TO.C,R4*%
X110377251Y-47665074D03*
X109656003Y-48386322D03*
%TD*%
D10*
%TO.C,KiKit_MB_1_4*%
X105284002Y-44249048D03*
%TD*%
D26*
%TO.C,R1*%
X143543182Y-110157344D03*
X144264430Y-110878592D03*
%TD*%
D14*
%TO.C,R3*%
X113587517Y-50861196D03*
X114040065Y-51313744D03*
%TD*%
D38*
%TO.C,C20*%
X140034130Y-43054737D03*
X140674130Y-43054737D03*
%TD*%
D39*
%TO.C,JP1*%
X171808862Y-119745712D03*
D40*
X172728100Y-118826474D03*
%TD*%
D10*
%TO.C,KiKit_MB_25_3*%
X105284002Y-110871521D03*
%TD*%
D20*
%TO.C,C8*%
X154157450Y-47480630D03*
X153704902Y-47028082D03*
%TD*%
D27*
%TO.C,FB1*%
X183068689Y-83110574D03*
X183521237Y-82658026D03*
%TD*%
D31*
%TO.C,J1*%
X189097623Y-105998069D03*
X190113623Y-111078069D03*
X188081623Y-111078069D03*
D32*
X188462623Y-107268069D03*
X189732623Y-107268069D03*
X188462623Y-108538069D03*
X189732623Y-108538069D03*
X188462623Y-109808069D03*
X189732623Y-109808069D03*
%TD*%
D10*
%TO.C,KiKit_MB_35_1*%
X178998736Y-100404251D03*
%TD*%
%TO.C,KiKit_MB_9_1*%
X170781475Y-47624047D03*
%TD*%
%TO.C,KiKit_MB_2_5*%
X125804312Y-47624047D03*
%TD*%
D22*
%TO.C,MK1*%
X107135696Y-110516236D03*
X107135696Y-111866236D03*
X108035696Y-111866236D03*
X108035696Y-110516236D03*
D23*
X106360696Y-111191236D03*
D24*
X107585696Y-109466236D03*
X107585696Y-112916236D03*
D23*
X108810696Y-111191236D03*
%TD*%
D27*
%TO.C,FB1*%
X117571215Y-115859311D03*
X118023763Y-115406763D03*
%TD*%
D11*
%TO.C,C9*%
X156066043Y-51766293D03*
X155613495Y-52218841D03*
%TD*%
D10*
%TO.C,KiKit_MB_25_4*%
X105284002Y-109746521D03*
%TD*%
%TO.C,KiKit_MB_15_3*%
X115751263Y-67655525D03*
%TD*%
D20*
%TO.C,C1*%
X118539951Y-49393101D03*
X118087403Y-48940553D03*
%TD*%
D10*
%TO.C,KiKit_MB_11_4*%
X182373736Y-34906794D03*
%TD*%
%TO.C,KiKit_MB_27_2*%
X114626263Y-100404257D03*
%TD*%
D13*
%TO.C,KiKit_TO_1*%
X97877216Y-25000000D03*
%TD*%
D17*
%TO.C,Q1*%
X175927759Y-111737727D03*
X176245957Y-111419529D03*
D18*
X175591884Y-111083654D03*
%TD*%
D14*
%TO.C,L2*%
X153930581Y-49630830D03*
X154383129Y-50083378D03*
%TD*%
D20*
%TO.C,L18*%
X123748641Y-54149242D03*
X123296093Y-53696694D03*
%TD*%
D14*
%TO.C,L4*%
X189224902Y-52176415D03*
X189677450Y-52628963D03*
%TD*%
D10*
%TO.C,KiKit_MB_5_4*%
X138032738Y-44249048D03*
%TD*%
D11*
%TO.C,L6*%
X190221922Y-53173435D03*
X189769374Y-53625983D03*
%TD*%
D14*
%TO.C,L3*%
X187952110Y-116401097D03*
X188404658Y-116853645D03*
%TD*%
D37*
%TO.C,U1*%
X152644494Y-49599152D03*
X152432362Y-49387020D03*
X152220230Y-49174888D03*
X152008098Y-48962756D03*
X151795966Y-48750624D03*
X151583834Y-48538491D03*
X151371702Y-48326359D03*
X152856626Y-49387020D03*
X152432362Y-48962756D03*
X152220230Y-48750624D03*
X152008098Y-48538491D03*
X151795966Y-48326359D03*
X151583834Y-48114227D03*
X152856626Y-48962756D03*
X152644494Y-48750624D03*
X152432362Y-48538491D03*
X152220230Y-48326359D03*
X152008098Y-48114227D03*
X151795966Y-47902095D03*
X153280891Y-48962756D03*
X153068759Y-48750624D03*
X152856626Y-48538491D03*
X152644494Y-48326359D03*
X152432362Y-48114227D03*
X152220230Y-47902095D03*
X152008098Y-47689963D03*
X153493023Y-48750624D03*
X153280891Y-48538491D03*
X153068759Y-48326359D03*
X152856626Y-48114227D03*
X152644494Y-47902095D03*
X152432362Y-47689963D03*
X152220230Y-47477831D03*
X153705155Y-48538491D03*
X153493023Y-48326359D03*
X153280891Y-48114227D03*
X153068759Y-47902095D03*
X152856626Y-47689963D03*
X152644494Y-47477831D03*
X152432362Y-47265699D03*
X153917287Y-48326359D03*
X153705155Y-48114227D03*
X153493023Y-47902095D03*
X153280891Y-47689963D03*
X153068759Y-47477831D03*
X152856626Y-47265699D03*
X152644494Y-47053567D03*
%TD*%
D10*
%TO.C,KiKit_MB_3_3*%
X115751263Y-34906789D03*
%TD*%
D33*
%TO.C,D1*%
X111305329Y-42041807D03*
X112419023Y-40928113D03*
%TD*%
D10*
%TO.C,KiKit_MB_26_2*%
X125804312Y-109746521D03*
%TD*%
D38*
%TO.C,C15*%
X148095148Y-36238228D03*
X148735148Y-36238228D03*
%TD*%
D42*
%TO.C,Y2*%
X152759471Y-51182081D03*
X152582694Y-51358858D03*
X152405917Y-51182081D03*
X152582694Y-51005304D03*
%TD*%
D10*
%TO.C,KiKit_MB_18_3*%
X158553049Y-78122784D03*
%TD*%
D38*
%TO.C,C15*%
X148095148Y-101735702D03*
X148735148Y-101735702D03*
%TD*%
%TO.C,C20*%
X140034130Y-108552211D03*
X140674130Y-108552211D03*
%TD*%
D10*
%TO.C,KiKit_MB_8_4*%
X147375000Y-55427096D03*
%TD*%
D30*
%TO.C,Y1*%
X151343969Y-111781554D03*
X151927333Y-111198190D03*
%TD*%
D14*
%TO.C,C12*%
X151324044Y-50418406D03*
X151776592Y-50870954D03*
%TD*%
D10*
%TO.C,KiKit_MB_29_2*%
X138032738Y-111996521D03*
%TD*%
%TO.C,KiKit_MB_36_5*%
X178998737Y-120924570D03*
%TD*%
%TO.C,KiKit_MB_30_2*%
X158553049Y-109746521D03*
%TD*%
D28*
%TO.C,C17*%
X114508557Y-36231157D03*
X113868557Y-36231157D03*
%TD*%
D21*
%TO.C,TP2*%
X153096195Y-72819484D03*
%TD*%
D33*
%TO.C,D1*%
X176802803Y-107539281D03*
X177916497Y-106425587D03*
%TD*%
D36*
%TO.C,C16*%
X113502664Y-38195112D03*
X113502664Y-38835112D03*
%TD*%
D11*
%TO.C,C4*%
X108418566Y-82033085D03*
X107966018Y-82485633D03*
%TD*%
D10*
%TO.C,KiKit_MB_20_2*%
X149625000Y-88175833D03*
%TD*%
D14*
%TO.C,R3*%
X146336254Y-50861196D03*
X146788802Y-51313744D03*
%TD*%
D10*
%TO.C,KiKit_MB_5_3*%
X138032738Y-45374048D03*
%TD*%
%TO.C,KiKit_MB_10_1*%
X191301786Y-43124048D03*
%TD*%
D14*
%TO.C,L3*%
X155203373Y-50903623D03*
X155655921Y-51356171D03*
%TD*%
D27*
%TO.C,C3*%
X110313613Y-85752466D03*
X110766161Y-85299918D03*
%TD*%
D38*
%TO.C,C20*%
X107285393Y-75803474D03*
X107925393Y-75803474D03*
%TD*%
D10*
%TO.C,KiKit_MB_6_4*%
X158553049Y-46499048D03*
%TD*%
%TO.C,KiKit_MB_33_1*%
X170781475Y-113121521D03*
%TD*%
D21*
%TO.C,TP1*%
X184430718Y-74233697D03*
%TD*%
D10*
%TO.C,KiKit_MB_35_4*%
X182373736Y-100404267D03*
%TD*%
D42*
%TO.C,Y2*%
X152759471Y-83930818D03*
X152582694Y-84107595D03*
X152405917Y-83930818D03*
X152582694Y-83754041D03*
%TD*%
D28*
%TO.C,C17*%
X147257294Y-68979894D03*
X146617294Y-68979894D03*
%TD*%
D14*
%TO.C,C2*%
X118080332Y-83662118D03*
X118532880Y-84114666D03*
%TD*%
D11*
%TO.C,C4*%
X173916040Y-82033085D03*
X173463492Y-82485633D03*
%TD*%
D25*
%TO.C,JP3*%
X144893755Y-101877124D03*
X144172507Y-102598372D03*
%TD*%
D14*
%TO.C,R3*%
X179084991Y-50861196D03*
X179537539Y-51313744D03*
%TD*%
D10*
%TO.C,KiKit_MB_1_5*%
X105284002Y-43124048D03*
%TD*%
D14*
%TO.C,C5*%
X184574827Y-49930502D03*
X185027375Y-50383050D03*
%TD*%
D37*
%TO.C,U1*%
X152644494Y-115096626D03*
X152432362Y-114884494D03*
X152220230Y-114672362D03*
X152008098Y-114460230D03*
X151795966Y-114248098D03*
X151583834Y-114035965D03*
X151371702Y-113823833D03*
X152856626Y-114884494D03*
X152432362Y-114460230D03*
X152220230Y-114248098D03*
X152008098Y-114035965D03*
X151795966Y-113823833D03*
X151583834Y-113611701D03*
X152856626Y-114460230D03*
X152644494Y-114248098D03*
X152432362Y-114035965D03*
X152220230Y-113823833D03*
X152008098Y-113611701D03*
X151795966Y-113399569D03*
X153280891Y-114460230D03*
X153068759Y-114248098D03*
X152856626Y-114035965D03*
X152644494Y-113823833D03*
X152432362Y-113611701D03*
X152220230Y-113399569D03*
X152008098Y-113187437D03*
X153493023Y-114248098D03*
X153280891Y-114035965D03*
X153068759Y-113823833D03*
X152856626Y-113611701D03*
X152644494Y-113399569D03*
X152432362Y-113187437D03*
X152220230Y-112975305D03*
X153705155Y-114035965D03*
X153493023Y-113823833D03*
X153280891Y-113611701D03*
X153068759Y-113399569D03*
X152856626Y-113187437D03*
X152644494Y-112975305D03*
X152432362Y-112763173D03*
X153917287Y-113823833D03*
X153705155Y-113611701D03*
X153493023Y-113399569D03*
X153280891Y-113187437D03*
X153068759Y-112975305D03*
X152856626Y-112763173D03*
X152644494Y-112551041D03*
%TD*%
D17*
%TO.C,Q1*%
X143179022Y-46240253D03*
X143497220Y-45922055D03*
D18*
X142843147Y-45586180D03*
%TD*%
D10*
%TO.C,KiKit_MB_31_1*%
X146249999Y-100404251D03*
%TD*%
D11*
%TO.C,L6*%
X124724448Y-118670909D03*
X124271900Y-119123457D03*
%TD*%
%TO.C,C9*%
X188814780Y-84515030D03*
X188362232Y-84967578D03*
%TD*%
%TO.C,C6*%
X122044514Y-50493501D03*
X121591966Y-50946049D03*
%TD*%
D10*
%TO.C,KiKit_MB_22_1*%
X191301786Y-75872784D03*
%TD*%
D25*
%TO.C,R4*%
X175874725Y-80413811D03*
X175153477Y-81135059D03*
%TD*%
D10*
%TO.C,KiKit_MB_14_1*%
X125804312Y-75872784D03*
%TD*%
D14*
%TO.C,C5*%
X184574827Y-82679239D03*
X185027375Y-83131787D03*
%TD*%
D10*
%TO.C,KiKit_MB_29_1*%
X138032738Y-113121521D03*
%TD*%
D25*
%TO.C,JP3*%
X112145018Y-69128387D03*
X111423770Y-69849635D03*
%TD*%
D10*
%TO.C,KiKit_MB_3_4*%
X116876263Y-34906794D03*
%TD*%
D11*
%TO.C,L7*%
X155981190Y-87414168D03*
X155528642Y-87866716D03*
%TD*%
D10*
%TO.C,KiKit_MB_17_5*%
X138032738Y-75872784D03*
%TD*%
D14*
%TO.C,R2*%
X113092542Y-51356171D03*
X113545090Y-51808719D03*
%TD*%
%TO.C,R2*%
X145841279Y-116853645D03*
X146293827Y-117306193D03*
%TD*%
D11*
%TO.C,L7*%
X155981190Y-120162905D03*
X155528642Y-120615453D03*
%TD*%
D38*
%TO.C,C20*%
X140034130Y-75803474D03*
X140674130Y-75803474D03*
%TD*%
D10*
%TO.C,KiKit_MB_18_5*%
X158553049Y-80372784D03*
%TD*%
D11*
%TO.C,L7*%
X123232453Y-87414168D03*
X122779905Y-87866716D03*
%TD*%
D15*
%TO.C,AE1*%
X158349998Y-88496041D03*
D16*
X157253982Y-89592057D03*
%TD*%
D27*
%TO.C,FB1*%
X183068689Y-50361837D03*
X183521237Y-49909289D03*
%TD*%
D19*
%TO.C,L1*%
X149482030Y-49092581D03*
X150167924Y-48406687D03*
%TD*%
D25*
%TO.C,JP3*%
X177642492Y-69128387D03*
X176921244Y-69849635D03*
%TD*%
D14*
%TO.C,L4*%
X123727428Y-84925152D03*
X124179976Y-85377700D03*
%TD*%
D38*
%TO.C,C20*%
X172782867Y-108552211D03*
X173422867Y-108552211D03*
%TD*%
D22*
%TO.C,MK1*%
X107135696Y-45018762D03*
X107135696Y-46368762D03*
X108035696Y-46368762D03*
X108035696Y-45018762D03*
D23*
X106360696Y-45693762D03*
D24*
X107585696Y-43968762D03*
X107585696Y-47418762D03*
D23*
X108810696Y-45693762D03*
%TD*%
D14*
%TO.C,L2*%
X153930581Y-115128304D03*
X154383129Y-115580852D03*
%TD*%
D21*
%TO.C,TP2*%
X120347458Y-72819484D03*
%TD*%
D14*
%TO.C,R2*%
X178590016Y-84104908D03*
X179042564Y-84557456D03*
%TD*%
D10*
%TO.C,KiKit_MB_9_3*%
X170781475Y-45374048D03*
%TD*%
D20*
%TO.C,L18*%
X156497378Y-86897979D03*
X156044830Y-86445431D03*
%TD*%
D14*
%TO.C,R2*%
X178590016Y-51356171D03*
X179042564Y-51808719D03*
%TD*%
D28*
%TO.C,C17*%
X147257294Y-101728631D03*
X146617294Y-101728631D03*
%TD*%
D42*
%TO.C,Y2*%
X120010734Y-83930818D03*
X119833957Y-84107595D03*
X119657180Y-83930818D03*
X119833957Y-83754041D03*
%TD*%
D39*
%TO.C,JP1*%
X171808862Y-86996975D03*
D40*
X172728100Y-86077737D03*
%TD*%
D11*
%TO.C,L6*%
X124724448Y-85922172D03*
X124271900Y-86374720D03*
%TD*%
D12*
%TO.C,U2*%
X109175170Y-115538426D03*
X108715551Y-115998046D03*
X108255931Y-116457665D03*
X109599434Y-117801168D03*
X110059053Y-117341548D03*
X110518673Y-116881929D03*
%TD*%
D30*
%TO.C,Y1*%
X151343969Y-46284080D03*
X151927333Y-45700716D03*
%TD*%
D10*
%TO.C,KiKit_MB_30_5*%
X158553049Y-113121521D03*
%TD*%
%TO.C,KiKit_MB_1_1*%
X105284002Y-47624047D03*
%TD*%
D25*
%TO.C,JP2*%
X145558436Y-102541804D03*
X144837188Y-103263052D03*
%TD*%
D22*
%TO.C,MK1*%
X139884433Y-45018762D03*
X139884433Y-46368762D03*
X140784433Y-46368762D03*
X140784433Y-45018762D03*
D23*
X139109433Y-45693762D03*
D24*
X140334433Y-43968762D03*
X140334433Y-47418762D03*
D23*
X141559433Y-45693762D03*
%TD*%
D10*
%TO.C,KiKit_MB_9_5*%
X170781475Y-43124048D03*
%TD*%
%TO.C,KiKit_MB_21_1*%
X170781475Y-80372784D03*
%TD*%
D42*
%TO.C,Y2*%
X185508208Y-116679555D03*
X185331431Y-116856332D03*
X185154654Y-116679555D03*
X185331431Y-116502778D03*
%TD*%
D28*
%TO.C,C17*%
X180006031Y-36231157D03*
X179366031Y-36231157D03*
%TD*%
D22*
%TO.C,MK1*%
X107135696Y-77767499D03*
X107135696Y-79117499D03*
X108035696Y-79117499D03*
X108035696Y-77767499D03*
D23*
X106360696Y-78442499D03*
D24*
X107585696Y-76717499D03*
X107585696Y-80167499D03*
D23*
X108810696Y-78442499D03*
%TD*%
D11*
%TO.C,C4*%
X141167303Y-114781822D03*
X140714755Y-115234370D03*
%TD*%
D30*
%TO.C,Y1*%
X184092706Y-46284080D03*
X184676070Y-45700716D03*
%TD*%
D36*
%TO.C,C16*%
X179000138Y-103692586D03*
X179000138Y-104332586D03*
%TD*%
D25*
%TO.C,R4*%
X175874725Y-47665074D03*
X175153477Y-48386322D03*
%TD*%
D38*
%TO.C,C20*%
X107285393Y-43054737D03*
X107925393Y-43054737D03*
%TD*%
D14*
%TO.C,C12*%
X151324044Y-115915880D03*
X151776592Y-116368428D03*
%TD*%
D42*
%TO.C,Y2*%
X185508208Y-51182081D03*
X185331431Y-51358858D03*
X185154654Y-51182081D03*
X185331431Y-51005304D03*
%TD*%
D21*
%TO.C,TP2*%
X120347458Y-105568221D03*
%TD*%
D14*
%TO.C,C2*%
X118080332Y-50913381D03*
X118532880Y-51365929D03*
%TD*%
D11*
%TO.C,C9*%
X123317306Y-84515030D03*
X122864758Y-84967578D03*
%TD*%
D31*
%TO.C,J1*%
X189097623Y-40500595D03*
X190113623Y-45580595D03*
X188081623Y-45580595D03*
D32*
X188462623Y-41770595D03*
X189732623Y-41770595D03*
X188462623Y-43040595D03*
X189732623Y-43040595D03*
X188462623Y-44310595D03*
X189732623Y-44310595D03*
%TD*%
D41*
%TO.C,SW1*%
X178667798Y-78476338D03*
X181602291Y-75541845D03*
X180188077Y-79996617D03*
X183104893Y-77079802D03*
%TD*%
D38*
%TO.C,C15*%
X148095148Y-68986965D03*
X148735148Y-68986965D03*
%TD*%
D14*
%TO.C,L3*%
X122454636Y-116401097D03*
X122907184Y-116853645D03*
%TD*%
D41*
%TO.C,SW1*%
X145919061Y-45727601D03*
X148853554Y-42793108D03*
X147439340Y-47247880D03*
X150356156Y-44331065D03*
%TD*%
D10*
%TO.C,KiKit_MB_15_2*%
X114626263Y-67655520D03*
%TD*%
D14*
%TO.C,C12*%
X184072781Y-83167143D03*
X184525329Y-83619691D03*
%TD*%
D10*
%TO.C,KiKit_MB_20_5*%
X146250000Y-88175833D03*
%TD*%
%TO.C,KiKit_MB_4_1*%
X118001263Y-55427096D03*
%TD*%
D20*
%TO.C,C8*%
X121408713Y-112978104D03*
X120956165Y-112525556D03*
%TD*%
D11*
%TO.C,C11*%
X151196764Y-80112442D03*
X150744216Y-80564990D03*
%TD*%
D10*
%TO.C,KiKit_MB_30_4*%
X158553049Y-111996521D03*
%TD*%
%TO.C,KiKit_MB_3_1*%
X113501263Y-34906778D03*
%TD*%
D14*
%TO.C,L2*%
X186679318Y-49630830D03*
X187131866Y-50083378D03*
%TD*%
%TO.C,R2*%
X178590016Y-116853645D03*
X179042564Y-117306193D03*
%TD*%
D10*
%TO.C,KiKit_MB_30_3*%
X158553049Y-110871521D03*
%TD*%
%TO.C,KiKit_MB_11_2*%
X180123736Y-34906784D03*
%TD*%
%TO.C,KiKit_MB_2_2*%
X125804312Y-44249048D03*
%TD*%
D25*
%TO.C,JP2*%
X178307173Y-69793067D03*
X177585925Y-70514315D03*
%TD*%
D10*
%TO.C,KiKit_MB_19_3*%
X148499999Y-67655525D03*
%TD*%
D25*
%TO.C,R4*%
X143125988Y-113162548D03*
X142404740Y-113883796D03*
%TD*%
D10*
%TO.C,KiKit_MB_35_2*%
X180123736Y-100404257D03*
%TD*%
D37*
%TO.C,U1*%
X185393231Y-115096626D03*
X185181099Y-114884494D03*
X184968967Y-114672362D03*
X184756835Y-114460230D03*
X184544703Y-114248098D03*
X184332571Y-114035965D03*
X184120439Y-113823833D03*
X185605363Y-114884494D03*
X185181099Y-114460230D03*
X184968967Y-114248098D03*
X184756835Y-114035965D03*
X184544703Y-113823833D03*
X184332571Y-113611701D03*
X185605363Y-114460230D03*
X185393231Y-114248098D03*
X185181099Y-114035965D03*
X184968967Y-113823833D03*
X184756835Y-113611701D03*
X184544703Y-113399569D03*
X186029628Y-114460230D03*
X185817496Y-114248098D03*
X185605363Y-114035965D03*
X185393231Y-113823833D03*
X185181099Y-113611701D03*
X184968967Y-113399569D03*
X184756835Y-113187437D03*
X186241760Y-114248098D03*
X186029628Y-114035965D03*
X185817496Y-113823833D03*
X185605363Y-113611701D03*
X185393231Y-113399569D03*
X185181099Y-113187437D03*
X184968967Y-112975305D03*
X186453892Y-114035965D03*
X186241760Y-113823833D03*
X186029628Y-113611701D03*
X185817496Y-113399569D03*
X185605363Y-113187437D03*
X185393231Y-112975305D03*
X185181099Y-112763173D03*
X186666024Y-113823833D03*
X186453892Y-113611701D03*
X186241760Y-113399569D03*
X186029628Y-113187437D03*
X185817496Y-112975305D03*
X185605363Y-112763173D03*
X185393231Y-112551041D03*
%TD*%
D10*
%TO.C,KiKit_MB_7_5*%
X150749999Y-34906800D03*
%TD*%
D20*
%TO.C,L18*%
X156497378Y-119646716D03*
X156044830Y-119194168D03*
%TD*%
D11*
%TO.C,C11*%
X151196764Y-47363705D03*
X150744216Y-47816253D03*
%TD*%
D37*
%TO.C,U1*%
X119895757Y-115096626D03*
X119683625Y-114884494D03*
X119471493Y-114672362D03*
X119259361Y-114460230D03*
X119047229Y-114248098D03*
X118835097Y-114035965D03*
X118622965Y-113823833D03*
X120107889Y-114884494D03*
X119683625Y-114460230D03*
X119471493Y-114248098D03*
X119259361Y-114035965D03*
X119047229Y-113823833D03*
X118835097Y-113611701D03*
X120107889Y-114460230D03*
X119895757Y-114248098D03*
X119683625Y-114035965D03*
X119471493Y-113823833D03*
X119259361Y-113611701D03*
X119047229Y-113399569D03*
X120532154Y-114460230D03*
X120320022Y-114248098D03*
X120107889Y-114035965D03*
X119895757Y-113823833D03*
X119683625Y-113611701D03*
X119471493Y-113399569D03*
X119259361Y-113187437D03*
X120744286Y-114248098D03*
X120532154Y-114035965D03*
X120320022Y-113823833D03*
X120107889Y-113611701D03*
X119895757Y-113399569D03*
X119683625Y-113187437D03*
X119471493Y-112975305D03*
X120956418Y-114035965D03*
X120744286Y-113823833D03*
X120532154Y-113611701D03*
X120320022Y-113399569D03*
X120107889Y-113187437D03*
X119895757Y-112975305D03*
X119683625Y-112763173D03*
X121168550Y-113823833D03*
X120956418Y-113611701D03*
X120744286Y-113399569D03*
X120532154Y-113187437D03*
X120320022Y-112975305D03*
X120107889Y-112763173D03*
X119895757Y-112551041D03*
%TD*%
D21*
%TO.C,KiKit_FID_T_1*%
X95377216Y-25000000D03*
%TD*%
D10*
%TO.C,KiKit_MB_36_1*%
X183498737Y-120924570D03*
%TD*%
%TO.C,KiKit_MB_20_3*%
X148500000Y-88175833D03*
%TD*%
D20*
%TO.C,C1*%
X184037425Y-82141838D03*
X183584877Y-81689290D03*
%TD*%
D11*
%TO.C,C9*%
X123317306Y-51766293D03*
X122864758Y-52218841D03*
%TD*%
D25*
%TO.C,R4*%
X175874725Y-113162548D03*
X175153477Y-113883796D03*
%TD*%
D17*
%TO.C,Q1*%
X110430285Y-46240253D03*
X110748483Y-45922055D03*
D18*
X110094410Y-45586180D03*
%TD*%
D25*
%TO.C,JP2*%
X178307173Y-37044330D03*
X177585925Y-37765578D03*
%TD*%
D10*
%TO.C,KiKit_MB_2_1*%
X125804312Y-43124048D03*
%TD*%
D20*
%TO.C,L18*%
X156497378Y-54149242D03*
X156044830Y-53696694D03*
%TD*%
D10*
%TO.C,KiKit_MB_29_4*%
X138032738Y-109746521D03*
%TD*%
D42*
%TO.C,Y2*%
X185508208Y-83930818D03*
X185331431Y-84107595D03*
X185154654Y-83930818D03*
X185331431Y-83754041D03*
%TD*%
D30*
%TO.C,Y1*%
X118595232Y-111781554D03*
X119178596Y-111198190D03*
%TD*%
D41*
%TO.C,SW1*%
X113170324Y-78476338D03*
X116104817Y-75541845D03*
X114690603Y-79996617D03*
X117607419Y-77079802D03*
%TD*%
D10*
%TO.C,KiKit_MB_16_2*%
X116876264Y-88175833D03*
%TD*%
D11*
%TO.C,C11*%
X118448027Y-112861179D03*
X117995479Y-113313727D03*
%TD*%
%TO.C,C6*%
X122044514Y-115990975D03*
X121591966Y-116443523D03*
%TD*%
%TO.C,C11*%
X118448027Y-80112442D03*
X117995479Y-80564990D03*
%TD*%
D39*
%TO.C,JP1*%
X106311388Y-86996975D03*
D40*
X107230626Y-86077737D03*
%TD*%
D10*
%TO.C,KiKit_MB_15_4*%
X116876263Y-67655530D03*
%TD*%
D14*
%TO.C,L4*%
X123727428Y-52176415D03*
X124179976Y-52628963D03*
%TD*%
D26*
%TO.C,R1*%
X176291919Y-44659870D03*
X177013167Y-45381118D03*
%TD*%
D12*
%TO.C,U2*%
X174672644Y-82789689D03*
X174213025Y-83249309D03*
X173753405Y-83708928D03*
X175096908Y-85052431D03*
X175556527Y-84592811D03*
X176016147Y-84133192D03*
%TD*%
D14*
%TO.C,R2*%
X145841279Y-84104908D03*
X146293827Y-84557456D03*
%TD*%
D11*
%TO.C,C11*%
X183945501Y-112861179D03*
X183492953Y-113313727D03*
%TD*%
D37*
%TO.C,U1*%
X119895757Y-82347889D03*
X119683625Y-82135757D03*
X119471493Y-81923625D03*
X119259361Y-81711493D03*
X119047229Y-81499361D03*
X118835097Y-81287228D03*
X118622965Y-81075096D03*
X120107889Y-82135757D03*
X119683625Y-81711493D03*
X119471493Y-81499361D03*
X119259361Y-81287228D03*
X119047229Y-81075096D03*
X118835097Y-80862964D03*
X120107889Y-81711493D03*
X119895757Y-81499361D03*
X119683625Y-81287228D03*
X119471493Y-81075096D03*
X119259361Y-80862964D03*
X119047229Y-80650832D03*
X120532154Y-81711493D03*
X120320022Y-81499361D03*
X120107889Y-81287228D03*
X119895757Y-81075096D03*
X119683625Y-80862964D03*
X119471493Y-80650832D03*
X119259361Y-80438700D03*
X120744286Y-81499361D03*
X120532154Y-81287228D03*
X120320022Y-81075096D03*
X120107889Y-80862964D03*
X119895757Y-80650832D03*
X119683625Y-80438700D03*
X119471493Y-80226568D03*
X120956418Y-81287228D03*
X120744286Y-81075096D03*
X120532154Y-80862964D03*
X120320022Y-80650832D03*
X120107889Y-80438700D03*
X119895757Y-80226568D03*
X119683625Y-80014436D03*
X121168550Y-81075096D03*
X120956418Y-80862964D03*
X120744286Y-80650832D03*
X120532154Y-80438700D03*
X120320022Y-80226568D03*
X120107889Y-80014436D03*
X119895757Y-79802304D03*
%TD*%
D10*
%TO.C,KiKit_MB_28_4*%
X114626264Y-120924570D03*
%TD*%
%TO.C,KiKit_MB_31_3*%
X148499999Y-100404262D03*
%TD*%
D20*
%TO.C,C8*%
X186906187Y-80229367D03*
X186453639Y-79776819D03*
%TD*%
D10*
%TO.C,KiKit_MB_6_3*%
X158553049Y-45374048D03*
%TD*%
D11*
%TO.C,L7*%
X123232453Y-120162905D03*
X122779905Y-120615453D03*
%TD*%
D10*
%TO.C,KiKit_MB_7_3*%
X148499999Y-34906789D03*
%TD*%
D33*
%TO.C,D1*%
X176802803Y-42041807D03*
X177916497Y-40928113D03*
%TD*%
D12*
%TO.C,U2*%
X109175170Y-50040952D03*
X108715551Y-50500572D03*
X108255931Y-50960191D03*
X109599434Y-52303694D03*
X110059053Y-51844074D03*
X110518673Y-51384455D03*
%TD*%
D19*
%TO.C,L1*%
X116733293Y-114590055D03*
X117419187Y-113904161D03*
%TD*%
D14*
%TO.C,R3*%
X113587517Y-116358670D03*
X114040065Y-116811218D03*
%TD*%
D15*
%TO.C,AE1*%
X191098735Y-88496041D03*
D16*
X190002719Y-89592057D03*
%TD*%
D10*
%TO.C,KiKit_MB_13_1*%
X105284002Y-80372784D03*
%TD*%
%TO.C,KiKit_MB_16_3*%
X115751264Y-88175833D03*
%TD*%
%TO.C,KiKit_MB_29_5*%
X138032738Y-108621521D03*
%TD*%
D11*
%TO.C,L6*%
X124724448Y-53173435D03*
X124271900Y-53625983D03*
%TD*%
D10*
%TO.C,KiKit_MB_12_3*%
X181248737Y-55427096D03*
%TD*%
D11*
%TO.C,C6*%
X187541988Y-115990975D03*
X187089440Y-116443523D03*
%TD*%
D10*
%TO.C,KiKit_MB_24_4*%
X180123737Y-88175833D03*
%TD*%
%TO.C,KiKit_MB_11_3*%
X181248736Y-34906789D03*
%TD*%
D29*
%TO.C,C10*%
X117681665Y-46738764D03*
X117002843Y-47417586D03*
%TD*%
D10*
%TO.C,KiKit_MB_14_5*%
X125804312Y-80372784D03*
%TD*%
D42*
%TO.C,Y2*%
X152759471Y-116679555D03*
X152582694Y-116856332D03*
X152405917Y-116679555D03*
X152582694Y-116502778D03*
%TD*%
D10*
%TO.C,KiKit_MB_8_3*%
X148500000Y-55427096D03*
%TD*%
%TO.C,KiKit_MB_26_5*%
X125804312Y-113121521D03*
%TD*%
D31*
%TO.C,J1*%
X123600149Y-40500595D03*
X124616149Y-45580595D03*
X122584149Y-45580595D03*
D32*
X122965149Y-41770595D03*
X124235149Y-41770595D03*
X122965149Y-43040595D03*
X124235149Y-43040595D03*
X122965149Y-44310595D03*
X124235149Y-44310595D03*
%TD*%
D14*
%TO.C,C5*%
X184574827Y-115427976D03*
X185027375Y-115880524D03*
%TD*%
D21*
%TO.C,TP2*%
X153096195Y-40070747D03*
%TD*%
D33*
%TO.C,D1*%
X144054066Y-74790544D03*
X145167760Y-73676850D03*
%TD*%
D14*
%TO.C,R2*%
X113092542Y-84104908D03*
X113545090Y-84557456D03*
%TD*%
D11*
%TO.C,L6*%
X190221922Y-85922172D03*
X189769374Y-86374720D03*
%TD*%
D14*
%TO.C,L4*%
X123727428Y-117673889D03*
X124179976Y-118126437D03*
%TD*%
D10*
%TO.C,KiKit_MB_29_3*%
X138032738Y-110871521D03*
%TD*%
%TO.C,KiKit_MB_19_2*%
X147374999Y-67655520D03*
%TD*%
%TO.C,KiKit_MB_33_4*%
X170781475Y-109746521D03*
%TD*%
%TO.C,KiKit_MB_8_5*%
X146250000Y-55427096D03*
%TD*%
%TO.C,KiKit_MB_36_4*%
X180123737Y-120924570D03*
%TD*%
D38*
%TO.C,C15*%
X180843885Y-68986965D03*
X181483885Y-68986965D03*
%TD*%
D21*
%TO.C,TP1*%
X118933244Y-41484960D03*
%TD*%
D10*
%TO.C,KiKit_MB_4_3*%
X115751264Y-55427096D03*
%TD*%
D11*
%TO.C,C6*%
X154793251Y-50493501D03*
X154340703Y-50946049D03*
%TD*%
D31*
%TO.C,J1*%
X156348886Y-105998069D03*
X157364886Y-111078069D03*
X155332886Y-111078069D03*
D32*
X155713886Y-107268069D03*
X156983886Y-107268069D03*
X155713886Y-108538069D03*
X156983886Y-108538069D03*
X155713886Y-109808069D03*
X156983886Y-109808069D03*
%TD*%
D19*
%TO.C,L1*%
X116733293Y-49092581D03*
X117419187Y-48406687D03*
%TD*%
D10*
%TO.C,KiKit_MB_34_3*%
X191301786Y-110871521D03*
%TD*%
%TO.C,KiKit_MB_15_1*%
X113501263Y-67655514D03*
%TD*%
D12*
%TO.C,U2*%
X174672644Y-115538426D03*
X174213025Y-115998046D03*
X173753405Y-116457665D03*
X175096908Y-117801168D03*
X175556527Y-117341548D03*
X176016147Y-116881929D03*
%TD*%
D10*
%TO.C,KiKit_MB_9_2*%
X170781475Y-46499048D03*
%TD*%
D21*
%TO.C,TP2*%
X120347458Y-40070747D03*
%TD*%
D41*
%TO.C,SW1*%
X145919061Y-111225075D03*
X148853554Y-108290582D03*
X147439340Y-112745354D03*
X150356156Y-109828539D03*
%TD*%
D10*
%TO.C,KiKit_MB_32_3*%
X148500000Y-120924570D03*
%TD*%
D25*
%TO.C,JP2*%
X112809699Y-102541804D03*
X112088451Y-103263052D03*
%TD*%
D10*
%TO.C,KiKit_MB_7_4*%
X149624999Y-34906794D03*
%TD*%
D41*
%TO.C,SW1*%
X178667798Y-111225075D03*
X181602291Y-108290582D03*
X180188077Y-112745354D03*
X183104893Y-109828539D03*
%TD*%
D20*
%TO.C,C8*%
X121408713Y-47480630D03*
X120956165Y-47028082D03*
%TD*%
D11*
%TO.C,C9*%
X188814780Y-51766293D03*
X188362232Y-52218841D03*
%TD*%
D22*
%TO.C,MK1*%
X139884433Y-110516236D03*
X139884433Y-111866236D03*
X140784433Y-111866236D03*
X140784433Y-110516236D03*
D23*
X139109433Y-111191236D03*
D24*
X140334433Y-109466236D03*
X140334433Y-112916236D03*
D23*
X141559433Y-111191236D03*
%TD*%
D11*
%TO.C,C9*%
X188814780Y-117263767D03*
X188362232Y-117716315D03*
%TD*%
D10*
%TO.C,KiKit_MB_4_4*%
X114626264Y-55427096D03*
%TD*%
D11*
%TO.C,L7*%
X155981190Y-54665431D03*
X155528642Y-55117979D03*
%TD*%
D10*
%TO.C,KiKit_MB_12_2*%
X182373737Y-55427096D03*
%TD*%
D11*
%TO.C,C6*%
X154793251Y-83242238D03*
X154340703Y-83694786D03*
%TD*%
%TO.C,C6*%
X122044514Y-83242238D03*
X121591966Y-83694786D03*
%TD*%
D39*
%TO.C,JP1*%
X106311388Y-54248238D03*
D40*
X107230626Y-53329000D03*
%TD*%
D26*
%TO.C,R1*%
X110794445Y-44659870D03*
X111515693Y-45381118D03*
%TD*%
D10*
%TO.C,KiKit_MB_4_5*%
X113501264Y-55427096D03*
%TD*%
D14*
%TO.C,C5*%
X151826090Y-115427976D03*
X152278638Y-115880524D03*
%TD*%
D10*
%TO.C,KiKit_MB_14_2*%
X125804312Y-76997784D03*
%TD*%
D12*
%TO.C,U2*%
X174672644Y-50040952D03*
X174213025Y-50500572D03*
X173753405Y-50960191D03*
X175096908Y-52303694D03*
X175556527Y-51844074D03*
X176016147Y-51384455D03*
%TD*%
D10*
%TO.C,KiKit_MB_28_5*%
X113501264Y-120924570D03*
%TD*%
D15*
%TO.C,AE1*%
X191098735Y-55747304D03*
D16*
X190002719Y-56843320D03*
%TD*%
D31*
%TO.C,J1*%
X156348886Y-73249332D03*
X157364886Y-78329332D03*
X155332886Y-78329332D03*
D32*
X155713886Y-74519332D03*
X156983886Y-74519332D03*
X155713886Y-75789332D03*
X156983886Y-75789332D03*
X155713886Y-77059332D03*
X156983886Y-77059332D03*
%TD*%
D14*
%TO.C,L3*%
X155203373Y-116401097D03*
X155655921Y-116853645D03*
%TD*%
D11*
%TO.C,C4*%
X173916040Y-49284348D03*
X173463492Y-49736896D03*
%TD*%
D39*
%TO.C,JP1*%
X139060125Y-86996975D03*
D40*
X139979363Y-86077737D03*
%TD*%
D20*
%TO.C,C8*%
X186906187Y-112978104D03*
X186453639Y-112525556D03*
%TD*%
D10*
%TO.C,KiKit_MB_33_5*%
X170781475Y-108621521D03*
%TD*%
D11*
%TO.C,C11*%
X151196764Y-112861179D03*
X150744216Y-113313727D03*
%TD*%
D25*
%TO.C,JP2*%
X145558436Y-69793067D03*
X144837188Y-70514315D03*
%TD*%
D36*
%TO.C,C16*%
X146251401Y-103692586D03*
X146251401Y-104332586D03*
%TD*%
D27*
%TO.C,C3*%
X175811087Y-85752466D03*
X176263635Y-85299918D03*
%TD*%
D17*
%TO.C,Q1*%
X110430285Y-111737727D03*
X110748483Y-111419529D03*
D18*
X110094410Y-111083654D03*
%TD*%
D34*
%TO.C,U3*%
X180145184Y-38809426D03*
X180645184Y-38809426D03*
X181145184Y-38809426D03*
X181645184Y-38809426D03*
D35*
X181809584Y-38199426D03*
X181809584Y-37699426D03*
D34*
X181645184Y-37089426D03*
X181145184Y-37089426D03*
X180645184Y-37089426D03*
X180145184Y-37089426D03*
D35*
X179980784Y-37699426D03*
X179980784Y-38199426D03*
%TD*%
D10*
%TO.C,KiKit_MB_31_4*%
X149624999Y-100404267D03*
%TD*%
%TO.C,KiKit_MB_21_3*%
X170781475Y-78122784D03*
%TD*%
D20*
%TO.C,C8*%
X186906187Y-47480630D03*
X186453639Y-47028082D03*
%TD*%
D21*
%TO.C,TP1*%
X184430718Y-41484960D03*
%TD*%
D20*
%TO.C,C1*%
X151288688Y-114890575D03*
X150836140Y-114438027D03*
%TD*%
D27*
%TO.C,FB1*%
X117571215Y-50361837D03*
X118023763Y-49909289D03*
%TD*%
D20*
%TO.C,L18*%
X189246115Y-54149242D03*
X188793567Y-53696694D03*
%TD*%
D10*
%TO.C,KiKit_MB_26_3*%
X125804312Y-110871521D03*
%TD*%
%TO.C,KiKit_MB_21_5*%
X170781475Y-75872784D03*
%TD*%
D14*
%TO.C,L2*%
X121181844Y-82379567D03*
X121634392Y-82832115D03*
%TD*%
D39*
%TO.C,JP1*%
X171808862Y-54248238D03*
D40*
X172728100Y-53329000D03*
%TD*%
D17*
%TO.C,Q1*%
X110430285Y-78988990D03*
X110748483Y-78670792D03*
D18*
X110094410Y-78334917D03*
%TD*%
D29*
%TO.C,C10*%
X150430402Y-46738764D03*
X149751580Y-47417586D03*
%TD*%
D25*
%TO.C,JP3*%
X144893755Y-36379650D03*
X144172507Y-37100898D03*
%TD*%
D20*
%TO.C,C8*%
X154157450Y-112978104D03*
X153704902Y-112525556D03*
%TD*%
D22*
%TO.C,MK1*%
X139884433Y-77767499D03*
X139884433Y-79117499D03*
X140784433Y-79117499D03*
X140784433Y-77767499D03*
D23*
X139109433Y-78442499D03*
D24*
X140334433Y-76717499D03*
X140334433Y-80167499D03*
D23*
X141559433Y-78442499D03*
%TD*%
D10*
%TO.C,KiKit_MB_23_4*%
X182373736Y-67655530D03*
%TD*%
D27*
%TO.C,C3*%
X143062350Y-53003729D03*
X143514898Y-52551181D03*
%TD*%
D10*
%TO.C,KiKit_MB_6_1*%
X158553049Y-43124048D03*
%TD*%
%TO.C,KiKit_MB_24_3*%
X181248737Y-88175833D03*
%TD*%
M02*
