M48
; DRILL file {KiCad 9.0.0-rc2-3baa6cd791~182~ubuntu24.04.1} date 2025-02-06T23:06:13-0500
; FORMAT={-:-/ absolute / metric / decimal}
; #@! TF.CreationDate,2025-02-06T23:06:13-05:00
; #@! TF.GenerationSoftware,Kicad,Pcbnew,9.0.0-rc2-3baa6cd791~182~ubuntu24.04.1
; #@! TF.FileFunction,Plated,1,4,PTH
FMAT,2
METRIC
; #@! TA.AperFunction,Plated,PTH,ViaDrill
T1C0.150
; #@! TA.AperFunction,Plated,PTH,ViaDrill
T2C0.300
%
G90
G05
T1
X15.828Y-18.657
X15.828Y-20.071
X15.828Y-21.485
X15.828Y-22.899
X15.828Y-28.556
X15.828Y-29.971
X15.828Y-51.406
X15.828Y-52.82
X15.828Y-54.234
X15.828Y-55.648
X15.828Y-61.305
X15.828Y-62.719
X15.828Y-84.154
X15.828Y-85.569
X15.828Y-86.983
X15.828Y-88.397
X15.828Y-94.054
X15.828Y-95.468
X15.934Y-34.249
X15.934Y-66.997
X15.934Y-99.746
X16.536Y-19.364
X16.536Y-20.778
X16.536Y-22.192
X16.536Y-29.263
X16.536Y-30.678
X16.536Y-52.113
X16.536Y-53.527
X16.536Y-54.941
X16.536Y-62.012
X16.536Y-63.426
X16.536Y-84.861
X16.536Y-86.276
X16.536Y-87.69
X16.536Y-94.761
X16.536Y-96.175
X16.759Y-25.019
X16.759Y-26.369
X16.759Y-57.768
X16.759Y-59.118
X16.759Y-90.517
X16.759Y-91.867
X17.243Y-18.657
X17.243Y-20.071
X17.243Y-21.485
X17.243Y-31.385
X17.243Y-51.406
X17.243Y-52.82
X17.243Y-54.234
X17.243Y-64.134
X17.243Y-84.154
X17.243Y-85.569
X17.243Y-86.983
X17.243Y-96.882
X17.548Y-23.055
X17.548Y-55.804
X17.548Y-88.553
X17.589Y-29.737
X17.589Y-62.486
X17.589Y-95.235
X17.659Y-25.019
X17.659Y-26.369
X17.659Y-57.768
X17.659Y-59.118
X17.659Y-90.517
X17.659Y-91.867
X17.95Y-19.364
X17.95Y-20.778
X17.95Y-22.192
X17.95Y-52.113
X17.95Y-53.527
X17.95Y-54.941
X17.95Y-84.861
X17.95Y-86.276
X17.95Y-87.69
X18.042Y-29.285
X18.042Y-62.033
X18.042Y-94.782
X18.339Y-30.501
X18.339Y-63.25
X18.339Y-95.998
X18.657Y-15.828
X18.657Y-20.071
X18.657Y-21.485
X18.657Y-48.577
X18.657Y-52.82
X18.657Y-54.234
X18.657Y-81.326
X18.657Y-85.569
X18.657Y-86.983
X19.279Y-28.387
X19.279Y-61.135
X19.279Y-93.884
X19.364Y-16.536
X19.364Y-17.95
X19.364Y-19.364
X19.364Y-20.778
X19.364Y-29.263
X19.364Y-49.284
X19.364Y-50.698
X19.364Y-52.113
X19.364Y-53.527
X19.364Y-62.012
X19.364Y-82.033
X19.364Y-83.447
X19.364Y-84.861
X19.364Y-86.276
X19.364Y-94.761
X19.682Y-31.844
X19.682Y-64.593
X19.682Y-97.342
X20.0Y-27.665
X20.0Y-60.414
X20.0Y-93.163
X20.071Y-15.828
X20.071Y-17.243
X20.071Y-18.657
X20.071Y-20.071
X20.071Y-28.556
X20.071Y-34.213
X20.071Y-48.577
X20.071Y-49.991
X20.071Y-51.406
X20.071Y-52.82
X20.071Y-61.305
X20.071Y-66.962
X20.071Y-81.326
X20.071Y-82.74
X20.071Y-84.154
X20.071Y-85.569
X20.071Y-94.054
X20.071Y-99.711
X20.389Y-32.552
X20.389Y-65.3
X20.389Y-98.049
X20.672Y-26.223
X20.672Y-58.972
X20.672Y-91.72
X20.778Y-17.95
X20.778Y-19.364
X20.778Y-34.92
X20.778Y-50.698
X20.778Y-52.113
X20.778Y-67.669
X20.778Y-83.447
X20.778Y-84.861
X20.778Y-100.418
X21.485Y-18.657
X21.485Y-21.485
X21.485Y-34.213
X21.485Y-51.406
X21.485Y-54.234
X21.485Y-66.962
X21.485Y-84.154
X21.485Y-86.983
X21.485Y-99.711
X22.042Y-20.928
X22.042Y-53.677
X22.042Y-86.426
X22.192Y-27.849
X22.192Y-29.263
X22.192Y-30.678
X22.192Y-33.506
X22.192Y-34.92
X22.192Y-60.598
X22.192Y-62.012
X22.192Y-63.426
X22.192Y-66.255
X22.192Y-67.669
X22.192Y-93.347
X22.192Y-94.761
X22.192Y-96.175
X22.192Y-99.004
X22.192Y-100.418
X22.235Y-18.431
X22.235Y-51.179
X22.235Y-83.928
X22.26Y-26.262
X22.26Y-59.011
X22.26Y-91.759
X22.899Y-27.142
X22.899Y-29.971
X22.899Y-34.213
X22.899Y-59.891
X22.899Y-62.719
X22.899Y-66.962
X22.899Y-92.64
X22.899Y-95.468
X22.899Y-99.711
X23.126Y-18.835
X23.126Y-51.584
X23.126Y-84.333
X23.168Y-31.809
X23.168Y-64.558
X23.168Y-97.307
X23.211Y-30.862
X23.211Y-63.61
X23.211Y-96.359
X23.407Y-16.217
X23.407Y-48.966
X23.407Y-81.715
X23.607Y-27.849
X23.607Y-29.263
X23.607Y-33.506
X23.607Y-34.92
X23.607Y-60.598
X23.607Y-62.012
X23.607Y-66.255
X23.607Y-67.669
X23.607Y-93.347
X23.607Y-94.761
X23.607Y-99.004
X23.607Y-100.418
X23.663Y-31.314
X23.663Y-64.063
X23.663Y-96.812
X24.106Y-17.7
X24.106Y-50.448
X24.106Y-83.197
X24.257Y-19.52
X24.257Y-52.268
X24.257Y-85.017
X24.271Y-18.81
X24.271Y-51.558
X24.271Y-84.307
X24.314Y-28.556
X24.314Y-34.213
X24.314Y-61.305
X24.314Y-66.962
X24.314Y-94.054
X24.314Y-99.711
X24.766Y-19.534
X24.766Y-52.282
X24.766Y-85.031
X25.021Y-30.678
X25.021Y-33.506
X25.021Y-34.92
X25.021Y-63.426
X25.021Y-66.255
X25.021Y-67.669
X25.021Y-96.175
X25.021Y-99.004
X25.021Y-100.418
X25.271Y-18.81
X25.271Y-51.558
X25.271Y-84.307
X25.61Y-16.239
X25.61Y-48.987
X25.61Y-81.736
X25.728Y-29.971
X25.728Y-32.799
X25.728Y-34.213
X25.728Y-62.719
X25.728Y-65.548
X25.728Y-66.962
X25.728Y-95.468
X25.728Y-98.296
X25.728Y-99.711
X25.771Y-17.09
X25.771Y-49.838
X25.771Y-82.587
X25.935Y-17.7
X25.935Y-50.448
X25.935Y-83.197
X26.386Y-31.562
X26.386Y-64.31
X26.386Y-97.059
X26.435Y-16.536
X26.435Y-33.506
X26.435Y-34.92
X26.435Y-49.284
X26.435Y-66.255
X26.435Y-67.669
X26.435Y-82.033
X26.435Y-99.004
X26.435Y-100.418
X26.555Y-20.616
X26.555Y-53.364
X26.555Y-86.113
X26.626Y-27.418
X26.626Y-29.78
X26.626Y-60.167
X26.626Y-62.528
X26.626Y-92.915
X26.626Y-95.277
X26.683Y-18.692
X26.683Y-51.441
X26.683Y-84.19
X27.022Y-21.068
X27.022Y-53.817
X27.022Y-86.566
X27.142Y-15.828
X27.142Y-17.243
X27.142Y-32.799
X27.142Y-48.577
X27.142Y-49.991
X27.142Y-65.548
X27.142Y-81.326
X27.142Y-82.74
X27.142Y-98.296
X27.619Y-27.817
X27.619Y-60.565
X27.619Y-93.314
X27.71Y-28.941
X27.71Y-61.69
X27.71Y-94.438
X27.821Y-27.114
X27.821Y-59.863
X27.821Y-92.611
X27.849Y-16.536
X27.849Y-17.95
X27.849Y-19.364
X27.849Y-49.284
X27.849Y-50.698
X27.849Y-52.113
X27.849Y-82.033
X27.849Y-83.447
X27.849Y-84.861
X28.156Y-31.366
X28.156Y-64.115
X28.156Y-96.864
X28.22Y-26.284
X28.22Y-59.033
X28.22Y-91.782
X28.415Y-19.505
X28.415Y-52.254
X28.415Y-85.003
X28.422Y-27.093
X28.422Y-59.841
X28.422Y-92.59
X28.453Y-30.178
X28.453Y-62.927
X28.453Y-95.676
X28.556Y-15.828
X28.556Y-17.243
X28.556Y-18.657
X28.556Y-21.485
X28.556Y-32.799
X28.556Y-34.213
X28.556Y-48.577
X28.556Y-49.991
X28.556Y-51.406
X28.556Y-54.234
X28.556Y-65.548
X28.556Y-66.962
X28.556Y-81.326
X28.556Y-82.74
X28.556Y-84.154
X28.556Y-86.983
X28.556Y-98.296
X28.556Y-99.711
X28.665Y-30.871
X28.665Y-63.62
X28.665Y-96.369
X28.67Y-28.327
X28.67Y-61.075
X28.67Y-93.824
X28.79Y-31.448
X28.79Y-64.197
X28.79Y-96.946
X28.802Y-25.701
X28.802Y-58.45
X28.802Y-91.199
X29.094Y-27.479
X29.094Y-60.227
X29.094Y-92.976
X29.095Y-27.902
X29.095Y-29.175
X29.095Y-60.651
X29.095Y-61.924
X29.095Y-93.4
X29.095Y-94.673
X29.095Y-28.327
X29.095Y-61.076
X29.095Y-93.825
X29.15Y-27.015
X29.15Y-59.764
X29.15Y-92.512
X29.153Y-30.383
X29.153Y-63.132
X29.153Y-95.881
X29.193Y-31.823
X29.193Y-64.572
X29.193Y-97.321
X29.263Y-16.536
X29.263Y-17.95
X29.263Y-33.506
X29.263Y-34.92
X29.263Y-49.284
X29.263Y-50.698
X29.263Y-66.255
X29.263Y-67.669
X29.263Y-82.033
X29.263Y-83.447
X29.263Y-99.004
X29.263Y-100.418
X29.517Y-29.174
X29.517Y-61.923
X29.517Y-94.672
X29.519Y-28.751
X29.519Y-61.5
X29.519Y-94.248
X29.716Y-26.817
X29.716Y-59.566
X29.716Y-92.314
X29.879Y-29.667
X29.879Y-62.415
X29.879Y-95.164
X29.943Y-28.327
X29.943Y-28.751
X29.943Y-61.075
X29.943Y-61.5
X29.943Y-93.824
X29.943Y-94.248
X29.971Y-15.828
X29.971Y-17.243
X29.971Y-18.657
X29.971Y-32.799
X29.971Y-34.213
X29.971Y-48.577
X29.971Y-49.991
X29.971Y-51.406
X29.971Y-65.548
X29.971Y-66.962
X29.971Y-81.326
X29.971Y-82.74
X29.971Y-84.154
X29.971Y-98.296
X29.971Y-99.711
X30.077Y-26.145
X30.077Y-58.894
X30.077Y-91.643
X30.239Y-29.815
X30.239Y-62.564
X30.239Y-95.312
X30.367Y-28.327
X30.367Y-61.075
X30.367Y-93.824
X30.555Y-27.035
X30.555Y-59.783
X30.555Y-92.532
X30.678Y-16.536
X30.678Y-17.95
X30.678Y-23.607
X30.678Y-32.092
X30.678Y-33.506
X30.678Y-34.92
X30.678Y-49.284
X30.678Y-50.698
X30.678Y-56.355
X30.678Y-64.841
X30.678Y-66.255
X30.678Y-67.669
X30.678Y-82.033
X30.678Y-83.447
X30.678Y-89.104
X30.678Y-97.589
X30.678Y-99.004
X30.678Y-100.418
X31.007Y-27.487
X31.007Y-60.236
X31.007Y-92.985
X31.215Y-30.946
X31.215Y-63.695
X31.215Y-96.444
X31.385Y-17.243
X31.385Y-18.657
X31.385Y-20.071
X31.385Y-22.899
X31.385Y-32.799
X31.385Y-34.213
X31.385Y-49.991
X31.385Y-51.406
X31.385Y-52.82
X31.385Y-55.648
X31.385Y-65.548
X31.385Y-66.962
X31.385Y-82.74
X31.385Y-84.154
X31.385Y-85.569
X31.385Y-88.397
X31.385Y-98.296
X31.385Y-99.711
X31.668Y-21.768
X31.668Y-54.517
X31.668Y-87.266
X31.915Y-24.307
X31.915Y-57.055
X31.915Y-89.804
X32.078Y-23.748
X32.078Y-56.497
X32.078Y-89.245
X32.092Y-17.95
X32.092Y-19.364
X32.092Y-20.778
X32.092Y-29.263
X32.092Y-33.506
X32.092Y-50.698
X32.092Y-52.113
X32.092Y-53.527
X32.092Y-62.012
X32.092Y-66.255
X32.092Y-83.447
X32.092Y-84.861
X32.092Y-86.276
X32.092Y-94.761
X32.092Y-99.004
X32.488Y-32.219
X32.488Y-64.968
X32.488Y-97.717
X32.799Y-18.657
X32.799Y-28.556
X32.799Y-29.971
X32.799Y-51.406
X32.799Y-61.305
X32.799Y-62.719
X32.799Y-84.154
X32.799Y-94.054
X32.799Y-95.468
X32.919Y-33.697
X32.919Y-66.446
X32.919Y-99.194
X33.506Y-19.364
X33.506Y-27.849
X33.506Y-29.263
X33.506Y-30.678
X33.506Y-52.113
X33.506Y-60.598
X33.506Y-62.012
X33.506Y-63.426
X33.506Y-84.861
X33.506Y-93.347
X33.506Y-94.761
X33.506Y-96.175
X34.213Y-20.071
X34.213Y-27.142
X34.213Y-28.556
X34.213Y-29.971
X34.213Y-31.385
X34.213Y-52.82
X34.213Y-59.891
X34.213Y-61.305
X34.213Y-62.719
X34.213Y-64.134
X34.213Y-85.569
X34.213Y-92.64
X34.213Y-94.054
X34.213Y-95.468
X34.213Y-96.882
X34.553Y-23.041
X34.553Y-55.79
X34.553Y-88.538
X34.609Y-21.768
X34.609Y-54.517
X34.609Y-87.266
X34.92Y-20.778
X34.92Y-27.849
X34.92Y-29.263
X34.92Y-30.678
X34.92Y-53.527
X34.92Y-60.598
X34.92Y-62.012
X34.92Y-63.426
X34.92Y-86.276
X34.92Y-93.347
X34.92Y-94.761
X34.92Y-96.175
X48.577Y-18.657
X48.577Y-20.071
X48.577Y-21.485
X48.577Y-22.899
X48.577Y-28.556
X48.577Y-29.971
X48.577Y-51.406
X48.577Y-52.82
X48.577Y-54.234
X48.577Y-55.648
X48.577Y-61.305
X48.577Y-62.719
X48.577Y-84.154
X48.577Y-85.569
X48.577Y-86.983
X48.577Y-88.397
X48.577Y-94.054
X48.577Y-95.468
X48.683Y-34.249
X48.683Y-66.997
X48.683Y-99.746
X49.284Y-19.364
X49.284Y-20.778
X49.284Y-22.192
X49.284Y-29.263
X49.284Y-30.678
X49.284Y-52.113
X49.284Y-53.527
X49.284Y-54.941
X49.284Y-62.012
X49.284Y-63.426
X49.284Y-84.861
X49.284Y-86.276
X49.284Y-87.69
X49.284Y-94.761
X49.284Y-96.175
X49.508Y-25.019
X49.508Y-26.369
X49.508Y-57.768
X49.508Y-59.118
X49.508Y-90.517
X49.508Y-91.867
X49.991Y-18.657
X49.991Y-20.071
X49.991Y-21.485
X49.991Y-31.385
X49.991Y-51.406
X49.991Y-52.82
X49.991Y-54.234
X49.991Y-64.134
X49.991Y-84.154
X49.991Y-85.569
X49.991Y-86.983
X49.991Y-96.882
X50.297Y-23.055
X50.297Y-55.804
X50.297Y-88.553
X50.338Y-29.737
X50.338Y-62.486
X50.338Y-95.235
X50.408Y-25.019
X50.408Y-26.369
X50.408Y-57.768
X50.408Y-59.118
X50.408Y-90.517
X50.408Y-91.867
X50.698Y-19.364
X50.698Y-20.778
X50.698Y-22.192
X50.698Y-52.113
X50.698Y-53.527
X50.698Y-54.941
X50.698Y-84.861
X50.698Y-86.276
X50.698Y-87.69
X50.79Y-29.285
X50.79Y-62.033
X50.79Y-94.782
X51.087Y-30.501
X51.087Y-63.25
X51.087Y-95.998
X51.406Y-15.828
X51.406Y-20.071
X51.406Y-21.485
X51.406Y-48.577
X51.406Y-52.82
X51.406Y-54.234
X51.406Y-81.326
X51.406Y-85.569
X51.406Y-86.983
X52.028Y-28.387
X52.028Y-61.135
X52.028Y-93.884
X52.113Y-16.536
X52.113Y-17.95
X52.113Y-19.364
X52.113Y-20.778
X52.113Y-29.263
X52.113Y-49.284
X52.113Y-50.698
X52.113Y-52.113
X52.113Y-53.527
X52.113Y-62.012
X52.113Y-82.033
X52.113Y-83.447
X52.113Y-84.861
X52.113Y-86.276
X52.113Y-94.761
X52.431Y-31.844
X52.431Y-64.593
X52.431Y-97.342
X52.749Y-27.665
X52.749Y-60.414
X52.749Y-93.163
X52.82Y-15.828
X52.82Y-17.243
X52.82Y-18.657
X52.82Y-20.071
X52.82Y-28.556
X52.82Y-34.213
X52.82Y-48.577
X52.82Y-49.991
X52.82Y-51.406
X52.82Y-52.82
X52.82Y-61.305
X52.82Y-66.962
X52.82Y-81.326
X52.82Y-82.74
X52.82Y-84.154
X52.82Y-85.569
X52.82Y-94.054
X52.82Y-99.711
X53.138Y-32.552
X53.138Y-65.3
X53.138Y-98.049
X53.421Y-26.223
X53.421Y-58.972
X53.421Y-91.72
X53.527Y-17.95
X53.527Y-19.364
X53.527Y-34.92
X53.527Y-50.698
X53.527Y-52.113
X53.527Y-67.669
X53.527Y-83.447
X53.527Y-84.861
X53.527Y-100.418
X54.234Y-18.657
X54.234Y-21.485
X54.234Y-34.213
X54.234Y-51.406
X54.234Y-54.234
X54.234Y-66.962
X54.234Y-84.154
X54.234Y-86.983
X54.234Y-99.711
X54.791Y-20.928
X54.791Y-53.677
X54.791Y-86.426
X54.941Y-27.849
X54.941Y-29.263
X54.941Y-30.678
X54.941Y-33.506
X54.941Y-34.92
X54.941Y-60.598
X54.941Y-62.012
X54.941Y-63.426
X54.941Y-66.255
X54.941Y-67.669
X54.941Y-93.347
X54.941Y-94.761
X54.941Y-96.175
X54.941Y-99.004
X54.941Y-100.418
X54.984Y-18.431
X54.984Y-51.179
X54.984Y-83.928
X55.008Y-26.262
X55.008Y-59.011
X55.008Y-91.759
X55.648Y-27.142
X55.648Y-29.971
X55.648Y-34.213
X55.648Y-59.891
X55.648Y-62.719
X55.648Y-66.962
X55.648Y-92.64
X55.648Y-95.468
X55.648Y-99.711
X55.874Y-18.835
X55.874Y-51.584
X55.874Y-84.333
X55.917Y-31.809
X55.917Y-64.558
X55.917Y-97.307
X55.959Y-30.862
X55.959Y-63.61
X55.959Y-96.359
X56.156Y-16.217
X56.156Y-48.966
X56.156Y-81.715
X56.355Y-27.849
X56.355Y-29.263
X56.355Y-33.506
X56.355Y-34.92
X56.355Y-60.598
X56.355Y-62.012
X56.355Y-66.255
X56.355Y-67.669
X56.355Y-93.347
X56.355Y-94.761
X56.355Y-99.004
X56.355Y-100.418
X56.412Y-31.314
X56.412Y-64.063
X56.412Y-96.812
X56.855Y-17.7
X56.855Y-50.448
X56.855Y-83.197
X57.006Y-19.52
X57.006Y-52.268
X57.006Y-85.017
X57.02Y-18.81
X57.02Y-51.558
X57.02Y-84.307
X57.062Y-28.556
X57.062Y-34.213
X57.062Y-61.305
X57.062Y-66.962
X57.062Y-94.054
X57.062Y-99.711
X57.515Y-19.534
X57.515Y-52.282
X57.515Y-85.031
X57.77Y-30.678
X57.77Y-33.506
X57.77Y-34.92
X57.77Y-63.426
X57.77Y-66.255
X57.77Y-67.669
X57.77Y-96.175
X57.77Y-99.004
X57.77Y-100.418
X58.02Y-18.81
X58.02Y-51.558
X58.02Y-84.307
X58.358Y-16.239
X58.358Y-48.987
X58.358Y-81.736
X58.477Y-29.971
X58.477Y-32.799
X58.477Y-34.213
X58.477Y-62.719
X58.477Y-65.548
X58.477Y-66.962
X58.477Y-95.468
X58.477Y-98.296
X58.477Y-99.711
X58.52Y-17.09
X58.52Y-49.838
X58.52Y-82.587
X58.684Y-17.7
X58.684Y-50.448
X58.684Y-83.197
X59.134Y-31.562
X59.134Y-64.31
X59.134Y-97.059
X59.184Y-16.536
X59.184Y-33.506
X59.184Y-34.92
X59.184Y-49.284
X59.184Y-66.255
X59.184Y-67.669
X59.184Y-82.033
X59.184Y-99.004
X59.184Y-100.418
X59.304Y-20.616
X59.304Y-53.364
X59.304Y-86.113
X59.375Y-27.418
X59.375Y-29.78
X59.375Y-60.167
X59.375Y-62.528
X59.375Y-92.915
X59.375Y-95.277
X59.431Y-18.692
X59.431Y-51.441
X59.431Y-84.19
X59.771Y-21.068
X59.771Y-53.817
X59.771Y-86.566
X59.891Y-15.828
X59.891Y-17.243
X59.891Y-32.799
X59.891Y-48.577
X59.891Y-49.991
X59.891Y-65.548
X59.891Y-81.326
X59.891Y-82.74
X59.891Y-98.296
X60.367Y-27.817
X60.367Y-60.565
X60.367Y-93.314
X60.459Y-28.941
X60.459Y-61.69
X60.459Y-94.438
X60.57Y-27.114
X60.57Y-59.863
X60.57Y-92.611
X60.598Y-16.536
X60.598Y-17.95
X60.598Y-19.364
X60.598Y-49.284
X60.598Y-50.698
X60.598Y-52.113
X60.598Y-82.033
X60.598Y-83.447
X60.598Y-84.861
X60.905Y-31.366
X60.905Y-64.115
X60.905Y-96.864
X60.969Y-26.284
X60.969Y-59.033
X60.969Y-91.782
X61.164Y-19.505
X61.164Y-52.254
X61.164Y-85.003
X61.171Y-27.093
X61.171Y-59.841
X61.171Y-92.59
X61.202Y-30.178
X61.202Y-62.927
X61.202Y-95.676
X61.305Y-15.828
X61.305Y-17.243
X61.305Y-18.657
X61.305Y-21.485
X61.305Y-32.799
X61.305Y-34.213
X61.305Y-48.577
X61.305Y-49.991
X61.305Y-51.406
X61.305Y-54.234
X61.305Y-65.548
X61.305Y-66.962
X61.305Y-81.326
X61.305Y-82.74
X61.305Y-84.154
X61.305Y-86.983
X61.305Y-98.296
X61.305Y-99.711
X61.414Y-30.871
X61.414Y-63.62
X61.414Y-96.369
X61.419Y-28.327
X61.419Y-61.075
X61.419Y-93.824
X61.538Y-31.448
X61.538Y-64.197
X61.538Y-96.946
X61.55Y-25.701
X61.55Y-58.45
X61.55Y-91.199
X61.843Y-27.479
X61.843Y-60.227
X61.843Y-92.976
X61.843Y-27.902
X61.843Y-29.175
X61.843Y-60.651
X61.843Y-61.924
X61.843Y-93.4
X61.843Y-94.673
X61.844Y-28.327
X61.844Y-61.076
X61.844Y-93.825
X61.899Y-27.015
X61.899Y-59.764
X61.899Y-92.512
X61.902Y-30.383
X61.902Y-63.132
X61.902Y-95.881
X61.941Y-31.823
X61.941Y-64.572
X61.941Y-97.321
X62.012Y-16.536
X62.012Y-17.95
X62.012Y-33.506
X62.012Y-34.92
X62.012Y-49.284
X62.012Y-50.698
X62.012Y-66.255
X62.012Y-67.669
X62.012Y-82.033
X62.012Y-83.447
X62.012Y-99.004
X62.012Y-100.418
X62.266Y-29.174
X62.266Y-61.923
X62.266Y-94.672
X62.268Y-28.751
X62.268Y-61.5
X62.268Y-94.248
X62.465Y-26.817
X62.465Y-59.566
X62.465Y-92.314
X62.627Y-29.667
X62.627Y-62.415
X62.627Y-95.164
X62.692Y-28.327
X62.692Y-28.751
X62.692Y-61.075
X62.692Y-61.5
X62.692Y-93.824
X62.692Y-94.248
X62.719Y-15.828
X62.719Y-17.243
X62.719Y-18.657
X62.719Y-32.799
X62.719Y-34.213
X62.719Y-48.577
X62.719Y-49.991
X62.719Y-51.406
X62.719Y-65.548
X62.719Y-66.962
X62.719Y-81.326
X62.719Y-82.74
X62.719Y-84.154
X62.719Y-98.296
X62.719Y-99.711
X62.825Y-26.145
X62.825Y-58.894
X62.825Y-91.643
X62.988Y-29.815
X62.988Y-62.564
X62.988Y-95.312
X63.116Y-28.327
X63.116Y-61.075
X63.116Y-93.824
X63.303Y-27.035
X63.303Y-59.783
X63.303Y-92.532
X63.426Y-16.536
X63.426Y-17.95
X63.426Y-23.607
X63.426Y-32.092
X63.426Y-33.506
X63.426Y-34.92
X63.426Y-49.284
X63.426Y-50.698
X63.426Y-56.355
X63.426Y-64.841
X63.426Y-66.255
X63.426Y-67.669
X63.426Y-82.033
X63.426Y-83.447
X63.426Y-89.104
X63.426Y-97.589
X63.426Y-99.004
X63.426Y-100.418
X63.756Y-27.487
X63.756Y-60.236
X63.756Y-92.985
X63.964Y-30.946
X63.964Y-63.695
X63.964Y-96.444
X64.133Y-17.243
X64.133Y-18.657
X64.133Y-20.071
X64.133Y-22.899
X64.133Y-32.799
X64.133Y-34.213
X64.133Y-49.991
X64.133Y-51.406
X64.133Y-52.82
X64.133Y-55.648
X64.133Y-65.548
X64.133Y-66.962
X64.133Y-82.74
X64.133Y-84.154
X64.133Y-85.569
X64.133Y-88.397
X64.133Y-98.296
X64.133Y-99.711
X64.416Y-21.768
X64.416Y-54.517
X64.416Y-87.266
X64.664Y-24.307
X64.664Y-57.055
X64.664Y-89.804
X64.826Y-23.748
X64.826Y-56.497
X64.826Y-89.245
X64.841Y-17.95
X64.841Y-19.364
X64.841Y-20.778
X64.841Y-29.263
X64.841Y-33.506
X64.841Y-50.698
X64.841Y-52.113
X64.841Y-53.527
X64.841Y-62.012
X64.841Y-66.255
X64.841Y-83.447
X64.841Y-84.861
X64.841Y-86.276
X64.841Y-94.761
X64.841Y-99.004
X65.237Y-32.219
X65.237Y-64.968
X65.237Y-97.717
X65.548Y-18.657
X65.548Y-28.556
X65.548Y-29.971
X65.548Y-51.406
X65.548Y-61.305
X65.548Y-62.719
X65.548Y-84.154
X65.548Y-94.054
X65.548Y-95.468
X65.668Y-33.697
X65.668Y-66.446
X65.668Y-99.194
X66.255Y-19.364
X66.255Y-27.849
X66.255Y-29.263
X66.255Y-30.678
X66.255Y-52.113
X66.255Y-60.598
X66.255Y-62.012
X66.255Y-63.426
X66.255Y-84.861
X66.255Y-93.347
X66.255Y-94.761
X66.255Y-96.175
X66.962Y-20.071
X66.962Y-27.142
X66.962Y-28.556
X66.962Y-29.971
X66.962Y-31.385
X66.962Y-52.82
X66.962Y-59.891
X66.962Y-61.305
X66.962Y-62.719
X66.962Y-64.134
X66.962Y-85.569
X66.962Y-92.64
X66.962Y-94.054
X66.962Y-95.468
X66.962Y-96.882
X67.301Y-23.041
X67.301Y-55.79
X67.301Y-88.538
X67.358Y-21.768
X67.358Y-54.517
X67.358Y-87.266
X67.669Y-20.778
X67.669Y-27.849
X67.669Y-29.263
X67.669Y-30.678
X67.669Y-53.527
X67.669Y-60.598
X67.669Y-62.012
X67.669Y-63.426
X67.669Y-86.276
X67.669Y-93.347
X67.669Y-94.761
X67.669Y-96.175
X81.326Y-18.657
X81.326Y-20.071
X81.326Y-21.485
X81.326Y-22.899
X81.326Y-28.556
X81.326Y-29.971
X81.326Y-51.406
X81.326Y-52.82
X81.326Y-54.234
X81.326Y-55.648
X81.326Y-61.305
X81.326Y-62.719
X81.326Y-84.154
X81.326Y-85.569
X81.326Y-86.983
X81.326Y-88.397
X81.326Y-94.054
X81.326Y-95.468
X81.432Y-34.249
X81.432Y-66.997
X81.432Y-99.746
X82.033Y-19.364
X82.033Y-20.778
X82.033Y-22.192
X82.033Y-29.263
X82.033Y-30.678
X82.033Y-52.113
X82.033Y-53.527
X82.033Y-54.941
X82.033Y-62.012
X82.033Y-63.426
X82.033Y-84.861
X82.033Y-86.276
X82.033Y-87.69
X82.033Y-94.761
X82.033Y-96.175
X82.256Y-25.019
X82.256Y-26.369
X82.256Y-57.768
X82.256Y-59.118
X82.256Y-90.517
X82.256Y-91.867
X82.74Y-18.657
X82.74Y-20.071
X82.74Y-21.485
X82.74Y-31.385
X82.74Y-51.406
X82.74Y-52.82
X82.74Y-54.234
X82.74Y-64.134
X82.74Y-84.154
X82.74Y-85.569
X82.74Y-86.983
X82.74Y-96.882
X83.046Y-23.055
X83.046Y-55.804
X83.046Y-88.553
X83.087Y-29.737
X83.087Y-62.486
X83.087Y-95.235
X83.156Y-25.019
X83.156Y-26.369
X83.156Y-57.768
X83.156Y-59.118
X83.156Y-90.517
X83.156Y-91.867
X83.447Y-19.364
X83.447Y-20.778
X83.447Y-22.192
X83.447Y-52.113
X83.447Y-53.527
X83.447Y-54.941
X83.447Y-84.861
X83.447Y-86.276
X83.447Y-87.69
X83.539Y-29.285
X83.539Y-62.033
X83.539Y-94.782
X83.836Y-30.501
X83.836Y-63.25
X83.836Y-95.998
X84.154Y-15.828
X84.154Y-20.071
X84.154Y-21.485
X84.154Y-48.577
X84.154Y-52.82
X84.154Y-54.234
X84.154Y-81.326
X84.154Y-85.569
X84.154Y-86.983
X84.777Y-28.387
X84.777Y-61.135
X84.777Y-93.884
X84.861Y-16.536
X84.861Y-17.95
X84.861Y-19.364
X84.861Y-20.778
X84.861Y-29.263
X84.861Y-49.284
X84.861Y-50.698
X84.861Y-52.113
X84.861Y-53.527
X84.861Y-62.012
X84.861Y-82.033
X84.861Y-83.447
X84.861Y-84.861
X84.861Y-86.276
X84.861Y-94.761
X85.18Y-31.844
X85.18Y-64.593
X85.18Y-97.342
X85.498Y-27.665
X85.498Y-60.414
X85.498Y-93.163
X85.568Y-15.828
X85.568Y-17.243
X85.568Y-18.657
X85.568Y-20.071
X85.568Y-28.556
X85.568Y-34.213
X85.568Y-48.577
X85.568Y-49.991
X85.568Y-51.406
X85.568Y-52.82
X85.568Y-61.305
X85.568Y-66.962
X85.568Y-81.326
X85.568Y-82.74
X85.568Y-84.154
X85.568Y-85.569
X85.568Y-94.054
X85.568Y-99.711
X85.887Y-32.552
X85.887Y-65.3
X85.887Y-98.049
X86.17Y-26.223
X86.17Y-58.972
X86.17Y-91.72
X86.276Y-17.95
X86.276Y-19.364
X86.276Y-34.92
X86.276Y-50.698
X86.276Y-52.113
X86.276Y-67.669
X86.276Y-83.447
X86.276Y-84.861
X86.276Y-100.418
X86.983Y-18.657
X86.983Y-21.485
X86.983Y-34.213
X86.983Y-51.406
X86.983Y-54.234
X86.983Y-66.962
X86.983Y-84.154
X86.983Y-86.983
X86.983Y-99.711
X87.54Y-20.928
X87.54Y-53.677
X87.54Y-86.426
X87.69Y-27.849
X87.69Y-29.263
X87.69Y-30.678
X87.69Y-33.506
X87.69Y-34.92
X87.69Y-60.598
X87.69Y-62.012
X87.69Y-63.426
X87.69Y-66.255
X87.69Y-67.669
X87.69Y-93.347
X87.69Y-94.761
X87.69Y-96.175
X87.69Y-99.004
X87.69Y-100.418
X87.732Y-18.431
X87.732Y-51.179
X87.732Y-83.928
X87.757Y-26.262
X87.757Y-59.011
X87.757Y-91.759
X88.397Y-27.142
X88.397Y-29.971
X88.397Y-34.213
X88.397Y-59.891
X88.397Y-62.719
X88.397Y-66.962
X88.397Y-92.64
X88.397Y-95.468
X88.397Y-99.711
X88.623Y-18.835
X88.623Y-51.584
X88.623Y-84.333
X88.666Y-31.809
X88.666Y-64.558
X88.666Y-97.307
X88.708Y-30.862
X88.708Y-63.61
X88.708Y-96.359
X88.904Y-16.217
X88.904Y-48.966
X88.904Y-81.715
X89.104Y-27.849
X89.104Y-29.263
X89.104Y-33.506
X89.104Y-34.92
X89.104Y-60.598
X89.104Y-62.012
X89.104Y-66.255
X89.104Y-67.669
X89.104Y-93.347
X89.104Y-94.761
X89.104Y-99.004
X89.104Y-100.418
X89.161Y-31.314
X89.161Y-64.063
X89.161Y-96.812
X89.604Y-17.7
X89.604Y-50.448
X89.604Y-83.197
X89.755Y-19.52
X89.755Y-52.268
X89.755Y-85.017
X89.768Y-18.81
X89.768Y-51.558
X89.768Y-84.307
X89.811Y-28.556
X89.811Y-34.213
X89.811Y-61.305
X89.811Y-66.962
X89.811Y-94.054
X89.811Y-99.711
X90.264Y-19.534
X90.264Y-52.282
X90.264Y-85.031
X90.518Y-30.678
X90.518Y-33.506
X90.518Y-34.92
X90.518Y-63.426
X90.518Y-66.255
X90.518Y-67.669
X90.518Y-96.175
X90.518Y-99.004
X90.518Y-100.418
X90.768Y-18.81
X90.768Y-51.558
X90.768Y-84.307
X91.107Y-16.239
X91.107Y-48.987
X91.107Y-81.736
X91.225Y-29.971
X91.225Y-32.799
X91.225Y-34.213
X91.225Y-62.719
X91.225Y-65.548
X91.225Y-66.962
X91.225Y-95.468
X91.225Y-98.296
X91.225Y-99.711
X91.268Y-17.09
X91.268Y-49.838
X91.268Y-82.587
X91.433Y-17.7
X91.433Y-50.448
X91.433Y-83.197
X91.883Y-31.562
X91.883Y-64.31
X91.883Y-97.059
X91.932Y-16.536
X91.932Y-33.506
X91.932Y-34.92
X91.932Y-49.284
X91.932Y-66.255
X91.932Y-67.669
X91.932Y-82.033
X91.932Y-99.004
X91.932Y-100.418
X92.053Y-20.616
X92.053Y-53.364
X92.053Y-86.113
X92.123Y-27.418
X92.123Y-29.78
X92.123Y-60.167
X92.123Y-62.528
X92.123Y-92.915
X92.123Y-95.277
X92.18Y-18.692
X92.18Y-51.441
X92.18Y-84.19
X92.519Y-21.068
X92.519Y-53.817
X92.519Y-86.566
X92.64Y-15.828
X92.64Y-17.243
X92.64Y-32.799
X92.64Y-48.577
X92.64Y-49.991
X92.64Y-65.548
X92.64Y-81.326
X92.64Y-82.74
X92.64Y-98.296
X93.116Y-27.817
X93.116Y-60.565
X93.116Y-93.314
X93.208Y-28.941
X93.208Y-61.69
X93.208Y-94.438
X93.318Y-27.114
X93.318Y-59.863
X93.318Y-92.611
X93.347Y-16.536
X93.347Y-17.95
X93.347Y-19.364
X93.347Y-49.284
X93.347Y-50.698
X93.347Y-52.113
X93.347Y-82.033
X93.347Y-83.447
X93.347Y-84.861
X93.653Y-31.366
X93.653Y-64.115
X93.653Y-96.864
X93.718Y-26.284
X93.718Y-59.033
X93.718Y-91.782
X93.912Y-19.505
X93.912Y-52.254
X93.912Y-85.003
X93.919Y-27.093
X93.919Y-59.841
X93.919Y-92.59
X93.95Y-30.178
X93.95Y-62.927
X93.95Y-95.676
X94.054Y-15.828
X94.054Y-17.243
X94.054Y-18.657
X94.054Y-21.485
X94.054Y-32.799
X94.054Y-34.213
X94.054Y-48.577
X94.054Y-49.991
X94.054Y-51.406
X94.054Y-54.234
X94.054Y-65.548
X94.054Y-66.962
X94.054Y-81.326
X94.054Y-82.74
X94.054Y-84.154
X94.054Y-86.983
X94.054Y-98.296
X94.054Y-99.711
X94.163Y-30.871
X94.163Y-63.62
X94.163Y-96.369
X94.168Y-28.327
X94.168Y-61.075
X94.168Y-93.824
X94.287Y-31.448
X94.287Y-64.197
X94.287Y-96.946
X94.299Y-25.701
X94.299Y-58.45
X94.299Y-91.199
X94.591Y-27.479
X94.591Y-60.227
X94.591Y-92.976
X94.592Y-27.902
X94.592Y-29.175
X94.592Y-60.651
X94.592Y-61.924
X94.592Y-93.4
X94.592Y-94.673
X94.593Y-28.327
X94.593Y-61.076
X94.593Y-93.825
X94.648Y-27.015
X94.648Y-59.764
X94.648Y-92.512
X94.65Y-30.383
X94.65Y-63.132
X94.65Y-95.881
X94.69Y-31.823
X94.69Y-64.572
X94.69Y-97.321
X94.761Y-16.536
X94.761Y-17.95
X94.761Y-33.506
X94.761Y-34.92
X94.761Y-49.284
X94.761Y-50.698
X94.761Y-66.255
X94.761Y-67.669
X94.761Y-82.033
X94.761Y-83.447
X94.761Y-99.004
X94.761Y-100.418
X95.015Y-29.174
X95.015Y-61.923
X95.015Y-94.672
X95.016Y-28.751
X95.016Y-61.5
X95.016Y-94.248
X95.213Y-26.817
X95.213Y-59.566
X95.213Y-92.314
X95.376Y-29.667
X95.376Y-62.415
X95.376Y-95.164
X95.441Y-28.327
X95.441Y-28.751
X95.441Y-61.075
X95.441Y-61.5
X95.441Y-93.824
X95.441Y-94.248
X95.468Y-15.828
X95.468Y-17.243
X95.468Y-18.657
X95.468Y-32.799
X95.468Y-34.213
X95.468Y-48.577
X95.468Y-49.991
X95.468Y-51.406
X95.468Y-65.548
X95.468Y-66.962
X95.468Y-81.326
X95.468Y-82.74
X95.468Y-84.154
X95.468Y-98.296
X95.468Y-99.711
X95.574Y-26.145
X95.574Y-58.894
X95.574Y-91.643
X95.737Y-29.815
X95.737Y-62.564
X95.737Y-95.312
X95.865Y-28.327
X95.865Y-61.075
X95.865Y-93.824
X96.052Y-27.035
X96.052Y-59.783
X96.052Y-92.532
X96.175Y-16.536
X96.175Y-17.95
X96.175Y-23.607
X96.175Y-32.092
X96.175Y-33.506
X96.175Y-34.92
X96.175Y-49.284
X96.175Y-50.698
X96.175Y-56.355
X96.175Y-64.841
X96.175Y-66.255
X96.175Y-67.669
X96.175Y-82.033
X96.175Y-83.447
X96.175Y-89.104
X96.175Y-97.589
X96.175Y-99.004
X96.175Y-100.418
X96.505Y-27.487
X96.505Y-60.236
X96.505Y-92.985
X96.712Y-30.946
X96.712Y-63.695
X96.712Y-96.444
X96.882Y-17.243
X96.882Y-18.657
X96.882Y-20.071
X96.882Y-22.899
X96.882Y-32.799
X96.882Y-34.213
X96.882Y-49.991
X96.882Y-51.406
X96.882Y-52.82
X96.882Y-55.648
X96.882Y-65.548
X96.882Y-66.962
X96.882Y-82.74
X96.882Y-84.154
X96.882Y-85.569
X96.882Y-88.397
X96.882Y-98.296
X96.882Y-99.711
X97.165Y-21.768
X97.165Y-54.517
X97.165Y-87.266
X97.413Y-24.307
X97.413Y-57.055
X97.413Y-89.804
X97.575Y-23.748
X97.575Y-56.497
X97.575Y-89.245
X97.589Y-17.95
X97.589Y-19.364
X97.589Y-20.778
X97.589Y-29.263
X97.589Y-33.506
X97.589Y-50.698
X97.589Y-52.113
X97.589Y-53.527
X97.589Y-62.012
X97.589Y-66.255
X97.589Y-83.447
X97.589Y-84.861
X97.589Y-86.276
X97.589Y-94.761
X97.589Y-99.004
X97.985Y-32.219
X97.985Y-64.968
X97.985Y-97.717
X98.296Y-18.657
X98.296Y-28.556
X98.296Y-29.971
X98.296Y-51.406
X98.296Y-61.305
X98.296Y-62.719
X98.296Y-84.154
X98.296Y-94.054
X98.296Y-95.468
X98.417Y-33.697
X98.417Y-66.446
X98.417Y-99.194
X99.004Y-19.364
X99.004Y-27.849
X99.004Y-29.263
X99.004Y-30.678
X99.004Y-52.113
X99.004Y-60.598
X99.004Y-62.012
X99.004Y-63.426
X99.004Y-84.861
X99.004Y-93.347
X99.004Y-94.761
X99.004Y-96.175
X99.711Y-20.071
X99.711Y-27.142
X99.711Y-28.556
X99.711Y-29.971
X99.711Y-31.385
X99.711Y-52.82
X99.711Y-59.891
X99.711Y-61.305
X99.711Y-62.719
X99.711Y-64.134
X99.711Y-85.569
X99.711Y-92.64
X99.711Y-94.054
X99.711Y-95.468
X99.711Y-96.882
X100.05Y-23.041
X100.05Y-55.79
X100.05Y-88.538
X100.107Y-21.768
X100.107Y-54.517
X100.107Y-87.266
X100.418Y-20.778
X100.418Y-27.849
X100.418Y-29.263
X100.418Y-30.678
X100.418Y-53.527
X100.418Y-60.598
X100.418Y-62.012
X100.418Y-63.426
X100.418Y-86.276
X100.418Y-93.347
X100.418Y-94.761
X100.418Y-96.175
T2
X25.021Y-25.021
X25.021Y-57.77
X25.021Y-90.518
X57.77Y-25.021
X57.77Y-57.77
X57.77Y-90.518
X90.518Y-25.021
X90.518Y-57.77
X90.518Y-90.518
M30
