M48
; DRILL file {KiCad 9.0.0-rc2-3baa6cd791~182~ubuntu24.04.1} date 2025-02-06T23:06:13-0500
; FORMAT={-:-/ absolute / metric / decimal}
; #@! TF.CreationDate,2025-02-06T23:06:13-05:00
; #@! TF.GenerationSoftware,Kicad,Pcbnew,9.0.0-rc2-3baa6cd791~182~ubuntu24.04.1
; #@! TF.FileFunction,NonPlated,1,4,NPTH
FMAT,2
METRIC
; #@! TA.AperFunction,NonPlated,NPTH,ComponentDrill
T1C0.500
; #@! TA.AperFunction,NonPlated,NPTH,ComponentDrill
T2C0.991
; #@! TA.AperFunction,NonPlated,NPTH,ComponentDrill
T3C1.500
%
G90
G05
T1
X14.607Y-24.249
X14.607Y-25.374
X14.607Y-26.499
X14.607Y-56.998
X14.607Y-58.123
X14.607Y-59.248
X14.607Y-89.747
X14.607Y-90.872
X14.607Y-91.997
X24.249Y-14.607
X24.249Y-35.727
X24.249Y-47.356
X24.249Y-68.476
X24.249Y-80.105
X24.249Y-101.225
X25.374Y-14.607
X25.374Y-35.727
X25.374Y-47.356
X25.374Y-68.476
X25.374Y-80.105
X25.374Y-101.225
X26.499Y-14.607
X26.499Y-35.727
X26.499Y-47.356
X26.499Y-68.476
X26.499Y-80.105
X26.499Y-101.225
X35.727Y-26.499
X35.727Y-59.248
X35.727Y-91.997
X35.727Y-25.374
X35.727Y-58.123
X35.727Y-90.872
X35.727Y-24.249
X35.727Y-56.998
X35.727Y-89.747
X47.356Y-24.249
X47.356Y-25.374
X47.356Y-26.499
X47.356Y-56.998
X47.356Y-58.123
X47.356Y-59.248
X47.356Y-89.747
X47.356Y-90.872
X47.356Y-91.997
X56.998Y-14.607
X56.998Y-35.727
X56.998Y-47.356
X56.998Y-68.476
X56.998Y-80.105
X56.998Y-101.225
X58.123Y-14.607
X58.123Y-35.727
X58.123Y-47.356
X58.123Y-68.476
X58.123Y-80.105
X58.123Y-101.225
X59.248Y-14.607
X59.248Y-35.727
X59.248Y-47.356
X59.248Y-68.476
X59.248Y-80.105
X59.248Y-101.225
X68.476Y-26.499
X68.476Y-59.248
X68.476Y-91.997
X68.476Y-25.374
X68.476Y-58.123
X68.476Y-90.872
X68.476Y-24.249
X68.476Y-56.998
X68.476Y-89.747
X80.105Y-24.249
X80.105Y-25.374
X80.105Y-26.499
X80.105Y-56.998
X80.105Y-58.123
X80.105Y-59.248
X80.105Y-89.747
X80.105Y-90.872
X80.105Y-91.997
X89.747Y-14.607
X89.747Y-35.727
X89.747Y-47.356
X89.747Y-68.476
X89.747Y-80.105
X89.747Y-101.225
X90.872Y-14.607
X90.872Y-35.727
X90.872Y-47.356
X90.872Y-68.476
X90.872Y-80.105
X90.872Y-101.225
X91.997Y-14.607
X91.997Y-35.727
X91.997Y-47.356
X91.997Y-68.476
X91.997Y-80.105
X91.997Y-101.225
X101.225Y-26.499
X101.225Y-59.248
X101.225Y-91.997
X101.225Y-25.374
X101.225Y-58.123
X101.225Y-90.872
X101.225Y-24.249
X101.225Y-56.998
X101.225Y-89.747
T2
X32.207Y-25.581
X32.207Y-58.33
X32.207Y-91.078
X33.223Y-20.501
X33.223Y-53.25
X33.223Y-85.998
X34.239Y-25.581
X34.239Y-58.33
X34.239Y-91.078
X64.956Y-25.581
X64.956Y-58.33
X64.956Y-91.078
X65.972Y-20.501
X65.972Y-53.25
X65.972Y-85.998
X66.988Y-25.581
X66.988Y-58.33
X66.988Y-91.078
X97.705Y-25.581
X97.705Y-58.33
X97.705Y-91.078
X98.721Y-20.501
X98.721Y-53.25
X98.721Y-85.998
X99.737Y-25.581
X99.737Y-58.33
X99.737Y-91.078
T3
X7.5Y-5.0
X7.5Y-111.246
X108.746Y-5.0
M30
