G04 #@! TF.GenerationSoftware,KiCad,Pcbnew,9.0.0-rc2-3baa6cd791~182~ubuntu24.04.1*
G04 #@! TF.CreationDate,2025-02-06T23:06:31-05:00*
G04 #@! TF.ProjectId,PCA20073_Tiny_Board_Panel,50434132-3030-4373-935f-54696e795f42,rev?*
G04 #@! TF.SameCoordinates,PX5630ad8PY1312d00*
G04 #@! TF.FileFunction,AssemblyDrawing,Bot*
%FSLAX46Y46*%
G04 Gerber Fmt 4.6, Leading zero omitted, Abs format (unit mm)*
G04 Created by KiCad (PCBNEW 9.0.0-rc2-3baa6cd791~182~ubuntu24.04.1) date 2025-02-06 23:06:31*
%MOMM*%
%LPD*%
G01*
G04 APERTURE LIST*
%ADD10C,0.150000*%
%ADD11C,0.050000*%
%ADD12C,0.100000*%
G04 APERTURE END LIST*
D10*
X29055053Y-59879800D02*
X28617321Y-60317533D01*
X28617321Y-60317533D02*
X29122397Y-60351205D01*
X29122397Y-60351205D02*
X29021382Y-60452220D01*
X29021382Y-60452220D02*
X28987710Y-60553235D01*
X28987710Y-60553235D02*
X28987710Y-60620579D01*
X28987710Y-60620579D02*
X29021382Y-60721594D01*
X29021382Y-60721594D02*
X29189740Y-60889953D01*
X29189740Y-60889953D02*
X29290756Y-60923625D01*
X29290756Y-60923625D02*
X29358099Y-60923625D01*
X29358099Y-60923625D02*
X29459114Y-60889953D01*
X29459114Y-60889953D02*
X29661145Y-60687922D01*
X29661145Y-60687922D02*
X29694817Y-60586907D01*
X29694817Y-60586907D02*
X29694817Y-60519564D01*
X28415290Y-61192999D02*
X28347946Y-61327686D01*
X28347946Y-61327686D02*
X28347946Y-61395029D01*
X28347946Y-61395029D02*
X28381618Y-61496045D01*
X28381618Y-61496045D02*
X28482633Y-61597060D01*
X28482633Y-61597060D02*
X28583649Y-61630732D01*
X28583649Y-61630732D02*
X28650992Y-61630732D01*
X28650992Y-61630732D02*
X28752007Y-61597060D01*
X28752007Y-61597060D02*
X29021382Y-61327686D01*
X29021382Y-61327686D02*
X28314275Y-60620579D01*
X28314275Y-60620579D02*
X28078572Y-60856281D01*
X28078572Y-60856281D02*
X28044901Y-60957296D01*
X28044901Y-60957296D02*
X28044901Y-61024640D01*
X28044901Y-61024640D02*
X28078572Y-61125655D01*
X28078572Y-61125655D02*
X28145916Y-61192999D01*
X28145916Y-61192999D02*
X28246931Y-61226671D01*
X28246931Y-61226671D02*
X28314275Y-61226671D01*
X28314275Y-61226671D02*
X28415290Y-61192999D01*
X28415290Y-61192999D02*
X28650992Y-60957296D01*
X27708183Y-61226671D02*
X27304122Y-61630732D01*
X28213259Y-62135808D02*
X27506153Y-61428701D01*
X27405137Y-62943930D02*
X27809198Y-62539869D01*
X27607168Y-62741899D02*
X26900061Y-62034793D01*
X26900061Y-62034793D02*
X27068420Y-62068464D01*
X27068420Y-62068464D02*
X27203107Y-62068464D01*
X27203107Y-62068464D02*
X27304122Y-62034793D01*
X28853023Y-27333094D02*
X28785679Y-27400437D01*
X28785679Y-27400437D02*
X28752008Y-27501453D01*
X28752008Y-27501453D02*
X28752008Y-27568796D01*
X28752008Y-27568796D02*
X28785679Y-27669811D01*
X28785679Y-27669811D02*
X28886695Y-27838170D01*
X28886695Y-27838170D02*
X29055053Y-28006529D01*
X29055053Y-28006529D02*
X29223412Y-28107544D01*
X29223412Y-28107544D02*
X29324427Y-28141216D01*
X29324427Y-28141216D02*
X29391771Y-28141216D01*
X29391771Y-28141216D02*
X29492786Y-28107544D01*
X29492786Y-28107544D02*
X29560130Y-28040201D01*
X29560130Y-28040201D02*
X29593801Y-27939185D01*
X29593801Y-27939185D02*
X29593801Y-27871842D01*
X29593801Y-27871842D02*
X29560130Y-27770827D01*
X29560130Y-27770827D02*
X29459114Y-27602468D01*
X29459114Y-27602468D02*
X29290756Y-27434109D01*
X29290756Y-27434109D02*
X29122397Y-27333094D01*
X29122397Y-27333094D02*
X29021382Y-27299422D01*
X29021382Y-27299422D02*
X28954038Y-27299422D01*
X28954038Y-27299422D02*
X28853023Y-27333094D01*
X28415290Y-28444262D02*
X28347946Y-28578949D01*
X28347946Y-28578949D02*
X28347946Y-28646292D01*
X28347946Y-28646292D02*
X28381618Y-28747308D01*
X28381618Y-28747308D02*
X28482633Y-28848323D01*
X28482633Y-28848323D02*
X28583649Y-28881995D01*
X28583649Y-28881995D02*
X28650992Y-28881995D01*
X28650992Y-28881995D02*
X28752007Y-28848323D01*
X28752007Y-28848323D02*
X29021382Y-28578949D01*
X29021382Y-28578949D02*
X28314275Y-27871842D01*
X28314275Y-27871842D02*
X28078572Y-28107544D01*
X28078572Y-28107544D02*
X28044901Y-28208559D01*
X28044901Y-28208559D02*
X28044901Y-28275903D01*
X28044901Y-28275903D02*
X28078572Y-28376918D01*
X28078572Y-28376918D02*
X28145916Y-28444262D01*
X28145916Y-28444262D02*
X28246931Y-28477934D01*
X28246931Y-28477934D02*
X28314275Y-28477934D01*
X28314275Y-28477934D02*
X28415290Y-28444262D01*
X28415290Y-28444262D02*
X28650992Y-28208559D01*
X27708183Y-28477934D02*
X27304122Y-28881995D01*
X28213259Y-29387071D02*
X27506153Y-28679964D01*
X27405137Y-30195193D02*
X27809198Y-29791132D01*
X27607168Y-29993162D02*
X26900061Y-29286056D01*
X26900061Y-29286056D02*
X27068420Y-29319727D01*
X27068420Y-29319727D02*
X27203107Y-29319727D01*
X27203107Y-29319727D02*
X27304122Y-29286056D01*
X28684664Y-92998927D02*
X28819351Y-92864240D01*
X28819351Y-92864240D02*
X28920366Y-92830568D01*
X28920366Y-92830568D02*
X28987710Y-92830568D01*
X28987710Y-92830568D02*
X29156069Y-92864240D01*
X29156069Y-92864240D02*
X29324427Y-92965255D01*
X29324427Y-92965255D02*
X29593801Y-93234629D01*
X29593801Y-93234629D02*
X29627473Y-93335644D01*
X29627473Y-93335644D02*
X29627473Y-93402988D01*
X29627473Y-93402988D02*
X29593801Y-93504003D01*
X29593801Y-93504003D02*
X29459114Y-93638690D01*
X29459114Y-93638690D02*
X29358099Y-93672362D01*
X29358099Y-93672362D02*
X29290756Y-93672362D01*
X29290756Y-93672362D02*
X29189740Y-93638690D01*
X29189740Y-93638690D02*
X29021382Y-93470331D01*
X29021382Y-93470331D02*
X28987710Y-93369316D01*
X28987710Y-93369316D02*
X28987710Y-93301972D01*
X28987710Y-93301972D02*
X29021382Y-93200957D01*
X29021382Y-93200957D02*
X29156069Y-93066270D01*
X29156069Y-93066270D02*
X29257084Y-93032598D01*
X29257084Y-93032598D02*
X29324427Y-93032598D01*
X29324427Y-93032598D02*
X29425443Y-93066270D01*
X28415290Y-93941736D02*
X28347946Y-94076423D01*
X28347946Y-94076423D02*
X28347946Y-94143766D01*
X28347946Y-94143766D02*
X28381618Y-94244782D01*
X28381618Y-94244782D02*
X28482633Y-94345797D01*
X28482633Y-94345797D02*
X28583649Y-94379469D01*
X28583649Y-94379469D02*
X28650992Y-94379469D01*
X28650992Y-94379469D02*
X28752007Y-94345797D01*
X28752007Y-94345797D02*
X29021382Y-94076423D01*
X29021382Y-94076423D02*
X28314275Y-93369316D01*
X28314275Y-93369316D02*
X28078572Y-93605018D01*
X28078572Y-93605018D02*
X28044901Y-93706033D01*
X28044901Y-93706033D02*
X28044901Y-93773377D01*
X28044901Y-93773377D02*
X28078572Y-93874392D01*
X28078572Y-93874392D02*
X28145916Y-93941736D01*
X28145916Y-93941736D02*
X28246931Y-93975408D01*
X28246931Y-93975408D02*
X28314275Y-93975408D01*
X28314275Y-93975408D02*
X28415290Y-93941736D01*
X28415290Y-93941736D02*
X28650992Y-93706033D01*
X27708183Y-93975408D02*
X27304122Y-94379469D01*
X28213259Y-94884545D02*
X27506153Y-94177438D01*
X27405137Y-95692667D02*
X27809198Y-95288606D01*
X27607168Y-95490636D02*
X26900061Y-94783530D01*
X26900061Y-94783530D02*
X27068420Y-94817201D01*
X27068420Y-94817201D02*
X27203107Y-94817201D01*
X27203107Y-94817201D02*
X27304122Y-94783530D01*
X94687182Y-93099942D02*
X94720854Y-92998927D01*
X94720854Y-92998927D02*
X94720854Y-92931583D01*
X94720854Y-92931583D02*
X94687182Y-92830568D01*
X94687182Y-92830568D02*
X94653511Y-92796896D01*
X94653511Y-92796896D02*
X94552495Y-92763224D01*
X94552495Y-92763224D02*
X94485152Y-92763224D01*
X94485152Y-92763224D02*
X94384137Y-92796896D01*
X94384137Y-92796896D02*
X94249450Y-92931583D01*
X94249450Y-92931583D02*
X94215778Y-93032598D01*
X94215778Y-93032598D02*
X94215778Y-93099942D01*
X94215778Y-93099942D02*
X94249450Y-93200957D01*
X94249450Y-93200957D02*
X94283121Y-93234629D01*
X94283121Y-93234629D02*
X94384137Y-93268301D01*
X94384137Y-93268301D02*
X94451480Y-93268301D01*
X94451480Y-93268301D02*
X94552495Y-93234629D01*
X94552495Y-93234629D02*
X94687182Y-93099942D01*
X94687182Y-93099942D02*
X94788198Y-93066270D01*
X94788198Y-93066270D02*
X94855541Y-93066270D01*
X94855541Y-93066270D02*
X94956556Y-93099942D01*
X94956556Y-93099942D02*
X95091243Y-93234629D01*
X95091243Y-93234629D02*
X95124915Y-93335644D01*
X95124915Y-93335644D02*
X95124915Y-93402988D01*
X95124915Y-93402988D02*
X95091243Y-93504003D01*
X95091243Y-93504003D02*
X94956556Y-93638690D01*
X94956556Y-93638690D02*
X94855541Y-93672362D01*
X94855541Y-93672362D02*
X94788198Y-93672362D01*
X94788198Y-93672362D02*
X94687182Y-93638690D01*
X94687182Y-93638690D02*
X94552495Y-93504003D01*
X94552495Y-93504003D02*
X94518824Y-93402988D01*
X94518824Y-93402988D02*
X94518824Y-93335644D01*
X94518824Y-93335644D02*
X94552495Y-93234629D01*
X93912732Y-93941736D02*
X93845388Y-94076423D01*
X93845388Y-94076423D02*
X93845388Y-94143766D01*
X93845388Y-94143766D02*
X93879060Y-94244782D01*
X93879060Y-94244782D02*
X93980075Y-94345797D01*
X93980075Y-94345797D02*
X94081091Y-94379469D01*
X94081091Y-94379469D02*
X94148434Y-94379469D01*
X94148434Y-94379469D02*
X94249449Y-94345797D01*
X94249449Y-94345797D02*
X94518824Y-94076423D01*
X94518824Y-94076423D02*
X93811717Y-93369316D01*
X93811717Y-93369316D02*
X93576014Y-93605018D01*
X93576014Y-93605018D02*
X93542343Y-93706033D01*
X93542343Y-93706033D02*
X93542343Y-93773377D01*
X93542343Y-93773377D02*
X93576014Y-93874392D01*
X93576014Y-93874392D02*
X93643358Y-93941736D01*
X93643358Y-93941736D02*
X93744373Y-93975408D01*
X93744373Y-93975408D02*
X93811717Y-93975408D01*
X93811717Y-93975408D02*
X93912732Y-93941736D01*
X93912732Y-93941736D02*
X94148434Y-93706033D01*
X93205625Y-93975408D02*
X92801564Y-94379469D01*
X93710701Y-94884545D02*
X93003595Y-94177438D01*
X92902579Y-95692667D02*
X93306640Y-95288606D01*
X93104610Y-95490636D02*
X92397503Y-94783530D01*
X92397503Y-94783530D02*
X92565862Y-94817201D01*
X92565862Y-94817201D02*
X92700549Y-94817201D01*
X92700549Y-94817201D02*
X92801564Y-94783530D01*
X61669087Y-60485892D02*
X62140492Y-60957296D01*
X61568072Y-60048159D02*
X62241507Y-60384877D01*
X62241507Y-60384877D02*
X61803774Y-60822609D01*
X61164011Y-61192999D02*
X61096667Y-61327686D01*
X61096667Y-61327686D02*
X61096667Y-61395029D01*
X61096667Y-61395029D02*
X61130339Y-61496045D01*
X61130339Y-61496045D02*
X61231354Y-61597060D01*
X61231354Y-61597060D02*
X61332370Y-61630732D01*
X61332370Y-61630732D02*
X61399713Y-61630732D01*
X61399713Y-61630732D02*
X61500728Y-61597060D01*
X61500728Y-61597060D02*
X61770103Y-61327686D01*
X61770103Y-61327686D02*
X61062996Y-60620579D01*
X61062996Y-60620579D02*
X60827293Y-60856281D01*
X60827293Y-60856281D02*
X60793622Y-60957296D01*
X60793622Y-60957296D02*
X60793622Y-61024640D01*
X60793622Y-61024640D02*
X60827293Y-61125655D01*
X60827293Y-61125655D02*
X60894637Y-61192999D01*
X60894637Y-61192999D02*
X60995652Y-61226671D01*
X60995652Y-61226671D02*
X61062996Y-61226671D01*
X61062996Y-61226671D02*
X61164011Y-61192999D01*
X61164011Y-61192999D02*
X61399713Y-60957296D01*
X60456904Y-61226671D02*
X60052843Y-61630732D01*
X60961980Y-62135808D02*
X60254874Y-61428701D01*
X60153858Y-62943930D02*
X60557919Y-62539869D01*
X60355889Y-62741899D02*
X59648782Y-62034793D01*
X59648782Y-62034793D02*
X59817141Y-62068464D01*
X59817141Y-62068464D02*
X59951828Y-62068464D01*
X59951828Y-62068464D02*
X60052843Y-62034793D01*
X94148434Y-60283861D02*
X94485152Y-59947144D01*
X94485152Y-59947144D02*
X94855541Y-60250190D01*
X94855541Y-60250190D02*
X94788198Y-60250190D01*
X94788198Y-60250190D02*
X94687182Y-60283861D01*
X94687182Y-60283861D02*
X94518824Y-60452220D01*
X94518824Y-60452220D02*
X94485152Y-60553235D01*
X94485152Y-60553235D02*
X94485152Y-60620579D01*
X94485152Y-60620579D02*
X94518824Y-60721594D01*
X94518824Y-60721594D02*
X94687182Y-60889953D01*
X94687182Y-60889953D02*
X94788198Y-60923625D01*
X94788198Y-60923625D02*
X94855541Y-60923625D01*
X94855541Y-60923625D02*
X94956556Y-60889953D01*
X94956556Y-60889953D02*
X95124915Y-60721594D01*
X95124915Y-60721594D02*
X95158587Y-60620579D01*
X95158587Y-60620579D02*
X95158587Y-60553235D01*
X93912732Y-61192999D02*
X93845388Y-61327686D01*
X93845388Y-61327686D02*
X93845388Y-61395029D01*
X93845388Y-61395029D02*
X93879060Y-61496045D01*
X93879060Y-61496045D02*
X93980075Y-61597060D01*
X93980075Y-61597060D02*
X94081091Y-61630732D01*
X94081091Y-61630732D02*
X94148434Y-61630732D01*
X94148434Y-61630732D02*
X94249449Y-61597060D01*
X94249449Y-61597060D02*
X94518824Y-61327686D01*
X94518824Y-61327686D02*
X93811717Y-60620579D01*
X93811717Y-60620579D02*
X93576014Y-60856281D01*
X93576014Y-60856281D02*
X93542343Y-60957296D01*
X93542343Y-60957296D02*
X93542343Y-61024640D01*
X93542343Y-61024640D02*
X93576014Y-61125655D01*
X93576014Y-61125655D02*
X93643358Y-61192999D01*
X93643358Y-61192999D02*
X93744373Y-61226671D01*
X93744373Y-61226671D02*
X93811717Y-61226671D01*
X93811717Y-61226671D02*
X93912732Y-61192999D01*
X93912732Y-61192999D02*
X94148434Y-60957296D01*
X93205625Y-61226671D02*
X92801564Y-61630732D01*
X93710701Y-62135808D02*
X93003595Y-61428701D01*
X92902579Y-62943930D02*
X93306640Y-62539869D01*
X93104610Y-62741899D02*
X92397503Y-62034793D01*
X92397503Y-62034793D02*
X92565862Y-62068464D01*
X92565862Y-62068464D02*
X92700549Y-62068464D01*
X92700549Y-62068464D02*
X92801564Y-62034793D01*
X62073148Y-28275903D02*
X62477209Y-27871842D01*
X62275179Y-28073872D02*
X61568072Y-27366766D01*
X61568072Y-27366766D02*
X61736431Y-27400437D01*
X61736431Y-27400437D02*
X61871118Y-27400437D01*
X61871118Y-27400437D02*
X61972133Y-27366766D01*
X61164011Y-28444262D02*
X61096667Y-28578949D01*
X61096667Y-28578949D02*
X61096667Y-28646292D01*
X61096667Y-28646292D02*
X61130339Y-28747308D01*
X61130339Y-28747308D02*
X61231354Y-28848323D01*
X61231354Y-28848323D02*
X61332370Y-28881995D01*
X61332370Y-28881995D02*
X61399713Y-28881995D01*
X61399713Y-28881995D02*
X61500728Y-28848323D01*
X61500728Y-28848323D02*
X61770103Y-28578949D01*
X61770103Y-28578949D02*
X61062996Y-27871842D01*
X61062996Y-27871842D02*
X60827293Y-28107544D01*
X60827293Y-28107544D02*
X60793622Y-28208559D01*
X60793622Y-28208559D02*
X60793622Y-28275903D01*
X60793622Y-28275903D02*
X60827293Y-28376918D01*
X60827293Y-28376918D02*
X60894637Y-28444262D01*
X60894637Y-28444262D02*
X60995652Y-28477934D01*
X60995652Y-28477934D02*
X61062996Y-28477934D01*
X61062996Y-28477934D02*
X61164011Y-28444262D01*
X61164011Y-28444262D02*
X61399713Y-28208559D01*
X60456904Y-28477934D02*
X60052843Y-28881995D01*
X60961980Y-29387071D02*
X60254874Y-28679964D01*
X60153858Y-30195193D02*
X60557919Y-29791132D01*
X60355889Y-29993162D02*
X59648782Y-29286056D01*
X59648782Y-29286056D02*
X59817141Y-29319727D01*
X59817141Y-29319727D02*
X59951828Y-29319727D01*
X59951828Y-29319727D02*
X60052843Y-29286056D01*
X61803774Y-92628537D02*
X61332370Y-93099942D01*
X61332370Y-93099942D02*
X62342522Y-93504003D01*
X61164011Y-93941736D02*
X61096667Y-94076423D01*
X61096667Y-94076423D02*
X61096667Y-94143766D01*
X61096667Y-94143766D02*
X61130339Y-94244782D01*
X61130339Y-94244782D02*
X61231354Y-94345797D01*
X61231354Y-94345797D02*
X61332370Y-94379469D01*
X61332370Y-94379469D02*
X61399713Y-94379469D01*
X61399713Y-94379469D02*
X61500728Y-94345797D01*
X61500728Y-94345797D02*
X61770103Y-94076423D01*
X61770103Y-94076423D02*
X61062996Y-93369316D01*
X61062996Y-93369316D02*
X60827293Y-93605018D01*
X60827293Y-93605018D02*
X60793622Y-93706033D01*
X60793622Y-93706033D02*
X60793622Y-93773377D01*
X60793622Y-93773377D02*
X60827293Y-93874392D01*
X60827293Y-93874392D02*
X60894637Y-93941736D01*
X60894637Y-93941736D02*
X60995652Y-93975408D01*
X60995652Y-93975408D02*
X61062996Y-93975408D01*
X61062996Y-93975408D02*
X61164011Y-93941736D01*
X61164011Y-93941736D02*
X61399713Y-93706033D01*
X60456904Y-93975408D02*
X60052843Y-94379469D01*
X60961980Y-94884545D02*
X60254874Y-94177438D01*
X60153858Y-95692667D02*
X60557919Y-95288606D01*
X60355889Y-95490636D02*
X59648782Y-94783530D01*
X59648782Y-94783530D02*
X59817141Y-94817201D01*
X59817141Y-94817201D02*
X59951828Y-94817201D01*
X59951828Y-94817201D02*
X60052843Y-94783530D01*
X94586167Y-27232079D02*
X94518824Y-27232079D01*
X94518824Y-27232079D02*
X94417808Y-27265750D01*
X94417808Y-27265750D02*
X94249450Y-27434109D01*
X94249450Y-27434109D02*
X94215778Y-27535124D01*
X94215778Y-27535124D02*
X94215778Y-27602468D01*
X94215778Y-27602468D02*
X94249450Y-27703483D01*
X94249450Y-27703483D02*
X94316793Y-27770827D01*
X94316793Y-27770827D02*
X94451480Y-27838170D01*
X94451480Y-27838170D02*
X95259602Y-27838170D01*
X95259602Y-27838170D02*
X94821869Y-28275903D01*
X93912732Y-28444262D02*
X93845388Y-28578949D01*
X93845388Y-28578949D02*
X93845388Y-28646292D01*
X93845388Y-28646292D02*
X93879060Y-28747308D01*
X93879060Y-28747308D02*
X93980075Y-28848323D01*
X93980075Y-28848323D02*
X94081091Y-28881995D01*
X94081091Y-28881995D02*
X94148434Y-28881995D01*
X94148434Y-28881995D02*
X94249449Y-28848323D01*
X94249449Y-28848323D02*
X94518824Y-28578949D01*
X94518824Y-28578949D02*
X93811717Y-27871842D01*
X93811717Y-27871842D02*
X93576014Y-28107544D01*
X93576014Y-28107544D02*
X93542343Y-28208559D01*
X93542343Y-28208559D02*
X93542343Y-28275903D01*
X93542343Y-28275903D02*
X93576014Y-28376918D01*
X93576014Y-28376918D02*
X93643358Y-28444262D01*
X93643358Y-28444262D02*
X93744373Y-28477934D01*
X93744373Y-28477934D02*
X93811717Y-28477934D01*
X93811717Y-28477934D02*
X93912732Y-28444262D01*
X93912732Y-28444262D02*
X94148434Y-28208559D01*
X93205625Y-28477934D02*
X92801564Y-28881995D01*
X93710701Y-29387071D02*
X93003595Y-28679964D01*
X92902579Y-30195193D02*
X93306640Y-29791132D01*
X93104610Y-29993162D02*
X92397503Y-29286056D01*
X92397503Y-29286056D02*
X92565862Y-29319727D01*
X92565862Y-29319727D02*
X92700549Y-29319727D01*
X92700549Y-29319727D02*
X92801564Y-29286056D01*
D11*
X5500000Y-5000000D02*
G75*
G02*
X4500000Y-5000000I-500000J0D01*
G01*
X4500000Y-5000000D02*
G75*
G02*
X5500000Y-5000000I500000J0D01*
G01*
D12*
X13106052Y-60774756D02*
X15757702Y-63426406D01*
X15757702Y-63426406D02*
X12434300Y-66749808D01*
X16040545Y-70356053D02*
X12434300Y-66749808D01*
X19363947Y-67032651D02*
X16040545Y-70356053D01*
X19363947Y-67032651D02*
X20530673Y-68199377D01*
X20071054Y-62860721D02*
X15050595Y-57840263D01*
X20530673Y-68199377D02*
X29793772Y-67845824D01*
X22333795Y-60597979D02*
X17313337Y-55577521D01*
X27849228Y-55082546D02*
X22828770Y-50062088D01*
X28033076Y-45861874D02*
X30677655Y-48506453D01*
X30111970Y-52819805D02*
X25091512Y-47799346D01*
X34001057Y-45183051D02*
X30677655Y-48506453D01*
X34001057Y-45183051D02*
X37607302Y-48789296D01*
X34283900Y-52112698D02*
X35450626Y-53279424D01*
X35097073Y-62542523D02*
X29793772Y-67845824D01*
X35450626Y-53279424D02*
X35097073Y-62542523D01*
X37607302Y-48789296D02*
X34283900Y-52112698D01*
X13106052Y-60774756D02*
G75*
G02*
X15302349Y-55654372I2121320J2121321D01*
G01*
X15389946Y-55252482D02*
G75*
G02*
X22503501Y-48138758I9673281J-2559496D01*
G01*
X22333795Y-60597979D02*
G75*
G02*
X20071054Y-62860722I-1131371J-1131371D01*
G01*
X22899479Y-47940768D02*
G75*
G02*
X15333413Y-55650898I-7495330J-212132D01*
G01*
X22899482Y-47940768D02*
G75*
G02*
X28029830Y-45850977I3005202J-35355D01*
G01*
X30111970Y-52819805D02*
G75*
G02*
X27849228Y-55082546I-1131371J-1131370D01*
G01*
X17038767Y-66926585D02*
G75*
G02*
X14688769Y-66926585I-1174999J0D01*
G01*
X14688769Y-66926585D02*
G75*
G02*
X17038767Y-66926585I1174999J0D01*
G01*
X24302424Y-61729350D02*
G75*
G02*
X18102424Y-61729350I-3100000J0D01*
G01*
X18102424Y-61729350D02*
G75*
G02*
X24302424Y-61729350I3100000J0D01*
G01*
X32080599Y-53951175D02*
G75*
G02*
X25880599Y-53951175I-3100000J0D01*
G01*
X25880599Y-53951175D02*
G75*
G02*
X32080599Y-53951175I3100000J0D01*
G01*
X35352835Y-48612519D02*
G75*
G02*
X33002833Y-48612519I-1175001J0D01*
G01*
X33002833Y-48612519D02*
G75*
G02*
X35352835Y-48612519I1175001J0D01*
G01*
X13106052Y-28026019D02*
X15757702Y-30677669D01*
X15757702Y-30677669D02*
X12434300Y-34001071D01*
X16040545Y-37607316D02*
X12434300Y-34001071D01*
X19363947Y-34283914D02*
X16040545Y-37607316D01*
X19363947Y-34283914D02*
X20530673Y-35450640D01*
X20071054Y-30111984D02*
X15050595Y-25091526D01*
X20530673Y-35450640D02*
X29793772Y-35097087D01*
X22333795Y-27849242D02*
X17313337Y-22828784D01*
X27849228Y-22333809D02*
X22828770Y-17313351D01*
X28033076Y-13113137D02*
X30677655Y-15757716D01*
X30111970Y-20071068D02*
X25091512Y-15050609D01*
X34001057Y-12434314D02*
X30677655Y-15757716D01*
X34001057Y-12434314D02*
X37607302Y-16040559D01*
X34283900Y-19363961D02*
X35450626Y-20530687D01*
X35097073Y-29793786D02*
X29793772Y-35097087D01*
X35450626Y-20530687D02*
X35097073Y-29793786D01*
X37607302Y-16040559D02*
X34283900Y-19363961D01*
X13106052Y-28026019D02*
G75*
G02*
X15302349Y-22905635I2121320J2121321D01*
G01*
X15389946Y-22503745D02*
G75*
G02*
X22503501Y-15390021I9673281J-2559496D01*
G01*
X22333795Y-27849242D02*
G75*
G02*
X20071054Y-30111985I-1131371J-1131371D01*
G01*
X22899479Y-15192031D02*
G75*
G02*
X15333413Y-22902161I-7495330J-212132D01*
G01*
X22899482Y-15192031D02*
G75*
G02*
X28029830Y-13102240I3005202J-35355D01*
G01*
X30111970Y-20071068D02*
G75*
G02*
X27849228Y-22333809I-1131371J-1131370D01*
G01*
X17038767Y-34177848D02*
G75*
G02*
X14688769Y-34177848I-1174999J0D01*
G01*
X14688769Y-34177848D02*
G75*
G02*
X17038767Y-34177848I1174999J0D01*
G01*
X24302424Y-28980613D02*
G75*
G02*
X18102424Y-28980613I-3100000J0D01*
G01*
X18102424Y-28980613D02*
G75*
G02*
X24302424Y-28980613I3100000J0D01*
G01*
X32080599Y-21202438D02*
G75*
G02*
X25880599Y-21202438I-3100000J0D01*
G01*
X25880599Y-21202438D02*
G75*
G02*
X32080599Y-21202438I3100000J0D01*
G01*
X35352835Y-15863782D02*
G75*
G02*
X33002833Y-15863782I-1175001J0D01*
G01*
X33002833Y-15863782D02*
G75*
G02*
X35352835Y-15863782I1175001J0D01*
G01*
D11*
X111746161Y-5000000D02*
G75*
G02*
X110746161Y-5000000I-500000J0D01*
G01*
X110746161Y-5000000D02*
G75*
G02*
X111746161Y-5000000I500000J0D01*
G01*
D12*
X13106052Y-93523493D02*
X15757702Y-96175143D01*
X15757702Y-96175143D02*
X12434300Y-99498545D01*
X16040545Y-103104790D02*
X12434300Y-99498545D01*
X19363947Y-99781388D02*
X16040545Y-103104790D01*
X19363947Y-99781388D02*
X20530673Y-100948114D01*
X20071054Y-95609458D02*
X15050595Y-90589000D01*
X20530673Y-100948114D02*
X29793772Y-100594561D01*
X22333795Y-93346716D02*
X17313337Y-88326258D01*
X27849228Y-87831283D02*
X22828770Y-82810825D01*
X28033076Y-78610611D02*
X30677655Y-81255190D01*
X30111970Y-85568542D02*
X25091512Y-80548083D01*
X34001057Y-77931788D02*
X30677655Y-81255190D01*
X34001057Y-77931788D02*
X37607302Y-81538033D01*
X34283900Y-84861435D02*
X35450626Y-86028161D01*
X35097073Y-95291260D02*
X29793772Y-100594561D01*
X35450626Y-86028161D02*
X35097073Y-95291260D01*
X37607302Y-81538033D02*
X34283900Y-84861435D01*
X13106052Y-93523493D02*
G75*
G02*
X15302349Y-88403109I2121320J2121321D01*
G01*
X15389946Y-88001219D02*
G75*
G02*
X22503501Y-80887495I9673281J-2559496D01*
G01*
X22333795Y-93346716D02*
G75*
G02*
X20071054Y-95609459I-1131371J-1131371D01*
G01*
X22899479Y-80689505D02*
G75*
G02*
X15333413Y-88399635I-7495330J-212132D01*
G01*
X22899482Y-80689505D02*
G75*
G02*
X28029830Y-78599714I3005202J-35355D01*
G01*
X30111970Y-85568542D02*
G75*
G02*
X27849228Y-87831283I-1131371J-1131370D01*
G01*
X17038767Y-99675322D02*
G75*
G02*
X14688769Y-99675322I-1174999J0D01*
G01*
X14688769Y-99675322D02*
G75*
G02*
X17038767Y-99675322I1174999J0D01*
G01*
X24302424Y-94478087D02*
G75*
G02*
X18102424Y-94478087I-3100000J0D01*
G01*
X18102424Y-94478087D02*
G75*
G02*
X24302424Y-94478087I3100000J0D01*
G01*
X32080599Y-86699912D02*
G75*
G02*
X25880599Y-86699912I-3100000J0D01*
G01*
X25880599Y-86699912D02*
G75*
G02*
X32080599Y-86699912I3100000J0D01*
G01*
X35352835Y-81361256D02*
G75*
G02*
X33002833Y-81361256I-1175001J0D01*
G01*
X33002833Y-81361256D02*
G75*
G02*
X35352835Y-81361256I1175001J0D01*
G01*
D11*
X5500000Y-111246211D02*
G75*
G02*
X4500000Y-111246211I-500000J0D01*
G01*
X4500000Y-111246211D02*
G75*
G02*
X5500000Y-111246211I500000J0D01*
G01*
D12*
X78603494Y-93523493D02*
X81255144Y-96175143D01*
X81255144Y-96175143D02*
X77931742Y-99498545D01*
X81537987Y-103104790D02*
X77931742Y-99498545D01*
X84861389Y-99781388D02*
X81537987Y-103104790D01*
X84861389Y-99781388D02*
X86028115Y-100948114D01*
X85568496Y-95609458D02*
X80548037Y-90589000D01*
X86028115Y-100948114D02*
X95291214Y-100594561D01*
X87831237Y-93346716D02*
X82810779Y-88326258D01*
X93346670Y-87831283D02*
X88326212Y-82810825D01*
X93530518Y-78610611D02*
X96175097Y-81255190D01*
X95609412Y-85568542D02*
X90588954Y-80548083D01*
X99498499Y-77931788D02*
X96175097Y-81255190D01*
X99498499Y-77931788D02*
X103104744Y-81538033D01*
X99781342Y-84861435D02*
X100948068Y-86028161D01*
X100594515Y-95291260D02*
X95291214Y-100594561D01*
X100948068Y-86028161D02*
X100594515Y-95291260D01*
X103104744Y-81538033D02*
X99781342Y-84861435D01*
X78603494Y-93523493D02*
G75*
G02*
X80799791Y-88403109I2121320J2121321D01*
G01*
X80887388Y-88001219D02*
G75*
G02*
X88000943Y-80887495I9673281J-2559496D01*
G01*
X87831237Y-93346716D02*
G75*
G02*
X85568496Y-95609459I-1131371J-1131371D01*
G01*
X88396921Y-80689505D02*
G75*
G02*
X80830855Y-88399635I-7495330J-212132D01*
G01*
X88396924Y-80689505D02*
G75*
G02*
X93527272Y-78599714I3005202J-35355D01*
G01*
X95609412Y-85568542D02*
G75*
G02*
X93346670Y-87831283I-1131371J-1131370D01*
G01*
X82536209Y-99675322D02*
G75*
G02*
X80186211Y-99675322I-1174999J0D01*
G01*
X80186211Y-99675322D02*
G75*
G02*
X82536209Y-99675322I1174999J0D01*
G01*
X89799866Y-94478087D02*
G75*
G02*
X83599866Y-94478087I-3100000J0D01*
G01*
X83599866Y-94478087D02*
G75*
G02*
X89799866Y-94478087I3100000J0D01*
G01*
X97578041Y-86699912D02*
G75*
G02*
X91378041Y-86699912I-3100000J0D01*
G01*
X91378041Y-86699912D02*
G75*
G02*
X97578041Y-86699912I3100000J0D01*
G01*
X100850277Y-81361256D02*
G75*
G02*
X98500275Y-81361256I-1175001J0D01*
G01*
X98500275Y-81361256D02*
G75*
G02*
X100850277Y-81361256I1175001J0D01*
G01*
X45854773Y-60774756D02*
X48506423Y-63426406D01*
X48506423Y-63426406D02*
X45183021Y-66749808D01*
X48789266Y-70356053D02*
X45183021Y-66749808D01*
X52112668Y-67032651D02*
X48789266Y-70356053D01*
X52112668Y-67032651D02*
X53279394Y-68199377D01*
X52819775Y-62860721D02*
X47799316Y-57840263D01*
X53279394Y-68199377D02*
X62542493Y-67845824D01*
X55082516Y-60597979D02*
X50062058Y-55577521D01*
X60597949Y-55082546D02*
X55577491Y-50062088D01*
X60781797Y-45861874D02*
X63426376Y-48506453D01*
X62860691Y-52819805D02*
X57840233Y-47799346D01*
X66749778Y-45183051D02*
X63426376Y-48506453D01*
X66749778Y-45183051D02*
X70356023Y-48789296D01*
X67032621Y-52112698D02*
X68199347Y-53279424D01*
X67845794Y-62542523D02*
X62542493Y-67845824D01*
X68199347Y-53279424D02*
X67845794Y-62542523D01*
X70356023Y-48789296D02*
X67032621Y-52112698D01*
X45854773Y-60774756D02*
G75*
G02*
X48051070Y-55654372I2121320J2121321D01*
G01*
X48138667Y-55252482D02*
G75*
G02*
X55252222Y-48138758I9673281J-2559496D01*
G01*
X55082516Y-60597979D02*
G75*
G02*
X52819775Y-62860722I-1131371J-1131371D01*
G01*
X55648200Y-47940768D02*
G75*
G02*
X48082134Y-55650898I-7495330J-212132D01*
G01*
X55648203Y-47940768D02*
G75*
G02*
X60778551Y-45850977I3005202J-35355D01*
G01*
X62860691Y-52819805D02*
G75*
G02*
X60597949Y-55082546I-1131371J-1131370D01*
G01*
X49787488Y-66926585D02*
G75*
G02*
X47437490Y-66926585I-1174999J0D01*
G01*
X47437490Y-66926585D02*
G75*
G02*
X49787488Y-66926585I1174999J0D01*
G01*
X57051145Y-61729350D02*
G75*
G02*
X50851145Y-61729350I-3100000J0D01*
G01*
X50851145Y-61729350D02*
G75*
G02*
X57051145Y-61729350I3100000J0D01*
G01*
X64829320Y-53951175D02*
G75*
G02*
X58629320Y-53951175I-3100000J0D01*
G01*
X58629320Y-53951175D02*
G75*
G02*
X64829320Y-53951175I3100000J0D01*
G01*
X68101556Y-48612519D02*
G75*
G02*
X65751554Y-48612519I-1175001J0D01*
G01*
X65751554Y-48612519D02*
G75*
G02*
X68101556Y-48612519I1175001J0D01*
G01*
X78603494Y-60774756D02*
X81255144Y-63426406D01*
X81255144Y-63426406D02*
X77931742Y-66749808D01*
X81537987Y-70356053D02*
X77931742Y-66749808D01*
X84861389Y-67032651D02*
X81537987Y-70356053D01*
X84861389Y-67032651D02*
X86028115Y-68199377D01*
X85568496Y-62860721D02*
X80548037Y-57840263D01*
X86028115Y-68199377D02*
X95291214Y-67845824D01*
X87831237Y-60597979D02*
X82810779Y-55577521D01*
X93346670Y-55082546D02*
X88326212Y-50062088D01*
X93530518Y-45861874D02*
X96175097Y-48506453D01*
X95609412Y-52819805D02*
X90588954Y-47799346D01*
X99498499Y-45183051D02*
X96175097Y-48506453D01*
X99498499Y-45183051D02*
X103104744Y-48789296D01*
X99781342Y-52112698D02*
X100948068Y-53279424D01*
X100594515Y-62542523D02*
X95291214Y-67845824D01*
X100948068Y-53279424D02*
X100594515Y-62542523D01*
X103104744Y-48789296D02*
X99781342Y-52112698D01*
X78603494Y-60774756D02*
G75*
G02*
X80799791Y-55654372I2121320J2121321D01*
G01*
X80887388Y-55252482D02*
G75*
G02*
X88000943Y-48138758I9673281J-2559496D01*
G01*
X87831237Y-60597979D02*
G75*
G02*
X85568496Y-62860722I-1131371J-1131371D01*
G01*
X88396921Y-47940768D02*
G75*
G02*
X80830855Y-55650898I-7495330J-212132D01*
G01*
X88396924Y-47940768D02*
G75*
G02*
X93527272Y-45850977I3005202J-35355D01*
G01*
X95609412Y-52819805D02*
G75*
G02*
X93346670Y-55082546I-1131371J-1131370D01*
G01*
X82536209Y-66926585D02*
G75*
G02*
X80186211Y-66926585I-1174999J0D01*
G01*
X80186211Y-66926585D02*
G75*
G02*
X82536209Y-66926585I1174999J0D01*
G01*
X89799866Y-61729350D02*
G75*
G02*
X83599866Y-61729350I-3100000J0D01*
G01*
X83599866Y-61729350D02*
G75*
G02*
X89799866Y-61729350I3100000J0D01*
G01*
X97578041Y-53951175D02*
G75*
G02*
X91378041Y-53951175I-3100000J0D01*
G01*
X91378041Y-53951175D02*
G75*
G02*
X97578041Y-53951175I3100000J0D01*
G01*
X100850277Y-48612519D02*
G75*
G02*
X98500275Y-48612519I-1175001J0D01*
G01*
X98500275Y-48612519D02*
G75*
G02*
X100850277Y-48612519I1175001J0D01*
G01*
X45854773Y-28026019D02*
X48506423Y-30677669D01*
X48506423Y-30677669D02*
X45183021Y-34001071D01*
X48789266Y-37607316D02*
X45183021Y-34001071D01*
X52112668Y-34283914D02*
X48789266Y-37607316D01*
X52112668Y-34283914D02*
X53279394Y-35450640D01*
X52819775Y-30111984D02*
X47799316Y-25091526D01*
X53279394Y-35450640D02*
X62542493Y-35097087D01*
X55082516Y-27849242D02*
X50062058Y-22828784D01*
X60597949Y-22333809D02*
X55577491Y-17313351D01*
X60781797Y-13113137D02*
X63426376Y-15757716D01*
X62860691Y-20071068D02*
X57840233Y-15050609D01*
X66749778Y-12434314D02*
X63426376Y-15757716D01*
X66749778Y-12434314D02*
X70356023Y-16040559D01*
X67032621Y-19363961D02*
X68199347Y-20530687D01*
X67845794Y-29793786D02*
X62542493Y-35097087D01*
X68199347Y-20530687D02*
X67845794Y-29793786D01*
X70356023Y-16040559D02*
X67032621Y-19363961D01*
X45854773Y-28026019D02*
G75*
G02*
X48051070Y-22905635I2121320J2121321D01*
G01*
X48138667Y-22503745D02*
G75*
G02*
X55252222Y-15390021I9673281J-2559496D01*
G01*
X55082516Y-27849242D02*
G75*
G02*
X52819775Y-30111985I-1131371J-1131371D01*
G01*
X55648200Y-15192031D02*
G75*
G02*
X48082134Y-22902161I-7495330J-212132D01*
G01*
X55648203Y-15192031D02*
G75*
G02*
X60778551Y-13102240I3005202J-35355D01*
G01*
X62860691Y-20071068D02*
G75*
G02*
X60597949Y-22333809I-1131371J-1131370D01*
G01*
X49787488Y-34177848D02*
G75*
G02*
X47437490Y-34177848I-1174999J0D01*
G01*
X47437490Y-34177848D02*
G75*
G02*
X49787488Y-34177848I1174999J0D01*
G01*
X57051145Y-28980613D02*
G75*
G02*
X50851145Y-28980613I-3100000J0D01*
G01*
X50851145Y-28980613D02*
G75*
G02*
X57051145Y-28980613I3100000J0D01*
G01*
X64829320Y-21202438D02*
G75*
G02*
X58629320Y-21202438I-3100000J0D01*
G01*
X58629320Y-21202438D02*
G75*
G02*
X64829320Y-21202438I3100000J0D01*
G01*
X68101556Y-15863782D02*
G75*
G02*
X65751554Y-15863782I-1175001J0D01*
G01*
X65751554Y-15863782D02*
G75*
G02*
X68101556Y-15863782I1175001J0D01*
G01*
X45854773Y-93523493D02*
X48506423Y-96175143D01*
X48506423Y-96175143D02*
X45183021Y-99498545D01*
X48789266Y-103104790D02*
X45183021Y-99498545D01*
X52112668Y-99781388D02*
X48789266Y-103104790D01*
X52112668Y-99781388D02*
X53279394Y-100948114D01*
X52819775Y-95609458D02*
X47799316Y-90589000D01*
X53279394Y-100948114D02*
X62542493Y-100594561D01*
X55082516Y-93346716D02*
X50062058Y-88326258D01*
X60597949Y-87831283D02*
X55577491Y-82810825D01*
X60781797Y-78610611D02*
X63426376Y-81255190D01*
X62860691Y-85568542D02*
X57840233Y-80548083D01*
X66749778Y-77931788D02*
X63426376Y-81255190D01*
X66749778Y-77931788D02*
X70356023Y-81538033D01*
X67032621Y-84861435D02*
X68199347Y-86028161D01*
X67845794Y-95291260D02*
X62542493Y-100594561D01*
X68199347Y-86028161D02*
X67845794Y-95291260D01*
X70356023Y-81538033D02*
X67032621Y-84861435D01*
X45854773Y-93523493D02*
G75*
G02*
X48051070Y-88403109I2121320J2121321D01*
G01*
X48138667Y-88001219D02*
G75*
G02*
X55252222Y-80887495I9673281J-2559496D01*
G01*
X55082516Y-93346716D02*
G75*
G02*
X52819775Y-95609459I-1131371J-1131371D01*
G01*
X55648200Y-80689505D02*
G75*
G02*
X48082134Y-88399635I-7495330J-212132D01*
G01*
X55648203Y-80689505D02*
G75*
G02*
X60778551Y-78599714I3005202J-35355D01*
G01*
X62860691Y-85568542D02*
G75*
G02*
X60597949Y-87831283I-1131371J-1131370D01*
G01*
X49787488Y-99675322D02*
G75*
G02*
X47437490Y-99675322I-1174999J0D01*
G01*
X47437490Y-99675322D02*
G75*
G02*
X49787488Y-99675322I1174999J0D01*
G01*
X57051145Y-94478087D02*
G75*
G02*
X50851145Y-94478087I-3100000J0D01*
G01*
X50851145Y-94478087D02*
G75*
G02*
X57051145Y-94478087I3100000J0D01*
G01*
X64829320Y-86699912D02*
G75*
G02*
X58629320Y-86699912I-3100000J0D01*
G01*
X58629320Y-86699912D02*
G75*
G02*
X64829320Y-86699912I3100000J0D01*
G01*
X68101556Y-81361256D02*
G75*
G02*
X65751554Y-81361256I-1175001J0D01*
G01*
X65751554Y-81361256D02*
G75*
G02*
X68101556Y-81361256I1175001J0D01*
G01*
X78603494Y-28026019D02*
X81255144Y-30677669D01*
X81255144Y-30677669D02*
X77931742Y-34001071D01*
X81537987Y-37607316D02*
X77931742Y-34001071D01*
X84861389Y-34283914D02*
X81537987Y-37607316D01*
X84861389Y-34283914D02*
X86028115Y-35450640D01*
X85568496Y-30111984D02*
X80548037Y-25091526D01*
X86028115Y-35450640D02*
X95291214Y-35097087D01*
X87831237Y-27849242D02*
X82810779Y-22828784D01*
X93346670Y-22333809D02*
X88326212Y-17313351D01*
X93530518Y-13113137D02*
X96175097Y-15757716D01*
X95609412Y-20071068D02*
X90588954Y-15050609D01*
X99498499Y-12434314D02*
X96175097Y-15757716D01*
X99498499Y-12434314D02*
X103104744Y-16040559D01*
X99781342Y-19363961D02*
X100948068Y-20530687D01*
X100594515Y-29793786D02*
X95291214Y-35097087D01*
X100948068Y-20530687D02*
X100594515Y-29793786D01*
X103104744Y-16040559D02*
X99781342Y-19363961D01*
X78603494Y-28026019D02*
G75*
G02*
X80799791Y-22905635I2121320J2121321D01*
G01*
X80887388Y-22503745D02*
G75*
G02*
X88000943Y-15390021I9673281J-2559496D01*
G01*
X87831237Y-27849242D02*
G75*
G02*
X85568496Y-30111985I-1131371J-1131371D01*
G01*
X88396921Y-15192031D02*
G75*
G02*
X80830855Y-22902161I-7495330J-212132D01*
G01*
X88396924Y-15192031D02*
G75*
G02*
X93527272Y-13102240I3005202J-35355D01*
G01*
X95609412Y-20071068D02*
G75*
G02*
X93346670Y-22333809I-1131371J-1131370D01*
G01*
X82536209Y-34177848D02*
G75*
G02*
X80186211Y-34177848I-1174999J0D01*
G01*
X80186211Y-34177848D02*
G75*
G02*
X82536209Y-34177848I1174999J0D01*
G01*
X89799866Y-28980613D02*
G75*
G02*
X83599866Y-28980613I-3100000J0D01*
G01*
X83599866Y-28980613D02*
G75*
G02*
X89799866Y-28980613I3100000J0D01*
G01*
X97578041Y-21202438D02*
G75*
G02*
X91378041Y-21202438I-3100000J0D01*
G01*
X91378041Y-21202438D02*
G75*
G02*
X97578041Y-21202438I3100000J0D01*
G01*
X100850277Y-15863782D02*
G75*
G02*
X98500275Y-15863782I-1175001J0D01*
G01*
X98500275Y-15863782D02*
G75*
G02*
X100850277Y-15863782I1175001J0D01*
G01*
M02*
