%TF.GenerationSoftware,KiCad,Pcbnew,8.99.0-unknown-ce20689caf~181~ubuntu24.04.1*%
%TF.CreationDate,2024-12-05T10:04:36-05:00*%
%TF.ProjectId,nRF54L15_nPM2100_CR2032,6e524635-344c-4313-955f-6e504d323130,rev?*%
%TF.SameCoordinates,Original*%
%TF.FileFunction,Copper,L4,Bot*%
%TF.FilePolarity,Positive*%
%FSLAX46Y46*%
G04 Gerber Fmt 4.6, Leading zero omitted, Abs format (unit mm)*
G04 Created by KiCad (PCBNEW 8.99.0-unknown-ce20689caf~181~ubuntu24.04.1) date 2024-12-05 10:04:36*
%MOMM*%
%LPD*%
G01*
G04 APERTURE LIST*
%TA.AperFunction,SMDPad,CuDef*%
%ADD10R,5.000000X5.000000*%
%TD*%
%TA.AperFunction,SMDPad,CuDef*%
%ADD11R,4.000000X4.000000*%
%TD*%
%TA.AperFunction,ViaPad*%
%ADD12C,0.300000*%
%TD*%
%TA.AperFunction,ViaPad*%
%ADD13C,0.250000*%
%TD*%
%TA.AperFunction,ViaPad*%
%ADD14C,0.600000*%
%TD*%
%TA.AperFunction,Conductor*%
%ADD15C,0.150000*%
%TD*%
%TA.AperFunction,Conductor*%
%ADD16C,0.300000*%
%TD*%
%TA.AperFunction,Conductor*%
%ADD17C,0.100000*%
%TD*%
G04 APERTURE END LIST*
D10*
%TO.P,BT1,1,+*%
%TO.N,Net-(BT1-+)*%
X202950000Y-55000000D03*
X177050000Y-55000000D03*
D11*
%TO.P,BT1,2,-*%
%TO.N,GND*%
X190000000Y-55000000D03*
%TD*%
D12*
%TO.N,GND*%
X189000000Y-65000000D03*
X189450000Y-66720000D03*
X189440000Y-57830000D03*
X181400000Y-54150000D03*
X180500000Y-58500000D03*
X187500000Y-65000000D03*
X192000000Y-46000000D03*
X182500000Y-60000000D03*
X193861558Y-50077782D03*
X194000000Y-65000000D03*
X188000000Y-44000000D03*
D13*
X192670000Y-58650000D03*
X193930000Y-61520000D03*
D12*
X188000000Y-46000000D03*
X200000000Y-57000000D03*
D13*
X194560000Y-61330000D03*
X186106274Y-48326274D03*
D12*
X199100000Y-51950000D03*
X190000000Y-46000000D03*
D13*
X183204505Y-50111243D03*
D12*
X181400000Y-57050000D03*
X189000000Y-52500000D03*
X192000000Y-44000000D03*
X193033726Y-49286274D03*
X186000000Y-46000000D03*
X188000000Y-48000000D03*
D13*
X189130000Y-59673800D03*
D12*
X196138442Y-49922218D03*
D13*
X190930315Y-59120315D03*
X188440000Y-61713800D03*
X188140000Y-62760000D03*
D12*
X200000000Y-53000000D03*
X185000000Y-56000000D03*
X198000000Y-57000000D03*
D13*
X189130000Y-61713800D03*
X194440000Y-59080000D03*
X188130000Y-59640000D03*
D12*
X192000000Y-63000000D03*
X181400000Y-56050000D03*
X185000000Y-62500000D03*
D13*
X188120000Y-62210000D03*
D12*
X192000000Y-65000000D03*
X189000000Y-63000000D03*
D13*
X195380000Y-59370000D03*
D12*
X180500000Y-51500000D03*
X194000000Y-64000000D03*
D13*
X190542199Y-61119005D03*
D12*
X190190000Y-65370000D03*
X196626274Y-49206274D03*
X183560000Y-53320000D03*
X192000000Y-66000000D03*
X200000000Y-55000000D03*
D13*
X189860000Y-58813800D03*
D14*
X190000000Y-55000000D03*
D13*
X192557697Y-60350000D03*
X192050000Y-59590000D03*
D12*
X190000000Y-48000000D03*
X186000000Y-55000000D03*
X194568665Y-50784889D03*
X189000000Y-64000000D03*
X192000000Y-64000000D03*
X186075000Y-52775000D03*
X196000000Y-53000000D03*
X189000000Y-66000000D03*
X181410000Y-53080000D03*
X192000000Y-48000000D03*
X194530198Y-49176645D03*
X194000000Y-63000000D03*
X195083726Y-47633726D03*
D13*
X187730000Y-61703800D03*
D12*
X190190000Y-63570000D03*
X190000000Y-50000000D03*
X199100000Y-55000000D03*
D13*
%TO.N,Net-(U1-DECA)*%
X190150000Y-61720000D03*
X188780000Y-61073800D03*
D12*
%TO.N,Net-(BT1-+)*%
X177050000Y-55100000D03*
%TO.N,/INT2*%
X195650000Y-51700000D03*
X195823355Y-50469802D03*
%TO.N,/VDD_LS*%
X182050000Y-53080000D03*
X192690000Y-48370000D03*
X184159099Y-49156649D03*
%TO.N,VDD*%
X190500000Y-58460000D03*
D13*
X197000000Y-57400000D03*
D12*
X184590000Y-57850000D03*
X192557697Y-60990000D03*
X191400000Y-50000000D03*
D13*
%TO.N,Net-(J1-SWDIO)*%
X191443000Y-61118200D03*
D12*
X199080000Y-59480000D03*
%TO.N,Net-(J1-SWCLK)*%
X198140000Y-60340000D03*
D13*
X191143000Y-60818200D03*
%TO.N,Net-(J1-~{RESET})*%
X195810000Y-58850000D03*
X190843000Y-61118200D03*
%TO.N,Net-(U1-P1.00)*%
X192192500Y-58363800D03*
X190542873Y-60219001D03*
%TO.N,Net-(U1-P1.01)*%
X190542197Y-59918200D03*
X191367500Y-58363800D03*
%TO.N,/SDA*%
X190843000Y-59918200D03*
D12*
X193700000Y-50940000D03*
X183890000Y-58490000D03*
D13*
%TO.N,/SCL*%
X190843675Y-60219003D03*
D12*
X184590000Y-58490000D03*
X193350000Y-50570000D03*
D13*
%TO.N,/UART_TX*%
X191142197Y-59618200D03*
D12*
X195000000Y-55000000D03*
%TO.N,/UART_RX*%
X196300000Y-53500000D03*
D13*
X191443000Y-59618200D03*
%TO.N,/LED*%
X190242289Y-60810800D03*
D12*
X184580000Y-53320000D03*
D13*
%TO.N,/PDM_DATA*%
X184795495Y-49793045D03*
D12*
X194200000Y-52970000D03*
D13*
%TO.N,/PDM_CLK*%
X183840901Y-50747639D03*
D12*
X194195000Y-53395000D03*
D13*
%TO.N,/BUTTON0*%
X190241394Y-59918200D03*
D12*
X187170000Y-53925000D03*
D13*
%TO.N,/LSW*%
X190543000Y-60818200D03*
D12*
X186340000Y-60590000D03*
%TD*%
D15*
%TO.N,Net-(U1-DECA)*%
X189503800Y-61073800D02*
X188780000Y-61073800D01*
X190150000Y-61720000D02*
X189503800Y-61073800D01*
%TO.N,/INT2*%
X196110000Y-51240000D02*
X195650000Y-51700000D01*
X196110000Y-50920000D02*
X196110000Y-51240000D01*
X195823355Y-50469802D02*
X196110000Y-50756447D01*
X196110000Y-50756447D02*
X196110000Y-50920000D01*
D16*
%TO.N,/VDD_LS*%
X182050000Y-53080000D02*
X182050000Y-50430000D01*
X192690000Y-48370000D02*
X191903351Y-49156649D01*
X191903351Y-49156649D02*
X184159099Y-49156649D01*
X183323351Y-49156649D02*
X184159099Y-49156649D01*
X182050000Y-50430000D02*
X183323351Y-49156649D01*
D15*
%TO.N,VDD*%
X197000000Y-57400000D02*
X196810000Y-57210000D01*
D16*
X192665000Y-57995000D02*
X192805000Y-58135000D01*
X190550000Y-58460000D02*
X191240000Y-57770000D01*
X192980000Y-58310000D02*
X193140000Y-58470000D01*
X191240000Y-57770000D02*
X192100000Y-57770000D01*
D15*
X192975000Y-57965000D02*
X192975000Y-58305000D01*
D16*
X192400000Y-57770000D02*
X192440000Y-57770000D01*
X193140000Y-58470000D02*
X193140000Y-60680000D01*
X188140000Y-57850000D02*
X188750000Y-58460000D01*
X190500000Y-58460000D02*
X190550000Y-58460000D01*
X192100000Y-57770000D02*
X192130000Y-57770000D01*
X194620800Y-52714693D02*
X194620800Y-55279200D01*
X193140000Y-60680000D02*
X192830000Y-60990000D01*
X192100000Y-57770000D02*
X192400000Y-57770000D01*
X192130000Y-57770000D02*
X192400000Y-57500000D01*
X191400000Y-50000000D02*
X193810000Y-52410000D01*
X192830000Y-60990000D02*
X192557697Y-60990000D01*
D15*
X193730000Y-57210000D02*
X192975000Y-57965000D01*
X192975000Y-58305000D02*
X192980000Y-58310000D01*
X192945000Y-57995000D02*
X192665000Y-57995000D01*
D16*
X193810000Y-52410000D02*
X194316107Y-52410000D01*
D15*
X196810000Y-57210000D02*
X193730000Y-57210000D01*
X192975000Y-57965000D02*
X192805000Y-58135000D01*
D16*
X192400000Y-57500000D02*
X192400000Y-57770000D01*
X184590000Y-57850000D02*
X188140000Y-57850000D01*
X188750000Y-58460000D02*
X190500000Y-58460000D01*
X194620800Y-55279200D02*
X192400000Y-57500000D01*
D15*
X192975000Y-57965000D02*
X192945000Y-57995000D01*
D16*
X192805000Y-58135000D02*
X192980000Y-58310000D01*
X192440000Y-57770000D02*
X192665000Y-57995000D01*
X194316107Y-52410000D02*
X194620800Y-52714693D01*
D15*
%TO.N,Net-(J1-SWDIO)*%
X191850000Y-61390000D02*
X192970000Y-61390000D01*
X194160000Y-58330000D02*
X197930000Y-58330000D01*
X192970000Y-61390000D02*
X193670000Y-60690000D01*
X191590000Y-61130000D02*
X191850000Y-61390000D01*
X197930000Y-58330000D02*
X199080000Y-59480000D01*
X193670000Y-60690000D02*
X193670000Y-58820000D01*
X193670000Y-58820000D02*
X194160000Y-58330000D01*
X191443000Y-61118200D02*
X191454800Y-61130000D01*
X191454800Y-61130000D02*
X191590000Y-61130000D01*
%TO.N,Net-(J1-SWCLK)*%
X191143000Y-60818200D02*
X191130000Y-60831200D01*
X193900000Y-58920000D02*
X194260000Y-58560000D01*
X193900000Y-60870000D02*
X193900000Y-58920000D01*
X193120000Y-61650000D02*
X193900000Y-60870000D01*
X191130000Y-61360000D02*
X191420000Y-61650000D01*
X191420000Y-61650000D02*
X193120000Y-61650000D01*
X196360000Y-58560000D02*
X198140000Y-60340000D01*
X194260000Y-58560000D02*
X196360000Y-58560000D01*
X191130000Y-60831200D02*
X191130000Y-61360000D01*
D17*
%TO.N,Net-(U1-P1.00)*%
X190604064Y-60464031D02*
X190620032Y-60480000D01*
X190542873Y-60219001D02*
X190542873Y-60402841D01*
X192340000Y-60040000D02*
X192340000Y-58511300D01*
X190604063Y-60464031D02*
X190604064Y-60464031D01*
X192340000Y-58511300D02*
X192192500Y-58363800D01*
X191900000Y-60480000D02*
X192340000Y-60040000D01*
X190542873Y-60402841D02*
X190604063Y-60464031D01*
X190620032Y-60480000D02*
X191900000Y-60480000D01*
%TO.N,Net-(U1-P1.01)*%
X190542197Y-59918200D02*
X190530000Y-59906003D01*
X190530000Y-59201300D02*
X191367500Y-58363800D01*
X190530000Y-59906003D02*
X190530000Y-59201300D01*
D15*
%TO.N,/PDM_DATA*%
X192280000Y-52100000D02*
X189660000Y-52100000D01*
X194200000Y-52970000D02*
X193150000Y-52970000D01*
X189660000Y-52100000D02*
X188050000Y-50490000D01*
X193150000Y-52970000D02*
X192280000Y-52100000D01*
X188050000Y-50490000D02*
X185492450Y-50490000D01*
X185492450Y-50490000D02*
X184795495Y-49793045D01*
%TO.N,/PDM_CLK*%
X183840901Y-50747639D02*
X187947639Y-50747639D01*
X187947639Y-50747639D02*
X189550000Y-52350000D01*
X189550000Y-52350000D02*
X192150000Y-52350000D01*
X192150000Y-52350000D02*
X193195000Y-53395000D01*
X193195000Y-53395000D02*
X194195000Y-53395000D01*
%TO.N,/BUTTON0*%
X190241394Y-59918200D02*
X190228894Y-59918200D01*
X190217094Y-59930000D02*
X184090000Y-59930000D01*
X185935000Y-53925000D02*
X187170000Y-53925000D01*
X184090000Y-59930000D02*
X183190000Y-59030000D01*
X183190000Y-59030000D02*
X183190000Y-56670000D01*
X183190000Y-56670000D02*
X185935000Y-53925000D01*
X190228894Y-59918200D02*
X190217094Y-59930000D01*
%TO.N,/LSW*%
X190543000Y-60818200D02*
X190530831Y-60806031D01*
X190530831Y-60806031D02*
X190530831Y-60640831D01*
X190530831Y-60640831D02*
X190300000Y-60410000D01*
X188460000Y-60410000D02*
X188280000Y-60590000D01*
X190300000Y-60410000D02*
X188460000Y-60410000D01*
X188280000Y-60590000D02*
X186340000Y-60590000D01*
%TD*%
%TA.AperFunction,Conductor*%
%TO.N,GND*%
G36*
X192542424Y-58269884D02*
G01*
X192559486Y-58281931D01*
X192582944Y-58305389D01*
X192757942Y-58480387D01*
X192757944Y-58480389D01*
X192810055Y-58532500D01*
X192844487Y-58566931D01*
X192862500Y-58610418D01*
X192862500Y-60539581D01*
X192844487Y-60583068D01*
X192733068Y-60694487D01*
X192689581Y-60712500D01*
X192521161Y-60712500D01*
X192450590Y-60731409D01*
X192450585Y-60731411D01*
X192387309Y-60767943D01*
X192387304Y-60767947D01*
X192335644Y-60819607D01*
X192335640Y-60819612D01*
X192299108Y-60882888D01*
X192299106Y-60882893D01*
X192280197Y-60953463D01*
X192280197Y-61026536D01*
X192299106Y-61097106D01*
X192300651Y-61100835D01*
X192298867Y-61101573D01*
X192304177Y-61141920D01*
X192275521Y-61179262D01*
X192244773Y-61187500D01*
X191959353Y-61187500D01*
X191915866Y-61169487D01*
X191704705Y-60958327D01*
X191630278Y-60927498D01*
X191629397Y-60927323D01*
X191607803Y-60918518D01*
X191607502Y-60918322D01*
X191595339Y-60910252D01*
X191594764Y-60910014D01*
X191591900Y-60908146D01*
X191591260Y-60907211D01*
X191591065Y-60907505D01*
X191586032Y-60904141D01*
X191493225Y-60865700D01*
X191457000Y-60865700D01*
X191413513Y-60847687D01*
X191396458Y-60815014D01*
X191395500Y-60809650D01*
X191395500Y-60767975D01*
X191382411Y-60736375D01*
X191381239Y-60729814D01*
X191384962Y-60712841D01*
X191384962Y-60695466D01*
X191389845Y-60690582D01*
X191391325Y-60683837D01*
X191405959Y-60674468D01*
X191418245Y-60662182D01*
X191428262Y-60660189D01*
X191430967Y-60658458D01*
X191433819Y-60659083D01*
X191441781Y-60657500D01*
X191935306Y-60657500D01*
X191935307Y-60657500D01*
X191991171Y-60634360D01*
X192000546Y-60630477D01*
X192490477Y-60140546D01*
X192509053Y-60095699D01*
X192517500Y-60075307D01*
X192517500Y-58475993D01*
X192508169Y-58453466D01*
X192490478Y-58410755D01*
X192479157Y-58399434D01*
X192474839Y-58391303D01*
X192474556Y-58388352D01*
X192471201Y-58383040D01*
X192471147Y-58382889D01*
X192458046Y-58346001D01*
X192460465Y-58298993D01*
X192495416Y-58267465D01*
X192542424Y-58269884D01*
G37*
%TD.AperFunction*%
%TA.AperFunction,Conductor*%
G36*
X192046724Y-58065513D02*
G01*
X192064737Y-58109000D01*
X192046724Y-58152487D01*
X191978441Y-58220769D01*
X191940000Y-58313574D01*
X191940000Y-58414025D01*
X191978441Y-58506830D01*
X192049468Y-58577858D01*
X192049469Y-58577858D01*
X192049470Y-58577859D01*
X192058969Y-58581793D01*
X192064169Y-58584237D01*
X192068788Y-58586677D01*
X192076205Y-58592383D01*
X192129019Y-58618503D01*
X192129732Y-58618880D01*
X192144266Y-58636418D01*
X192159259Y-58653554D01*
X192159455Y-58654748D01*
X192159766Y-58655123D01*
X192159675Y-58656087D01*
X192162500Y-58673256D01*
X192162500Y-59941003D01*
X192144487Y-59984490D01*
X191844490Y-60284487D01*
X191801003Y-60302500D01*
X191157675Y-60302500D01*
X191114188Y-60284487D01*
X191096175Y-60241000D01*
X191096175Y-60168778D01*
X191064091Y-60091320D01*
X191064091Y-60044253D01*
X191095500Y-59968425D01*
X191095500Y-59932200D01*
X191113513Y-59888713D01*
X191157000Y-59870700D01*
X191192421Y-59870700D01*
X191192422Y-59870700D01*
X191269063Y-59838953D01*
X191316131Y-59838953D01*
X191316132Y-59838954D01*
X191392769Y-59870698D01*
X191392772Y-59870699D01*
X191392775Y-59870700D01*
X191392776Y-59870700D01*
X191493224Y-59870700D01*
X191493225Y-59870700D01*
X191586030Y-59832259D01*
X191657059Y-59761230D01*
X191695500Y-59668425D01*
X191695500Y-59567975D01*
X191657059Y-59475170D01*
X191586030Y-59404141D01*
X191493225Y-59365700D01*
X191392775Y-59365700D01*
X191392774Y-59365700D01*
X191316133Y-59397446D01*
X191269064Y-59397446D01*
X191192422Y-59365700D01*
X191091972Y-59365700D01*
X191091971Y-59365700D01*
X190999166Y-59404141D01*
X190928138Y-59475169D01*
X190889697Y-59567974D01*
X190889697Y-59604200D01*
X190881565Y-59623829D01*
X190875043Y-59644046D01*
X190872753Y-59645104D01*
X190871684Y-59647687D01*
X190833147Y-59665500D01*
X190830670Y-59665700D01*
X190792775Y-59665700D01*
X190783598Y-59669500D01*
X190773950Y-59670280D01*
X190760059Y-59665797D01*
X190745462Y-59665797D01*
X190738510Y-59658845D01*
X190729154Y-59655826D01*
X190722501Y-59642834D01*
X190712180Y-59632512D01*
X190708982Y-59616434D01*
X190707700Y-59613930D01*
X190708185Y-59612425D01*
X190707500Y-59608980D01*
X190707500Y-59300296D01*
X190725512Y-59256810D01*
X191285317Y-58697004D01*
X191300895Y-58685689D01*
X191485420Y-58591738D01*
X191491802Y-58588265D01*
X191492917Y-58587618D01*
X191492923Y-58587612D01*
X191494355Y-58586551D01*
X191507448Y-58579135D01*
X191510530Y-58577859D01*
X191581559Y-58506830D01*
X191620000Y-58414025D01*
X191620000Y-58313575D01*
X191581559Y-58220770D01*
X191513276Y-58152487D01*
X191495263Y-58109000D01*
X191513276Y-58065513D01*
X191556763Y-58047500D01*
X192003237Y-58047500D01*
X192046724Y-58065513D01*
G37*
%TD.AperFunction*%
%TA.AperFunction,Conductor*%
G36*
X192604987Y-53091365D02*
G01*
X193080294Y-53566672D01*
X193154714Y-53597498D01*
X193154717Y-53597499D01*
X193154720Y-53597500D01*
X193853649Y-53597500D01*
X193869638Y-53599615D01*
X194047491Y-53647500D01*
X194119289Y-53666831D01*
X194123200Y-53667820D01*
X194123884Y-53667982D01*
X194135707Y-53668234D01*
X194150313Y-53670316D01*
X194158462Y-53672499D01*
X194158465Y-53672500D01*
X194158466Y-53672500D01*
X194231535Y-53672500D01*
X194242958Y-53669439D01*
X194265882Y-53663296D01*
X194312549Y-53669439D01*
X194341204Y-53706781D01*
X194343300Y-53722700D01*
X194343300Y-55138781D01*
X194325287Y-55182268D01*
X192604987Y-56902568D01*
X192561500Y-56920581D01*
X192518013Y-56902568D01*
X192500000Y-56859081D01*
X192500000Y-55250000D01*
X190250000Y-55250000D01*
X190250000Y-57500000D01*
X190969081Y-57500000D01*
X191012568Y-57518013D01*
X191030581Y-57561500D01*
X191012568Y-57604987D01*
X190453068Y-58164487D01*
X190409581Y-58182500D01*
X188890418Y-58182500D01*
X188846931Y-58164487D01*
X188582738Y-57900294D01*
X188310389Y-57627944D01*
X188287553Y-57614759D01*
X188258900Y-57577418D01*
X188265043Y-57530750D01*
X188302386Y-57502096D01*
X188318304Y-57500000D01*
X189750000Y-57500000D01*
X189750000Y-55250000D01*
X187500000Y-55250000D01*
X187500000Y-57047825D01*
X187506403Y-57107380D01*
X187556646Y-57242086D01*
X187556648Y-57242091D01*
X187642811Y-57357188D01*
X187757908Y-57443351D01*
X187757913Y-57443353D01*
X187784789Y-57453378D01*
X187819239Y-57485452D01*
X187820919Y-57532492D01*
X187788845Y-57566942D01*
X187763297Y-57572500D01*
X184553464Y-57572500D01*
X184482893Y-57591409D01*
X184482888Y-57591411D01*
X184419612Y-57627943D01*
X184419607Y-57627947D01*
X184367947Y-57679607D01*
X184367943Y-57679612D01*
X184331411Y-57742888D01*
X184331409Y-57742893D01*
X184312500Y-57813463D01*
X184312500Y-57886536D01*
X184331409Y-57957106D01*
X184331411Y-57957111D01*
X184367944Y-58020389D01*
X184419611Y-58072056D01*
X184482889Y-58108589D01*
X184482893Y-58108590D01*
X184490378Y-58110596D01*
X184527721Y-58139251D01*
X184533864Y-58185918D01*
X184505209Y-58223261D01*
X184490378Y-58229404D01*
X184482893Y-58231409D01*
X184482888Y-58231411D01*
X184419612Y-58267943D01*
X184419607Y-58267947D01*
X184367947Y-58319607D01*
X184367943Y-58319612D01*
X184331411Y-58382888D01*
X184331409Y-58382893D01*
X184312500Y-58453463D01*
X184312500Y-58526536D01*
X184331409Y-58597106D01*
X184331411Y-58597111D01*
X184367944Y-58660389D01*
X184419611Y-58712056D01*
X184482889Y-58748589D01*
X184482893Y-58748590D01*
X184553464Y-58767500D01*
X184553466Y-58767500D01*
X184626535Y-58767500D01*
X184674457Y-58754659D01*
X184697111Y-58748589D01*
X184760389Y-58712056D01*
X184812056Y-58660389D01*
X184848589Y-58597111D01*
X184861075Y-58550513D01*
X184867500Y-58526536D01*
X184867500Y-58453463D01*
X184848590Y-58382893D01*
X184848589Y-58382889D01*
X184812056Y-58319611D01*
X184760389Y-58267944D01*
X184715902Y-58242259D01*
X184687249Y-58204918D01*
X184693392Y-58158250D01*
X184730735Y-58129596D01*
X184746653Y-58127500D01*
X187999581Y-58127500D01*
X188043068Y-58145513D01*
X188525791Y-58628235D01*
X188525796Y-58628241D01*
X188527944Y-58630389D01*
X188579611Y-58682056D01*
X188642889Y-58718589D01*
X188642893Y-58718590D01*
X188713464Y-58737500D01*
X188713466Y-58737500D01*
X190463466Y-58737500D01*
X190513462Y-58737500D01*
X190513466Y-58737501D01*
X190586534Y-58737501D01*
X190588498Y-58736974D01*
X190594458Y-58736935D01*
X190612980Y-58744463D01*
X190632299Y-58749637D01*
X190634320Y-58753137D01*
X190638064Y-58754659D01*
X190645838Y-58773080D01*
X190655840Y-58790398D01*
X190654794Y-58794301D01*
X190656366Y-58798025D01*
X190648837Y-58816547D01*
X190643664Y-58835866D01*
X190638671Y-58841559D01*
X190638642Y-58841631D01*
X190638588Y-58841653D01*
X190638354Y-58841921D01*
X190379522Y-59100754D01*
X190374841Y-59112056D01*
X190374841Y-59112058D01*
X190352500Y-59165989D01*
X190352500Y-59604200D01*
X190343947Y-59624846D01*
X190336265Y-59645834D01*
X190335030Y-59646376D01*
X190334487Y-59647687D01*
X190293568Y-59665646D01*
X190291679Y-59665724D01*
X190291619Y-59665700D01*
X190191169Y-59665700D01*
X190180463Y-59670134D01*
X190170979Y-59670739D01*
X190170851Y-59670772D01*
X190170848Y-59670773D01*
X190025368Y-59709487D01*
X189968413Y-59724643D01*
X189968411Y-59724643D01*
X189966460Y-59725163D01*
X189966359Y-59724785D01*
X189949849Y-59727500D01*
X184199352Y-59727500D01*
X184155865Y-59709487D01*
X183410513Y-58964135D01*
X183392500Y-58920648D01*
X183392500Y-58453463D01*
X183612500Y-58453463D01*
X183612500Y-58526536D01*
X183631409Y-58597106D01*
X183631411Y-58597111D01*
X183667944Y-58660389D01*
X183719611Y-58712056D01*
X183782889Y-58748589D01*
X183782893Y-58748590D01*
X183853464Y-58767500D01*
X183853466Y-58767500D01*
X183926535Y-58767500D01*
X183974457Y-58754659D01*
X183997111Y-58748589D01*
X184060389Y-58712056D01*
X184112056Y-58660389D01*
X184148589Y-58597111D01*
X184161075Y-58550513D01*
X184167500Y-58526536D01*
X184167500Y-58453463D01*
X184148590Y-58382893D01*
X184148589Y-58382889D01*
X184112056Y-58319611D01*
X184060389Y-58267944D01*
X183997111Y-58231411D01*
X183997106Y-58231409D01*
X183926536Y-58212500D01*
X183926534Y-58212500D01*
X183853466Y-58212500D01*
X183853464Y-58212500D01*
X183782893Y-58231409D01*
X183782888Y-58231411D01*
X183719612Y-58267943D01*
X183719607Y-58267947D01*
X183667947Y-58319607D01*
X183667943Y-58319612D01*
X183631411Y-58382888D01*
X183631409Y-58382893D01*
X183612500Y-58453463D01*
X183392500Y-58453463D01*
X183392500Y-56779352D01*
X183410513Y-56735865D01*
X186000865Y-54145513D01*
X186044352Y-54127500D01*
X186828649Y-54127500D01*
X186844638Y-54129615D01*
X187033825Y-54180551D01*
X187094289Y-54196831D01*
X187098200Y-54197820D01*
X187098884Y-54197982D01*
X187110707Y-54198234D01*
X187125313Y-54200316D01*
X187133462Y-54202499D01*
X187133465Y-54202500D01*
X187133466Y-54202500D01*
X187206535Y-54202500D01*
X187237651Y-54194162D01*
X187277111Y-54183589D01*
X187340389Y-54147056D01*
X187392056Y-54095389D01*
X187392056Y-54095388D01*
X187394906Y-54092539D01*
X187396770Y-54094403D01*
X187430356Y-54074928D01*
X187475845Y-54087023D01*
X187499458Y-54127742D01*
X187500000Y-54135886D01*
X187500000Y-54750000D01*
X192500000Y-54750000D01*
X192500000Y-53134852D01*
X192518013Y-53091365D01*
X192561500Y-53073352D01*
X192604987Y-53091365D01*
G37*
%TD.AperFunction*%
%TA.AperFunction,Conductor*%
G36*
X188253435Y-43420780D02*
G01*
X188381632Y-43435224D01*
X188395058Y-43438288D01*
X188421480Y-43447533D01*
X188513558Y-43479753D01*
X188525954Y-43485722D01*
X188632259Y-43552517D01*
X188643026Y-43561104D01*
X188731795Y-43649872D01*
X188740381Y-43660639D01*
X188807170Y-43766931D01*
X188813145Y-43779337D01*
X188815804Y-43786936D01*
X188854609Y-43897835D01*
X188857673Y-43911260D01*
X188872113Y-44039396D01*
X188872500Y-44046283D01*
X188872500Y-44136429D01*
X188906220Y-44305950D01*
X188906222Y-44305958D01*
X188972370Y-44465654D01*
X188972374Y-44465661D01*
X189068395Y-44609367D01*
X189068400Y-44609373D01*
X189190626Y-44731599D01*
X189190632Y-44731604D01*
X189334338Y-44827625D01*
X189334345Y-44827629D01*
X189334348Y-44827631D01*
X189494043Y-44893778D01*
X189663570Y-44927499D01*
X189663571Y-44927500D01*
X189663574Y-44927500D01*
X190336429Y-44927500D01*
X190336429Y-44927499D01*
X190505957Y-44893778D01*
X190665652Y-44827631D01*
X190809374Y-44731599D01*
X190931599Y-44609374D01*
X191027631Y-44465652D01*
X191093778Y-44305957D01*
X191127499Y-44136429D01*
X191127500Y-44136429D01*
X191127500Y-44046343D01*
X191127887Y-44039457D01*
X191129978Y-44020899D01*
X191142332Y-43911258D01*
X191145393Y-43897844D01*
X191186864Y-43779333D01*
X191192833Y-43766939D01*
X191259628Y-43660637D01*
X191268205Y-43649881D01*
X191356984Y-43561104D01*
X191367740Y-43552525D01*
X191474054Y-43485725D01*
X191486440Y-43479760D01*
X191604943Y-43438294D01*
X191618369Y-43435231D01*
X191746630Y-43420780D01*
X191753516Y-43420393D01*
X191779101Y-43420393D01*
X192435366Y-43420393D01*
X192435368Y-43420394D01*
X192462049Y-43420393D01*
X192466871Y-43420582D01*
X192596133Y-43430752D01*
X192605658Y-43432261D01*
X192729376Y-43461964D01*
X192738542Y-43464942D01*
X192856092Y-43513639D01*
X192864687Y-43518019D01*
X192973156Y-43584499D01*
X192980965Y-43590173D01*
X193079861Y-43674655D01*
X193083401Y-43677928D01*
X193085212Y-43679739D01*
X193101981Y-43696512D01*
X193101987Y-43696513D01*
X193107535Y-43702061D01*
X201224906Y-51819432D01*
X201225116Y-51819603D01*
X201265494Y-51859986D01*
X201371073Y-51936703D01*
X201409054Y-51964302D01*
X201409066Y-51964310D01*
X201409068Y-51964311D01*
X201409073Y-51964314D01*
X201567194Y-52044888D01*
X201567198Y-52044889D01*
X201735977Y-52099734D01*
X201911264Y-52127499D01*
X201962404Y-52127499D01*
X201962408Y-52127500D01*
X201974639Y-52127500D01*
X202000000Y-52127500D01*
X202029101Y-52127500D01*
X204970899Y-52127500D01*
X204996977Y-52127500D01*
X205003005Y-52127796D01*
X205164190Y-52143671D01*
X205176010Y-52146022D01*
X205328098Y-52192157D01*
X205339229Y-52196768D01*
X205428898Y-52244697D01*
X205451469Y-52256762D01*
X205481330Y-52293148D01*
X205476716Y-52339991D01*
X205440330Y-52369852D01*
X205422478Y-52372500D01*
X200437441Y-52372500D01*
X200400252Y-52379898D01*
X200358078Y-52408078D01*
X200329898Y-52450252D01*
X200326399Y-52467844D01*
X200322500Y-52487442D01*
X200322500Y-57512558D01*
X200329898Y-57549748D01*
X200358078Y-57591922D01*
X200400252Y-57620102D01*
X200431270Y-57626272D01*
X200437441Y-57627500D01*
X205422478Y-57627500D01*
X205465965Y-57645513D01*
X205483978Y-57689000D01*
X205465965Y-57732487D01*
X205451469Y-57743238D01*
X205339233Y-57803229D01*
X205328094Y-57807843D01*
X205176012Y-57853976D01*
X205164188Y-57856328D01*
X205003005Y-57872204D01*
X204996977Y-57872500D01*
X202383067Y-57872500D01*
X202382676Y-57872537D01*
X202325474Y-57872537D01*
X202150201Y-57900293D01*
X201981416Y-57955127D01*
X201981409Y-57955130D01*
X201823290Y-58035685D01*
X201679708Y-58139989D01*
X201679699Y-58139996D01*
X201638397Y-58181292D01*
X201634885Y-58184803D01*
X201634884Y-58184804D01*
X201620244Y-58199444D01*
X201616958Y-58202730D01*
X201598715Y-58220968D01*
X201592880Y-58226803D01*
X201592865Y-58226821D01*
X197372197Y-62447490D01*
X193223314Y-66596373D01*
X193223313Y-66596374D01*
X193221030Y-66598657D01*
X193220746Y-66598941D01*
X193220722Y-66598950D01*
X193139982Y-66679693D01*
X193035669Y-66823272D01*
X193035667Y-66823275D01*
X192988209Y-66916420D01*
X192952417Y-66946990D01*
X192933412Y-66950000D01*
X187066557Y-66950000D01*
X187023070Y-66931987D01*
X187011759Y-66916417D01*
X186964316Y-66823292D01*
X186955332Y-66810925D01*
X186860010Y-66679707D01*
X186838294Y-66657988D01*
X186821109Y-66640800D01*
X186821109Y-66640801D01*
X186815197Y-66634888D01*
X186815196Y-66634884D01*
X186794937Y-66614625D01*
X186794673Y-66614361D01*
X186772563Y-66592246D01*
X186772534Y-66592222D01*
X181203887Y-61023575D01*
X188527500Y-61023575D01*
X188527500Y-61124025D01*
X188565941Y-61216830D01*
X188636970Y-61287859D01*
X188729775Y-61326300D01*
X188729776Y-61326300D01*
X188830225Y-61326300D01*
X188836166Y-61325118D01*
X188836212Y-61325352D01*
X188840587Y-61324224D01*
X188840574Y-61324159D01*
X188842111Y-61323831D01*
X188843089Y-61323579D01*
X188843522Y-61323530D01*
X188843526Y-61323529D01*
X188843529Y-61323529D01*
X189045971Y-61280360D01*
X189046200Y-61280275D01*
X189046643Y-61280112D01*
X189047124Y-61280025D01*
X189048101Y-61279743D01*
X189048130Y-61279845D01*
X189067958Y-61276300D01*
X189394448Y-61276300D01*
X189437934Y-61294312D01*
X189642112Y-61498491D01*
X189803108Y-61659487D01*
X189813777Y-61675677D01*
X189814485Y-61675312D01*
X189815867Y-61677985D01*
X189815869Y-61677990D01*
X189868140Y-61758597D01*
X189928526Y-61851716D01*
X189928715Y-61851951D01*
X189929083Y-61852573D01*
X189930198Y-61854293D01*
X189930126Y-61854339D01*
X189932368Y-61858131D01*
X189932575Y-61857993D01*
X189935941Y-61863030D01*
X190006970Y-61934059D01*
X190099775Y-61972500D01*
X190099776Y-61972500D01*
X190200224Y-61972500D01*
X190200225Y-61972500D01*
X190293030Y-61934059D01*
X190364059Y-61863030D01*
X190402500Y-61770225D01*
X190402500Y-61669775D01*
X190364059Y-61576970D01*
X190293030Y-61505941D01*
X190287993Y-61502575D01*
X190288124Y-61502378D01*
X190284231Y-61500080D01*
X190284196Y-61500135D01*
X190282905Y-61499298D01*
X190282014Y-61498772D01*
X190281665Y-61498494D01*
X190281662Y-61498491D01*
X190107990Y-61385869D01*
X190107332Y-61385566D01*
X190106927Y-61385284D01*
X190106057Y-61384805D01*
X190106107Y-61384713D01*
X190089570Y-61373192D01*
X189618505Y-60902127D01*
X189544085Y-60871301D01*
X189544080Y-60871300D01*
X189544079Y-60871300D01*
X189068083Y-60871300D01*
X189049097Y-60867388D01*
X189048854Y-60868155D01*
X189045979Y-60867239D01*
X188900888Y-60836300D01*
X188843461Y-60824055D01*
X188843459Y-60824054D01*
X188843455Y-60824054D01*
X188843155Y-60824021D01*
X188842452Y-60823840D01*
X188840462Y-60823416D01*
X188840479Y-60823333D01*
X188836216Y-60822237D01*
X188836168Y-60822482D01*
X188830225Y-60821300D01*
X188729775Y-60821300D01*
X188729774Y-60821300D01*
X188636969Y-60859741D01*
X188565941Y-60930769D01*
X188532854Y-61010650D01*
X188527500Y-61023575D01*
X181203887Y-61023575D01*
X178412273Y-58231961D01*
X178401064Y-58220750D01*
X178401054Y-58220727D01*
X178320306Y-58139982D01*
X178250933Y-58089581D01*
X178176728Y-58035669D01*
X178176725Y-58035667D01*
X178018593Y-57955098D01*
X177849811Y-57900260D01*
X177732950Y-57881752D01*
X177674521Y-57872499D01*
X177674520Y-57872499D01*
X177585784Y-57872500D01*
X175003023Y-57872500D01*
X174996995Y-57872204D01*
X174835811Y-57856328D01*
X174823987Y-57853976D01*
X174671905Y-57807843D01*
X174660766Y-57803229D01*
X174548531Y-57743238D01*
X174518670Y-57706852D01*
X174523284Y-57660009D01*
X174559670Y-57630148D01*
X174577522Y-57627500D01*
X179562559Y-57627500D01*
X179567851Y-57626447D01*
X179599748Y-57620102D01*
X179641922Y-57591922D01*
X179670102Y-57549748D01*
X179677500Y-57512558D01*
X179677500Y-52487442D01*
X179670102Y-52450252D01*
X179641922Y-52408078D01*
X179599748Y-52379898D01*
X179581153Y-52376199D01*
X179562559Y-52372500D01*
X179562558Y-52372500D01*
X174577522Y-52372500D01*
X174534035Y-52354487D01*
X174516022Y-52311000D01*
X174534035Y-52267513D01*
X174548531Y-52256762D01*
X174558942Y-52251196D01*
X174660773Y-52196766D01*
X174671897Y-52192159D01*
X174823991Y-52146022D01*
X174835807Y-52143671D01*
X174996995Y-52127796D01*
X175003023Y-52127500D01*
X175029101Y-52127500D01*
X177970906Y-52127500D01*
X177970912Y-52127503D01*
X178000013Y-52127500D01*
X178025361Y-52127500D01*
X178031714Y-52127500D01*
X178031902Y-52127479D01*
X178088744Y-52127476D01*
X178264020Y-52099706D01*
X178432797Y-52044866D01*
X178590920Y-51964307D01*
X178734500Y-51860011D01*
X178779322Y-51815199D01*
X178779330Y-51815196D01*
X178798804Y-51795722D01*
X178817831Y-51776701D01*
X178817831Y-51776700D01*
X178823205Y-51771328D01*
X178823233Y-51771291D01*
X180201061Y-50393463D01*
X181772499Y-50393463D01*
X181772499Y-50393465D01*
X181772499Y-50393466D01*
X181772499Y-50466534D01*
X181772499Y-50466536D01*
X181772500Y-50471492D01*
X181772500Y-53116536D01*
X181791409Y-53187106D01*
X181791411Y-53187110D01*
X181791411Y-53187111D01*
X181827944Y-53250389D01*
X181879611Y-53302056D01*
X181942889Y-53338589D01*
X181942893Y-53338590D01*
X182013464Y-53357500D01*
X182013466Y-53357500D01*
X182086535Y-53357500D01*
X182117651Y-53349162D01*
X182157111Y-53338589D01*
X182220389Y-53302056D01*
X182238982Y-53283463D01*
X184302500Y-53283463D01*
X184302500Y-53356536D01*
X184321409Y-53427106D01*
X184321411Y-53427111D01*
X184357944Y-53490389D01*
X184409611Y-53542056D01*
X184472889Y-53578589D01*
X184472893Y-53578590D01*
X184543464Y-53597500D01*
X184543466Y-53597500D01*
X184616535Y-53597500D01*
X184647651Y-53589162D01*
X184687111Y-53578589D01*
X184750389Y-53542056D01*
X184802056Y-53490389D01*
X184838589Y-53427111D01*
X184847759Y-53392888D01*
X184857500Y-53356536D01*
X184857500Y-53283463D01*
X184838590Y-53212893D01*
X184838589Y-53212889D01*
X184802056Y-53149611D01*
X184750389Y-53097944D01*
X184687111Y-53061411D01*
X184687106Y-53061409D01*
X184616536Y-53042500D01*
X184616534Y-53042500D01*
X184543466Y-53042500D01*
X184543464Y-53042500D01*
X184472893Y-53061409D01*
X184472888Y-53061411D01*
X184409612Y-53097943D01*
X184409607Y-53097947D01*
X184357947Y-53149607D01*
X184357943Y-53149612D01*
X184321411Y-53212888D01*
X184321409Y-53212893D01*
X184302500Y-53283463D01*
X182238982Y-53283463D01*
X182272056Y-53250389D01*
X182308589Y-53187111D01*
X182322592Y-53134852D01*
X182327500Y-53116536D01*
X182327500Y-50570418D01*
X182345513Y-50526931D01*
X183420282Y-49452162D01*
X183463769Y-49434149D01*
X184122565Y-49434149D01*
X184692950Y-49434149D01*
X184736437Y-49452162D01*
X184754450Y-49495649D01*
X184736437Y-49539136D01*
X184716485Y-49552468D01*
X184652464Y-49578986D01*
X184581436Y-49650014D01*
X184542995Y-49742819D01*
X184542995Y-49843270D01*
X184581436Y-49936075D01*
X184652464Y-50007104D01*
X184657498Y-50010467D01*
X184657365Y-50010664D01*
X184661262Y-50012963D01*
X184661298Y-50012909D01*
X184662582Y-50013742D01*
X184663481Y-50014272D01*
X184663827Y-50014548D01*
X184663832Y-50014553D01*
X184837504Y-50127175D01*
X184838153Y-50127473D01*
X184838553Y-50127752D01*
X184839437Y-50128239D01*
X184839385Y-50128332D01*
X184855923Y-50139851D01*
X185156224Y-50440152D01*
X185174237Y-50483639D01*
X185156224Y-50527126D01*
X185112737Y-50545139D01*
X184128984Y-50545139D01*
X184109998Y-50541227D01*
X184109755Y-50541994D01*
X184106880Y-50541078D01*
X183961789Y-50510139D01*
X183904362Y-50497894D01*
X183904360Y-50497893D01*
X183904356Y-50497893D01*
X183904056Y-50497860D01*
X183903353Y-50497679D01*
X183901363Y-50497255D01*
X183901380Y-50497172D01*
X183897117Y-50496076D01*
X183897069Y-50496321D01*
X183891126Y-50495139D01*
X183790676Y-50495139D01*
X183790675Y-50495139D01*
X183697870Y-50533580D01*
X183626842Y-50604608D01*
X183588695Y-50696705D01*
X183588401Y-50697414D01*
X183588401Y-50797864D01*
X183626842Y-50890669D01*
X183697871Y-50961698D01*
X183790676Y-51000139D01*
X183790677Y-51000139D01*
X183891126Y-51000139D01*
X183897067Y-50998957D01*
X183897113Y-50999191D01*
X183901488Y-50998063D01*
X183901475Y-50997998D01*
X183903012Y-50997670D01*
X183903990Y-50997418D01*
X183904423Y-50997369D01*
X183904427Y-50997368D01*
X183904430Y-50997368D01*
X184106872Y-50954199D01*
X184107101Y-50954114D01*
X184107544Y-50953951D01*
X184108025Y-50953864D01*
X184109002Y-50953582D01*
X184109031Y-50953684D01*
X184128859Y-50950139D01*
X187838287Y-50950139D01*
X187881774Y-50968152D01*
X189308634Y-52395013D01*
X189326647Y-52438500D01*
X189308634Y-52481987D01*
X189265147Y-52500000D01*
X187952174Y-52500000D01*
X187892619Y-52506403D01*
X187757913Y-52556646D01*
X187757908Y-52556648D01*
X187642811Y-52642811D01*
X187556648Y-52757908D01*
X187556646Y-52757913D01*
X187506403Y-52892619D01*
X187500000Y-52952174D01*
X187500000Y-53714113D01*
X187481987Y-53757600D01*
X187438500Y-53775613D01*
X187395013Y-53757600D01*
X187394782Y-53757337D01*
X187340392Y-53702947D01*
X187340389Y-53702944D01*
X187277111Y-53666411D01*
X187277106Y-53666409D01*
X187206536Y-53647500D01*
X187206534Y-53647500D01*
X187133466Y-53647500D01*
X187133465Y-53647500D01*
X187124100Y-53650009D01*
X187112281Y-53651967D01*
X187094290Y-53653167D01*
X187094288Y-53653168D01*
X186951401Y-53691639D01*
X186847089Y-53719725D01*
X186847086Y-53719726D01*
X186845148Y-53720248D01*
X186845028Y-53719803D01*
X186828757Y-53722500D01*
X185975279Y-53722500D01*
X185894720Y-53722500D01*
X185894719Y-53722500D01*
X185894714Y-53722501D01*
X185820294Y-53753327D01*
X183018327Y-56555294D01*
X182987501Y-56629714D01*
X182987500Y-56629720D01*
X182987500Y-59070279D01*
X182987501Y-59070285D01*
X183018327Y-59144705D01*
X183975294Y-60101672D01*
X184049714Y-60132498D01*
X184049717Y-60132499D01*
X184049720Y-60132500D01*
X184130279Y-60132500D01*
X188302648Y-60132500D01*
X188346135Y-60150513D01*
X188364148Y-60194000D01*
X188346135Y-60237487D01*
X188214135Y-60369487D01*
X188170648Y-60387500D01*
X186681352Y-60387500D01*
X186665363Y-60385385D01*
X186415694Y-60318164D01*
X186411796Y-60317178D01*
X186411082Y-60317009D01*
X186399269Y-60316758D01*
X186384668Y-60314678D01*
X186376537Y-60312500D01*
X186376534Y-60312500D01*
X186303466Y-60312500D01*
X186303464Y-60312500D01*
X186232893Y-60331409D01*
X186232888Y-60331411D01*
X186169612Y-60367943D01*
X186169607Y-60367947D01*
X186117947Y-60419607D01*
X186117943Y-60419612D01*
X186081411Y-60482888D01*
X186081409Y-60482893D01*
X186062500Y-60553463D01*
X186062500Y-60626536D01*
X186081409Y-60697106D01*
X186081411Y-60697111D01*
X186117944Y-60760389D01*
X186169611Y-60812056D01*
X186232889Y-60848589D01*
X186232893Y-60848590D01*
X186303464Y-60867500D01*
X186303466Y-60867500D01*
X186376532Y-60867500D01*
X186376534Y-60867500D01*
X186385901Y-60864989D01*
X186397704Y-60863032D01*
X186415710Y-60861831D01*
X186538217Y-60828847D01*
X186664849Y-60794753D01*
X186664968Y-60795196D01*
X186681243Y-60792500D01*
X188320279Y-60792500D01*
X188320280Y-60792500D01*
X188327303Y-60789591D01*
X188394705Y-60761672D01*
X188394705Y-60761671D01*
X188394707Y-60761671D01*
X188525865Y-60630513D01*
X188569352Y-60612500D01*
X189959082Y-60612500D01*
X190002569Y-60630513D01*
X190020582Y-60674000D01*
X190015901Y-60697535D01*
X189989865Y-60760392D01*
X189989789Y-60760575D01*
X189989789Y-60861025D01*
X190028230Y-60953830D01*
X190099259Y-61024859D01*
X190192064Y-61063300D01*
X190192065Y-61063300D01*
X190292513Y-61063300D01*
X190292514Y-61063300D01*
X190292519Y-61063298D01*
X190360176Y-61035274D01*
X190407246Y-61035273D01*
X190428121Y-61043919D01*
X190492775Y-61070700D01*
X190529000Y-61070700D01*
X190572487Y-61088713D01*
X190590500Y-61132200D01*
X190590500Y-61168425D01*
X190628941Y-61261230D01*
X190699970Y-61332259D01*
X190792775Y-61370700D01*
X190792776Y-61370700D01*
X190874154Y-61370700D01*
X190917641Y-61388713D01*
X190930972Y-61408665D01*
X190958327Y-61474705D01*
X191305294Y-61821672D01*
X191379714Y-61852498D01*
X191379717Y-61852499D01*
X191379720Y-61852500D01*
X191379721Y-61852500D01*
X193160279Y-61852500D01*
X193160280Y-61852500D01*
X193160285Y-61852498D01*
X193192476Y-61839164D01*
X195550369Y-61839164D01*
X195550369Y-61989779D01*
X195589348Y-62135251D01*
X195589349Y-62135253D01*
X195589350Y-62135256D01*
X195664655Y-62265688D01*
X195771153Y-62372186D01*
X195901585Y-62447491D01*
X195901589Y-62447492D01*
X196047062Y-62486472D01*
X196047064Y-62486472D01*
X196197675Y-62486472D01*
X196261817Y-62469284D01*
X196343153Y-62447491D01*
X196473585Y-62372186D01*
X196580083Y-62265688D01*
X196655388Y-62135256D01*
X196670513Y-62078808D01*
X196694369Y-61989779D01*
X196694369Y-61839164D01*
X196655389Y-61693692D01*
X196655388Y-61693688D01*
X196580083Y-61563256D01*
X196473585Y-61456758D01*
X196343153Y-61381453D01*
X196343150Y-61381452D01*
X196343148Y-61381451D01*
X196197676Y-61342472D01*
X196197674Y-61342472D01*
X196047064Y-61342472D01*
X196047062Y-61342472D01*
X195901589Y-61381451D01*
X195901585Y-61381453D01*
X195771154Y-61456757D01*
X195771149Y-61456761D01*
X195664658Y-61563252D01*
X195664654Y-61563257D01*
X195589350Y-61693688D01*
X195589348Y-61693692D01*
X195550369Y-61839164D01*
X193192476Y-61839164D01*
X193234705Y-61821672D01*
X193234705Y-61821671D01*
X193234707Y-61821671D01*
X194071672Y-60984707D01*
X194100255Y-60915700D01*
X194102500Y-60910280D01*
X194102500Y-60839140D01*
X194102653Y-60836978D01*
X194112274Y-60817719D01*
X194120513Y-60797830D01*
X194122654Y-60796943D01*
X194123690Y-60794870D01*
X194144112Y-60788054D01*
X194164000Y-60779817D01*
X194166140Y-60780703D01*
X194168339Y-60779970D01*
X194187597Y-60789591D01*
X194207487Y-60797830D01*
X194209600Y-60800583D01*
X194210447Y-60801007D01*
X194210848Y-60802211D01*
X194217259Y-60810565D01*
X194227814Y-60828847D01*
X194334312Y-60935345D01*
X194464744Y-61010650D01*
X194464748Y-61010651D01*
X194610221Y-61049631D01*
X194610223Y-61049631D01*
X194760834Y-61049631D01*
X194825666Y-61032259D01*
X194906312Y-61010650D01*
X195036744Y-60935345D01*
X195143242Y-60828847D01*
X195218547Y-60698415D01*
X195233672Y-60641967D01*
X195257528Y-60552938D01*
X195257528Y-60402323D01*
X195218548Y-60256851D01*
X195218547Y-60256847D01*
X195143242Y-60126415D01*
X195036744Y-60019917D01*
X194906312Y-59944612D01*
X194906309Y-59944611D01*
X194906307Y-59944610D01*
X194760835Y-59905631D01*
X194760833Y-59905631D01*
X194610223Y-59905631D01*
X194610221Y-59905631D01*
X194464748Y-59944610D01*
X194464744Y-59944612D01*
X194334313Y-60019916D01*
X194334308Y-60019920D01*
X194227817Y-60126411D01*
X194227809Y-60126421D01*
X194217260Y-60144694D01*
X194179917Y-60173348D01*
X194133250Y-60167204D01*
X194104596Y-60129861D01*
X194102500Y-60113944D01*
X194102500Y-59029352D01*
X194120513Y-58985865D01*
X194325865Y-58780513D01*
X194369352Y-58762500D01*
X195496000Y-58762500D01*
X195539487Y-58780513D01*
X195557500Y-58824000D01*
X195557500Y-58900225D01*
X195595941Y-58993030D01*
X195666970Y-59064059D01*
X195759775Y-59102500D01*
X195759776Y-59102500D01*
X195860224Y-59102500D01*
X195860225Y-59102500D01*
X195953030Y-59064059D01*
X196024059Y-58993030D01*
X196062500Y-58900225D01*
X196062500Y-58824000D01*
X196080513Y-58780513D01*
X196124000Y-58762500D01*
X196250648Y-58762500D01*
X196294135Y-58780513D01*
X197755440Y-60241818D01*
X197765251Y-60254619D01*
X197766516Y-60256816D01*
X197766517Y-60256819D01*
X197876074Y-60447106D01*
X197894268Y-60478706D01*
X197896350Y-60482196D01*
X197896721Y-60482797D01*
X197904880Y-60491307D01*
X197913746Y-60503118D01*
X197917942Y-60510387D01*
X197917944Y-60510389D01*
X197969611Y-60562056D01*
X198032889Y-60598589D01*
X198032893Y-60598590D01*
X198103464Y-60617500D01*
X198103466Y-60617500D01*
X198176535Y-60617500D01*
X198218997Y-60606122D01*
X198247111Y-60598589D01*
X198310389Y-60562056D01*
X198362056Y-60510389D01*
X198398589Y-60447111D01*
X198414562Y-60387500D01*
X198417500Y-60376536D01*
X198417500Y-60303463D01*
X198398590Y-60232893D01*
X198398589Y-60232889D01*
X198362056Y-60169611D01*
X198310389Y-60117944D01*
X198301987Y-60113093D01*
X198292250Y-60106124D01*
X198280333Y-60095699D01*
X198278679Y-60094252D01*
X198056819Y-59966517D01*
X198056813Y-59966514D01*
X198055077Y-59965515D01*
X198055305Y-59965118D01*
X198041894Y-59955516D01*
X196723865Y-58637487D01*
X196705852Y-58594000D01*
X196723865Y-58550513D01*
X196767352Y-58532500D01*
X197820648Y-58532500D01*
X197864134Y-58550512D01*
X198299486Y-58985865D01*
X198695440Y-59381819D01*
X198705251Y-59394620D01*
X198706516Y-59396818D01*
X198706517Y-59396819D01*
X198832959Y-59616434D01*
X198834268Y-59618706D01*
X198836350Y-59622196D01*
X198836721Y-59622797D01*
X198844880Y-59631307D01*
X198853746Y-59643118D01*
X198857942Y-59650387D01*
X198857944Y-59650389D01*
X198909611Y-59702056D01*
X198972889Y-59738589D01*
X198972893Y-59738590D01*
X199043464Y-59757500D01*
X199043466Y-59757500D01*
X199116535Y-59757500D01*
X199147651Y-59749162D01*
X199187111Y-59738589D01*
X199250389Y-59702056D01*
X199302056Y-59650389D01*
X199338589Y-59587111D01*
X199345926Y-59559725D01*
X199357500Y-59516536D01*
X199357500Y-59443463D01*
X199338590Y-59372893D01*
X199338589Y-59372889D01*
X199302056Y-59309611D01*
X199250389Y-59257944D01*
X199241987Y-59253093D01*
X199232250Y-59246124D01*
X199218682Y-59234255D01*
X199218683Y-59234255D01*
X199218679Y-59234252D01*
X198996819Y-59106517D01*
X198996815Y-59106515D01*
X198995076Y-59105514D01*
X198995304Y-59105117D01*
X198981893Y-59095515D01*
X198044705Y-58158327D01*
X197970285Y-58127501D01*
X197970280Y-58127500D01*
X194119720Y-58127500D01*
X194119719Y-58127500D01*
X194105648Y-58133329D01*
X194045293Y-58158327D01*
X193555293Y-58648329D01*
X193522487Y-58681135D01*
X193479000Y-58699148D01*
X193435513Y-58681135D01*
X193417500Y-58637648D01*
X193417500Y-58433463D01*
X193398590Y-58362893D01*
X193398589Y-58362889D01*
X193362056Y-58299611D01*
X193310389Y-58247944D01*
X193310387Y-58247942D01*
X193195513Y-58133068D01*
X193177500Y-58089581D01*
X193177500Y-58074352D01*
X193195513Y-58030865D01*
X193795865Y-57430513D01*
X193839352Y-57412500D01*
X196667801Y-57412500D01*
X196711288Y-57430513D01*
X196719398Y-57440536D01*
X196740600Y-57473231D01*
X196778523Y-57531712D01*
X196778715Y-57531951D01*
X196779089Y-57532584D01*
X196780198Y-57534294D01*
X196780127Y-57534339D01*
X196782368Y-57538131D01*
X196782575Y-57537993D01*
X196785941Y-57543030D01*
X196856970Y-57614059D01*
X196949775Y-57652500D01*
X196949776Y-57652500D01*
X197050224Y-57652500D01*
X197050225Y-57652500D01*
X197143030Y-57614059D01*
X197214059Y-57543030D01*
X197220019Y-57528641D01*
X198424051Y-57528641D01*
X198424051Y-57679256D01*
X198463030Y-57824728D01*
X198463031Y-57824730D01*
X198463032Y-57824733D01*
X198538337Y-57955165D01*
X198644835Y-58061663D01*
X198775267Y-58136968D01*
X198775271Y-58136969D01*
X198920744Y-58175949D01*
X198920746Y-58175949D01*
X199071357Y-58175949D01*
X199158917Y-58152487D01*
X199216835Y-58136968D01*
X199347267Y-58061663D01*
X199453765Y-57955165D01*
X199529070Y-57824733D01*
X199555671Y-57725457D01*
X199568051Y-57679256D01*
X199568051Y-57528641D01*
X199529071Y-57383169D01*
X199529070Y-57383165D01*
X199453765Y-57252733D01*
X199347267Y-57146235D01*
X199216835Y-57070930D01*
X199216832Y-57070929D01*
X199216830Y-57070928D01*
X199071358Y-57031949D01*
X199071356Y-57031949D01*
X198920746Y-57031949D01*
X198920744Y-57031949D01*
X198775271Y-57070928D01*
X198775267Y-57070930D01*
X198644836Y-57146234D01*
X198644831Y-57146238D01*
X198538340Y-57252729D01*
X198538336Y-57252734D01*
X198463032Y-57383165D01*
X198463030Y-57383169D01*
X198424051Y-57528641D01*
X197220019Y-57528641D01*
X197252500Y-57450225D01*
X197252500Y-57349775D01*
X197214059Y-57256970D01*
X197143030Y-57185941D01*
X197137993Y-57182575D01*
X197138124Y-57182378D01*
X197134231Y-57180080D01*
X197134196Y-57180135D01*
X197132905Y-57179298D01*
X197132014Y-57178772D01*
X197131665Y-57178494D01*
X197131662Y-57178491D01*
X196957990Y-57065869D01*
X196957986Y-57065867D01*
X196957337Y-57065568D01*
X196956929Y-57065283D01*
X196956047Y-57064798D01*
X196956098Y-57064705D01*
X196939569Y-57053191D01*
X196924705Y-57038327D01*
X196850285Y-57007501D01*
X196850280Y-57007500D01*
X193770279Y-57007500D01*
X193689720Y-57007500D01*
X193689719Y-57007500D01*
X193689714Y-57007501D01*
X193615294Y-57038327D01*
X192901520Y-57752101D01*
X192858033Y-57770114D01*
X192814546Y-57752101D01*
X192720931Y-57658486D01*
X192702918Y-57614999D01*
X192720930Y-57571513D01*
X194786125Y-55506317D01*
X194786130Y-55506314D01*
X194791187Y-55501256D01*
X194791189Y-55501256D01*
X194842856Y-55449589D01*
X194879389Y-55386311D01*
X194896457Y-55322609D01*
X194925111Y-55285269D01*
X194959435Y-55278443D01*
X194959435Y-55277500D01*
X195036535Y-55277500D01*
X195067651Y-55269162D01*
X195107111Y-55258589D01*
X195170389Y-55222056D01*
X195222056Y-55170389D01*
X195258589Y-55107111D01*
X195265926Y-55079725D01*
X195277500Y-55036536D01*
X195277500Y-54963463D01*
X195258590Y-54892893D01*
X195258589Y-54892889D01*
X195222056Y-54829611D01*
X195170389Y-54777944D01*
X195107111Y-54741411D01*
X195107106Y-54741409D01*
X195036536Y-54722500D01*
X195036534Y-54722500D01*
X194963466Y-54722500D01*
X194959800Y-54722500D01*
X194916313Y-54704487D01*
X194898300Y-54661000D01*
X194898300Y-53463463D01*
X196022500Y-53463463D01*
X196022500Y-53536536D01*
X196041409Y-53607106D01*
X196041411Y-53607111D01*
X196077944Y-53670389D01*
X196129611Y-53722056D01*
X196192889Y-53758589D01*
X196192893Y-53758590D01*
X196263464Y-53777500D01*
X196263466Y-53777500D01*
X196336535Y-53777500D01*
X196367651Y-53769162D01*
X196407111Y-53758589D01*
X196470389Y-53722056D01*
X196522056Y-53670389D01*
X196558589Y-53607111D01*
X196569425Y-53566671D01*
X196577500Y-53536536D01*
X196577500Y-53463463D01*
X196558590Y-53392893D01*
X196558589Y-53392889D01*
X196522056Y-53329611D01*
X196470389Y-53277944D01*
X196407111Y-53241411D01*
X196407106Y-53241409D01*
X196336536Y-53222500D01*
X196336534Y-53222500D01*
X196263466Y-53222500D01*
X196263464Y-53222500D01*
X196192893Y-53241409D01*
X196192888Y-53241411D01*
X196129612Y-53277943D01*
X196129607Y-53277947D01*
X196077947Y-53329607D01*
X196077943Y-53329612D01*
X196041411Y-53392888D01*
X196041409Y-53392893D01*
X196022500Y-53463463D01*
X194898300Y-53463463D01*
X194898300Y-52756191D01*
X194898301Y-52756178D01*
X194898301Y-52678157D01*
X194879390Y-52607586D01*
X194879389Y-52607582D01*
X194842856Y-52544304D01*
X194486496Y-52187944D01*
X194423218Y-52151411D01*
X194423213Y-52151409D01*
X194352643Y-52132499D01*
X194352641Y-52132499D01*
X194279573Y-52132499D01*
X194275810Y-52132499D01*
X194275794Y-52132500D01*
X193950418Y-52132500D01*
X193906931Y-52114487D01*
X193495366Y-51702922D01*
X193455907Y-51663463D01*
X195372500Y-51663463D01*
X195372500Y-51736536D01*
X195391409Y-51807106D01*
X195391411Y-51807111D01*
X195427944Y-51870389D01*
X195479611Y-51922056D01*
X195542889Y-51958589D01*
X195542893Y-51958590D01*
X195613464Y-51977500D01*
X195613466Y-51977500D01*
X195686535Y-51977500D01*
X195717651Y-51969162D01*
X195757111Y-51958589D01*
X195820389Y-51922056D01*
X195872056Y-51870389D01*
X195876905Y-51861989D01*
X195883880Y-51852242D01*
X195895747Y-51838679D01*
X195934655Y-51771099D01*
X196024485Y-51615079D01*
X196024894Y-51615314D01*
X196034481Y-51601895D01*
X196281671Y-51354707D01*
X196312500Y-51280280D01*
X196312500Y-51199721D01*
X196312500Y-50879720D01*
X196312500Y-50716167D01*
X196312244Y-50715549D01*
X196281672Y-50641741D01*
X196207914Y-50567983D01*
X196198103Y-50555182D01*
X196196837Y-50552983D01*
X196196836Y-50552980D01*
X196069102Y-50331122D01*
X196067002Y-50327602D01*
X196066632Y-50327003D01*
X196058473Y-50318493D01*
X196049607Y-50306681D01*
X196045414Y-50299417D01*
X196045411Y-50299414D01*
X196045411Y-50299413D01*
X195993744Y-50247746D01*
X195930466Y-50211213D01*
X195930461Y-50211211D01*
X195859891Y-50192302D01*
X195859889Y-50192302D01*
X195786821Y-50192302D01*
X195786819Y-50192302D01*
X195716248Y-50211211D01*
X195716243Y-50211213D01*
X195652967Y-50247745D01*
X195652962Y-50247749D01*
X195601302Y-50299409D01*
X195601298Y-50299414D01*
X195564766Y-50362690D01*
X195564764Y-50362695D01*
X195545855Y-50433265D01*
X195545855Y-50506338D01*
X195564764Y-50576908D01*
X195564766Y-50576913D01*
X195601299Y-50640191D01*
X195601302Y-50640194D01*
X195652963Y-50691856D01*
X195661362Y-50696705D01*
X195671106Y-50703678D01*
X195684675Y-50715549D01*
X195876688Y-50826100D01*
X195905385Y-50863406D01*
X195907500Y-50879395D01*
X195907500Y-51130647D01*
X195889487Y-51174134D01*
X195748179Y-51315441D01*
X195735378Y-51325252D01*
X195511261Y-51454285D01*
X195507639Y-51456449D01*
X195507037Y-51456822D01*
X195498603Y-51464919D01*
X195486769Y-51473810D01*
X195479612Y-51477942D01*
X195427947Y-51529607D01*
X195427943Y-51529612D01*
X195391411Y-51592888D01*
X195391409Y-51592893D01*
X195372500Y-51663463D01*
X193455907Y-51663463D01*
X192365367Y-50572922D01*
X192325908Y-50533463D01*
X193072500Y-50533463D01*
X193072500Y-50606536D01*
X193091409Y-50677106D01*
X193091411Y-50677111D01*
X193127944Y-50740389D01*
X193179611Y-50792056D01*
X193242889Y-50828589D01*
X193242893Y-50828590D01*
X193313464Y-50847500D01*
X193361000Y-50847500D01*
X193404487Y-50865513D01*
X193422500Y-50909000D01*
X193422500Y-50976536D01*
X193441409Y-51047106D01*
X193441411Y-51047111D01*
X193477944Y-51110389D01*
X193529611Y-51162056D01*
X193592889Y-51198589D01*
X193592893Y-51198590D01*
X193663464Y-51217500D01*
X193663466Y-51217500D01*
X193736535Y-51217500D01*
X193767651Y-51209162D01*
X193807111Y-51198589D01*
X193870389Y-51162056D01*
X193922056Y-51110389D01*
X193958589Y-51047111D01*
X193971175Y-51000139D01*
X193977500Y-50976536D01*
X193977500Y-50903463D01*
X193958590Y-50832893D01*
X193958589Y-50832889D01*
X193922056Y-50769611D01*
X193870389Y-50717944D01*
X193807111Y-50681411D01*
X193807106Y-50681409D01*
X193736536Y-50662500D01*
X193736534Y-50662500D01*
X193689000Y-50662500D01*
X193645513Y-50644487D01*
X193627500Y-50601000D01*
X193627500Y-50533463D01*
X193608590Y-50462893D01*
X193608589Y-50462889D01*
X193572056Y-50399611D01*
X193520389Y-50347944D01*
X193457111Y-50311411D01*
X193457106Y-50311409D01*
X193386536Y-50292500D01*
X193386534Y-50292500D01*
X193313466Y-50292500D01*
X193313464Y-50292500D01*
X193242893Y-50311409D01*
X193242888Y-50311411D01*
X193179612Y-50347943D01*
X193179607Y-50347947D01*
X193127947Y-50399607D01*
X193127943Y-50399612D01*
X193091411Y-50462888D01*
X193091409Y-50462893D01*
X193072500Y-50533463D01*
X192325908Y-50533463D01*
X191570392Y-49777947D01*
X191570391Y-49777946D01*
X191570389Y-49777944D01*
X191507111Y-49741411D01*
X191507106Y-49741409D01*
X191436536Y-49722499D01*
X191436534Y-49722499D01*
X191363466Y-49722499D01*
X191363464Y-49722499D01*
X191292893Y-49741409D01*
X191292888Y-49741411D01*
X191229612Y-49777943D01*
X191229607Y-49777947D01*
X191177947Y-49829607D01*
X191177943Y-49829612D01*
X191141411Y-49892888D01*
X191141409Y-49892893D01*
X191122499Y-49963464D01*
X191122499Y-50036535D01*
X191141409Y-50107106D01*
X191141411Y-50107111D01*
X191177944Y-50170389D01*
X191177946Y-50170391D01*
X191177947Y-50170392D01*
X193585791Y-52578235D01*
X193585796Y-52578241D01*
X193587944Y-52580389D01*
X193639611Y-52632056D01*
X193675436Y-52652739D01*
X193704090Y-52690083D01*
X193697947Y-52736750D01*
X193660603Y-52765404D01*
X193644686Y-52767500D01*
X193259353Y-52767500D01*
X193215866Y-52749487D01*
X192394705Y-51928327D01*
X192320285Y-51897501D01*
X192320280Y-51897500D01*
X192320279Y-51897500D01*
X189769353Y-51897500D01*
X189725866Y-51879487D01*
X188164705Y-50318327D01*
X188090285Y-50287501D01*
X188090280Y-50287500D01*
X188090279Y-50287500D01*
X185601802Y-50287500D01*
X185558315Y-50269487D01*
X185142386Y-49853558D01*
X185131732Y-49837368D01*
X185131013Y-49837740D01*
X185129628Y-49835062D01*
X185129625Y-49835054D01*
X185016965Y-49661324D01*
X185016964Y-49661323D01*
X185016963Y-49661321D01*
X185016772Y-49661083D01*
X185016399Y-49660452D01*
X185015296Y-49658751D01*
X185015366Y-49658705D01*
X185013123Y-49654909D01*
X185012917Y-49655048D01*
X185009554Y-49650014D01*
X184938525Y-49578986D01*
X184874505Y-49552468D01*
X184841221Y-49519184D01*
X184841221Y-49472114D01*
X184874505Y-49438830D01*
X184898040Y-49434149D01*
X191863038Y-49434149D01*
X191863054Y-49434150D01*
X191866817Y-49434150D01*
X191939886Y-49434150D01*
X191971000Y-49425812D01*
X192010462Y-49415238D01*
X192073740Y-49378705D01*
X192855325Y-48597117D01*
X192855330Y-48597114D01*
X192860387Y-48592056D01*
X192860389Y-48592056D01*
X192912056Y-48540389D01*
X192948589Y-48477111D01*
X192967501Y-48406534D01*
X192967501Y-48333466D01*
X192967501Y-48333464D01*
X192948590Y-48262893D01*
X192948589Y-48262889D01*
X192912056Y-48199611D01*
X192860389Y-48147944D01*
X192797111Y-48111411D01*
X192797106Y-48111409D01*
X192726536Y-48092499D01*
X192726534Y-48092499D01*
X192653466Y-48092499D01*
X192653464Y-48092499D01*
X192582893Y-48111409D01*
X192582888Y-48111411D01*
X192519612Y-48147943D01*
X192519607Y-48147947D01*
X191806419Y-48861136D01*
X191762932Y-48879149D01*
X183286815Y-48879149D01*
X183216244Y-48898058D01*
X183216239Y-48898060D01*
X183152963Y-48934592D01*
X183152958Y-48934596D01*
X181827947Y-50259607D01*
X181827943Y-50259612D01*
X181791411Y-50322888D01*
X181791409Y-50322893D01*
X181772499Y-50393463D01*
X180201061Y-50393463D01*
X186916877Y-43677648D01*
X186920397Y-43674394D01*
X187019022Y-43590164D01*
X187026812Y-43584505D01*
X187135314Y-43518014D01*
X187143892Y-43513644D01*
X187261452Y-43464946D01*
X187270629Y-43461965D01*
X187394347Y-43432258D01*
X187403873Y-43430749D01*
X187509625Y-43422420D01*
X187532953Y-43420583D01*
X187537782Y-43420393D01*
X188220899Y-43420393D01*
X188246549Y-43420393D01*
X188253435Y-43420780D01*
G37*
%TD.AperFunction*%
%TD*%
%TA.AperFunction,Conductor*%
%TO.N,Net-(U1-DECA)*%
G36*
X189018338Y-60996825D02*
G01*
X189025715Y-61001902D01*
X189027598Y-61008268D01*
X189027598Y-61139331D01*
X189024171Y-61147604D01*
X189018338Y-61150774D01*
X188815896Y-61193943D01*
X188807090Y-61192317D01*
X188802013Y-61184940D01*
X188801999Y-61184872D01*
X188794938Y-61150774D01*
X188779491Y-61076171D01*
X188779491Y-61071428D01*
X188801999Y-60962725D01*
X188807032Y-60955320D01*
X188815828Y-60953642D01*
X189018338Y-60996825D01*
G37*
%TD.AperFunction*%
%TD*%
%TA.AperFunction,Conductor*%
%TO.N,Net-(U1-DECA)*%
G36*
X190035898Y-61497040D02*
G01*
X190209570Y-61609662D01*
X190214647Y-61617039D01*
X190213021Y-61625845D01*
X190212983Y-61625903D01*
X190152037Y-61718682D01*
X190148682Y-61722037D01*
X190055903Y-61782983D01*
X190047107Y-61784661D01*
X190039700Y-61779628D01*
X190039662Y-61779570D01*
X189927040Y-61605898D01*
X189925414Y-61597092D01*
X189928582Y-61591261D01*
X190021260Y-61498583D01*
X190029532Y-61495157D01*
X190035898Y-61497040D01*
G37*
%TD.AperFunction*%
%TD*%
%TA.AperFunction,Conductor*%
%TO.N,/INT2*%
G36*
X195813401Y-51443213D02*
G01*
X195906786Y-51536598D01*
X195910213Y-51544871D01*
X195908653Y-51550709D01*
X195780919Y-51772567D01*
X195773821Y-51778027D01*
X195764941Y-51776869D01*
X195764342Y-51776499D01*
X195651302Y-51702030D01*
X195647969Y-51698697D01*
X195573500Y-51585657D01*
X195571810Y-51576863D01*
X195576833Y-51569450D01*
X195577422Y-51569085D01*
X195799292Y-51441345D01*
X195808170Y-51440188D01*
X195813401Y-51443213D01*
G37*
%TD.AperFunction*%
%TD*%
%TA.AperFunction,Conductor*%
%TO.N,/INT2*%
G36*
X195953904Y-50396635D02*
G01*
X195954274Y-50397234D01*
X196082008Y-50619092D01*
X196083166Y-50627972D01*
X196080141Y-50633203D01*
X195986756Y-50726588D01*
X195978483Y-50730015D01*
X195972645Y-50728455D01*
X195750787Y-50600721D01*
X195745327Y-50593623D01*
X195746485Y-50584743D01*
X195746842Y-50584164D01*
X195821325Y-50471102D01*
X195824655Y-50467772D01*
X195937698Y-50393301D01*
X195946491Y-50391612D01*
X195953904Y-50396635D01*
G37*
%TD.AperFunction*%
%TD*%
%TA.AperFunction,Conductor*%
%TO.N,VDD*%
G36*
X196885898Y-57177040D02*
G01*
X197059570Y-57289662D01*
X197064647Y-57297039D01*
X197063021Y-57305845D01*
X197062983Y-57305903D01*
X197002037Y-57398682D01*
X196998682Y-57402037D01*
X196905903Y-57462983D01*
X196897107Y-57464661D01*
X196889700Y-57459628D01*
X196889662Y-57459570D01*
X196777040Y-57285898D01*
X196775414Y-57277092D01*
X196778582Y-57271261D01*
X196871260Y-57178583D01*
X196879532Y-57175157D01*
X196885898Y-57177040D01*
G37*
%TD.AperFunction*%
%TD*%
%TA.AperFunction,Conductor*%
%TO.N,Net-(J1-SWDIO)*%
G36*
X198930707Y-59221345D02*
G01*
X199095753Y-59316369D01*
X199152567Y-59349080D01*
X199158027Y-59356178D01*
X199156869Y-59365058D01*
X199156499Y-59365657D01*
X199082030Y-59478697D01*
X199078697Y-59482030D01*
X198965657Y-59556499D01*
X198956863Y-59558189D01*
X198949450Y-59553166D01*
X198949080Y-59552567D01*
X198906550Y-59478697D01*
X198821345Y-59330707D01*
X198820188Y-59321829D01*
X198823211Y-59316600D01*
X198916599Y-59223212D01*
X198924871Y-59219786D01*
X198930707Y-59221345D01*
G37*
%TD.AperFunction*%
%TD*%
%TA.AperFunction,Conductor*%
%TO.N,Net-(J1-SWDIO)*%
G36*
X191522086Y-61020661D02*
G01*
X191526869Y-61023835D01*
X191702246Y-61140192D01*
X191707246Y-61147621D01*
X191705527Y-61156409D01*
X191704051Y-61158214D01*
X191611873Y-61250392D01*
X191603600Y-61253819D01*
X191602777Y-61253790D01*
X191431767Y-61241725D01*
X191423755Y-61237724D01*
X191420919Y-61229231D01*
X191421097Y-61227864D01*
X191441838Y-61119860D01*
X191443648Y-61115498D01*
X191505943Y-61023833D01*
X191513427Y-61018918D01*
X191522086Y-61020661D01*
G37*
%TD.AperFunction*%
%TD*%
%TA.AperFunction,Conductor*%
%TO.N,Net-(J1-SWCLK)*%
G36*
X197990707Y-60081345D02*
G01*
X198155753Y-60176369D01*
X198212567Y-60209080D01*
X198218027Y-60216178D01*
X198216869Y-60225058D01*
X198216499Y-60225657D01*
X198142030Y-60338697D01*
X198138697Y-60342030D01*
X198025657Y-60416499D01*
X198016863Y-60418189D01*
X198009450Y-60413166D01*
X198009080Y-60412567D01*
X197966550Y-60338697D01*
X197881345Y-60190707D01*
X197880188Y-60181829D01*
X197883211Y-60176600D01*
X197976599Y-60083212D01*
X197984871Y-60079786D01*
X197990707Y-60081345D01*
G37*
%TD.AperFunction*%
%TD*%
%TA.AperFunction,Conductor*%
%TO.N,Net-(J1-SWCLK)*%
G36*
X191253422Y-60840064D02*
G01*
X191260828Y-60845097D01*
X191262506Y-60853893D01*
X191262340Y-60854586D01*
X191207344Y-61057163D01*
X191201870Y-61064250D01*
X191196053Y-61065798D01*
X191065026Y-61065798D01*
X191056753Y-61062371D01*
X191053464Y-61055890D01*
X191022105Y-60853576D01*
X191024224Y-60844879D01*
X191031294Y-60840330D01*
X191140629Y-60817691D01*
X191145371Y-60817691D01*
X191253422Y-60840064D01*
G37*
%TD.AperFunction*%
%TD*%
%TA.AperFunction,Conductor*%
%TO.N,Net-(U1-P1.00)*%
G36*
X190546971Y-60219271D02*
G01*
X190619911Y-60234115D01*
X190627332Y-60239121D01*
X190629275Y-60245578D01*
X190629275Y-60261652D01*
X190647556Y-60305785D01*
X190648100Y-60313091D01*
X190624096Y-60409420D01*
X190621016Y-60414864D01*
X190587461Y-60448419D01*
X190579188Y-60451846D01*
X190570915Y-60448419D01*
X190479212Y-60356716D01*
X190477379Y-60354339D01*
X190444442Y-60297880D01*
X190443233Y-60289007D01*
X190447970Y-60282309D01*
X190538088Y-60221064D01*
X190546856Y-60219249D01*
X190546971Y-60219271D01*
G37*
%TD.AperFunction*%
%TD*%
%TA.AperFunction,Conductor*%
%TO.N,Net-(U1-P1.00)*%
G36*
X192314008Y-58343110D02*
G01*
X192318456Y-58348870D01*
X192360369Y-58466876D01*
X192384454Y-58534686D01*
X192383994Y-58543629D01*
X192377345Y-58549627D01*
X192373429Y-58550302D01*
X192292734Y-58550302D01*
X192287547Y-58549089D01*
X192276507Y-58543629D01*
X192134945Y-58473615D01*
X192129049Y-58466876D01*
X192129645Y-58457941D01*
X192130371Y-58456677D01*
X192189779Y-58366911D01*
X192197202Y-58361904D01*
X192197319Y-58361880D01*
X192305241Y-58341294D01*
X192314008Y-58343110D01*
G37*
%TD.AperFunction*%
%TD*%
%TA.AperFunction,Conductor*%
%TO.N,Net-(U1-P1.01)*%
G36*
X191273372Y-58300881D02*
G01*
X191274486Y-58301527D01*
X191366184Y-58361764D01*
X191369537Y-58365117D01*
X191429771Y-58456812D01*
X191431449Y-58465608D01*
X191426416Y-58473015D01*
X191425301Y-58473662D01*
X191235350Y-58570377D01*
X191226422Y-58571077D01*
X191221768Y-58568224D01*
X191163075Y-58509531D01*
X191159648Y-58501258D01*
X191160920Y-58495953D01*
X191257637Y-58305997D01*
X191264444Y-58300181D01*
X191273372Y-58300881D01*
G37*
%TD.AperFunction*%
%TD*%
%TA.AperFunction,Conductor*%
%TO.N,Net-(U1-P1.01)*%
G36*
X190580202Y-59674029D02*
G01*
X190582866Y-59678147D01*
X190642211Y-59834367D01*
X190642084Y-59842999D01*
X190634462Y-59861399D01*
X190628601Y-59875552D01*
X190628600Y-59875554D01*
X190628600Y-59891782D01*
X190625173Y-59900055D01*
X190619272Y-59903239D01*
X190544569Y-59918708D01*
X190539825Y-59918708D01*
X190465122Y-59903239D01*
X190457715Y-59898206D01*
X190455794Y-59891782D01*
X190455794Y-59875554D01*
X190455794Y-59875553D01*
X190438414Y-59833596D01*
X190437930Y-59826070D01*
X190477661Y-59679246D01*
X190483130Y-59672155D01*
X190488955Y-59670602D01*
X190571929Y-59670602D01*
X190580202Y-59674029D01*
G37*
%TD.AperFunction*%
%TD*%
%TA.AperFunction,Conductor*%
%TO.N,/PDM_DATA*%
G36*
X194167617Y-52827270D02*
G01*
X194173077Y-52834368D01*
X194173239Y-52835052D01*
X194200515Y-52967642D01*
X194200515Y-52972358D01*
X194173239Y-53104947D01*
X194168215Y-53112359D01*
X194159421Y-53114049D01*
X194158737Y-53113887D01*
X193911540Y-53047331D01*
X193904442Y-53041871D01*
X193902882Y-53036033D01*
X193902882Y-52903966D01*
X193906309Y-52895693D01*
X193911537Y-52892669D01*
X194158738Y-52826112D01*
X194167617Y-52827270D01*
G37*
%TD.AperFunction*%
%TD*%
%TA.AperFunction,Conductor*%
%TO.N,/PDM_DATA*%
G36*
X184905794Y-49733416D02*
G01*
X184905832Y-49733474D01*
X185018454Y-49907146D01*
X185020080Y-49915952D01*
X185016910Y-49921785D01*
X184924235Y-50014460D01*
X184915962Y-50017887D01*
X184909596Y-50016004D01*
X184735924Y-49903382D01*
X184730847Y-49896005D01*
X184732472Y-49887200D01*
X184793461Y-49794357D01*
X184796807Y-49791011D01*
X184889592Y-49730060D01*
X184898387Y-49728383D01*
X184905794Y-49733416D01*
G37*
%TD.AperFunction*%
%TD*%
%TA.AperFunction,Conductor*%
%TO.N,/PDM_CLK*%
G36*
X184079239Y-50670664D02*
G01*
X184086616Y-50675741D01*
X184088499Y-50682107D01*
X184088499Y-50813170D01*
X184085072Y-50821443D01*
X184079239Y-50824613D01*
X183876797Y-50867782D01*
X183867991Y-50866156D01*
X183862914Y-50858779D01*
X183862900Y-50858711D01*
X183855839Y-50824613D01*
X183840392Y-50750010D01*
X183840392Y-50745267D01*
X183862900Y-50636564D01*
X183867933Y-50629159D01*
X183876729Y-50627481D01*
X184079239Y-50670664D01*
G37*
%TD.AperFunction*%
%TD*%
%TA.AperFunction,Conductor*%
%TO.N,/PDM_CLK*%
G36*
X194162617Y-53252270D02*
G01*
X194168077Y-53259368D01*
X194168239Y-53260052D01*
X194195515Y-53392642D01*
X194195515Y-53397358D01*
X194168239Y-53529947D01*
X194163215Y-53537359D01*
X194154421Y-53539049D01*
X194153737Y-53538887D01*
X193906540Y-53472331D01*
X193899442Y-53466871D01*
X193897882Y-53461033D01*
X193897882Y-53328966D01*
X193901309Y-53320693D01*
X193906537Y-53317669D01*
X194153738Y-53251112D01*
X194162617Y-53252270D01*
G37*
%TD.AperFunction*%
%TD*%
%TA.AperFunction,Conductor*%
%TO.N,/BUTTON0*%
G36*
X190213926Y-59799968D02*
G01*
X190219366Y-59807081D01*
X190219516Y-59807718D01*
X190241902Y-59915828D01*
X190241902Y-59920572D01*
X190219275Y-60029847D01*
X190214242Y-60037254D01*
X190205965Y-60039027D01*
X190003643Y-60006579D01*
X189996017Y-60001886D01*
X189993796Y-59995027D01*
X189993796Y-59863994D01*
X189997223Y-59855721D01*
X190002486Y-59852687D01*
X190205052Y-59798783D01*
X190213926Y-59799968D01*
G37*
%TD.AperFunction*%
%TD*%
%TA.AperFunction,Conductor*%
%TO.N,/BUTTON0*%
G36*
X187137617Y-53782270D02*
G01*
X187143077Y-53789368D01*
X187143239Y-53790052D01*
X187170515Y-53922642D01*
X187170515Y-53927358D01*
X187143239Y-54059947D01*
X187138215Y-54067359D01*
X187129421Y-54069049D01*
X187128737Y-54068887D01*
X186881540Y-54002331D01*
X186874442Y-53996871D01*
X186872882Y-53991033D01*
X186872882Y-53858966D01*
X186876309Y-53850693D01*
X186881537Y-53847669D01*
X187128738Y-53781112D01*
X187137617Y-53782270D01*
G37*
%TD.AperFunction*%
%TD*%
%TA.AperFunction,Conductor*%
%TO.N,/LSW*%
G36*
X190515889Y-60572999D02*
G01*
X190525099Y-60582209D01*
X190541064Y-60598175D01*
X190541065Y-60598175D01*
X190541068Y-60598178D01*
X190561220Y-60606525D01*
X190569674Y-60610027D01*
X190575511Y-60615315D01*
X190641966Y-60739473D01*
X190642849Y-60748384D01*
X190638227Y-60754671D01*
X190547784Y-60816135D01*
X190539016Y-60817951D01*
X190538875Y-60817923D01*
X190466056Y-60803104D01*
X190458632Y-60798096D01*
X190456689Y-60791639D01*
X190456689Y-60768154D01*
X190456689Y-60768153D01*
X190426619Y-60695560D01*
X190425745Y-60690484D01*
X190427906Y-60648691D01*
X190431316Y-60641026D01*
X190499344Y-60572998D01*
X190507616Y-60569572D01*
X190515889Y-60572999D01*
G37*
%TD.AperFunction*%
%TD*%
%TA.AperFunction,Conductor*%
%TO.N,/LSW*%
G36*
X186381250Y-60446109D02*
G01*
X186628461Y-60512669D01*
X186635558Y-60518128D01*
X186637118Y-60523966D01*
X186637118Y-60656033D01*
X186633691Y-60664306D01*
X186628460Y-60667331D01*
X186381262Y-60733887D01*
X186372382Y-60732729D01*
X186366922Y-60725631D01*
X186366760Y-60724947D01*
X186339484Y-60592352D01*
X186339484Y-60587647D01*
X186366760Y-60455050D01*
X186371784Y-60447640D01*
X186380578Y-60445950D01*
X186381250Y-60446109D01*
G37*
%TD.AperFunction*%
%TD*%
M02*
