%TF.GenerationSoftware,KiCad,Pcbnew,8.99.0-unknown-ce20689caf~181~ubuntu24.04.1*%
%TF.CreationDate,2024-12-05T10:04:36-05:00*%
%TF.ProjectId,nRF54L15_nPM2100_CR2032,6e524635-344c-4313-955f-6e504d323130,rev?*%
%TF.SameCoordinates,Original*%
%TF.FileFunction,Soldermask,Top*%
%TF.FilePolarity,Negative*%
%FSLAX46Y46*%
G04 Gerber Fmt 4.6, Leading zero omitted, Abs format (unit mm)*
G04 Created by KiCad (PCBNEW 8.99.0-unknown-ce20689caf~181~ubuntu24.04.1) date 2024-12-05 10:04:36*
%MOMM*%
%LPD*%
G01*
G04 APERTURE LIST*
G04 Aperture macros list*
%AMRoundRect*
0 Rectangle with rounded corners*
0 $1 Rounding radius*
0 $2 $3 $4 $5 $6 $7 $8 $9 X,Y pos of 4 corners*
0 Add a 4 corners polygon primitive as box body*
4,1,4,$2,$3,$4,$5,$6,$7,$8,$9,$2,$3,0*
0 Add four circle primitives for the rounded corners*
1,1,$1+$1,$2,$3*
1,1,$1+$1,$4,$5*
1,1,$1+$1,$6,$7*
1,1,$1+$1,$8,$9*
0 Add four rect primitives between the rounded corners*
20,1,$1+$1,$2,$3,$4,$5,0*
20,1,$1+$1,$4,$5,$6,$7,0*
20,1,$1+$1,$6,$7,$8,$9,0*
20,1,$1+$1,$8,$9,$2,$3,0*%
%AMFreePoly0*
4,1,23,0.500000,-0.750000,0.000000,-0.750000,0.000000,-0.745722,-0.065263,-0.745722,-0.191342,-0.711940,-0.304381,-0.646677,-0.396677,-0.554381,-0.461940,-0.441342,-0.495722,-0.315263,-0.495722,-0.250000,-0.500000,-0.250000,-0.500000,0.250000,-0.495722,0.250000,-0.495722,0.315263,-0.461940,0.441342,-0.396677,0.554381,-0.304381,0.646677,-0.191342,0.711940,-0.065263,0.745722,0.000000,0.745722,
0.000000,0.750000,0.500000,0.750000,0.500000,-0.750000,0.500000,-0.750000,$1*%
%AMFreePoly1*
4,1,23,0.000000,0.745722,0.065263,0.745722,0.191342,0.711940,0.304381,0.646677,0.396677,0.554381,0.461940,0.441342,0.495722,0.315263,0.495722,0.250000,0.500000,0.250000,0.500000,-0.250000,0.495722,-0.250000,0.495722,-0.315263,0.461940,-0.441342,0.396677,-0.554381,0.304381,-0.646677,0.191342,-0.711940,0.065263,-0.745722,0.000000,-0.745722,0.000000,-0.750000,-0.500000,-0.750000,
-0.500000,0.750000,0.000000,0.750000,0.000000,0.745722,0.000000,0.745722,$1*%
G04 Aperture macros list end*
%ADD10C,0.200000*%
%ADD11C,0.170000*%
%ADD12RoundRect,0.100000X0.130000X0.100000X-0.130000X0.100000X-0.130000X-0.100000X0.130000X-0.100000X0*%
%ADD13RoundRect,0.100000X-0.100000X0.130000X-0.100000X-0.130000X0.100000X-0.130000X0.100000X0.130000X0*%
%ADD14RoundRect,0.100000X0.021213X0.162635X-0.162635X-0.021213X-0.021213X-0.162635X0.162635X0.021213X0*%
%ADD15RoundRect,0.135000X0.135000X0.185000X-0.135000X0.185000X-0.135000X-0.185000X0.135000X-0.185000X0*%
%ADD16RoundRect,0.147500X-0.147500X-0.172500X0.147500X-0.172500X0.147500X0.172500X-0.147500X0.172500X0*%
%ADD17C,1.000000*%
%ADD18RoundRect,0.100000X0.100000X-0.130000X0.100000X0.130000X-0.100000X0.130000X-0.100000X-0.130000X0*%
%ADD19C,0.150000*%
%ADD20RoundRect,0.140000X0.140000X0.170000X-0.140000X0.170000X-0.140000X-0.170000X0.140000X-0.170000X0*%
%ADD21RoundRect,0.100000X-0.162635X0.021213X0.021213X-0.162635X0.162635X-0.021213X-0.021213X0.162635X0*%
%ADD22RoundRect,0.075000X0.175000X0.575000X-0.175000X0.575000X-0.175000X-0.575000X0.175000X-0.575000X0*%
%ADD23RoundRect,0.150000X0.350000X0.350000X-0.350000X0.350000X-0.350000X-0.350000X0.350000X-0.350000X0*%
%ADD24R,0.575000X1.114000*%
%ADD25RoundRect,0.100000X-0.130000X-0.100000X0.130000X-0.100000X0.130000X0.100000X-0.130000X0.100000X0*%
%ADD26RoundRect,0.250000X-0.375000X-0.625000X0.375000X-0.625000X0.375000X0.625000X-0.375000X0.625000X0*%
%ADD27RoundRect,0.033000X-0.021213X-0.207889X0.207889X0.021213X0.021213X0.207889X-0.207889X-0.021213X0*%
%ADD28RoundRect,0.033000X0.021213X-0.207889X0.207889X-0.021213X-0.021213X0.207889X-0.207889X0.021213X0*%
%ADD29R,0.250000X0.400000*%
%ADD30R,0.700000X0.400000*%
%ADD31C,0.787400*%
%ADD32RoundRect,0.100000X0.162635X-0.021213X-0.021213X0.162635X-0.162635X0.021213X0.021213X-0.162635X0*%
%ADD33FreePoly0,0.000000*%
%ADD34FreePoly1,0.000000*%
%ADD35R,1.050000X0.650000*%
%ADD36RoundRect,0.060000X-0.392444X-0.194454X-0.194454X-0.392444X0.392444X0.194454X0.194454X0.392444X0*%
%ADD37RoundRect,0.052500X0.689429X0.862670X-0.862670X-0.689429X-0.689429X-0.862670X0.862670X0.689429X0*%
%ADD38RoundRect,0.052500X0.509117X-0.335876X-0.335876X0.509117X-0.509117X0.335876X0.335876X-0.509117X0*%
%ADD39RoundRect,0.135000X-0.185000X0.135000X-0.185000X-0.135000X0.185000X-0.135000X0.185000X0.135000X0*%
%ADD40RoundRect,0.100000X-0.100000X0.225000X-0.100000X-0.225000X0.100000X-0.225000X0.100000X0.225000X0*%
G04 APERTURE END LIST*
D10*
X203066667Y-53427763D02*
X203066667Y-52627763D01*
X203066667Y-53008715D02*
X203523810Y-53008715D01*
X203523810Y-53427763D02*
X203523810Y-52627763D01*
X203904762Y-53351572D02*
X203942857Y-53389668D01*
X203942857Y-53389668D02*
X203904762Y-53427763D01*
X203904762Y-53427763D02*
X203866666Y-53389668D01*
X203866666Y-53389668D02*
X203904762Y-53351572D01*
X203904762Y-53351572D02*
X203904762Y-53427763D01*
X204666666Y-53427763D02*
X204285714Y-53427763D01*
X204285714Y-53427763D02*
X204285714Y-52627763D01*
X204933333Y-53351572D02*
X204971428Y-53389668D01*
X204971428Y-53389668D02*
X204933333Y-53427763D01*
X204933333Y-53427763D02*
X204895237Y-53389668D01*
X204895237Y-53389668D02*
X204933333Y-53351572D01*
X204933333Y-53351572D02*
X204933333Y-53427763D01*
X203009524Y-54487146D02*
X203390477Y-54487146D01*
X202933334Y-54715718D02*
X203200001Y-53915718D01*
X203200001Y-53915718D02*
X203466667Y-54715718D01*
X203733334Y-54639527D02*
X203771429Y-54677623D01*
X203771429Y-54677623D02*
X203733334Y-54715718D01*
X203733334Y-54715718D02*
X203695238Y-54677623D01*
X203695238Y-54677623D02*
X203733334Y-54639527D01*
X203733334Y-54639527D02*
X203733334Y-54715718D01*
X204114286Y-54715718D02*
X204114286Y-53915718D01*
X204114286Y-54296670D02*
X204571429Y-54296670D01*
X204571429Y-54715718D02*
X204571429Y-53915718D01*
X204952381Y-54639527D02*
X204990476Y-54677623D01*
X204990476Y-54677623D02*
X204952381Y-54715718D01*
X204952381Y-54715718D02*
X204914285Y-54677623D01*
X204914285Y-54677623D02*
X204952381Y-54639527D01*
X204952381Y-54639527D02*
X204952381Y-54715718D01*
X202952381Y-56003673D02*
X202952381Y-55203673D01*
X202952381Y-55203673D02*
X203219047Y-55775101D01*
X203219047Y-55775101D02*
X203485714Y-55203673D01*
X203485714Y-55203673D02*
X203485714Y-56003673D01*
X203866667Y-55927482D02*
X203904762Y-55965578D01*
X203904762Y-55965578D02*
X203866667Y-56003673D01*
X203866667Y-56003673D02*
X203828571Y-55965578D01*
X203828571Y-55965578D02*
X203866667Y-55927482D01*
X203866667Y-55927482D02*
X203866667Y-56003673D01*
X204666666Y-55241768D02*
X204590476Y-55203673D01*
X204590476Y-55203673D02*
X204476190Y-55203673D01*
X204476190Y-55203673D02*
X204361904Y-55241768D01*
X204361904Y-55241768D02*
X204285714Y-55317958D01*
X204285714Y-55317958D02*
X204247619Y-55394149D01*
X204247619Y-55394149D02*
X204209523Y-55546530D01*
X204209523Y-55546530D02*
X204209523Y-55660816D01*
X204209523Y-55660816D02*
X204247619Y-55813197D01*
X204247619Y-55813197D02*
X204285714Y-55889387D01*
X204285714Y-55889387D02*
X204361904Y-55965578D01*
X204361904Y-55965578D02*
X204476190Y-56003673D01*
X204476190Y-56003673D02*
X204552381Y-56003673D01*
X204552381Y-56003673D02*
X204666666Y-55965578D01*
X204666666Y-55965578D02*
X204704762Y-55927482D01*
X204704762Y-55927482D02*
X204704762Y-55660816D01*
X204704762Y-55660816D02*
X204552381Y-55660816D01*
X205047619Y-55927482D02*
X205085714Y-55965578D01*
X205085714Y-55965578D02*
X205047619Y-56003673D01*
X205047619Y-56003673D02*
X205009523Y-55965578D01*
X205009523Y-55965578D02*
X205047619Y-55927482D01*
X205047619Y-55927482D02*
X205047619Y-56003673D01*
X203428571Y-56529723D02*
X203352381Y-56491628D01*
X203352381Y-56491628D02*
X203238095Y-56491628D01*
X203238095Y-56491628D02*
X203123809Y-56529723D01*
X203123809Y-56529723D02*
X203047619Y-56605913D01*
X203047619Y-56605913D02*
X203009524Y-56682104D01*
X203009524Y-56682104D02*
X202971428Y-56834485D01*
X202971428Y-56834485D02*
X202971428Y-56948771D01*
X202971428Y-56948771D02*
X203009524Y-57101152D01*
X203009524Y-57101152D02*
X203047619Y-57177342D01*
X203047619Y-57177342D02*
X203123809Y-57253533D01*
X203123809Y-57253533D02*
X203238095Y-57291628D01*
X203238095Y-57291628D02*
X203314286Y-57291628D01*
X203314286Y-57291628D02*
X203428571Y-57253533D01*
X203428571Y-57253533D02*
X203466667Y-57215437D01*
X203466667Y-57215437D02*
X203466667Y-56948771D01*
X203466667Y-56948771D02*
X203314286Y-56948771D01*
X203809524Y-57215437D02*
X203847619Y-57253533D01*
X203847619Y-57253533D02*
X203809524Y-57291628D01*
X203809524Y-57291628D02*
X203771428Y-57253533D01*
X203771428Y-57253533D02*
X203809524Y-57215437D01*
X203809524Y-57215437D02*
X203809524Y-57291628D01*
X204647619Y-57215437D02*
X204609523Y-57253533D01*
X204609523Y-57253533D02*
X204495238Y-57291628D01*
X204495238Y-57291628D02*
X204419047Y-57291628D01*
X204419047Y-57291628D02*
X204304761Y-57253533D01*
X204304761Y-57253533D02*
X204228571Y-57177342D01*
X204228571Y-57177342D02*
X204190476Y-57101152D01*
X204190476Y-57101152D02*
X204152380Y-56948771D01*
X204152380Y-56948771D02*
X204152380Y-56834485D01*
X204152380Y-56834485D02*
X204190476Y-56682104D01*
X204190476Y-56682104D02*
X204228571Y-56605913D01*
X204228571Y-56605913D02*
X204304761Y-56529723D01*
X204304761Y-56529723D02*
X204419047Y-56491628D01*
X204419047Y-56491628D02*
X204495238Y-56491628D01*
X204495238Y-56491628D02*
X204609523Y-56529723D01*
X204609523Y-56529723D02*
X204647619Y-56567818D01*
X204990476Y-57215437D02*
X205028571Y-57253533D01*
X205028571Y-57253533D02*
X204990476Y-57291628D01*
X204990476Y-57291628D02*
X204952380Y-57253533D01*
X204952380Y-57253533D02*
X204990476Y-57215437D01*
X204990476Y-57215437D02*
X204990476Y-57291628D01*
D11*
%TO.C,U1*%
X189943000Y-61418200D03*
X189943000Y-61118200D03*
X189943000Y-60818200D03*
X189943000Y-60518200D03*
X189943000Y-60218200D03*
X189943000Y-59918200D03*
X189943000Y-59618200D03*
X190243000Y-61418200D03*
X190243000Y-60818200D03*
X190243000Y-60518200D03*
X190243000Y-60218200D03*
X190243000Y-59918200D03*
X190243000Y-59618200D03*
X190543000Y-61118200D03*
X190543000Y-60818200D03*
X190543000Y-60518200D03*
X190543000Y-60218200D03*
X190543000Y-59918200D03*
X190543000Y-59618200D03*
X190843000Y-61418200D03*
X190843000Y-61118200D03*
X190843000Y-60818200D03*
X190843000Y-60518200D03*
X190843000Y-60218200D03*
X190843000Y-59918200D03*
X190843000Y-59618200D03*
X191143000Y-61418200D03*
X191143000Y-61118200D03*
X191143000Y-60818200D03*
X191143000Y-60518200D03*
X191143000Y-60218200D03*
X191143000Y-59918200D03*
X191143000Y-59618200D03*
X191443000Y-61418200D03*
X191443000Y-61118200D03*
X191443000Y-60818200D03*
X191443000Y-60518200D03*
X191443000Y-60218200D03*
X191443000Y-59918200D03*
X191443000Y-59618200D03*
X191743000Y-61418200D03*
X191743000Y-61118200D03*
X191743000Y-60818200D03*
X191743000Y-60518200D03*
X191743000Y-60218200D03*
X191743000Y-59918200D03*
X191743000Y-59618200D03*
%TD*%
D12*
%TO.C,L6*%
X190830000Y-67360000D03*
X190190000Y-67360000D03*
%TD*%
D13*
%TO.C,C12*%
X188430000Y-61063800D03*
X188430000Y-61703800D03*
%TD*%
D12*
%TO.C,L7*%
X188720000Y-67360000D03*
X188080000Y-67360000D03*
%TD*%
D14*
%TO.C,C16*%
X193486274Y-48833726D03*
X193033726Y-49286274D03*
%TD*%
D15*
%TO.C,JP2*%
X193810000Y-47530000D03*
X192790000Y-47530000D03*
%TD*%
D13*
%TO.C,L4*%
X190830000Y-65950000D03*
X190830000Y-66590000D03*
%TD*%
D16*
%TO.C,L1*%
X188065000Y-58823800D03*
X189035000Y-58823800D03*
%TD*%
D17*
%TO.C,TP2*%
X197000000Y-55000000D03*
%TD*%
D18*
%TO.C,C1*%
X189130000Y-60313800D03*
X189130000Y-59673800D03*
%TD*%
D19*
%TO.C,Y2*%
X188905000Y-62618800D03*
X188655000Y-62618800D03*
X188655000Y-62368800D03*
X188905000Y-62368800D03*
%TD*%
D20*
%TO.C,C10*%
X190400000Y-57830000D03*
X189440000Y-57830000D03*
%TD*%
D15*
%TO.C,JP3*%
X193810000Y-46590000D03*
X192790000Y-46590000D03*
%TD*%
D21*
%TO.C,C15*%
X196173726Y-48753726D03*
X196626274Y-49206274D03*
%TD*%
D12*
%TO.C,C11*%
X190500000Y-58813800D03*
X189860000Y-58813800D03*
%TD*%
D13*
%TO.C,R3*%
X184590000Y-57850000D03*
X184590000Y-58490000D03*
%TD*%
D22*
%TO.C,AE1*%
X189630000Y-69800000D03*
D23*
X188080000Y-69800000D03*
%TD*%
D12*
%TO.C,C4*%
X182050000Y-53080000D03*
X181410000Y-53080000D03*
%TD*%
D17*
%TO.C,TP1*%
X195000000Y-55000000D03*
%TD*%
D24*
%TO.C,Y1*%
X191367500Y-58363800D03*
X192192500Y-58363800D03*
%TD*%
D25*
%TO.C,C3*%
X180760000Y-57050000D03*
X181400000Y-57050000D03*
%TD*%
D15*
%TO.C,R4*%
X184580000Y-53320000D03*
X183560000Y-53320000D03*
%TD*%
D13*
%TO.C,C2*%
X187730000Y-61063800D03*
X187730000Y-61703800D03*
%TD*%
D26*
%TO.C,D1*%
X188600000Y-50000000D03*
X191400000Y-50000000D03*
%TD*%
D25*
%TO.C,FB1*%
X187760000Y-60313800D03*
X188400000Y-60313800D03*
%TD*%
D27*
%TO.C,U3*%
X193861558Y-50077782D03*
X194215111Y-50431335D03*
X194568665Y-50784889D03*
X194922218Y-51138442D03*
D28*
X195469802Y-50823355D03*
X195823355Y-50469802D03*
D27*
X196138442Y-49922218D03*
X195784889Y-49568665D03*
X195431335Y-49215111D03*
X195077782Y-48861558D03*
D28*
X194530198Y-49176645D03*
X194176645Y-49530198D03*
%TD*%
D29*
%TO.C,Q1*%
X185625000Y-52350000D03*
X186075000Y-52350000D03*
D30*
X185850000Y-51650000D03*
%TD*%
D31*
%TO.C,J1*%
X197649013Y-58052962D03*
X198547038Y-58950987D03*
X196750987Y-58950987D03*
X197649013Y-59849013D03*
X195852962Y-59849013D03*
X196750987Y-60747038D03*
%TD*%
D32*
%TO.C,C17*%
X195586274Y-48156274D03*
X195133726Y-47703726D03*
%TD*%
D18*
%TO.C,C8*%
X192557697Y-60990000D03*
X192557697Y-60350000D03*
%TD*%
D13*
%TO.C,L2*%
X190830000Y-62350000D03*
X190830000Y-62990000D03*
%TD*%
D21*
%TO.C,C20*%
X185653726Y-47873726D03*
X186106274Y-48326274D03*
%TD*%
D18*
%TO.C,L18*%
X189450000Y-67360000D03*
X189450000Y-66720000D03*
%TD*%
D33*
%TO.C,JP1*%
X177050000Y-55100000D03*
D34*
X178349998Y-55100000D03*
%TD*%
D13*
%TO.C,R2*%
X183890000Y-57850000D03*
X183890000Y-58490000D03*
%TD*%
D35*
%TO.C,SW1*%
X187925000Y-53925000D03*
X192075000Y-53925000D03*
X187925000Y-56075000D03*
X192050000Y-56075000D03*
%TD*%
D12*
%TO.C,C6*%
X190830000Y-63570000D03*
X190190000Y-63570000D03*
%TD*%
%TO.C,C9*%
X190830000Y-65370000D03*
X190190000Y-65370000D03*
%TD*%
D13*
%TO.C,L3*%
X190830000Y-64150000D03*
X190830000Y-64790000D03*
%TD*%
D36*
%TO.C,MK1*%
X184159099Y-49156649D03*
X183204505Y-50111243D03*
X183840901Y-50747639D03*
X184795495Y-49793045D03*
D37*
X183133794Y-49085938D03*
D38*
X185219759Y-48732385D03*
X182780241Y-51171903D03*
D37*
X184866206Y-50818350D03*
%TD*%
D39*
%TO.C,R1*%
X187000000Y-51490000D03*
X187000000Y-52510000D03*
%TD*%
D13*
%TO.C,C5*%
X189130000Y-61073800D03*
X189130000Y-61713800D03*
%TD*%
D40*
%TO.C,U2*%
X182050000Y-54150000D03*
X181400000Y-54150000D03*
X180750000Y-54150000D03*
X180750000Y-56050000D03*
X181400000Y-56050000D03*
X182050000Y-56050000D03*
%TD*%
M02*
