%TF.GenerationSoftware,KiCad,Pcbnew,8.99.0-unknown-ce20689caf~181~ubuntu24.04.1*%
%TF.CreationDate,2024-12-05T10:04:36-05:00*%
%TF.ProjectId,nRF54L15_nPM2100_CR2032,6e524635-344c-4313-955f-6e504d323130,rev?*%
%TF.SameCoordinates,Original*%
%TF.FileFunction,Paste,Top*%
%TF.FilePolarity,Positive*%
%FSLAX46Y46*%
G04 Gerber Fmt 4.6, Leading zero omitted, Abs format (unit mm)*
G04 Created by KiCad (PCBNEW 8.99.0-unknown-ce20689caf~181~ubuntu24.04.1) date 2024-12-05 10:04:36*
%MOMM*%
%LPD*%
G01*
G04 APERTURE LIST*
G04 Aperture macros list*
%AMRoundRect*
0 Rectangle with rounded corners*
0 $1 Rounding radius*
0 $2 $3 $4 $5 $6 $7 $8 $9 X,Y pos of 4 corners*
0 Add a 4 corners polygon primitive as box body*
4,1,4,$2,$3,$4,$5,$6,$7,$8,$9,$2,$3,0*
0 Add four circle primitives for the rounded corners*
1,1,$1+$1,$2,$3*
1,1,$1+$1,$4,$5*
1,1,$1+$1,$6,$7*
1,1,$1+$1,$8,$9*
0 Add four rect primitives between the rounded corners*
20,1,$1+$1,$2,$3,$4,$5,0*
20,1,$1+$1,$4,$5,$6,$7,0*
20,1,$1+$1,$6,$7,$8,$9,0*
20,1,$1+$1,$8,$9,$2,$3,0*%
G04 Aperture macros list end*
%ADD10C,0.170000*%
%ADD11RoundRect,0.079500X0.079500X0.100500X-0.079500X0.100500X-0.079500X-0.100500X0.079500X-0.100500X0*%
%ADD12RoundRect,0.079500X-0.100500X0.079500X-0.100500X-0.079500X0.100500X-0.079500X0.100500X0.079500X0*%
%ADD13RoundRect,0.079500X-0.014849X0.127279X-0.127279X0.014849X0.014849X-0.127279X0.127279X-0.014849X0*%
%ADD14RoundRect,0.135000X0.135000X0.185000X-0.135000X0.185000X-0.135000X-0.185000X0.135000X-0.185000X0*%
%ADD15RoundRect,0.147500X-0.147500X-0.172500X0.147500X-0.172500X0.147500X0.172500X-0.147500X0.172500X0*%
%ADD16RoundRect,0.079500X0.100500X-0.079500X0.100500X0.079500X-0.100500X0.079500X-0.100500X-0.079500X0*%
%ADD17C,0.150000*%
%ADD18RoundRect,0.140000X0.140000X0.170000X-0.140000X0.170000X-0.140000X-0.170000X0.140000X-0.170000X0*%
%ADD19RoundRect,0.079500X-0.127279X-0.014849X-0.014849X-0.127279X0.127279X0.014849X0.014849X0.127279X0*%
%ADD20RoundRect,0.075000X0.175000X0.575000X-0.175000X0.575000X-0.175000X-0.575000X0.175000X-0.575000X0*%
%ADD21RoundRect,0.150000X0.350000X0.350000X-0.350000X0.350000X-0.350000X-0.350000X0.350000X-0.350000X0*%
%ADD22R,0.575000X1.114000*%
%ADD23RoundRect,0.079500X-0.079500X-0.100500X0.079500X-0.100500X0.079500X0.100500X-0.079500X0.100500X0*%
%ADD24RoundRect,0.250000X-0.375000X-0.625000X0.375000X-0.625000X0.375000X0.625000X-0.375000X0.625000X0*%
%ADD25RoundRect,0.033000X-0.021213X-0.207889X0.207889X0.021213X0.021213X0.207889X-0.207889X-0.021213X0*%
%ADD26RoundRect,0.033000X0.021213X-0.207889X0.207889X-0.021213X-0.021213X0.207889X-0.207889X0.021213X0*%
%ADD27R,0.250000X0.400000*%
%ADD28R,0.700000X0.400000*%
%ADD29RoundRect,0.079500X0.127279X0.014849X0.014849X0.127279X-0.127279X-0.014849X-0.014849X-0.127279X0*%
%ADD30R,1.050000X0.650000*%
%ADD31RoundRect,0.060000X-0.392444X-0.194454X-0.194454X-0.392444X0.392444X0.194454X0.194454X0.392444X0*%
%ADD32RoundRect,0.052500X0.689429X0.862670X-0.862670X-0.689429X-0.689429X-0.862670X0.862670X0.689429X0*%
%ADD33RoundRect,0.052500X0.509117X-0.335876X-0.335876X0.509117X-0.509117X0.335876X0.335876X-0.509117X0*%
%ADD34RoundRect,0.135000X-0.185000X0.135000X-0.185000X-0.135000X0.185000X-0.135000X0.185000X0.135000X0*%
%ADD35RoundRect,0.100000X-0.100000X0.225000X-0.100000X-0.225000X0.100000X-0.225000X0.100000X0.225000X0*%
G04 APERTURE END LIST*
D10*
%TO.C,U1*%
X189943000Y-61418200D03*
X189943000Y-61118200D03*
X189943000Y-60818200D03*
X189943000Y-60518200D03*
X189943000Y-60218200D03*
X189943000Y-59918200D03*
X189943000Y-59618200D03*
X190243000Y-61418200D03*
X190243000Y-60818200D03*
X190243000Y-60518200D03*
X190243000Y-60218200D03*
X190243000Y-59918200D03*
X190243000Y-59618200D03*
X190543000Y-61118200D03*
X190543000Y-60818200D03*
X190543000Y-60518200D03*
X190543000Y-60218200D03*
X190543000Y-59918200D03*
X190543000Y-59618200D03*
X190843000Y-61418200D03*
X190843000Y-61118200D03*
X190843000Y-60818200D03*
X190843000Y-60518200D03*
X190843000Y-60218200D03*
X190843000Y-59918200D03*
X190843000Y-59618200D03*
X191143000Y-61418200D03*
X191143000Y-61118200D03*
X191143000Y-60818200D03*
X191143000Y-60518200D03*
X191143000Y-60218200D03*
X191143000Y-59918200D03*
X191143000Y-59618200D03*
X191443000Y-61418200D03*
X191443000Y-61118200D03*
X191443000Y-60818200D03*
X191443000Y-60518200D03*
X191443000Y-60218200D03*
X191443000Y-59918200D03*
X191443000Y-59618200D03*
X191743000Y-61418200D03*
X191743000Y-61118200D03*
X191743000Y-60818200D03*
X191743000Y-60518200D03*
X191743000Y-60218200D03*
X191743000Y-59918200D03*
X191743000Y-59618200D03*
%TD*%
D11*
%TO.C,L6*%
X190855000Y-67360000D03*
X190165000Y-67360000D03*
%TD*%
D12*
%TO.C,C12*%
X188430000Y-61038800D03*
X188430000Y-61728800D03*
%TD*%
D11*
%TO.C,L7*%
X188745000Y-67360000D03*
X188055000Y-67360000D03*
%TD*%
D13*
%TO.C,C16*%
X193503952Y-48816048D03*
X193016048Y-49303952D03*
%TD*%
D14*
%TO.C,JP2*%
X193810000Y-47530000D03*
X192790000Y-47530000D03*
%TD*%
D12*
%TO.C,L4*%
X190830000Y-65925000D03*
X190830000Y-66615000D03*
%TD*%
D15*
%TO.C,L1*%
X188065000Y-58823800D03*
X189035000Y-58823800D03*
%TD*%
D16*
%TO.C,C1*%
X189130000Y-60338800D03*
X189130000Y-59648800D03*
%TD*%
D17*
%TO.C,Y2*%
X188905000Y-62618800D03*
X188655000Y-62618800D03*
X188655000Y-62368800D03*
X188905000Y-62368800D03*
%TD*%
D18*
%TO.C,C10*%
X190400000Y-57830000D03*
X189440000Y-57830000D03*
%TD*%
D14*
%TO.C,JP3*%
X193810000Y-46590000D03*
X192790000Y-46590000D03*
%TD*%
D19*
%TO.C,C15*%
X196156048Y-48736048D03*
X196643952Y-49223952D03*
%TD*%
D11*
%TO.C,C11*%
X190525000Y-58813800D03*
X189835000Y-58813800D03*
%TD*%
D12*
%TO.C,R3*%
X184590000Y-57825000D03*
X184590000Y-58515000D03*
%TD*%
D20*
%TO.C,AE1*%
X189630000Y-69800000D03*
D21*
X188080000Y-69800000D03*
%TD*%
D11*
%TO.C,C4*%
X182075000Y-53080000D03*
X181385000Y-53080000D03*
%TD*%
D22*
%TO.C,Y1*%
X191367500Y-58363800D03*
X192192500Y-58363800D03*
%TD*%
D23*
%TO.C,C3*%
X180735000Y-57050000D03*
X181425000Y-57050000D03*
%TD*%
D14*
%TO.C,R4*%
X184580000Y-53320000D03*
X183560000Y-53320000D03*
%TD*%
D12*
%TO.C,C2*%
X187730000Y-61038800D03*
X187730000Y-61728800D03*
%TD*%
D24*
%TO.C,D1*%
X188600000Y-50000000D03*
X191400000Y-50000000D03*
%TD*%
D23*
%TO.C,FB1*%
X187735000Y-60313800D03*
X188425000Y-60313800D03*
%TD*%
D25*
%TO.C,U3*%
X193861558Y-50077782D03*
X194215111Y-50431335D03*
X194568665Y-50784889D03*
X194922218Y-51138442D03*
D26*
X195469802Y-50823355D03*
X195823355Y-50469802D03*
D25*
X196138442Y-49922218D03*
X195784889Y-49568665D03*
X195431335Y-49215111D03*
X195077782Y-48861558D03*
D26*
X194530198Y-49176645D03*
X194176645Y-49530198D03*
%TD*%
D27*
%TO.C,Q1*%
X185625000Y-52350000D03*
X186075000Y-52350000D03*
D28*
X185850000Y-51650000D03*
%TD*%
D29*
%TO.C,C17*%
X195603952Y-48173952D03*
X195116048Y-47686048D03*
%TD*%
D16*
%TO.C,C8*%
X192557697Y-61015000D03*
X192557697Y-60325000D03*
%TD*%
D12*
%TO.C,L2*%
X190830000Y-62325000D03*
X190830000Y-63015000D03*
%TD*%
D19*
%TO.C,C20*%
X185636048Y-47856048D03*
X186123952Y-48343952D03*
%TD*%
D16*
%TO.C,L18*%
X189450000Y-67385000D03*
X189450000Y-66695000D03*
%TD*%
D12*
%TO.C,R2*%
X183890000Y-57825000D03*
X183890000Y-58515000D03*
%TD*%
D30*
%TO.C,SW1*%
X187925000Y-53925000D03*
X192075000Y-53925000D03*
X187925000Y-56075000D03*
X192050000Y-56075000D03*
%TD*%
D11*
%TO.C,C6*%
X190855000Y-63570000D03*
X190165000Y-63570000D03*
%TD*%
%TO.C,C9*%
X190855000Y-65370000D03*
X190165000Y-65370000D03*
%TD*%
D12*
%TO.C,L3*%
X190830000Y-64125000D03*
X190830000Y-64815000D03*
%TD*%
D31*
%TO.C,MK1*%
X184159099Y-49156649D03*
X183204505Y-50111243D03*
X183840901Y-50747639D03*
X184795495Y-49793045D03*
D32*
X183133794Y-49085938D03*
D33*
X185219759Y-48732385D03*
X182780241Y-51171903D03*
D32*
X184866206Y-50818350D03*
%TD*%
D34*
%TO.C,R1*%
X187000000Y-51490000D03*
X187000000Y-52510000D03*
%TD*%
D12*
%TO.C,C5*%
X189130000Y-61048800D03*
X189130000Y-61738800D03*
%TD*%
D35*
%TO.C,U2*%
X182050000Y-54150000D03*
X181400000Y-54150000D03*
X180750000Y-54150000D03*
X180750000Y-56050000D03*
X181400000Y-56050000D03*
X182050000Y-56050000D03*
%TD*%
M02*
