M48
; DRILL file {KiCad 8.99.0-unknown-ce20689caf~181~ubuntu24.04.1} date 2024-12-05T10:04:36-0500
; FORMAT={-:-/ absolute / inch / decimal}
; #@! TF.CreationDate,2024-12-05T10:04:36-05:00
; #@! TF.GenerationSoftware,Kicad,Pcbnew,8.99.0-unknown-ce20689caf~181~ubuntu24.04.1
; #@! TF.FileFunction,Plated,1,4,PTH
FMAT,2
INCH
; #@! TA.AperFunction,Plated,PTH,ViaDrill
T1C0.0059
; #@! TA.AperFunction,Plated,PTH,ViaDrill
T2C0.0118
%
G90
G05
T1
X6.9705Y-2.1693
X7.1063Y-2.0276
X7.1063Y-2.3031
X7.1417Y-2.1319
X7.1417Y-2.2067
X7.1417Y-2.2461
X7.1421Y-2.0898
X7.1673Y-2.0898
X7.185Y-2.3622
X7.2128Y-1.9729
X7.2268Y-2.0992
X7.2378Y-1.9979
X7.2398Y-2.3028
X7.2504Y-1.9353
X7.2669Y-2.0992
X7.2673Y-2.2776
X7.2673Y-2.3028
X7.2754Y-1.9604
X7.2835Y-2.2047
X7.2835Y-2.4606
X7.3228Y-1.811
X7.3228Y-2.1654
X7.3258Y-2.0778
X7.327Y-1.9026
X7.3362Y-2.3854
X7.3689Y-2.123
X7.3819Y-2.5591
X7.3909Y-2.4293
X7.4016Y-1.7323
X7.4016Y-1.811
X7.4016Y-1.8898
X7.4063Y-2.4492
X7.4067Y-2.348
X7.4071Y-2.4709
X7.4189Y-2.4297
X7.4323Y-2.4045
X7.4409Y-2.0669
X7.4409Y-2.4803
X7.4409Y-2.5197
X7.4409Y-2.5591
X7.4409Y-2.5984
X7.4461Y-2.3494
X7.4461Y-2.4297
X7.4583Y-2.2768
X7.4587Y-2.6268
X7.4748Y-2.3155
X7.4803Y-1.811
X7.4803Y-1.8898
X7.4803Y-1.9685
X7.4862Y-2.4299
X7.4878Y-2.5028
X7.4878Y-2.5736
X7.4898Y-2.359
X7.4899Y-2.3941
X7.5Y-2.3016
X7.5017Y-2.359
X7.5017Y-2.4063
X7.5017Y-2.3708
X7.5017Y-2.3944
X7.5135Y-2.359
X7.5135Y-2.4062
X7.5135Y-2.3708
X7.5169Y-2.3276
X7.5253Y-2.3472
X7.5253Y-2.3944
X7.5342Y-2.2978
X7.5354Y-1.9685
X7.5371Y-2.3472
X7.5371Y-2.4062
X7.5591Y-1.7323
X7.5591Y-1.811
X7.5591Y-1.8898
X7.5591Y-2.4803
X7.5591Y-2.5197
X7.5591Y-2.5591
X7.5591Y-2.5984
X7.561Y-2.3461
X7.5666Y-2.2978
X7.581Y-2.376
X7.581Y-2.4012
X7.5854Y-2.3091
X7.5862Y-1.9043
X7.5998Y-1.9404
X7.6122Y-1.9909
X7.626Y-2.0055
X7.6323Y-1.9716
X7.635Y-2.422
X7.6378Y-2.4803
X7.6378Y-2.5197
X7.6378Y-2.5591
X7.6455Y-2.1022
X7.6457Y-2.0854
X7.6551Y-2.326
X7.6587Y-1.9361
X7.6598Y-2.4146
X7.6602Y-1.9994
X7.6772Y-2.1654
X7.6805Y-1.8753
X7.6921Y-2.3374
X7.7028Y-2.0354
X7.7091Y-2.3169
X7.7096Y-1.987
X7.7165Y-2.0866
X7.722Y-1.9654
X7.7283Y-2.1063
X7.7412Y-1.9373
X7.7559Y-2.2598
X7.7953Y-2.2441
X7.8008Y-2.3756
X7.8378Y-2.3417
X7.8386Y-2.0453
X7.8386Y-2.1654
X7.874Y-2.0866
X7.874Y-2.1654
X7.874Y-2.2441
T2
X7.4803Y-2.1654
M30
