G04 #@! TF.GenerationSoftware,KiCad,Pcbnew,9.0.0-rc2-3baa6cd791~182~ubuntu24.04.1*
G04 #@! TF.CreationDate,2025-02-06T23:09:26-05:00*
G04 #@! TF.ProjectId,PCA20073_Tiny_Board,50434132-3030-4373-935f-54696e795f42,rev?*
G04 #@! TF.SameCoordinates,PX82a22f1PY713a4f2*
G04 #@! TF.FileFunction,Copper,L3,Inr*
G04 #@! TF.FilePolarity,Positive*
%FSLAX46Y46*%
G04 Gerber Fmt 4.6, Leading zero omitted, Abs format (unit mm)*
G04 Created by KiCad (PCBNEW 9.0.0-rc2-3baa6cd791~182~ubuntu24.04.1) date 2025-02-06 23:09:26*
%MOMM*%
%LPD*%
G01*
G04 APERTURE LIST*
%ADD10C,0.100000*%
%ADD11C,0.150000*%
%ADD12C,0.300000*%
%ADD13C,0.400000*%
G04 #@! TA.AperFunction,ViaPad*
%ADD14C,0.300000*%
G04 #@! TD*
G04 #@! TA.AperFunction,ViaPad*
%ADD15C,0.250000*%
G04 #@! TD*
G04 #@! TA.AperFunction,ViaPad*
%ADD16C,0.600000*%
G04 #@! TD*
G04 #@! TA.AperFunction,Conductor*
%ADD17C,0.150000*%
G04 #@! TD*
G04 #@! TA.AperFunction,Conductor*
%ADD18C,0.100000*%
G04 #@! TD*
G04 APERTURE END LIST*
D10*
D11*
X40023015Y-47279278D02*
X148023015Y-47279278D01*
X148023015Y-79279278D01*
X40023015Y-79279278D01*
X40023015Y-47279278D01*
D10*
D11*
X-126979185Y108727922D02*
X150023015Y108727922D01*
X150023015Y-81279278D01*
X-126979185Y-81279278D01*
X-126979185Y108727922D01*
D10*
D11*
X-124979185Y106727922D02*
X148023015Y106727922D01*
X148023015Y-79279278D01*
X-124979185Y-79279278D01*
X-124979185Y106727922D01*
D10*
D11*
X-76979185Y106727922D02*
X-76979185Y108727922D01*
D10*
D11*
X-26979185Y106727922D02*
X-26979185Y108727922D01*
D10*
D11*
X23020815Y106727922D02*
X23020815Y108727922D01*
D10*
D11*
X73020815Y106727922D02*
X73020815Y108727922D01*
D10*
D11*
X123020815Y106727922D02*
X123020815Y108727922D01*
D10*
D11*
X-100890025Y107134318D02*
X-101632882Y107134318D01*
X-101261454Y107134318D02*
X-101261454Y108434318D01*
X-101261454Y108434318D02*
X-101385263Y108248603D01*
X-101385263Y108248603D02*
X-101509073Y108124794D01*
X-101509073Y108124794D02*
X-101632882Y108062889D01*
D10*
D11*
X-51632882Y108310508D02*
X-51570978Y108372413D01*
X-51570978Y108372413D02*
X-51447168Y108434318D01*
X-51447168Y108434318D02*
X-51137644Y108434318D01*
X-51137644Y108434318D02*
X-51013835Y108372413D01*
X-51013835Y108372413D02*
X-50951930Y108310508D01*
X-50951930Y108310508D02*
X-50890025Y108186699D01*
X-50890025Y108186699D02*
X-50890025Y108062889D01*
X-50890025Y108062889D02*
X-50951930Y107877175D01*
X-50951930Y107877175D02*
X-51694787Y107134318D01*
X-51694787Y107134318D02*
X-50890025Y107134318D01*
D10*
D11*
X-1694787Y108434318D02*
X-890025Y108434318D01*
X-890025Y108434318D02*
X-1323359Y107939080D01*
X-1323359Y107939080D02*
X-1137644Y107939080D01*
X-1137644Y107939080D02*
X-1013835Y107877175D01*
X-1013835Y107877175D02*
X-951930Y107815270D01*
X-951930Y107815270D02*
X-890025Y107691461D01*
X-890025Y107691461D02*
X-890025Y107381937D01*
X-890025Y107381937D02*
X-951930Y107258127D01*
X-951930Y107258127D02*
X-1013835Y107196222D01*
X-1013835Y107196222D02*
X-1137644Y107134318D01*
X-1137644Y107134318D02*
X-1509073Y107134318D01*
X-1509073Y107134318D02*
X-1632882Y107196222D01*
X-1632882Y107196222D02*
X-1694787Y107258127D01*
D10*
D11*
X48986165Y108000984D02*
X48986165Y107134318D01*
X48676641Y108496222D02*
X48367118Y107567651D01*
X48367118Y107567651D02*
X49171879Y107567651D01*
D10*
D11*
X99048070Y108434318D02*
X98429022Y108434318D01*
X98429022Y108434318D02*
X98367118Y107815270D01*
X98367118Y107815270D02*
X98429022Y107877175D01*
X98429022Y107877175D02*
X98552832Y107939080D01*
X98552832Y107939080D02*
X98862356Y107939080D01*
X98862356Y107939080D02*
X98986165Y107877175D01*
X98986165Y107877175D02*
X99048070Y107815270D01*
X99048070Y107815270D02*
X99109975Y107691461D01*
X99109975Y107691461D02*
X99109975Y107381937D01*
X99109975Y107381937D02*
X99048070Y107258127D01*
X99048070Y107258127D02*
X98986165Y107196222D01*
X98986165Y107196222D02*
X98862356Y107134318D01*
X98862356Y107134318D02*
X98552832Y107134318D01*
X98552832Y107134318D02*
X98429022Y107196222D01*
X98429022Y107196222D02*
X98367118Y107258127D01*
D10*
D11*
X148986165Y108434318D02*
X148738546Y108434318D01*
X148738546Y108434318D02*
X148614737Y108372413D01*
X148614737Y108372413D02*
X148552832Y108310508D01*
X148552832Y108310508D02*
X148429022Y108124794D01*
X148429022Y108124794D02*
X148367118Y107877175D01*
X148367118Y107877175D02*
X148367118Y107381937D01*
X148367118Y107381937D02*
X148429022Y107258127D01*
X148429022Y107258127D02*
X148490927Y107196222D01*
X148490927Y107196222D02*
X148614737Y107134318D01*
X148614737Y107134318D02*
X148862356Y107134318D01*
X148862356Y107134318D02*
X148986165Y107196222D01*
X148986165Y107196222D02*
X149048070Y107258127D01*
X149048070Y107258127D02*
X149109975Y107381937D01*
X149109975Y107381937D02*
X149109975Y107691461D01*
X149109975Y107691461D02*
X149048070Y107815270D01*
X149048070Y107815270D02*
X148986165Y107877175D01*
X148986165Y107877175D02*
X148862356Y107939080D01*
X148862356Y107939080D02*
X148614737Y107939080D01*
X148614737Y107939080D02*
X148490927Y107877175D01*
X148490927Y107877175D02*
X148429022Y107815270D01*
X148429022Y107815270D02*
X148367118Y107691461D01*
D10*
D11*
X-76979185Y-79279278D02*
X-76979185Y-81279278D01*
D10*
D11*
X-26979185Y-79279278D02*
X-26979185Y-81279278D01*
D10*
D11*
X23020815Y-79279278D02*
X23020815Y-81279278D01*
D10*
D11*
X73020815Y-79279278D02*
X73020815Y-81279278D01*
D10*
D11*
X123020815Y-79279278D02*
X123020815Y-81279278D01*
D10*
D11*
X-100890025Y-80872882D02*
X-101632882Y-80872882D01*
X-101261454Y-80872882D02*
X-101261454Y-79572882D01*
X-101261454Y-79572882D02*
X-101385263Y-79758597D01*
X-101385263Y-79758597D02*
X-101509073Y-79882406D01*
X-101509073Y-79882406D02*
X-101632882Y-79944311D01*
D10*
D11*
X-51632882Y-79696692D02*
X-51570978Y-79634787D01*
X-51570978Y-79634787D02*
X-51447168Y-79572882D01*
X-51447168Y-79572882D02*
X-51137644Y-79572882D01*
X-51137644Y-79572882D02*
X-51013835Y-79634787D01*
X-51013835Y-79634787D02*
X-50951930Y-79696692D01*
X-50951930Y-79696692D02*
X-50890025Y-79820501D01*
X-50890025Y-79820501D02*
X-50890025Y-79944311D01*
X-50890025Y-79944311D02*
X-50951930Y-80130025D01*
X-50951930Y-80130025D02*
X-51694787Y-80872882D01*
X-51694787Y-80872882D02*
X-50890025Y-80872882D01*
D10*
D11*
X-1694787Y-79572882D02*
X-890025Y-79572882D01*
X-890025Y-79572882D02*
X-1323359Y-80068120D01*
X-1323359Y-80068120D02*
X-1137644Y-80068120D01*
X-1137644Y-80068120D02*
X-1013835Y-80130025D01*
X-1013835Y-80130025D02*
X-951930Y-80191930D01*
X-951930Y-80191930D02*
X-890025Y-80315739D01*
X-890025Y-80315739D02*
X-890025Y-80625263D01*
X-890025Y-80625263D02*
X-951930Y-80749073D01*
X-951930Y-80749073D02*
X-1013835Y-80810978D01*
X-1013835Y-80810978D02*
X-1137644Y-80872882D01*
X-1137644Y-80872882D02*
X-1509073Y-80872882D01*
X-1509073Y-80872882D02*
X-1632882Y-80810978D01*
X-1632882Y-80810978D02*
X-1694787Y-80749073D01*
D10*
D11*
X48986165Y-80006216D02*
X48986165Y-80872882D01*
X48676641Y-79510978D02*
X48367118Y-80439549D01*
X48367118Y-80439549D02*
X49171879Y-80439549D01*
D10*
D11*
X99048070Y-79572882D02*
X98429022Y-79572882D01*
X98429022Y-79572882D02*
X98367118Y-80191930D01*
X98367118Y-80191930D02*
X98429022Y-80130025D01*
X98429022Y-80130025D02*
X98552832Y-80068120D01*
X98552832Y-80068120D02*
X98862356Y-80068120D01*
X98862356Y-80068120D02*
X98986165Y-80130025D01*
X98986165Y-80130025D02*
X99048070Y-80191930D01*
X99048070Y-80191930D02*
X99109975Y-80315739D01*
X99109975Y-80315739D02*
X99109975Y-80625263D01*
X99109975Y-80625263D02*
X99048070Y-80749073D01*
X99048070Y-80749073D02*
X98986165Y-80810978D01*
X98986165Y-80810978D02*
X98862356Y-80872882D01*
X98862356Y-80872882D02*
X98552832Y-80872882D01*
X98552832Y-80872882D02*
X98429022Y-80810978D01*
X98429022Y-80810978D02*
X98367118Y-80749073D01*
D10*
D11*
X148986165Y-79572882D02*
X148738546Y-79572882D01*
X148738546Y-79572882D02*
X148614737Y-79634787D01*
X148614737Y-79634787D02*
X148552832Y-79696692D01*
X148552832Y-79696692D02*
X148429022Y-79882406D01*
X148429022Y-79882406D02*
X148367118Y-80130025D01*
X148367118Y-80130025D02*
X148367118Y-80625263D01*
X148367118Y-80625263D02*
X148429022Y-80749073D01*
X148429022Y-80749073D02*
X148490927Y-80810978D01*
X148490927Y-80810978D02*
X148614737Y-80872882D01*
X148614737Y-80872882D02*
X148862356Y-80872882D01*
X148862356Y-80872882D02*
X148986165Y-80810978D01*
X148986165Y-80810978D02*
X149048070Y-80749073D01*
X149048070Y-80749073D02*
X149109975Y-80625263D01*
X149109975Y-80625263D02*
X149109975Y-80315739D01*
X149109975Y-80315739D02*
X149048070Y-80191930D01*
X149048070Y-80191930D02*
X148986165Y-80130025D01*
X148986165Y-80130025D02*
X148862356Y-80068120D01*
X148862356Y-80068120D02*
X148614737Y-80068120D01*
X148614737Y-80068120D02*
X148490927Y-80130025D01*
X148490927Y-80130025D02*
X148429022Y-80191930D01*
X148429022Y-80191930D02*
X148367118Y-80315739D01*
D10*
D11*
X-126979185Y58727922D02*
X-124979185Y58727922D01*
D10*
D11*
X-126979185Y8727922D02*
X-124979185Y8727922D01*
D10*
D11*
X-126979185Y-41272078D02*
X-124979185Y-41272078D01*
D10*
D11*
X-126288709Y83505746D02*
X-125669662Y83505746D01*
X-126412519Y83134318D02*
X-125979186Y84434318D01*
X-125979186Y84434318D02*
X-125545852Y83134318D01*
D10*
D11*
X-125886328Y33815270D02*
X-125700614Y33753365D01*
X-125700614Y33753365D02*
X-125638709Y33691461D01*
X-125638709Y33691461D02*
X-125576805Y33567651D01*
X-125576805Y33567651D02*
X-125576805Y33381937D01*
X-125576805Y33381937D02*
X-125638709Y33258127D01*
X-125638709Y33258127D02*
X-125700614Y33196222D01*
X-125700614Y33196222D02*
X-125824424Y33134318D01*
X-125824424Y33134318D02*
X-126319662Y33134318D01*
X-126319662Y33134318D02*
X-126319662Y34434318D01*
X-126319662Y34434318D02*
X-125886328Y34434318D01*
X-125886328Y34434318D02*
X-125762519Y34372413D01*
X-125762519Y34372413D02*
X-125700614Y34310508D01*
X-125700614Y34310508D02*
X-125638709Y34186699D01*
X-125638709Y34186699D02*
X-125638709Y34062889D01*
X-125638709Y34062889D02*
X-125700614Y33939080D01*
X-125700614Y33939080D02*
X-125762519Y33877175D01*
X-125762519Y33877175D02*
X-125886328Y33815270D01*
X-125886328Y33815270D02*
X-126319662Y33815270D01*
D10*
D11*
X-125576805Y-16741873D02*
X-125638709Y-16803778D01*
X-125638709Y-16803778D02*
X-125824424Y-16865682D01*
X-125824424Y-16865682D02*
X-125948233Y-16865682D01*
X-125948233Y-16865682D02*
X-126133947Y-16803778D01*
X-126133947Y-16803778D02*
X-126257757Y-16679968D01*
X-126257757Y-16679968D02*
X-126319662Y-16556158D01*
X-126319662Y-16556158D02*
X-126381566Y-16308539D01*
X-126381566Y-16308539D02*
X-126381566Y-16122825D01*
X-126381566Y-16122825D02*
X-126319662Y-15875206D01*
X-126319662Y-15875206D02*
X-126257757Y-15751397D01*
X-126257757Y-15751397D02*
X-126133947Y-15627587D01*
X-126133947Y-15627587D02*
X-125948233Y-15565682D01*
X-125948233Y-15565682D02*
X-125824424Y-15565682D01*
X-125824424Y-15565682D02*
X-125638709Y-15627587D01*
X-125638709Y-15627587D02*
X-125576805Y-15689492D01*
D10*
D11*
X-126319662Y-66865682D02*
X-126319662Y-65565682D01*
X-126319662Y-65565682D02*
X-126010138Y-65565682D01*
X-126010138Y-65565682D02*
X-125824424Y-65627587D01*
X-125824424Y-65627587D02*
X-125700614Y-65751397D01*
X-125700614Y-65751397D02*
X-125638709Y-65875206D01*
X-125638709Y-65875206D02*
X-125576805Y-66122825D01*
X-125576805Y-66122825D02*
X-125576805Y-66308539D01*
X-125576805Y-66308539D02*
X-125638709Y-66556158D01*
X-125638709Y-66556158D02*
X-125700614Y-66679968D01*
X-125700614Y-66679968D02*
X-125824424Y-66803778D01*
X-125824424Y-66803778D02*
X-126010138Y-66865682D01*
X-126010138Y-66865682D02*
X-126319662Y-66865682D01*
D10*
D11*
X150023015Y58727922D02*
X148023015Y58727922D01*
D10*
D11*
X150023015Y8727922D02*
X148023015Y8727922D01*
D10*
D11*
X150023015Y-41272078D02*
X148023015Y-41272078D01*
D10*
D11*
X148713491Y83505746D02*
X149332538Y83505746D01*
X148589681Y83134318D02*
X149023014Y84434318D01*
X149023014Y84434318D02*
X149456348Y83134318D01*
D10*
D11*
X149115872Y33815270D02*
X149301586Y33753365D01*
X149301586Y33753365D02*
X149363491Y33691461D01*
X149363491Y33691461D02*
X149425395Y33567651D01*
X149425395Y33567651D02*
X149425395Y33381937D01*
X149425395Y33381937D02*
X149363491Y33258127D01*
X149363491Y33258127D02*
X149301586Y33196222D01*
X149301586Y33196222D02*
X149177776Y33134318D01*
X149177776Y33134318D02*
X148682538Y33134318D01*
X148682538Y33134318D02*
X148682538Y34434318D01*
X148682538Y34434318D02*
X149115872Y34434318D01*
X149115872Y34434318D02*
X149239681Y34372413D01*
X149239681Y34372413D02*
X149301586Y34310508D01*
X149301586Y34310508D02*
X149363491Y34186699D01*
X149363491Y34186699D02*
X149363491Y34062889D01*
X149363491Y34062889D02*
X149301586Y33939080D01*
X149301586Y33939080D02*
X149239681Y33877175D01*
X149239681Y33877175D02*
X149115872Y33815270D01*
X149115872Y33815270D02*
X148682538Y33815270D01*
D10*
D11*
X149425395Y-16741873D02*
X149363491Y-16803778D01*
X149363491Y-16803778D02*
X149177776Y-16865682D01*
X149177776Y-16865682D02*
X149053967Y-16865682D01*
X149053967Y-16865682D02*
X148868253Y-16803778D01*
X148868253Y-16803778D02*
X148744443Y-16679968D01*
X148744443Y-16679968D02*
X148682538Y-16556158D01*
X148682538Y-16556158D02*
X148620634Y-16308539D01*
X148620634Y-16308539D02*
X148620634Y-16122825D01*
X148620634Y-16122825D02*
X148682538Y-15875206D01*
X148682538Y-15875206D02*
X148744443Y-15751397D01*
X148744443Y-15751397D02*
X148868253Y-15627587D01*
X148868253Y-15627587D02*
X149053967Y-15565682D01*
X149053967Y-15565682D02*
X149177776Y-15565682D01*
X149177776Y-15565682D02*
X149363491Y-15627587D01*
X149363491Y-15627587D02*
X149425395Y-15689492D01*
D10*
D11*
X148682538Y-66865682D02*
X148682538Y-65565682D01*
X148682538Y-65565682D02*
X148992062Y-65565682D01*
X148992062Y-65565682D02*
X149177776Y-65627587D01*
X149177776Y-65627587D02*
X149301586Y-65751397D01*
X149301586Y-65751397D02*
X149363491Y-65875206D01*
X149363491Y-65875206D02*
X149425395Y-66122825D01*
X149425395Y-66122825D02*
X149425395Y-66308539D01*
X149425395Y-66308539D02*
X149363491Y-66556158D01*
X149363491Y-66556158D02*
X149301586Y-66679968D01*
X149301586Y-66679968D02*
X149177776Y-66803778D01*
X149177776Y-66803778D02*
X148992062Y-66865682D01*
X148992062Y-66865682D02*
X148682538Y-66865682D01*
D10*
D11*
X63478841Y-75065406D02*
X63478841Y-73565406D01*
X63478841Y-73565406D02*
X63835984Y-73565406D01*
X63835984Y-73565406D02*
X64050270Y-73636835D01*
X64050270Y-73636835D02*
X64193127Y-73779692D01*
X64193127Y-73779692D02*
X64264556Y-73922549D01*
X64264556Y-73922549D02*
X64335984Y-74208263D01*
X64335984Y-74208263D02*
X64335984Y-74422549D01*
X64335984Y-74422549D02*
X64264556Y-74708263D01*
X64264556Y-74708263D02*
X64193127Y-74851120D01*
X64193127Y-74851120D02*
X64050270Y-74993978D01*
X64050270Y-74993978D02*
X63835984Y-75065406D01*
X63835984Y-75065406D02*
X63478841Y-75065406D01*
X65621699Y-75065406D02*
X65621699Y-74279692D01*
X65621699Y-74279692D02*
X65550270Y-74136835D01*
X65550270Y-74136835D02*
X65407413Y-74065406D01*
X65407413Y-74065406D02*
X65121699Y-74065406D01*
X65121699Y-74065406D02*
X64978841Y-74136835D01*
X65621699Y-74993978D02*
X65478841Y-75065406D01*
X65478841Y-75065406D02*
X65121699Y-75065406D01*
X65121699Y-75065406D02*
X64978841Y-74993978D01*
X64978841Y-74993978D02*
X64907413Y-74851120D01*
X64907413Y-74851120D02*
X64907413Y-74708263D01*
X64907413Y-74708263D02*
X64978841Y-74565406D01*
X64978841Y-74565406D02*
X65121699Y-74493978D01*
X65121699Y-74493978D02*
X65478841Y-74493978D01*
X65478841Y-74493978D02*
X65621699Y-74422549D01*
X66121699Y-74065406D02*
X66693127Y-74065406D01*
X66335984Y-73565406D02*
X66335984Y-74851120D01*
X66335984Y-74851120D02*
X66407413Y-74993978D01*
X66407413Y-74993978D02*
X66550270Y-75065406D01*
X66550270Y-75065406D02*
X66693127Y-75065406D01*
X67764556Y-74993978D02*
X67621699Y-75065406D01*
X67621699Y-75065406D02*
X67335985Y-75065406D01*
X67335985Y-75065406D02*
X67193127Y-74993978D01*
X67193127Y-74993978D02*
X67121699Y-74851120D01*
X67121699Y-74851120D02*
X67121699Y-74279692D01*
X67121699Y-74279692D02*
X67193127Y-74136835D01*
X67193127Y-74136835D02*
X67335985Y-74065406D01*
X67335985Y-74065406D02*
X67621699Y-74065406D01*
X67621699Y-74065406D02*
X67764556Y-74136835D01*
X67764556Y-74136835D02*
X67835985Y-74279692D01*
X67835985Y-74279692D02*
X67835985Y-74422549D01*
X67835985Y-74422549D02*
X67121699Y-74565406D01*
X68478841Y-74922549D02*
X68550270Y-74993978D01*
X68550270Y-74993978D02*
X68478841Y-75065406D01*
X68478841Y-75065406D02*
X68407413Y-74993978D01*
X68407413Y-74993978D02*
X68478841Y-74922549D01*
X68478841Y-74922549D02*
X68478841Y-75065406D01*
X68478841Y-74136835D02*
X68550270Y-74208263D01*
X68550270Y-74208263D02*
X68478841Y-74279692D01*
X68478841Y-74279692D02*
X68407413Y-74208263D01*
X68407413Y-74208263D02*
X68478841Y-74136835D01*
X68478841Y-74136835D02*
X68478841Y-74279692D01*
D10*
D11*
X40023015Y-75779278D02*
X148023015Y-75779278D01*
D10*
D11*
X41478841Y-77865406D02*
X41478841Y-76365406D01*
X42335984Y-77865406D02*
X41693127Y-77008263D01*
X42335984Y-76365406D02*
X41478841Y-77222549D01*
X42978841Y-77865406D02*
X42978841Y-76865406D01*
X42978841Y-76365406D02*
X42907413Y-76436835D01*
X42907413Y-76436835D02*
X42978841Y-76508263D01*
X42978841Y-76508263D02*
X43050270Y-76436835D01*
X43050270Y-76436835D02*
X42978841Y-76365406D01*
X42978841Y-76365406D02*
X42978841Y-76508263D01*
X44550270Y-77722549D02*
X44478842Y-77793978D01*
X44478842Y-77793978D02*
X44264556Y-77865406D01*
X44264556Y-77865406D02*
X44121699Y-77865406D01*
X44121699Y-77865406D02*
X43907413Y-77793978D01*
X43907413Y-77793978D02*
X43764556Y-77651120D01*
X43764556Y-77651120D02*
X43693127Y-77508263D01*
X43693127Y-77508263D02*
X43621699Y-77222549D01*
X43621699Y-77222549D02*
X43621699Y-77008263D01*
X43621699Y-77008263D02*
X43693127Y-76722549D01*
X43693127Y-76722549D02*
X43764556Y-76579692D01*
X43764556Y-76579692D02*
X43907413Y-76436835D01*
X43907413Y-76436835D02*
X44121699Y-76365406D01*
X44121699Y-76365406D02*
X44264556Y-76365406D01*
X44264556Y-76365406D02*
X44478842Y-76436835D01*
X44478842Y-76436835D02*
X44550270Y-76508263D01*
X45835985Y-77865406D02*
X45835985Y-77079692D01*
X45835985Y-77079692D02*
X45764556Y-76936835D01*
X45764556Y-76936835D02*
X45621699Y-76865406D01*
X45621699Y-76865406D02*
X45335985Y-76865406D01*
X45335985Y-76865406D02*
X45193127Y-76936835D01*
X45835985Y-77793978D02*
X45693127Y-77865406D01*
X45693127Y-77865406D02*
X45335985Y-77865406D01*
X45335985Y-77865406D02*
X45193127Y-77793978D01*
X45193127Y-77793978D02*
X45121699Y-77651120D01*
X45121699Y-77651120D02*
X45121699Y-77508263D01*
X45121699Y-77508263D02*
X45193127Y-77365406D01*
X45193127Y-77365406D02*
X45335985Y-77293978D01*
X45335985Y-77293978D02*
X45693127Y-77293978D01*
X45693127Y-77293978D02*
X45835985Y-77222549D01*
X47193128Y-77865406D02*
X47193128Y-76365406D01*
X47193128Y-77793978D02*
X47050270Y-77865406D01*
X47050270Y-77865406D02*
X46764556Y-77865406D01*
X46764556Y-77865406D02*
X46621699Y-77793978D01*
X46621699Y-77793978D02*
X46550270Y-77722549D01*
X46550270Y-77722549D02*
X46478842Y-77579692D01*
X46478842Y-77579692D02*
X46478842Y-77151120D01*
X46478842Y-77151120D02*
X46550270Y-77008263D01*
X46550270Y-77008263D02*
X46621699Y-76936835D01*
X46621699Y-76936835D02*
X46764556Y-76865406D01*
X46764556Y-76865406D02*
X47050270Y-76865406D01*
X47050270Y-76865406D02*
X47193128Y-76936835D01*
X49050270Y-77079692D02*
X49550270Y-77079692D01*
X49764556Y-77865406D02*
X49050270Y-77865406D01*
X49050270Y-77865406D02*
X49050270Y-76365406D01*
X49050270Y-76365406D02*
X49764556Y-76365406D01*
X50407413Y-77722549D02*
X50478842Y-77793978D01*
X50478842Y-77793978D02*
X50407413Y-77865406D01*
X50407413Y-77865406D02*
X50335985Y-77793978D01*
X50335985Y-77793978D02*
X50407413Y-77722549D01*
X50407413Y-77722549D02*
X50407413Y-77865406D01*
X51121699Y-77865406D02*
X51121699Y-76365406D01*
X51121699Y-76365406D02*
X51478842Y-76365406D01*
X51478842Y-76365406D02*
X51693128Y-76436835D01*
X51693128Y-76436835D02*
X51835985Y-76579692D01*
X51835985Y-76579692D02*
X51907414Y-76722549D01*
X51907414Y-76722549D02*
X51978842Y-77008263D01*
X51978842Y-77008263D02*
X51978842Y-77222549D01*
X51978842Y-77222549D02*
X51907414Y-77508263D01*
X51907414Y-77508263D02*
X51835985Y-77651120D01*
X51835985Y-77651120D02*
X51693128Y-77793978D01*
X51693128Y-77793978D02*
X51478842Y-77865406D01*
X51478842Y-77865406D02*
X51121699Y-77865406D01*
X52621699Y-77722549D02*
X52693128Y-77793978D01*
X52693128Y-77793978D02*
X52621699Y-77865406D01*
X52621699Y-77865406D02*
X52550271Y-77793978D01*
X52550271Y-77793978D02*
X52621699Y-77722549D01*
X52621699Y-77722549D02*
X52621699Y-77865406D01*
X53264557Y-77436835D02*
X53978843Y-77436835D01*
X53121700Y-77865406D02*
X53621700Y-76365406D01*
X53621700Y-76365406D02*
X54121700Y-77865406D01*
X54621699Y-77722549D02*
X54693128Y-77793978D01*
X54693128Y-77793978D02*
X54621699Y-77865406D01*
X54621699Y-77865406D02*
X54550271Y-77793978D01*
X54550271Y-77793978D02*
X54621699Y-77722549D01*
X54621699Y-77722549D02*
X54621699Y-77865406D01*
X56550271Y-77865406D02*
X56835985Y-77865406D01*
X56835985Y-77865406D02*
X56978842Y-77793978D01*
X56978842Y-77793978D02*
X57050271Y-77722549D01*
X57050271Y-77722549D02*
X57193128Y-77508263D01*
X57193128Y-77508263D02*
X57264557Y-77222549D01*
X57264557Y-77222549D02*
X57264557Y-76651120D01*
X57264557Y-76651120D02*
X57193128Y-76508263D01*
X57193128Y-76508263D02*
X57121700Y-76436835D01*
X57121700Y-76436835D02*
X56978842Y-76365406D01*
X56978842Y-76365406D02*
X56693128Y-76365406D01*
X56693128Y-76365406D02*
X56550271Y-76436835D01*
X56550271Y-76436835D02*
X56478842Y-76508263D01*
X56478842Y-76508263D02*
X56407414Y-76651120D01*
X56407414Y-76651120D02*
X56407414Y-77008263D01*
X56407414Y-77008263D02*
X56478842Y-77151120D01*
X56478842Y-77151120D02*
X56550271Y-77222549D01*
X56550271Y-77222549D02*
X56693128Y-77293978D01*
X56693128Y-77293978D02*
X56978842Y-77293978D01*
X56978842Y-77293978D02*
X57121700Y-77222549D01*
X57121700Y-77222549D02*
X57193128Y-77151120D01*
X57193128Y-77151120D02*
X57264557Y-77008263D01*
X57907413Y-77722549D02*
X57978842Y-77793978D01*
X57978842Y-77793978D02*
X57907413Y-77865406D01*
X57907413Y-77865406D02*
X57835985Y-77793978D01*
X57835985Y-77793978D02*
X57907413Y-77722549D01*
X57907413Y-77722549D02*
X57907413Y-77865406D01*
X58907414Y-76365406D02*
X59050271Y-76365406D01*
X59050271Y-76365406D02*
X59193128Y-76436835D01*
X59193128Y-76436835D02*
X59264557Y-76508263D01*
X59264557Y-76508263D02*
X59335985Y-76651120D01*
X59335985Y-76651120D02*
X59407414Y-76936835D01*
X59407414Y-76936835D02*
X59407414Y-77293978D01*
X59407414Y-77293978D02*
X59335985Y-77579692D01*
X59335985Y-77579692D02*
X59264557Y-77722549D01*
X59264557Y-77722549D02*
X59193128Y-77793978D01*
X59193128Y-77793978D02*
X59050271Y-77865406D01*
X59050271Y-77865406D02*
X58907414Y-77865406D01*
X58907414Y-77865406D02*
X58764557Y-77793978D01*
X58764557Y-77793978D02*
X58693128Y-77722549D01*
X58693128Y-77722549D02*
X58621699Y-77579692D01*
X58621699Y-77579692D02*
X58550271Y-77293978D01*
X58550271Y-77293978D02*
X58550271Y-76936835D01*
X58550271Y-76936835D02*
X58621699Y-76651120D01*
X58621699Y-76651120D02*
X58693128Y-76508263D01*
X58693128Y-76508263D02*
X58764557Y-76436835D01*
X58764557Y-76436835D02*
X58907414Y-76365406D01*
X60050270Y-77722549D02*
X60121699Y-77793978D01*
X60121699Y-77793978D02*
X60050270Y-77865406D01*
X60050270Y-77865406D02*
X59978842Y-77793978D01*
X59978842Y-77793978D02*
X60050270Y-77722549D01*
X60050270Y-77722549D02*
X60050270Y-77865406D01*
X61050271Y-76365406D02*
X61193128Y-76365406D01*
X61193128Y-76365406D02*
X61335985Y-76436835D01*
X61335985Y-76436835D02*
X61407414Y-76508263D01*
X61407414Y-76508263D02*
X61478842Y-76651120D01*
X61478842Y-76651120D02*
X61550271Y-76936835D01*
X61550271Y-76936835D02*
X61550271Y-77293978D01*
X61550271Y-77293978D02*
X61478842Y-77579692D01*
X61478842Y-77579692D02*
X61407414Y-77722549D01*
X61407414Y-77722549D02*
X61335985Y-77793978D01*
X61335985Y-77793978D02*
X61193128Y-77865406D01*
X61193128Y-77865406D02*
X61050271Y-77865406D01*
X61050271Y-77865406D02*
X60907414Y-77793978D01*
X60907414Y-77793978D02*
X60835985Y-77722549D01*
X60835985Y-77722549D02*
X60764556Y-77579692D01*
X60764556Y-77579692D02*
X60693128Y-77293978D01*
X60693128Y-77293978D02*
X60693128Y-76936835D01*
X60693128Y-76936835D02*
X60764556Y-76651120D01*
X60764556Y-76651120D02*
X60835985Y-76508263D01*
X60835985Y-76508263D02*
X60907414Y-76436835D01*
X60907414Y-76436835D02*
X61050271Y-76365406D01*
X62193127Y-77293978D02*
X63335985Y-77293978D01*
X64050270Y-77865406D02*
X64050270Y-76865406D01*
X64050270Y-77151120D02*
X64121699Y-77008263D01*
X64121699Y-77008263D02*
X64193128Y-76936835D01*
X64193128Y-76936835D02*
X64335985Y-76865406D01*
X64335985Y-76865406D02*
X64478842Y-76865406D01*
X65621699Y-77793978D02*
X65478841Y-77865406D01*
X65478841Y-77865406D02*
X65193127Y-77865406D01*
X65193127Y-77865406D02*
X65050270Y-77793978D01*
X65050270Y-77793978D02*
X64978841Y-77722549D01*
X64978841Y-77722549D02*
X64907413Y-77579692D01*
X64907413Y-77579692D02*
X64907413Y-77151120D01*
X64907413Y-77151120D02*
X64978841Y-77008263D01*
X64978841Y-77008263D02*
X65050270Y-76936835D01*
X65050270Y-76936835D02*
X65193127Y-76865406D01*
X65193127Y-76865406D02*
X65478841Y-76865406D01*
X65478841Y-76865406D02*
X65621699Y-76936835D01*
X66193127Y-76508263D02*
X66264555Y-76436835D01*
X66264555Y-76436835D02*
X66407413Y-76365406D01*
X66407413Y-76365406D02*
X66764555Y-76365406D01*
X66764555Y-76365406D02*
X66907413Y-76436835D01*
X66907413Y-76436835D02*
X66978841Y-76508263D01*
X66978841Y-76508263D02*
X67050270Y-76651120D01*
X67050270Y-76651120D02*
X67050270Y-76793978D01*
X67050270Y-76793978D02*
X66978841Y-77008263D01*
X66978841Y-77008263D02*
X66121698Y-77865406D01*
X66121698Y-77865406D02*
X67050270Y-77865406D01*
D10*
D11*
X40023015Y-72779278D02*
X148023015Y-72779278D01*
D10*
D12*
X127434668Y-75057606D02*
X126934668Y-74343320D01*
X126577525Y-75057606D02*
X126577525Y-73557606D01*
X126577525Y-73557606D02*
X127148954Y-73557606D01*
X127148954Y-73557606D02*
X127291811Y-73629035D01*
X127291811Y-73629035D02*
X127363240Y-73700463D01*
X127363240Y-73700463D02*
X127434668Y-73843320D01*
X127434668Y-73843320D02*
X127434668Y-74057606D01*
X127434668Y-74057606D02*
X127363240Y-74200463D01*
X127363240Y-74200463D02*
X127291811Y-74271892D01*
X127291811Y-74271892D02*
X127148954Y-74343320D01*
X127148954Y-74343320D02*
X126577525Y-74343320D01*
X128648954Y-74986178D02*
X128506097Y-75057606D01*
X128506097Y-75057606D02*
X128220383Y-75057606D01*
X128220383Y-75057606D02*
X128077525Y-74986178D01*
X128077525Y-74986178D02*
X128006097Y-74843320D01*
X128006097Y-74843320D02*
X128006097Y-74271892D01*
X128006097Y-74271892D02*
X128077525Y-74129035D01*
X128077525Y-74129035D02*
X128220383Y-74057606D01*
X128220383Y-74057606D02*
X128506097Y-74057606D01*
X128506097Y-74057606D02*
X128648954Y-74129035D01*
X128648954Y-74129035D02*
X128720383Y-74271892D01*
X128720383Y-74271892D02*
X128720383Y-74414749D01*
X128720383Y-74414749D02*
X128006097Y-74557606D01*
X129220382Y-74057606D02*
X129577525Y-75057606D01*
X129577525Y-75057606D02*
X129934668Y-74057606D01*
X130506096Y-74914749D02*
X130577525Y-74986178D01*
X130577525Y-74986178D02*
X130506096Y-75057606D01*
X130506096Y-75057606D02*
X130434668Y-74986178D01*
X130434668Y-74986178D02*
X130506096Y-74914749D01*
X130506096Y-74914749D02*
X130506096Y-75057606D01*
X130506096Y-74129035D02*
X130577525Y-74200463D01*
X130577525Y-74200463D02*
X130506096Y-74271892D01*
X130506096Y-74271892D02*
X130434668Y-74200463D01*
X130434668Y-74200463D02*
X130506096Y-74129035D01*
X130506096Y-74129035D02*
X130506096Y-74271892D01*
D10*
D11*
X41407413Y-74993978D02*
X41621699Y-75065406D01*
X41621699Y-75065406D02*
X41978841Y-75065406D01*
X41978841Y-75065406D02*
X42121699Y-74993978D01*
X42121699Y-74993978D02*
X42193127Y-74922549D01*
X42193127Y-74922549D02*
X42264556Y-74779692D01*
X42264556Y-74779692D02*
X42264556Y-74636835D01*
X42264556Y-74636835D02*
X42193127Y-74493978D01*
X42193127Y-74493978D02*
X42121699Y-74422549D01*
X42121699Y-74422549D02*
X41978841Y-74351120D01*
X41978841Y-74351120D02*
X41693127Y-74279692D01*
X41693127Y-74279692D02*
X41550270Y-74208263D01*
X41550270Y-74208263D02*
X41478841Y-74136835D01*
X41478841Y-74136835D02*
X41407413Y-73993978D01*
X41407413Y-73993978D02*
X41407413Y-73851120D01*
X41407413Y-73851120D02*
X41478841Y-73708263D01*
X41478841Y-73708263D02*
X41550270Y-73636835D01*
X41550270Y-73636835D02*
X41693127Y-73565406D01*
X41693127Y-73565406D02*
X42050270Y-73565406D01*
X42050270Y-73565406D02*
X42264556Y-73636835D01*
X42907412Y-75065406D02*
X42907412Y-74065406D01*
X42907412Y-73565406D02*
X42835984Y-73636835D01*
X42835984Y-73636835D02*
X42907412Y-73708263D01*
X42907412Y-73708263D02*
X42978841Y-73636835D01*
X42978841Y-73636835D02*
X42907412Y-73565406D01*
X42907412Y-73565406D02*
X42907412Y-73708263D01*
X43478841Y-74065406D02*
X44264556Y-74065406D01*
X44264556Y-74065406D02*
X43478841Y-75065406D01*
X43478841Y-75065406D02*
X44264556Y-75065406D01*
X45407413Y-74993978D02*
X45264556Y-75065406D01*
X45264556Y-75065406D02*
X44978842Y-75065406D01*
X44978842Y-75065406D02*
X44835984Y-74993978D01*
X44835984Y-74993978D02*
X44764556Y-74851120D01*
X44764556Y-74851120D02*
X44764556Y-74279692D01*
X44764556Y-74279692D02*
X44835984Y-74136835D01*
X44835984Y-74136835D02*
X44978842Y-74065406D01*
X44978842Y-74065406D02*
X45264556Y-74065406D01*
X45264556Y-74065406D02*
X45407413Y-74136835D01*
X45407413Y-74136835D02*
X45478842Y-74279692D01*
X45478842Y-74279692D02*
X45478842Y-74422549D01*
X45478842Y-74422549D02*
X44764556Y-74565406D01*
X46121698Y-74922549D02*
X46193127Y-74993978D01*
X46193127Y-74993978D02*
X46121698Y-75065406D01*
X46121698Y-75065406D02*
X46050270Y-74993978D01*
X46050270Y-74993978D02*
X46121698Y-74922549D01*
X46121698Y-74922549D02*
X46121698Y-75065406D01*
X46121698Y-74136835D02*
X46193127Y-74208263D01*
X46193127Y-74208263D02*
X46121698Y-74279692D01*
X46121698Y-74279692D02*
X46050270Y-74208263D01*
X46050270Y-74208263D02*
X46121698Y-74136835D01*
X46121698Y-74136835D02*
X46121698Y-74279692D01*
X47907413Y-74636835D02*
X48621699Y-74636835D01*
X47764556Y-75065406D02*
X48264556Y-73565406D01*
X48264556Y-73565406D02*
X48764556Y-75065406D01*
X49907413Y-74065406D02*
X49907413Y-75065406D01*
X49550270Y-73493978D02*
X49193127Y-74565406D01*
X49193127Y-74565406D02*
X50121698Y-74565406D01*
D10*
D11*
X126478841Y-77865406D02*
X126478841Y-76365406D01*
X127835985Y-77865406D02*
X127835985Y-76365406D01*
X127835985Y-77793978D02*
X127693127Y-77865406D01*
X127693127Y-77865406D02*
X127407413Y-77865406D01*
X127407413Y-77865406D02*
X127264556Y-77793978D01*
X127264556Y-77793978D02*
X127193127Y-77722549D01*
X127193127Y-77722549D02*
X127121699Y-77579692D01*
X127121699Y-77579692D02*
X127121699Y-77151120D01*
X127121699Y-77151120D02*
X127193127Y-77008263D01*
X127193127Y-77008263D02*
X127264556Y-76936835D01*
X127264556Y-76936835D02*
X127407413Y-76865406D01*
X127407413Y-76865406D02*
X127693127Y-76865406D01*
X127693127Y-76865406D02*
X127835985Y-76936835D01*
X128550270Y-77722549D02*
X128621699Y-77793978D01*
X128621699Y-77793978D02*
X128550270Y-77865406D01*
X128550270Y-77865406D02*
X128478842Y-77793978D01*
X128478842Y-77793978D02*
X128550270Y-77722549D01*
X128550270Y-77722549D02*
X128550270Y-77865406D01*
X128550270Y-76936835D02*
X128621699Y-77008263D01*
X128621699Y-77008263D02*
X128550270Y-77079692D01*
X128550270Y-77079692D02*
X128478842Y-77008263D01*
X128478842Y-77008263D02*
X128550270Y-76936835D01*
X128550270Y-76936835D02*
X128550270Y-77079692D01*
X130264556Y-76365406D02*
X131193128Y-76365406D01*
X131193128Y-76365406D02*
X130693128Y-76936835D01*
X130693128Y-76936835D02*
X130907413Y-76936835D01*
X130907413Y-76936835D02*
X131050271Y-77008263D01*
X131050271Y-77008263D02*
X131121699Y-77079692D01*
X131121699Y-77079692D02*
X131193128Y-77222549D01*
X131193128Y-77222549D02*
X131193128Y-77579692D01*
X131193128Y-77579692D02*
X131121699Y-77722549D01*
X131121699Y-77722549D02*
X131050271Y-77793978D01*
X131050271Y-77793978D02*
X130907413Y-77865406D01*
X130907413Y-77865406D02*
X130478842Y-77865406D01*
X130478842Y-77865406D02*
X130335985Y-77793978D01*
X130335985Y-77793978D02*
X130264556Y-77722549D01*
X132907413Y-76293978D02*
X131621699Y-78222549D01*
X134193128Y-77865406D02*
X133335985Y-77865406D01*
X133764556Y-77865406D02*
X133764556Y-76365406D01*
X133764556Y-76365406D02*
X133621699Y-76579692D01*
X133621699Y-76579692D02*
X133478842Y-76722549D01*
X133478842Y-76722549D02*
X133335985Y-76793978D01*
X134693127Y-76365406D02*
X135693127Y-76365406D01*
X135693127Y-76365406D02*
X135050270Y-77865406D01*
D10*
D11*
X40023015Y-68779278D02*
X148023015Y-68779278D01*
D10*
D13*
X41714743Y-69483716D02*
X42857600Y-69483716D01*
X42036172Y-71483716D02*
X42286172Y-69483716D01*
X43274267Y-71483716D02*
X43440934Y-70150382D01*
X43524267Y-69483716D02*
X43417124Y-69578954D01*
X43417124Y-69578954D02*
X43500458Y-69674192D01*
X43500458Y-69674192D02*
X43607601Y-69578954D01*
X43607601Y-69578954D02*
X43524267Y-69483716D01*
X43524267Y-69483716D02*
X43500458Y-69674192D01*
X44107601Y-70150382D02*
X44869505Y-70150382D01*
X44476648Y-69483716D02*
X44262363Y-71198001D01*
X44262363Y-71198001D02*
X44333791Y-71388478D01*
X44333791Y-71388478D02*
X44512363Y-71483716D01*
X44512363Y-71483716D02*
X44702839Y-71483716D01*
X45655220Y-71483716D02*
X45476648Y-71388478D01*
X45476648Y-71388478D02*
X45405220Y-71198001D01*
X45405220Y-71198001D02*
X45619505Y-69483716D01*
X47190934Y-71388478D02*
X46988553Y-71483716D01*
X46988553Y-71483716D02*
X46607600Y-71483716D01*
X46607600Y-71483716D02*
X46429029Y-71388478D01*
X46429029Y-71388478D02*
X46357600Y-71198001D01*
X46357600Y-71198001D02*
X46452839Y-70436097D01*
X46452839Y-70436097D02*
X46571886Y-70245620D01*
X46571886Y-70245620D02*
X46774267Y-70150382D01*
X46774267Y-70150382D02*
X47155219Y-70150382D01*
X47155219Y-70150382D02*
X47333791Y-70245620D01*
X47333791Y-70245620D02*
X47405219Y-70436097D01*
X47405219Y-70436097D02*
X47381410Y-70626573D01*
X47381410Y-70626573D02*
X46405219Y-70817049D01*
X48155220Y-71293239D02*
X48238553Y-71388478D01*
X48238553Y-71388478D02*
X48131410Y-71483716D01*
X48131410Y-71483716D02*
X48048077Y-71388478D01*
X48048077Y-71388478D02*
X48155220Y-71293239D01*
X48155220Y-71293239D02*
X48131410Y-71483716D01*
X48286172Y-70245620D02*
X48369505Y-70340858D01*
X48369505Y-70340858D02*
X48262363Y-70436097D01*
X48262363Y-70436097D02*
X48179029Y-70340858D01*
X48179029Y-70340858D02*
X48286172Y-70245620D01*
X48286172Y-70245620D02*
X48262363Y-70436097D01*
D10*
D11*
X41978841Y-66879692D02*
X41478841Y-66879692D01*
X41478841Y-67665406D02*
X41478841Y-66165406D01*
X41478841Y-66165406D02*
X42193127Y-66165406D01*
X42764555Y-67665406D02*
X42764555Y-66665406D01*
X42764555Y-66165406D02*
X42693127Y-66236835D01*
X42693127Y-66236835D02*
X42764555Y-66308263D01*
X42764555Y-66308263D02*
X42835984Y-66236835D01*
X42835984Y-66236835D02*
X42764555Y-66165406D01*
X42764555Y-66165406D02*
X42764555Y-66308263D01*
X43693127Y-67665406D02*
X43550270Y-67593978D01*
X43550270Y-67593978D02*
X43478841Y-67451120D01*
X43478841Y-67451120D02*
X43478841Y-66165406D01*
X44835984Y-67593978D02*
X44693127Y-67665406D01*
X44693127Y-67665406D02*
X44407413Y-67665406D01*
X44407413Y-67665406D02*
X44264555Y-67593978D01*
X44264555Y-67593978D02*
X44193127Y-67451120D01*
X44193127Y-67451120D02*
X44193127Y-66879692D01*
X44193127Y-66879692D02*
X44264555Y-66736835D01*
X44264555Y-66736835D02*
X44407413Y-66665406D01*
X44407413Y-66665406D02*
X44693127Y-66665406D01*
X44693127Y-66665406D02*
X44835984Y-66736835D01*
X44835984Y-66736835D02*
X44907413Y-66879692D01*
X44907413Y-66879692D02*
X44907413Y-67022549D01*
X44907413Y-67022549D02*
X44193127Y-67165406D01*
X45550269Y-67522549D02*
X45621698Y-67593978D01*
X45621698Y-67593978D02*
X45550269Y-67665406D01*
X45550269Y-67665406D02*
X45478841Y-67593978D01*
X45478841Y-67593978D02*
X45550269Y-67522549D01*
X45550269Y-67522549D02*
X45550269Y-67665406D01*
X45550269Y-66736835D02*
X45621698Y-66808263D01*
X45621698Y-66808263D02*
X45550269Y-66879692D01*
X45550269Y-66879692D02*
X45478841Y-66808263D01*
X45478841Y-66808263D02*
X45550269Y-66736835D01*
X45550269Y-66736835D02*
X45550269Y-66879692D01*
X47407412Y-67665406D02*
X47407412Y-66165406D01*
X47407412Y-66165406D02*
X47978841Y-66165406D01*
X47978841Y-66165406D02*
X48121698Y-66236835D01*
X48121698Y-66236835D02*
X48193127Y-66308263D01*
X48193127Y-66308263D02*
X48264555Y-66451120D01*
X48264555Y-66451120D02*
X48264555Y-66665406D01*
X48264555Y-66665406D02*
X48193127Y-66808263D01*
X48193127Y-66808263D02*
X48121698Y-66879692D01*
X48121698Y-66879692D02*
X47978841Y-66951120D01*
X47978841Y-66951120D02*
X47407412Y-66951120D01*
X49764555Y-67522549D02*
X49693127Y-67593978D01*
X49693127Y-67593978D02*
X49478841Y-67665406D01*
X49478841Y-67665406D02*
X49335984Y-67665406D01*
X49335984Y-67665406D02*
X49121698Y-67593978D01*
X49121698Y-67593978D02*
X48978841Y-67451120D01*
X48978841Y-67451120D02*
X48907412Y-67308263D01*
X48907412Y-67308263D02*
X48835984Y-67022549D01*
X48835984Y-67022549D02*
X48835984Y-66808263D01*
X48835984Y-66808263D02*
X48907412Y-66522549D01*
X48907412Y-66522549D02*
X48978841Y-66379692D01*
X48978841Y-66379692D02*
X49121698Y-66236835D01*
X49121698Y-66236835D02*
X49335984Y-66165406D01*
X49335984Y-66165406D02*
X49478841Y-66165406D01*
X49478841Y-66165406D02*
X49693127Y-66236835D01*
X49693127Y-66236835D02*
X49764555Y-66308263D01*
X50335984Y-67236835D02*
X51050270Y-67236835D01*
X50193127Y-67665406D02*
X50693127Y-66165406D01*
X50693127Y-66165406D02*
X51193127Y-67665406D01*
X51621698Y-66308263D02*
X51693126Y-66236835D01*
X51693126Y-66236835D02*
X51835984Y-66165406D01*
X51835984Y-66165406D02*
X52193126Y-66165406D01*
X52193126Y-66165406D02*
X52335984Y-66236835D01*
X52335984Y-66236835D02*
X52407412Y-66308263D01*
X52407412Y-66308263D02*
X52478841Y-66451120D01*
X52478841Y-66451120D02*
X52478841Y-66593978D01*
X52478841Y-66593978D02*
X52407412Y-66808263D01*
X52407412Y-66808263D02*
X51550269Y-67665406D01*
X51550269Y-67665406D02*
X52478841Y-67665406D01*
X53407412Y-66165406D02*
X53550269Y-66165406D01*
X53550269Y-66165406D02*
X53693126Y-66236835D01*
X53693126Y-66236835D02*
X53764555Y-66308263D01*
X53764555Y-66308263D02*
X53835983Y-66451120D01*
X53835983Y-66451120D02*
X53907412Y-66736835D01*
X53907412Y-66736835D02*
X53907412Y-67093978D01*
X53907412Y-67093978D02*
X53835983Y-67379692D01*
X53835983Y-67379692D02*
X53764555Y-67522549D01*
X53764555Y-67522549D02*
X53693126Y-67593978D01*
X53693126Y-67593978D02*
X53550269Y-67665406D01*
X53550269Y-67665406D02*
X53407412Y-67665406D01*
X53407412Y-67665406D02*
X53264555Y-67593978D01*
X53264555Y-67593978D02*
X53193126Y-67522549D01*
X53193126Y-67522549D02*
X53121697Y-67379692D01*
X53121697Y-67379692D02*
X53050269Y-67093978D01*
X53050269Y-67093978D02*
X53050269Y-66736835D01*
X53050269Y-66736835D02*
X53121697Y-66451120D01*
X53121697Y-66451120D02*
X53193126Y-66308263D01*
X53193126Y-66308263D02*
X53264555Y-66236835D01*
X53264555Y-66236835D02*
X53407412Y-66165406D01*
X54835983Y-66165406D02*
X54978840Y-66165406D01*
X54978840Y-66165406D02*
X55121697Y-66236835D01*
X55121697Y-66236835D02*
X55193126Y-66308263D01*
X55193126Y-66308263D02*
X55264554Y-66451120D01*
X55264554Y-66451120D02*
X55335983Y-66736835D01*
X55335983Y-66736835D02*
X55335983Y-67093978D01*
X55335983Y-67093978D02*
X55264554Y-67379692D01*
X55264554Y-67379692D02*
X55193126Y-67522549D01*
X55193126Y-67522549D02*
X55121697Y-67593978D01*
X55121697Y-67593978D02*
X54978840Y-67665406D01*
X54978840Y-67665406D02*
X54835983Y-67665406D01*
X54835983Y-67665406D02*
X54693126Y-67593978D01*
X54693126Y-67593978D02*
X54621697Y-67522549D01*
X54621697Y-67522549D02*
X54550268Y-67379692D01*
X54550268Y-67379692D02*
X54478840Y-67093978D01*
X54478840Y-67093978D02*
X54478840Y-66736835D01*
X54478840Y-66736835D02*
X54550268Y-66451120D01*
X54550268Y-66451120D02*
X54621697Y-66308263D01*
X54621697Y-66308263D02*
X54693126Y-66236835D01*
X54693126Y-66236835D02*
X54835983Y-66165406D01*
X55835982Y-66165406D02*
X56835982Y-66165406D01*
X56835982Y-66165406D02*
X56193125Y-67665406D01*
X57264553Y-66165406D02*
X58193125Y-66165406D01*
X58193125Y-66165406D02*
X57693125Y-66736835D01*
X57693125Y-66736835D02*
X57907410Y-66736835D01*
X57907410Y-66736835D02*
X58050268Y-66808263D01*
X58050268Y-66808263D02*
X58121696Y-66879692D01*
X58121696Y-66879692D02*
X58193125Y-67022549D01*
X58193125Y-67022549D02*
X58193125Y-67379692D01*
X58193125Y-67379692D02*
X58121696Y-67522549D01*
X58121696Y-67522549D02*
X58050268Y-67593978D01*
X58050268Y-67593978D02*
X57907410Y-67665406D01*
X57907410Y-67665406D02*
X57478839Y-67665406D01*
X57478839Y-67665406D02*
X57335982Y-67593978D01*
X57335982Y-67593978D02*
X57264553Y-67522549D01*
X58478839Y-67808263D02*
X59621696Y-67808263D01*
X59764553Y-66165406D02*
X60621696Y-66165406D01*
X60193124Y-67665406D02*
X60193124Y-66165406D01*
X61121695Y-67665406D02*
X61121695Y-66665406D01*
X61121695Y-66165406D02*
X61050267Y-66236835D01*
X61050267Y-66236835D02*
X61121695Y-66308263D01*
X61121695Y-66308263D02*
X61193124Y-66236835D01*
X61193124Y-66236835D02*
X61121695Y-66165406D01*
X61121695Y-66165406D02*
X61121695Y-66308263D01*
X61835981Y-66665406D02*
X61835981Y-67665406D01*
X61835981Y-66808263D02*
X61907410Y-66736835D01*
X61907410Y-66736835D02*
X62050267Y-66665406D01*
X62050267Y-66665406D02*
X62264553Y-66665406D01*
X62264553Y-66665406D02*
X62407410Y-66736835D01*
X62407410Y-66736835D02*
X62478839Y-66879692D01*
X62478839Y-66879692D02*
X62478839Y-67665406D01*
X63050267Y-66665406D02*
X63407410Y-67665406D01*
X63764553Y-66665406D02*
X63407410Y-67665406D01*
X63407410Y-67665406D02*
X63264553Y-68022549D01*
X63264553Y-68022549D02*
X63193124Y-68093978D01*
X63193124Y-68093978D02*
X63050267Y-68165406D01*
X63978839Y-67808263D02*
X65121696Y-67808263D01*
X65978838Y-66879692D02*
X66193124Y-66951120D01*
X66193124Y-66951120D02*
X66264553Y-67022549D01*
X66264553Y-67022549D02*
X66335981Y-67165406D01*
X66335981Y-67165406D02*
X66335981Y-67379692D01*
X66335981Y-67379692D02*
X66264553Y-67522549D01*
X66264553Y-67522549D02*
X66193124Y-67593978D01*
X66193124Y-67593978D02*
X66050267Y-67665406D01*
X66050267Y-67665406D02*
X65478838Y-67665406D01*
X65478838Y-67665406D02*
X65478838Y-66165406D01*
X65478838Y-66165406D02*
X65978838Y-66165406D01*
X65978838Y-66165406D02*
X66121696Y-66236835D01*
X66121696Y-66236835D02*
X66193124Y-66308263D01*
X66193124Y-66308263D02*
X66264553Y-66451120D01*
X66264553Y-66451120D02*
X66264553Y-66593978D01*
X66264553Y-66593978D02*
X66193124Y-66736835D01*
X66193124Y-66736835D02*
X66121696Y-66808263D01*
X66121696Y-66808263D02*
X65978838Y-66879692D01*
X65978838Y-66879692D02*
X65478838Y-66879692D01*
X67193124Y-67665406D02*
X67050267Y-67593978D01*
X67050267Y-67593978D02*
X66978838Y-67522549D01*
X66978838Y-67522549D02*
X66907410Y-67379692D01*
X66907410Y-67379692D02*
X66907410Y-66951120D01*
X66907410Y-66951120D02*
X66978838Y-66808263D01*
X66978838Y-66808263D02*
X67050267Y-66736835D01*
X67050267Y-66736835D02*
X67193124Y-66665406D01*
X67193124Y-66665406D02*
X67407410Y-66665406D01*
X67407410Y-66665406D02*
X67550267Y-66736835D01*
X67550267Y-66736835D02*
X67621696Y-66808263D01*
X67621696Y-66808263D02*
X67693124Y-66951120D01*
X67693124Y-66951120D02*
X67693124Y-67379692D01*
X67693124Y-67379692D02*
X67621696Y-67522549D01*
X67621696Y-67522549D02*
X67550267Y-67593978D01*
X67550267Y-67593978D02*
X67407410Y-67665406D01*
X67407410Y-67665406D02*
X67193124Y-67665406D01*
X68978839Y-67665406D02*
X68978839Y-66879692D01*
X68978839Y-66879692D02*
X68907410Y-66736835D01*
X68907410Y-66736835D02*
X68764553Y-66665406D01*
X68764553Y-66665406D02*
X68478839Y-66665406D01*
X68478839Y-66665406D02*
X68335981Y-66736835D01*
X68978839Y-67593978D02*
X68835981Y-67665406D01*
X68835981Y-67665406D02*
X68478839Y-67665406D01*
X68478839Y-67665406D02*
X68335981Y-67593978D01*
X68335981Y-67593978D02*
X68264553Y-67451120D01*
X68264553Y-67451120D02*
X68264553Y-67308263D01*
X68264553Y-67308263D02*
X68335981Y-67165406D01*
X68335981Y-67165406D02*
X68478839Y-67093978D01*
X68478839Y-67093978D02*
X68835981Y-67093978D01*
X68835981Y-67093978D02*
X68978839Y-67022549D01*
X69693124Y-67665406D02*
X69693124Y-66665406D01*
X69693124Y-66951120D02*
X69764553Y-66808263D01*
X69764553Y-66808263D02*
X69835982Y-66736835D01*
X69835982Y-66736835D02*
X69978839Y-66665406D01*
X69978839Y-66665406D02*
X70121696Y-66665406D01*
X71264553Y-67665406D02*
X71264553Y-66165406D01*
X71264553Y-67593978D02*
X71121695Y-67665406D01*
X71121695Y-67665406D02*
X70835981Y-67665406D01*
X70835981Y-67665406D02*
X70693124Y-67593978D01*
X70693124Y-67593978D02*
X70621695Y-67522549D01*
X70621695Y-67522549D02*
X70550267Y-67379692D01*
X70550267Y-67379692D02*
X70550267Y-66951120D01*
X70550267Y-66951120D02*
X70621695Y-66808263D01*
X70621695Y-66808263D02*
X70693124Y-66736835D01*
X70693124Y-66736835D02*
X70835981Y-66665406D01*
X70835981Y-66665406D02*
X71121695Y-66665406D01*
X71121695Y-66665406D02*
X71264553Y-66736835D01*
X71978838Y-67522549D02*
X72050267Y-67593978D01*
X72050267Y-67593978D02*
X71978838Y-67665406D01*
X71978838Y-67665406D02*
X71907410Y-67593978D01*
X71907410Y-67593978D02*
X71978838Y-67522549D01*
X71978838Y-67522549D02*
X71978838Y-67665406D01*
X72693124Y-67665406D02*
X72693124Y-66165406D01*
X72835982Y-67093978D02*
X73264553Y-67665406D01*
X73264553Y-66665406D02*
X72693124Y-67236835D01*
X73907410Y-67665406D02*
X73907410Y-66665406D01*
X73907410Y-66165406D02*
X73835982Y-66236835D01*
X73835982Y-66236835D02*
X73907410Y-66308263D01*
X73907410Y-66308263D02*
X73978839Y-66236835D01*
X73978839Y-66236835D02*
X73907410Y-66165406D01*
X73907410Y-66165406D02*
X73907410Y-66308263D01*
X75264554Y-67593978D02*
X75121696Y-67665406D01*
X75121696Y-67665406D02*
X74835982Y-67665406D01*
X74835982Y-67665406D02*
X74693125Y-67593978D01*
X74693125Y-67593978D02*
X74621696Y-67522549D01*
X74621696Y-67522549D02*
X74550268Y-67379692D01*
X74550268Y-67379692D02*
X74550268Y-66951120D01*
X74550268Y-66951120D02*
X74621696Y-66808263D01*
X74621696Y-66808263D02*
X74693125Y-66736835D01*
X74693125Y-66736835D02*
X74835982Y-66665406D01*
X74835982Y-66665406D02*
X75121696Y-66665406D01*
X75121696Y-66665406D02*
X75264554Y-66736835D01*
X76550268Y-67665406D02*
X76550268Y-66879692D01*
X76550268Y-66879692D02*
X76478839Y-66736835D01*
X76478839Y-66736835D02*
X76335982Y-66665406D01*
X76335982Y-66665406D02*
X76050268Y-66665406D01*
X76050268Y-66665406D02*
X75907410Y-66736835D01*
X76550268Y-67593978D02*
X76407410Y-67665406D01*
X76407410Y-67665406D02*
X76050268Y-67665406D01*
X76050268Y-67665406D02*
X75907410Y-67593978D01*
X75907410Y-67593978D02*
X75835982Y-67451120D01*
X75835982Y-67451120D02*
X75835982Y-67308263D01*
X75835982Y-67308263D02*
X75907410Y-67165406D01*
X75907410Y-67165406D02*
X76050268Y-67093978D01*
X76050268Y-67093978D02*
X76407410Y-67093978D01*
X76407410Y-67093978D02*
X76550268Y-67022549D01*
X77907411Y-67665406D02*
X77907411Y-66165406D01*
X77907411Y-67593978D02*
X77764553Y-67665406D01*
X77764553Y-67665406D02*
X77478839Y-67665406D01*
X77478839Y-67665406D02*
X77335982Y-67593978D01*
X77335982Y-67593978D02*
X77264553Y-67522549D01*
X77264553Y-67522549D02*
X77193125Y-67379692D01*
X77193125Y-67379692D02*
X77193125Y-66951120D01*
X77193125Y-66951120D02*
X77264553Y-66808263D01*
X77264553Y-66808263D02*
X77335982Y-66736835D01*
X77335982Y-66736835D02*
X77478839Y-66665406D01*
X77478839Y-66665406D02*
X77764553Y-66665406D01*
X77764553Y-66665406D02*
X77907411Y-66736835D01*
X78264554Y-67808263D02*
X79407411Y-67808263D01*
X79764553Y-66665406D02*
X79764553Y-68165406D01*
X79764553Y-66736835D02*
X79907411Y-66665406D01*
X79907411Y-66665406D02*
X80193125Y-66665406D01*
X80193125Y-66665406D02*
X80335982Y-66736835D01*
X80335982Y-66736835D02*
X80407411Y-66808263D01*
X80407411Y-66808263D02*
X80478839Y-66951120D01*
X80478839Y-66951120D02*
X80478839Y-67379692D01*
X80478839Y-67379692D02*
X80407411Y-67522549D01*
X80407411Y-67522549D02*
X80335982Y-67593978D01*
X80335982Y-67593978D02*
X80193125Y-67665406D01*
X80193125Y-67665406D02*
X79907411Y-67665406D01*
X79907411Y-67665406D02*
X79764553Y-67593978D01*
X81764554Y-67593978D02*
X81621696Y-67665406D01*
X81621696Y-67665406D02*
X81335982Y-67665406D01*
X81335982Y-67665406D02*
X81193125Y-67593978D01*
X81193125Y-67593978D02*
X81121696Y-67522549D01*
X81121696Y-67522549D02*
X81050268Y-67379692D01*
X81050268Y-67379692D02*
X81050268Y-66951120D01*
X81050268Y-66951120D02*
X81121696Y-66808263D01*
X81121696Y-66808263D02*
X81193125Y-66736835D01*
X81193125Y-66736835D02*
X81335982Y-66665406D01*
X81335982Y-66665406D02*
X81621696Y-66665406D01*
X81621696Y-66665406D02*
X81764554Y-66736835D01*
X82407410Y-67665406D02*
X82407410Y-66165406D01*
X82407410Y-66736835D02*
X82550268Y-66665406D01*
X82550268Y-66665406D02*
X82835982Y-66665406D01*
X82835982Y-66665406D02*
X82978839Y-66736835D01*
X82978839Y-66736835D02*
X83050268Y-66808263D01*
X83050268Y-66808263D02*
X83121696Y-66951120D01*
X83121696Y-66951120D02*
X83121696Y-67379692D01*
X83121696Y-67379692D02*
X83050268Y-67522549D01*
X83050268Y-67522549D02*
X82978839Y-67593978D01*
X82978839Y-67593978D02*
X82835982Y-67665406D01*
X82835982Y-67665406D02*
X82550268Y-67665406D01*
X82550268Y-67665406D02*
X82407410Y-67593978D01*
D10*
D11*
X40023015Y-62779278D02*
X148023015Y-62779278D01*
D10*
D11*
X41407413Y-64893978D02*
X41621699Y-64965406D01*
X41621699Y-64965406D02*
X41978841Y-64965406D01*
X41978841Y-64965406D02*
X42121699Y-64893978D01*
X42121699Y-64893978D02*
X42193127Y-64822549D01*
X42193127Y-64822549D02*
X42264556Y-64679692D01*
X42264556Y-64679692D02*
X42264556Y-64536835D01*
X42264556Y-64536835D02*
X42193127Y-64393978D01*
X42193127Y-64393978D02*
X42121699Y-64322549D01*
X42121699Y-64322549D02*
X41978841Y-64251120D01*
X41978841Y-64251120D02*
X41693127Y-64179692D01*
X41693127Y-64179692D02*
X41550270Y-64108263D01*
X41550270Y-64108263D02*
X41478841Y-64036835D01*
X41478841Y-64036835D02*
X41407413Y-63893978D01*
X41407413Y-63893978D02*
X41407413Y-63751120D01*
X41407413Y-63751120D02*
X41478841Y-63608263D01*
X41478841Y-63608263D02*
X41550270Y-63536835D01*
X41550270Y-63536835D02*
X41693127Y-63465406D01*
X41693127Y-63465406D02*
X42050270Y-63465406D01*
X42050270Y-63465406D02*
X42264556Y-63536835D01*
X42907412Y-64965406D02*
X42907412Y-63465406D01*
X43550270Y-64965406D02*
X43550270Y-64179692D01*
X43550270Y-64179692D02*
X43478841Y-64036835D01*
X43478841Y-64036835D02*
X43335984Y-63965406D01*
X43335984Y-63965406D02*
X43121698Y-63965406D01*
X43121698Y-63965406D02*
X42978841Y-64036835D01*
X42978841Y-64036835D02*
X42907412Y-64108263D01*
X44835984Y-64893978D02*
X44693127Y-64965406D01*
X44693127Y-64965406D02*
X44407413Y-64965406D01*
X44407413Y-64965406D02*
X44264555Y-64893978D01*
X44264555Y-64893978D02*
X44193127Y-64751120D01*
X44193127Y-64751120D02*
X44193127Y-64179692D01*
X44193127Y-64179692D02*
X44264555Y-64036835D01*
X44264555Y-64036835D02*
X44407413Y-63965406D01*
X44407413Y-63965406D02*
X44693127Y-63965406D01*
X44693127Y-63965406D02*
X44835984Y-64036835D01*
X44835984Y-64036835D02*
X44907413Y-64179692D01*
X44907413Y-64179692D02*
X44907413Y-64322549D01*
X44907413Y-64322549D02*
X44193127Y-64465406D01*
X46121698Y-64893978D02*
X45978841Y-64965406D01*
X45978841Y-64965406D02*
X45693127Y-64965406D01*
X45693127Y-64965406D02*
X45550269Y-64893978D01*
X45550269Y-64893978D02*
X45478841Y-64751120D01*
X45478841Y-64751120D02*
X45478841Y-64179692D01*
X45478841Y-64179692D02*
X45550269Y-64036835D01*
X45550269Y-64036835D02*
X45693127Y-63965406D01*
X45693127Y-63965406D02*
X45978841Y-63965406D01*
X45978841Y-63965406D02*
X46121698Y-64036835D01*
X46121698Y-64036835D02*
X46193127Y-64179692D01*
X46193127Y-64179692D02*
X46193127Y-64322549D01*
X46193127Y-64322549D02*
X45478841Y-64465406D01*
X46621698Y-63965406D02*
X47193126Y-63965406D01*
X46835983Y-63465406D02*
X46835983Y-64751120D01*
X46835983Y-64751120D02*
X46907412Y-64893978D01*
X46907412Y-64893978D02*
X47050269Y-64965406D01*
X47050269Y-64965406D02*
X47193126Y-64965406D01*
X47693126Y-64822549D02*
X47764555Y-64893978D01*
X47764555Y-64893978D02*
X47693126Y-64965406D01*
X47693126Y-64965406D02*
X47621698Y-64893978D01*
X47621698Y-64893978D02*
X47693126Y-64822549D01*
X47693126Y-64822549D02*
X47693126Y-64965406D01*
X47693126Y-64036835D02*
X47764555Y-64108263D01*
X47764555Y-64108263D02*
X47693126Y-64179692D01*
X47693126Y-64179692D02*
X47621698Y-64108263D01*
X47621698Y-64108263D02*
X47693126Y-64036835D01*
X47693126Y-64036835D02*
X47693126Y-64179692D01*
D10*
D11*
X60023015Y-72779278D02*
X60023015Y-75779278D01*
D10*
D11*
X124023015Y-72779278D02*
X124023015Y-79279278D01*
D14*
X7363961Y17970563D03*
X10899495Y8778175D03*
X20091883Y19384776D03*
X20919198Y5051722D03*
X18677669Y20798990D03*
X17263456Y5242641D03*
X14625947Y11330830D03*
X5242640Y17263456D03*
X10899495Y4535534D03*
X6338656Y8247844D03*
X11606601Y10899495D03*
X18677669Y15142136D03*
X9485281Y17263456D03*
X5949747Y19384776D03*
X3828427Y8778175D03*
X7363961Y22213203D03*
X14435029Y3828427D03*
X10192388Y8071068D03*
X22213203Y18677669D03*
X7363961Y20798990D03*
X3828427Y10192388D03*
X15849242Y19384776D03*
X12270815Y19938990D03*
X4535534Y17970563D03*
X21506096Y9485281D03*
X9485281Y4535534D03*
X17263456Y22213203D03*
X14435029Y22213203D03*
X7363961Y9485281D03*
X18677669Y22213203D03*
X19384776Y5949747D03*
X10192388Y10899495D03*
X5242640Y20091883D03*
X13727922Y4535534D03*
X18677669Y3828427D03*
X5242640Y18677669D03*
X8071068Y22920310D03*
X17970562Y20091883D03*
X16556349Y20091883D03*
X19384776Y20091883D03*
D15*
X5548498Y15693679D03*
D14*
X6656854Y18677669D03*
X21506096Y19384776D03*
X8778174Y3828427D03*
X5949747Y17970563D03*
X20798990Y8778175D03*
X13020815Y8071068D03*
D15*
X4758801Y12379655D03*
D14*
X18677669Y6656854D03*
X8389266Y6197235D03*
X11606601Y3828427D03*
X16556349Y21506097D03*
X4535534Y16556349D03*
X17970562Y4535534D03*
X22920310Y9485281D03*
X11125769Y19913305D03*
X13020815Y5242641D03*
D15*
X15710508Y9807863D03*
D14*
X20091883Y5242641D03*
X11606601Y5242641D03*
X8778174Y20798990D03*
X13770815Y21658990D03*
D15*
X16665102Y7877462D03*
D14*
X10192388Y3828427D03*
X16556349Y22920310D03*
X15849242Y22213203D03*
X20091883Y17970563D03*
D15*
X17192745Y6925555D03*
D14*
X3828427Y15849242D03*
X14435029Y5242641D03*
X8071068Y4535534D03*
X22213203Y10192388D03*
X8778174Y19384776D03*
X9485281Y20091883D03*
X13727922Y5949747D03*
D15*
X17153006Y8365366D03*
D14*
X5242640Y7363961D03*
X12313708Y4535534D03*
D15*
X14625947Y8969093D03*
D14*
X6656854Y22920310D03*
X4535534Y8071068D03*
X7682159Y6904342D03*
X3828427Y17263456D03*
X8071068Y18677669D03*
X5949747Y16556349D03*
X8071068Y10192388D03*
X6656854Y17263456D03*
X19384776Y21506097D03*
D15*
X16789694Y7300321D03*
D14*
X22213203Y11606602D03*
X20091883Y20798990D03*
D15*
X19915106Y14442100D03*
D14*
X3828427Y20091883D03*
D15*
X18239263Y8933738D03*
D14*
X15142135Y22920310D03*
X22920310Y17970563D03*
X20487863Y6529575D03*
X13609515Y22510188D03*
X10192388Y9485281D03*
X7279108Y10362094D03*
X8071068Y21506097D03*
X21506096Y8071068D03*
X4535534Y9485281D03*
D15*
X15618584Y10932163D03*
D16*
X13020815Y13727922D03*
D15*
X18554541Y11714196D03*
D14*
X13020815Y3828427D03*
D15*
X17716004Y11931871D03*
D14*
X7363961Y19384776D03*
X20798990Y10192388D03*
X13727922Y8778175D03*
X15849242Y20798990D03*
X19384776Y18677669D03*
X17263456Y3828427D03*
X17263456Y20798990D03*
X22920310Y8071068D03*
X13270815Y19938990D03*
X19384776Y15849242D03*
X22213203Y8778175D03*
X3828427Y18677669D03*
X16556349Y4535534D03*
X22213203Y7363961D03*
X18677669Y5242641D03*
X12313708Y10192388D03*
X10192388Y5242641D03*
X11606601Y9485281D03*
X8672108Y12525840D03*
X10899495Y11606602D03*
X5589123Y9011520D03*
X17970562Y5949747D03*
X15142135Y5949747D03*
X17970562Y22920310D03*
X17970562Y21506097D03*
X20091883Y9485281D03*
X12106415Y21048990D03*
X11406810Y22531401D03*
D15*
X16155985Y7382487D03*
D14*
X19215070Y7802367D03*
X19384776Y4535534D03*
X8071068Y20091883D03*
X20798990Y20091883D03*
X15142135Y21506097D03*
X21506096Y10899495D03*
X4535534Y19384776D03*
X16556349Y5949747D03*
X22920310Y10899495D03*
D15*
X17878639Y9082230D03*
X16452970Y8570427D03*
D14*
X3934493Y4500179D03*
X14682516Y20056528D03*
X13935215Y21048990D03*
X6041671Y9464068D03*
X10234814Y20318157D03*
X4758801Y13729654D03*
X15820958Y11634886D03*
D15*
X19667619Y16980613D03*
D14*
X11210622Y7887220D03*
X19007089Y11261648D03*
X10042128Y17820302D03*
D15*
X18367391Y10422056D03*
D14*
X22609183Y16980613D03*
X22552614Y15707821D03*
D15*
X17943127Y10422056D03*
X20077741Y15000714D03*
X17943127Y9997792D03*
X16801701Y13047699D03*
X17095075Y10421400D03*
D14*
X12766257Y19215071D03*
X11168195Y6939697D03*
D15*
X17094599Y10846320D03*
X17150319Y11733881D03*
D14*
X11663170Y7434672D03*
X12257140Y19229213D03*
D15*
X17094031Y11270017D03*
D14*
X16556349Y17263456D03*
X16414928Y19243355D03*
D15*
X18076628Y12603622D03*
X17094599Y9573528D03*
X17517134Y9574291D03*
D14*
X8000357Y11083343D03*
D15*
X5658801Y13729654D03*
D14*
X14555237Y18133197D03*
D15*
X5658801Y12379655D03*
D14*
X15021927Y17680649D03*
X10259563Y12486950D03*
D15*
X16421999Y11656099D03*
X17518863Y9997792D03*
D14*
X14385531Y7187184D03*
D15*
X16670335Y10422056D03*
X16220214Y12464336D03*
D17*
X19455487Y13826917D02*
X19455487Y14746156D01*
X18967583Y12603622D02*
X18967583Y13339013D01*
X19773685Y11274261D02*
X19773685Y11797520D01*
X18024585Y10079251D02*
X18578674Y10079251D01*
X17943127Y9997792D02*
X18024585Y10079251D01*
X18578674Y10079251D02*
X19773685Y11274261D01*
X18967583Y13339013D02*
X19455487Y13826917D01*
X19710045Y15000714D02*
X20077741Y15000714D01*
X19455487Y14746156D02*
X19710045Y15000714D01*
X19773685Y11797520D02*
X18967583Y12603622D01*
D18*
X11373256Y6621499D02*
X11196480Y6444722D01*
D17*
X13932983Y10468160D02*
X11634886Y8170063D01*
X15948237Y10842926D02*
X15573470Y10468160D01*
X11634886Y7858936D02*
X11026774Y7250824D01*
X15573470Y10468160D02*
X13932983Y10468160D01*
D18*
X11196480Y6444722D02*
X10673220Y6444722D01*
D17*
X17094599Y10846320D02*
X17091204Y10842926D01*
D18*
X10673220Y6444722D02*
X9350931Y7767012D01*
X9350931Y15658324D02*
X12766257Y19073649D01*
D17*
X11026774Y7250824D02*
X11026774Y7081118D01*
D18*
X11168195Y6939697D02*
X11373256Y6734636D01*
D17*
X17091204Y10842926D02*
X15948237Y10842926D01*
D18*
X11373256Y6734636D02*
X11373256Y6621499D01*
D17*
X11026774Y7081118D02*
X11168195Y6939697D01*
X11634886Y8170063D02*
X11634886Y7858936D01*
D18*
X9350931Y7767012D02*
X9350931Y15658324D01*
X12766257Y19073649D02*
X12766257Y19215071D01*
X11472251Y7102331D02*
X11677312Y6897270D01*
X12257140Y18974654D02*
X12257140Y19229213D01*
D17*
X11663170Y7434672D02*
X11797520Y7300321D01*
D18*
X11677312Y6572001D02*
X11224764Y6119453D01*
X11224764Y6119453D02*
X10659078Y6119453D01*
X9053946Y15771461D02*
X9428713Y16146227D01*
X9053946Y8205418D02*
X9053946Y15771461D01*
X11797520Y7300321D02*
X12179358Y7300321D01*
X17058395Y9959043D02*
X17426090Y10326738D01*
X17358931Y11256568D02*
X17358931Y11525268D01*
X10659078Y6119453D02*
X9053946Y7724585D01*
X11535891Y7307392D02*
X11472251Y7243753D01*
X17358931Y11525268D02*
X17150319Y11733881D01*
X12455130Y7576093D02*
X14406744Y7576093D01*
X9428713Y16146227D02*
X12257140Y18974654D01*
X17426090Y11189409D02*
X17358931Y11256568D01*
X11663170Y7434672D02*
X11535891Y7307392D01*
X11535891Y7307392D02*
X11790449Y7307392D01*
X14406744Y7576093D02*
X16789694Y9959043D01*
X17426090Y10326738D02*
X17426090Y11189409D01*
X16789694Y9959043D02*
X17058395Y9959043D01*
X9053946Y7724585D02*
X9053946Y8205418D01*
X11677312Y6897270D02*
X11677312Y6572001D01*
X12179358Y7300321D02*
X12455130Y7576093D01*
X11790449Y7307392D02*
X11797520Y7300321D01*
X11472251Y7243753D02*
X11472251Y7102331D01*
D17*
X17899852Y12893536D02*
X17899852Y15919953D01*
X17899852Y15919953D02*
X16556349Y17263456D01*
X16846263Y11839947D02*
X17899852Y12893536D01*
X16846263Y11500536D02*
X16846263Y11839947D01*
X17094031Y11270017D02*
X17076782Y11270017D01*
X17076782Y11270017D02*
X16846263Y11500536D01*
X18232192Y18416040D02*
X17404877Y19243355D01*
X18076628Y12603622D02*
X18232192Y12759186D01*
X17404877Y19243355D02*
X16414928Y19243355D01*
X18232192Y12759186D02*
X18232192Y18416040D01*
X16513922Y9174154D02*
X17116997Y9174154D01*
X8686250Y7653875D02*
X10524728Y5815397D01*
X14809795Y6748778D02*
X15771460Y7710443D01*
X15771460Y8431692D02*
X16513922Y9174154D01*
X15771460Y7710443D02*
X15771460Y8431692D01*
X14215825Y6748778D02*
X14809795Y6748778D01*
X11359114Y5815397D02*
X12773328Y7229611D01*
X8686250Y10397449D02*
X8686250Y7653875D01*
X8000357Y11083343D02*
X8686250Y10397449D01*
X10524728Y5815397D02*
X11359114Y5815397D01*
X17116997Y9174154D02*
X17517134Y9574291D01*
X12773328Y7229611D02*
X13734993Y7229611D01*
X13734993Y7229611D02*
X14215825Y6748778D01*
G04 #@! TA.AperFunction,Conductor*
G36*
X16237874Y10497741D02*
G01*
X16283629Y10444937D01*
X16294835Y10393426D01*
X16294835Y10372621D01*
X16320425Y10277118D01*
X16360506Y10207695D01*
X16369861Y10191493D01*
X16395835Y10165519D01*
X16429320Y10104196D01*
X16424336Y10034504D01*
X16395835Y9990157D01*
X14318592Y7912912D01*
X14257269Y7879427D01*
X14230911Y7876593D01*
X12415568Y7876593D01*
X12339140Y7856115D01*
X12270619Y7816554D01*
X12171722Y7717656D01*
X12152184Y7706989D01*
X12135334Y7692444D01*
X12122115Y7690570D01*
X12110399Y7684172D01*
X12088198Y7685760D01*
X12066157Y7682634D01*
X12054023Y7688204D01*
X12040707Y7689156D01*
X12022887Y7702496D01*
X12002657Y7711782D01*
X11995460Y7723029D01*
X11984774Y7731028D01*
X11976995Y7751883D01*
X11964997Y7770633D01*
X11963706Y7787514D01*
X11960357Y7796493D01*
X11960041Y7805578D01*
X11960058Y7814863D01*
X11960386Y7816083D01*
X11960386Y7901789D01*
X11960386Y7984114D01*
X11970348Y8017803D01*
X11980071Y8050913D01*
X11980180Y8051049D01*
X11980200Y8051115D01*
X11980310Y8051211D01*
X11996705Y8071555D01*
X14031491Y10106341D01*
X14092814Y10139826D01*
X14119172Y10142660D01*
X15616321Y10142660D01*
X15616322Y10142660D01*
X15616323Y10142660D01*
X15699108Y10164842D01*
X15773332Y10207695D01*
X15833935Y10268298D01*
X15833935Y10268299D01*
X15851363Y10285727D01*
X15851368Y10285734D01*
X16046745Y10481108D01*
X16073675Y10495813D01*
X16099491Y10512403D01*
X16105693Y10513295D01*
X16108069Y10514592D01*
X16134426Y10517426D01*
X16170835Y10517426D01*
X16237874Y10497741D01*
G37*
G04 #@! TD.AperFunction*
G04 #@! TA.AperFunction,Conductor*
G36*
X18597088Y12547946D02*
G01*
X18650970Y12503465D01*
X18662845Y12481410D01*
X18664263Y12477986D01*
X18675407Y12458685D01*
X18707118Y12403760D01*
X18707120Y12403758D01*
X19263852Y11847026D01*
X19297337Y11785703D01*
X19292353Y11716011D01*
X19250481Y11660078D01*
X19185017Y11635661D01*
X19144079Y11639570D01*
X19059816Y11662148D01*
X18954362Y11662148D01*
X18852502Y11634855D01*
X18852499Y11634854D01*
X18761174Y11582127D01*
X18686610Y11507563D01*
X18633883Y11416238D01*
X18633882Y11416235D01*
X18606589Y11314375D01*
X18606589Y11208921D01*
X18633882Y11107061D01*
X18678017Y11030616D01*
X18686610Y11015734D01*
X18761176Y10941168D01*
X18767622Y10936222D01*
X18766639Y10934942D01*
X18777373Y10923685D01*
X18797390Y10908700D01*
X18801069Y10898836D01*
X18808335Y10891216D01*
X18813068Y10866666D01*
X18821807Y10843236D01*
X18819568Y10832948D01*
X18821562Y10822610D01*
X18812270Y10799397D01*
X18806955Y10774963D01*
X18797359Y10762146D01*
X18795598Y10757744D01*
X18785804Y10746709D01*
X18767458Y10728363D01*
X18706135Y10694878D01*
X18636443Y10699862D01*
X18604296Y10717664D01*
X18597954Y10722530D01*
X18597953Y10722531D01*
X18512329Y10771966D01*
X18416826Y10797556D01*
X18317956Y10797556D01*
X18222453Y10771966D01*
X18222451Y10771966D01*
X18222451Y10771965D01*
X18222448Y10771964D01*
X18217254Y10768965D01*
X18149353Y10752496D01*
X18093264Y10768965D01*
X18088069Y10771964D01*
X18088067Y10771965D01*
X18088065Y10771966D01*
X17992562Y10797556D01*
X17893692Y10797556D01*
X17893690Y10797556D01*
X17882682Y10794606D01*
X17812832Y10796269D01*
X17754970Y10835433D01*
X17727467Y10899661D01*
X17726590Y10914381D01*
X17726590Y11228970D01*
X17725937Y11231408D01*
X17706111Y11305398D01*
X17677113Y11355624D01*
X17676043Y11357478D01*
X17659431Y11419477D01*
X17659431Y11564828D01*
X17659430Y11564833D01*
X17649629Y11601413D01*
X17649629Y11601414D01*
X17639404Y11639570D01*
X17638953Y11641255D01*
X17599392Y11709778D01*
X17549300Y11759870D01*
X17542958Y11769935D01*
X17536399Y11775031D01*
X17526164Y11796589D01*
X17520042Y11806306D01*
X17518444Y11810835D01*
X17500229Y11878819D01*
X17485418Y11904472D01*
X17481602Y11915292D01*
X17480322Y11939182D01*
X17474681Y11962436D01*
X17478488Y11973438D01*
X17477866Y11985062D01*
X17489707Y12005854D01*
X17497533Y12028463D01*
X17510854Y12044212D01*
X17730431Y12263789D01*
X17791752Y12297272D01*
X17861444Y12292288D01*
X17880098Y12283499D01*
X17914240Y12263787D01*
X17931686Y12253714D01*
X17931690Y12253712D01*
X18027193Y12228122D01*
X18027195Y12228122D01*
X18126060Y12228122D01*
X18126063Y12228122D01*
X18221566Y12253712D01*
X18307190Y12303147D01*
X18377103Y12373060D01*
X18426538Y12458684D01*
X18428508Y12466040D01*
X18464868Y12525701D01*
X18527712Y12556235D01*
X18597088Y12547946D01*
G37*
G04 #@! TD.AperFunction*
G04 #@! TA.AperFunction,Conductor*
G36*
X22371270Y26605669D02*
G01*
X22395098Y26600930D01*
X22535412Y26558366D01*
X22557861Y26549067D01*
X22687166Y26479952D01*
X22707376Y26466448D01*
X22825446Y26369552D01*
X22834458Y26361384D01*
X22850731Y26345110D01*
X22850732Y26345110D01*
X25654262Y23541580D01*
X25662436Y23532562D01*
X25759336Y23414485D01*
X25772840Y23394273D01*
X25841948Y23264976D01*
X25851250Y23242518D01*
X25893808Y23102215D01*
X25898550Y23078375D01*
X25912919Y22932471D01*
X25912919Y22908164D01*
X25898548Y22762257D01*
X25893805Y22738415D01*
X25851243Y22598110D01*
X25841941Y22575653D01*
X25772831Y22446358D01*
X25759326Y22426146D01*
X25662327Y22307952D01*
X25654155Y22298936D01*
X23866474Y20511255D01*
X23866317Y20511170D01*
X23767371Y20412182D01*
X23663089Y20268601D01*
X23663083Y20268591D01*
X23582535Y20110469D01*
X23527702Y19941704D01*
X23527698Y19941687D01*
X23499927Y19766423D01*
X23499927Y19766420D01*
X23499919Y19703038D01*
X23499917Y19703031D01*
X23499917Y19683323D01*
X23499917Y19683112D01*
X23499917Y19677672D01*
X23499911Y19634189D01*
X23499917Y19634138D01*
X23499917Y7829564D01*
X23499881Y7829442D01*
X23499886Y7689429D01*
X23499886Y7689428D01*
X23527657Y7514146D01*
X23527658Y7514139D01*
X23549232Y7447752D01*
X23551231Y7377911D01*
X23518984Y7321748D01*
X19426959Y3229723D01*
X19365636Y3196238D01*
X19300963Y3199472D01*
X19234588Y3221037D01*
X19234581Y3221039D01*
X19059314Y3248810D01*
X19005923Y3248817D01*
X19005923Y3248818D01*
X18995928Y3248819D01*
X18995924Y3248820D01*
X18970588Y3248820D01*
X18970582Y3248820D01*
X18927081Y3248826D01*
X18927031Y3248820D01*
X7122456Y3248820D01*
X7122333Y3248856D01*
X6982321Y3248851D01*
X6982320Y3248851D01*
X6807038Y3221080D01*
X6807031Y3221079D01*
X6638254Y3166232D01*
X6480125Y3085654D01*
X6480112Y3085646D01*
X6336547Y2981332D01*
X6336541Y2981327D01*
X6284215Y2928996D01*
X6284212Y2928993D01*
X4465956Y1110735D01*
X4449687Y1094466D01*
X4440670Y1086293D01*
X4322600Y989397D01*
X4302390Y975893D01*
X4173092Y906781D01*
X4150633Y897478D01*
X4010328Y854917D01*
X3986487Y850175D01*
X3840581Y835805D01*
X3816273Y835805D01*
X3670366Y850175D01*
X3646525Y854917D01*
X3506220Y897478D01*
X3483764Y906780D01*
X3354463Y975893D01*
X3334253Y989397D01*
X3216184Y1086293D01*
X3207169Y1094464D01*
X3198521Y1103111D01*
X3190899Y1110734D01*
X3190897Y1110735D01*
X387367Y3914265D01*
X379193Y3923283D01*
X282293Y4041360D01*
X268789Y4061572D01*
X199679Y4190874D01*
X190379Y4213327D01*
X147821Y4353630D01*
X143079Y4377470D01*
X128710Y4523376D01*
X128710Y4547683D01*
X129224Y4552904D01*
X129224Y4552906D01*
X3533993Y4552906D01*
X3533993Y4447452D01*
X3561286Y4345592D01*
X3614013Y4254266D01*
X3688580Y4179699D01*
X3779906Y4126972D01*
X3881766Y4099679D01*
X3881768Y4099679D01*
X3987218Y4099679D01*
X3987220Y4099679D01*
X4089080Y4126972D01*
X4180406Y4179699D01*
X4254973Y4254266D01*
X4307700Y4345592D01*
X4334993Y4447452D01*
X4334993Y4552906D01*
X4307700Y4654766D01*
X4254973Y4746092D01*
X4180406Y4820659D01*
X4089080Y4873386D01*
X3987220Y4900679D01*
X3881766Y4900679D01*
X3779906Y4873386D01*
X3779903Y4873385D01*
X3688578Y4820658D01*
X3614014Y4746094D01*
X3561287Y4654769D01*
X3561286Y4654766D01*
X3533993Y4552906D01*
X129224Y4552906D01*
X143082Y4693597D01*
X147824Y4717430D01*
X190386Y4857735D01*
X199688Y4880192D01*
X268798Y5009487D01*
X282303Y5029699D01*
X341170Y5101428D01*
X379321Y5147916D01*
X387468Y5156905D01*
X403627Y5173063D01*
X2483795Y7253232D01*
X2483802Y7253234D01*
X2504378Y7273814D01*
X2522302Y7291738D01*
X2522303Y7291742D01*
X2531111Y7300549D01*
X2531266Y7300740D01*
X2567099Y7336577D01*
X2671402Y7480151D01*
X2751968Y7638270D01*
X2806816Y7807044D01*
X2811167Y7834493D01*
X2834594Y7982312D01*
X2834594Y7982314D01*
X2834595Y7982318D01*
X2834603Y8045699D01*
X2834607Y8045707D01*
X2834607Y8071088D01*
X2834612Y8100149D01*
X2834611Y8100151D01*
X2834613Y8113376D01*
X2834607Y8113442D01*
X2834607Y9516795D01*
X5641171Y9516795D01*
X5641171Y9411341D01*
X5668464Y9309481D01*
X5721191Y9218155D01*
X5795758Y9143588D01*
X5887084Y9090861D01*
X5988944Y9063568D01*
X5988946Y9063568D01*
X6094396Y9063568D01*
X6094398Y9063568D01*
X6196258Y9090861D01*
X6287584Y9143588D01*
X6362151Y9218155D01*
X6414878Y9309481D01*
X6442171Y9411341D01*
X6442171Y9516795D01*
X6414878Y9618655D01*
X6362151Y9709981D01*
X6287584Y9784548D01*
X6196258Y9837275D01*
X6094398Y9864568D01*
X5988944Y9864568D01*
X5887084Y9837275D01*
X5887081Y9837274D01*
X5795756Y9784547D01*
X5721192Y9709983D01*
X5668465Y9618658D01*
X5668464Y9618655D01*
X5641171Y9516795D01*
X2834607Y9516795D01*
X2834607Y11136070D01*
X7599857Y11136070D01*
X7599857Y11030616D01*
X7627150Y10928756D01*
X7679877Y10837430D01*
X7754444Y10762863D01*
X7771695Y10752904D01*
X7791347Y10738838D01*
X7800300Y10731005D01*
X7800305Y10731001D01*
X8003105Y10614239D01*
X8028915Y10594458D01*
X8324431Y10298942D01*
X8357916Y10237619D01*
X8360750Y10211261D01*
X8360750Y7611023D01*
X8382932Y7528235D01*
X8404358Y7491125D01*
X8425785Y7454013D01*
X8425786Y7454012D01*
X8425787Y7454011D01*
X10259922Y5619877D01*
X10259932Y5619866D01*
X10264262Y5615536D01*
X10264263Y5615535D01*
X10324866Y5554932D01*
X10324868Y5554931D01*
X10324872Y5554928D01*
X10399083Y5512083D01*
X10399090Y5512079D01*
X10481876Y5489896D01*
X10481878Y5489896D01*
X10575177Y5489896D01*
X10575193Y5489897D01*
X11401965Y5489897D01*
X11401967Y5489897D01*
X11484753Y5512079D01*
X11558976Y5554932D01*
X12871835Y6867793D01*
X12933158Y6901277D01*
X12959516Y6904111D01*
X13548805Y6904111D01*
X13615844Y6884426D01*
X13636480Y6867797D01*
X14015963Y6488313D01*
X14090186Y6445460D01*
X14172972Y6423278D01*
X14172974Y6423278D01*
X14852646Y6423278D01*
X14852648Y6423278D01*
X14935434Y6445460D01*
X15009657Y6488313D01*
X15971319Y7449977D01*
X15971322Y7449978D01*
X16031925Y7510581D01*
X16057927Y7555618D01*
X16074778Y7584804D01*
X16096961Y7667590D01*
X16096961Y7753296D01*
X16096961Y7760891D01*
X16096960Y7760909D01*
X16096960Y8127606D01*
X16116645Y8194645D01*
X16169449Y8240400D01*
X16238607Y8250344D01*
X16282958Y8234994D01*
X16304132Y8222769D01*
X16308028Y8220519D01*
X16308032Y8220517D01*
X16403535Y8194927D01*
X16403537Y8194927D01*
X16502402Y8194927D01*
X16502405Y8194927D01*
X16597908Y8220517D01*
X16683532Y8269952D01*
X16753445Y8339865D01*
X16802880Y8425489D01*
X16828470Y8520992D01*
X16828470Y8619862D01*
X16808990Y8692563D01*
X16810653Y8762410D01*
X16849815Y8820273D01*
X16914044Y8847777D01*
X16928765Y8848654D01*
X17159848Y8848654D01*
X17159850Y8848654D01*
X17242636Y8870836D01*
X17316859Y8913689D01*
X17345552Y8942383D01*
X17406871Y8975866D01*
X17476563Y8970882D01*
X17532497Y8929012D01*
X17540616Y8916703D01*
X17578164Y8851668D01*
X17648077Y8781755D01*
X17733701Y8732320D01*
X17829204Y8706730D01*
X17829206Y8706730D01*
X17928071Y8706730D01*
X17928074Y8706730D01*
X18023577Y8732320D01*
X18109201Y8781755D01*
X18179114Y8851668D01*
X18228549Y8937292D01*
X18254139Y9032795D01*
X18254139Y9131665D01*
X18228549Y9227168D01*
X18179114Y9312792D01*
X18109201Y9382705D01*
X18048046Y9418013D01*
X17999832Y9468580D01*
X17986610Y9537187D01*
X18012578Y9602052D01*
X18054424Y9636223D01*
X18065728Y9641898D01*
X18088065Y9647882D01*
X18157329Y9687873D01*
X18160568Y9689498D01*
X18160792Y9689539D01*
X18162654Y9690520D01*
X18175500Y9696665D01*
X18199646Y9714741D01*
X18218724Y9729020D01*
X18284189Y9753435D01*
X18293032Y9753751D01*
X18621525Y9753751D01*
X18621527Y9753751D01*
X18704313Y9775933D01*
X18778536Y9818786D01*
X20034150Y11074399D01*
X20077003Y11148622D01*
X20099185Y11231408D01*
X20099185Y11317114D01*
X20099185Y11840373D01*
X20077003Y11923158D01*
X20067752Y11939182D01*
X20034154Y11997376D01*
X20034148Y11997384D01*
X19329402Y12702130D01*
X19295917Y12763453D01*
X19293083Y12789811D01*
X19293083Y13152824D01*
X19301727Y13182265D01*
X19308251Y13212251D01*
X19312005Y13217267D01*
X19312768Y13219863D01*
X19329402Y13240505D01*
X19372773Y13283876D01*
X19434096Y13317361D01*
X19503788Y13312377D01*
X19559721Y13270505D01*
X19584138Y13205041D01*
X19584454Y13196195D01*
X19584454Y13106477D01*
X19608386Y12986165D01*
X19608388Y12986157D01*
X19655334Y12872818D01*
X19655339Y12872809D01*
X19723493Y12770810D01*
X19723496Y12770806D01*
X19810238Y12684064D01*
X19810242Y12684061D01*
X19912241Y12615907D01*
X19912250Y12615902D01*
X19928247Y12609276D01*
X20025590Y12568955D01*
X20131209Y12547946D01*
X20145909Y12545022D01*
X20145912Y12545021D01*
X20145914Y12545021D01*
X20268596Y12545021D01*
X20268597Y12545022D01*
X20388918Y12568955D01*
X20502260Y12615903D01*
X20604266Y12684061D01*
X20691014Y12770809D01*
X20759172Y12872815D01*
X20806120Y12986157D01*
X20830054Y13106481D01*
X20830054Y13229161D01*
X20830054Y13229164D01*
X20830053Y13229166D01*
X21616454Y13229166D01*
X21616454Y13106477D01*
X21640386Y12986165D01*
X21640388Y12986157D01*
X21687334Y12872818D01*
X21687339Y12872809D01*
X21755493Y12770810D01*
X21755496Y12770806D01*
X21842238Y12684064D01*
X21842242Y12684061D01*
X21944241Y12615907D01*
X21944250Y12615902D01*
X21960247Y12609276D01*
X22057590Y12568955D01*
X22163209Y12547946D01*
X22177909Y12545022D01*
X22177912Y12545021D01*
X22177914Y12545021D01*
X22300596Y12545021D01*
X22300597Y12545022D01*
X22420918Y12568955D01*
X22534260Y12615903D01*
X22636266Y12684061D01*
X22723014Y12770809D01*
X22791172Y12872815D01*
X22838120Y12986157D01*
X22862054Y13106481D01*
X22862054Y13229161D01*
X22862054Y13229164D01*
X22862053Y13229166D01*
X22838120Y13349485D01*
X22791172Y13462827D01*
X22791171Y13462828D01*
X22791168Y13462834D01*
X22723014Y13564833D01*
X22723011Y13564837D01*
X22636269Y13651579D01*
X22636265Y13651582D01*
X22534266Y13719736D01*
X22534257Y13719741D01*
X22420918Y13766687D01*
X22420910Y13766689D01*
X22300597Y13790621D01*
X22300594Y13790621D01*
X22177914Y13790621D01*
X22177911Y13790621D01*
X22057597Y13766689D01*
X22057589Y13766687D01*
X21944250Y13719741D01*
X21944241Y13719736D01*
X21842242Y13651582D01*
X21842238Y13651579D01*
X21755496Y13564837D01*
X21755493Y13564833D01*
X21687339Y13462834D01*
X21687334Y13462825D01*
X21640388Y13349486D01*
X21640386Y13349478D01*
X21616454Y13229166D01*
X20830053Y13229166D01*
X20806120Y13349485D01*
X20759172Y13462827D01*
X20759171Y13462828D01*
X20759168Y13462834D01*
X20691014Y13564833D01*
X20691011Y13564837D01*
X20604269Y13651579D01*
X20604265Y13651582D01*
X20502266Y13719736D01*
X20502257Y13719741D01*
X20388918Y13766687D01*
X20388910Y13766689D01*
X20268597Y13790621D01*
X20268594Y13790621D01*
X20145914Y13790621D01*
X20145911Y13790621D01*
X20025597Y13766689D01*
X20025594Y13766688D01*
X20025593Y13766688D01*
X20025590Y13766687D01*
X19973722Y13745203D01*
X19952439Y13736387D01*
X19882969Y13728919D01*
X19820490Y13760195D01*
X19784838Y13820284D01*
X19780987Y13850949D01*
X19780987Y14521724D01*
X19786531Y14540606D01*
X19787132Y14560274D01*
X19796172Y14573440D01*
X19800672Y14588763D01*
X19815542Y14601649D01*
X19826683Y14617872D01*
X19841407Y14624061D01*
X19853476Y14634518D01*
X19872953Y14637319D01*
X19891095Y14644943D01*
X19917119Y14643670D01*
X19922634Y14644462D01*
X19926372Y14643866D01*
X19928581Y14643480D01*
X19988627Y14630675D01*
X19990102Y14630365D01*
X20004109Y14630256D01*
X20014238Y14628482D01*
X20016792Y14627220D01*
X20024950Y14626114D01*
X20028306Y14625214D01*
X20028307Y14625214D01*
X20127173Y14625214D01*
X20127176Y14625214D01*
X20222679Y14650804D01*
X20308303Y14700239D01*
X20378216Y14770152D01*
X20427651Y14855776D01*
X20453241Y14951279D01*
X20453241Y15050149D01*
X20427651Y15145652D01*
X20378216Y15231276D01*
X20308303Y15301189D01*
X20222679Y15350624D01*
X20127176Y15376214D01*
X20028306Y15376214D01*
X20028302Y15376214D01*
X20023849Y15375020D01*
X20015853Y15373159D01*
X20004765Y15370963D01*
X19988560Y15370740D01*
X19791678Y15328758D01*
X19790769Y15328577D01*
X19789861Y15328659D01*
X19766677Y15326214D01*
X19667192Y15326214D01*
X19584407Y15304032D01*
X19584404Y15304031D01*
X19540540Y15278706D01*
X19515216Y15264085D01*
X19515213Y15264083D01*
X19510180Y15261178D01*
X19195024Y14946021D01*
X19195020Y14946015D01*
X19152169Y14871796D01*
X19148030Y14856347D01*
X19129987Y14789009D01*
X19129987Y14013106D01*
X19110302Y13946067D01*
X19093668Y13925425D01*
X18769373Y13601130D01*
X18708050Y13567645D01*
X18638358Y13572629D01*
X18582425Y13614501D01*
X18558008Y13679965D01*
X18557692Y13688811D01*
X18557692Y15760548D01*
X22152114Y15760548D01*
X22152114Y15655095D01*
X22179407Y15553235D01*
X22179408Y15553232D01*
X22190597Y15533853D01*
X22232134Y15461908D01*
X22306701Y15387341D01*
X22398027Y15334614D01*
X22499887Y15307321D01*
X22499889Y15307321D01*
X22605339Y15307321D01*
X22605341Y15307321D01*
X22707201Y15334614D01*
X22798527Y15387341D01*
X22873094Y15461908D01*
X22925821Y15553234D01*
X22953114Y15655094D01*
X22953114Y15760548D01*
X22925821Y15862408D01*
X22873094Y15953734D01*
X22798527Y16028301D01*
X22707201Y16081028D01*
X22605341Y16108321D01*
X22499887Y16108321D01*
X22398027Y16081028D01*
X22398024Y16081027D01*
X22306699Y16028300D01*
X22232135Y15953736D01*
X22179408Y15862411D01*
X22179407Y15862408D01*
X22152114Y15760548D01*
X18557692Y15760548D01*
X18557692Y17030048D01*
X19292119Y17030048D01*
X19292119Y16931178D01*
X19317709Y16835675D01*
X19367144Y16750051D01*
X19437057Y16680138D01*
X19522681Y16630703D01*
X19618184Y16605113D01*
X19618186Y16605113D01*
X19717051Y16605113D01*
X19717054Y16605113D01*
X19812557Y16630703D01*
X19898181Y16680138D01*
X19968094Y16750051D01*
X20017529Y16835675D01*
X20043119Y16931178D01*
X20043119Y17030048D01*
X20042237Y17033340D01*
X22208683Y17033340D01*
X22208683Y16927886D01*
X22235976Y16826026D01*
X22288703Y16734700D01*
X22363270Y16660133D01*
X22454596Y16607406D01*
X22556456Y16580113D01*
X22556458Y16580113D01*
X22661908Y16580113D01*
X22661910Y16580113D01*
X22763770Y16607406D01*
X22855096Y16660133D01*
X22929663Y16734700D01*
X22982390Y16826026D01*
X23009683Y16927886D01*
X23009683Y17033340D01*
X22982390Y17135200D01*
X22929663Y17226526D01*
X22855096Y17301093D01*
X22763770Y17353820D01*
X22661910Y17381113D01*
X22556456Y17381113D01*
X22454596Y17353820D01*
X22454593Y17353819D01*
X22363268Y17301092D01*
X22288704Y17226528D01*
X22235977Y17135203D01*
X22235976Y17135200D01*
X22208683Y17033340D01*
X20042237Y17033340D01*
X20017529Y17125551D01*
X19968094Y17211175D01*
X19898181Y17281088D01*
X19812557Y17330523D01*
X19717054Y17356113D01*
X19618184Y17356113D01*
X19522681Y17330523D01*
X19522679Y17330522D01*
X19522678Y17330522D01*
X19437055Y17281087D01*
X19367145Y17211177D01*
X19317710Y17125554D01*
X19317710Y17125553D01*
X19317709Y17125551D01*
X19292119Y17030048D01*
X18557692Y17030048D01*
X18557692Y18309166D01*
X20600454Y18309166D01*
X20600454Y18186477D01*
X20624386Y18066165D01*
X20624388Y18066157D01*
X20671334Y17952818D01*
X20671339Y17952809D01*
X20739493Y17850810D01*
X20739496Y17850806D01*
X20826238Y17764064D01*
X20826242Y17764061D01*
X20928241Y17695907D01*
X20928247Y17695904D01*
X20928248Y17695903D01*
X21041590Y17648955D01*
X21147320Y17627924D01*
X21161909Y17625022D01*
X21161912Y17625021D01*
X21161914Y17625021D01*
X21284596Y17625021D01*
X21284597Y17625022D01*
X21404918Y17648955D01*
X21518260Y17695903D01*
X21620266Y17764061D01*
X21707014Y17850809D01*
X21775172Y17952815D01*
X21822120Y18066157D01*
X21846054Y18186481D01*
X21846054Y18309161D01*
X21846054Y18309164D01*
X21846053Y18309166D01*
X21822121Y18429478D01*
X21822120Y18429485D01*
X21775172Y18542827D01*
X21775171Y18542828D01*
X21775168Y18542834D01*
X21707014Y18644833D01*
X21707011Y18644837D01*
X21620269Y18731579D01*
X21620265Y18731582D01*
X21518266Y18799736D01*
X21518257Y18799741D01*
X21404918Y18846687D01*
X21404910Y18846689D01*
X21284597Y18870621D01*
X21284594Y18870621D01*
X21161914Y18870621D01*
X21161911Y18870621D01*
X21041597Y18846689D01*
X21041589Y18846687D01*
X20928250Y18799741D01*
X20928241Y18799736D01*
X20826242Y18731582D01*
X20826238Y18731579D01*
X20739496Y18644837D01*
X20739493Y18644833D01*
X20671339Y18542834D01*
X20671334Y18542825D01*
X20624388Y18429486D01*
X20624386Y18429478D01*
X20600454Y18309166D01*
X18557692Y18309166D01*
X18557692Y18458890D01*
X18557691Y18458897D01*
X18555002Y18468932D01*
X18544962Y18506404D01*
X18535510Y18541679D01*
X18492657Y18615902D01*
X17604739Y19503820D01*
X17552506Y19533977D01*
X17530517Y19546673D01*
X17476303Y19561199D01*
X17447730Y19568855D01*
X17447729Y19568855D01*
X16780812Y19568855D01*
X16748574Y19573119D01*
X16747437Y19573425D01*
X16587226Y19616561D01*
X16522601Y19633961D01*
X16519198Y19634822D01*
X16515007Y19635881D01*
X16514335Y19636040D01*
X16506976Y19637667D01*
X16506975Y19637668D01*
X16506971Y19637668D01*
X16506966Y19637669D01*
X16506246Y19637673D01*
X16502843Y19638133D01*
X16500464Y19638400D01*
X16500469Y19638453D01*
X16474979Y19641893D01*
X16467656Y19643855D01*
X16467655Y19643855D01*
X16362201Y19643855D01*
X16260341Y19616562D01*
X16260338Y19616561D01*
X16169013Y19563834D01*
X16094449Y19489270D01*
X16041722Y19397945D01*
X16041721Y19397942D01*
X16014428Y19296082D01*
X16014428Y19190628D01*
X16041721Y19088768D01*
X16094448Y18997442D01*
X16169015Y18922875D01*
X16260341Y18870148D01*
X16362201Y18842855D01*
X16362203Y18842855D01*
X16467654Y18842855D01*
X16467655Y18842855D01*
X16486895Y18848011D01*
X16510726Y18851961D01*
X16522616Y18852754D01*
X16748573Y18913591D01*
X16780811Y18917855D01*
X17218688Y18917855D01*
X17285727Y18898170D01*
X17306369Y18881536D01*
X17870373Y18317532D01*
X17903858Y18256209D01*
X17906692Y18229851D01*
X17906692Y16672802D01*
X17887007Y16605763D01*
X17834203Y16560008D01*
X17765045Y16550064D01*
X17701489Y16579089D01*
X17695011Y16585121D01*
X17045232Y17234900D01*
X17025451Y17260710D01*
X17014259Y17280149D01*
X16908691Y17463508D01*
X16904642Y17470295D01*
X16904272Y17470894D01*
X16900254Y17477191D01*
X16899759Y17477692D01*
X16897728Y17480357D01*
X16896170Y17482310D01*
X16896213Y17482345D01*
X16880619Y17502804D01*
X16876829Y17509369D01*
X16802262Y17583936D01*
X16712748Y17635617D01*
X16710938Y17636662D01*
X16710937Y17636663D01*
X16710936Y17636663D01*
X16609076Y17663956D01*
X16503622Y17663956D01*
X16401762Y17636663D01*
X16401759Y17636662D01*
X16310434Y17583935D01*
X16235870Y17509371D01*
X16183143Y17418046D01*
X16183142Y17418043D01*
X16155849Y17316183D01*
X16155849Y17210729D01*
X16183142Y17108869D01*
X16235869Y17017543D01*
X16310436Y16942976D01*
X16327684Y16933018D01*
X16347330Y16918958D01*
X16356292Y16911118D01*
X16356297Y16911114D01*
X16559095Y16794354D01*
X16584905Y16774573D01*
X17538033Y15821445D01*
X17571518Y15760122D01*
X17574352Y15733764D01*
X17574352Y13079726D01*
X17554667Y13012687D01*
X17538033Y12992045D01*
X17370080Y12824092D01*
X17308757Y12790607D01*
X17239065Y12795591D01*
X17183132Y12837463D01*
X17158715Y12902927D01*
X17162624Y12943865D01*
X17177201Y12998264D01*
X17177201Y13097134D01*
X17151611Y13192637D01*
X17102176Y13278261D01*
X17032263Y13348174D01*
X16946639Y13397609D01*
X16851136Y13423199D01*
X16752266Y13423199D01*
X16656763Y13397609D01*
X16656761Y13397608D01*
X16656760Y13397608D01*
X16571137Y13348173D01*
X16501227Y13278263D01*
X16451792Y13192640D01*
X16451792Y13192639D01*
X16451791Y13192637D01*
X16426201Y13097134D01*
X16426201Y12998264D01*
X16427867Y12992045D01*
X16428458Y12989841D01*
X16426793Y12919991D01*
X16387629Y12862130D01*
X16323399Y12834627D01*
X16276591Y12837976D01*
X16269649Y12839836D01*
X16170779Y12839836D01*
X16075276Y12814246D01*
X16075274Y12814245D01*
X16075273Y12814245D01*
X15989650Y12764810D01*
X15919740Y12694900D01*
X15870305Y12609277D01*
X15870305Y12609276D01*
X15870304Y12609274D01*
X15844714Y12513771D01*
X15844714Y12414901D01*
X15870304Y12319398D01*
X15870305Y12319397D01*
X15870305Y12319396D01*
X15881098Y12300701D01*
X15919739Y12233774D01*
X15919740Y12233773D01*
X15923803Y12226736D01*
X15922364Y12225906D01*
X15944091Y12169700D01*
X15930051Y12101256D01*
X15881236Y12051267D01*
X15820521Y12035386D01*
X15768231Y12035386D01*
X15666371Y12008093D01*
X15666368Y12008092D01*
X15575043Y11955365D01*
X15500479Y11880801D01*
X15447752Y11789476D01*
X15447751Y11789473D01*
X15420458Y11687613D01*
X15420458Y11582159D01*
X15447751Y11480299D01*
X15500478Y11388973D01*
X15575045Y11314406D01*
X15628772Y11283387D01*
X15673410Y11257615D01*
X15672537Y11256104D01*
X15690372Y11241735D01*
X15716643Y11222070D01*
X15717442Y11219928D01*
X15719224Y11218492D01*
X15729590Y11187360D01*
X15741062Y11156607D01*
X15740575Y11154371D01*
X15741298Y11152201D01*
X15733188Y11120410D01*
X15726212Y11088333D01*
X15724384Y11085891D01*
X15724029Y11084499D01*
X15705062Y11060078D01*
X15687772Y11042788D01*
X15474963Y10829979D01*
X15413640Y10796494D01*
X15387282Y10793660D01*
X13890130Y10793660D01*
X13807342Y10771478D01*
X13733121Y10728625D01*
X13733118Y10728623D01*
X11374423Y8369928D01*
X11374421Y8369925D01*
X11362755Y8349720D01*
X11312190Y8301505D01*
X11255369Y8287720D01*
X11157895Y8287720D01*
X11056035Y8260427D01*
X11056032Y8260426D01*
X10964707Y8207699D01*
X10890143Y8133135D01*
X10837416Y8041810D01*
X10837415Y8041807D01*
X10810122Y7939947D01*
X10810122Y7834493D01*
X10837415Y7732633D01*
X10867014Y7681365D01*
X10883487Y7613468D01*
X10860635Y7547441D01*
X10847309Y7531686D01*
X10766308Y7450686D01*
X10723456Y7376465D01*
X10717225Y7353210D01*
X10714110Y7341583D01*
X10714110Y7341582D01*
X10714109Y7341583D01*
X10701274Y7293681D01*
X10701274Y7141002D01*
X10681589Y7073963D01*
X10628785Y7028208D01*
X10559627Y7018264D01*
X10496071Y7047289D01*
X10489593Y7053321D01*
X9687750Y7855164D01*
X9654265Y7916487D01*
X9651431Y7942845D01*
X9651431Y12276491D01*
X9671116Y12343530D01*
X9723920Y12389285D01*
X9793078Y12399229D01*
X9856634Y12370204D01*
X9882818Y12338491D01*
X9886355Y12332364D01*
X9886356Y12332363D01*
X9939083Y12241037D01*
X10013650Y12166470D01*
X10104976Y12113743D01*
X10206836Y12086450D01*
X10206838Y12086450D01*
X10312288Y12086450D01*
X10312290Y12086450D01*
X10414150Y12113743D01*
X10505476Y12166470D01*
X10580043Y12241037D01*
X10632770Y12332363D01*
X10660063Y12434223D01*
X10660063Y12539677D01*
X10632770Y12641537D01*
X10580043Y12732863D01*
X10505476Y12807430D01*
X10414150Y12860157D01*
X10312290Y12887450D01*
X10206836Y12887450D01*
X10104976Y12860157D01*
X10104973Y12860156D01*
X10013648Y12807429D01*
X9939085Y12732866D01*
X9939083Y12732864D01*
X9939083Y12732863D01*
X9918833Y12697789D01*
X9882818Y12635409D01*
X9832250Y12587194D01*
X9763643Y12573972D01*
X9698779Y12599940D01*
X9658251Y12656854D01*
X9651431Y12697410D01*
X9651431Y15482491D01*
X9671116Y15549530D01*
X9687750Y15570172D01*
X11036536Y16918958D01*
X12303501Y18185924D01*
X14154737Y18185924D01*
X14154737Y18080470D01*
X14175997Y18001128D01*
X14182030Y17978611D01*
X14182031Y17978608D01*
X14184178Y17974889D01*
X14234757Y17887284D01*
X14309324Y17812717D01*
X14400650Y17759990D01*
X14502510Y17732697D01*
X14502518Y17732697D01*
X14510570Y17731636D01*
X14510269Y17729355D01*
X14565927Y17713012D01*
X14611682Y17660208D01*
X14618745Y17635617D01*
X14619324Y17635772D01*
X14621427Y17627924D01*
X14621427Y17627922D01*
X14648720Y17526063D01*
X14648721Y17526060D01*
X14658358Y17509369D01*
X14701447Y17434736D01*
X14776014Y17360169D01*
X14867340Y17307442D01*
X14969200Y17280149D01*
X14969202Y17280149D01*
X15074652Y17280149D01*
X15074654Y17280149D01*
X15176514Y17307442D01*
X15267840Y17360169D01*
X15342407Y17434736D01*
X15395134Y17526062D01*
X15422427Y17627922D01*
X15422427Y17733376D01*
X15395134Y17835236D01*
X15342407Y17926562D01*
X15267840Y18001129D01*
X15176514Y18053856D01*
X15074654Y18081149D01*
X15074653Y18081149D01*
X15066594Y18082210D01*
X15066894Y18084492D01*
X15011237Y18100834D01*
X14965482Y18153638D01*
X14958418Y18178230D01*
X14957840Y18178074D01*
X14955737Y18185924D01*
X14928444Y18287784D01*
X14875717Y18379110D01*
X14801150Y18453677D01*
X14734296Y18492275D01*
X14709826Y18506403D01*
X14709825Y18506404D01*
X14709824Y18506404D01*
X14607964Y18533697D01*
X14502510Y18533697D01*
X14400650Y18506404D01*
X14400647Y18506403D01*
X14309322Y18453676D01*
X14234758Y18379112D01*
X14182031Y18287787D01*
X14182030Y18287784D01*
X14154737Y18185924D01*
X12303501Y18185924D01*
X12850697Y18733120D01*
X12868451Y18747840D01*
X12880593Y18756129D01*
X13063634Y18942882D01*
X13078991Y18960032D01*
X13080320Y18961658D01*
X13083488Y18965910D01*
X13086737Y18969158D01*
X13089582Y18974087D01*
X13093991Y18980002D01*
X13093993Y18980008D01*
X13093996Y18980011D01*
X13094407Y18980729D01*
X13100548Y18993080D01*
X13139461Y19060479D01*
X13139460Y19060479D01*
X13139464Y19060484D01*
X13166757Y19162344D01*
X13166757Y19267798D01*
X13139464Y19369658D01*
X13086737Y19460984D01*
X13012170Y19535551D01*
X12945316Y19574149D01*
X12920846Y19588277D01*
X12920845Y19588278D01*
X12920844Y19588278D01*
X12818984Y19615571D01*
X12713530Y19615571D01*
X12611670Y19588278D01*
X12611667Y19588277D01*
X12585942Y19573425D01*
X12518041Y19556955D01*
X12461945Y19573427D01*
X12411729Y19602419D01*
X12411728Y19602420D01*
X12411727Y19602420D01*
X12309867Y19629713D01*
X12204413Y19629713D01*
X12102553Y19602420D01*
X12102550Y19602419D01*
X12011225Y19549692D01*
X11936661Y19475128D01*
X11883934Y19383803D01*
X11883933Y19383800D01*
X11856640Y19281940D01*
X11856640Y19176486D01*
X11866039Y19141405D01*
X11870071Y19126358D01*
X11872663Y19114319D01*
X11872757Y19113745D01*
X11875247Y19098224D01*
X11875342Y19097967D01*
X11876341Y19091873D01*
X11872740Y19062791D01*
X11871900Y19033491D01*
X11868407Y19027792D01*
X11867756Y19022533D01*
X11858013Y19010834D01*
X11841654Y18984141D01*
X10653922Y17796409D01*
X10592599Y17762924D01*
X10522907Y17767908D01*
X10466974Y17809780D01*
X10443301Y17867909D01*
X10442628Y17873018D01*
X10442628Y17873029D01*
X10415335Y17974889D01*
X10362608Y18066215D01*
X10288041Y18140782D01*
X10196715Y18193509D01*
X10094855Y18220802D01*
X9989401Y18220802D01*
X9887541Y18193509D01*
X9887538Y18193508D01*
X9796213Y18140781D01*
X9721649Y18066217D01*
X9668922Y17974892D01*
X9668921Y17974889D01*
X9641628Y17873029D01*
X9641628Y17767575D01*
X9660833Y17695903D01*
X9668921Y17665716D01*
X9668922Y17665713D01*
X9672100Y17660208D01*
X9721648Y17574389D01*
X9796215Y17499822D01*
X9887541Y17447095D01*
X9989401Y17419802D01*
X9989412Y17419802D01*
X9994521Y17419129D01*
X10058419Y17390864D01*
X10096892Y17332541D01*
X10097726Y17262676D01*
X10066021Y17208508D01*
X9442636Y16585121D01*
X9244202Y16386687D01*
X8885814Y16028301D01*
X8851994Y15994481D01*
X8813487Y15955974D01*
X8813481Y15955966D01*
X8773928Y15887457D01*
X8773925Y15887452D01*
X8753446Y15811022D01*
X8753446Y11089943D01*
X8747207Y11068698D01*
X8745628Y11046611D01*
X8737555Y11035828D01*
X8733761Y11022904D01*
X8717026Y11008404D01*
X8703757Y10990677D01*
X8691136Y10985970D01*
X8680957Y10977149D01*
X8659040Y10973998D01*
X8638293Y10966259D01*
X8625131Y10969122D01*
X8611799Y10967205D01*
X8591657Y10976404D01*
X8570020Y10981110D01*
X8552293Y10994381D01*
X8548243Y10996230D01*
X8541766Y11002261D01*
X8521123Y11022904D01*
X8489235Y11054792D01*
X8469460Y11080594D01*
X8352700Y11283394D01*
X8348650Y11290182D01*
X8348280Y11290781D01*
X8344262Y11297078D01*
X8343767Y11297579D01*
X8341736Y11300244D01*
X8340178Y11302197D01*
X8340221Y11302232D01*
X8324627Y11322691D01*
X8320837Y11329256D01*
X8246270Y11403823D01*
X8154944Y11456550D01*
X8053084Y11483843D01*
X7947630Y11483843D01*
X7845770Y11456550D01*
X7845767Y11456549D01*
X7754442Y11403822D01*
X7679878Y11329258D01*
X7627151Y11237933D01*
X7627150Y11237930D01*
X7599857Y11136070D01*
X2834607Y11136070D01*
X2834607Y12429090D01*
X5283301Y12429090D01*
X5283301Y12330220D01*
X5308891Y12234717D01*
X5358326Y12149093D01*
X5428239Y12079180D01*
X5513863Y12029745D01*
X5609366Y12004155D01*
X5609368Y12004155D01*
X5708233Y12004155D01*
X5708236Y12004155D01*
X5803739Y12029745D01*
X5889363Y12079180D01*
X5959276Y12149093D01*
X6008711Y12234717D01*
X6034301Y12330220D01*
X6034301Y12429090D01*
X6008711Y12524593D01*
X5959276Y12610217D01*
X5889363Y12680130D01*
X5803739Y12729565D01*
X5708236Y12755155D01*
X5609366Y12755155D01*
X5513863Y12729565D01*
X5513861Y12729564D01*
X5513860Y12729564D01*
X5428237Y12680129D01*
X5358327Y12610219D01*
X5308892Y12524596D01*
X5308892Y12524595D01*
X5308891Y12524593D01*
X5283301Y12429090D01*
X2834607Y12429090D01*
X2834607Y13782381D01*
X4358301Y13782381D01*
X4358301Y13676927D01*
X4365093Y13651581D01*
X4385594Y13575068D01*
X4385595Y13575065D01*
X4389879Y13567645D01*
X4438321Y13483741D01*
X4512888Y13409174D01*
X4604214Y13356447D01*
X4706074Y13329154D01*
X4706076Y13329154D01*
X4811526Y13329154D01*
X4811528Y13329154D01*
X4913388Y13356447D01*
X5004714Y13409174D01*
X5079281Y13483741D01*
X5115850Y13547082D01*
X5166413Y13595293D01*
X5235020Y13608517D01*
X5299885Y13582549D01*
X5330620Y13547079D01*
X5335357Y13538875D01*
X5358326Y13499092D01*
X5428239Y13429179D01*
X5513863Y13379744D01*
X5609366Y13354154D01*
X5609368Y13354154D01*
X5708233Y13354154D01*
X5708236Y13354154D01*
X5803739Y13379744D01*
X5889363Y13429179D01*
X5959276Y13499092D01*
X6008711Y13584716D01*
X6034301Y13680219D01*
X6034301Y13779089D01*
X6008711Y13874592D01*
X5959276Y13960216D01*
X5889363Y14030129D01*
X5803739Y14079564D01*
X5708236Y14105154D01*
X5609366Y14105154D01*
X5513863Y14079564D01*
X5513861Y14079563D01*
X5513860Y14079563D01*
X5428237Y14030128D01*
X5358327Y13960218D01*
X5330620Y13912229D01*
X5280052Y13864014D01*
X5211445Y13850793D01*
X5146580Y13876762D01*
X5115847Y13912232D01*
X5108230Y13925425D01*
X5079281Y13975567D01*
X5004714Y14050134D01*
X4913388Y14102861D01*
X4811528Y14130154D01*
X4706074Y14130154D01*
X4604214Y14102861D01*
X4604211Y14102860D01*
X4512886Y14050133D01*
X4438322Y13975569D01*
X4385595Y13884244D01*
X4385594Y13884241D01*
X4358301Y13782381D01*
X2834607Y13782381D01*
X2834607Y19551468D01*
X2834989Y19561199D01*
X2835927Y19573119D01*
X2844586Y19683117D01*
X2847630Y19702328D01*
X2847799Y19703031D01*
X2875038Y19816490D01*
X2881043Y19834972D01*
X2925977Y19943456D01*
X2934798Y19960770D01*
X2996149Y20060892D01*
X3007564Y20076607D01*
X3086917Y20169527D01*
X3093495Y20176642D01*
X3287738Y20370884D01*
X9834314Y20370884D01*
X9834314Y20265430D01*
X9861607Y20163570D01*
X9914334Y20072244D01*
X9988901Y19997677D01*
X10080227Y19944950D01*
X10182087Y19917657D01*
X10182089Y19917657D01*
X10287539Y19917657D01*
X10287541Y19917657D01*
X10389401Y19944950D01*
X10480727Y19997677D01*
X10555294Y20072244D01*
X10576662Y20109255D01*
X14282016Y20109255D01*
X14282016Y20003801D01*
X14309309Y19901941D01*
X14362036Y19810615D01*
X14436603Y19736048D01*
X14527929Y19683321D01*
X14629789Y19656028D01*
X14629791Y19656028D01*
X14735241Y19656028D01*
X14735243Y19656028D01*
X14837103Y19683321D01*
X14928429Y19736048D01*
X15002996Y19810615D01*
X15055723Y19901941D01*
X15083016Y20003801D01*
X15083016Y20109255D01*
X15055723Y20211115D01*
X15002996Y20302441D01*
X14928429Y20377008D01*
X14837103Y20429735D01*
X14735243Y20457028D01*
X14629789Y20457028D01*
X14527929Y20429735D01*
X14527926Y20429734D01*
X14436601Y20377007D01*
X14362037Y20302443D01*
X14309310Y20211118D01*
X14309309Y20211115D01*
X14282016Y20109255D01*
X10576662Y20109255D01*
X10608021Y20163570D01*
X10635314Y20265430D01*
X10635314Y20370884D01*
X10608021Y20472744D01*
X10555294Y20564070D01*
X10480727Y20638637D01*
X10389401Y20691364D01*
X10287541Y20718657D01*
X10182087Y20718657D01*
X10080227Y20691364D01*
X10080224Y20691363D01*
X9988899Y20638636D01*
X9914335Y20564072D01*
X9861608Y20472747D01*
X9861607Y20472744D01*
X9834314Y20370884D01*
X3287738Y20370884D01*
X3574782Y20657927D01*
X3590444Y20673588D01*
X3600793Y20682838D01*
X3693424Y20756709D01*
X3716925Y20771477D01*
X3817355Y20819841D01*
X3843550Y20829007D01*
X3924869Y20847568D01*
X3952216Y20853809D01*
X3979808Y20856918D01*
X4091260Y20856918D01*
X4118852Y20853809D01*
X4153405Y20845923D01*
X4227514Y20829008D01*
X4253715Y20819840D01*
X4354142Y20771477D01*
X4377644Y20756709D01*
X4413001Y20728512D01*
X4470255Y20682853D01*
X4473765Y20679730D01*
X4474263Y20679502D01*
X4479471Y20674652D01*
X4480252Y20673957D01*
X4480371Y20673839D01*
X4480399Y20673788D01*
X4480579Y20673620D01*
X4480622Y20673588D01*
X4480731Y20673479D01*
X4480751Y20673460D01*
X4506701Y20647504D01*
X4506740Y20647472D01*
X4541842Y20612369D01*
X4541846Y20612366D01*
X4685567Y20516334D01*
X4845262Y20450187D01*
X4845264Y20450187D01*
X4845269Y20450185D01*
X5014788Y20416466D01*
X5014791Y20416465D01*
X5014793Y20416465D01*
X5187647Y20416465D01*
X5187648Y20416466D01*
X5244155Y20427706D01*
X5357168Y20450185D01*
X5357171Y20450187D01*
X5357176Y20450187D01*
X5516871Y20516334D01*
X5660592Y20612366D01*
X5703769Y20655544D01*
X5703772Y20655545D01*
X5721705Y20673478D01*
X5742283Y20694055D01*
X5742283Y20694057D01*
X5759720Y20711493D01*
X5759722Y20711497D01*
X6093192Y21044965D01*
X6093192Y21044967D01*
X6097575Y21049349D01*
X6097596Y21049377D01*
X6136367Y21088143D01*
X6145438Y21101717D01*
X13534715Y21101717D01*
X13534715Y20996263D01*
X13555169Y20919929D01*
X13562008Y20894404D01*
X13562009Y20894401D01*
X13572203Y20876744D01*
X13614735Y20803077D01*
X13689302Y20728510D01*
X13780628Y20675783D01*
X13882488Y20648490D01*
X13882490Y20648490D01*
X13987940Y20648490D01*
X13987942Y20648490D01*
X14089802Y20675783D01*
X14181128Y20728510D01*
X14255695Y20803077D01*
X14308422Y20894403D01*
X14335715Y20996263D01*
X14335715Y21101717D01*
X14308422Y21203577D01*
X14255695Y21294903D01*
X14181128Y21369470D01*
X14089802Y21422197D01*
X13987942Y21449490D01*
X13882488Y21449490D01*
X13780628Y21422197D01*
X13780625Y21422196D01*
X13689300Y21369469D01*
X13614736Y21294905D01*
X13562009Y21203580D01*
X13562008Y21203577D01*
X13534715Y21101717D01*
X6145438Y21101717D01*
X6232405Y21231863D01*
X6298557Y21391559D01*
X6332282Y21561091D01*
X6332282Y21733946D01*
X6332282Y21733949D01*
X6298560Y21903475D01*
X6298557Y21903485D01*
X6232410Y22063171D01*
X6232409Y22063173D01*
X6232408Y22063175D01*
X6136371Y22206896D01*
X6093186Y22250078D01*
X6093185Y22250082D01*
X6075155Y22268108D01*
X6075153Y22268113D01*
X6065895Y22278470D01*
X5992027Y22371095D01*
X5977259Y22394597D01*
X5928890Y22495033D01*
X5919727Y22521219D01*
X5894918Y22629904D01*
X5891811Y22657476D01*
X5891810Y22768941D01*
X5894918Y22796530D01*
X5895627Y22799634D01*
X5919718Y22905199D01*
X5928886Y22931400D01*
X5977248Y23031832D01*
X5992012Y23055329D01*
X6065742Y23147786D01*
X6075000Y23158147D01*
X6543684Y23626831D01*
X6543712Y23626852D01*
X6554866Y23638009D01*
X6554868Y23638009D01*
X6571999Y23655145D01*
X6579137Y23661743D01*
X6672129Y23741177D01*
X6687859Y23752607D01*
X6787960Y23813954D01*
X6805287Y23822783D01*
X6913749Y23867710D01*
X6932254Y23873722D01*
X7046407Y23901125D01*
X7065612Y23904166D01*
X7187460Y23913749D01*
X7197165Y23914130D01*
X7221479Y23914128D01*
X7221483Y23914130D01*
X18677663Y23914130D01*
X18703030Y23914130D01*
X18727695Y23914130D01*
X18727701Y23914131D01*
X18766401Y23914129D01*
X18941692Y23941887D01*
X19110482Y23996728D01*
X19268613Y24077302D01*
X19412191Y24181623D01*
X19474936Y24244372D01*
X21575673Y26345110D01*
X21575675Y26345110D01*
X21591959Y26361396D01*
X21600946Y26369541D01*
X21719031Y26466450D01*
X21739233Y26479949D01*
X21868548Y26549069D01*
X21890989Y26558365D01*
X22031309Y26600930D01*
X22055133Y26605669D01*
X22201050Y26620040D01*
X22225356Y26620040D01*
X22371270Y26605669D01*
G37*
G04 #@! TD.AperFunction*
G04 #@! TA.AperFunction,Conductor*
G36*
X17422979Y9637313D02*
G01*
X17515818Y9576327D01*
X17519171Y9572974D01*
X17580117Y9480195D01*
X17581795Y9471399D01*
X17576762Y9463992D01*
X17576704Y9463954D01*
X17403032Y9351332D01*
X17394226Y9349706D01*
X17388393Y9352876D01*
X17295718Y9445551D01*
X17292291Y9453824D01*
X17294174Y9460190D01*
X17300768Y9470357D01*
X17406796Y9633863D01*
X17414173Y9638939D01*
X17422979Y9637313D01*
G37*
G04 #@! TD.AperFunction*
G04 #@! TA.AperFunction,Conductor*
G36*
X12770934Y19213087D02*
G01*
X12771005Y19213040D01*
X12879372Y19139600D01*
X12884298Y19132122D01*
X12882493Y19123351D01*
X12881164Y19121725D01*
X12698123Y18934972D01*
X12689884Y18931463D01*
X12681577Y18934806D01*
X12622566Y18993817D01*
X12619139Y19002088D01*
X12619139Y19176242D01*
X12622566Y19184514D01*
X12628513Y19187708D01*
X12762147Y19214802D01*
X12770934Y19213087D01*
G37*
G04 #@! TD.AperFunction*
G04 #@! TA.AperFunction,Conductor*
G36*
X8130906Y11156510D02*
G01*
X8131276Y11155911D01*
X8259009Y10934053D01*
X8260167Y10925173D01*
X8257142Y10919942D01*
X8163757Y10826557D01*
X8155484Y10823130D01*
X8149646Y10824690D01*
X7927789Y10952424D01*
X7922329Y10959522D01*
X7923487Y10968402D01*
X7923844Y10968981D01*
X7998327Y11082043D01*
X8001657Y11085373D01*
X8114700Y11159844D01*
X8123493Y11161533D01*
X8130906Y11156510D01*
G37*
G04 #@! TD.AperFunction*
G04 #@! TA.AperFunction,Conductor*
G36*
X11297564Y7012083D02*
G01*
X11298505Y7010359D01*
X11416013Y6743940D01*
X11416216Y6734987D01*
X11410030Y6728513D01*
X11405308Y6727518D01*
X11325260Y6727518D01*
X11321366Y6728185D01*
X11148477Y6789210D01*
X11141816Y6795195D01*
X11140893Y6802511D01*
X11167246Y6935899D01*
X11172210Y6943348D01*
X11281354Y7015402D01*
X11290146Y7017099D01*
X11297564Y7012083D01*
G37*
G04 #@! TD.AperFunction*
G04 #@! TA.AperFunction,Conductor*
G36*
X11794424Y7508623D02*
G01*
X11902540Y7353335D01*
X11904638Y7346650D01*
X11904638Y7263741D01*
X11901211Y7255468D01*
X11892938Y7252041D01*
X11891344Y7252150D01*
X11646129Y7285873D01*
X11638400Y7290395D01*
X11636132Y7299058D01*
X11636227Y7299639D01*
X11661242Y7429845D01*
X11666168Y7437322D01*
X11666189Y7437337D01*
X11778359Y7511691D01*
X11787147Y7513405D01*
X11794424Y7508623D01*
G37*
G04 #@! TD.AperFunction*
G04 #@! TA.AperFunction,Conductor*
G36*
X11104912Y7175851D02*
G01*
X11242798Y7071054D01*
X11247311Y7063320D01*
X11245470Y7055275D01*
X11170911Y6942796D01*
X11163484Y6937793D01*
X11163366Y6937770D01*
X11031859Y6912505D01*
X11023088Y6914310D01*
X11018326Y6921063D01*
X10955560Y7163606D01*
X10956805Y7172473D01*
X10963956Y7177863D01*
X10966887Y7178236D01*
X11097832Y7178236D01*
X11104912Y7175851D01*
G37*
G04 #@! TD.AperFunction*
G04 #@! TA.AperFunction,Conductor*
G36*
X11668732Y7423377D02*
G01*
X11671978Y7420167D01*
X11727014Y7338777D01*
X11739388Y7320479D01*
X11741184Y7311706D01*
X11736250Y7304233D01*
X11735429Y7303726D01*
X11670441Y7267192D01*
X11661550Y7266125D01*
X11654509Y7271658D01*
X11653008Y7277391D01*
X11653008Y7357393D01*
X11626801Y7340402D01*
X11617995Y7338777D01*
X11610619Y7343854D01*
X11608994Y7352660D01*
X11610672Y7356665D01*
X11611153Y7357393D01*
X11652523Y7420061D01*
X11659940Y7425075D01*
X11668732Y7423377D01*
G37*
G04 #@! TD.AperFunction*
G04 #@! TA.AperFunction,Conductor*
G36*
X16686898Y17336623D02*
G01*
X16687268Y17336024D01*
X16815002Y17114166D01*
X16816160Y17105286D01*
X16813135Y17100055D01*
X16719750Y17006670D01*
X16711477Y17003243D01*
X16705639Y17004803D01*
X16483781Y17132537D01*
X16478321Y17139635D01*
X16479479Y17148515D01*
X16479836Y17149094D01*
X16554319Y17262156D01*
X16557649Y17265486D01*
X16670692Y17339957D01*
X16679485Y17341646D01*
X16686898Y17336623D01*
G37*
G04 #@! TD.AperFunction*
G04 #@! TA.AperFunction,Conductor*
G36*
X11665745Y7421680D02*
G01*
X11667483Y7417423D01*
X11690431Y7297976D01*
X11688626Y7289205D01*
X11682255Y7284548D01*
X11605340Y7261828D01*
X11596435Y7262771D01*
X11590805Y7269735D01*
X11590326Y7273049D01*
X11590326Y7357393D01*
X11590325Y7357394D01*
X11587076Y7357014D01*
X11578462Y7359459D01*
X11574100Y7367280D01*
X11576545Y7375894D01*
X11579252Y7378383D01*
X11649531Y7424969D01*
X11658318Y7426683D01*
X11665745Y7421680D01*
G37*
G04 #@! TD.AperFunction*
G04 #@! TA.AperFunction,Conductor*
G36*
X16971134Y11485016D02*
G01*
X17152744Y11380149D01*
X17158195Y11373045D01*
X17157025Y11364166D01*
X17156672Y11363593D01*
X17096068Y11271335D01*
X17092713Y11267980D01*
X16999427Y11206701D01*
X16990631Y11205023D01*
X16983536Y11209605D01*
X16938706Y11271335D01*
X16863164Y11375356D01*
X16861076Y11384063D01*
X16864357Y11390501D01*
X16957013Y11483157D01*
X16965285Y11486583D01*
X16971134Y11485016D01*
G37*
G04 #@! TD.AperFunction*
G04 #@! TA.AperFunction,Conductor*
G36*
X18155391Y10150139D02*
G01*
X18159934Y10142422D01*
X18160048Y10140796D01*
X18160048Y10010108D01*
X18156621Y10001835D01*
X18155359Y10000742D01*
X18151419Y9997792D01*
X18022389Y9901206D01*
X18013713Y9898992D01*
X18006011Y9903562D01*
X18005693Y9904009D01*
X17943482Y9995793D01*
X17941674Y10000165D01*
X17941564Y10000741D01*
X17921043Y10108321D01*
X17922859Y10117088D01*
X17930344Y10122005D01*
X17930893Y10122096D01*
X18146724Y10152382D01*
X18155391Y10150139D01*
G37*
G04 #@! TD.AperFunction*
G04 #@! TA.AperFunction,Conductor*
G36*
X12261817Y19227229D02*
G01*
X12261917Y19227162D01*
X12373342Y19151649D01*
X12378268Y19144171D01*
X12377223Y19136692D01*
X12269686Y18923639D01*
X12262899Y18917797D01*
X12253969Y18918466D01*
X12250968Y18920638D01*
X12193498Y18978108D01*
X12190802Y18982310D01*
X12130725Y19144171D01*
X12114780Y19187130D01*
X12115114Y19196077D01*
X12121678Y19202169D01*
X12123414Y19202665D01*
X12253030Y19228944D01*
X12261817Y19227229D01*
G37*
G04 #@! TD.AperFunction*
G04 #@! TA.AperFunction,Conductor*
G36*
X16456178Y19387246D02*
G01*
X16703389Y19320686D01*
X16710486Y19315227D01*
X16712046Y19309389D01*
X16712046Y19177322D01*
X16708619Y19169049D01*
X16703388Y19166024D01*
X16456190Y19099468D01*
X16447310Y19100626D01*
X16441850Y19107724D01*
X16441688Y19108408D01*
X16414412Y19241003D01*
X16414412Y19245708D01*
X16441688Y19378305D01*
X16446712Y19385715D01*
X16455506Y19387405D01*
X16456178Y19387246D01*
G37*
G04 #@! TD.AperFunction*
G04 #@! TA.AperFunction,Conductor*
G36*
X20050650Y15119232D02*
G01*
X20055727Y15111855D01*
X20055741Y15111787D01*
X20078249Y15003086D01*
X20078249Y14998342D01*
X20055741Y14889642D01*
X20050708Y14882235D01*
X20041912Y14880557D01*
X20041844Y14880571D01*
X19839403Y14923740D01*
X19832026Y14928817D01*
X19830143Y14935183D01*
X19830143Y15066246D01*
X19833570Y15074519D01*
X19839401Y15077689D01*
X20041845Y15120858D01*
X20050650Y15119232D01*
G37*
G04 #@! TD.AperFunction*
M02*
