G04 #@! TF.GenerationSoftware,KiCad,Pcbnew,9.0.0-rc2-3baa6cd791~182~ubuntu24.04.1*
G04 #@! TF.CreationDate,2025-02-06T23:09:27-05:00*
G04 #@! TF.ProjectId,PCA20073_Tiny_Board,50434132-3030-4373-935f-54696e795f42,rev?*
G04 #@! TF.SameCoordinates,PX82a22f1PY713a4f2*
G04 #@! TF.FileFunction,AssemblyDrawing,Top*
%FSLAX46Y46*%
G04 Gerber Fmt 4.6, Leading zero omitted, Abs format (unit mm)*
G04 Created by KiCad (PCBNEW 9.0.0-rc2-3baa6cd791~182~ubuntu24.04.1) date 2025-02-06 23:09:27*
%MOMM*%
%LPD*%
G01*
G04 APERTURE LIST*
%ADD10C,0.100000*%
%ADD11C,0.150000*%
%ADD12C,0.300000*%
%ADD13C,0.400000*%
%ADD14C,0.040000*%
%ADD15C,0.090000*%
%ADD16C,0.120000*%
%ADD17C,0.075000*%
%ADD18C,0.060000*%
G04 APERTURE END LIST*
D10*
D11*
X40023015Y-47279278D02*
X148023015Y-47279278D01*
X148023015Y-79279278D01*
X40023015Y-79279278D01*
X40023015Y-47279278D01*
D10*
D11*
X-126979185Y108727922D02*
X150023015Y108727922D01*
X150023015Y-81279278D01*
X-126979185Y-81279278D01*
X-126979185Y108727922D01*
D10*
D11*
X-124979185Y106727922D02*
X148023015Y106727922D01*
X148023015Y-79279278D01*
X-124979185Y-79279278D01*
X-124979185Y106727922D01*
D10*
D11*
X-76979185Y106727922D02*
X-76979185Y108727922D01*
D10*
D11*
X-26979185Y106727922D02*
X-26979185Y108727922D01*
D10*
D11*
X23020815Y106727922D02*
X23020815Y108727922D01*
D10*
D11*
X73020815Y106727922D02*
X73020815Y108727922D01*
D10*
D11*
X123020815Y106727922D02*
X123020815Y108727922D01*
D10*
D11*
X-100890025Y107134318D02*
X-101632882Y107134318D01*
X-101261454Y107134318D02*
X-101261454Y108434318D01*
X-101261454Y108434318D02*
X-101385263Y108248603D01*
X-101385263Y108248603D02*
X-101509073Y108124794D01*
X-101509073Y108124794D02*
X-101632882Y108062889D01*
D10*
D11*
X-51632882Y108310508D02*
X-51570978Y108372413D01*
X-51570978Y108372413D02*
X-51447168Y108434318D01*
X-51447168Y108434318D02*
X-51137644Y108434318D01*
X-51137644Y108434318D02*
X-51013835Y108372413D01*
X-51013835Y108372413D02*
X-50951930Y108310508D01*
X-50951930Y108310508D02*
X-50890025Y108186699D01*
X-50890025Y108186699D02*
X-50890025Y108062889D01*
X-50890025Y108062889D02*
X-50951930Y107877175D01*
X-50951930Y107877175D02*
X-51694787Y107134318D01*
X-51694787Y107134318D02*
X-50890025Y107134318D01*
D10*
D11*
X-1694787Y108434318D02*
X-890025Y108434318D01*
X-890025Y108434318D02*
X-1323359Y107939080D01*
X-1323359Y107939080D02*
X-1137644Y107939080D01*
X-1137644Y107939080D02*
X-1013835Y107877175D01*
X-1013835Y107877175D02*
X-951930Y107815270D01*
X-951930Y107815270D02*
X-890025Y107691461D01*
X-890025Y107691461D02*
X-890025Y107381937D01*
X-890025Y107381937D02*
X-951930Y107258127D01*
X-951930Y107258127D02*
X-1013835Y107196222D01*
X-1013835Y107196222D02*
X-1137644Y107134318D01*
X-1137644Y107134318D02*
X-1509073Y107134318D01*
X-1509073Y107134318D02*
X-1632882Y107196222D01*
X-1632882Y107196222D02*
X-1694787Y107258127D01*
D10*
D11*
X48986165Y108000984D02*
X48986165Y107134318D01*
X48676641Y108496222D02*
X48367118Y107567651D01*
X48367118Y107567651D02*
X49171879Y107567651D01*
D10*
D11*
X99048070Y108434318D02*
X98429022Y108434318D01*
X98429022Y108434318D02*
X98367118Y107815270D01*
X98367118Y107815270D02*
X98429022Y107877175D01*
X98429022Y107877175D02*
X98552832Y107939080D01*
X98552832Y107939080D02*
X98862356Y107939080D01*
X98862356Y107939080D02*
X98986165Y107877175D01*
X98986165Y107877175D02*
X99048070Y107815270D01*
X99048070Y107815270D02*
X99109975Y107691461D01*
X99109975Y107691461D02*
X99109975Y107381937D01*
X99109975Y107381937D02*
X99048070Y107258127D01*
X99048070Y107258127D02*
X98986165Y107196222D01*
X98986165Y107196222D02*
X98862356Y107134318D01*
X98862356Y107134318D02*
X98552832Y107134318D01*
X98552832Y107134318D02*
X98429022Y107196222D01*
X98429022Y107196222D02*
X98367118Y107258127D01*
D10*
D11*
X148986165Y108434318D02*
X148738546Y108434318D01*
X148738546Y108434318D02*
X148614737Y108372413D01*
X148614737Y108372413D02*
X148552832Y108310508D01*
X148552832Y108310508D02*
X148429022Y108124794D01*
X148429022Y108124794D02*
X148367118Y107877175D01*
X148367118Y107877175D02*
X148367118Y107381937D01*
X148367118Y107381937D02*
X148429022Y107258127D01*
X148429022Y107258127D02*
X148490927Y107196222D01*
X148490927Y107196222D02*
X148614737Y107134318D01*
X148614737Y107134318D02*
X148862356Y107134318D01*
X148862356Y107134318D02*
X148986165Y107196222D01*
X148986165Y107196222D02*
X149048070Y107258127D01*
X149048070Y107258127D02*
X149109975Y107381937D01*
X149109975Y107381937D02*
X149109975Y107691461D01*
X149109975Y107691461D02*
X149048070Y107815270D01*
X149048070Y107815270D02*
X148986165Y107877175D01*
X148986165Y107877175D02*
X148862356Y107939080D01*
X148862356Y107939080D02*
X148614737Y107939080D01*
X148614737Y107939080D02*
X148490927Y107877175D01*
X148490927Y107877175D02*
X148429022Y107815270D01*
X148429022Y107815270D02*
X148367118Y107691461D01*
D10*
D11*
X-76979185Y-79279278D02*
X-76979185Y-81279278D01*
D10*
D11*
X-26979185Y-79279278D02*
X-26979185Y-81279278D01*
D10*
D11*
X23020815Y-79279278D02*
X23020815Y-81279278D01*
D10*
D11*
X73020815Y-79279278D02*
X73020815Y-81279278D01*
D10*
D11*
X123020815Y-79279278D02*
X123020815Y-81279278D01*
D10*
D11*
X-100890025Y-80872882D02*
X-101632882Y-80872882D01*
X-101261454Y-80872882D02*
X-101261454Y-79572882D01*
X-101261454Y-79572882D02*
X-101385263Y-79758597D01*
X-101385263Y-79758597D02*
X-101509073Y-79882406D01*
X-101509073Y-79882406D02*
X-101632882Y-79944311D01*
D10*
D11*
X-51632882Y-79696692D02*
X-51570978Y-79634787D01*
X-51570978Y-79634787D02*
X-51447168Y-79572882D01*
X-51447168Y-79572882D02*
X-51137644Y-79572882D01*
X-51137644Y-79572882D02*
X-51013835Y-79634787D01*
X-51013835Y-79634787D02*
X-50951930Y-79696692D01*
X-50951930Y-79696692D02*
X-50890025Y-79820501D01*
X-50890025Y-79820501D02*
X-50890025Y-79944311D01*
X-50890025Y-79944311D02*
X-50951930Y-80130025D01*
X-50951930Y-80130025D02*
X-51694787Y-80872882D01*
X-51694787Y-80872882D02*
X-50890025Y-80872882D01*
D10*
D11*
X-1694787Y-79572882D02*
X-890025Y-79572882D01*
X-890025Y-79572882D02*
X-1323359Y-80068120D01*
X-1323359Y-80068120D02*
X-1137644Y-80068120D01*
X-1137644Y-80068120D02*
X-1013835Y-80130025D01*
X-1013835Y-80130025D02*
X-951930Y-80191930D01*
X-951930Y-80191930D02*
X-890025Y-80315739D01*
X-890025Y-80315739D02*
X-890025Y-80625263D01*
X-890025Y-80625263D02*
X-951930Y-80749073D01*
X-951930Y-80749073D02*
X-1013835Y-80810978D01*
X-1013835Y-80810978D02*
X-1137644Y-80872882D01*
X-1137644Y-80872882D02*
X-1509073Y-80872882D01*
X-1509073Y-80872882D02*
X-1632882Y-80810978D01*
X-1632882Y-80810978D02*
X-1694787Y-80749073D01*
D10*
D11*
X48986165Y-80006216D02*
X48986165Y-80872882D01*
X48676641Y-79510978D02*
X48367118Y-80439549D01*
X48367118Y-80439549D02*
X49171879Y-80439549D01*
D10*
D11*
X99048070Y-79572882D02*
X98429022Y-79572882D01*
X98429022Y-79572882D02*
X98367118Y-80191930D01*
X98367118Y-80191930D02*
X98429022Y-80130025D01*
X98429022Y-80130025D02*
X98552832Y-80068120D01*
X98552832Y-80068120D02*
X98862356Y-80068120D01*
X98862356Y-80068120D02*
X98986165Y-80130025D01*
X98986165Y-80130025D02*
X99048070Y-80191930D01*
X99048070Y-80191930D02*
X99109975Y-80315739D01*
X99109975Y-80315739D02*
X99109975Y-80625263D01*
X99109975Y-80625263D02*
X99048070Y-80749073D01*
X99048070Y-80749073D02*
X98986165Y-80810978D01*
X98986165Y-80810978D02*
X98862356Y-80872882D01*
X98862356Y-80872882D02*
X98552832Y-80872882D01*
X98552832Y-80872882D02*
X98429022Y-80810978D01*
X98429022Y-80810978D02*
X98367118Y-80749073D01*
D10*
D11*
X148986165Y-79572882D02*
X148738546Y-79572882D01*
X148738546Y-79572882D02*
X148614737Y-79634787D01*
X148614737Y-79634787D02*
X148552832Y-79696692D01*
X148552832Y-79696692D02*
X148429022Y-79882406D01*
X148429022Y-79882406D02*
X148367118Y-80130025D01*
X148367118Y-80130025D02*
X148367118Y-80625263D01*
X148367118Y-80625263D02*
X148429022Y-80749073D01*
X148429022Y-80749073D02*
X148490927Y-80810978D01*
X148490927Y-80810978D02*
X148614737Y-80872882D01*
X148614737Y-80872882D02*
X148862356Y-80872882D01*
X148862356Y-80872882D02*
X148986165Y-80810978D01*
X148986165Y-80810978D02*
X149048070Y-80749073D01*
X149048070Y-80749073D02*
X149109975Y-80625263D01*
X149109975Y-80625263D02*
X149109975Y-80315739D01*
X149109975Y-80315739D02*
X149048070Y-80191930D01*
X149048070Y-80191930D02*
X148986165Y-80130025D01*
X148986165Y-80130025D02*
X148862356Y-80068120D01*
X148862356Y-80068120D02*
X148614737Y-80068120D01*
X148614737Y-80068120D02*
X148490927Y-80130025D01*
X148490927Y-80130025D02*
X148429022Y-80191930D01*
X148429022Y-80191930D02*
X148367118Y-80315739D01*
D10*
D11*
X-126979185Y58727922D02*
X-124979185Y58727922D01*
D10*
D11*
X-126979185Y8727922D02*
X-124979185Y8727922D01*
D10*
D11*
X-126979185Y-41272078D02*
X-124979185Y-41272078D01*
D10*
D11*
X-126288709Y83505746D02*
X-125669662Y83505746D01*
X-126412519Y83134318D02*
X-125979186Y84434318D01*
X-125979186Y84434318D02*
X-125545852Y83134318D01*
D10*
D11*
X-125886328Y33815270D02*
X-125700614Y33753365D01*
X-125700614Y33753365D02*
X-125638709Y33691461D01*
X-125638709Y33691461D02*
X-125576805Y33567651D01*
X-125576805Y33567651D02*
X-125576805Y33381937D01*
X-125576805Y33381937D02*
X-125638709Y33258127D01*
X-125638709Y33258127D02*
X-125700614Y33196222D01*
X-125700614Y33196222D02*
X-125824424Y33134318D01*
X-125824424Y33134318D02*
X-126319662Y33134318D01*
X-126319662Y33134318D02*
X-126319662Y34434318D01*
X-126319662Y34434318D02*
X-125886328Y34434318D01*
X-125886328Y34434318D02*
X-125762519Y34372413D01*
X-125762519Y34372413D02*
X-125700614Y34310508D01*
X-125700614Y34310508D02*
X-125638709Y34186699D01*
X-125638709Y34186699D02*
X-125638709Y34062889D01*
X-125638709Y34062889D02*
X-125700614Y33939080D01*
X-125700614Y33939080D02*
X-125762519Y33877175D01*
X-125762519Y33877175D02*
X-125886328Y33815270D01*
X-125886328Y33815270D02*
X-126319662Y33815270D01*
D10*
D11*
X-125576805Y-16741873D02*
X-125638709Y-16803778D01*
X-125638709Y-16803778D02*
X-125824424Y-16865682D01*
X-125824424Y-16865682D02*
X-125948233Y-16865682D01*
X-125948233Y-16865682D02*
X-126133947Y-16803778D01*
X-126133947Y-16803778D02*
X-126257757Y-16679968D01*
X-126257757Y-16679968D02*
X-126319662Y-16556158D01*
X-126319662Y-16556158D02*
X-126381566Y-16308539D01*
X-126381566Y-16308539D02*
X-126381566Y-16122825D01*
X-126381566Y-16122825D02*
X-126319662Y-15875206D01*
X-126319662Y-15875206D02*
X-126257757Y-15751397D01*
X-126257757Y-15751397D02*
X-126133947Y-15627587D01*
X-126133947Y-15627587D02*
X-125948233Y-15565682D01*
X-125948233Y-15565682D02*
X-125824424Y-15565682D01*
X-125824424Y-15565682D02*
X-125638709Y-15627587D01*
X-125638709Y-15627587D02*
X-125576805Y-15689492D01*
D10*
D11*
X-126319662Y-66865682D02*
X-126319662Y-65565682D01*
X-126319662Y-65565682D02*
X-126010138Y-65565682D01*
X-126010138Y-65565682D02*
X-125824424Y-65627587D01*
X-125824424Y-65627587D02*
X-125700614Y-65751397D01*
X-125700614Y-65751397D02*
X-125638709Y-65875206D01*
X-125638709Y-65875206D02*
X-125576805Y-66122825D01*
X-125576805Y-66122825D02*
X-125576805Y-66308539D01*
X-125576805Y-66308539D02*
X-125638709Y-66556158D01*
X-125638709Y-66556158D02*
X-125700614Y-66679968D01*
X-125700614Y-66679968D02*
X-125824424Y-66803778D01*
X-125824424Y-66803778D02*
X-126010138Y-66865682D01*
X-126010138Y-66865682D02*
X-126319662Y-66865682D01*
D10*
D11*
X150023015Y58727922D02*
X148023015Y58727922D01*
D10*
D11*
X150023015Y8727922D02*
X148023015Y8727922D01*
D10*
D11*
X150023015Y-41272078D02*
X148023015Y-41272078D01*
D10*
D11*
X148713491Y83505746D02*
X149332538Y83505746D01*
X148589681Y83134318D02*
X149023014Y84434318D01*
X149023014Y84434318D02*
X149456348Y83134318D01*
D10*
D11*
X149115872Y33815270D02*
X149301586Y33753365D01*
X149301586Y33753365D02*
X149363491Y33691461D01*
X149363491Y33691461D02*
X149425395Y33567651D01*
X149425395Y33567651D02*
X149425395Y33381937D01*
X149425395Y33381937D02*
X149363491Y33258127D01*
X149363491Y33258127D02*
X149301586Y33196222D01*
X149301586Y33196222D02*
X149177776Y33134318D01*
X149177776Y33134318D02*
X148682538Y33134318D01*
X148682538Y33134318D02*
X148682538Y34434318D01*
X148682538Y34434318D02*
X149115872Y34434318D01*
X149115872Y34434318D02*
X149239681Y34372413D01*
X149239681Y34372413D02*
X149301586Y34310508D01*
X149301586Y34310508D02*
X149363491Y34186699D01*
X149363491Y34186699D02*
X149363491Y34062889D01*
X149363491Y34062889D02*
X149301586Y33939080D01*
X149301586Y33939080D02*
X149239681Y33877175D01*
X149239681Y33877175D02*
X149115872Y33815270D01*
X149115872Y33815270D02*
X148682538Y33815270D01*
D10*
D11*
X149425395Y-16741873D02*
X149363491Y-16803778D01*
X149363491Y-16803778D02*
X149177776Y-16865682D01*
X149177776Y-16865682D02*
X149053967Y-16865682D01*
X149053967Y-16865682D02*
X148868253Y-16803778D01*
X148868253Y-16803778D02*
X148744443Y-16679968D01*
X148744443Y-16679968D02*
X148682538Y-16556158D01*
X148682538Y-16556158D02*
X148620634Y-16308539D01*
X148620634Y-16308539D02*
X148620634Y-16122825D01*
X148620634Y-16122825D02*
X148682538Y-15875206D01*
X148682538Y-15875206D02*
X148744443Y-15751397D01*
X148744443Y-15751397D02*
X148868253Y-15627587D01*
X148868253Y-15627587D02*
X149053967Y-15565682D01*
X149053967Y-15565682D02*
X149177776Y-15565682D01*
X149177776Y-15565682D02*
X149363491Y-15627587D01*
X149363491Y-15627587D02*
X149425395Y-15689492D01*
D10*
D11*
X148682538Y-66865682D02*
X148682538Y-65565682D01*
X148682538Y-65565682D02*
X148992062Y-65565682D01*
X148992062Y-65565682D02*
X149177776Y-65627587D01*
X149177776Y-65627587D02*
X149301586Y-65751397D01*
X149301586Y-65751397D02*
X149363491Y-65875206D01*
X149363491Y-65875206D02*
X149425395Y-66122825D01*
X149425395Y-66122825D02*
X149425395Y-66308539D01*
X149425395Y-66308539D02*
X149363491Y-66556158D01*
X149363491Y-66556158D02*
X149301586Y-66679968D01*
X149301586Y-66679968D02*
X149177776Y-66803778D01*
X149177776Y-66803778D02*
X148992062Y-66865682D01*
X148992062Y-66865682D02*
X148682538Y-66865682D01*
D10*
D11*
X63478841Y-75065406D02*
X63478841Y-73565406D01*
X63478841Y-73565406D02*
X63835984Y-73565406D01*
X63835984Y-73565406D02*
X64050270Y-73636835D01*
X64050270Y-73636835D02*
X64193127Y-73779692D01*
X64193127Y-73779692D02*
X64264556Y-73922549D01*
X64264556Y-73922549D02*
X64335984Y-74208263D01*
X64335984Y-74208263D02*
X64335984Y-74422549D01*
X64335984Y-74422549D02*
X64264556Y-74708263D01*
X64264556Y-74708263D02*
X64193127Y-74851120D01*
X64193127Y-74851120D02*
X64050270Y-74993978D01*
X64050270Y-74993978D02*
X63835984Y-75065406D01*
X63835984Y-75065406D02*
X63478841Y-75065406D01*
X65621699Y-75065406D02*
X65621699Y-74279692D01*
X65621699Y-74279692D02*
X65550270Y-74136835D01*
X65550270Y-74136835D02*
X65407413Y-74065406D01*
X65407413Y-74065406D02*
X65121699Y-74065406D01*
X65121699Y-74065406D02*
X64978841Y-74136835D01*
X65621699Y-74993978D02*
X65478841Y-75065406D01*
X65478841Y-75065406D02*
X65121699Y-75065406D01*
X65121699Y-75065406D02*
X64978841Y-74993978D01*
X64978841Y-74993978D02*
X64907413Y-74851120D01*
X64907413Y-74851120D02*
X64907413Y-74708263D01*
X64907413Y-74708263D02*
X64978841Y-74565406D01*
X64978841Y-74565406D02*
X65121699Y-74493978D01*
X65121699Y-74493978D02*
X65478841Y-74493978D01*
X65478841Y-74493978D02*
X65621699Y-74422549D01*
X66121699Y-74065406D02*
X66693127Y-74065406D01*
X66335984Y-73565406D02*
X66335984Y-74851120D01*
X66335984Y-74851120D02*
X66407413Y-74993978D01*
X66407413Y-74993978D02*
X66550270Y-75065406D01*
X66550270Y-75065406D02*
X66693127Y-75065406D01*
X67764556Y-74993978D02*
X67621699Y-75065406D01*
X67621699Y-75065406D02*
X67335985Y-75065406D01*
X67335985Y-75065406D02*
X67193127Y-74993978D01*
X67193127Y-74993978D02*
X67121699Y-74851120D01*
X67121699Y-74851120D02*
X67121699Y-74279692D01*
X67121699Y-74279692D02*
X67193127Y-74136835D01*
X67193127Y-74136835D02*
X67335985Y-74065406D01*
X67335985Y-74065406D02*
X67621699Y-74065406D01*
X67621699Y-74065406D02*
X67764556Y-74136835D01*
X67764556Y-74136835D02*
X67835985Y-74279692D01*
X67835985Y-74279692D02*
X67835985Y-74422549D01*
X67835985Y-74422549D02*
X67121699Y-74565406D01*
X68478841Y-74922549D02*
X68550270Y-74993978D01*
X68550270Y-74993978D02*
X68478841Y-75065406D01*
X68478841Y-75065406D02*
X68407413Y-74993978D01*
X68407413Y-74993978D02*
X68478841Y-74922549D01*
X68478841Y-74922549D02*
X68478841Y-75065406D01*
X68478841Y-74136835D02*
X68550270Y-74208263D01*
X68550270Y-74208263D02*
X68478841Y-74279692D01*
X68478841Y-74279692D02*
X68407413Y-74208263D01*
X68407413Y-74208263D02*
X68478841Y-74136835D01*
X68478841Y-74136835D02*
X68478841Y-74279692D01*
D10*
D11*
X40023015Y-75779278D02*
X148023015Y-75779278D01*
D10*
D11*
X41478841Y-77865406D02*
X41478841Y-76365406D01*
X42335984Y-77865406D02*
X41693127Y-77008263D01*
X42335984Y-76365406D02*
X41478841Y-77222549D01*
X42978841Y-77865406D02*
X42978841Y-76865406D01*
X42978841Y-76365406D02*
X42907413Y-76436835D01*
X42907413Y-76436835D02*
X42978841Y-76508263D01*
X42978841Y-76508263D02*
X43050270Y-76436835D01*
X43050270Y-76436835D02*
X42978841Y-76365406D01*
X42978841Y-76365406D02*
X42978841Y-76508263D01*
X44550270Y-77722549D02*
X44478842Y-77793978D01*
X44478842Y-77793978D02*
X44264556Y-77865406D01*
X44264556Y-77865406D02*
X44121699Y-77865406D01*
X44121699Y-77865406D02*
X43907413Y-77793978D01*
X43907413Y-77793978D02*
X43764556Y-77651120D01*
X43764556Y-77651120D02*
X43693127Y-77508263D01*
X43693127Y-77508263D02*
X43621699Y-77222549D01*
X43621699Y-77222549D02*
X43621699Y-77008263D01*
X43621699Y-77008263D02*
X43693127Y-76722549D01*
X43693127Y-76722549D02*
X43764556Y-76579692D01*
X43764556Y-76579692D02*
X43907413Y-76436835D01*
X43907413Y-76436835D02*
X44121699Y-76365406D01*
X44121699Y-76365406D02*
X44264556Y-76365406D01*
X44264556Y-76365406D02*
X44478842Y-76436835D01*
X44478842Y-76436835D02*
X44550270Y-76508263D01*
X45835985Y-77865406D02*
X45835985Y-77079692D01*
X45835985Y-77079692D02*
X45764556Y-76936835D01*
X45764556Y-76936835D02*
X45621699Y-76865406D01*
X45621699Y-76865406D02*
X45335985Y-76865406D01*
X45335985Y-76865406D02*
X45193127Y-76936835D01*
X45835985Y-77793978D02*
X45693127Y-77865406D01*
X45693127Y-77865406D02*
X45335985Y-77865406D01*
X45335985Y-77865406D02*
X45193127Y-77793978D01*
X45193127Y-77793978D02*
X45121699Y-77651120D01*
X45121699Y-77651120D02*
X45121699Y-77508263D01*
X45121699Y-77508263D02*
X45193127Y-77365406D01*
X45193127Y-77365406D02*
X45335985Y-77293978D01*
X45335985Y-77293978D02*
X45693127Y-77293978D01*
X45693127Y-77293978D02*
X45835985Y-77222549D01*
X47193128Y-77865406D02*
X47193128Y-76365406D01*
X47193128Y-77793978D02*
X47050270Y-77865406D01*
X47050270Y-77865406D02*
X46764556Y-77865406D01*
X46764556Y-77865406D02*
X46621699Y-77793978D01*
X46621699Y-77793978D02*
X46550270Y-77722549D01*
X46550270Y-77722549D02*
X46478842Y-77579692D01*
X46478842Y-77579692D02*
X46478842Y-77151120D01*
X46478842Y-77151120D02*
X46550270Y-77008263D01*
X46550270Y-77008263D02*
X46621699Y-76936835D01*
X46621699Y-76936835D02*
X46764556Y-76865406D01*
X46764556Y-76865406D02*
X47050270Y-76865406D01*
X47050270Y-76865406D02*
X47193128Y-76936835D01*
X49050270Y-77079692D02*
X49550270Y-77079692D01*
X49764556Y-77865406D02*
X49050270Y-77865406D01*
X49050270Y-77865406D02*
X49050270Y-76365406D01*
X49050270Y-76365406D02*
X49764556Y-76365406D01*
X50407413Y-77722549D02*
X50478842Y-77793978D01*
X50478842Y-77793978D02*
X50407413Y-77865406D01*
X50407413Y-77865406D02*
X50335985Y-77793978D01*
X50335985Y-77793978D02*
X50407413Y-77722549D01*
X50407413Y-77722549D02*
X50407413Y-77865406D01*
X51121699Y-77865406D02*
X51121699Y-76365406D01*
X51121699Y-76365406D02*
X51478842Y-76365406D01*
X51478842Y-76365406D02*
X51693128Y-76436835D01*
X51693128Y-76436835D02*
X51835985Y-76579692D01*
X51835985Y-76579692D02*
X51907414Y-76722549D01*
X51907414Y-76722549D02*
X51978842Y-77008263D01*
X51978842Y-77008263D02*
X51978842Y-77222549D01*
X51978842Y-77222549D02*
X51907414Y-77508263D01*
X51907414Y-77508263D02*
X51835985Y-77651120D01*
X51835985Y-77651120D02*
X51693128Y-77793978D01*
X51693128Y-77793978D02*
X51478842Y-77865406D01*
X51478842Y-77865406D02*
X51121699Y-77865406D01*
X52621699Y-77722549D02*
X52693128Y-77793978D01*
X52693128Y-77793978D02*
X52621699Y-77865406D01*
X52621699Y-77865406D02*
X52550271Y-77793978D01*
X52550271Y-77793978D02*
X52621699Y-77722549D01*
X52621699Y-77722549D02*
X52621699Y-77865406D01*
X53264557Y-77436835D02*
X53978843Y-77436835D01*
X53121700Y-77865406D02*
X53621700Y-76365406D01*
X53621700Y-76365406D02*
X54121700Y-77865406D01*
X54621699Y-77722549D02*
X54693128Y-77793978D01*
X54693128Y-77793978D02*
X54621699Y-77865406D01*
X54621699Y-77865406D02*
X54550271Y-77793978D01*
X54550271Y-77793978D02*
X54621699Y-77722549D01*
X54621699Y-77722549D02*
X54621699Y-77865406D01*
X56550271Y-77865406D02*
X56835985Y-77865406D01*
X56835985Y-77865406D02*
X56978842Y-77793978D01*
X56978842Y-77793978D02*
X57050271Y-77722549D01*
X57050271Y-77722549D02*
X57193128Y-77508263D01*
X57193128Y-77508263D02*
X57264557Y-77222549D01*
X57264557Y-77222549D02*
X57264557Y-76651120D01*
X57264557Y-76651120D02*
X57193128Y-76508263D01*
X57193128Y-76508263D02*
X57121700Y-76436835D01*
X57121700Y-76436835D02*
X56978842Y-76365406D01*
X56978842Y-76365406D02*
X56693128Y-76365406D01*
X56693128Y-76365406D02*
X56550271Y-76436835D01*
X56550271Y-76436835D02*
X56478842Y-76508263D01*
X56478842Y-76508263D02*
X56407414Y-76651120D01*
X56407414Y-76651120D02*
X56407414Y-77008263D01*
X56407414Y-77008263D02*
X56478842Y-77151120D01*
X56478842Y-77151120D02*
X56550271Y-77222549D01*
X56550271Y-77222549D02*
X56693128Y-77293978D01*
X56693128Y-77293978D02*
X56978842Y-77293978D01*
X56978842Y-77293978D02*
X57121700Y-77222549D01*
X57121700Y-77222549D02*
X57193128Y-77151120D01*
X57193128Y-77151120D02*
X57264557Y-77008263D01*
X57907413Y-77722549D02*
X57978842Y-77793978D01*
X57978842Y-77793978D02*
X57907413Y-77865406D01*
X57907413Y-77865406D02*
X57835985Y-77793978D01*
X57835985Y-77793978D02*
X57907413Y-77722549D01*
X57907413Y-77722549D02*
X57907413Y-77865406D01*
X58907414Y-76365406D02*
X59050271Y-76365406D01*
X59050271Y-76365406D02*
X59193128Y-76436835D01*
X59193128Y-76436835D02*
X59264557Y-76508263D01*
X59264557Y-76508263D02*
X59335985Y-76651120D01*
X59335985Y-76651120D02*
X59407414Y-76936835D01*
X59407414Y-76936835D02*
X59407414Y-77293978D01*
X59407414Y-77293978D02*
X59335985Y-77579692D01*
X59335985Y-77579692D02*
X59264557Y-77722549D01*
X59264557Y-77722549D02*
X59193128Y-77793978D01*
X59193128Y-77793978D02*
X59050271Y-77865406D01*
X59050271Y-77865406D02*
X58907414Y-77865406D01*
X58907414Y-77865406D02*
X58764557Y-77793978D01*
X58764557Y-77793978D02*
X58693128Y-77722549D01*
X58693128Y-77722549D02*
X58621699Y-77579692D01*
X58621699Y-77579692D02*
X58550271Y-77293978D01*
X58550271Y-77293978D02*
X58550271Y-76936835D01*
X58550271Y-76936835D02*
X58621699Y-76651120D01*
X58621699Y-76651120D02*
X58693128Y-76508263D01*
X58693128Y-76508263D02*
X58764557Y-76436835D01*
X58764557Y-76436835D02*
X58907414Y-76365406D01*
X60050270Y-77722549D02*
X60121699Y-77793978D01*
X60121699Y-77793978D02*
X60050270Y-77865406D01*
X60050270Y-77865406D02*
X59978842Y-77793978D01*
X59978842Y-77793978D02*
X60050270Y-77722549D01*
X60050270Y-77722549D02*
X60050270Y-77865406D01*
X61050271Y-76365406D02*
X61193128Y-76365406D01*
X61193128Y-76365406D02*
X61335985Y-76436835D01*
X61335985Y-76436835D02*
X61407414Y-76508263D01*
X61407414Y-76508263D02*
X61478842Y-76651120D01*
X61478842Y-76651120D02*
X61550271Y-76936835D01*
X61550271Y-76936835D02*
X61550271Y-77293978D01*
X61550271Y-77293978D02*
X61478842Y-77579692D01*
X61478842Y-77579692D02*
X61407414Y-77722549D01*
X61407414Y-77722549D02*
X61335985Y-77793978D01*
X61335985Y-77793978D02*
X61193128Y-77865406D01*
X61193128Y-77865406D02*
X61050271Y-77865406D01*
X61050271Y-77865406D02*
X60907414Y-77793978D01*
X60907414Y-77793978D02*
X60835985Y-77722549D01*
X60835985Y-77722549D02*
X60764556Y-77579692D01*
X60764556Y-77579692D02*
X60693128Y-77293978D01*
X60693128Y-77293978D02*
X60693128Y-76936835D01*
X60693128Y-76936835D02*
X60764556Y-76651120D01*
X60764556Y-76651120D02*
X60835985Y-76508263D01*
X60835985Y-76508263D02*
X60907414Y-76436835D01*
X60907414Y-76436835D02*
X61050271Y-76365406D01*
X62193127Y-77293978D02*
X63335985Y-77293978D01*
X64050270Y-77865406D02*
X64050270Y-76865406D01*
X64050270Y-77151120D02*
X64121699Y-77008263D01*
X64121699Y-77008263D02*
X64193128Y-76936835D01*
X64193128Y-76936835D02*
X64335985Y-76865406D01*
X64335985Y-76865406D02*
X64478842Y-76865406D01*
X65621699Y-77793978D02*
X65478841Y-77865406D01*
X65478841Y-77865406D02*
X65193127Y-77865406D01*
X65193127Y-77865406D02*
X65050270Y-77793978D01*
X65050270Y-77793978D02*
X64978841Y-77722549D01*
X64978841Y-77722549D02*
X64907413Y-77579692D01*
X64907413Y-77579692D02*
X64907413Y-77151120D01*
X64907413Y-77151120D02*
X64978841Y-77008263D01*
X64978841Y-77008263D02*
X65050270Y-76936835D01*
X65050270Y-76936835D02*
X65193127Y-76865406D01*
X65193127Y-76865406D02*
X65478841Y-76865406D01*
X65478841Y-76865406D02*
X65621699Y-76936835D01*
X66193127Y-76508263D02*
X66264555Y-76436835D01*
X66264555Y-76436835D02*
X66407413Y-76365406D01*
X66407413Y-76365406D02*
X66764555Y-76365406D01*
X66764555Y-76365406D02*
X66907413Y-76436835D01*
X66907413Y-76436835D02*
X66978841Y-76508263D01*
X66978841Y-76508263D02*
X67050270Y-76651120D01*
X67050270Y-76651120D02*
X67050270Y-76793978D01*
X67050270Y-76793978D02*
X66978841Y-77008263D01*
X66978841Y-77008263D02*
X66121698Y-77865406D01*
X66121698Y-77865406D02*
X67050270Y-77865406D01*
D10*
D11*
X40023015Y-72779278D02*
X148023015Y-72779278D01*
D10*
D12*
X127434668Y-75057606D02*
X126934668Y-74343320D01*
X126577525Y-75057606D02*
X126577525Y-73557606D01*
X126577525Y-73557606D02*
X127148954Y-73557606D01*
X127148954Y-73557606D02*
X127291811Y-73629035D01*
X127291811Y-73629035D02*
X127363240Y-73700463D01*
X127363240Y-73700463D02*
X127434668Y-73843320D01*
X127434668Y-73843320D02*
X127434668Y-74057606D01*
X127434668Y-74057606D02*
X127363240Y-74200463D01*
X127363240Y-74200463D02*
X127291811Y-74271892D01*
X127291811Y-74271892D02*
X127148954Y-74343320D01*
X127148954Y-74343320D02*
X126577525Y-74343320D01*
X128648954Y-74986178D02*
X128506097Y-75057606D01*
X128506097Y-75057606D02*
X128220383Y-75057606D01*
X128220383Y-75057606D02*
X128077525Y-74986178D01*
X128077525Y-74986178D02*
X128006097Y-74843320D01*
X128006097Y-74843320D02*
X128006097Y-74271892D01*
X128006097Y-74271892D02*
X128077525Y-74129035D01*
X128077525Y-74129035D02*
X128220383Y-74057606D01*
X128220383Y-74057606D02*
X128506097Y-74057606D01*
X128506097Y-74057606D02*
X128648954Y-74129035D01*
X128648954Y-74129035D02*
X128720383Y-74271892D01*
X128720383Y-74271892D02*
X128720383Y-74414749D01*
X128720383Y-74414749D02*
X128006097Y-74557606D01*
X129220382Y-74057606D02*
X129577525Y-75057606D01*
X129577525Y-75057606D02*
X129934668Y-74057606D01*
X130506096Y-74914749D02*
X130577525Y-74986178D01*
X130577525Y-74986178D02*
X130506096Y-75057606D01*
X130506096Y-75057606D02*
X130434668Y-74986178D01*
X130434668Y-74986178D02*
X130506096Y-74914749D01*
X130506096Y-74914749D02*
X130506096Y-75057606D01*
X130506096Y-74129035D02*
X130577525Y-74200463D01*
X130577525Y-74200463D02*
X130506096Y-74271892D01*
X130506096Y-74271892D02*
X130434668Y-74200463D01*
X130434668Y-74200463D02*
X130506096Y-74129035D01*
X130506096Y-74129035D02*
X130506096Y-74271892D01*
D10*
D11*
X41407413Y-74993978D02*
X41621699Y-75065406D01*
X41621699Y-75065406D02*
X41978841Y-75065406D01*
X41978841Y-75065406D02*
X42121699Y-74993978D01*
X42121699Y-74993978D02*
X42193127Y-74922549D01*
X42193127Y-74922549D02*
X42264556Y-74779692D01*
X42264556Y-74779692D02*
X42264556Y-74636835D01*
X42264556Y-74636835D02*
X42193127Y-74493978D01*
X42193127Y-74493978D02*
X42121699Y-74422549D01*
X42121699Y-74422549D02*
X41978841Y-74351120D01*
X41978841Y-74351120D02*
X41693127Y-74279692D01*
X41693127Y-74279692D02*
X41550270Y-74208263D01*
X41550270Y-74208263D02*
X41478841Y-74136835D01*
X41478841Y-74136835D02*
X41407413Y-73993978D01*
X41407413Y-73993978D02*
X41407413Y-73851120D01*
X41407413Y-73851120D02*
X41478841Y-73708263D01*
X41478841Y-73708263D02*
X41550270Y-73636835D01*
X41550270Y-73636835D02*
X41693127Y-73565406D01*
X41693127Y-73565406D02*
X42050270Y-73565406D01*
X42050270Y-73565406D02*
X42264556Y-73636835D01*
X42907412Y-75065406D02*
X42907412Y-74065406D01*
X42907412Y-73565406D02*
X42835984Y-73636835D01*
X42835984Y-73636835D02*
X42907412Y-73708263D01*
X42907412Y-73708263D02*
X42978841Y-73636835D01*
X42978841Y-73636835D02*
X42907412Y-73565406D01*
X42907412Y-73565406D02*
X42907412Y-73708263D01*
X43478841Y-74065406D02*
X44264556Y-74065406D01*
X44264556Y-74065406D02*
X43478841Y-75065406D01*
X43478841Y-75065406D02*
X44264556Y-75065406D01*
X45407413Y-74993978D02*
X45264556Y-75065406D01*
X45264556Y-75065406D02*
X44978842Y-75065406D01*
X44978842Y-75065406D02*
X44835984Y-74993978D01*
X44835984Y-74993978D02*
X44764556Y-74851120D01*
X44764556Y-74851120D02*
X44764556Y-74279692D01*
X44764556Y-74279692D02*
X44835984Y-74136835D01*
X44835984Y-74136835D02*
X44978842Y-74065406D01*
X44978842Y-74065406D02*
X45264556Y-74065406D01*
X45264556Y-74065406D02*
X45407413Y-74136835D01*
X45407413Y-74136835D02*
X45478842Y-74279692D01*
X45478842Y-74279692D02*
X45478842Y-74422549D01*
X45478842Y-74422549D02*
X44764556Y-74565406D01*
X46121698Y-74922549D02*
X46193127Y-74993978D01*
X46193127Y-74993978D02*
X46121698Y-75065406D01*
X46121698Y-75065406D02*
X46050270Y-74993978D01*
X46050270Y-74993978D02*
X46121698Y-74922549D01*
X46121698Y-74922549D02*
X46121698Y-75065406D01*
X46121698Y-74136835D02*
X46193127Y-74208263D01*
X46193127Y-74208263D02*
X46121698Y-74279692D01*
X46121698Y-74279692D02*
X46050270Y-74208263D01*
X46050270Y-74208263D02*
X46121698Y-74136835D01*
X46121698Y-74136835D02*
X46121698Y-74279692D01*
X47907413Y-74636835D02*
X48621699Y-74636835D01*
X47764556Y-75065406D02*
X48264556Y-73565406D01*
X48264556Y-73565406D02*
X48764556Y-75065406D01*
X49907413Y-74065406D02*
X49907413Y-75065406D01*
X49550270Y-73493978D02*
X49193127Y-74565406D01*
X49193127Y-74565406D02*
X50121698Y-74565406D01*
D10*
D11*
X126478841Y-77865406D02*
X126478841Y-76365406D01*
X127835985Y-77865406D02*
X127835985Y-76365406D01*
X127835985Y-77793978D02*
X127693127Y-77865406D01*
X127693127Y-77865406D02*
X127407413Y-77865406D01*
X127407413Y-77865406D02*
X127264556Y-77793978D01*
X127264556Y-77793978D02*
X127193127Y-77722549D01*
X127193127Y-77722549D02*
X127121699Y-77579692D01*
X127121699Y-77579692D02*
X127121699Y-77151120D01*
X127121699Y-77151120D02*
X127193127Y-77008263D01*
X127193127Y-77008263D02*
X127264556Y-76936835D01*
X127264556Y-76936835D02*
X127407413Y-76865406D01*
X127407413Y-76865406D02*
X127693127Y-76865406D01*
X127693127Y-76865406D02*
X127835985Y-76936835D01*
X128550270Y-77722549D02*
X128621699Y-77793978D01*
X128621699Y-77793978D02*
X128550270Y-77865406D01*
X128550270Y-77865406D02*
X128478842Y-77793978D01*
X128478842Y-77793978D02*
X128550270Y-77722549D01*
X128550270Y-77722549D02*
X128550270Y-77865406D01*
X128550270Y-76936835D02*
X128621699Y-77008263D01*
X128621699Y-77008263D02*
X128550270Y-77079692D01*
X128550270Y-77079692D02*
X128478842Y-77008263D01*
X128478842Y-77008263D02*
X128550270Y-76936835D01*
X128550270Y-76936835D02*
X128550270Y-77079692D01*
X131193128Y-77865406D02*
X130335985Y-77865406D01*
X130764556Y-77865406D02*
X130764556Y-76365406D01*
X130764556Y-76365406D02*
X130621699Y-76579692D01*
X130621699Y-76579692D02*
X130478842Y-76722549D01*
X130478842Y-76722549D02*
X130335985Y-76793978D01*
X132478842Y-76365406D02*
X132193127Y-76365406D01*
X132193127Y-76365406D02*
X132050270Y-76436835D01*
X132050270Y-76436835D02*
X131978842Y-76508263D01*
X131978842Y-76508263D02*
X131835984Y-76722549D01*
X131835984Y-76722549D02*
X131764556Y-77008263D01*
X131764556Y-77008263D02*
X131764556Y-77579692D01*
X131764556Y-77579692D02*
X131835984Y-77722549D01*
X131835984Y-77722549D02*
X131907413Y-77793978D01*
X131907413Y-77793978D02*
X132050270Y-77865406D01*
X132050270Y-77865406D02*
X132335984Y-77865406D01*
X132335984Y-77865406D02*
X132478842Y-77793978D01*
X132478842Y-77793978D02*
X132550270Y-77722549D01*
X132550270Y-77722549D02*
X132621699Y-77579692D01*
X132621699Y-77579692D02*
X132621699Y-77222549D01*
X132621699Y-77222549D02*
X132550270Y-77079692D01*
X132550270Y-77079692D02*
X132478842Y-77008263D01*
X132478842Y-77008263D02*
X132335984Y-76936835D01*
X132335984Y-76936835D02*
X132050270Y-76936835D01*
X132050270Y-76936835D02*
X131907413Y-77008263D01*
X131907413Y-77008263D02*
X131835984Y-77079692D01*
X131835984Y-77079692D02*
X131764556Y-77222549D01*
X134335984Y-76293978D02*
X133050270Y-78222549D01*
X135621699Y-77865406D02*
X134764556Y-77865406D01*
X135193127Y-77865406D02*
X135193127Y-76365406D01*
X135193127Y-76365406D02*
X135050270Y-76579692D01*
X135050270Y-76579692D02*
X134907413Y-76722549D01*
X134907413Y-76722549D02*
X134764556Y-76793978D01*
X136121698Y-76365406D02*
X137121698Y-76365406D01*
X137121698Y-76365406D02*
X136478841Y-77865406D01*
D10*
D11*
X40023015Y-68779278D02*
X148023015Y-68779278D01*
D10*
D13*
X41714743Y-69483716D02*
X42857600Y-69483716D01*
X42036172Y-71483716D02*
X42286172Y-69483716D01*
X43274267Y-71483716D02*
X43440934Y-70150382D01*
X43524267Y-69483716D02*
X43417124Y-69578954D01*
X43417124Y-69578954D02*
X43500458Y-69674192D01*
X43500458Y-69674192D02*
X43607601Y-69578954D01*
X43607601Y-69578954D02*
X43524267Y-69483716D01*
X43524267Y-69483716D02*
X43500458Y-69674192D01*
X44107601Y-70150382D02*
X44869505Y-70150382D01*
X44476648Y-69483716D02*
X44262363Y-71198001D01*
X44262363Y-71198001D02*
X44333791Y-71388478D01*
X44333791Y-71388478D02*
X44512363Y-71483716D01*
X44512363Y-71483716D02*
X44702839Y-71483716D01*
X45655220Y-71483716D02*
X45476648Y-71388478D01*
X45476648Y-71388478D02*
X45405220Y-71198001D01*
X45405220Y-71198001D02*
X45619505Y-69483716D01*
X47190934Y-71388478D02*
X46988553Y-71483716D01*
X46988553Y-71483716D02*
X46607600Y-71483716D01*
X46607600Y-71483716D02*
X46429029Y-71388478D01*
X46429029Y-71388478D02*
X46357600Y-71198001D01*
X46357600Y-71198001D02*
X46452839Y-70436097D01*
X46452839Y-70436097D02*
X46571886Y-70245620D01*
X46571886Y-70245620D02*
X46774267Y-70150382D01*
X46774267Y-70150382D02*
X47155219Y-70150382D01*
X47155219Y-70150382D02*
X47333791Y-70245620D01*
X47333791Y-70245620D02*
X47405219Y-70436097D01*
X47405219Y-70436097D02*
X47381410Y-70626573D01*
X47381410Y-70626573D02*
X46405219Y-70817049D01*
X48155220Y-71293239D02*
X48238553Y-71388478D01*
X48238553Y-71388478D02*
X48131410Y-71483716D01*
X48131410Y-71483716D02*
X48048077Y-71388478D01*
X48048077Y-71388478D02*
X48155220Y-71293239D01*
X48155220Y-71293239D02*
X48131410Y-71483716D01*
X48286172Y-70245620D02*
X48369505Y-70340858D01*
X48369505Y-70340858D02*
X48262363Y-70436097D01*
X48262363Y-70436097D02*
X48179029Y-70340858D01*
X48179029Y-70340858D02*
X48286172Y-70245620D01*
X48286172Y-70245620D02*
X48262363Y-70436097D01*
D10*
D11*
X41978841Y-66879692D02*
X41478841Y-66879692D01*
X41478841Y-67665406D02*
X41478841Y-66165406D01*
X41478841Y-66165406D02*
X42193127Y-66165406D01*
X42764555Y-67665406D02*
X42764555Y-66665406D01*
X42764555Y-66165406D02*
X42693127Y-66236835D01*
X42693127Y-66236835D02*
X42764555Y-66308263D01*
X42764555Y-66308263D02*
X42835984Y-66236835D01*
X42835984Y-66236835D02*
X42764555Y-66165406D01*
X42764555Y-66165406D02*
X42764555Y-66308263D01*
X43693127Y-67665406D02*
X43550270Y-67593978D01*
X43550270Y-67593978D02*
X43478841Y-67451120D01*
X43478841Y-67451120D02*
X43478841Y-66165406D01*
X44835984Y-67593978D02*
X44693127Y-67665406D01*
X44693127Y-67665406D02*
X44407413Y-67665406D01*
X44407413Y-67665406D02*
X44264555Y-67593978D01*
X44264555Y-67593978D02*
X44193127Y-67451120D01*
X44193127Y-67451120D02*
X44193127Y-66879692D01*
X44193127Y-66879692D02*
X44264555Y-66736835D01*
X44264555Y-66736835D02*
X44407413Y-66665406D01*
X44407413Y-66665406D02*
X44693127Y-66665406D01*
X44693127Y-66665406D02*
X44835984Y-66736835D01*
X44835984Y-66736835D02*
X44907413Y-66879692D01*
X44907413Y-66879692D02*
X44907413Y-67022549D01*
X44907413Y-67022549D02*
X44193127Y-67165406D01*
X45550269Y-67522549D02*
X45621698Y-67593978D01*
X45621698Y-67593978D02*
X45550269Y-67665406D01*
X45550269Y-67665406D02*
X45478841Y-67593978D01*
X45478841Y-67593978D02*
X45550269Y-67522549D01*
X45550269Y-67522549D02*
X45550269Y-67665406D01*
X45550269Y-66736835D02*
X45621698Y-66808263D01*
X45621698Y-66808263D02*
X45550269Y-66879692D01*
X45550269Y-66879692D02*
X45478841Y-66808263D01*
X45478841Y-66808263D02*
X45550269Y-66736835D01*
X45550269Y-66736835D02*
X45550269Y-66879692D01*
X47407412Y-67665406D02*
X47407412Y-66165406D01*
X47407412Y-66165406D02*
X47978841Y-66165406D01*
X47978841Y-66165406D02*
X48121698Y-66236835D01*
X48121698Y-66236835D02*
X48193127Y-66308263D01*
X48193127Y-66308263D02*
X48264555Y-66451120D01*
X48264555Y-66451120D02*
X48264555Y-66665406D01*
X48264555Y-66665406D02*
X48193127Y-66808263D01*
X48193127Y-66808263D02*
X48121698Y-66879692D01*
X48121698Y-66879692D02*
X47978841Y-66951120D01*
X47978841Y-66951120D02*
X47407412Y-66951120D01*
X49764555Y-67522549D02*
X49693127Y-67593978D01*
X49693127Y-67593978D02*
X49478841Y-67665406D01*
X49478841Y-67665406D02*
X49335984Y-67665406D01*
X49335984Y-67665406D02*
X49121698Y-67593978D01*
X49121698Y-67593978D02*
X48978841Y-67451120D01*
X48978841Y-67451120D02*
X48907412Y-67308263D01*
X48907412Y-67308263D02*
X48835984Y-67022549D01*
X48835984Y-67022549D02*
X48835984Y-66808263D01*
X48835984Y-66808263D02*
X48907412Y-66522549D01*
X48907412Y-66522549D02*
X48978841Y-66379692D01*
X48978841Y-66379692D02*
X49121698Y-66236835D01*
X49121698Y-66236835D02*
X49335984Y-66165406D01*
X49335984Y-66165406D02*
X49478841Y-66165406D01*
X49478841Y-66165406D02*
X49693127Y-66236835D01*
X49693127Y-66236835D02*
X49764555Y-66308263D01*
X50335984Y-67236835D02*
X51050270Y-67236835D01*
X50193127Y-67665406D02*
X50693127Y-66165406D01*
X50693127Y-66165406D02*
X51193127Y-67665406D01*
X51621698Y-66308263D02*
X51693126Y-66236835D01*
X51693126Y-66236835D02*
X51835984Y-66165406D01*
X51835984Y-66165406D02*
X52193126Y-66165406D01*
X52193126Y-66165406D02*
X52335984Y-66236835D01*
X52335984Y-66236835D02*
X52407412Y-66308263D01*
X52407412Y-66308263D02*
X52478841Y-66451120D01*
X52478841Y-66451120D02*
X52478841Y-66593978D01*
X52478841Y-66593978D02*
X52407412Y-66808263D01*
X52407412Y-66808263D02*
X51550269Y-67665406D01*
X51550269Y-67665406D02*
X52478841Y-67665406D01*
X53407412Y-66165406D02*
X53550269Y-66165406D01*
X53550269Y-66165406D02*
X53693126Y-66236835D01*
X53693126Y-66236835D02*
X53764555Y-66308263D01*
X53764555Y-66308263D02*
X53835983Y-66451120D01*
X53835983Y-66451120D02*
X53907412Y-66736835D01*
X53907412Y-66736835D02*
X53907412Y-67093978D01*
X53907412Y-67093978D02*
X53835983Y-67379692D01*
X53835983Y-67379692D02*
X53764555Y-67522549D01*
X53764555Y-67522549D02*
X53693126Y-67593978D01*
X53693126Y-67593978D02*
X53550269Y-67665406D01*
X53550269Y-67665406D02*
X53407412Y-67665406D01*
X53407412Y-67665406D02*
X53264555Y-67593978D01*
X53264555Y-67593978D02*
X53193126Y-67522549D01*
X53193126Y-67522549D02*
X53121697Y-67379692D01*
X53121697Y-67379692D02*
X53050269Y-67093978D01*
X53050269Y-67093978D02*
X53050269Y-66736835D01*
X53050269Y-66736835D02*
X53121697Y-66451120D01*
X53121697Y-66451120D02*
X53193126Y-66308263D01*
X53193126Y-66308263D02*
X53264555Y-66236835D01*
X53264555Y-66236835D02*
X53407412Y-66165406D01*
X54835983Y-66165406D02*
X54978840Y-66165406D01*
X54978840Y-66165406D02*
X55121697Y-66236835D01*
X55121697Y-66236835D02*
X55193126Y-66308263D01*
X55193126Y-66308263D02*
X55264554Y-66451120D01*
X55264554Y-66451120D02*
X55335983Y-66736835D01*
X55335983Y-66736835D02*
X55335983Y-67093978D01*
X55335983Y-67093978D02*
X55264554Y-67379692D01*
X55264554Y-67379692D02*
X55193126Y-67522549D01*
X55193126Y-67522549D02*
X55121697Y-67593978D01*
X55121697Y-67593978D02*
X54978840Y-67665406D01*
X54978840Y-67665406D02*
X54835983Y-67665406D01*
X54835983Y-67665406D02*
X54693126Y-67593978D01*
X54693126Y-67593978D02*
X54621697Y-67522549D01*
X54621697Y-67522549D02*
X54550268Y-67379692D01*
X54550268Y-67379692D02*
X54478840Y-67093978D01*
X54478840Y-67093978D02*
X54478840Y-66736835D01*
X54478840Y-66736835D02*
X54550268Y-66451120D01*
X54550268Y-66451120D02*
X54621697Y-66308263D01*
X54621697Y-66308263D02*
X54693126Y-66236835D01*
X54693126Y-66236835D02*
X54835983Y-66165406D01*
X55835982Y-66165406D02*
X56835982Y-66165406D01*
X56835982Y-66165406D02*
X56193125Y-67665406D01*
X57264553Y-66165406D02*
X58193125Y-66165406D01*
X58193125Y-66165406D02*
X57693125Y-66736835D01*
X57693125Y-66736835D02*
X57907410Y-66736835D01*
X57907410Y-66736835D02*
X58050268Y-66808263D01*
X58050268Y-66808263D02*
X58121696Y-66879692D01*
X58121696Y-66879692D02*
X58193125Y-67022549D01*
X58193125Y-67022549D02*
X58193125Y-67379692D01*
X58193125Y-67379692D02*
X58121696Y-67522549D01*
X58121696Y-67522549D02*
X58050268Y-67593978D01*
X58050268Y-67593978D02*
X57907410Y-67665406D01*
X57907410Y-67665406D02*
X57478839Y-67665406D01*
X57478839Y-67665406D02*
X57335982Y-67593978D01*
X57335982Y-67593978D02*
X57264553Y-67522549D01*
X58478839Y-67808263D02*
X59621696Y-67808263D01*
X59764553Y-66165406D02*
X60621696Y-66165406D01*
X60193124Y-67665406D02*
X60193124Y-66165406D01*
X61121695Y-67665406D02*
X61121695Y-66665406D01*
X61121695Y-66165406D02*
X61050267Y-66236835D01*
X61050267Y-66236835D02*
X61121695Y-66308263D01*
X61121695Y-66308263D02*
X61193124Y-66236835D01*
X61193124Y-66236835D02*
X61121695Y-66165406D01*
X61121695Y-66165406D02*
X61121695Y-66308263D01*
X61835981Y-66665406D02*
X61835981Y-67665406D01*
X61835981Y-66808263D02*
X61907410Y-66736835D01*
X61907410Y-66736835D02*
X62050267Y-66665406D01*
X62050267Y-66665406D02*
X62264553Y-66665406D01*
X62264553Y-66665406D02*
X62407410Y-66736835D01*
X62407410Y-66736835D02*
X62478839Y-66879692D01*
X62478839Y-66879692D02*
X62478839Y-67665406D01*
X63050267Y-66665406D02*
X63407410Y-67665406D01*
X63764553Y-66665406D02*
X63407410Y-67665406D01*
X63407410Y-67665406D02*
X63264553Y-68022549D01*
X63264553Y-68022549D02*
X63193124Y-68093978D01*
X63193124Y-68093978D02*
X63050267Y-68165406D01*
X63978839Y-67808263D02*
X65121696Y-67808263D01*
X65978838Y-66879692D02*
X66193124Y-66951120D01*
X66193124Y-66951120D02*
X66264553Y-67022549D01*
X66264553Y-67022549D02*
X66335981Y-67165406D01*
X66335981Y-67165406D02*
X66335981Y-67379692D01*
X66335981Y-67379692D02*
X66264553Y-67522549D01*
X66264553Y-67522549D02*
X66193124Y-67593978D01*
X66193124Y-67593978D02*
X66050267Y-67665406D01*
X66050267Y-67665406D02*
X65478838Y-67665406D01*
X65478838Y-67665406D02*
X65478838Y-66165406D01*
X65478838Y-66165406D02*
X65978838Y-66165406D01*
X65978838Y-66165406D02*
X66121696Y-66236835D01*
X66121696Y-66236835D02*
X66193124Y-66308263D01*
X66193124Y-66308263D02*
X66264553Y-66451120D01*
X66264553Y-66451120D02*
X66264553Y-66593978D01*
X66264553Y-66593978D02*
X66193124Y-66736835D01*
X66193124Y-66736835D02*
X66121696Y-66808263D01*
X66121696Y-66808263D02*
X65978838Y-66879692D01*
X65978838Y-66879692D02*
X65478838Y-66879692D01*
X67193124Y-67665406D02*
X67050267Y-67593978D01*
X67050267Y-67593978D02*
X66978838Y-67522549D01*
X66978838Y-67522549D02*
X66907410Y-67379692D01*
X66907410Y-67379692D02*
X66907410Y-66951120D01*
X66907410Y-66951120D02*
X66978838Y-66808263D01*
X66978838Y-66808263D02*
X67050267Y-66736835D01*
X67050267Y-66736835D02*
X67193124Y-66665406D01*
X67193124Y-66665406D02*
X67407410Y-66665406D01*
X67407410Y-66665406D02*
X67550267Y-66736835D01*
X67550267Y-66736835D02*
X67621696Y-66808263D01*
X67621696Y-66808263D02*
X67693124Y-66951120D01*
X67693124Y-66951120D02*
X67693124Y-67379692D01*
X67693124Y-67379692D02*
X67621696Y-67522549D01*
X67621696Y-67522549D02*
X67550267Y-67593978D01*
X67550267Y-67593978D02*
X67407410Y-67665406D01*
X67407410Y-67665406D02*
X67193124Y-67665406D01*
X68978839Y-67665406D02*
X68978839Y-66879692D01*
X68978839Y-66879692D02*
X68907410Y-66736835D01*
X68907410Y-66736835D02*
X68764553Y-66665406D01*
X68764553Y-66665406D02*
X68478839Y-66665406D01*
X68478839Y-66665406D02*
X68335981Y-66736835D01*
X68978839Y-67593978D02*
X68835981Y-67665406D01*
X68835981Y-67665406D02*
X68478839Y-67665406D01*
X68478839Y-67665406D02*
X68335981Y-67593978D01*
X68335981Y-67593978D02*
X68264553Y-67451120D01*
X68264553Y-67451120D02*
X68264553Y-67308263D01*
X68264553Y-67308263D02*
X68335981Y-67165406D01*
X68335981Y-67165406D02*
X68478839Y-67093978D01*
X68478839Y-67093978D02*
X68835981Y-67093978D01*
X68835981Y-67093978D02*
X68978839Y-67022549D01*
X69693124Y-67665406D02*
X69693124Y-66665406D01*
X69693124Y-66951120D02*
X69764553Y-66808263D01*
X69764553Y-66808263D02*
X69835982Y-66736835D01*
X69835982Y-66736835D02*
X69978839Y-66665406D01*
X69978839Y-66665406D02*
X70121696Y-66665406D01*
X71264553Y-67665406D02*
X71264553Y-66165406D01*
X71264553Y-67593978D02*
X71121695Y-67665406D01*
X71121695Y-67665406D02*
X70835981Y-67665406D01*
X70835981Y-67665406D02*
X70693124Y-67593978D01*
X70693124Y-67593978D02*
X70621695Y-67522549D01*
X70621695Y-67522549D02*
X70550267Y-67379692D01*
X70550267Y-67379692D02*
X70550267Y-66951120D01*
X70550267Y-66951120D02*
X70621695Y-66808263D01*
X70621695Y-66808263D02*
X70693124Y-66736835D01*
X70693124Y-66736835D02*
X70835981Y-66665406D01*
X70835981Y-66665406D02*
X71121695Y-66665406D01*
X71121695Y-66665406D02*
X71264553Y-66736835D01*
X71978838Y-67522549D02*
X72050267Y-67593978D01*
X72050267Y-67593978D02*
X71978838Y-67665406D01*
X71978838Y-67665406D02*
X71907410Y-67593978D01*
X71907410Y-67593978D02*
X71978838Y-67522549D01*
X71978838Y-67522549D02*
X71978838Y-67665406D01*
X72693124Y-67665406D02*
X72693124Y-66165406D01*
X72835982Y-67093978D02*
X73264553Y-67665406D01*
X73264553Y-66665406D02*
X72693124Y-67236835D01*
X73907410Y-67665406D02*
X73907410Y-66665406D01*
X73907410Y-66165406D02*
X73835982Y-66236835D01*
X73835982Y-66236835D02*
X73907410Y-66308263D01*
X73907410Y-66308263D02*
X73978839Y-66236835D01*
X73978839Y-66236835D02*
X73907410Y-66165406D01*
X73907410Y-66165406D02*
X73907410Y-66308263D01*
X75264554Y-67593978D02*
X75121696Y-67665406D01*
X75121696Y-67665406D02*
X74835982Y-67665406D01*
X74835982Y-67665406D02*
X74693125Y-67593978D01*
X74693125Y-67593978D02*
X74621696Y-67522549D01*
X74621696Y-67522549D02*
X74550268Y-67379692D01*
X74550268Y-67379692D02*
X74550268Y-66951120D01*
X74550268Y-66951120D02*
X74621696Y-66808263D01*
X74621696Y-66808263D02*
X74693125Y-66736835D01*
X74693125Y-66736835D02*
X74835982Y-66665406D01*
X74835982Y-66665406D02*
X75121696Y-66665406D01*
X75121696Y-66665406D02*
X75264554Y-66736835D01*
X76550268Y-67665406D02*
X76550268Y-66879692D01*
X76550268Y-66879692D02*
X76478839Y-66736835D01*
X76478839Y-66736835D02*
X76335982Y-66665406D01*
X76335982Y-66665406D02*
X76050268Y-66665406D01*
X76050268Y-66665406D02*
X75907410Y-66736835D01*
X76550268Y-67593978D02*
X76407410Y-67665406D01*
X76407410Y-67665406D02*
X76050268Y-67665406D01*
X76050268Y-67665406D02*
X75907410Y-67593978D01*
X75907410Y-67593978D02*
X75835982Y-67451120D01*
X75835982Y-67451120D02*
X75835982Y-67308263D01*
X75835982Y-67308263D02*
X75907410Y-67165406D01*
X75907410Y-67165406D02*
X76050268Y-67093978D01*
X76050268Y-67093978D02*
X76407410Y-67093978D01*
X76407410Y-67093978D02*
X76550268Y-67022549D01*
X77907411Y-67665406D02*
X77907411Y-66165406D01*
X77907411Y-67593978D02*
X77764553Y-67665406D01*
X77764553Y-67665406D02*
X77478839Y-67665406D01*
X77478839Y-67665406D02*
X77335982Y-67593978D01*
X77335982Y-67593978D02*
X77264553Y-67522549D01*
X77264553Y-67522549D02*
X77193125Y-67379692D01*
X77193125Y-67379692D02*
X77193125Y-66951120D01*
X77193125Y-66951120D02*
X77264553Y-66808263D01*
X77264553Y-66808263D02*
X77335982Y-66736835D01*
X77335982Y-66736835D02*
X77478839Y-66665406D01*
X77478839Y-66665406D02*
X77764553Y-66665406D01*
X77764553Y-66665406D02*
X77907411Y-66736835D01*
X78264554Y-67808263D02*
X79407411Y-67808263D01*
X79764553Y-66665406D02*
X79764553Y-68165406D01*
X79764553Y-66736835D02*
X79907411Y-66665406D01*
X79907411Y-66665406D02*
X80193125Y-66665406D01*
X80193125Y-66665406D02*
X80335982Y-66736835D01*
X80335982Y-66736835D02*
X80407411Y-66808263D01*
X80407411Y-66808263D02*
X80478839Y-66951120D01*
X80478839Y-66951120D02*
X80478839Y-67379692D01*
X80478839Y-67379692D02*
X80407411Y-67522549D01*
X80407411Y-67522549D02*
X80335982Y-67593978D01*
X80335982Y-67593978D02*
X80193125Y-67665406D01*
X80193125Y-67665406D02*
X79907411Y-67665406D01*
X79907411Y-67665406D02*
X79764553Y-67593978D01*
X81764554Y-67593978D02*
X81621696Y-67665406D01*
X81621696Y-67665406D02*
X81335982Y-67665406D01*
X81335982Y-67665406D02*
X81193125Y-67593978D01*
X81193125Y-67593978D02*
X81121696Y-67522549D01*
X81121696Y-67522549D02*
X81050268Y-67379692D01*
X81050268Y-67379692D02*
X81050268Y-66951120D01*
X81050268Y-66951120D02*
X81121696Y-66808263D01*
X81121696Y-66808263D02*
X81193125Y-66736835D01*
X81193125Y-66736835D02*
X81335982Y-66665406D01*
X81335982Y-66665406D02*
X81621696Y-66665406D01*
X81621696Y-66665406D02*
X81764554Y-66736835D01*
X82407410Y-67665406D02*
X82407410Y-66165406D01*
X82407410Y-66736835D02*
X82550268Y-66665406D01*
X82550268Y-66665406D02*
X82835982Y-66665406D01*
X82835982Y-66665406D02*
X82978839Y-66736835D01*
X82978839Y-66736835D02*
X83050268Y-66808263D01*
X83050268Y-66808263D02*
X83121696Y-66951120D01*
X83121696Y-66951120D02*
X83121696Y-67379692D01*
X83121696Y-67379692D02*
X83050268Y-67522549D01*
X83050268Y-67522549D02*
X82978839Y-67593978D01*
X82978839Y-67593978D02*
X82835982Y-67665406D01*
X82835982Y-67665406D02*
X82550268Y-67665406D01*
X82550268Y-67665406D02*
X82407410Y-67593978D01*
D10*
D11*
X40023015Y-62779278D02*
X148023015Y-62779278D01*
D10*
D11*
X41407413Y-64893978D02*
X41621699Y-64965406D01*
X41621699Y-64965406D02*
X41978841Y-64965406D01*
X41978841Y-64965406D02*
X42121699Y-64893978D01*
X42121699Y-64893978D02*
X42193127Y-64822549D01*
X42193127Y-64822549D02*
X42264556Y-64679692D01*
X42264556Y-64679692D02*
X42264556Y-64536835D01*
X42264556Y-64536835D02*
X42193127Y-64393978D01*
X42193127Y-64393978D02*
X42121699Y-64322549D01*
X42121699Y-64322549D02*
X41978841Y-64251120D01*
X41978841Y-64251120D02*
X41693127Y-64179692D01*
X41693127Y-64179692D02*
X41550270Y-64108263D01*
X41550270Y-64108263D02*
X41478841Y-64036835D01*
X41478841Y-64036835D02*
X41407413Y-63893978D01*
X41407413Y-63893978D02*
X41407413Y-63751120D01*
X41407413Y-63751120D02*
X41478841Y-63608263D01*
X41478841Y-63608263D02*
X41550270Y-63536835D01*
X41550270Y-63536835D02*
X41693127Y-63465406D01*
X41693127Y-63465406D02*
X42050270Y-63465406D01*
X42050270Y-63465406D02*
X42264556Y-63536835D01*
X42907412Y-64965406D02*
X42907412Y-63465406D01*
X43550270Y-64965406D02*
X43550270Y-64179692D01*
X43550270Y-64179692D02*
X43478841Y-64036835D01*
X43478841Y-64036835D02*
X43335984Y-63965406D01*
X43335984Y-63965406D02*
X43121698Y-63965406D01*
X43121698Y-63965406D02*
X42978841Y-64036835D01*
X42978841Y-64036835D02*
X42907412Y-64108263D01*
X44835984Y-64893978D02*
X44693127Y-64965406D01*
X44693127Y-64965406D02*
X44407413Y-64965406D01*
X44407413Y-64965406D02*
X44264555Y-64893978D01*
X44264555Y-64893978D02*
X44193127Y-64751120D01*
X44193127Y-64751120D02*
X44193127Y-64179692D01*
X44193127Y-64179692D02*
X44264555Y-64036835D01*
X44264555Y-64036835D02*
X44407413Y-63965406D01*
X44407413Y-63965406D02*
X44693127Y-63965406D01*
X44693127Y-63965406D02*
X44835984Y-64036835D01*
X44835984Y-64036835D02*
X44907413Y-64179692D01*
X44907413Y-64179692D02*
X44907413Y-64322549D01*
X44907413Y-64322549D02*
X44193127Y-64465406D01*
X46121698Y-64893978D02*
X45978841Y-64965406D01*
X45978841Y-64965406D02*
X45693127Y-64965406D01*
X45693127Y-64965406D02*
X45550269Y-64893978D01*
X45550269Y-64893978D02*
X45478841Y-64751120D01*
X45478841Y-64751120D02*
X45478841Y-64179692D01*
X45478841Y-64179692D02*
X45550269Y-64036835D01*
X45550269Y-64036835D02*
X45693127Y-63965406D01*
X45693127Y-63965406D02*
X45978841Y-63965406D01*
X45978841Y-63965406D02*
X46121698Y-64036835D01*
X46121698Y-64036835D02*
X46193127Y-64179692D01*
X46193127Y-64179692D02*
X46193127Y-64322549D01*
X46193127Y-64322549D02*
X45478841Y-64465406D01*
X46621698Y-63965406D02*
X47193126Y-63965406D01*
X46835983Y-63465406D02*
X46835983Y-64751120D01*
X46835983Y-64751120D02*
X46907412Y-64893978D01*
X46907412Y-64893978D02*
X47050269Y-64965406D01*
X47050269Y-64965406D02*
X47193126Y-64965406D01*
X47693126Y-64822549D02*
X47764555Y-64893978D01*
X47764555Y-64893978D02*
X47693126Y-64965406D01*
X47693126Y-64965406D02*
X47621698Y-64893978D01*
X47621698Y-64893978D02*
X47693126Y-64822549D01*
X47693126Y-64822549D02*
X47693126Y-64965406D01*
X47693126Y-64036835D02*
X47764555Y-64108263D01*
X47764555Y-64108263D02*
X47693126Y-64179692D01*
X47693126Y-64179692D02*
X47621698Y-64108263D01*
X47621698Y-64108263D02*
X47693126Y-64036835D01*
X47693126Y-64036835D02*
X47693126Y-64179692D01*
D10*
D11*
X60023015Y-72779278D02*
X60023015Y-75779278D01*
D10*
D11*
X124023015Y-72779278D02*
X124023015Y-79279278D01*
X16654717Y10227091D02*
X17227137Y9654671D01*
X17227137Y9654671D02*
X17328152Y9620999D01*
X17328152Y9620999D02*
X17395496Y9620999D01*
X17395496Y9620999D02*
X17496511Y9654671D01*
X17496511Y9654671D02*
X17631198Y9789358D01*
X17631198Y9789358D02*
X17664870Y9890373D01*
X17664870Y9890373D02*
X17664870Y9957717D01*
X17664870Y9957717D02*
X17631198Y10058732D01*
X17631198Y10058732D02*
X17058778Y10631152D01*
X18472992Y10631152D02*
X18068931Y10227091D01*
X18270961Y10429121D02*
X17563855Y11136228D01*
X17563855Y11136228D02*
X17597526Y10967869D01*
X17597526Y10967869D02*
X17597526Y10833182D01*
X17597526Y10833182D02*
X17563855Y10732167D01*
D14*
X21871661Y5568150D02*
X21787482Y5483971D01*
X21787482Y5483971D02*
X21610705Y5660748D01*
X21829572Y5879614D02*
X21795900Y5845942D01*
X21795900Y5845942D02*
X21787482Y5820688D01*
X21787482Y5820688D02*
X21787482Y5803853D01*
X21787482Y5803853D02*
X21795900Y5761763D01*
X21795900Y5761763D02*
X21821154Y5719673D01*
X21821154Y5719673D02*
X21888497Y5652330D01*
X21888497Y5652330D02*
X21913751Y5643912D01*
X21913751Y5643912D02*
X21930587Y5643912D01*
X21930587Y5643912D02*
X21955841Y5652330D01*
X21955841Y5652330D02*
X21989512Y5686001D01*
X21989512Y5686001D02*
X21997930Y5711255D01*
X21997930Y5711255D02*
X21997930Y5728091D01*
X21997930Y5728091D02*
X21989512Y5753345D01*
X21989512Y5753345D02*
X21947423Y5795435D01*
X21947423Y5795435D02*
X21922169Y5803853D01*
X21922169Y5803853D02*
X21905333Y5803853D01*
X21905333Y5803853D02*
X21880079Y5795435D01*
X21880079Y5795435D02*
X21846407Y5761763D01*
X21846407Y5761763D02*
X21837990Y5736509D01*
X21837990Y5736509D02*
X21837990Y5719673D01*
X21837990Y5719673D02*
X21846407Y5694419D01*
X15997063Y8304075D02*
X15997063Y8287239D01*
X15997063Y8287239D02*
X15980227Y8253567D01*
X15980227Y8253567D02*
X15963391Y8236731D01*
X15963391Y8236731D02*
X15929720Y8219896D01*
X15929720Y8219896D02*
X15896048Y8219896D01*
X15896048Y8219896D02*
X15870794Y8228313D01*
X15870794Y8228313D02*
X15828704Y8253567D01*
X15828704Y8253567D02*
X15803451Y8278821D01*
X15803451Y8278821D02*
X15778197Y8320911D01*
X15778197Y8320911D02*
X15769779Y8346165D01*
X15769779Y8346165D02*
X15769779Y8379836D01*
X15769779Y8379836D02*
X15786615Y8413508D01*
X15786615Y8413508D02*
X15803451Y8430344D01*
X15803451Y8430344D02*
X15837122Y8447180D01*
X15837122Y8447180D02*
X15853958Y8447180D01*
X16182258Y8455598D02*
X16081242Y8354583D01*
X16131750Y8405090D02*
X15954973Y8581867D01*
X15954973Y8581867D02*
X15963391Y8539777D01*
X15963391Y8539777D02*
X15963391Y8506105D01*
X15963391Y8506105D02*
X15954973Y8480852D01*
X16089660Y8682882D02*
X16089660Y8699718D01*
X16089660Y8699718D02*
X16098078Y8724972D01*
X16098078Y8724972D02*
X16140168Y8767061D01*
X16140168Y8767061D02*
X16165422Y8775479D01*
X16165422Y8775479D02*
X16182258Y8775479D01*
X16182258Y8775479D02*
X16207511Y8767061D01*
X16207511Y8767061D02*
X16224347Y8750225D01*
X16224347Y8750225D02*
X16241183Y8716554D01*
X16241183Y8716554D02*
X16241183Y8514523D01*
X16241183Y8514523D02*
X16350616Y8623956D01*
X21160963Y3266106D02*
X21076784Y3181927D01*
X21076784Y3181927D02*
X20900007Y3358704D01*
X21026276Y3484973D02*
X21144127Y3602824D01*
X21144127Y3602824D02*
X21245143Y3350286D01*
X10679620Y20452169D02*
X10679620Y20435333D01*
X10679620Y20435333D02*
X10662784Y20401661D01*
X10662784Y20401661D02*
X10645948Y20384825D01*
X10645948Y20384825D02*
X10612277Y20367990D01*
X10612277Y20367990D02*
X10578605Y20367990D01*
X10578605Y20367990D02*
X10553351Y20376407D01*
X10553351Y20376407D02*
X10511261Y20401661D01*
X10511261Y20401661D02*
X10486008Y20426915D01*
X10486008Y20426915D02*
X10460754Y20469005D01*
X10460754Y20469005D02*
X10452336Y20494259D01*
X10452336Y20494259D02*
X10452336Y20527930D01*
X10452336Y20527930D02*
X10469172Y20561602D01*
X10469172Y20561602D02*
X10486008Y20578438D01*
X10486008Y20578438D02*
X10519679Y20595274D01*
X10519679Y20595274D02*
X10536515Y20595274D01*
X10864815Y20603692D02*
X10763799Y20502677D01*
X10814307Y20553184D02*
X10637530Y20729961D01*
X10637530Y20729961D02*
X10645948Y20687871D01*
X10645948Y20687871D02*
X10645948Y20654199D01*
X10645948Y20654199D02*
X10637530Y20628946D01*
X10839561Y20931991D02*
X10805889Y20898319D01*
X10805889Y20898319D02*
X10797471Y20873066D01*
X10797471Y20873066D02*
X10797471Y20856230D01*
X10797471Y20856230D02*
X10805889Y20814140D01*
X10805889Y20814140D02*
X10831143Y20772050D01*
X10831143Y20772050D02*
X10898486Y20704707D01*
X10898486Y20704707D02*
X10923740Y20696289D01*
X10923740Y20696289D02*
X10940576Y20696289D01*
X10940576Y20696289D02*
X10965830Y20704707D01*
X10965830Y20704707D02*
X10999502Y20738379D01*
X10999502Y20738379D02*
X11007920Y20763632D01*
X11007920Y20763632D02*
X11007920Y20780468D01*
X11007920Y20780468D02*
X10999502Y20805722D01*
X10999502Y20805722D02*
X10957412Y20847812D01*
X10957412Y20847812D02*
X10932158Y20856230D01*
X10932158Y20856230D02*
X10915322Y20856230D01*
X10915322Y20856230D02*
X10890068Y20847812D01*
X10890068Y20847812D02*
X10856397Y20814140D01*
X10856397Y20814140D02*
X10847979Y20788886D01*
X10847979Y20788886D02*
X10847979Y20772050D01*
X10847979Y20772050D02*
X10856397Y20746797D01*
X9818706Y21290523D02*
X9950026Y21159203D01*
X9950026Y21159203D02*
X9967535Y21124185D01*
X9967535Y21124185D02*
X9967535Y21089166D01*
X9967535Y21089166D02*
X9950026Y21054148D01*
X9950026Y21054148D02*
X9932517Y21036638D01*
X10090100Y21194222D02*
X9906252Y21378070D01*
X9906252Y21378070D02*
X9976290Y21448107D01*
X9976290Y21448107D02*
X10002554Y21456861D01*
X10002554Y21456861D02*
X10020063Y21456861D01*
X10020063Y21456861D02*
X10046327Y21448107D01*
X10046327Y21448107D02*
X10072591Y21421843D01*
X10072591Y21421843D02*
X10081346Y21395579D01*
X10081346Y21395579D02*
X10081346Y21378070D01*
X10081346Y21378070D02*
X10072591Y21351806D01*
X10072591Y21351806D02*
X10002554Y21281768D01*
X10098855Y21535653D02*
X10098855Y21553163D01*
X10098855Y21553163D02*
X10107610Y21579427D01*
X10107610Y21579427D02*
X10151383Y21623200D01*
X10151383Y21623200D02*
X10177647Y21631955D01*
X10177647Y21631955D02*
X10195156Y21631955D01*
X10195156Y21631955D02*
X10221420Y21623200D01*
X10221420Y21623200D02*
X10238929Y21605691D01*
X10238929Y21605691D02*
X10256439Y21570672D01*
X10256439Y21570672D02*
X10256439Y21360560D01*
X10256439Y21360560D02*
X10370249Y21474371D01*
X21924638Y6547082D02*
X21840459Y6462903D01*
X21840459Y6462903D02*
X21663682Y6639680D01*
X21941474Y6799620D02*
X22059325Y6681769D01*
X21832041Y6824874D02*
X21916220Y6656516D01*
X21916220Y6656516D02*
X22025654Y6765949D01*
X14750191Y9889010D02*
X14666012Y9804831D01*
X14666012Y9804831D02*
X14489235Y9981608D01*
X14901714Y10040533D02*
X14800699Y9939518D01*
X14851207Y9990026D02*
X14674430Y10166802D01*
X14674430Y10166802D02*
X14682848Y10124713D01*
X14682848Y10124713D02*
X14682848Y10091041D01*
X14682848Y10091041D02*
X14674430Y10065787D01*
X15593339Y9866108D02*
X15593339Y9849272D01*
X15593339Y9849272D02*
X15576503Y9815600D01*
X15576503Y9815600D02*
X15559667Y9798764D01*
X15559667Y9798764D02*
X15525995Y9781928D01*
X15525995Y9781928D02*
X15492324Y9781928D01*
X15492324Y9781928D02*
X15467070Y9790346D01*
X15467070Y9790346D02*
X15424980Y9815600D01*
X15424980Y9815600D02*
X15399726Y9840854D01*
X15399726Y9840854D02*
X15374472Y9882943D01*
X15374472Y9882943D02*
X15366054Y9908197D01*
X15366054Y9908197D02*
X15366054Y9941869D01*
X15366054Y9941869D02*
X15382890Y9975541D01*
X15382890Y9975541D02*
X15399726Y9992377D01*
X15399726Y9992377D02*
X15433398Y10009212D01*
X15433398Y10009212D02*
X15450234Y10009212D01*
X15778533Y10017630D02*
X15677518Y9916615D01*
X15728026Y9967123D02*
X15551249Y10143899D01*
X15551249Y10143899D02*
X15559667Y10101810D01*
X15559667Y10101810D02*
X15559667Y10068138D01*
X15559667Y10068138D02*
X15551249Y10042884D01*
D15*
X16564600Y6697766D02*
X16773365Y6489001D01*
X16188823Y6781272D02*
X16564600Y6697766D01*
X16564600Y6697766D02*
X16481094Y7073543D01*
X16648106Y7157049D02*
X16648106Y7198802D01*
X16648106Y7198802D02*
X16668983Y7261431D01*
X16668983Y7261431D02*
X16773365Y7365814D01*
X16773365Y7365814D02*
X16835994Y7386690D01*
X16835994Y7386690D02*
X16877747Y7386690D01*
X16877747Y7386690D02*
X16940377Y7365814D01*
X16940377Y7365814D02*
X16982130Y7324061D01*
X16982130Y7324061D02*
X17023883Y7240555D01*
X17023883Y7240555D02*
X17023883Y6739519D01*
X17023883Y6739519D02*
X17295277Y7010914D01*
D14*
X14915190Y11493126D02*
X14915190Y11476290D01*
X14915190Y11476290D02*
X14898354Y11442618D01*
X14898354Y11442618D02*
X14881518Y11425782D01*
X14881518Y11425782D02*
X14847847Y11408947D01*
X14847847Y11408947D02*
X14814175Y11408947D01*
X14814175Y11408947D02*
X14788921Y11417364D01*
X14788921Y11417364D02*
X14746831Y11442618D01*
X14746831Y11442618D02*
X14721578Y11467872D01*
X14721578Y11467872D02*
X14696324Y11509962D01*
X14696324Y11509962D02*
X14687906Y11535216D01*
X14687906Y11535216D02*
X14687906Y11568887D01*
X14687906Y11568887D02*
X14704742Y11602559D01*
X14704742Y11602559D02*
X14721578Y11619395D01*
X14721578Y11619395D02*
X14755249Y11636231D01*
X14755249Y11636231D02*
X14772085Y11636231D01*
X15100385Y11644649D02*
X14999369Y11543634D01*
X15049877Y11594141D02*
X14873100Y11770918D01*
X14873100Y11770918D02*
X14881518Y11728828D01*
X14881518Y11728828D02*
X14881518Y11695156D01*
X14881518Y11695156D02*
X14873100Y11669903D01*
X15033041Y11930858D02*
X15049877Y11947694D01*
X15049877Y11947694D02*
X15075131Y11956112D01*
X15075131Y11956112D02*
X15091967Y11956112D01*
X15091967Y11956112D02*
X15117220Y11947694D01*
X15117220Y11947694D02*
X15159310Y11922441D01*
X15159310Y11922441D02*
X15201400Y11880351D01*
X15201400Y11880351D02*
X15226654Y11838261D01*
X15226654Y11838261D02*
X15235072Y11813007D01*
X15235072Y11813007D02*
X15235072Y11796171D01*
X15235072Y11796171D02*
X15226654Y11770918D01*
X15226654Y11770918D02*
X15209818Y11754082D01*
X15209818Y11754082D02*
X15184564Y11745664D01*
X15184564Y11745664D02*
X15167728Y11745664D01*
X15167728Y11745664D02*
X15142474Y11754082D01*
X15142474Y11754082D02*
X15100385Y11779336D01*
X15100385Y11779336D02*
X15058295Y11821425D01*
X15058295Y11821425D02*
X15033041Y11863515D01*
X15033041Y11863515D02*
X15024623Y11888769D01*
X15024623Y11888769D02*
X15024623Y11905605D01*
X15024623Y11905605D02*
X15033041Y11930858D01*
X9154025Y21955203D02*
X9285345Y21823883D01*
X9285345Y21823883D02*
X9302854Y21788865D01*
X9302854Y21788865D02*
X9302854Y21753846D01*
X9302854Y21753846D02*
X9285345Y21718828D01*
X9285345Y21718828D02*
X9267836Y21701318D01*
X9425419Y21858902D02*
X9241571Y22042750D01*
X9241571Y22042750D02*
X9311609Y22112787D01*
X9311609Y22112787D02*
X9337873Y22121541D01*
X9337873Y22121541D02*
X9355382Y22121541D01*
X9355382Y22121541D02*
X9381646Y22112787D01*
X9381646Y22112787D02*
X9407910Y22086523D01*
X9407910Y22086523D02*
X9416665Y22060259D01*
X9416665Y22060259D02*
X9416665Y22042750D01*
X9416665Y22042750D02*
X9407910Y22016486D01*
X9407910Y22016486D02*
X9337873Y21946448D01*
X9407910Y22209088D02*
X9521720Y22322899D01*
X9521720Y22322899D02*
X9530475Y22191579D01*
X9530475Y22191579D02*
X9556739Y22217843D01*
X9556739Y22217843D02*
X9583003Y22226597D01*
X9583003Y22226597D02*
X9600512Y22226597D01*
X9600512Y22226597D02*
X9626776Y22217843D01*
X9626776Y22217843D02*
X9670550Y22174069D01*
X9670550Y22174069D02*
X9679304Y22147805D01*
X9679304Y22147805D02*
X9679304Y22130296D01*
X9679304Y22130296D02*
X9670550Y22104032D01*
X9670550Y22104032D02*
X9618022Y22051504D01*
X9618022Y22051504D02*
X9591758Y22042750D01*
X9591758Y22042750D02*
X9574248Y22042750D01*
X12836296Y22736124D02*
X12836296Y22719288D01*
X12836296Y22719288D02*
X12819460Y22685616D01*
X12819460Y22685616D02*
X12802624Y22668780D01*
X12802624Y22668780D02*
X12768953Y22651945D01*
X12768953Y22651945D02*
X12735281Y22651945D01*
X12735281Y22651945D02*
X12710027Y22660362D01*
X12710027Y22660362D02*
X12667937Y22685616D01*
X12667937Y22685616D02*
X12642684Y22710870D01*
X12642684Y22710870D02*
X12617430Y22752960D01*
X12617430Y22752960D02*
X12609012Y22778214D01*
X12609012Y22778214D02*
X12609012Y22811885D01*
X12609012Y22811885D02*
X12625848Y22845557D01*
X12625848Y22845557D02*
X12642684Y22862393D01*
X12642684Y22862393D02*
X12676355Y22879229D01*
X12676355Y22879229D02*
X12693191Y22879229D01*
X13021491Y22887647D02*
X12920475Y22786632D01*
X12970983Y22837139D02*
X12794206Y23013916D01*
X12794206Y23013916D02*
X12802624Y22971826D01*
X12802624Y22971826D02*
X12802624Y22938154D01*
X12802624Y22938154D02*
X12794206Y22912901D01*
X13004655Y23224364D02*
X12920475Y23140185D01*
X12920475Y23140185D02*
X12996237Y23047587D01*
X12996237Y23047587D02*
X12996237Y23064423D01*
X12996237Y23064423D02*
X13004655Y23089677D01*
X13004655Y23089677D02*
X13046744Y23131767D01*
X13046744Y23131767D02*
X13071998Y23140185D01*
X13071998Y23140185D02*
X13088834Y23140185D01*
X13088834Y23140185D02*
X13114088Y23131767D01*
X13114088Y23131767D02*
X13156178Y23089677D01*
X13156178Y23089677D02*
X13164596Y23064423D01*
X13164596Y23064423D02*
X13164596Y23047587D01*
X13164596Y23047587D02*
X13156178Y23022334D01*
X13156178Y23022334D02*
X13114088Y22980244D01*
X13114088Y22980244D02*
X13088834Y22971826D01*
X13088834Y22971826D02*
X13071998Y22971826D01*
X15523301Y11252710D02*
X15523301Y11235874D01*
X15523301Y11235874D02*
X15506465Y11202202D01*
X15506465Y11202202D02*
X15489629Y11185366D01*
X15489629Y11185366D02*
X15455958Y11168531D01*
X15455958Y11168531D02*
X15422286Y11168531D01*
X15422286Y11168531D02*
X15397032Y11176948D01*
X15397032Y11176948D02*
X15354942Y11202202D01*
X15354942Y11202202D02*
X15329689Y11227456D01*
X15329689Y11227456D02*
X15304435Y11269546D01*
X15304435Y11269546D02*
X15296017Y11294800D01*
X15296017Y11294800D02*
X15296017Y11328471D01*
X15296017Y11328471D02*
X15312853Y11362143D01*
X15312853Y11362143D02*
X15329689Y11378979D01*
X15329689Y11378979D02*
X15363360Y11395815D01*
X15363360Y11395815D02*
X15380196Y11395815D01*
X15708496Y11404233D02*
X15607480Y11303218D01*
X15657988Y11353725D02*
X15481211Y11530502D01*
X15481211Y11530502D02*
X15489629Y11488412D01*
X15489629Y11488412D02*
X15489629Y11454740D01*
X15489629Y11454740D02*
X15481211Y11429487D01*
X15876854Y11572591D02*
X15775839Y11471576D01*
X15826347Y11522084D02*
X15649570Y11698860D01*
X15649570Y11698860D02*
X15657988Y11656771D01*
X15657988Y11656771D02*
X15657988Y11623099D01*
X15657988Y11623099D02*
X15649570Y11597845D01*
X11105905Y7933013D02*
X10962800Y7958266D01*
X11004889Y7831997D02*
X10828113Y8008774D01*
X10828113Y8008774D02*
X10895456Y8076118D01*
X10895456Y8076118D02*
X10920710Y8084536D01*
X10920710Y8084536D02*
X10937546Y8084536D01*
X10937546Y8084536D02*
X10962800Y8076118D01*
X10962800Y8076118D02*
X10988054Y8050864D01*
X10988054Y8050864D02*
X10996471Y8025610D01*
X10996471Y8025610D02*
X10996471Y8008774D01*
X10996471Y8008774D02*
X10988054Y7983520D01*
X10988054Y7983520D02*
X10920710Y7916177D01*
X10988054Y8168715D02*
X11097487Y8278148D01*
X11097487Y8278148D02*
X11105905Y8151879D01*
X11105905Y8151879D02*
X11131158Y8177133D01*
X11131158Y8177133D02*
X11156412Y8185551D01*
X11156412Y8185551D02*
X11173248Y8185551D01*
X11173248Y8185551D02*
X11198502Y8177133D01*
X11198502Y8177133D02*
X11240592Y8135043D01*
X11240592Y8135043D02*
X11249010Y8109789D01*
X11249010Y8109789D02*
X11249010Y8092953D01*
X11249010Y8092953D02*
X11240592Y8067700D01*
X11240592Y8067700D02*
X11190084Y8017192D01*
X11190084Y8017192D02*
X11164830Y8008774D01*
X11164830Y8008774D02*
X11147994Y8008774D01*
D16*
X22059018Y1644445D02*
X22328392Y1913819D01*
X22166768Y1428946D02*
X21789644Y2183193D01*
X21789644Y2183193D02*
X22543892Y1806070D01*
X22436142Y2290943D02*
X22624704Y2479505D01*
X23001827Y2264005D02*
X22732453Y1994631D01*
X22732453Y1994631D02*
X22166768Y2560317D01*
X22166768Y2560317D02*
X22436142Y2829691D01*
X23540576Y2802754D02*
X23217327Y2479505D01*
X23378951Y2641129D02*
X22813266Y3206815D01*
X22813266Y3206815D02*
X22840203Y3072128D01*
X22840203Y3072128D02*
X22840203Y2964378D01*
X22840203Y2964378D02*
X22813266Y2883566D01*
D14*
X5573636Y9420631D02*
X5573636Y9403795D01*
X5573636Y9403795D02*
X5556800Y9370123D01*
X5556800Y9370123D02*
X5539964Y9353287D01*
X5539964Y9353287D02*
X5506292Y9336451D01*
X5506292Y9336451D02*
X5472621Y9336451D01*
X5472621Y9336451D02*
X5447367Y9344869D01*
X5447367Y9344869D02*
X5405277Y9370123D01*
X5405277Y9370123D02*
X5380023Y9395377D01*
X5380023Y9395377D02*
X5354769Y9437466D01*
X5354769Y9437466D02*
X5346351Y9462720D01*
X5346351Y9462720D02*
X5346351Y9496392D01*
X5346351Y9496392D02*
X5363187Y9530064D01*
X5363187Y9530064D02*
X5380023Y9546900D01*
X5380023Y9546900D02*
X5413695Y9563735D01*
X5413695Y9563735D02*
X5430531Y9563735D01*
X5624143Y9673169D02*
X5741995Y9555318D01*
X5514710Y9698422D02*
X5598890Y9530064D01*
X5598890Y9530064D02*
X5708323Y9639497D01*
D17*
X16334104Y12595216D02*
X16502463Y12426858D01*
X16031059Y12662560D02*
X16334104Y12595216D01*
X16334104Y12595216D02*
X16266761Y12898262D01*
X16923360Y12847754D02*
X16721329Y12645724D01*
X16822345Y12746739D02*
X16468791Y13100292D01*
X16468791Y13100292D02*
X16485627Y13016113D01*
X16485627Y13016113D02*
X16485627Y12948769D01*
X16485627Y12948769D02*
X16468791Y12898262D01*
D14*
X7900017Y6175011D02*
X7900017Y6158175D01*
X7900017Y6158175D02*
X7883181Y6124503D01*
X7883181Y6124503D02*
X7866345Y6107667D01*
X7866345Y6107667D02*
X7832673Y6090831D01*
X7832673Y6090831D02*
X7799002Y6090831D01*
X7799002Y6090831D02*
X7773748Y6099249D01*
X7773748Y6099249D02*
X7731658Y6124503D01*
X7731658Y6124503D02*
X7706404Y6149757D01*
X7706404Y6149757D02*
X7681150Y6191846D01*
X7681150Y6191846D02*
X7672732Y6217100D01*
X7672732Y6217100D02*
X7672732Y6250772D01*
X7672732Y6250772D02*
X7689568Y6284444D01*
X7689568Y6284444D02*
X7706404Y6301280D01*
X7706404Y6301280D02*
X7740076Y6318115D01*
X7740076Y6318115D02*
X7756912Y6318115D01*
X7799002Y6393877D02*
X7908435Y6503310D01*
X7908435Y6503310D02*
X7916853Y6377041D01*
X7916853Y6377041D02*
X7942106Y6402295D01*
X7942106Y6402295D02*
X7967360Y6410713D01*
X7967360Y6410713D02*
X7984196Y6410713D01*
X7984196Y6410713D02*
X8009450Y6402295D01*
X8009450Y6402295D02*
X8051540Y6360205D01*
X8051540Y6360205D02*
X8059958Y6334951D01*
X8059958Y6334951D02*
X8059958Y6318115D01*
X8059958Y6318115D02*
X8051540Y6292862D01*
X8051540Y6292862D02*
X8001032Y6242354D01*
X8001032Y6242354D02*
X7975778Y6233936D01*
X7975778Y6233936D02*
X7958942Y6233936D01*
X6424495Y20021196D02*
X6377355Y19974056D01*
X6451433Y19899978D02*
X6310012Y20041399D01*
X6310012Y20041399D02*
X6377355Y20108743D01*
X6572652Y20021197D02*
X6431230Y20162618D01*
X6639995Y20088540D02*
X6498574Y20229961D01*
X6498574Y20229961D02*
X6532245Y20263633D01*
X6532245Y20263633D02*
X6559183Y20277102D01*
X6559183Y20277102D02*
X6586120Y20277102D01*
X6586120Y20277102D02*
X6606323Y20270368D01*
X6606323Y20270368D02*
X6639995Y20250164D01*
X6639995Y20250164D02*
X6660198Y20229961D01*
X6660198Y20229961D02*
X6680401Y20196290D01*
X6680401Y20196290D02*
X6687135Y20176087D01*
X6687135Y20176087D02*
X6687135Y20149149D01*
X6687135Y20149149D02*
X6673667Y20122212D01*
X6673667Y20122212D02*
X6639995Y20088540D01*
X6855494Y20304039D02*
X6774682Y20223227D01*
X6815088Y20263633D02*
X6673667Y20405055D01*
X6673667Y20405055D02*
X6680401Y20371383D01*
X6680401Y20371383D02*
X6680401Y20344445D01*
X6680401Y20344445D02*
X6673667Y20324242D01*
X7692671Y10608497D02*
X7543842Y10634761D01*
X7587615Y10503441D02*
X7403768Y10687289D01*
X7403768Y10687289D02*
X7473805Y10757326D01*
X7473805Y10757326D02*
X7500069Y10766081D01*
X7500069Y10766081D02*
X7517578Y10766081D01*
X7517578Y10766081D02*
X7543842Y10757326D01*
X7543842Y10757326D02*
X7570106Y10731062D01*
X7570106Y10731062D02*
X7578861Y10704798D01*
X7578861Y10704798D02*
X7578861Y10687289D01*
X7578861Y10687289D02*
X7570106Y10661025D01*
X7570106Y10661025D02*
X7500069Y10590988D01*
X7727690Y10888646D02*
X7850255Y10766081D01*
X7613879Y10914910D02*
X7701426Y10739817D01*
X7701426Y10739817D02*
X7815236Y10853627D01*
X15593339Y7886209D02*
X15593339Y7869373D01*
X15593339Y7869373D02*
X15576503Y7835701D01*
X15576503Y7835701D02*
X15559667Y7818865D01*
X15559667Y7818865D02*
X15525995Y7802029D01*
X15525995Y7802029D02*
X15492324Y7802029D01*
X15492324Y7802029D02*
X15467070Y7810447D01*
X15467070Y7810447D02*
X15424980Y7835701D01*
X15424980Y7835701D02*
X15399726Y7860955D01*
X15399726Y7860955D02*
X15374472Y7903044D01*
X15374472Y7903044D02*
X15366054Y7928298D01*
X15366054Y7928298D02*
X15366054Y7961970D01*
X15366054Y7961970D02*
X15382890Y7995642D01*
X15382890Y7995642D02*
X15399726Y8012478D01*
X15399726Y8012478D02*
X15433398Y8029313D01*
X15433398Y8029313D02*
X15450234Y8029313D01*
X15517577Y8096657D02*
X15517577Y8113493D01*
X15517577Y8113493D02*
X15525995Y8138747D01*
X15525995Y8138747D02*
X15568085Y8180836D01*
X15568085Y8180836D02*
X15593339Y8189254D01*
X15593339Y8189254D02*
X15610175Y8189254D01*
X15610175Y8189254D02*
X15635428Y8180836D01*
X15635428Y8180836D02*
X15652264Y8164000D01*
X15652264Y8164000D02*
X15669100Y8130329D01*
X15669100Y8130329D02*
X15669100Y7928298D01*
X15669100Y7928298D02*
X15778533Y8037731D01*
D18*
X9405158Y16926050D02*
X9122315Y17208892D01*
X9122315Y17208892D02*
X9189659Y17276236D01*
X9189659Y17276236D02*
X9243534Y17303173D01*
X9243534Y17303173D02*
X9297408Y17303173D01*
X9297408Y17303173D02*
X9337815Y17289704D01*
X9337815Y17289704D02*
X9405158Y17249298D01*
X9405158Y17249298D02*
X9445564Y17208892D01*
X9445564Y17208892D02*
X9485970Y17141549D01*
X9485970Y17141549D02*
X9499439Y17101143D01*
X9499439Y17101143D02*
X9499439Y17047268D01*
X9499439Y17047268D02*
X9472502Y16993393D01*
X9472502Y16993393D02*
X9405158Y16926050D01*
X9836156Y17357048D02*
X9674532Y17195424D01*
X9755344Y17276236D02*
X9472502Y17559078D01*
X9472502Y17559078D02*
X9485970Y17491735D01*
X9485970Y17491735D02*
X9485970Y17437860D01*
X9485970Y17437860D02*
X9472502Y17397454D01*
D14*
X14975462Y8763358D02*
X14916537Y8704432D01*
X15009134Y8611835D02*
X14832357Y8788612D01*
X14832357Y8788612D02*
X14916537Y8872791D01*
X15126985Y8914881D02*
X15160657Y8931717D01*
X15160657Y8931717D02*
X15177493Y8931717D01*
X15177493Y8931717D02*
X15202747Y8923299D01*
X15202747Y8923299D02*
X15228000Y8898045D01*
X15228000Y8898045D02*
X15236418Y8872791D01*
X15236418Y8872791D02*
X15236418Y8855955D01*
X15236418Y8855955D02*
X15228000Y8830701D01*
X15228000Y8830701D02*
X15160657Y8763358D01*
X15160657Y8763358D02*
X14983880Y8940135D01*
X14983880Y8940135D02*
X15042806Y8999060D01*
X15042806Y8999060D02*
X15068060Y9007478D01*
X15068060Y9007478D02*
X15084895Y9007478D01*
X15084895Y9007478D02*
X15110149Y8999060D01*
X15110149Y8999060D02*
X15126985Y8982224D01*
X15126985Y8982224D02*
X15135403Y8956971D01*
X15135403Y8956971D02*
X15135403Y8940135D01*
X15135403Y8940135D02*
X15126985Y8914881D01*
X15126985Y8914881D02*
X15068060Y8855955D01*
X15430031Y9032732D02*
X15329016Y8931717D01*
X15379523Y8982224D02*
X15202747Y9159001D01*
X15202747Y9159001D02*
X15211165Y9116911D01*
X15211165Y9116911D02*
X15211165Y9083240D01*
X15211165Y9083240D02*
X15202747Y9057986D01*
D17*
X12558690Y20722367D02*
X12844900Y20436157D01*
X12844900Y20436157D02*
X12895407Y20419321D01*
X12895407Y20419321D02*
X12929079Y20419321D01*
X12929079Y20419321D02*
X12979587Y20436157D01*
X12979587Y20436157D02*
X13046930Y20503501D01*
X13046930Y20503501D02*
X13063766Y20554008D01*
X13063766Y20554008D02*
X13063766Y20587680D01*
X13063766Y20587680D02*
X13046930Y20638188D01*
X13046930Y20638188D02*
X12760720Y20924398D01*
X12895408Y21059085D02*
X13114274Y21277951D01*
X13114274Y21277951D02*
X13131110Y21025413D01*
X13131110Y21025413D02*
X13181618Y21075921D01*
X13181618Y21075921D02*
X13232125Y21092757D01*
X13232125Y21092757D02*
X13265797Y21092757D01*
X13265797Y21092757D02*
X13316305Y21075921D01*
X13316305Y21075921D02*
X13400484Y20991741D01*
X13400484Y20991741D02*
X13417320Y20941234D01*
X13417320Y20941234D02*
X13417320Y20907562D01*
X13417320Y20907562D02*
X13400484Y20857054D01*
X13400484Y20857054D02*
X13299469Y20756039D01*
X13299469Y20756039D02*
X13248961Y20739203D01*
X13248961Y20739203D02*
X13215289Y20739203D01*
X7496479Y13315928D02*
X7445972Y13299092D01*
X7445972Y13299092D02*
X7378628Y13299092D01*
X7378628Y13299092D02*
X7277613Y13299092D01*
X7277613Y13299092D02*
X7227105Y13282256D01*
X7227105Y13282256D02*
X7193434Y13248585D01*
X7294449Y13181241D02*
X7243941Y13164405D01*
X7243941Y13164405D02*
X7176598Y13164405D01*
X7176598Y13164405D02*
X7092418Y13214913D01*
X7092418Y13214913D02*
X6974567Y13332764D01*
X6974567Y13332764D02*
X6924060Y13416943D01*
X6924060Y13416943D02*
X6924060Y13484287D01*
X6924060Y13484287D02*
X6940895Y13534795D01*
X6940895Y13534795D02*
X7008239Y13602138D01*
X7008239Y13602138D02*
X7058747Y13618974D01*
X7058747Y13618974D02*
X7126090Y13618974D01*
X7126090Y13618974D02*
X7210269Y13568466D01*
X7210269Y13568466D02*
X7328121Y13450615D01*
X7328121Y13450615D02*
X7378628Y13366436D01*
X7378628Y13366436D02*
X7378628Y13299092D01*
X7378628Y13299092D02*
X7361792Y13248585D01*
X7361792Y13248585D02*
X7294449Y13181241D01*
X7782690Y13669482D02*
X7580659Y13467451D01*
X7681674Y13568467D02*
X7328121Y13922020D01*
X7328121Y13922020D02*
X7344957Y13837841D01*
X7344957Y13837841D02*
X7344957Y13770497D01*
X7344957Y13770497D02*
X7328121Y13719990D01*
D14*
X11379655Y22721982D02*
X11379655Y22705146D01*
X11379655Y22705146D02*
X11362819Y22671474D01*
X11362819Y22671474D02*
X11345983Y22654638D01*
X11345983Y22654638D02*
X11312312Y22637803D01*
X11312312Y22637803D02*
X11278640Y22637803D01*
X11278640Y22637803D02*
X11253386Y22646220D01*
X11253386Y22646220D02*
X11211296Y22671474D01*
X11211296Y22671474D02*
X11186043Y22696728D01*
X11186043Y22696728D02*
X11160789Y22738818D01*
X11160789Y22738818D02*
X11152371Y22764072D01*
X11152371Y22764072D02*
X11152371Y22797743D01*
X11152371Y22797743D02*
X11169207Y22831415D01*
X11169207Y22831415D02*
X11186043Y22848251D01*
X11186043Y22848251D02*
X11219714Y22865087D01*
X11219714Y22865087D02*
X11236550Y22865087D01*
X11564850Y22873505D02*
X11463834Y22772490D01*
X11514342Y22822997D02*
X11337565Y22999774D01*
X11337565Y22999774D02*
X11345983Y22957684D01*
X11345983Y22957684D02*
X11345983Y22924012D01*
X11345983Y22924012D02*
X11337565Y22898759D01*
X11446998Y23109207D02*
X11564850Y23227058D01*
X11564850Y23227058D02*
X11665865Y22974520D01*
X18418251Y11790371D02*
X18418251Y11773535D01*
X18418251Y11773535D02*
X18401415Y11739863D01*
X18401415Y11739863D02*
X18384579Y11723027D01*
X18384579Y11723027D02*
X18350907Y11706191D01*
X18350907Y11706191D02*
X18317236Y11706191D01*
X18317236Y11706191D02*
X18291982Y11714609D01*
X18291982Y11714609D02*
X18249892Y11739863D01*
X18249892Y11739863D02*
X18224638Y11765117D01*
X18224638Y11765117D02*
X18199384Y11807206D01*
X18199384Y11807206D02*
X18190966Y11832460D01*
X18190966Y11832460D02*
X18190966Y11866132D01*
X18190966Y11866132D02*
X18207802Y11899804D01*
X18207802Y11899804D02*
X18224638Y11916640D01*
X18224638Y11916640D02*
X18258310Y11933475D01*
X18258310Y11933475D02*
X18275146Y11933475D01*
X18435087Y11975565D02*
X18409833Y11967147D01*
X18409833Y11967147D02*
X18392997Y11967147D01*
X18392997Y11967147D02*
X18367743Y11975565D01*
X18367743Y11975565D02*
X18359325Y11983983D01*
X18359325Y11983983D02*
X18350907Y12009237D01*
X18350907Y12009237D02*
X18350907Y12026073D01*
X18350907Y12026073D02*
X18359325Y12051327D01*
X18359325Y12051327D02*
X18392997Y12084998D01*
X18392997Y12084998D02*
X18418251Y12093416D01*
X18418251Y12093416D02*
X18435087Y12093416D01*
X18435087Y12093416D02*
X18460340Y12084998D01*
X18460340Y12084998D02*
X18468758Y12076580D01*
X18468758Y12076580D02*
X18477176Y12051327D01*
X18477176Y12051327D02*
X18477176Y12034491D01*
X18477176Y12034491D02*
X18468758Y12009237D01*
X18468758Y12009237D02*
X18435087Y11975565D01*
X18435087Y11975565D02*
X18426669Y11950311D01*
X18426669Y11950311D02*
X18426669Y11933475D01*
X18426669Y11933475D02*
X18435087Y11908222D01*
X18435087Y11908222D02*
X18468758Y11874550D01*
X18468758Y11874550D02*
X18494012Y11866132D01*
X18494012Y11866132D02*
X18510848Y11866132D01*
X18510848Y11866132D02*
X18536102Y11874550D01*
X18536102Y11874550D02*
X18569774Y11908222D01*
X18569774Y11908222D02*
X18578192Y11933475D01*
X18578192Y11933475D02*
X18578192Y11950311D01*
X18578192Y11950311D02*
X18569774Y11975565D01*
X18569774Y11975565D02*
X18536102Y12009237D01*
X18536102Y12009237D02*
X18510848Y12017655D01*
X18510848Y12017655D02*
X18494012Y12017655D01*
X18494012Y12017655D02*
X18468758Y12009237D01*
X19400267Y9099738D02*
X19316088Y9015559D01*
X19316088Y9015559D02*
X19139311Y9192336D01*
X19290834Y9310187D02*
X19290834Y9327023D01*
X19290834Y9327023D02*
X19299252Y9352276D01*
X19299252Y9352276D02*
X19341342Y9394366D01*
X19341342Y9394366D02*
X19366596Y9402784D01*
X19366596Y9402784D02*
X19383431Y9402784D01*
X19383431Y9402784D02*
X19408685Y9394366D01*
X19408685Y9394366D02*
X19425521Y9377530D01*
X19425521Y9377530D02*
X19442357Y9343859D01*
X19442357Y9343859D02*
X19442357Y9141828D01*
X19442357Y9141828D02*
X19551790Y9251261D01*
X4754065Y15940828D02*
X4754065Y15923992D01*
X4754065Y15923992D02*
X4737229Y15890320D01*
X4737229Y15890320D02*
X4720393Y15873484D01*
X4720393Y15873484D02*
X4686722Y15856649D01*
X4686722Y15856649D02*
X4653050Y15856649D01*
X4653050Y15856649D02*
X4627796Y15865066D01*
X4627796Y15865066D02*
X4585706Y15890320D01*
X4585706Y15890320D02*
X4560453Y15915574D01*
X4560453Y15915574D02*
X4535199Y15957664D01*
X4535199Y15957664D02*
X4526781Y15982918D01*
X4526781Y15982918D02*
X4526781Y16016589D01*
X4526781Y16016589D02*
X4543617Y16050261D01*
X4543617Y16050261D02*
X4560453Y16067097D01*
X4560453Y16067097D02*
X4594124Y16083933D01*
X4594124Y16083933D02*
X4610960Y16083933D01*
X4678304Y16151276D02*
X4678304Y16168112D01*
X4678304Y16168112D02*
X4686722Y16193366D01*
X4686722Y16193366D02*
X4728811Y16235456D01*
X4728811Y16235456D02*
X4754065Y16243874D01*
X4754065Y16243874D02*
X4770901Y16243874D01*
X4770901Y16243874D02*
X4796155Y16235456D01*
X4796155Y16235456D02*
X4812991Y16218620D01*
X4812991Y16218620D02*
X4829827Y16184948D01*
X4829827Y16184948D02*
X4829827Y15982918D01*
X4829827Y15982918D02*
X4939260Y16092351D01*
X4871916Y16378560D02*
X4888752Y16395396D01*
X4888752Y16395396D02*
X4914006Y16403814D01*
X4914006Y16403814D02*
X4930842Y16403814D01*
X4930842Y16403814D02*
X4956095Y16395396D01*
X4956095Y16395396D02*
X4998185Y16370143D01*
X4998185Y16370143D02*
X5040275Y16328053D01*
X5040275Y16328053D02*
X5065529Y16285963D01*
X5065529Y16285963D02*
X5073947Y16260709D01*
X5073947Y16260709D02*
X5073947Y16243873D01*
X5073947Y16243873D02*
X5065529Y16218620D01*
X5065529Y16218620D02*
X5048693Y16201784D01*
X5048693Y16201784D02*
X5023439Y16193366D01*
X5023439Y16193366D02*
X5006603Y16193366D01*
X5006603Y16193366D02*
X4981349Y16201784D01*
X4981349Y16201784D02*
X4939260Y16227038D01*
X4939260Y16227038D02*
X4897170Y16269127D01*
X4897170Y16269127D02*
X4871916Y16311217D01*
X4871916Y16311217D02*
X4863498Y16336471D01*
X4863498Y16336471D02*
X4863498Y16353307D01*
X4863498Y16353307D02*
X4871916Y16378560D01*
X15263330Y4535557D02*
X15216190Y4488417D01*
X15290268Y4414339D02*
X15148847Y4555760D01*
X15148847Y4555760D02*
X15216190Y4623104D01*
X15411487Y4535558D02*
X15270065Y4676979D01*
X15478830Y4602901D02*
X15337409Y4744322D01*
X15337409Y4744322D02*
X15371080Y4777994D01*
X15371080Y4777994D02*
X15398018Y4791463D01*
X15398018Y4791463D02*
X15424955Y4791463D01*
X15424955Y4791463D02*
X15445158Y4784729D01*
X15445158Y4784729D02*
X15478830Y4764525D01*
X15478830Y4764525D02*
X15499033Y4744322D01*
X15499033Y4744322D02*
X15519236Y4710651D01*
X15519236Y4710651D02*
X15525970Y4690448D01*
X15525970Y4690448D02*
X15525970Y4663510D01*
X15525970Y4663510D02*
X15512502Y4636573D01*
X15512502Y4636573D02*
X15478830Y4602901D01*
X15465361Y4872275D02*
X15552908Y4959822D01*
X15552908Y4959822D02*
X15559642Y4858806D01*
X15559642Y4858806D02*
X15579845Y4879009D01*
X15579845Y4879009D02*
X15600048Y4885744D01*
X15600048Y4885744D02*
X15613517Y4885744D01*
X15613517Y4885744D02*
X15633720Y4879009D01*
X15633720Y4879009D02*
X15667392Y4845338D01*
X15667392Y4845338D02*
X15674126Y4825135D01*
X15674126Y4825135D02*
X15674126Y4811666D01*
X15674126Y4811666D02*
X15667392Y4791463D01*
X15667392Y4791463D02*
X15626986Y4751057D01*
X15626986Y4751057D02*
X15606783Y4744322D01*
X15606783Y4744322D02*
X15593314Y4744322D01*
X20687482Y5083971D02*
X20603303Y4999792D01*
X20603303Y4999792D02*
X20426526Y5176569D01*
X20839005Y5235494D02*
X20737990Y5134479D01*
X20788498Y5184987D02*
X20611721Y5361763D01*
X20611721Y5361763D02*
X20620139Y5319674D01*
X20620139Y5319674D02*
X20620139Y5286002D01*
X20620139Y5286002D02*
X20611721Y5260748D01*
X20839005Y5437525D02*
X20813751Y5429107D01*
X20813751Y5429107D02*
X20796915Y5429107D01*
X20796915Y5429107D02*
X20771662Y5437525D01*
X20771662Y5437525D02*
X20763244Y5445943D01*
X20763244Y5445943D02*
X20754826Y5471196D01*
X20754826Y5471196D02*
X20754826Y5488032D01*
X20754826Y5488032D02*
X20763244Y5513286D01*
X20763244Y5513286D02*
X20796915Y5546958D01*
X20796915Y5546958D02*
X20822169Y5555376D01*
X20822169Y5555376D02*
X20839005Y5555376D01*
X20839005Y5555376D02*
X20864259Y5546958D01*
X20864259Y5546958D02*
X20872677Y5538540D01*
X20872677Y5538540D02*
X20881095Y5513286D01*
X20881095Y5513286D02*
X20881095Y5496450D01*
X20881095Y5496450D02*
X20872677Y5471196D01*
X20872677Y5471196D02*
X20839005Y5437525D01*
X20839005Y5437525D02*
X20830587Y5412271D01*
X20830587Y5412271D02*
X20830587Y5395435D01*
X20830587Y5395435D02*
X20839005Y5370181D01*
X20839005Y5370181D02*
X20872677Y5336509D01*
X20872677Y5336509D02*
X20897931Y5328091D01*
X20897931Y5328091D02*
X20914767Y5328091D01*
X20914767Y5328091D02*
X20940020Y5336509D01*
X20940020Y5336509D02*
X20973692Y5370181D01*
X20973692Y5370181D02*
X20982110Y5395435D01*
X20982110Y5395435D02*
X20982110Y5412271D01*
X20982110Y5412271D02*
X20973692Y5437525D01*
X20973692Y5437525D02*
X20940020Y5471196D01*
X20940020Y5471196D02*
X20914767Y5479614D01*
X20914767Y5479614D02*
X20897931Y5479614D01*
X20897931Y5479614D02*
X20872677Y5471196D01*
X10603859Y7445109D02*
X10460754Y7470362D01*
X10502843Y7344093D02*
X10326067Y7520870D01*
X10326067Y7520870D02*
X10393410Y7588214D01*
X10393410Y7588214D02*
X10418664Y7596632D01*
X10418664Y7596632D02*
X10435500Y7596632D01*
X10435500Y7596632D02*
X10460754Y7588214D01*
X10460754Y7588214D02*
X10486008Y7562960D01*
X10486008Y7562960D02*
X10494425Y7537706D01*
X10494425Y7537706D02*
X10494425Y7520870D01*
X10494425Y7520870D02*
X10486008Y7495616D01*
X10486008Y7495616D02*
X10418664Y7428273D01*
X10511261Y7672393D02*
X10511261Y7689229D01*
X10511261Y7689229D02*
X10519679Y7714483D01*
X10519679Y7714483D02*
X10561769Y7756572D01*
X10561769Y7756572D02*
X10587023Y7764990D01*
X10587023Y7764990D02*
X10603859Y7764990D01*
X10603859Y7764990D02*
X10629112Y7756572D01*
X10629112Y7756572D02*
X10645948Y7739736D01*
X10645948Y7739736D02*
X10662784Y7706065D01*
X10662784Y7706065D02*
X10662784Y7504034D01*
X10662784Y7504034D02*
X10772217Y7613467D01*
D11*
X12401295Y12532535D02*
X12535982Y12599878D01*
X12535982Y12599878D02*
X12704340Y12768237D01*
X12704340Y12768237D02*
X12738012Y12869252D01*
X12738012Y12869252D02*
X12738012Y12936596D01*
X12738012Y12936596D02*
X12704340Y13037611D01*
X12704340Y13037611D02*
X12636997Y13104955D01*
X12636997Y13104955D02*
X12535982Y13138626D01*
X12535982Y13138626D02*
X12468638Y13138626D01*
X12468638Y13138626D02*
X12367623Y13104955D01*
X12367623Y13104955D02*
X12199264Y13003939D01*
X12199264Y13003939D02*
X12098249Y12970268D01*
X12098249Y12970268D02*
X12030905Y12970268D01*
X12030905Y12970268D02*
X11929890Y13003939D01*
X11929890Y13003939D02*
X11862547Y13071283D01*
X11862547Y13071283D02*
X11828875Y13172298D01*
X11828875Y13172298D02*
X11828875Y13239642D01*
X11828875Y13239642D02*
X11862547Y13340657D01*
X11862547Y13340657D02*
X12030905Y13509016D01*
X12030905Y13509016D02*
X12165592Y13576359D01*
X12367623Y13845733D02*
X13243089Y13306985D01*
X13243089Y13306985D02*
X12872699Y13946749D01*
X12872699Y13946749D02*
X13512463Y13576359D01*
X13512463Y13576359D02*
X12973715Y14451825D01*
X14320584Y14384481D02*
X13916523Y13980420D01*
X14118554Y14182451D02*
X13411447Y14889557D01*
X13411447Y14889557D02*
X13445119Y14721199D01*
X13445119Y14721199D02*
X13445119Y14586512D01*
X13445119Y14586512D02*
X13411447Y14485496D01*
D14*
X19227869Y8183193D02*
X19227869Y8166357D01*
X19227869Y8166357D02*
X19211033Y8132685D01*
X19211033Y8132685D02*
X19194197Y8115849D01*
X19194197Y8115849D02*
X19160525Y8099013D01*
X19160525Y8099013D02*
X19126854Y8099013D01*
X19126854Y8099013D02*
X19101600Y8107431D01*
X19101600Y8107431D02*
X19059510Y8132685D01*
X19059510Y8132685D02*
X19034256Y8157939D01*
X19034256Y8157939D02*
X19009002Y8200028D01*
X19009002Y8200028D02*
X19000584Y8225282D01*
X19000584Y8225282D02*
X19000584Y8258954D01*
X19000584Y8258954D02*
X19017420Y8292626D01*
X19017420Y8292626D02*
X19034256Y8309462D01*
X19034256Y8309462D02*
X19067928Y8326297D01*
X19067928Y8326297D02*
X19084764Y8326297D01*
X19219451Y8494656D02*
X19185779Y8460984D01*
X19185779Y8460984D02*
X19177361Y8435731D01*
X19177361Y8435731D02*
X19177361Y8418895D01*
X19177361Y8418895D02*
X19185779Y8376805D01*
X19185779Y8376805D02*
X19211033Y8334715D01*
X19211033Y8334715D02*
X19278376Y8267372D01*
X19278376Y8267372D02*
X19303630Y8258954D01*
X19303630Y8258954D02*
X19320466Y8258954D01*
X19320466Y8258954D02*
X19345720Y8267372D01*
X19345720Y8267372D02*
X19379392Y8301044D01*
X19379392Y8301044D02*
X19387810Y8326297D01*
X19387810Y8326297D02*
X19387810Y8343133D01*
X19387810Y8343133D02*
X19379392Y8368387D01*
X19379392Y8368387D02*
X19337302Y8410477D01*
X19337302Y8410477D02*
X19312048Y8418895D01*
X19312048Y8418895D02*
X19295212Y8418895D01*
X19295212Y8418895D02*
X19269958Y8410477D01*
X19269958Y8410477D02*
X19236287Y8376805D01*
X19236287Y8376805D02*
X19227869Y8351551D01*
X19227869Y8351551D02*
X19227869Y8334715D01*
X19227869Y8334715D02*
X19236287Y8309462D01*
X20486518Y6924544D02*
X20486518Y6907708D01*
X20486518Y6907708D02*
X20469682Y6874036D01*
X20469682Y6874036D02*
X20452846Y6857200D01*
X20452846Y6857200D02*
X20419174Y6840364D01*
X20419174Y6840364D02*
X20385503Y6840364D01*
X20385503Y6840364D02*
X20360249Y6848782D01*
X20360249Y6848782D02*
X20318159Y6874036D01*
X20318159Y6874036D02*
X20292905Y6899290D01*
X20292905Y6899290D02*
X20267651Y6941379D01*
X20267651Y6941379D02*
X20259233Y6966633D01*
X20259233Y6966633D02*
X20259233Y7000305D01*
X20259233Y7000305D02*
X20276069Y7033977D01*
X20276069Y7033977D02*
X20292905Y7050813D01*
X20292905Y7050813D02*
X20326577Y7067648D01*
X20326577Y7067648D02*
X20343413Y7067648D01*
X20587533Y6991887D02*
X20621205Y7025559D01*
X20621205Y7025559D02*
X20629623Y7050813D01*
X20629623Y7050813D02*
X20629623Y7067648D01*
X20629623Y7067648D02*
X20621205Y7109738D01*
X20621205Y7109738D02*
X20595951Y7151828D01*
X20595951Y7151828D02*
X20528607Y7219171D01*
X20528607Y7219171D02*
X20503354Y7227589D01*
X20503354Y7227589D02*
X20486518Y7227589D01*
X20486518Y7227589D02*
X20461264Y7219171D01*
X20461264Y7219171D02*
X20427592Y7185500D01*
X20427592Y7185500D02*
X20419174Y7160246D01*
X20419174Y7160246D02*
X20419174Y7143410D01*
X20419174Y7143410D02*
X20427592Y7118156D01*
X20427592Y7118156D02*
X20469682Y7076066D01*
X20469682Y7076066D02*
X20494936Y7067648D01*
X20494936Y7067648D02*
X20511772Y7067648D01*
X20511772Y7067648D02*
X20537025Y7076066D01*
X20537025Y7076066D02*
X20570697Y7109738D01*
X20570697Y7109738D02*
X20579115Y7134992D01*
X20579115Y7134992D02*
X20579115Y7151828D01*
X20579115Y7151828D02*
X20570697Y7177082D01*
X20658917Y7812803D02*
X20574738Y7728624D01*
X20574738Y7728624D02*
X20397961Y7905401D01*
X20524230Y8031670D02*
X20633663Y8141103D01*
X20633663Y8141103D02*
X20642081Y8014834D01*
X20642081Y8014834D02*
X20667335Y8040088D01*
X20667335Y8040088D02*
X20692589Y8048506D01*
X20692589Y8048506D02*
X20709425Y8048506D01*
X20709425Y8048506D02*
X20734679Y8040088D01*
X20734679Y8040088D02*
X20776768Y7997998D01*
X20776768Y7997998D02*
X20785186Y7972744D01*
X20785186Y7972744D02*
X20785186Y7955908D01*
X20785186Y7955908D02*
X20776768Y7930654D01*
X20776768Y7930654D02*
X20726261Y7880147D01*
X20726261Y7880147D02*
X20701007Y7871729D01*
X20701007Y7871729D02*
X20684171Y7871729D01*
D11*
X4602917Y11808593D02*
X3895810Y12515700D01*
X3895810Y12515700D02*
X4636589Y12246326D01*
X4636589Y12246326D02*
X4367215Y12987104D01*
X4367215Y12987104D02*
X5074322Y12279997D01*
X5411039Y12616715D02*
X4703932Y13323821D01*
X5815100Y13020776D02*
X5107993Y13121791D01*
X5107993Y13727882D02*
X5107993Y12919760D01*
X6488535Y13694211D02*
X6084474Y13290150D01*
X6286504Y13492180D02*
X5579398Y14199287D01*
X5579398Y14199287D02*
X5613069Y14030928D01*
X5613069Y14030928D02*
X5613069Y13896241D01*
X5613069Y13896241D02*
X5579398Y13795226D01*
D14*
X8279570Y14165244D02*
X8130741Y14191508D01*
X8174514Y14060188D02*
X7990667Y14244036D01*
X7990667Y14244036D02*
X8060704Y14314073D01*
X8060704Y14314073D02*
X8086968Y14322828D01*
X8086968Y14322828D02*
X8104477Y14322828D01*
X8104477Y14322828D02*
X8130741Y14314073D01*
X8130741Y14314073D02*
X8157005Y14287809D01*
X8157005Y14287809D02*
X8165760Y14261545D01*
X8165760Y14261545D02*
X8165760Y14244036D01*
X8165760Y14244036D02*
X8157005Y14217772D01*
X8157005Y14217772D02*
X8086968Y14147735D01*
X8454663Y14340337D02*
X8349608Y14235281D01*
X8402135Y14287809D02*
X8218288Y14471657D01*
X8218288Y14471657D02*
X8227042Y14427884D01*
X8227042Y14427884D02*
X8227042Y14392865D01*
X8227042Y14392865D02*
X8218288Y14366601D01*
X16597431Y8862016D02*
X16597431Y8845180D01*
X16597431Y8845180D02*
X16580595Y8811508D01*
X16580595Y8811508D02*
X16563759Y8794672D01*
X16563759Y8794672D02*
X16530087Y8777836D01*
X16530087Y8777836D02*
X16496416Y8777836D01*
X16496416Y8777836D02*
X16471162Y8786254D01*
X16471162Y8786254D02*
X16429072Y8811508D01*
X16429072Y8811508D02*
X16403818Y8836762D01*
X16403818Y8836762D02*
X16378564Y8878851D01*
X16378564Y8878851D02*
X16370146Y8904105D01*
X16370146Y8904105D02*
X16370146Y8937777D01*
X16370146Y8937777D02*
X16386982Y8971449D01*
X16386982Y8971449D02*
X16403818Y8988285D01*
X16403818Y8988285D02*
X16437490Y9005120D01*
X16437490Y9005120D02*
X16454326Y9005120D01*
X16597431Y9181897D02*
X16513251Y9097718D01*
X16513251Y9097718D02*
X16589013Y9005120D01*
X16589013Y9005120D02*
X16589013Y9021956D01*
X16589013Y9021956D02*
X16597431Y9047210D01*
X16597431Y9047210D02*
X16639520Y9089300D01*
X16639520Y9089300D02*
X16664774Y9097718D01*
X16664774Y9097718D02*
X16681610Y9097718D01*
X16681610Y9097718D02*
X16706864Y9089300D01*
X16706864Y9089300D02*
X16748954Y9047210D01*
X16748954Y9047210D02*
X16757372Y9021956D01*
X16757372Y9021956D02*
X16757372Y9005120D01*
X16757372Y9005120D02*
X16748954Y8979867D01*
X16748954Y8979867D02*
X16706864Y8937777D01*
X16706864Y8937777D02*
X16681610Y8929359D01*
X16681610Y8929359D02*
X16664774Y8929359D01*
D17*
X6548282Y7499470D02*
X6834492Y7213260D01*
X6834492Y7213260D02*
X6884999Y7196424D01*
X6884999Y7196424D02*
X6918671Y7196424D01*
X6918671Y7196424D02*
X6969179Y7213260D01*
X6969179Y7213260D02*
X7036522Y7280604D01*
X7036522Y7280604D02*
X7053358Y7331111D01*
X7053358Y7331111D02*
X7053358Y7364783D01*
X7053358Y7364783D02*
X7036522Y7415291D01*
X7036522Y7415291D02*
X6750312Y7701501D01*
X6935507Y7819352D02*
X6935507Y7853024D01*
X6935507Y7853024D02*
X6952343Y7903531D01*
X6952343Y7903531D02*
X7036523Y7987711D01*
X7036523Y7987711D02*
X7087030Y8004547D01*
X7087030Y8004547D02*
X7120702Y8004547D01*
X7120702Y8004547D02*
X7171210Y7987711D01*
X7171210Y7987711D02*
X7204881Y7954039D01*
X7204881Y7954039D02*
X7238553Y7886696D01*
X7238553Y7886696D02*
X7238553Y7482635D01*
X7238553Y7482635D02*
X7457420Y7701501D01*
D14*
X2393987Y2979922D02*
X2346847Y2932782D01*
X2420925Y2858704D02*
X2279504Y3000125D01*
X2279504Y3000125D02*
X2346847Y3067469D01*
X2542144Y2979923D02*
X2400722Y3121344D01*
X2609487Y3047266D02*
X2468066Y3188687D01*
X2468066Y3188687D02*
X2501737Y3222359D01*
X2501737Y3222359D02*
X2528675Y3235828D01*
X2528675Y3235828D02*
X2555612Y3235828D01*
X2555612Y3235828D02*
X2575815Y3229094D01*
X2575815Y3229094D02*
X2609487Y3208890D01*
X2609487Y3208890D02*
X2629690Y3188687D01*
X2629690Y3188687D02*
X2649893Y3155016D01*
X2649893Y3155016D02*
X2656627Y3134813D01*
X2656627Y3134813D02*
X2656627Y3107875D01*
X2656627Y3107875D02*
X2643159Y3080938D01*
X2643159Y3080938D02*
X2609487Y3047266D01*
X2616221Y3309906D02*
X2616221Y3323374D01*
X2616221Y3323374D02*
X2622956Y3343577D01*
X2622956Y3343577D02*
X2656627Y3377249D01*
X2656627Y3377249D02*
X2676830Y3383984D01*
X2676830Y3383984D02*
X2690299Y3383984D01*
X2690299Y3383984D02*
X2710502Y3377249D01*
X2710502Y3377249D02*
X2723971Y3363781D01*
X2723971Y3363781D02*
X2737440Y3336843D01*
X2737440Y3336843D02*
X2737440Y3175219D01*
X2737440Y3175219D02*
X2824986Y3262765D01*
D10*
X15918680Y10453169D02*
X16926095Y9445754D01*
X16926095Y9445754D02*
X18363891Y9432142D01*
X17506135Y12040624D02*
X15918680Y10453169D01*
X18363891Y9432142D02*
X19234269Y10302520D01*
X19239254Y10307505D02*
X17506135Y12040624D01*
X21803081Y5242641D02*
X22227345Y5666905D01*
X22015213Y5030509D02*
X21803081Y5242641D01*
X22227345Y5666905D02*
X22439477Y5454773D01*
X22439477Y5454773D02*
X22015213Y5030509D01*
X16106488Y8209802D02*
X16318620Y8421934D01*
X16318620Y8421934D02*
X16742884Y7997670D01*
X16530752Y7785538D02*
X16106488Y8209802D01*
X16742884Y7997670D02*
X16530752Y7785538D01*
X20311086Y3750645D02*
X20735350Y4174909D01*
X20523218Y3538513D02*
X20311086Y3750645D01*
X20735350Y4174909D02*
X20947482Y3962777D01*
X20947482Y3962777D02*
X20523218Y3538513D01*
X10975769Y20533304D02*
X11275769Y20533304D01*
X10975769Y19933304D02*
X10975769Y20533304D01*
X11275769Y20533304D02*
X11275769Y19933304D01*
X11275769Y19933304D02*
X10975769Y19933304D01*
X9510030Y21163150D02*
X10252492Y21905612D01*
X9891868Y20781312D02*
X9510030Y21163150D01*
X10252492Y21905612D02*
X10634330Y21523774D01*
X10634330Y21523774D02*
X9891868Y20781312D01*
X21258609Y6451793D02*
X21470741Y6663925D01*
X21470741Y6663925D02*
X21895005Y6239661D01*
X21682873Y6027529D02*
X21258609Y6451793D01*
X21895005Y6239661D02*
X21682873Y6027529D01*
X14169015Y9822005D02*
X14876122Y10529112D01*
X14522568Y9468452D02*
X14169015Y9822005D01*
X14876122Y10529112D02*
X15229675Y10175559D01*
X15229675Y10175559D02*
X14522568Y9468452D01*
X15618584Y9687655D02*
X15830716Y9899787D01*
X15830716Y9899787D02*
X16254980Y9475523D01*
X16042848Y9263391D02*
X15618584Y9687655D01*
X16254980Y9475523D02*
X16042848Y9263391D01*
X17058961Y7566335D02*
X17457062Y7964436D01*
X17457062Y7964436D02*
X17784452Y7637046D01*
X17457062Y7168234D02*
X17058961Y7566335D01*
X17457062Y7168234D02*
X17784452Y7495624D01*
X17784452Y7495624D02*
X17784452Y7637046D01*
X14435029Y11493464D02*
X15142136Y12200571D01*
X14788582Y11139911D02*
X14435029Y11493464D01*
X15142136Y12200571D02*
X15495689Y11847018D01*
X15495689Y11847018D02*
X14788582Y11139911D01*
X8845349Y21827830D02*
X9587811Y22570292D01*
X9227187Y21445992D02*
X8845349Y21827830D01*
X9587811Y22570292D02*
X9969649Y22188454D01*
X9969649Y22188454D02*
X9227187Y21445992D01*
X12989516Y22660188D02*
X13589516Y22660188D01*
X12989516Y22360188D02*
X12989516Y22660188D01*
X13589516Y22660188D02*
X13589516Y22360188D01*
X13589516Y22360188D02*
X12989516Y22360188D01*
X15526660Y11052371D02*
X15950924Y11476635D01*
X15738792Y10840239D02*
X15526660Y11052371D01*
X15950924Y11476635D02*
X16163056Y11264503D01*
X16163056Y11264503D02*
X15738792Y10840239D01*
X11118698Y7767012D02*
X11330830Y7979144D01*
X11330830Y7979144D02*
X11755094Y7554880D01*
X11542962Y7342748D02*
X11118698Y7767012D01*
X11755094Y7554880D02*
X11542962Y7342748D01*
X24391092Y2753624D02*
X22269772Y632304D01*
X20855558Y2046518D01*
X22976878Y4167838D01*
X24391092Y2753624D01*
X5497199Y9131728D02*
X5921463Y9555992D01*
X5709331Y8919596D02*
X5497199Y9131728D01*
X5921463Y9555992D02*
X6133595Y9343860D01*
X6133595Y9343860D02*
X5709331Y8919596D01*
X17287836Y12826729D02*
X16439308Y11978201D01*
X15732202Y12685307D01*
X16580730Y13533835D01*
X17287836Y12826729D01*
X7844793Y5864895D02*
X8269057Y6289159D01*
X8056925Y5652763D02*
X7844793Y5864895D01*
X8269057Y6289159D02*
X8481189Y6077027D01*
X8481189Y6077027D02*
X8056925Y5652763D01*
X7086142Y20162594D02*
G75*
G02*
X6086144Y20162594I-499999J0D01*
G01*
X6086144Y20162594D02*
G75*
G02*
X7086142Y20162594I499999J0D01*
G01*
X7077582Y10542406D02*
X7820044Y11284868D01*
X7459420Y10160568D02*
X7077582Y10542406D01*
X7820044Y11284868D02*
X8201882Y10903030D01*
X8201882Y10903030D02*
X7459420Y10160568D01*
X15611513Y7714827D02*
X15823645Y7926959D01*
X15823645Y7926959D02*
X16247909Y7502695D01*
X16035777Y7290563D02*
X15611513Y7714827D01*
X16247909Y7502695D02*
X16035777Y7290563D01*
X8848885Y17192745D02*
X8848885Y16768481D01*
X8848885Y16768481D02*
X9202438Y16414928D01*
X9202438Y16414928D02*
X10333809Y17546299D01*
X9768124Y18111984D02*
X8848885Y17192745D01*
X10333809Y17546299D02*
X9768124Y18111984D01*
X15102396Y8506787D02*
X15526660Y8931051D01*
X15314528Y8294655D02*
X15102396Y8506787D01*
X15526660Y8931051D02*
X15738792Y8718919D01*
X15738792Y8718919D02*
X15314528Y8294655D01*
X11870815Y20198990D02*
X11870815Y21898990D01*
X12370815Y19698990D02*
X11870815Y20198990D01*
X14170815Y21898990D02*
X11870815Y21898990D01*
X14170815Y19698990D02*
X12370815Y19698990D01*
X14170815Y19698990D02*
X14170815Y21898990D01*
X7399317Y13056170D02*
X7823581Y13480434D01*
X7823581Y13480434D02*
X8530687Y12773328D01*
X8000357Y12455130D02*
X7399317Y13056170D01*
X8000357Y12455130D02*
X8212489Y12455130D01*
X8530687Y12773328D02*
X8212489Y12455130D01*
X11511662Y22667259D02*
X12111662Y22667259D01*
X11511662Y22367259D02*
X11511662Y22667259D01*
X12111662Y22667259D02*
X12111662Y22367259D01*
X12111662Y22367259D02*
X11511662Y22367259D01*
X18462617Y11593988D02*
X18674749Y11806120D01*
X18674749Y11806120D02*
X19099013Y11381856D01*
X18886881Y11169724D02*
X18462617Y11593988D01*
X19099013Y11381856D02*
X18886881Y11169724D01*
X18713025Y8997378D02*
X18925157Y9209510D01*
X18925157Y9209510D02*
X19349421Y8785246D01*
X19137289Y8573114D02*
X18713025Y8997378D01*
X19349421Y8785246D02*
X19137289Y8573114D01*
X4928498Y15843679D02*
X5528498Y15843679D01*
X4928498Y15543679D02*
X4928498Y15843679D01*
X5528498Y15843679D02*
X5528498Y15543679D01*
X5528498Y15543679D02*
X4928498Y15543679D01*
X15924977Y4676955D02*
G75*
G02*
X14924979Y4676955I-499999J0D01*
G01*
X14924979Y4676955D02*
G75*
G02*
X15924977Y4676955I499999J0D01*
G01*
X20827274Y4931514D02*
X21039406Y5143646D01*
X21039406Y5143646D02*
X21463670Y4719382D01*
X21251538Y4507250D02*
X20827274Y4931514D01*
X21463670Y4719382D02*
X21251538Y4507250D01*
X10623723Y7272037D02*
X10835855Y7484169D01*
X10835855Y7484169D02*
X11260119Y7059905D01*
X11047987Y6847773D02*
X10623723Y7272037D01*
X11260119Y7059905D02*
X11047987Y6847773D01*
X10404520Y13374369D02*
X13374368Y16344217D01*
X10758073Y13020815D02*
X10758073Y13727922D01*
X11606601Y13869343D02*
X12808683Y15071425D01*
X12313708Y11465180D02*
X13020815Y11465180D01*
X12667262Y11111627D02*
X10404520Y13374369D01*
X13020815Y15990664D02*
X13727922Y15990664D01*
X13374368Y16344217D02*
X15637110Y14081475D01*
X14364318Y13515790D02*
X13162236Y12313708D01*
X15283557Y13727922D02*
X15283557Y14435029D01*
X15637110Y14081475D02*
X12667262Y11111627D01*
X12808684Y15071424D02*
G75*
G02*
X14364317Y13515790I282842J-1272791D01*
G01*
X13162236Y12313709D02*
G75*
G02*
X11606602Y13869343I-212133J1343501D01*
G01*
X19123147Y7922575D02*
X19547411Y8346839D01*
X19335279Y7710443D02*
X19123147Y7922575D01*
X19547411Y8346839D02*
X19759543Y8134707D01*
X19759543Y8134707D02*
X19335279Y7710443D01*
X20395939Y6649783D02*
X20820203Y7074047D01*
X20608071Y6437651D02*
X20395939Y6649783D01*
X20820203Y7074047D02*
X21032335Y6861915D01*
X21032335Y6861915D02*
X20608071Y6437651D01*
X19985817Y7724585D02*
X20197949Y7936717D01*
X20197949Y7936717D02*
X20622213Y7512453D01*
X20410081Y7300321D02*
X19985817Y7724585D01*
X20622213Y7512453D02*
X20410081Y7300321D01*
X3708801Y14054655D02*
X4708801Y15054655D01*
X3708801Y11054655D02*
X3708801Y14054655D01*
X6708801Y15054655D02*
X4708801Y15054655D01*
X6708801Y15054655D02*
X6708801Y11054655D01*
X6708801Y11054655D02*
X3708801Y11054655D01*
X8216024Y13908234D02*
X8597862Y14290072D01*
X8597862Y14290072D02*
X9340324Y13547610D01*
X8958486Y13165772D02*
X8216024Y13908234D01*
X9340324Y13547610D02*
X8958486Y13165772D01*
X16608533Y8697706D02*
X16820665Y8909838D01*
X16820665Y8909838D02*
X17244929Y8485574D01*
X17032797Y8273442D02*
X16608533Y8697706D01*
X17244929Y8485574D02*
X17032797Y8273442D01*
X6709887Y6320978D02*
X5755292Y7275573D01*
X6957374Y8477654D02*
X5755292Y7275573D01*
X7664481Y8477654D02*
X6957374Y8477654D01*
X8265522Y7876613D02*
X6709887Y6320978D01*
X8265522Y7876613D02*
X7664481Y8477654D01*
X3055634Y3121320D02*
G75*
G02*
X2055636Y3121320I-499999J0D01*
G01*
X2055636Y3121320D02*
G75*
G02*
X3055634Y3121320I499999J0D01*
G01*
M02*
