M48
; DRILL file {KiCad 9.0.0-rc2-3baa6cd791~182~ubuntu24.04.1} date 2025-02-06T23:09:23-0500
; FORMAT={-:-/ absolute / metric / decimal}
; #@! TF.CreationDate,2025-02-06T23:09:23-05:00
; #@! TF.GenerationSoftware,Kicad,Pcbnew,9.0.0-rc2-3baa6cd791~182~ubuntu24.04.1
; #@! TF.FileFunction,Plated,1,4,PTH
FMAT,2
METRIC
; #@! TA.AperFunction,Plated,PTH,ViaDrill
T1C0.150
; #@! TA.AperFunction,Plated,PTH,ViaDrill
T2C0.300
%
G90
G05
T1
X3.828Y20.092
X3.828Y18.678
X3.828Y17.263
X3.828Y15.849
X3.828Y10.192
X3.828Y8.778
X3.934Y4.5
X4.536Y19.385
X4.536Y17.971
X4.536Y16.556
X4.536Y9.485
X4.536Y8.071
X4.759Y13.73
X4.759Y12.38
X5.243Y20.092
X5.243Y18.678
X5.243Y17.263
X5.243Y7.364
X5.548Y15.694
X5.589Y9.012
X5.659Y13.73
X5.659Y12.38
X5.95Y19.385
X5.95Y17.971
X5.95Y16.556
X6.042Y9.464
X6.339Y8.248
X6.657Y22.92
X6.657Y18.678
X6.657Y17.263
X7.279Y10.362
X7.364Y22.213
X7.364Y20.799
X7.364Y19.385
X7.364Y17.971
X7.364Y9.485
X7.682Y6.904
X8.0Y11.083
X8.071Y22.92
X8.071Y21.506
X8.071Y20.092
X8.071Y18.678
X8.071Y10.192
X8.071Y4.536
X8.389Y6.197
X8.672Y12.526
X8.778Y20.799
X8.778Y19.385
X8.778Y3.828
X9.485Y20.092
X9.485Y17.263
X9.485Y4.536
X10.042Y17.82
X10.192Y10.899
X10.192Y9.485
X10.192Y8.071
X10.192Y5.243
X10.192Y3.828
X10.235Y20.318
X10.26Y12.487
X10.899Y11.607
X10.899Y8.778
X10.899Y4.536
X11.126Y19.913
X11.168Y6.94
X11.211Y7.887
X11.407Y22.531
X11.607Y10.899
X11.607Y9.485
X11.607Y5.243
X11.607Y3.828
X11.663Y7.435
X12.106Y21.049
X12.257Y19.229
X12.271Y19.939
X12.314Y10.192
X12.314Y4.536
X12.766Y19.215
X13.021Y8.071
X13.021Y5.243
X13.021Y3.828
X13.271Y19.939
X13.61Y22.51
X13.728Y8.778
X13.728Y5.95
X13.728Y4.536
X13.771Y21.659
X13.935Y21.049
X14.386Y7.187
X14.435Y22.213
X14.435Y5.243
X14.435Y3.828
X14.555Y18.133
X14.626Y11.331
X14.626Y8.969
X14.683Y20.057
X15.022Y17.681
X15.142Y22.92
X15.142Y21.506
X15.142Y5.95
X15.619Y10.932
X15.711Y9.808
X15.821Y11.635
X15.849Y22.213
X15.849Y20.799
X15.849Y19.385
X16.156Y7.382
X16.22Y12.464
X16.415Y19.243
X16.422Y11.656
X16.453Y8.57
X16.556Y22.92
X16.556Y21.506
X16.556Y20.092
X16.556Y17.263
X16.556Y5.95
X16.556Y4.536
X16.665Y7.877
X16.67Y10.422
X16.79Y7.3
X16.802Y13.048
X17.094Y11.27
X17.095Y10.846
X17.095Y9.574
X17.095Y10.421
X17.15Y11.734
X17.153Y8.365
X17.193Y6.926
X17.263Y22.213
X17.263Y20.799
X17.263Y5.243
X17.263Y3.828
X17.517Y9.574
X17.519Y9.998
X17.716Y11.932
X17.879Y9.082
X17.943Y10.422
X17.943Y9.998
X17.971Y22.92
X17.971Y21.506
X17.971Y20.092
X17.971Y5.95
X17.971Y4.536
X18.077Y12.604
X18.239Y8.934
X18.367Y10.422
X18.555Y11.714
X18.678Y22.213
X18.678Y20.799
X18.678Y15.142
X18.678Y6.657
X18.678Y5.243
X18.678Y3.828
X19.007Y11.262
X19.215Y7.802
X19.385Y21.506
X19.385Y20.092
X19.385Y18.678
X19.385Y15.849
X19.385Y5.95
X19.385Y4.536
X19.668Y16.981
X19.915Y14.442
X20.078Y15.001
X20.092Y20.799
X20.092Y19.385
X20.092Y17.971
X20.092Y9.485
X20.092Y5.243
X20.488Y6.53
X20.799Y20.092
X20.799Y10.192
X20.799Y8.778
X20.919Y5.052
X21.506Y19.385
X21.506Y10.899
X21.506Y9.485
X21.506Y8.071
X22.213Y18.678
X22.213Y11.607
X22.213Y10.192
X22.213Y8.778
X22.213Y7.364
X22.553Y15.708
X22.609Y16.981
X22.92Y17.971
X22.92Y10.899
X22.92Y9.485
X22.92Y8.071
T2
X13.021Y13.728
M30
