M48
; DRILL file {KiCad 9.0.0-rc2-3baa6cd791~182~ubuntu24.04.1} date 2025-01-31T11:47:19-0500
; FORMAT={-:-/ absolute / inch / decimal}
; #@! TF.CreationDate,2025-01-31T11:47:19-05:00
; #@! TF.GenerationSoftware,Kicad,Pcbnew,9.0.0-rc2-3baa6cd791~182~ubuntu24.04.1
; #@! TF.FileFunction,MixedPlating,1,4
FMAT,2
INCH
; #@! TA.AperFunction,Plated,PTH,ViaDrill
T1C0.0059
; #@! TA.AperFunction,Plated,PTH,ViaDrill
T2C0.0118
; #@! TA.AperFunction,NonPlated,NPTH,ComponentDrill
T3C0.0197
; #@! TA.AperFunction,NonPlated,NPTH,ComponentDrill
T4C0.0390
; #@! TA.AperFunction,NonPlated,NPTH,ComponentDrill
T5C0.0591
%
G90
G05
T1
X4.1813Y-1.5219
X4.1813Y-1.6333
X4.1813Y-1.9395
X4.1813Y-2.8112
X4.1813Y-2.9226
X4.1813Y-3.2288
X4.1813Y-4.1006
X4.1813Y-4.2119
X4.1813Y-4.5181
X4.1855Y-2.1358
X4.1855Y-3.4251
X4.1855Y-4.7144
X4.2179Y-1.7724
X4.2179Y-1.8255
X4.2179Y-3.0617
X4.2179Y-3.1149
X4.2179Y-4.351
X4.2179Y-4.4042
X4.237Y-1.5776
X4.237Y-2.8669
X4.237Y-4.1562
X4.249Y-1.6951
X4.249Y-2.9844
X4.249Y-4.2737
X4.2506Y-1.9581
X4.2506Y-3.2475
X4.2506Y-4.5368
X4.2534Y-1.7724
X4.2534Y-1.8255
X4.2534Y-3.0617
X4.2534Y-3.1149
X4.2534Y-4.351
X4.2534Y-4.4042
X4.2684Y-1.9403
X4.2684Y-3.2296
X4.2684Y-4.519
X4.2801Y-1.9882
X4.2801Y-3.2775
X4.2801Y-4.5669
X4.2927Y-1.4106
X4.2927Y-1.5219
X4.2927Y-1.6333
X4.2927Y-2.6999
X4.2927Y-2.8112
X4.2927Y-2.9226
X4.2927Y-3.9892
X4.2927Y-4.1006
X4.2927Y-4.2119
X4.3172Y-1.905
X4.3172Y-3.1943
X4.3172Y-4.4836
X4.333Y-2.0411
X4.333Y-3.3304
X4.333Y-4.6197
X4.3456Y-1.8766
X4.3456Y-3.1659
X4.3456Y-4.4552
X4.3483Y-1.4662
X4.3483Y-1.5776
X4.3483Y-2.7556
X4.3483Y-2.8669
X4.3483Y-4.0449
X4.3483Y-4.1562
X4.3609Y-2.0689
X4.3609Y-3.3583
X4.3609Y-4.6476
X4.372Y-1.8198
X4.372Y-3.1091
X4.372Y-4.3984
X4.3762Y-2.1344
X4.3762Y-3.4237
X4.3762Y-4.713
X4.404Y-1.5219
X4.404Y-2.8112
X4.404Y-4.1006
X4.4216Y-1.7527
X4.4216Y-3.042
X4.4216Y-4.3313
X4.4259Y-1.6113
X4.4259Y-2.9007
X4.4259Y-4.19
X4.4319Y-1.8838
X4.4319Y-1.9395
X4.4319Y-3.1731
X4.4319Y-3.2288
X4.4319Y-4.4625
X4.4319Y-4.5181
X4.4335Y-1.513
X4.4335Y-2.8023
X4.4335Y-4.0916
X4.4345Y-1.8213
X4.4345Y-3.1106
X4.4345Y-4.4
X4.4472Y-1.6764
X4.4472Y-2.9657
X4.4472Y-4.2551
X4.4686Y-1.5289
X4.4686Y-2.8183
X4.4686Y-4.1076
X4.4703Y-2.0397
X4.4703Y-3.329
X4.4703Y-4.6184
X4.4719Y-2.0024
X4.4719Y-3.2917
X4.4719Y-4.5811
X4.4736Y-2.1204
X4.4736Y-3.4098
X4.4736Y-4.6991
X4.4797Y-1.4259
X4.4797Y-2.7152
X4.4797Y-4.0045
X4.4898Y-2.0202
X4.4898Y-3.3095
X4.4898Y-4.5989
X4.5072Y-1.4842
X4.5072Y-2.7735
X4.5072Y-4.0629
X4.5132Y-1.5559
X4.5132Y-2.8452
X4.5132Y-4.1345
X4.5137Y-1.5279
X4.5137Y-2.8173
X4.5137Y-4.1066
X4.5332Y-1.5564
X4.5332Y-2.8458
X4.5332Y-4.1351
X4.5531Y-1.5279
X4.5531Y-2.8173
X4.5531Y-4.1066
X4.5664Y-1.4267
X4.5664Y-2.716
X4.5664Y-4.0053
X4.5727Y-1.4602
X4.5727Y-2.7495
X4.5727Y-4.0389
X4.5792Y-1.4842
X4.5792Y-2.7735
X4.5792Y-4.0629
X4.5969Y-2.03
X4.5969Y-3.3193
X4.5969Y-4.6086
X4.6036Y-1.599
X4.6036Y-2.8883
X4.6036Y-4.1777
X4.6064Y-1.8668
X4.6064Y-1.9598
X4.6064Y-3.1562
X4.6064Y-3.2491
X4.6064Y-4.4455
X4.6064Y-4.5385
X4.6086Y-1.5233
X4.6086Y-2.8126
X4.6086Y-4.1019
X4.6128Y-2.1204
X4.6128Y-3.4098
X4.6128Y-4.6991
X4.622Y-1.6168
X4.622Y-2.9062
X4.622Y-4.1955
X4.6455Y-1.8825
X4.6455Y-3.1719
X4.6455Y-4.4612
X4.6491Y-1.9268
X4.6491Y-3.2161
X4.6491Y-4.5054
X4.6535Y-1.8549
X4.6535Y-3.1442
X4.6535Y-4.4335
X4.6546Y-1.5497
X4.6546Y-2.8391
X4.6546Y-4.1284
X4.6666Y-2.0223
X4.6666Y-3.3116
X4.6666Y-4.6009
X4.6692Y-1.8222
X4.6692Y-3.1115
X4.6692Y-4.4008
X4.6768Y-1.5553
X4.6768Y-2.8446
X4.6768Y-4.134
X4.6771Y-1.854
X4.6771Y-3.1433
X4.6771Y-4.4327
X4.6783Y-1.9755
X4.6783Y-3.2648
X4.6783Y-4.5542
X4.6824Y-1.6333
X4.6824Y-2.9226
X4.6824Y-4.2119
X4.6867Y-2.0028
X4.6867Y-3.2921
X4.6867Y-4.5814
X4.6869Y-1.9026
X4.6869Y-3.1919
X4.6869Y-4.4813
X4.6916Y-2.0255
X4.6916Y-3.3148
X4.6916Y-4.6042
X4.6921Y-1.7992
X4.6921Y-3.0886
X4.6921Y-4.3779
X4.7036Y-1.8692
X4.7036Y-3.1585
X4.7036Y-4.4479
X4.7036Y-1.8859
X4.7036Y-1.936
X4.7036Y-3.1752
X4.7036Y-3.2253
X4.7036Y-4.4646
X4.7036Y-4.5147
X4.7036Y-1.9026
X4.7036Y-3.192
X4.7036Y-4.4813
X4.7058Y-1.851
X4.7058Y-3.1403
X4.7058Y-4.4296
X4.7059Y-1.9836
X4.7059Y-3.2729
X4.7059Y-4.5622
X4.7075Y-2.0403
X4.7075Y-3.3296
X4.7075Y-4.6189
X4.7116Y-1.4342
X4.7116Y-2.7235
X4.7116Y-4.0129
X4.7202Y-1.936
X4.7202Y-3.2253
X4.7202Y-4.5146
X4.7203Y-1.9193
X4.7203Y-3.2086
X4.7203Y-4.498
X4.7281Y-1.8432
X4.7281Y-3.1325
X4.7281Y-4.4218
X4.7345Y-1.9554
X4.7345Y-3.2447
X4.7345Y-4.534
X4.737Y-1.9026
X4.737Y-1.9193
X4.737Y-3.1919
X4.737Y-3.2086
X4.737Y-4.4813
X4.737Y-4.498
X4.7378Y-2.035
X4.7378Y-3.3243
X4.7378Y-4.6136
X4.7423Y-1.8167
X4.7423Y-3.106
X4.7423Y-4.3954
X4.7487Y-1.9612
X4.7487Y-3.2505
X4.7487Y-4.5398
X4.752Y-2.1204
X4.752Y-3.4098
X4.752Y-4.6991
X4.7537Y-1.9026
X4.7537Y-3.1919
X4.7537Y-4.4813
X4.7634Y-1.8502
X4.7634Y-3.1395
X4.7634Y-4.4288
X4.7659Y-1.4384
X4.7659Y-2.0508
X4.7659Y-2.7277
X4.7659Y-3.3402
X4.7659Y-4.017
X4.7659Y-4.6295
X4.7799Y-1.8693
X4.7799Y-3.1586
X4.7799Y-4.448
X4.7804Y-1.7624
X4.7804Y-3.0518
X4.7804Y-4.3411
X4.7871Y-2.0057
X4.7871Y-3.2951
X4.7871Y-4.5844
X4.7938Y-2.0787
X4.7938Y-3.368
X4.7938Y-4.6573
X4.7966Y-1.5191
X4.7966Y-2.8084
X4.7966Y-4.0978
X4.8049Y-1.6444
X4.8049Y-2.9337
X4.8049Y-4.223
X4.8146Y-1.7443
X4.8146Y-3.0337
X4.8146Y-4.323
X4.821Y-1.7224
X4.821Y-3.0117
X4.821Y-4.301
X4.8216Y-1.4941
X4.8216Y-1.6054
X4.8216Y-1.9395
X4.8216Y-2.1065
X4.8216Y-2.7834
X4.8216Y-2.8947
X4.8216Y-3.2288
X4.8216Y-3.3958
X4.8216Y-4.0727
X4.8216Y-4.1841
X4.8216Y-4.5181
X4.8216Y-4.6852
X4.8372Y-2.0559
X4.8372Y-3.3452
X4.8372Y-4.6345
X4.8464Y-1.8217
X4.8464Y-3.1111
X4.8464Y-4.4004
X4.8472Y-1.8487
X4.8472Y-3.1381
X4.8472Y-4.4274
X4.8494Y-1.9673
X4.8494Y-3.2567
X4.8494Y-4.546
X4.8542Y-2.114
X4.8542Y-3.4034
X4.8542Y-4.6927
X4.8773Y-1.5497
X4.8773Y-1.8838
X4.8773Y-1.9952
X4.8773Y-2.8391
X4.8773Y-3.1731
X4.8773Y-3.2845
X4.8773Y-4.1284
X4.8773Y-4.4625
X4.8773Y-4.5738
X4.9051Y-1.9117
X4.9051Y-2.023
X4.9051Y-3.201
X4.9051Y-3.3123
X4.9051Y-4.4903
X4.9051Y-4.6017
X4.9185Y-1.6945
X4.9185Y-2.9838
X4.9185Y-4.2732
X4.9207Y-1.6444
X4.9207Y-2.9337
X4.9207Y-4.223
X4.933Y-1.9395
X4.933Y-3.2288
X4.933Y-4.5181
X5.4706Y-1.5219
X5.4706Y-1.6333
X5.4706Y-1.9395
X5.4706Y-2.8112
X5.4706Y-2.9226
X5.4706Y-3.2288
X5.4706Y-4.1006
X5.4706Y-4.2119
X5.4706Y-4.5181
X5.4748Y-2.1358
X5.4748Y-3.4251
X5.4748Y-4.7144
X5.5073Y-1.7724
X5.5073Y-1.8255
X5.5073Y-3.0617
X5.5073Y-3.1149
X5.5073Y-4.351
X5.5073Y-4.4042
X5.5263Y-1.5776
X5.5263Y-2.8669
X5.5263Y-4.1562
X5.5384Y-1.6951
X5.5384Y-2.9844
X5.5384Y-4.2737
X5.54Y-1.9581
X5.54Y-3.2475
X5.54Y-4.5368
X5.5427Y-1.7724
X5.5427Y-1.8255
X5.5427Y-3.0617
X5.5427Y-3.1149
X5.5427Y-4.351
X5.5427Y-4.4042
X5.5578Y-1.9403
X5.5578Y-3.2296
X5.5578Y-4.519
X5.5695Y-1.9882
X5.5695Y-3.2775
X5.5695Y-4.5669
X5.582Y-1.4106
X5.582Y-1.5219
X5.582Y-1.6333
X5.582Y-2.6999
X5.582Y-2.8112
X5.582Y-2.9226
X5.582Y-3.9892
X5.582Y-4.1006
X5.582Y-4.2119
X5.6065Y-1.905
X5.6065Y-3.1943
X5.6065Y-4.4836
X5.6224Y-2.0411
X5.6224Y-3.3304
X5.6224Y-4.6197
X5.6349Y-1.8766
X5.6349Y-3.1659
X5.6349Y-4.4552
X5.6377Y-1.4662
X5.6377Y-1.5776
X5.6377Y-2.7556
X5.6377Y-2.8669
X5.6377Y-4.0449
X5.6377Y-4.1562
X5.6502Y-2.0689
X5.6502Y-3.3583
X5.6502Y-4.6476
X5.6613Y-1.8198
X5.6613Y-3.1091
X5.6613Y-4.3984
X5.6655Y-2.1344
X5.6655Y-3.4237
X5.6655Y-4.713
X5.6933Y-1.5219
X5.6933Y-2.8112
X5.6933Y-4.1006
X5.7109Y-1.7527
X5.7109Y-3.042
X5.7109Y-4.3313
X5.7153Y-1.6113
X5.7153Y-2.9007
X5.7153Y-4.19
X5.7212Y-1.8838
X5.7212Y-1.9395
X5.7212Y-3.1731
X5.7212Y-3.2288
X5.7212Y-4.4625
X5.7212Y-4.5181
X5.7229Y-1.513
X5.7229Y-2.8023
X5.7229Y-4.0916
X5.7238Y-1.8213
X5.7238Y-3.1106
X5.7238Y-4.4
X5.7365Y-1.6764
X5.7365Y-2.9657
X5.7365Y-4.2551
X5.7579Y-1.5289
X5.7579Y-2.8183
X5.7579Y-4.1076
X5.7596Y-2.0397
X5.7596Y-3.329
X5.7596Y-4.6184
X5.7613Y-2.0024
X5.7613Y-3.2917
X5.7613Y-4.5811
X5.7629Y-2.1204
X5.7629Y-3.4098
X5.7629Y-4.6991
X5.769Y-1.4259
X5.769Y-2.7152
X5.769Y-4.0045
X5.7791Y-2.0202
X5.7791Y-3.3095
X5.7791Y-4.5989
X5.7965Y-1.4842
X5.7965Y-2.7735
X5.7965Y-4.0629
X5.8025Y-1.5559
X5.8025Y-2.8452
X5.8025Y-4.1345
X5.803Y-1.5279
X5.803Y-2.8173
X5.803Y-4.1066
X5.8225Y-1.5564
X5.8225Y-2.8458
X5.8225Y-4.1351
X5.8424Y-1.5279
X5.8424Y-2.8173
X5.8424Y-4.1066
X5.8557Y-1.4267
X5.8557Y-2.716
X5.8557Y-4.0053
X5.8621Y-1.4602
X5.8621Y-2.7495
X5.8621Y-4.0389
X5.8685Y-1.4842
X5.8685Y-2.7735
X5.8685Y-4.0629
X5.8863Y-2.03
X5.8863Y-3.3193
X5.8863Y-4.6086
X5.8929Y-1.599
X5.8929Y-2.8883
X5.8929Y-4.1777
X5.8957Y-1.8668
X5.8957Y-1.9598
X5.8957Y-3.1562
X5.8957Y-3.2491
X5.8957Y-4.4455
X5.8957Y-4.5385
X5.898Y-1.5233
X5.898Y-2.8126
X5.898Y-4.1019
X5.9021Y-2.1204
X5.9021Y-3.4098
X5.9021Y-4.6991
X5.9113Y-1.6168
X5.9113Y-2.9062
X5.9113Y-4.1955
X5.9348Y-1.8825
X5.9348Y-3.1719
X5.9348Y-4.4612
X5.9384Y-1.9268
X5.9384Y-3.2161
X5.9384Y-4.5054
X5.9428Y-1.8549
X5.9428Y-3.1442
X5.9428Y-4.4335
X5.9439Y-1.5497
X5.9439Y-2.8391
X5.9439Y-4.1284
X5.956Y-2.0223
X5.956Y-3.3116
X5.956Y-4.6009
X5.9585Y-1.8222
X5.9585Y-3.1115
X5.9585Y-4.4008
X5.9662Y-1.5553
X5.9662Y-2.8446
X5.9662Y-4.134
X5.9664Y-1.854
X5.9664Y-3.1433
X5.9664Y-4.4327
X5.9677Y-1.9755
X5.9677Y-3.2648
X5.9677Y-4.5542
X5.9717Y-1.6333
X5.9717Y-2.9226
X5.9717Y-4.2119
X5.976Y-2.0028
X5.976Y-3.2921
X5.976Y-4.5814
X5.9762Y-1.9026
X5.9762Y-3.1919
X5.9762Y-4.4813
X5.9809Y-2.0255
X5.9809Y-3.3148
X5.9809Y-4.6042
X5.9814Y-1.7992
X5.9814Y-3.0886
X5.9814Y-4.3779
X5.9929Y-1.8692
X5.9929Y-3.1585
X5.9929Y-4.4479
X5.9929Y-1.8859
X5.9929Y-1.936
X5.9929Y-3.1752
X5.9929Y-3.2253
X5.9929Y-4.4646
X5.9929Y-4.5147
X5.9929Y-1.9026
X5.9929Y-3.192
X5.9929Y-4.4813
X5.9951Y-1.851
X5.9951Y-3.1403
X5.9951Y-4.4296
X5.9952Y-1.9836
X5.9952Y-3.2729
X5.9952Y-4.5622
X5.9968Y-2.0403
X5.9968Y-3.3296
X5.9968Y-4.6189
X6.001Y-1.4342
X6.001Y-2.7235
X6.001Y-4.0129
X6.0096Y-1.936
X6.0096Y-3.2253
X6.0096Y-4.5146
X6.0096Y-1.9193
X6.0096Y-3.2086
X6.0096Y-4.498
X6.0174Y-1.8432
X6.0174Y-3.1325
X6.0174Y-4.4218
X6.0238Y-1.9554
X6.0238Y-3.2447
X6.0238Y-4.534
X6.0263Y-1.9026
X6.0263Y-1.9193
X6.0263Y-3.1919
X6.0263Y-3.2086
X6.0263Y-4.4813
X6.0263Y-4.498
X6.0271Y-2.035
X6.0271Y-3.3243
X6.0271Y-4.6136
X6.0316Y-1.8167
X6.0316Y-3.106
X6.0316Y-4.3954
X6.038Y-1.9612
X6.038Y-3.2505
X6.038Y-4.5398
X6.0413Y-2.1204
X6.0413Y-3.4098
X6.0413Y-4.6991
X6.043Y-1.9026
X6.043Y-3.1919
X6.043Y-4.4813
X6.0527Y-1.8502
X6.0527Y-3.1395
X6.0527Y-4.4288
X6.0552Y-1.4384
X6.0552Y-2.0508
X6.0552Y-2.7277
X6.0552Y-3.3402
X6.0552Y-4.017
X6.0552Y-4.6295
X6.0692Y-1.8693
X6.0692Y-3.1586
X6.0692Y-4.448
X6.0697Y-1.7624
X6.0697Y-3.0518
X6.0697Y-4.3411
X6.0764Y-2.0057
X6.0764Y-3.2951
X6.0764Y-4.5844
X6.0831Y-2.0787
X6.0831Y-3.368
X6.0831Y-4.6573
X6.0859Y-1.5191
X6.0859Y-2.8084
X6.0859Y-4.0978
X6.0942Y-1.6444
X6.0942Y-2.9337
X6.0942Y-4.223
X6.104Y-1.7443
X6.104Y-3.0337
X6.104Y-4.323
X6.1104Y-1.7224
X6.1104Y-3.0117
X6.1104Y-4.301
X6.1109Y-1.4941
X6.1109Y-1.6054
X6.1109Y-1.9395
X6.1109Y-2.1065
X6.1109Y-2.7834
X6.1109Y-2.8947
X6.1109Y-3.2288
X6.1109Y-3.3958
X6.1109Y-4.0727
X6.1109Y-4.1841
X6.1109Y-4.5181
X6.1109Y-4.6852
X6.1265Y-2.0559
X6.1265Y-3.3452
X6.1265Y-4.6345
X6.1357Y-1.8217
X6.1357Y-3.1111
X6.1357Y-4.4004
X6.1365Y-1.8487
X6.1365Y-3.1381
X6.1365Y-4.4274
X6.1388Y-1.9673
X6.1388Y-3.2567
X6.1388Y-4.546
X6.1435Y-2.114
X6.1435Y-3.4034
X6.1435Y-4.6927
X6.1666Y-1.5497
X6.1666Y-1.8838
X6.1666Y-1.9952
X6.1666Y-2.8391
X6.1666Y-3.1731
X6.1666Y-3.2845
X6.1666Y-4.1284
X6.1666Y-4.4625
X6.1666Y-4.5738
X6.1944Y-1.9117
X6.1944Y-2.023
X6.1944Y-3.201
X6.1944Y-3.3123
X6.1944Y-4.4903
X6.1944Y-4.6017
X6.2078Y-1.6945
X6.2078Y-2.9838
X6.2078Y-4.2732
X6.21Y-1.6444
X6.21Y-2.9337
X6.21Y-4.223
X6.2223Y-1.9395
X6.2223Y-3.2288
X6.2223Y-4.5181
X6.76Y-1.5219
X6.76Y-1.6333
X6.76Y-1.9395
X6.76Y-2.8112
X6.76Y-2.9226
X6.76Y-3.2288
X6.76Y-4.1006
X6.76Y-4.2119
X6.76Y-4.5181
X6.7641Y-2.1358
X6.7641Y-3.4251
X6.7641Y-4.7144
X6.7966Y-1.7724
X6.7966Y-1.8255
X6.7966Y-3.0617
X6.7966Y-3.1149
X6.7966Y-4.351
X6.7966Y-4.4042
X6.8156Y-1.5776
X6.8156Y-2.8669
X6.8156Y-4.1562
X6.8277Y-1.6951
X6.8277Y-2.9844
X6.8277Y-4.2737
X6.8293Y-1.9581
X6.8293Y-3.2475
X6.8293Y-4.5368
X6.832Y-1.7724
X6.832Y-1.8255
X6.832Y-3.0617
X6.832Y-3.1149
X6.832Y-4.351
X6.832Y-4.4042
X6.8471Y-1.9403
X6.8471Y-3.2296
X6.8471Y-4.519
X6.8588Y-1.9882
X6.8588Y-3.2775
X6.8588Y-4.5669
X6.8713Y-1.4106
X6.8713Y-1.5219
X6.8713Y-1.6333
X6.8713Y-2.6999
X6.8713Y-2.8112
X6.8713Y-2.9226
X6.8713Y-3.9892
X6.8713Y-4.1006
X6.8713Y-4.2119
X6.8958Y-1.905
X6.8958Y-3.1943
X6.8958Y-4.4836
X6.9117Y-2.0411
X6.9117Y-3.3304
X6.9117Y-4.6197
X6.9242Y-1.8766
X6.9242Y-3.1659
X6.9242Y-4.4552
X6.927Y-1.4662
X6.927Y-1.5776
X6.927Y-2.7556
X6.927Y-2.8669
X6.927Y-4.0449
X6.927Y-4.1562
X6.9395Y-2.0689
X6.9395Y-3.3583
X6.9395Y-4.6476
X6.9506Y-1.8198
X6.9506Y-3.1091
X6.9506Y-4.3984
X6.9548Y-2.1344
X6.9548Y-3.4237
X6.9548Y-4.713
X6.9827Y-1.5219
X6.9827Y-2.8112
X6.9827Y-4.1006
X7.0002Y-1.7527
X7.0002Y-3.042
X7.0002Y-4.3313
X7.0046Y-1.6113
X7.0046Y-2.9007
X7.0046Y-4.19
X7.0105Y-1.8838
X7.0105Y-1.9395
X7.0105Y-3.1731
X7.0105Y-3.2288
X7.0105Y-4.4625
X7.0105Y-4.5181
X7.0122Y-1.513
X7.0122Y-2.8023
X7.0122Y-4.0916
X7.0131Y-1.8213
X7.0131Y-3.1106
X7.0131Y-4.4
X7.0258Y-1.6764
X7.0258Y-2.9657
X7.0258Y-4.2551
X7.0472Y-1.5289
X7.0472Y-2.8183
X7.0472Y-4.1076
X7.0489Y-2.0397
X7.0489Y-3.329
X7.0489Y-4.6184
X7.0506Y-2.0024
X7.0506Y-3.2917
X7.0506Y-4.5811
X7.0523Y-2.1204
X7.0523Y-3.4098
X7.0523Y-4.6991
X7.0583Y-1.4259
X7.0583Y-2.7152
X7.0583Y-4.0045
X7.0684Y-2.0202
X7.0684Y-3.3095
X7.0684Y-4.5989
X7.0859Y-1.4842
X7.0859Y-2.7735
X7.0859Y-4.0629
X7.0918Y-1.5559
X7.0918Y-2.8452
X7.0918Y-4.1345
X7.0923Y-1.5279
X7.0923Y-2.8173
X7.0923Y-4.1066
X7.1118Y-1.5564
X7.1118Y-2.8458
X7.1118Y-4.1351
X7.1317Y-1.5279
X7.1317Y-2.8173
X7.1317Y-4.1066
X7.145Y-1.4267
X7.145Y-2.716
X7.145Y-4.0053
X7.1514Y-1.4602
X7.1514Y-2.7495
X7.1514Y-4.0389
X7.1579Y-1.4842
X7.1579Y-2.7735
X7.1579Y-4.0629
X7.1756Y-2.03
X7.1756Y-3.3193
X7.1756Y-4.6086
X7.1823Y-1.599
X7.1823Y-2.8883
X7.1823Y-4.1777
X7.1851Y-1.8668
X7.1851Y-1.9598
X7.1851Y-3.1562
X7.1851Y-3.2491
X7.1851Y-4.4455
X7.1851Y-4.5385
X7.1873Y-1.5233
X7.1873Y-2.8126
X7.1873Y-4.1019
X7.1915Y-2.1204
X7.1915Y-3.4098
X7.1915Y-4.6991
X7.2006Y-1.6168
X7.2006Y-2.9062
X7.2006Y-4.1955
X7.2241Y-1.8825
X7.2241Y-3.1719
X7.2241Y-4.4612
X7.2278Y-1.9268
X7.2278Y-3.2161
X7.2278Y-4.5054
X7.2321Y-1.8549
X7.2321Y-3.1442
X7.2321Y-4.4335
X7.2332Y-1.5497
X7.2332Y-2.8391
X7.2332Y-4.1284
X7.2453Y-2.0223
X7.2453Y-3.3116
X7.2453Y-4.6009
X7.2478Y-1.8222
X7.2478Y-3.1115
X7.2478Y-4.4008
X7.2555Y-1.5553
X7.2555Y-2.8446
X7.2555Y-4.134
X7.2558Y-1.854
X7.2558Y-3.1433
X7.2558Y-4.4327
X7.257Y-1.9755
X7.257Y-3.2648
X7.257Y-4.5542
X7.2611Y-1.6333
X7.2611Y-2.9226
X7.2611Y-4.2119
X7.2653Y-2.0028
X7.2653Y-3.2921
X7.2653Y-4.5814
X7.2655Y-1.9026
X7.2655Y-3.1919
X7.2655Y-4.4813
X7.2702Y-2.0255
X7.2702Y-3.3148
X7.2702Y-4.6042
X7.2707Y-1.7992
X7.2707Y-3.0886
X7.2707Y-4.3779
X7.2822Y-1.8692
X7.2822Y-3.1585
X7.2822Y-4.4479
X7.2822Y-1.8859
X7.2822Y-1.936
X7.2822Y-3.1752
X7.2822Y-3.2253
X7.2822Y-4.4646
X7.2822Y-4.5147
X7.2823Y-1.9026
X7.2823Y-3.192
X7.2823Y-4.4813
X7.2844Y-1.851
X7.2844Y-3.1403
X7.2844Y-4.4296
X7.2845Y-1.9836
X7.2845Y-3.2729
X7.2845Y-4.5622
X7.2861Y-2.0403
X7.2861Y-3.3296
X7.2861Y-4.6189
X7.2903Y-1.4342
X7.2903Y-2.7235
X7.2903Y-4.0129
X7.2989Y-1.936
X7.2989Y-3.2253
X7.2989Y-4.5146
X7.2989Y-1.9193
X7.2989Y-3.2086
X7.2989Y-4.498
X7.3067Y-1.8432
X7.3067Y-3.1325
X7.3067Y-4.4218
X7.3131Y-1.9554
X7.3131Y-3.2447
X7.3131Y-4.534
X7.3156Y-1.9026
X7.3156Y-1.9193
X7.3156Y-3.1919
X7.3156Y-3.2086
X7.3156Y-4.4813
X7.3156Y-4.498
X7.3165Y-2.035
X7.3165Y-3.3243
X7.3165Y-4.6136
X7.3209Y-1.8167
X7.3209Y-3.106
X7.3209Y-4.3954
X7.3273Y-1.9612
X7.3273Y-3.2505
X7.3273Y-4.5398
X7.3306Y-2.1204
X7.3306Y-3.4098
X7.3306Y-4.6991
X7.3324Y-1.9026
X7.3324Y-3.1919
X7.3324Y-4.4813
X7.342Y-1.8502
X7.342Y-3.1395
X7.342Y-4.4288
X7.3446Y-1.4384
X7.3446Y-2.0508
X7.3446Y-2.7277
X7.3446Y-3.3402
X7.3446Y-4.017
X7.3446Y-4.6295
X7.3585Y-1.8693
X7.3585Y-3.1586
X7.3585Y-4.448
X7.359Y-1.7624
X7.359Y-3.0518
X7.359Y-4.3411
X7.3657Y-2.0057
X7.3657Y-3.2951
X7.3657Y-4.5844
X7.3724Y-2.0787
X7.3724Y-3.368
X7.3724Y-4.6573
X7.3752Y-1.5191
X7.3752Y-2.8084
X7.3752Y-4.0978
X7.3835Y-1.6444
X7.3835Y-2.9337
X7.3835Y-4.223
X7.3933Y-1.7443
X7.3933Y-3.0337
X7.3933Y-4.323
X7.3997Y-1.7224
X7.3997Y-3.0117
X7.3997Y-4.301
X7.4002Y-1.4941
X7.4002Y-1.6054
X7.4002Y-1.9395
X7.4002Y-2.1065
X7.4002Y-2.7834
X7.4002Y-2.8947
X7.4002Y-3.2288
X7.4002Y-3.3958
X7.4002Y-4.0727
X7.4002Y-4.1841
X7.4002Y-4.5181
X7.4002Y-4.6852
X7.4158Y-2.0559
X7.4158Y-3.3452
X7.4158Y-4.6345
X7.425Y-1.8217
X7.425Y-3.1111
X7.425Y-4.4004
X7.4259Y-1.8487
X7.4259Y-3.1381
X7.4259Y-4.4274
X7.4281Y-1.9673
X7.4281Y-3.2567
X7.4281Y-4.546
X7.4328Y-2.114
X7.4328Y-3.4034
X7.4328Y-4.6927
X7.4559Y-1.5497
X7.4559Y-1.8838
X7.4559Y-1.9952
X7.4559Y-2.8391
X7.4559Y-3.1731
X7.4559Y-3.2845
X7.4559Y-4.1284
X7.4559Y-4.4625
X7.4559Y-4.5738
X7.4838Y-1.9117
X7.4838Y-2.023
X7.4838Y-3.201
X7.4838Y-3.3123
X7.4838Y-4.4903
X7.4838Y-4.6017
X7.4971Y-1.6945
X7.4971Y-2.9838
X7.4971Y-4.2732
X7.4994Y-1.6444
X7.4994Y-2.9337
X7.4994Y-4.223
X7.5116Y-1.9395
X7.5116Y-3.2288
X7.5116Y-4.5181
T2
X4.5432Y-1.7725
X4.5432Y-3.0618
X4.5432Y-4.3511
X5.8325Y-1.7725
X5.8325Y-3.0618
X5.8325Y-4.3511
X7.1219Y-1.7725
X7.1219Y-3.0618
X7.1219Y-4.3511
T3
X4.145Y-1.6978
X4.145Y-1.7421
X4.145Y-1.7864
X4.145Y-1.8307
X4.145Y-1.875
X4.145Y-2.9871
X4.145Y-3.0314
X4.145Y-3.0757
X4.145Y-3.12
X4.145Y-3.1643
X4.145Y-4.2764
X4.145Y-4.3207
X4.145Y-4.365
X4.145Y-4.4093
X4.145Y-4.4536
X4.4686Y-1.3743
X4.4686Y-2.6636
X4.4686Y-3.9529
X4.4686Y-2.1822
X4.4686Y-3.4715
X4.4686Y-4.7608
X4.5128Y-1.3743
X4.5128Y-2.6636
X4.5128Y-3.9529
X4.5128Y-2.1822
X4.5128Y-3.4715
X4.5128Y-4.7608
X4.5571Y-1.3743
X4.5571Y-2.6636
X4.5571Y-3.9529
X4.5571Y-2.1822
X4.5571Y-3.4715
X4.5571Y-4.7608
X4.6014Y-1.3743
X4.6014Y-2.6636
X4.6014Y-3.9529
X4.6014Y-2.1822
X4.6014Y-3.4715
X4.6014Y-4.7608
X4.6457Y-1.3743
X4.6457Y-2.6636
X4.6457Y-3.9529
X4.6457Y-2.1822
X4.6457Y-3.4715
X4.6457Y-4.7608
X4.9529Y-1.6978
X4.9529Y-1.7421
X4.9529Y-1.7864
X4.9529Y-1.8307
X4.9529Y-1.875
X4.9529Y-2.9871
X4.9529Y-3.0314
X4.9529Y-3.0757
X4.9529Y-3.12
X4.9529Y-3.1643
X4.9529Y-4.2764
X4.9529Y-4.3207
X4.9529Y-4.365
X4.9529Y-4.4093
X4.9529Y-4.4536
X5.4344Y-1.6978
X5.4344Y-1.7421
X5.4344Y-1.7864
X5.4344Y-1.8307
X5.4344Y-1.875
X5.4344Y-2.9871
X5.4344Y-3.0314
X5.4344Y-3.0757
X5.4344Y-3.12
X5.4344Y-3.1643
X5.4344Y-4.2764
X5.4344Y-4.3207
X5.4344Y-4.365
X5.4344Y-4.4093
X5.4344Y-4.4536
X5.7579Y-1.3743
X5.7579Y-2.6636
X5.7579Y-3.9529
X5.7579Y-2.1822
X5.7579Y-3.4715
X5.7579Y-4.7608
X5.8022Y-1.3743
X5.8022Y-2.6636
X5.8022Y-3.9529
X5.8022Y-2.1822
X5.8022Y-3.4715
X5.8022Y-4.7608
X5.8465Y-1.3743
X5.8465Y-2.6636
X5.8465Y-3.9529
X5.8465Y-2.1822
X5.8465Y-3.4715
X5.8465Y-4.7608
X5.8907Y-1.3743
X5.8907Y-2.6636
X5.8907Y-3.9529
X5.8907Y-2.1822
X5.8907Y-3.4715
X5.8907Y-4.7608
X5.935Y-1.3743
X5.935Y-2.6636
X5.935Y-3.9529
X5.935Y-2.1822
X5.935Y-3.4715
X5.935Y-4.7608
X6.2422Y-1.6978
X6.2422Y-1.7421
X6.2422Y-1.7864
X6.2422Y-1.8307
X6.2422Y-1.875
X6.2422Y-2.9871
X6.2422Y-3.0314
X6.2422Y-3.0757
X6.2422Y-3.12
X6.2422Y-3.1643
X6.2422Y-4.2764
X6.2422Y-4.3207
X6.2422Y-4.365
X6.2422Y-4.4093
X6.2422Y-4.4536
X6.7237Y-1.6978
X6.7237Y-1.7421
X6.7237Y-1.7864
X6.7237Y-1.8307
X6.7237Y-1.875
X6.7237Y-2.9871
X6.7237Y-3.0314
X6.7237Y-3.0757
X6.7237Y-3.12
X6.7237Y-3.1643
X6.7237Y-4.2764
X6.7237Y-4.3207
X6.7237Y-4.365
X6.7237Y-4.4093
X6.7237Y-4.4536
X7.0472Y-1.3743
X7.0472Y-2.6636
X7.0472Y-3.9529
X7.0472Y-2.1822
X7.0472Y-3.4715
X7.0472Y-4.7608
X7.0915Y-1.3743
X7.0915Y-2.6636
X7.0915Y-3.9529
X7.0915Y-2.1822
X7.0915Y-3.4715
X7.0915Y-4.7608
X7.1358Y-1.3743
X7.1358Y-2.6636
X7.1358Y-3.9529
X7.1358Y-2.1822
X7.1358Y-3.4715
X7.1358Y-4.7608
X7.1801Y-1.3743
X7.1801Y-2.6636
X7.1801Y-3.9529
X7.1801Y-2.1822
X7.1801Y-3.4715
X7.1801Y-4.7608
X7.2244Y-1.3743
X7.2244Y-2.6636
X7.2244Y-3.9529
X7.2244Y-2.1822
X7.2244Y-3.4715
X7.2244Y-4.7608
X7.5316Y-1.6978
X7.5316Y-1.7421
X7.5316Y-1.7864
X7.5316Y-1.8307
X7.5316Y-1.875
X7.5316Y-2.9871
X7.5316Y-3.0314
X7.5316Y-3.0757
X7.5316Y-3.12
X7.5316Y-3.1643
X7.5316Y-4.2764
X7.5316Y-4.3207
X7.5316Y-4.365
X7.5316Y-4.4093
X7.5316Y-4.4536
T4
X4.8261Y-1.7945
X4.8261Y-3.0838
X4.8261Y-4.3732
X4.8661Y-1.5945
X4.8661Y-2.8838
X4.8661Y-4.1732
X4.9061Y-1.7945
X4.9061Y-3.0838
X4.9061Y-4.3732
X6.1155Y-1.7945
X6.1155Y-3.0838
X6.1155Y-4.3732
X6.1555Y-1.5945
X6.1555Y-2.8838
X6.1555Y-4.1732
X6.1955Y-1.7945
X6.1955Y-3.0838
X6.1955Y-4.3732
X7.4048Y-1.7945
X7.4048Y-3.0838
X7.4048Y-4.3732
X7.4448Y-1.5945
X7.4448Y-2.8838
X7.4448Y-4.1732
X7.4848Y-1.7945
X7.4848Y-3.0838
X7.4848Y-4.3732
T5
X3.8534Y-0.9843
X3.8534Y-5.1671
X7.8395Y-0.9843
M30
