%TF.GenerationSoftware,KiCad,Pcbnew,9.0.0-rc2-3baa6cd791~182~ubuntu24.04.1*%
%TF.CreationDate,2025-01-31T11:47:19-05:00*%
%TF.ProjectId,PCA20073_nRF54L15_Tiny_Board,50434132-3030-4373-935f-6e524635344c,rev?*%
%TF.SameCoordinates,Original*%
%TF.FileFunction,Soldermask,Top*%
%TF.FilePolarity,Negative*%
%FSLAX45Y45*%
G04 Gerber Fmt 4.5, Leading zero omitted, Abs format (unit mm)*
G04 Created by KiCad (PCBNEW 9.0.0-rc2-3baa6cd791~182~ubuntu24.04.1) date 2025-01-31 11:47:19*
%MOMM*%
%LPD*%
G01*
G04 APERTURE LIST*
G04 Aperture macros list*
%AMRoundRect*
0 Rectangle with rounded corners*
0 $1 Rounding radius*
0 $2 $3 $4 $5 $6 $7 $8 $9 X,Y pos of 4 corners*
0 Add a 4 corners polygon primitive as box body*
4,1,4,$2,$3,$4,$5,$6,$7,$8,$9,$2,$3,0*
0 Add four circle primitives for the rounded corners*
1,1,$1+$1,$2,$3*
1,1,$1+$1,$4,$5*
1,1,$1+$1,$6,$7*
1,1,$1+$1,$8,$9*
0 Add four rect primitives between the rounded corners*
20,1,$1+$1,$2,$3,$4,$5,0*
20,1,$1+$1,$4,$5,$6,$7,0*
20,1,$1+$1,$6,$7,$8,$9,0*
20,1,$1+$1,$8,$9,$2,$3,0*%
%AMRotRect*
0 Rectangle, with rotation*
0 The origin of the aperture is its center*
0 $1 length*
0 $2 width*
0 $3 Rotation angle, in degrees counterclockwise*
0 Add horizontal line*
21,1,$1,$2,0,0,$3*%
%AMFreePoly0*
4,1,23,0.499999,-0.750000,0.000000,-0.750000,0.000000,-0.745722,-0.065263,-0.745722,-0.191342,-0.711940,-0.304381,-0.646677,-0.396677,-0.554382,-0.461940,-0.441342,-0.495722,-0.315263,-0.495722,-0.250000,-0.500000,-0.250000,-0.500000,0.250000,-0.495722,0.250000,-0.495722,0.315263,-0.461940,0.441342,-0.396677,0.554382,-0.304381,0.646677,-0.191342,0.711940,-0.065263,0.745722,0.000000,0.745722,
0.000000,0.750000,0.499999,0.750000,0.499999,-0.750000,0.499999,-0.750000,$1*%
%AMFreePoly1*
4,1,23,0.000000,0.745722,0.065263,0.745722,0.191342,0.711940,0.304381,0.646677,0.396677,0.554382,0.461940,0.441342,0.495722,0.315263,0.495722,0.250000,0.500000,0.250000,0.500000,-0.250000,0.495722,-0.250000,0.495722,-0.315263,0.461940,-0.441342,0.396677,-0.554382,0.304381,-0.646677,0.191342,-0.711940,0.065263,-0.745722,0.000000,-0.745722,0.000000,-0.750000,-0.499999,-0.750000,
-0.499999,0.750000,0.000000,0.750000,0.000000,0.745722,0.000000,0.745722,$1*%
G04 Aperture macros list end*
%ADD10C,0.990600*%
%ADD11C,0.787400*%
%ADD12RoundRect,0.100000X-0.162635X0.021213X0.021213X-0.162635X0.162635X-0.021213X-0.021213X0.162635X0*%
%ADD13C,0.500000*%
%ADD14RoundRect,0.100000X-0.100000X0.130000X-0.100000X-0.130000X0.100000X-0.130000X0.100000X0.130000X0*%
%ADD15RoundRect,0.100000X0.021213X0.162635X-0.162635X-0.021213X-0.021213X-0.162635X0.162635X0.021213X0*%
%ADD16RoundRect,0.100000X-0.130000X-0.100000X0.130000X-0.100000X0.130000X0.100000X-0.130000X0.100000X0*%
%ADD17RoundRect,0.135000X-0.226274X-0.035355X-0.035355X-0.226274X0.226274X0.035355X0.035355X0.226274X0*%
%ADD18RoundRect,0.100000X0.162635X-0.021213X-0.021213X0.162635X-0.162635X0.021213X0.021213X-0.162635X0*%
%ADD19RoundRect,0.100000X-0.021213X-0.162635X0.162635X0.021213X0.021213X0.162635X-0.162635X-0.021213X0*%
%ADD20RoundRect,0.135000X-0.035355X0.226274X-0.226274X0.035355X0.035355X-0.226274X0.226274X-0.035355X0*%
%ADD21C,0.200000*%
%ADD22RoundRect,0.140000X-0.021213X0.219203X-0.219203X0.021213X0.021213X-0.219203X0.219203X-0.021213X0*%
%ADD23RoundRect,0.075000X-0.282843X0.530330X-0.530330X0.282843X0.282843X-0.530330X0.530330X-0.282843X0*%
%ADD24RoundRect,0.150000X0.000000X0.494975X-0.494975X0.000000X0.000000X-0.494975X0.494975X0.000000X0*%
%ADD25C,1.500000*%
%ADD26RotRect,0.250000X0.400000X45.000000*%
%ADD27RotRect,0.700000X0.400000X45.000000*%
%ADD28C,1.000000*%
%ADD29RoundRect,0.100000X-0.229810X0.088388X0.088388X-0.229810X0.229810X-0.088388X-0.088388X0.229810X0*%
%ADD30RoundRect,0.147500X0.017678X-0.226274X0.226274X-0.017678X-0.017678X0.226274X-0.226274X0.017678X0*%
%ADD31RotRect,0.575000X1.114000X45.000000*%
%ADD32RoundRect,0.060000X-0.140000X-0.415000X0.140000X-0.415000X0.140000X0.415000X-0.140000X0.415000X0*%
%ADD33RoundRect,0.052500X-0.122500X1.097500X-0.122500X-1.097500X0.122500X-1.097500X0.122500X1.097500X0*%
%ADD34RoundRect,0.052500X0.597500X0.122500X-0.597500X0.122500X-0.597500X-0.122500X0.597500X-0.122500X0*%
%ADD35FreePoly0,45.000000*%
%ADD36FreePoly1,45.000000*%
%ADD37RoundRect,0.100000X0.130000X0.100000X-0.130000X0.100000X-0.130000X-0.100000X0.130000X-0.100000X0*%
%ADD38RoundRect,0.218750X0.026517X-0.335876X0.335876X-0.026517X-0.026517X0.335876X-0.335876X0.026517X0*%
%ADD39RoundRect,0.033000X0.132000X-0.162000X0.132000X0.162000X-0.132000X0.162000X-0.132000X-0.162000X0*%
%ADD40RoundRect,0.033000X0.162000X-0.132000X0.162000X0.132000X-0.162000X0.132000X-0.162000X-0.132000X0*%
%ADD41C,0.150000*%
%ADD42RotRect,1.050000X0.650000X45.000000*%
G04 APERTURE END LIST*
D10*
%TO.C,J1*%
X12360015Y-10599807D03*
X12461615Y-11107807D03*
X12258415Y-11107807D03*
D11*
X12296515Y-10726807D03*
X12423515Y-10726807D03*
X12296515Y-10853807D03*
X12423515Y-10853807D03*
X12296515Y-10980807D03*
X12423515Y-10980807D03*
%TD*%
D12*
%TO.C,C2*%
X11808033Y-5091338D03*
X11853288Y-5136593D03*
%TD*%
D13*
%TO.C,KiKit_MB_23_1*%
X17899874Y-6765551D03*
%TD*%
D12*
%TO.C,C12*%
X11857531Y-5041841D03*
X11902785Y-5087095D03*
%TD*%
D14*
%TO.C,C16*%
X17900014Y-3819511D03*
X17900014Y-3883511D03*
%TD*%
D12*
%TO.C,L2*%
X12118184Y-4963083D03*
X12163439Y-5008338D03*
%TD*%
D15*
%TO.C,C4*%
X14116730Y-11478182D03*
X14071475Y-11523437D03*
%TD*%
D12*
%TO.C,C2*%
X11808033Y-11641085D03*
X11853288Y-11686340D03*
%TD*%
D14*
%TO.C,C16*%
X11350266Y-7094385D03*
X11350266Y-7158385D03*
%TD*%
D16*
%TO.C,C20*%
X10728539Y-10855221D03*
X10792539Y-10855221D03*
%TD*%
D17*
%TO.C,R1*%
X14354318Y-7740861D03*
X14426443Y-7812985D03*
%TD*%
D12*
%TO.C,C2*%
X11808033Y-8366212D03*
X11853288Y-8411467D03*
%TD*%
D15*
%TO.C,C6*%
X15479325Y-8324224D03*
X15434070Y-8369479D03*
%TD*%
D18*
%TO.C,C1*%
X15128869Y-8214184D03*
X15083614Y-8168929D03*
%TD*%
D19*
%TO.C,FB1*%
X11757121Y-5036184D03*
X11802376Y-4990929D03*
%TD*%
D20*
%TO.C,JP3*%
X14489375Y-6912839D03*
X14417251Y-6984963D03*
%TD*%
D13*
%TO.C,KiKit_MB_13_1*%
X10528400Y-8037278D03*
%TD*%
D15*
%TO.C,C11*%
X15119676Y-11286118D03*
X15074422Y-11331373D03*
%TD*%
D21*
%TO.C,U1*%
X18539323Y-8234789D03*
X18518110Y-8213576D03*
X18496897Y-8192362D03*
X18475684Y-8171149D03*
X18454470Y-8149936D03*
X18433257Y-8128723D03*
X18412044Y-8107510D03*
X18560536Y-8213576D03*
X18518110Y-8171149D03*
X18496897Y-8149936D03*
X18475684Y-8128723D03*
X18454470Y-8107510D03*
X18433257Y-8086296D03*
X18560536Y-8171149D03*
X18539323Y-8149936D03*
X18518110Y-8128723D03*
X18496897Y-8107510D03*
X18475684Y-8086296D03*
X18454470Y-8065083D03*
X18602963Y-8171149D03*
X18581750Y-8149936D03*
X18560536Y-8128723D03*
X18539323Y-8107510D03*
X18518110Y-8086296D03*
X18496897Y-8065083D03*
X18475684Y-8043870D03*
X18624176Y-8149936D03*
X18602963Y-8128723D03*
X18581750Y-8107510D03*
X18560536Y-8086296D03*
X18539323Y-8065083D03*
X18518110Y-8043870D03*
X18496897Y-8022657D03*
X18645389Y-8128723D03*
X18624176Y-8107510D03*
X18602963Y-8086296D03*
X18581750Y-8065083D03*
X18560536Y-8043870D03*
X18539323Y-8022657D03*
X18518110Y-8001444D03*
X18666602Y-8107510D03*
X18645389Y-8086296D03*
X18624176Y-8065083D03*
X18602963Y-8043870D03*
X18581750Y-8022657D03*
X18560536Y-8001444D03*
X18539323Y-7980230D03*
%TD*%
D15*
%TO.C,C4*%
X17391604Y-4928435D03*
X17346349Y-4973690D03*
%TD*%
D12*
%TO.C,L3*%
X12245464Y-8365236D03*
X12290718Y-8410491D03*
%TD*%
%TO.C,R2*%
X17859002Y-11685364D03*
X17904256Y-11730619D03*
%TD*%
D22*
%TO.C,C10*%
X15043040Y-4673876D03*
X14975158Y-4741759D03*
%TD*%
D12*
%TO.C,L2*%
X12118184Y-8237957D03*
X12163439Y-8283211D03*
%TD*%
D15*
%TO.C,C9*%
X18881478Y-8451503D03*
X18836223Y-8496758D03*
%TD*%
D21*
%TO.C,U1*%
X11989576Y-8234789D03*
X11968362Y-8213576D03*
X11947149Y-8192362D03*
X11925936Y-8171149D03*
X11904723Y-8149936D03*
X11883510Y-8128723D03*
X11862296Y-8107510D03*
X12010789Y-8213576D03*
X11968362Y-8171149D03*
X11947149Y-8149936D03*
X11925936Y-8128723D03*
X11904723Y-8107510D03*
X11883510Y-8086296D03*
X12010789Y-8171149D03*
X11989576Y-8149936D03*
X11968362Y-8128723D03*
X11947149Y-8107510D03*
X11925936Y-8086296D03*
X11904723Y-8065083D03*
X12053215Y-8171149D03*
X12032002Y-8149936D03*
X12010789Y-8128723D03*
X11989576Y-8107510D03*
X11968362Y-8086296D03*
X11947149Y-8065083D03*
X11925936Y-8043870D03*
X12074429Y-8149936D03*
X12053215Y-8128723D03*
X12032002Y-8107510D03*
X12010789Y-8086296D03*
X11989576Y-8065083D03*
X11968362Y-8043870D03*
X11947149Y-8022657D03*
X12095642Y-8128723D03*
X12074429Y-8107510D03*
X12053215Y-8086296D03*
X12032002Y-8065083D03*
X12010789Y-8043870D03*
X11989576Y-8022657D03*
X11968362Y-8001444D03*
X12116855Y-8107510D03*
X12095642Y-8086296D03*
X12074429Y-8065083D03*
X12053215Y-8043870D03*
X12032002Y-8022657D03*
X12010789Y-8001444D03*
X11989576Y-7980230D03*
%TD*%
D13*
%TO.C,KiKit_MB_18_1*%
X15855305Y-7587278D03*
%TD*%
%TO.C,KiKit_MB_33_3*%
X17078148Y-11087152D03*
%TD*%
D12*
%TO.C,R3*%
X14633625Y-8360993D03*
X14678880Y-8406248D03*
%TD*%
D21*
%TO.C,U1*%
X18539323Y-11509663D03*
X18518110Y-11488449D03*
X18496897Y-11467236D03*
X18475684Y-11446023D03*
X18454470Y-11424810D03*
X18433257Y-11403596D03*
X18412044Y-11382383D03*
X18560536Y-11488449D03*
X18518110Y-11446023D03*
X18496897Y-11424810D03*
X18475684Y-11403596D03*
X18454470Y-11382383D03*
X18433257Y-11361170D03*
X18560536Y-11446023D03*
X18539323Y-11424810D03*
X18518110Y-11403596D03*
X18496897Y-11382383D03*
X18475684Y-11361170D03*
X18454470Y-11339957D03*
X18602963Y-11446023D03*
X18581750Y-11424810D03*
X18560536Y-11403596D03*
X18539323Y-11382383D03*
X18518110Y-11361170D03*
X18496897Y-11339957D03*
X18475684Y-11318744D03*
X18624176Y-11424810D03*
X18602963Y-11403596D03*
X18581750Y-11382383D03*
X18560536Y-11361170D03*
X18539323Y-11339957D03*
X18518110Y-11318744D03*
X18496897Y-11297530D03*
X18645389Y-11403596D03*
X18624176Y-11382383D03*
X18602963Y-11361170D03*
X18581750Y-11339957D03*
X18560536Y-11318744D03*
X18539323Y-11297530D03*
X18518110Y-11276317D03*
X18666602Y-11382383D03*
X18645389Y-11361170D03*
X18624176Y-11339957D03*
X18602963Y-11318744D03*
X18581750Y-11297530D03*
X18560536Y-11276317D03*
X18539323Y-11255104D03*
%TD*%
D12*
%TO.C,L4*%
X18922490Y-5217642D03*
X18967745Y-5262896D03*
%TD*%
D13*
%TO.C,KiKit_MB_34_1*%
X19130179Y-10862152D03*
%TD*%
D23*
%TO.C,AE1*%
X19109874Y-8849604D03*
D24*
X19000272Y-8959206D03*
%TD*%
D13*
%TO.C,KiKit_MB_36_4*%
X18012374Y-12092457D03*
%TD*%
D19*
%TO.C,FB1*%
X11757121Y-8311057D03*
X11802376Y-8265803D03*
%TD*%
D15*
%TO.C,C6*%
X18754199Y-11599097D03*
X18708944Y-11644352D03*
%TD*%
D13*
%TO.C,KiKit_MB_27_5*%
X11800126Y-10040427D03*
%TD*%
D18*
%TO.C,C8*%
X12140871Y-8022937D03*
X12095616Y-7977682D03*
%TD*%
D25*
%TO.C,KiKit_TO_2*%
X19912279Y-2500000D03*
%TD*%
D13*
%TO.C,KiKit_MB_25_3*%
X10528400Y-11087152D03*
%TD*%
D12*
%TO.C,L4*%
X15647616Y-5217642D03*
X15692871Y-5262896D03*
%TD*%
%TO.C,R3*%
X11358752Y-5086120D03*
X11404006Y-5131374D03*
%TD*%
D13*
%TO.C,KiKit_MB_9_1*%
X17078148Y-4762405D03*
%TD*%
%TO.C,KiKit_MB_25_1*%
X10528400Y-11312152D03*
%TD*%
D26*
%TO.C,Q1*%
X17592776Y-4624025D03*
X17624596Y-4592206D03*
D27*
X17559188Y-4558618D03*
%TD*%
D13*
%TO.C,KiKit_MB_11_1*%
X17899874Y-3490678D03*
%TD*%
D28*
%TO.C,TP1*%
X15168198Y-10698243D03*
%TD*%
D13*
%TO.C,KiKit_MB_5_3*%
X13803274Y-4537405D03*
%TD*%
D19*
%TO.C,FB1*%
X18306869Y-8311057D03*
X18352124Y-8265803D03*
%TD*%
D29*
%TO.C,U2*%
X10917517Y-8278969D03*
X10871555Y-8324931D03*
X10825593Y-8370893D03*
X10959943Y-8505243D03*
X11005905Y-8459281D03*
X11051867Y-8413319D03*
%TD*%
D12*
%TO.C,C2*%
X18357781Y-5091338D03*
X18403035Y-5136593D03*
%TD*%
D13*
%TO.C,KiKit_MB_17_4*%
X13803274Y-7699778D03*
%TD*%
%TO.C,KiKit_MB_4_2*%
X11687626Y-5542710D03*
%TD*%
%TO.C,KiKit_MB_14_1*%
X12580431Y-7587278D03*
%TD*%
D18*
%TO.C,C1*%
X11853995Y-8214184D03*
X11808740Y-8168929D03*
%TD*%
D19*
%TO.C,FB1*%
X15031995Y-11585931D03*
X15077250Y-11540676D03*
%TD*%
D26*
%TO.C,Q1*%
X14317902Y-4624025D03*
X14349722Y-4592206D03*
D27*
X14284315Y-4558618D03*
%TD*%
D13*
%TO.C,KiKit_MB_16_5*%
X11350126Y-8817583D03*
%TD*%
%TO.C,KiKit_MB_1_5*%
X10528400Y-4312405D03*
%TD*%
D12*
%TO.C,L2*%
X15393058Y-4963083D03*
X15438313Y-5008338D03*
%TD*%
D30*
%TO.C,L1*%
X18223077Y-11459005D03*
X18291666Y-11390416D03*
%TD*%
D31*
%TO.C,Y1*%
X11859523Y-7903282D03*
X11917860Y-7844945D03*
%TD*%
D16*
%TO.C,C20*%
X17278287Y-4305474D03*
X17342287Y-4305474D03*
%TD*%
D13*
%TO.C,KiKit_MB_34_4*%
X19130179Y-11199652D03*
%TD*%
D18*
%TO.C,C8*%
X18690619Y-4748063D03*
X18645364Y-4702808D03*
%TD*%
D13*
%TO.C,KiKit_MB_3_1*%
X11350126Y-3490678D03*
%TD*%
D18*
%TO.C,L18*%
X12374864Y-5414924D03*
X12329609Y-5369669D03*
%TD*%
D16*
%TO.C,C20*%
X10728539Y-7580347D03*
X10792539Y-7580347D03*
%TD*%
D15*
%TO.C,C11*%
X11844803Y-11286118D03*
X11799548Y-11331373D03*
%TD*%
D13*
%TO.C,KiKit_MB_2_4*%
X12580431Y-4649905D03*
%TD*%
D17*
%TO.C,R1*%
X11079445Y-11015734D03*
X11151569Y-11087859D03*
%TD*%
D31*
%TO.C,Y1*%
X11859523Y-4628408D03*
X11917860Y-4570072D03*
%TD*%
D13*
%TO.C,KiKit_MB_35_5*%
X18349874Y-10040427D03*
%TD*%
D32*
%TO.C,MK1*%
X13988443Y-11051624D03*
X13988443Y-11186624D03*
X14078443Y-11186624D03*
X14078443Y-11051624D03*
D33*
X13910943Y-11119124D03*
D34*
X14033443Y-10946624D03*
X14033443Y-11291624D03*
D33*
X14155943Y-11119124D03*
%TD*%
D13*
%TO.C,KiKit_MB_23_3*%
X18124874Y-6765552D03*
%TD*%
D28*
%TO.C,TP1*%
X11893324Y-10698243D03*
%TD*%
D18*
%TO.C,C8*%
X12140871Y-11297810D03*
X12095616Y-11252556D03*
%TD*%
D13*
%TO.C,KiKit_MB_32_2*%
X14962500Y-12092457D03*
%TD*%
D35*
%TO.C,JP1*%
X17180886Y-8699698D03*
D36*
X17272810Y-8607774D03*
%TD*%
D29*
%TO.C,U2*%
X14192391Y-5004095D03*
X14146429Y-5050057D03*
X14100467Y-5096019D03*
X14234817Y-5230369D03*
X14280779Y-5184407D03*
X14326741Y-5138446D03*
%TD*%
D37*
%TO.C,C17*%
X14725729Y-6897989D03*
X14661729Y-6897989D03*
%TD*%
D38*
%TO.C,D1*%
X14405407Y-10753928D03*
X14516776Y-10642559D03*
%TD*%
D18*
%TO.C,C1*%
X15128869Y-4939310D03*
X15083614Y-4894055D03*
%TD*%
D19*
%TO.C,C3*%
X14306235Y-5300373D03*
X14351490Y-5255118D03*
%TD*%
D20*
%TO.C,JP3*%
X11214502Y-6912839D03*
X11142377Y-6984963D03*
%TD*%
D13*
%TO.C,KiKit_MB_2_5*%
X12580431Y-4762405D03*
%TD*%
%TO.C,KiKit_MB_22_3*%
X19130179Y-7812278D03*
%TD*%
D15*
%TO.C,L6*%
X15747318Y-8592217D03*
X15702064Y-8637472D03*
%TD*%
D26*
%TO.C,Q1*%
X11043029Y-7898899D03*
X11074848Y-7867079D03*
D27*
X11009441Y-7833492D03*
%TD*%
D32*
%TO.C,MK1*%
X13988443Y-4501876D03*
X13988443Y-4636876D03*
X14078443Y-4636876D03*
X14078443Y-4501876D03*
D33*
X13910943Y-4569376D03*
D34*
X14033443Y-4396876D03*
X14033443Y-4741876D03*
D33*
X14155943Y-4569376D03*
%TD*%
D13*
%TO.C,KiKit_MB_13_2*%
X10528400Y-7924778D03*
%TD*%
%TO.C,KiKit_MB_25_4*%
X10528400Y-10974652D03*
%TD*%
D12*
%TO.C,C5*%
X18457483Y-8267924D03*
X18502738Y-8313179D03*
%TD*%
D13*
%TO.C,KiKit_MB_32_4*%
X14737500Y-12092457D03*
%TD*%
D22*
%TO.C,C10*%
X11768166Y-7948750D03*
X11700284Y-8016632D03*
%TD*%
D15*
%TO.C,L7*%
X15598119Y-12016290D03*
X15552864Y-12061545D03*
%TD*%
D20*
%TO.C,JP2*%
X14555844Y-3704433D03*
X14483719Y-3776558D03*
%TD*%
D18*
%TO.C,C8*%
X15415745Y-11297810D03*
X15370490Y-11252556D03*
%TD*%
D39*
%TO.C,U3*%
X14739645Y-3880943D03*
X14789645Y-3880943D03*
X14839645Y-3880943D03*
X14889645Y-3880943D03*
D40*
X14906085Y-3819943D03*
X14906085Y-3769943D03*
D39*
X14889645Y-3708943D03*
X14839645Y-3708943D03*
X14789645Y-3708943D03*
X14739645Y-3708943D03*
D40*
X14723205Y-3769943D03*
X14723205Y-3819943D03*
%TD*%
D15*
%TO.C,L7*%
X18872993Y-5466543D03*
X18827738Y-5511798D03*
%TD*%
D14*
%TO.C,C16*%
X11350266Y-3819511D03*
X11350266Y-3883511D03*
%TD*%
D12*
%TO.C,L2*%
X15393058Y-11512830D03*
X15438313Y-11558085D03*
%TD*%
D15*
%TO.C,C11*%
X15119676Y-4736371D03*
X15074422Y-4781625D03*
%TD*%
D18*
%TO.C,C8*%
X15415745Y-4748063D03*
X15370490Y-4702808D03*
%TD*%
D12*
%TO.C,C5*%
X15182609Y-11542798D03*
X15227864Y-11588052D03*
%TD*%
D18*
%TO.C,C1*%
X18403743Y-4939310D03*
X18358488Y-4894055D03*
%TD*%
D14*
%TO.C,C16*%
X11350266Y-10369259D03*
X11350266Y-10433259D03*
%TD*%
D20*
%TO.C,JP3*%
X11214502Y-10187712D03*
X11142377Y-10259837D03*
%TD*%
%TO.C,JP2*%
X11280970Y-6979307D03*
X11208845Y-7051431D03*
%TD*%
D15*
%TO.C,L6*%
X19022192Y-11867091D03*
X18976937Y-11912346D03*
%TD*%
D13*
%TO.C,KiKit_MB_9_4*%
X17078148Y-4424905D03*
%TD*%
D18*
%TO.C,C8*%
X12140871Y-4748063D03*
X12095616Y-4702808D03*
%TD*%
D13*
%TO.C,KiKit_MB_1_2*%
X10528400Y-4649905D03*
%TD*%
%TO.C,KiKit_MB_3_4*%
X11687626Y-3490679D03*
%TD*%
D21*
%TO.C,U1*%
X11989576Y-11509663D03*
X11968362Y-11488449D03*
X11947149Y-11467236D03*
X11925936Y-11446023D03*
X11904723Y-11424810D03*
X11883510Y-11403596D03*
X11862296Y-11382383D03*
X12010789Y-11488449D03*
X11968362Y-11446023D03*
X11947149Y-11424810D03*
X11925936Y-11403596D03*
X11904723Y-11382383D03*
X11883510Y-11361170D03*
X12010789Y-11446023D03*
X11989576Y-11424810D03*
X11968362Y-11403596D03*
X11947149Y-11382383D03*
X11925936Y-11361170D03*
X11904723Y-11339957D03*
X12053215Y-11446023D03*
X12032002Y-11424810D03*
X12010789Y-11403596D03*
X11989576Y-11382383D03*
X11968362Y-11361170D03*
X11947149Y-11339957D03*
X11925936Y-11318744D03*
X12074429Y-11424810D03*
X12053215Y-11403596D03*
X12032002Y-11382383D03*
X12010789Y-11361170D03*
X11989576Y-11339957D03*
X11968362Y-11318744D03*
X11947149Y-11297530D03*
X12095642Y-11403596D03*
X12074429Y-11382383D03*
X12053215Y-11361170D03*
X12032002Y-11339957D03*
X12010789Y-11318744D03*
X11989576Y-11297530D03*
X11968362Y-11276317D03*
X12116855Y-11382383D03*
X12095642Y-11361170D03*
X12074429Y-11339957D03*
X12053215Y-11318744D03*
X12032002Y-11297530D03*
X12010789Y-11276317D03*
X11989576Y-11255104D03*
%TD*%
D12*
%TO.C,L2*%
X18667932Y-11512830D03*
X18713187Y-11558085D03*
%TD*%
D13*
%TO.C,KiKit_MB_19_2*%
X14737500Y-6765552D03*
%TD*%
%TO.C,KiKit_MB_32_3*%
X14850000Y-12092457D03*
%TD*%
D17*
%TO.C,R1*%
X11079445Y-4465987D03*
X11151569Y-4538112D03*
%TD*%
D12*
%TO.C,L4*%
X15647616Y-11767389D03*
X15692871Y-11812644D03*
%TD*%
D13*
%TO.C,KiKit_MB_16_1*%
X11800126Y-8817583D03*
%TD*%
D37*
%TO.C,C17*%
X11450856Y-3623116D03*
X11386856Y-3623116D03*
%TD*%
D22*
%TO.C,C10*%
X15043040Y-11223624D03*
X14975158Y-11291506D03*
%TD*%
D12*
%TO.C,L3*%
X15520337Y-11640110D03*
X15565592Y-11685364D03*
%TD*%
D30*
%TO.C,L1*%
X11673329Y-4909258D03*
X11741919Y-4840669D03*
%TD*%
D12*
%TO.C,C5*%
X15182609Y-8267924D03*
X15227864Y-8313179D03*
%TD*%
D13*
%TO.C,KiKit_MB_10_4*%
X19130179Y-4649905D03*
%TD*%
D28*
%TO.C,TP1*%
X15168198Y-7423370D03*
%TD*%
D15*
%TO.C,C4*%
X10841857Y-8203308D03*
X10796602Y-8248563D03*
%TD*%
D10*
%TO.C,J1*%
X18909762Y-7324933D03*
X19011362Y-7832933D03*
X18808162Y-7832933D03*
D11*
X18846262Y-7451933D03*
X18973262Y-7451933D03*
X18846262Y-7578933D03*
X18973262Y-7578933D03*
X18846262Y-7705933D03*
X18973262Y-7705933D03*
%TD*%
D28*
%TO.C,TP2*%
X12034746Y-7281948D03*
%TD*%
D13*
%TO.C,KiKit_MB_7_3*%
X14850000Y-3490679D03*
%TD*%
%TO.C,KiKit_MB_33_2*%
X17078148Y-11199652D03*
%TD*%
%TO.C,KiKit_MB_24_2*%
X18237374Y-8817583D03*
%TD*%
D18*
%TO.C,L18*%
X18924612Y-8689798D03*
X18879357Y-8644543D03*
%TD*%
D19*
%TO.C,FB1*%
X15031995Y-8311057D03*
X15077250Y-8265803D03*
%TD*%
D17*
%TO.C,R1*%
X14354318Y-11015734D03*
X14426443Y-11087859D03*
%TD*%
D22*
%TO.C,C10*%
X18317914Y-7948750D03*
X18250032Y-8016632D03*
%TD*%
D13*
%TO.C,KiKit_MB_9_3*%
X17078148Y-4537405D03*
%TD*%
%TO.C,KiKit_MB_22_1*%
X19130179Y-7587278D03*
%TD*%
D15*
%TO.C,C6*%
X12204451Y-5049350D03*
X12159197Y-5094605D03*
%TD*%
D12*
%TO.C,C5*%
X18457483Y-4993050D03*
X18502738Y-5038305D03*
%TD*%
D39*
%TO.C,U3*%
X18014518Y-3880943D03*
X18064518Y-3880943D03*
X18114518Y-3880943D03*
X18164518Y-3880943D03*
D40*
X18180958Y-3819943D03*
X18180958Y-3769943D03*
D39*
X18164518Y-3708943D03*
X18114518Y-3708943D03*
X18064518Y-3708943D03*
X18014518Y-3708943D03*
D40*
X17998078Y-3769943D03*
X17998078Y-3819943D03*
%TD*%
D13*
%TO.C,KiKit_MB_21_1*%
X17078148Y-8037278D03*
%TD*%
D22*
%TO.C,C10*%
X18317914Y-11223624D03*
X18250032Y-11291506D03*
%TD*%
D13*
%TO.C,KiKit_MB_35_1*%
X17899874Y-10040425D03*
%TD*%
%TO.C,KiKit_MB_15_5*%
X11800126Y-6765554D03*
%TD*%
D15*
%TO.C,C6*%
X12204451Y-11599097D03*
X12159197Y-11644352D03*
%TD*%
D13*
%TO.C,KiKit_MB_33_4*%
X17078148Y-10974652D03*
%TD*%
%TO.C,KiKit_MB_31_3*%
X14850000Y-10040426D03*
%TD*%
%TO.C,KiKit_MB_20_5*%
X14625000Y-8817583D03*
%TD*%
D18*
%TO.C,C1*%
X11853995Y-4939310D03*
X11808740Y-4894055D03*
%TD*%
D12*
%TO.C,C12*%
X11857531Y-11591588D03*
X11902785Y-11636843D03*
%TD*%
D20*
%TO.C,R4*%
X17587473Y-8041381D03*
X17515348Y-8113506D03*
%TD*%
%TO.C,JP3*%
X17764249Y-3637965D03*
X17692124Y-3710090D03*
%TD*%
D29*
%TO.C,U2*%
X17467264Y-8278969D03*
X17421303Y-8324931D03*
X17375341Y-8370893D03*
X17509691Y-8505243D03*
X17555653Y-8459281D03*
X17601615Y-8413319D03*
%TD*%
D15*
%TO.C,C9*%
X12331731Y-11726377D03*
X12286476Y-11771631D03*
%TD*%
D28*
%TO.C,TP1*%
X18443072Y-4148496D03*
%TD*%
%TO.C,TP2*%
X18584493Y-10556822D03*
%TD*%
D35*
%TO.C,JP1*%
X13906012Y-8699698D03*
D36*
X13997936Y-8607774D03*
%TD*%
D19*
%TO.C,C3*%
X11031361Y-5300373D03*
X11076616Y-5255118D03*
%TD*%
D16*
%TO.C,C15*%
X18084389Y-10173570D03*
X18148389Y-10173570D03*
%TD*%
D13*
%TO.C,KiKit_MB_2_3*%
X12580431Y-4537405D03*
%TD*%
D12*
%TO.C,L2*%
X15393058Y-8237957D03*
X15438313Y-8283211D03*
%TD*%
D13*
%TO.C,KiKit_MB_25_2*%
X10528400Y-11199652D03*
%TD*%
D14*
%TO.C,C16*%
X14625140Y-10369259D03*
X14625140Y-10433259D03*
%TD*%
D13*
%TO.C,KiKit_MB_26_2*%
X12580431Y-10974652D03*
%TD*%
%TO.C,KiKit_MB_12_3*%
X18124874Y-5542710D03*
%TD*%
D20*
%TO.C,JP2*%
X11280970Y-3704433D03*
X11208845Y-3776558D03*
%TD*%
D12*
%TO.C,R3*%
X17908499Y-5086120D03*
X17953754Y-5131374D03*
%TD*%
D13*
%TO.C,KiKit_MB_26_5*%
X12580431Y-11312152D03*
%TD*%
D12*
%TO.C,L3*%
X15520337Y-8365236D03*
X15565592Y-8410491D03*
%TD*%
%TO.C,C5*%
X11907735Y-4993050D03*
X11952990Y-5038305D03*
%TD*%
D13*
%TO.C,KiKit_MB_19_4*%
X14962500Y-6765553D03*
%TD*%
D12*
%TO.C,L3*%
X18795211Y-5090362D03*
X18840466Y-5135617D03*
%TD*%
D13*
%TO.C,KiKit_MB_7_1*%
X14625000Y-3490678D03*
%TD*%
%TO.C,KiKit_MB_20_4*%
X14737500Y-8817583D03*
%TD*%
D12*
%TO.C,R3*%
X11358752Y-8360993D03*
X11404006Y-8406248D03*
%TD*%
D15*
%TO.C,L7*%
X12323245Y-8741417D03*
X12277990Y-8786672D03*
%TD*%
D13*
%TO.C,KiKit_MB_1_1*%
X10528400Y-4762405D03*
%TD*%
D41*
%TO.C,Y2*%
X15275947Y-5118208D03*
X15258269Y-5135886D03*
X15240592Y-5118208D03*
X15258269Y-5100530D03*
%TD*%
D37*
%TO.C,C17*%
X18000603Y-10172863D03*
X17936603Y-10172863D03*
%TD*%
D12*
%TO.C,C2*%
X15082907Y-11641085D03*
X15128162Y-11686340D03*
%TD*%
D28*
%TO.C,TP2*%
X15309619Y-4007075D03*
%TD*%
D13*
%TO.C,KiKit_MB_29_2*%
X13803274Y-11199652D03*
%TD*%
D15*
%TO.C,L7*%
X18872993Y-8741417D03*
X18827738Y-8786672D03*
%TD*%
D13*
%TO.C,KiKit_MB_10_3*%
X19130179Y-4537405D03*
%TD*%
D20*
%TO.C,JP2*%
X14555844Y-6979307D03*
X14483719Y-7051431D03*
%TD*%
D35*
%TO.C,JP1*%
X10631139Y-8699698D03*
D36*
X10723063Y-8607774D03*
%TD*%
D16*
%TO.C,C15*%
X14809515Y-6898696D03*
X14873515Y-6898696D03*
%TD*%
D28*
%TO.C,TP2*%
X18584493Y-4007075D03*
%TD*%
D13*
%TO.C,KiKit_MB_33_5*%
X17078148Y-10862152D03*
%TD*%
%TO.C,KiKit_MB_11_4*%
X18237374Y-3490679D03*
%TD*%
D20*
%TO.C,JP3*%
X14489375Y-3637965D03*
X14417251Y-3710090D03*
%TD*%
D26*
%TO.C,Q1*%
X11043029Y-4624025D03*
X11074848Y-4592206D03*
D27*
X11009441Y-4558618D03*
%TD*%
D32*
%TO.C,MK1*%
X13988443Y-7776750D03*
X13988443Y-7911750D03*
X14078443Y-7911750D03*
X14078443Y-7776750D03*
D33*
X13910943Y-7844250D03*
D34*
X14033443Y-7671750D03*
X14033443Y-8016750D03*
D33*
X14155943Y-7844250D03*
%TD*%
D13*
%TO.C,KiKit_MB_30_5*%
X15855305Y-11312152D03*
%TD*%
D12*
%TO.C,C12*%
X15132404Y-11591588D03*
X15177659Y-11636843D03*
%TD*%
D15*
%TO.C,L6*%
X12472445Y-5317344D03*
X12427190Y-5362598D03*
%TD*%
D41*
%TO.C,Y2*%
X12001073Y-8393082D03*
X11983396Y-8410760D03*
X11965718Y-8393082D03*
X11983396Y-8375404D03*
%TD*%
D13*
%TO.C,KiKit_MB_27_4*%
X11687626Y-10040427D03*
%TD*%
D12*
%TO.C,C2*%
X15082907Y-5091338D03*
X15128162Y-5136593D03*
%TD*%
D18*
%TO.C,C8*%
X18690619Y-11297810D03*
X18645364Y-11252556D03*
%TD*%
D42*
%TO.C,SW1*%
X14591906Y-11122508D03*
X14885355Y-10829058D03*
X14743934Y-11274535D03*
X15035616Y-10982854D03*
%TD*%
D23*
%TO.C,AE1*%
X19109874Y-5574730D03*
D24*
X19000272Y-5684332D03*
%TD*%
D22*
%TO.C,C10*%
X18317914Y-4673876D03*
X18250032Y-4741759D03*
%TD*%
D13*
%TO.C,KiKit_MB_4_5*%
X11350126Y-5542710D03*
%TD*%
D31*
%TO.C,Y1*%
X15134397Y-4628408D03*
X15192733Y-4570072D03*
%TD*%
D13*
%TO.C,KiKit_MB_5_2*%
X13803274Y-4649905D03*
%TD*%
%TO.C,KiKit_MB_28_2*%
X11687626Y-12092457D03*
%TD*%
D12*
%TO.C,L3*%
X12245464Y-11640110D03*
X12290718Y-11685364D03*
%TD*%
%TO.C,L2*%
X18667932Y-8237957D03*
X18713187Y-8283211D03*
%TD*%
D21*
%TO.C,U1*%
X11989576Y-4959915D03*
X11968362Y-4938702D03*
X11947149Y-4917489D03*
X11925936Y-4896276D03*
X11904723Y-4875062D03*
X11883510Y-4853849D03*
X11862296Y-4832636D03*
X12010789Y-4938702D03*
X11968362Y-4896276D03*
X11947149Y-4875062D03*
X11925936Y-4853849D03*
X11904723Y-4832636D03*
X11883510Y-4811423D03*
X12010789Y-4896276D03*
X11989576Y-4875062D03*
X11968362Y-4853849D03*
X11947149Y-4832636D03*
X11925936Y-4811423D03*
X11904723Y-4790210D03*
X12053215Y-4896276D03*
X12032002Y-4875062D03*
X12010789Y-4853849D03*
X11989576Y-4832636D03*
X11968362Y-4811423D03*
X11947149Y-4790210D03*
X11925936Y-4768996D03*
X12074429Y-4875062D03*
X12053215Y-4853849D03*
X12032002Y-4832636D03*
X12010789Y-4811423D03*
X11989576Y-4790210D03*
X11968362Y-4768996D03*
X11947149Y-4747783D03*
X12095642Y-4853849D03*
X12074429Y-4832636D03*
X12053215Y-4811423D03*
X12032002Y-4790210D03*
X12010789Y-4768996D03*
X11989576Y-4747783D03*
X11968362Y-4726570D03*
X12116855Y-4832636D03*
X12095642Y-4811423D03*
X12074429Y-4790210D03*
X12053215Y-4768996D03*
X12032002Y-4747783D03*
X12010789Y-4726570D03*
X11989576Y-4705357D03*
%TD*%
D17*
%TO.C,R1*%
X14354318Y-4465987D03*
X14426443Y-4538112D03*
%TD*%
D13*
%TO.C,KiKit_MB_30_3*%
X15855305Y-11087152D03*
%TD*%
%TO.C,KiKit_MB_24_5*%
X17899874Y-8817583D03*
%TD*%
D12*
%TO.C,R3*%
X14633625Y-11635867D03*
X14678880Y-11681122D03*
%TD*%
D26*
%TO.C,Q1*%
X17592776Y-11173773D03*
X17624596Y-11141953D03*
D27*
X17559188Y-11108365D03*
%TD*%
D19*
%TO.C,C3*%
X17581109Y-5300373D03*
X17626364Y-5255118D03*
%TD*%
D13*
%TO.C,KiKit_MB_11_3*%
X18124874Y-3490679D03*
%TD*%
D29*
%TO.C,U2*%
X10917517Y-5004095D03*
X10871555Y-5050057D03*
X10825593Y-5096019D03*
X10959943Y-5230369D03*
X11005905Y-5184407D03*
X11051867Y-5138446D03*
%TD*%
D13*
%TO.C,KiKit_MB_29_5*%
X13803274Y-10862152D03*
%TD*%
D16*
%TO.C,C20*%
X10728539Y-4305474D03*
X10792539Y-4305474D03*
%TD*%
D12*
%TO.C,L2*%
X18667932Y-4963083D03*
X18713187Y-5008338D03*
%TD*%
D19*
%TO.C,FB1*%
X18306869Y-5036184D03*
X18352124Y-4990929D03*
%TD*%
D13*
%TO.C,KiKit_MB_22_5*%
X19130179Y-8037278D03*
%TD*%
D16*
%TO.C,C15*%
X18084389Y-3623823D03*
X18148389Y-3623823D03*
%TD*%
D41*
%TO.C,Y2*%
X12001073Y-5118208D03*
X11983396Y-5135886D03*
X11965718Y-5118208D03*
X11983396Y-5100530D03*
%TD*%
D12*
%TO.C,C12*%
X18407278Y-11591588D03*
X18452533Y-11636843D03*
%TD*%
D13*
%TO.C,KiKit_MB_8_5*%
X14625000Y-5542710D03*
%TD*%
%TO.C,KiKit_MB_18_2*%
X15855305Y-7699778D03*
%TD*%
%TO.C,KiKit_MB_29_1*%
X13803274Y-11312152D03*
%TD*%
D17*
%TO.C,R1*%
X17629192Y-4465987D03*
X17701317Y-4538112D03*
%TD*%
D13*
%TO.C,KiKit_MB_18_4*%
X15855305Y-7924778D03*
%TD*%
%TO.C,KiKit_MB_35_4*%
X18237374Y-10040427D03*
%TD*%
%TO.C,KiKit_MB_10_2*%
X19130179Y-4424905D03*
%TD*%
D12*
%TO.C,R3*%
X17908499Y-11635867D03*
X17953754Y-11681122D03*
%TD*%
%TO.C,C2*%
X15082907Y-8366212D03*
X15128162Y-8411467D03*
%TD*%
D15*
%TO.C,C4*%
X17391604Y-8203308D03*
X17346349Y-8248563D03*
%TD*%
D13*
%TO.C,KiKit_MB_13_3*%
X10528400Y-7812278D03*
%TD*%
D30*
%TO.C,L1*%
X14948203Y-8184132D03*
X15016792Y-8115542D03*
%TD*%
D13*
%TO.C,KiKit_MB_10_5*%
X19130179Y-4762405D03*
%TD*%
D42*
%TO.C,SW1*%
X17866780Y-11122508D03*
X18160229Y-10829058D03*
X18018808Y-11274535D03*
X18310489Y-10982854D03*
%TD*%
D13*
%TO.C,KiKit_MB_21_4*%
X17078148Y-7699778D03*
%TD*%
%TO.C,KiKit_MB_21_5*%
X17078148Y-7587278D03*
%TD*%
D12*
%TO.C,R2*%
X14584128Y-5135617D03*
X14629383Y-5180872D03*
%TD*%
D42*
%TO.C,SW1*%
X14591906Y-7847634D03*
X14885355Y-7554184D03*
X14743934Y-7999662D03*
X15035616Y-7707980D03*
%TD*%
D38*
%TO.C,D1*%
X11130533Y-10753928D03*
X11241902Y-10642559D03*
%TD*%
D16*
%TO.C,C20*%
X14003413Y-7580347D03*
X14067413Y-7580347D03*
%TD*%
D18*
%TO.C,L18*%
X15649738Y-5414924D03*
X15604483Y-5369669D03*
%TD*%
D19*
%TO.C,C3*%
X17581109Y-11850120D03*
X17626364Y-11804865D03*
%TD*%
D35*
%TO.C,JP1*%
X10631139Y-11974571D03*
D36*
X10723063Y-11882647D03*
%TD*%
D13*
%TO.C,KiKit_MB_27_1*%
X11350126Y-10040425D03*
%TD*%
D19*
%TO.C,FB1*%
X18306869Y-11585931D03*
X18352124Y-11540676D03*
%TD*%
D39*
%TO.C,U3*%
X18014518Y-7155816D03*
X18064518Y-7155816D03*
X18114518Y-7155816D03*
X18164518Y-7155816D03*
D40*
X18180958Y-7094816D03*
X18180958Y-7044816D03*
D39*
X18164518Y-6983816D03*
X18114518Y-6983816D03*
X18064518Y-6983816D03*
X18014518Y-6983816D03*
D40*
X17998078Y-7044816D03*
X17998078Y-7094816D03*
%TD*%
D13*
%TO.C,KiKit_MB_14_5*%
X12580431Y-8037278D03*
%TD*%
D41*
%TO.C,Y2*%
X15275947Y-8393082D03*
X15258269Y-8410760D03*
X15240592Y-8393082D03*
X15258269Y-8375404D03*
%TD*%
D13*
%TO.C,KiKit_MB_14_3*%
X12580431Y-7812278D03*
%TD*%
%TO.C,KiKit_MB_8_1*%
X15075000Y-5542710D03*
%TD*%
D22*
%TO.C,C10*%
X11768166Y-11223624D03*
X11700284Y-11291506D03*
%TD*%
D13*
%TO.C,KiKit_MB_31_2*%
X14737500Y-10040426D03*
%TD*%
%TO.C,KiKit_MB_9_2*%
X17078148Y-4649905D03*
%TD*%
%TO.C,KiKit_MB_4_4*%
X11462626Y-5542710D03*
%TD*%
%TO.C,KiKit_MB_15_3*%
X11575126Y-6765552D03*
%TD*%
D25*
%TO.C,KiKit_TO_3*%
X9787722Y-13124557D03*
%TD*%
D13*
%TO.C,KiKit_MB_24_1*%
X18349874Y-8817583D03*
%TD*%
D17*
%TO.C,R1*%
X11079445Y-7740861D03*
X11151569Y-7812985D03*
%TD*%
D15*
%TO.C,C4*%
X14116730Y-4928435D03*
X14071475Y-4973690D03*
%TD*%
D13*
%TO.C,KiKit_MB_8_4*%
X14737500Y-5542710D03*
%TD*%
D31*
%TO.C,Y1*%
X15134397Y-11178155D03*
X15192733Y-11119819D03*
%TD*%
D15*
%TO.C,C6*%
X15479325Y-5049350D03*
X15434070Y-5094605D03*
%TD*%
D13*
%TO.C,KiKit_MB_10_1*%
X19130179Y-4312405D03*
%TD*%
%TO.C,KiKit_MB_18_5*%
X15855305Y-8037278D03*
%TD*%
%TO.C,KiKit_MB_31_4*%
X14962500Y-10040427D03*
%TD*%
D19*
%TO.C,C3*%
X11031361Y-11850120D03*
X11076616Y-11804865D03*
%TD*%
D38*
%TO.C,D1*%
X11130533Y-4204181D03*
X11241902Y-4092811D03*
%TD*%
D16*
%TO.C,C20*%
X17278287Y-10855221D03*
X17342287Y-10855221D03*
%TD*%
D13*
%TO.C,KiKit_MB_1_3*%
X10528400Y-4537405D03*
%TD*%
%TO.C,KiKit_MB_27_3*%
X11575126Y-10040426D03*
%TD*%
D12*
%TO.C,C2*%
X18357781Y-8366212D03*
X18403035Y-8411467D03*
%TD*%
D14*
%TO.C,C16*%
X17900014Y-10369259D03*
X17900014Y-10433259D03*
%TD*%
D16*
%TO.C,C15*%
X11534641Y-3623823D03*
X11598641Y-3623823D03*
%TD*%
D13*
%TO.C,KiKit_MB_17_3*%
X13803274Y-7812278D03*
%TD*%
%TO.C,KiKit_MB_36_2*%
X18237374Y-12092457D03*
%TD*%
D42*
%TO.C,SW1*%
X11317032Y-11122508D03*
X11610482Y-10829058D03*
X11469060Y-11274535D03*
X11760742Y-10982854D03*
%TD*%
D20*
%TO.C,R4*%
X14312599Y-8041381D03*
X14240474Y-8113506D03*
%TD*%
D31*
%TO.C,Y1*%
X15134397Y-7903282D03*
X15192733Y-7844945D03*
%TD*%
D21*
%TO.C,U1*%
X15264449Y-11509663D03*
X15243236Y-11488449D03*
X15222023Y-11467236D03*
X15200810Y-11446023D03*
X15179597Y-11424810D03*
X15158383Y-11403596D03*
X15137170Y-11382383D03*
X15285663Y-11488449D03*
X15243236Y-11446023D03*
X15222023Y-11424810D03*
X15200810Y-11403596D03*
X15179597Y-11382383D03*
X15158383Y-11361170D03*
X15285663Y-11446023D03*
X15264449Y-11424810D03*
X15243236Y-11403596D03*
X15222023Y-11382383D03*
X15200810Y-11361170D03*
X15179597Y-11339957D03*
X15328089Y-11446023D03*
X15306876Y-11424810D03*
X15285663Y-11403596D03*
X15264449Y-11382383D03*
X15243236Y-11361170D03*
X15222023Y-11339957D03*
X15200810Y-11318744D03*
X15349302Y-11424810D03*
X15328089Y-11403596D03*
X15306876Y-11382383D03*
X15285663Y-11361170D03*
X15264449Y-11339957D03*
X15243236Y-11318744D03*
X15222023Y-11297530D03*
X15370515Y-11403596D03*
X15349302Y-11382383D03*
X15328089Y-11361170D03*
X15306876Y-11339957D03*
X15285663Y-11318744D03*
X15264449Y-11297530D03*
X15243236Y-11276317D03*
X15391729Y-11382383D03*
X15370515Y-11361170D03*
X15349302Y-11339957D03*
X15328089Y-11318744D03*
X15306876Y-11297530D03*
X15285663Y-11276317D03*
X15264449Y-11255104D03*
%TD*%
D13*
%TO.C,KiKit_MB_12_2*%
X18237374Y-5542710D03*
%TD*%
D26*
%TO.C,Q1*%
X17592776Y-7898899D03*
X17624596Y-7867079D03*
D27*
X17559188Y-7833492D03*
%TD*%
D28*
%TO.C,TP2*%
X12034746Y-4007075D03*
%TD*%
D13*
%TO.C,KiKit_MB_26_1*%
X12580431Y-10862152D03*
%TD*%
D38*
%TO.C,D1*%
X14405407Y-4204181D03*
X14516776Y-4092811D03*
%TD*%
D19*
%TO.C,C3*%
X14306235Y-11850120D03*
X14351490Y-11804865D03*
%TD*%
D23*
%TO.C,AE1*%
X12560126Y-5574730D03*
D24*
X12450524Y-5684332D03*
%TD*%
D35*
%TO.C,JP1*%
X17180886Y-5424824D03*
D36*
X17272810Y-5332900D03*
%TD*%
D13*
%TO.C,KiKit_MB_30_2*%
X15855305Y-10974652D03*
%TD*%
%TO.C,KiKit_MB_36_5*%
X17899874Y-12092457D03*
%TD*%
D31*
%TO.C,Y1*%
X18409271Y-11178155D03*
X18467607Y-11119819D03*
%TD*%
D29*
%TO.C,U2*%
X17467264Y-5004095D03*
X17421303Y-5050057D03*
X17375341Y-5096019D03*
X17509691Y-5230369D03*
X17555653Y-5184407D03*
X17601615Y-5138446D03*
%TD*%
D13*
%TO.C,KiKit_MB_8_2*%
X14962500Y-5542710D03*
%TD*%
D29*
%TO.C,U2*%
X14192391Y-8278969D03*
X14146429Y-8324931D03*
X14100467Y-8370893D03*
X14234817Y-8505243D03*
X14280779Y-8459281D03*
X14326741Y-8413319D03*
%TD*%
D13*
%TO.C,KiKit_MB_31_5*%
X15075000Y-10040427D03*
%TD*%
D28*
%TO.C,TP1*%
X18443072Y-7423370D03*
%TD*%
D12*
%TO.C,R2*%
X11309254Y-5135617D03*
X11354509Y-5180872D03*
%TD*%
D13*
%TO.C,KiKit_MB_21_2*%
X17078148Y-7924778D03*
%TD*%
D15*
%TO.C,L6*%
X12472445Y-8592217D03*
X12427190Y-8637472D03*
%TD*%
D39*
%TO.C,U3*%
X11464771Y-10430690D03*
X11514771Y-10430690D03*
X11564771Y-10430690D03*
X11614771Y-10430690D03*
D40*
X11631211Y-10369690D03*
X11631211Y-10319690D03*
D39*
X11614771Y-10258690D03*
X11564771Y-10258690D03*
X11514771Y-10258690D03*
X11464771Y-10258690D03*
D40*
X11448331Y-10319690D03*
X11448331Y-10369690D03*
%TD*%
D18*
%TO.C,C1*%
X15128869Y-11489057D03*
X15083614Y-11443803D03*
%TD*%
%TO.C,L18*%
X12374864Y-8689798D03*
X12329609Y-8644543D03*
%TD*%
D12*
%TO.C,R3*%
X17908499Y-8360993D03*
X17953754Y-8406248D03*
%TD*%
D20*
%TO.C,R4*%
X14312599Y-11316255D03*
X14240474Y-11388380D03*
%TD*%
D26*
%TO.C,Q1*%
X14317902Y-11173773D03*
X14349722Y-11141953D03*
D27*
X14284315Y-11108365D03*
%TD*%
D13*
%TO.C,KiKit_MB_2_1*%
X12580431Y-4312405D03*
%TD*%
D19*
%TO.C,C3*%
X11031361Y-8575247D03*
X11076616Y-8529992D03*
%TD*%
D13*
%TO.C,KiKit_MB_13_5*%
X10528400Y-7587278D03*
%TD*%
D35*
%TO.C,JP1*%
X17180886Y-11974571D03*
D36*
X17272810Y-11882647D03*
%TD*%
D13*
%TO.C,KiKit_MB_6_4*%
X15855305Y-4649905D03*
%TD*%
%TO.C,KiKit_MB_3_2*%
X11462626Y-3490678D03*
%TD*%
D38*
%TO.C,D1*%
X14405407Y-7479054D03*
X14516776Y-7367685D03*
%TD*%
D15*
%TO.C,L7*%
X18872993Y-12016290D03*
X18827738Y-12061545D03*
%TD*%
D20*
%TO.C,R4*%
X17587473Y-11316255D03*
X17515348Y-11388380D03*
%TD*%
D31*
%TO.C,Y1*%
X11859523Y-11178155D03*
X11917860Y-11119819D03*
%TD*%
D28*
%TO.C,TP2*%
X15309619Y-10556822D03*
%TD*%
%TO.C,TP1*%
X15168198Y-4148496D03*
%TD*%
D17*
%TO.C,R1*%
X17629192Y-7740861D03*
X17701317Y-7812985D03*
%TD*%
D13*
%TO.C,KiKit_MB_30_4*%
X15855305Y-11199652D03*
%TD*%
D30*
%TO.C,L1*%
X11673329Y-8184132D03*
X11741919Y-8115542D03*
%TD*%
D32*
%TO.C,MK1*%
X10713570Y-7776750D03*
X10713570Y-7911750D03*
X10803570Y-7911750D03*
X10803570Y-7776750D03*
D33*
X10636070Y-7844250D03*
D34*
X10758570Y-7671750D03*
X10758570Y-8016750D03*
D33*
X10881070Y-7844250D03*
%TD*%
D18*
%TO.C,L18*%
X15649738Y-11964672D03*
X15604483Y-11919417D03*
%TD*%
D13*
%TO.C,KiKit_MB_16_2*%
X11687626Y-8817583D03*
%TD*%
D18*
%TO.C,C8*%
X18690619Y-8022937D03*
X18645364Y-7977682D03*
%TD*%
D13*
%TO.C,KiKit_MB_7_2*%
X14737500Y-3490678D03*
%TD*%
D20*
%TO.C,JP3*%
X11214502Y-3637965D03*
X11142377Y-3710090D03*
%TD*%
%TO.C,JP2*%
X11280970Y-10254180D03*
X11208845Y-10326305D03*
%TD*%
D13*
%TO.C,KiKit_MB_28_5*%
X11350126Y-12092457D03*
%TD*%
D12*
%TO.C,R2*%
X14584128Y-8410491D03*
X14629383Y-8455746D03*
%TD*%
D42*
%TO.C,SW1*%
X17866780Y-4572760D03*
X18160229Y-4279311D03*
X18018808Y-4724788D03*
X18310489Y-4433107D03*
%TD*%
D30*
%TO.C,L1*%
X14948203Y-4909258D03*
X15016792Y-4840669D03*
%TD*%
D13*
%TO.C,KiKit_MB_29_3*%
X13803274Y-11087152D03*
%TD*%
%TO.C,KiKit_MB_19_5*%
X15075000Y-6765554D03*
%TD*%
%TO.C,KiKit_MB_22_2*%
X19130179Y-7699778D03*
%TD*%
D12*
%TO.C,C12*%
X11857531Y-8316714D03*
X11902785Y-8361969D03*
%TD*%
D42*
%TO.C,SW1*%
X14591906Y-4572760D03*
X14885355Y-4279311D03*
X14743934Y-4724788D03*
X15035616Y-4433107D03*
%TD*%
D12*
%TO.C,R2*%
X14584128Y-11685364D03*
X14629383Y-11730619D03*
%TD*%
D18*
%TO.C,C1*%
X11853995Y-11489057D03*
X11808740Y-11443803D03*
%TD*%
D13*
%TO.C,KiKit_MB_17_1*%
X13803274Y-8037278D03*
%TD*%
%TO.C,KiKit_MB_4_3*%
X11575126Y-5542710D03*
%TD*%
%TO.C,KiKit_MB_34_5*%
X19130179Y-11312152D03*
%TD*%
D15*
%TO.C,L7*%
X12323245Y-5466543D03*
X12277990Y-5511798D03*
%TD*%
D20*
%TO.C,JP3*%
X17764249Y-6912839D03*
X17692124Y-6984963D03*
%TD*%
D12*
%TO.C,C5*%
X18457483Y-11542798D03*
X18502738Y-11588052D03*
%TD*%
D35*
%TO.C,JP1*%
X13906012Y-11974571D03*
D36*
X13997936Y-11882647D03*
%TD*%
D13*
%TO.C,KiKit_MB_27_2*%
X11462626Y-10040426D03*
%TD*%
%TO.C,KiKit_MB_23_5*%
X18349874Y-6765554D03*
%TD*%
D14*
%TO.C,C16*%
X17900014Y-7094385D03*
X17900014Y-7158385D03*
%TD*%
D12*
%TO.C,C2*%
X18357781Y-11641085D03*
X18403035Y-11686340D03*
%TD*%
D31*
%TO.C,Y1*%
X18409271Y-7903282D03*
X18467607Y-7844945D03*
%TD*%
D12*
%TO.C,C5*%
X11907735Y-11542798D03*
X11952990Y-11588052D03*
%TD*%
D15*
%TO.C,L6*%
X12472445Y-11867091D03*
X12427190Y-11912346D03*
%TD*%
D10*
%TO.C,J1*%
X12360015Y-4050059D03*
X12461615Y-4558060D03*
X12258415Y-4558060D03*
D11*
X12296515Y-4177059D03*
X12423515Y-4177059D03*
X12296515Y-4304060D03*
X12423515Y-4304060D03*
X12296515Y-4431060D03*
X12423515Y-4431060D03*
%TD*%
D13*
%TO.C,KiKit_MB_22_4*%
X19130179Y-7924778D03*
%TD*%
%TO.C,KiKit_MB_15_1*%
X11350126Y-6765551D03*
%TD*%
D28*
%TO.C,TP1*%
X11893324Y-4148496D03*
%TD*%
D15*
%TO.C,C9*%
X12331731Y-8451503D03*
X12286476Y-8496758D03*
%TD*%
D10*
%TO.C,J1*%
X12360015Y-7324933D03*
X12461615Y-7832933D03*
X12258415Y-7832933D03*
D11*
X12296515Y-7451933D03*
X12423515Y-7451933D03*
X12296515Y-7578933D03*
X12423515Y-7578933D03*
X12296515Y-7705933D03*
X12423515Y-7705933D03*
%TD*%
D41*
%TO.C,Y2*%
X12001073Y-11667955D03*
X11983396Y-11685633D03*
X11965718Y-11667955D03*
X11983396Y-11650278D03*
%TD*%
D29*
%TO.C,U2*%
X10917517Y-11553843D03*
X10871555Y-11599805D03*
X10825593Y-11645766D03*
X10959943Y-11780117D03*
X11005905Y-11734155D03*
X11051867Y-11688193D03*
%TD*%
D13*
%TO.C,KiKit_MB_15_4*%
X11687626Y-6765553D03*
%TD*%
D12*
%TO.C,L3*%
X18795211Y-8365236D03*
X18840466Y-8410491D03*
%TD*%
D13*
%TO.C,KiKit_MB_14_2*%
X12580431Y-7699778D03*
%TD*%
D15*
%TO.C,C4*%
X10841857Y-4928435D03*
X10796602Y-4973690D03*
%TD*%
D39*
%TO.C,U3*%
X14739645Y-7155816D03*
X14789645Y-7155816D03*
X14839645Y-7155816D03*
X14889645Y-7155816D03*
D40*
X14906085Y-7094816D03*
X14906085Y-7044816D03*
D39*
X14889645Y-6983816D03*
X14839645Y-6983816D03*
X14789645Y-6983816D03*
X14739645Y-6983816D03*
D40*
X14723205Y-7044816D03*
X14723205Y-7094816D03*
%TD*%
D12*
%TO.C,L3*%
X12245464Y-5090362D03*
X12290718Y-5135617D03*
%TD*%
D15*
%TO.C,L7*%
X12323245Y-12016290D03*
X12277990Y-12061545D03*
%TD*%
D37*
%TO.C,C17*%
X18000603Y-6897989D03*
X17936603Y-6897989D03*
%TD*%
D13*
%TO.C,KiKit_MB_23_2*%
X18012374Y-6765552D03*
%TD*%
D15*
%TO.C,L7*%
X15598119Y-8741417D03*
X15552864Y-8786672D03*
%TD*%
D10*
%TO.C,J1*%
X18909762Y-10599807D03*
X19011362Y-11107807D03*
X18808162Y-11107807D03*
D11*
X18846262Y-10726807D03*
X18973262Y-10726807D03*
X18846262Y-10853807D03*
X18973262Y-10853807D03*
X18846262Y-10980807D03*
X18973262Y-10980807D03*
%TD*%
D20*
%TO.C,R4*%
X14312599Y-4766507D03*
X14240474Y-4838632D03*
%TD*%
D13*
%TO.C,KiKit_MB_23_4*%
X18237374Y-6765553D03*
%TD*%
D15*
%TO.C,C11*%
X11844803Y-8011244D03*
X11799548Y-8056499D03*
%TD*%
D30*
%TO.C,L1*%
X14948203Y-11459005D03*
X15016792Y-11390416D03*
%TD*%
D13*
%TO.C,KiKit_MB_6_3*%
X15855305Y-4537405D03*
%TD*%
D28*
%TO.C,KiKit_FID_T_3*%
X9537722Y-13124557D03*
%TD*%
D41*
%TO.C,Y2*%
X18550821Y-5118208D03*
X18533143Y-5135886D03*
X18515465Y-5118208D03*
X18533143Y-5100530D03*
%TD*%
D13*
%TO.C,KiKit_MB_3_3*%
X11575126Y-3490679D03*
%TD*%
D18*
%TO.C,C1*%
X18403743Y-11489057D03*
X18358488Y-11443803D03*
%TD*%
D14*
%TO.C,C16*%
X14625140Y-7094385D03*
X14625140Y-7158385D03*
%TD*%
D19*
%TO.C,FB1*%
X11757121Y-11585931D03*
X11802376Y-11540676D03*
%TD*%
D15*
%TO.C,C9*%
X18881478Y-11726377D03*
X18836223Y-11771631D03*
%TD*%
%TO.C,C6*%
X18754199Y-5049350D03*
X18708944Y-5094605D03*
%TD*%
%TO.C,C9*%
X15606604Y-5176629D03*
X15561349Y-5221884D03*
%TD*%
D12*
%TO.C,R2*%
X11309254Y-11685364D03*
X11354509Y-11730619D03*
%TD*%
D13*
%TO.C,KiKit_MB_7_5*%
X15075000Y-3490680D03*
%TD*%
D15*
%TO.C,C11*%
X18394550Y-4736371D03*
X18349295Y-4781625D03*
%TD*%
D20*
%TO.C,R4*%
X11037725Y-4766507D03*
X10965600Y-4838632D03*
%TD*%
D15*
%TO.C,C9*%
X15606604Y-11726377D03*
X15561349Y-11771631D03*
%TD*%
D41*
%TO.C,Y2*%
X18550821Y-8393082D03*
X18533143Y-8410760D03*
X18515465Y-8393082D03*
X18533143Y-8375404D03*
%TD*%
D23*
%TO.C,AE1*%
X12560126Y-8849604D03*
D24*
X12450524Y-8959206D03*
%TD*%
D13*
%TO.C,KiKit_MB_9_5*%
X17078148Y-4312405D03*
%TD*%
%TO.C,KiKit_MB_31_1*%
X14625000Y-10040425D03*
%TD*%
D22*
%TO.C,C10*%
X15043040Y-7948750D03*
X14975158Y-8016632D03*
%TD*%
D15*
%TO.C,C6*%
X18754199Y-8324224D03*
X18708944Y-8369479D03*
%TD*%
D12*
%TO.C,R2*%
X17859002Y-8410491D03*
X17904256Y-8455746D03*
%TD*%
D15*
%TO.C,C9*%
X15606604Y-8451503D03*
X15561349Y-8496758D03*
%TD*%
D19*
%TO.C,FB1*%
X15031995Y-5036184D03*
X15077250Y-4990929D03*
%TD*%
D12*
%TO.C,R2*%
X17859002Y-5135617D03*
X17904256Y-5180872D03*
%TD*%
D15*
%TO.C,L7*%
X15598119Y-5466543D03*
X15552864Y-5511798D03*
%TD*%
D30*
%TO.C,L1*%
X18223077Y-4909258D03*
X18291666Y-4840669D03*
%TD*%
D13*
%TO.C,KiKit_MB_36_3*%
X18124874Y-12092457D03*
%TD*%
%TO.C,KiKit_MB_25_5*%
X10528400Y-10862152D03*
%TD*%
D23*
%TO.C,AE1*%
X15835000Y-12124478D03*
D24*
X15725398Y-12234079D03*
%TD*%
D42*
%TO.C,SW1*%
X11317032Y-7847634D03*
X11610482Y-7554184D03*
X11469060Y-7999662D03*
X11760742Y-7707980D03*
%TD*%
D12*
%TO.C,C5*%
X11907735Y-8267924D03*
X11952990Y-8313179D03*
%TD*%
D28*
%TO.C,TP2*%
X18584493Y-7281948D03*
%TD*%
D30*
%TO.C,L1*%
X11673329Y-11459005D03*
X11741919Y-11390416D03*
%TD*%
D12*
%TO.C,L3*%
X18795211Y-11640110D03*
X18840466Y-11685364D03*
%TD*%
D13*
%TO.C,KiKit_MB_28_1*%
X11800126Y-12092457D03*
%TD*%
%TO.C,KiKit_MB_20_1*%
X15075000Y-8817583D03*
%TD*%
%TO.C,KiKit_MB_6_1*%
X15855305Y-4312405D03*
%TD*%
%TO.C,KiKit_MB_29_4*%
X13803274Y-10974652D03*
%TD*%
D23*
%TO.C,AE1*%
X19109874Y-12124478D03*
D24*
X19000272Y-12234079D03*
%TD*%
D13*
%TO.C,KiKit_MB_14_4*%
X12580431Y-7924778D03*
%TD*%
D12*
%TO.C,R3*%
X14633625Y-5086120D03*
X14678880Y-5131374D03*
%TD*%
D39*
%TO.C,U3*%
X14739645Y-10430690D03*
X14789645Y-10430690D03*
X14839645Y-10430690D03*
X14889645Y-10430690D03*
D40*
X14906085Y-10369690D03*
X14906085Y-10319690D03*
D39*
X14889645Y-10258690D03*
X14839645Y-10258690D03*
X14789645Y-10258690D03*
X14739645Y-10258690D03*
D40*
X14723205Y-10319690D03*
X14723205Y-10369690D03*
%TD*%
D15*
%TO.C,L6*%
X15747318Y-5317344D03*
X15702064Y-5362598D03*
%TD*%
D20*
%TO.C,R4*%
X17587473Y-4766507D03*
X17515348Y-4838632D03*
%TD*%
D13*
%TO.C,KiKit_MB_12_1*%
X18349874Y-5542710D03*
%TD*%
D18*
%TO.C,L18*%
X15649738Y-8689798D03*
X15604483Y-8644543D03*
%TD*%
D13*
%TO.C,KiKit_MB_26_4*%
X12580431Y-11199652D03*
%TD*%
D21*
%TO.C,U1*%
X18539323Y-4959915D03*
X18518110Y-4938702D03*
X18496897Y-4917489D03*
X18475684Y-4896276D03*
X18454470Y-4875062D03*
X18433257Y-4853849D03*
X18412044Y-4832636D03*
X18560536Y-4938702D03*
X18518110Y-4896276D03*
X18496897Y-4875062D03*
X18475684Y-4853849D03*
X18454470Y-4832636D03*
X18433257Y-4811423D03*
X18560536Y-4896276D03*
X18539323Y-4875062D03*
X18518110Y-4853849D03*
X18496897Y-4832636D03*
X18475684Y-4811423D03*
X18454470Y-4790210D03*
X18602963Y-4896276D03*
X18581750Y-4875062D03*
X18560536Y-4853849D03*
X18539323Y-4832636D03*
X18518110Y-4811423D03*
X18496897Y-4790210D03*
X18475684Y-4768996D03*
X18624176Y-4875062D03*
X18602963Y-4853849D03*
X18581750Y-4832636D03*
X18560536Y-4811423D03*
X18539323Y-4790210D03*
X18518110Y-4768996D03*
X18496897Y-4747783D03*
X18645389Y-4853849D03*
X18624176Y-4832636D03*
X18602963Y-4811423D03*
X18581750Y-4790210D03*
X18560536Y-4768996D03*
X18539323Y-4747783D03*
X18518110Y-4726570D03*
X18666602Y-4832636D03*
X18645389Y-4811423D03*
X18624176Y-4790210D03*
X18602963Y-4768996D03*
X18581750Y-4747783D03*
X18560536Y-4726570D03*
X18539323Y-4705357D03*
%TD*%
D12*
%TO.C,L4*%
X12372743Y-11767389D03*
X12417998Y-11812644D03*
%TD*%
D13*
%TO.C,KiKit_MB_16_4*%
X11462626Y-8817583D03*
%TD*%
D16*
%TO.C,C20*%
X17278287Y-7580347D03*
X17342287Y-7580347D03*
%TD*%
D12*
%TO.C,R2*%
X11309254Y-8410491D03*
X11354509Y-8455746D03*
%TD*%
D28*
%TO.C,TP1*%
X18443072Y-10698243D03*
%TD*%
D13*
%TO.C,KiKit_MB_5_4*%
X13803274Y-4424905D03*
%TD*%
D16*
%TO.C,C15*%
X11534641Y-10173570D03*
X11598641Y-10173570D03*
%TD*%
D13*
%TO.C,KiKit_MB_30_1*%
X15855305Y-10862152D03*
%TD*%
D39*
%TO.C,U3*%
X11464771Y-7155816D03*
X11514771Y-7155816D03*
X11564771Y-7155816D03*
X11614771Y-7155816D03*
D40*
X11631211Y-7094816D03*
X11631211Y-7044816D03*
D39*
X11614771Y-6983816D03*
X11564771Y-6983816D03*
X11514771Y-6983816D03*
X11464771Y-6983816D03*
D40*
X11448331Y-7044816D03*
X11448331Y-7094816D03*
%TD*%
D41*
%TO.C,Y2*%
X18550821Y-11667955D03*
X18533143Y-11685633D03*
X18515465Y-11667955D03*
X18533143Y-11650278D03*
%TD*%
D18*
%TO.C,L18*%
X18924612Y-11964672D03*
X18879357Y-11919417D03*
%TD*%
D37*
%TO.C,C17*%
X14725729Y-10172863D03*
X14661729Y-10172863D03*
%TD*%
D15*
%TO.C,C11*%
X18394550Y-8011244D03*
X18349295Y-8056499D03*
%TD*%
D18*
%TO.C,C1*%
X18403743Y-8214184D03*
X18358488Y-8168929D03*
%TD*%
D42*
%TO.C,SW1*%
X17866780Y-7847634D03*
X18160229Y-7554184D03*
X18018808Y-7999662D03*
X18310489Y-7707980D03*
%TD*%
D22*
%TO.C,C10*%
X11768166Y-4673876D03*
X11700284Y-4741759D03*
%TD*%
D14*
%TO.C,C16*%
X14625140Y-3819511D03*
X14625140Y-3883511D03*
%TD*%
D20*
%TO.C,JP2*%
X14555844Y-10254180D03*
X14483719Y-10326305D03*
%TD*%
D16*
%TO.C,C20*%
X14003413Y-10855221D03*
X14067413Y-10855221D03*
%TD*%
D20*
%TO.C,JP2*%
X17830717Y-6979307D03*
X17758593Y-7051431D03*
%TD*%
D12*
%TO.C,L4*%
X18922490Y-11767389D03*
X18967745Y-11812644D03*
%TD*%
D23*
%TO.C,AE1*%
X12560126Y-12124478D03*
D24*
X12450524Y-12234079D03*
%TD*%
D39*
%TO.C,U3*%
X11464771Y-3880943D03*
X11514771Y-3880943D03*
X11564771Y-3880943D03*
X11614771Y-3880943D03*
D40*
X11631211Y-3819943D03*
X11631211Y-3769943D03*
D39*
X11614771Y-3708943D03*
X11564771Y-3708943D03*
X11514771Y-3708943D03*
X11464771Y-3708943D03*
D40*
X11448331Y-3769943D03*
X11448331Y-3819943D03*
%TD*%
D18*
%TO.C,L18*%
X12374864Y-11964672D03*
X12329609Y-11919417D03*
%TD*%
D25*
%TO.C,KiKit_TO_1*%
X9787722Y-2500000D03*
%TD*%
D15*
%TO.C,C9*%
X12331731Y-5176629D03*
X12286476Y-5221884D03*
%TD*%
D37*
%TO.C,C17*%
X11450856Y-6897989D03*
X11386856Y-6897989D03*
%TD*%
D32*
%TO.C,MK1*%
X10713570Y-4501876D03*
X10713570Y-4636876D03*
X10803570Y-4636876D03*
X10803570Y-4501876D03*
D33*
X10636070Y-4569376D03*
D34*
X10758570Y-4396876D03*
X10758570Y-4741876D03*
D33*
X10881070Y-4569376D03*
%TD*%
D12*
%TO.C,C12*%
X18407278Y-5041841D03*
X18452533Y-5087095D03*
%TD*%
D13*
%TO.C,KiKit_MB_32_5*%
X14625000Y-12092457D03*
%TD*%
D15*
%TO.C,L6*%
X19022192Y-8592217D03*
X18976937Y-8637472D03*
%TD*%
D28*
%TO.C,KiKit_FID_T_2*%
X20162279Y-2500000D03*
%TD*%
D13*
%TO.C,KiKit_MB_35_2*%
X18012374Y-10040426D03*
%TD*%
D20*
%TO.C,JP3*%
X14489375Y-10187712D03*
X14417251Y-10259837D03*
%TD*%
D16*
%TO.C,C15*%
X18084389Y-6898696D03*
X18148389Y-6898696D03*
%TD*%
D19*
%TO.C,C3*%
X17581109Y-8575247D03*
X17626364Y-8529992D03*
%TD*%
D13*
%TO.C,KiKit_MB_16_3*%
X11575126Y-8817583D03*
%TD*%
D15*
%TO.C,C4*%
X14116730Y-8203308D03*
X14071475Y-8248563D03*
%TD*%
D13*
%TO.C,KiKit_MB_5_5*%
X13803274Y-4312405D03*
%TD*%
D20*
%TO.C,JP2*%
X17830717Y-3704433D03*
X17758593Y-3776558D03*
%TD*%
D37*
%TO.C,C17*%
X14725729Y-3623116D03*
X14661729Y-3623116D03*
%TD*%
D32*
%TO.C,MK1*%
X17263317Y-11051624D03*
X17263317Y-11186624D03*
X17353317Y-11186624D03*
X17353317Y-11051624D03*
D33*
X17185817Y-11119124D03*
D34*
X17308317Y-10946624D03*
X17308317Y-11291624D03*
D33*
X17430817Y-11119124D03*
%TD*%
D13*
%TO.C,KiKit_MB_35_3*%
X18124874Y-10040426D03*
%TD*%
D15*
%TO.C,C4*%
X10841857Y-11478182D03*
X10796602Y-11523437D03*
%TD*%
D13*
%TO.C,KiKit_MB_11_2*%
X18012374Y-3490678D03*
%TD*%
D38*
%TO.C,D1*%
X17680280Y-10753928D03*
X17791650Y-10642559D03*
%TD*%
D12*
%TO.C,R3*%
X11358752Y-11635867D03*
X11404006Y-11681122D03*
%TD*%
D15*
%TO.C,C11*%
X18394550Y-11286118D03*
X18349295Y-11331373D03*
%TD*%
D28*
%TO.C,TP2*%
X15309619Y-7281948D03*
%TD*%
D13*
%TO.C,KiKit_MB_15_2*%
X11462626Y-6765552D03*
%TD*%
%TO.C,KiKit_MB_7_4*%
X14962500Y-3490679D03*
%TD*%
%TO.C,KiKit_MB_12_5*%
X17899874Y-5542710D03*
%TD*%
D18*
%TO.C,L18*%
X18924612Y-5414924D03*
X18879357Y-5369669D03*
%TD*%
D12*
%TO.C,C12*%
X18407278Y-8316714D03*
X18452533Y-8361969D03*
%TD*%
D37*
%TO.C,C17*%
X11450856Y-10172863D03*
X11386856Y-10172863D03*
%TD*%
D28*
%TO.C,TP2*%
X12034746Y-10556822D03*
%TD*%
D32*
%TO.C,MK1*%
X17263317Y-7776750D03*
X17263317Y-7911750D03*
X17353317Y-7911750D03*
X17353317Y-7776750D03*
D33*
X17185817Y-7844250D03*
D34*
X17308317Y-7671750D03*
X17308317Y-8016750D03*
D33*
X17430817Y-7844250D03*
%TD*%
D26*
%TO.C,Q1*%
X11043029Y-11173773D03*
X11074848Y-11141953D03*
D27*
X11009441Y-11108365D03*
%TD*%
D29*
%TO.C,U2*%
X17467264Y-11553843D03*
X17421303Y-11599805D03*
X17375341Y-11645766D03*
X17509691Y-11780117D03*
X17555653Y-11734155D03*
X17601615Y-11688193D03*
%TD*%
D13*
%TO.C,KiKit_MB_6_5*%
X15855305Y-4762405D03*
%TD*%
D10*
%TO.C,J1*%
X15634889Y-7324933D03*
X15736489Y-7832933D03*
X15533289Y-7832933D03*
D11*
X15571389Y-7451933D03*
X15698389Y-7451933D03*
X15571389Y-7578933D03*
X15698389Y-7578933D03*
X15571389Y-7705933D03*
X15698389Y-7705933D03*
%TD*%
D39*
%TO.C,U3*%
X18014518Y-10430690D03*
X18064518Y-10430690D03*
X18114518Y-10430690D03*
X18164518Y-10430690D03*
D40*
X18180958Y-10369690D03*
X18180958Y-10319690D03*
D39*
X18164518Y-10258690D03*
X18114518Y-10258690D03*
X18064518Y-10258690D03*
X18014518Y-10258690D03*
D40*
X17998078Y-10319690D03*
X17998078Y-10369690D03*
%TD*%
D12*
%TO.C,C12*%
X15132404Y-8316714D03*
X15177659Y-8361969D03*
%TD*%
D15*
%TO.C,C11*%
X15119676Y-8011244D03*
X15074422Y-8056499D03*
%TD*%
%TO.C,C6*%
X12204451Y-8324224D03*
X12159197Y-8369479D03*
%TD*%
D10*
%TO.C,J1*%
X15634889Y-10599807D03*
X15736489Y-11107807D03*
X15533289Y-11107807D03*
D11*
X15571389Y-10726807D03*
X15698389Y-10726807D03*
X15571389Y-10853807D03*
X15698389Y-10853807D03*
X15571389Y-10980807D03*
X15698389Y-10980807D03*
%TD*%
D13*
%TO.C,KiKit_MB_32_1*%
X15075000Y-12092457D03*
%TD*%
%TO.C,KiKit_MB_11_5*%
X18349874Y-3490680D03*
%TD*%
D28*
%TO.C,KiKit_FID_T_1*%
X9537722Y-2500000D03*
%TD*%
D12*
%TO.C,L3*%
X15520337Y-5090362D03*
X15565592Y-5135617D03*
%TD*%
D41*
%TO.C,Y2*%
X15275947Y-11667955D03*
X15258269Y-11685633D03*
X15240592Y-11667955D03*
X15258269Y-11650278D03*
%TD*%
D16*
%TO.C,C15*%
X11534641Y-6898696D03*
X11598641Y-6898696D03*
%TD*%
D31*
%TO.C,Y1*%
X18409271Y-4628408D03*
X18467607Y-4570072D03*
%TD*%
D38*
%TO.C,D1*%
X11130533Y-7479054D03*
X11241902Y-7367685D03*
%TD*%
D15*
%TO.C,L6*%
X15747318Y-11867091D03*
X15702064Y-11912346D03*
%TD*%
D26*
%TO.C,Q1*%
X14317902Y-7898899D03*
X14349722Y-7867079D03*
D27*
X14284315Y-7833492D03*
%TD*%
D13*
%TO.C,KiKit_MB_12_4*%
X18012374Y-5542710D03*
%TD*%
D23*
%TO.C,AE1*%
X15835000Y-5574730D03*
D24*
X15725398Y-5684332D03*
%TD*%
D13*
%TO.C,KiKit_MB_1_4*%
X10528400Y-4424905D03*
%TD*%
D19*
%TO.C,C3*%
X14306235Y-8575247D03*
X14351490Y-8529992D03*
%TD*%
D15*
%TO.C,L6*%
X19022192Y-5317344D03*
X18976937Y-5362598D03*
%TD*%
%TO.C,C4*%
X17391604Y-11478182D03*
X17346349Y-11523437D03*
%TD*%
D42*
%TO.C,SW1*%
X11317032Y-4572760D03*
X11610482Y-4279311D03*
X11469060Y-4724788D03*
X11760742Y-4433107D03*
%TD*%
D13*
%TO.C,KiKit_MB_8_3*%
X14850000Y-5542710D03*
%TD*%
%TO.C,KiKit_MB_17_5*%
X13803274Y-7587278D03*
%TD*%
D16*
%TO.C,C20*%
X14003413Y-4305474D03*
X14067413Y-4305474D03*
%TD*%
D13*
%TO.C,KiKit_MB_20_2*%
X14962500Y-8817583D03*
%TD*%
%TO.C,KiKit_MB_18_3*%
X15855305Y-7812278D03*
%TD*%
D30*
%TO.C,L1*%
X18223077Y-8184132D03*
X18291666Y-8115542D03*
%TD*%
D20*
%TO.C,R4*%
X11037725Y-11316255D03*
X10965600Y-11388380D03*
%TD*%
D13*
%TO.C,KiKit_MB_19_3*%
X14850000Y-6765552D03*
%TD*%
%TO.C,KiKit_MB_17_2*%
X13803274Y-7924778D03*
%TD*%
D16*
%TO.C,C15*%
X14809515Y-10173570D03*
X14873515Y-10173570D03*
%TD*%
D13*
%TO.C,KiKit_MB_2_2*%
X12580431Y-4424905D03*
%TD*%
D15*
%TO.C,C9*%
X18881478Y-5176629D03*
X18836223Y-5221884D03*
%TD*%
D13*
%TO.C,KiKit_MB_3_5*%
X11800126Y-3490680D03*
%TD*%
D10*
%TO.C,J1*%
X18909762Y-4050059D03*
X19011362Y-4558060D03*
X18808162Y-4558060D03*
D11*
X18846262Y-4177059D03*
X18973262Y-4177059D03*
X18846262Y-4304060D03*
X18973262Y-4304060D03*
X18846262Y-4431060D03*
X18973262Y-4431060D03*
%TD*%
D13*
%TO.C,KiKit_MB_19_1*%
X14625000Y-6765551D03*
%TD*%
D12*
%TO.C,C5*%
X15182609Y-4993050D03*
X15227864Y-5038305D03*
%TD*%
D13*
%TO.C,KiKit_MB_34_2*%
X19130179Y-10974652D03*
%TD*%
%TO.C,KiKit_MB_4_1*%
X11800126Y-5542710D03*
%TD*%
D20*
%TO.C,R4*%
X11037725Y-8041381D03*
X10965600Y-8113506D03*
%TD*%
D35*
%TO.C,JP1*%
X13906012Y-5424824D03*
D36*
X13997936Y-5332900D03*
%TD*%
D12*
%TO.C,L4*%
X18922490Y-8492515D03*
X18967745Y-8537770D03*
%TD*%
D38*
%TO.C,D1*%
X17680280Y-4204181D03*
X17791650Y-4092811D03*
%TD*%
D13*
%TO.C,KiKit_MB_28_4*%
X11462626Y-12092457D03*
%TD*%
%TO.C,KiKit_MB_26_3*%
X12580431Y-11087152D03*
%TD*%
%TO.C,KiKit_MB_5_1*%
X13803274Y-4762405D03*
%TD*%
%TO.C,KiKit_MB_21_3*%
X17078148Y-7812278D03*
%TD*%
D32*
%TO.C,MK1*%
X17263317Y-4501876D03*
X17263317Y-4636876D03*
X17353317Y-4636876D03*
X17353317Y-4501876D03*
D33*
X17185817Y-4569376D03*
D34*
X17308317Y-4396876D03*
X17308317Y-4741876D03*
D33*
X17430817Y-4569376D03*
%TD*%
D13*
%TO.C,KiKit_MB_20_3*%
X14850000Y-8817583D03*
%TD*%
D17*
%TO.C,R1*%
X17629192Y-11015734D03*
X17701317Y-11087859D03*
%TD*%
D29*
%TO.C,U2*%
X14192391Y-11553843D03*
X14146429Y-11599805D03*
X14100467Y-11645766D03*
X14234817Y-11780117D03*
X14280779Y-11734155D03*
X14326741Y-11688193D03*
%TD*%
D13*
%TO.C,KiKit_MB_13_4*%
X10528400Y-7699778D03*
%TD*%
D32*
%TO.C,MK1*%
X10713570Y-11051624D03*
X10713570Y-11186624D03*
X10803570Y-11186624D03*
X10803570Y-11051624D03*
D33*
X10636070Y-11119124D03*
D34*
X10758570Y-10946624D03*
X10758570Y-11291624D03*
D33*
X10881070Y-11119124D03*
%TD*%
D12*
%TO.C,L2*%
X12118184Y-11512830D03*
X12163439Y-11558085D03*
%TD*%
%TO.C,L4*%
X12372743Y-5217642D03*
X12417998Y-5262896D03*
%TD*%
D15*
%TO.C,C11*%
X11844803Y-4736371D03*
X11799548Y-4781625D03*
%TD*%
D13*
%TO.C,KiKit_MB_24_3*%
X18124874Y-8817583D03*
%TD*%
D28*
%TO.C,TP1*%
X11893324Y-7423370D03*
%TD*%
D13*
%TO.C,KiKit_MB_34_3*%
X19130179Y-11087152D03*
%TD*%
%TO.C,KiKit_MB_28_3*%
X11575126Y-12092457D03*
%TD*%
D21*
%TO.C,U1*%
X15264449Y-8234789D03*
X15243236Y-8213576D03*
X15222023Y-8192362D03*
X15200810Y-8171149D03*
X15179597Y-8149936D03*
X15158383Y-8128723D03*
X15137170Y-8107510D03*
X15285663Y-8213576D03*
X15243236Y-8171149D03*
X15222023Y-8149936D03*
X15200810Y-8128723D03*
X15179597Y-8107510D03*
X15158383Y-8086296D03*
X15285663Y-8171149D03*
X15264449Y-8149936D03*
X15243236Y-8128723D03*
X15222023Y-8107510D03*
X15200810Y-8086296D03*
X15179597Y-8065083D03*
X15328089Y-8171149D03*
X15306876Y-8149936D03*
X15285663Y-8128723D03*
X15264449Y-8107510D03*
X15243236Y-8086296D03*
X15222023Y-8065083D03*
X15200810Y-8043870D03*
X15349302Y-8149936D03*
X15328089Y-8128723D03*
X15306876Y-8107510D03*
X15285663Y-8086296D03*
X15264449Y-8065083D03*
X15243236Y-8043870D03*
X15222023Y-8022657D03*
X15370515Y-8128723D03*
X15349302Y-8107510D03*
X15328089Y-8086296D03*
X15306876Y-8065083D03*
X15285663Y-8043870D03*
X15264449Y-8022657D03*
X15243236Y-8001444D03*
X15391729Y-8107510D03*
X15370515Y-8086296D03*
X15349302Y-8065083D03*
X15328089Y-8043870D03*
X15306876Y-8022657D03*
X15285663Y-8001444D03*
X15264449Y-7980230D03*
%TD*%
D35*
%TO.C,JP1*%
X10631139Y-5424824D03*
D36*
X10723063Y-5332900D03*
%TD*%
D13*
%TO.C,KiKit_MB_36_1*%
X18349874Y-12092457D03*
%TD*%
D23*
%TO.C,AE1*%
X15835000Y-8849604D03*
D24*
X15725398Y-8959206D03*
%TD*%
D20*
%TO.C,JP3*%
X17764249Y-10187712D03*
X17692124Y-10259837D03*
%TD*%
D12*
%TO.C,L4*%
X15647616Y-8492515D03*
X15692871Y-8537770D03*
%TD*%
%TO.C,L4*%
X12372743Y-8492515D03*
X12417998Y-8537770D03*
%TD*%
D13*
%TO.C,KiKit_MB_24_4*%
X18012374Y-8817583D03*
%TD*%
%TO.C,KiKit_MB_6_2*%
X15855305Y-4424905D03*
%TD*%
%TO.C,KiKit_MB_33_1*%
X17078148Y-11312152D03*
%TD*%
D21*
%TO.C,U1*%
X15264449Y-4959915D03*
X15243236Y-4938702D03*
X15222023Y-4917489D03*
X15200810Y-4896276D03*
X15179597Y-4875062D03*
X15158383Y-4853849D03*
X15137170Y-4832636D03*
X15285663Y-4938702D03*
X15243236Y-4896276D03*
X15222023Y-4875062D03*
X15200810Y-4853849D03*
X15179597Y-4832636D03*
X15158383Y-4811423D03*
X15285663Y-4896276D03*
X15264449Y-4875062D03*
X15243236Y-4853849D03*
X15222023Y-4832636D03*
X15200810Y-4811423D03*
X15179597Y-4790210D03*
X15328089Y-4896276D03*
X15306876Y-4875062D03*
X15285663Y-4853849D03*
X15264449Y-4832636D03*
X15243236Y-4811423D03*
X15222023Y-4790210D03*
X15200810Y-4768996D03*
X15349302Y-4875062D03*
X15328089Y-4853849D03*
X15306876Y-4832636D03*
X15285663Y-4811423D03*
X15264449Y-4790210D03*
X15243236Y-4768996D03*
X15222023Y-4747783D03*
X15370515Y-4853849D03*
X15349302Y-4832636D03*
X15328089Y-4811423D03*
X15306876Y-4790210D03*
X15285663Y-4768996D03*
X15264449Y-4747783D03*
X15243236Y-4726570D03*
X15391729Y-4832636D03*
X15370515Y-4811423D03*
X15349302Y-4790210D03*
X15328089Y-4768996D03*
X15306876Y-4747783D03*
X15285663Y-4726570D03*
X15264449Y-4705357D03*
%TD*%
D16*
%TO.C,C15*%
X14809515Y-3623823D03*
X14873515Y-3623823D03*
%TD*%
D12*
%TO.C,C12*%
X15132404Y-5041841D03*
X15177659Y-5087095D03*
%TD*%
D15*
%TO.C,C6*%
X15479325Y-11599097D03*
X15434070Y-11644352D03*
%TD*%
D37*
%TO.C,C17*%
X18000603Y-3623116D03*
X17936603Y-3623116D03*
%TD*%
D38*
%TO.C,D1*%
X17680280Y-7479054D03*
X17791650Y-7367685D03*
%TD*%
D10*
%TO.C,J1*%
X15634889Y-4050059D03*
X15736489Y-4558060D03*
X15533289Y-4558060D03*
D11*
X15571389Y-4177059D03*
X15698389Y-4177059D03*
X15571389Y-4304060D03*
X15698389Y-4304060D03*
X15571389Y-4431060D03*
X15698389Y-4431060D03*
%TD*%
D20*
%TO.C,JP2*%
X17830717Y-10254180D03*
X17758593Y-10326305D03*
%TD*%
D18*
%TO.C,C8*%
X15415745Y-8022937D03*
X15370490Y-7977682D03*
%TD*%
M02*
