%TF.GenerationSoftware,KiCad,Pcbnew,9.0.0-rc2-3baa6cd791~182~ubuntu24.04.1*%
%TF.CreationDate,2025-01-31T11:47:19-05:00*%
%TF.ProjectId,PCA20073_nRF54L15_Tiny_Board,50434132-3030-4373-935f-6e524635344c,rev?*%
%TF.SameCoordinates,Original*%
%TF.FileFunction,AssemblyDrawing,Bot*%
%FSLAX45Y45*%
G04 Gerber Fmt 4.5, Leading zero omitted, Abs format (unit mm)*
G04 Created by KiCad (PCBNEW 9.0.0-rc2-3baa6cd791~182~ubuntu24.04.1) date 2025-01-31 11:47:19*
%MOMM*%
%LPD*%
G01*
G04 APERTURE LIST*
%ADD10C,0.150000*%
%ADD11C,0.100000*%
%ADD12C,0.050000*%
G04 APERTURE END LIST*
D10*
X17513567Y-10179534D02*
X17520301Y-10179534D01*
X17520301Y-10179534D02*
X17533770Y-10172800D01*
X17533770Y-10172800D02*
X17540505Y-10166065D01*
X17540505Y-10166065D02*
X17547239Y-10152597D01*
X17547239Y-10152597D02*
X17547239Y-10139128D01*
X17547239Y-10139128D02*
X17543872Y-10129026D01*
X17543872Y-10129026D02*
X17533770Y-10112191D01*
X17533770Y-10112191D02*
X17523669Y-10102089D01*
X17523669Y-10102089D02*
X17506833Y-10091988D01*
X17506833Y-10091988D02*
X17496731Y-10088620D01*
X17496731Y-10088620D02*
X17483263Y-10088620D01*
X17483263Y-10088620D02*
X17469794Y-10095355D01*
X17469794Y-10095355D02*
X17463059Y-10102089D01*
X17463059Y-10102089D02*
X17456325Y-10115558D01*
X17456325Y-10115558D02*
X17456325Y-10122292D01*
X17449591Y-10256979D02*
X17439489Y-10199737D01*
X17489997Y-10216573D02*
X17419286Y-10145862D01*
X17419286Y-10145862D02*
X17392349Y-10172800D01*
X17392349Y-10172800D02*
X17388982Y-10182901D01*
X17388982Y-10182901D02*
X17388982Y-10189636D01*
X17388982Y-10189636D02*
X17392349Y-10199737D01*
X17392349Y-10199737D02*
X17402450Y-10209839D01*
X17402450Y-10209839D02*
X17412552Y-10213206D01*
X17412552Y-10213206D02*
X17419286Y-10213206D01*
X17419286Y-10213206D02*
X17429388Y-10209839D01*
X17429388Y-10209839D02*
X17456325Y-10182901D01*
X17358677Y-10219940D02*
X17351943Y-10219940D01*
X17351943Y-10219940D02*
X17341841Y-10223307D01*
X17341841Y-10223307D02*
X17325005Y-10240143D01*
X17325005Y-10240143D02*
X17321638Y-10250245D01*
X17321638Y-10250245D02*
X17321638Y-10256979D01*
X17321638Y-10256979D02*
X17325005Y-10267081D01*
X17325005Y-10267081D02*
X17331740Y-10273815D01*
X17331740Y-10273815D02*
X17345208Y-10280549D01*
X17345208Y-10280549D02*
X17426021Y-10280549D01*
X17426021Y-10280549D02*
X17382247Y-10324323D01*
X17267763Y-10297385D02*
X17261029Y-10304120D01*
X17261029Y-10304120D02*
X17257662Y-10314221D01*
X17257662Y-10314221D02*
X17257662Y-10320955D01*
X17257662Y-10320955D02*
X17261029Y-10331057D01*
X17261029Y-10331057D02*
X17271131Y-10347893D01*
X17271131Y-10347893D02*
X17287966Y-10364729D01*
X17287966Y-10364729D02*
X17304802Y-10374830D01*
X17304802Y-10374830D02*
X17314904Y-10378197D01*
X17314904Y-10378197D02*
X17321638Y-10378197D01*
X17321638Y-10378197D02*
X17331740Y-10374830D01*
X17331740Y-10374830D02*
X17338474Y-10368096D01*
X17338474Y-10368096D02*
X17341841Y-10357994D01*
X17341841Y-10357994D02*
X17341841Y-10351260D01*
X17341841Y-10351260D02*
X17338474Y-10341159D01*
X17338474Y-10341159D02*
X17328372Y-10324323D01*
X17328372Y-10324323D02*
X17311537Y-10307487D01*
X17311537Y-10307487D02*
X17294701Y-10297385D01*
X17294701Y-10297385D02*
X17284599Y-10294018D01*
X17284599Y-10294018D02*
X17277865Y-10294018D01*
X17277865Y-10294018D02*
X17267763Y-10297385D01*
X17220623Y-10344526D02*
X17176850Y-10388299D01*
X17176850Y-10388299D02*
X17227357Y-10391666D01*
X17227357Y-10391666D02*
X17217256Y-10401768D01*
X17217256Y-10401768D02*
X17213889Y-10411869D01*
X17213889Y-10411869D02*
X17213889Y-10418604D01*
X17213889Y-10418604D02*
X17217256Y-10428705D01*
X17217256Y-10428705D02*
X17234092Y-10445541D01*
X17234092Y-10445541D02*
X17244193Y-10448908D01*
X17244193Y-10448908D02*
X17250927Y-10448908D01*
X17250927Y-10448908D02*
X17261029Y-10445541D01*
X17261029Y-10445541D02*
X17281232Y-10425338D01*
X17281232Y-10425338D02*
X17284599Y-10415236D01*
X17284599Y-10415236D02*
X17284599Y-10408502D01*
X17156647Y-10421971D02*
X17149912Y-10421971D01*
X17149912Y-10421971D02*
X17139811Y-10425338D01*
X17139811Y-10425338D02*
X17122975Y-10442174D01*
X17122975Y-10442174D02*
X17119608Y-10452275D01*
X17119608Y-10452275D02*
X17119608Y-10459010D01*
X17119608Y-10459010D02*
X17122975Y-10469111D01*
X17122975Y-10469111D02*
X17129709Y-10475846D01*
X17129709Y-10475846D02*
X17143178Y-10482580D01*
X17143178Y-10482580D02*
X17223990Y-10482580D01*
X17223990Y-10482580D02*
X17180217Y-10526353D01*
X18462639Y-11360470D02*
X18455905Y-11373938D01*
X18455905Y-11373938D02*
X18455905Y-11380673D01*
X18455905Y-11380673D02*
X18459272Y-11390774D01*
X18459272Y-11390774D02*
X18469373Y-11400876D01*
X18469373Y-11400876D02*
X18479475Y-11404243D01*
X18479475Y-11404243D02*
X18486209Y-11404243D01*
X18486209Y-11404243D02*
X18496311Y-11400876D01*
X18496311Y-11400876D02*
X18523248Y-11373938D01*
X18523248Y-11373938D02*
X18452538Y-11303228D01*
X18452538Y-11303228D02*
X18428967Y-11326798D01*
X18428967Y-11326798D02*
X18425600Y-11336899D01*
X18425600Y-11336899D02*
X18425600Y-11343634D01*
X18425600Y-11343634D02*
X18428967Y-11353735D01*
X18428967Y-11353735D02*
X18435702Y-11360470D01*
X18435702Y-11360470D02*
X18445803Y-11363837D01*
X18445803Y-11363837D02*
X18452538Y-11363837D01*
X18452538Y-11363837D02*
X18462639Y-11360470D01*
X18462639Y-11360470D02*
X18486209Y-11336899D01*
X18391928Y-11363837D02*
X18351522Y-11404243D01*
X18442436Y-11454751D02*
X18371725Y-11384040D01*
X18361624Y-11535563D02*
X18402030Y-11495157D01*
X18381827Y-11515360D02*
X18311116Y-11444649D01*
X18311116Y-11444649D02*
X18327952Y-11448016D01*
X18327952Y-11448016D02*
X18341421Y-11448016D01*
X18341421Y-11448016D02*
X18351522Y-11444649D01*
X10963820Y-3629787D02*
X10970554Y-3629787D01*
X10970554Y-3629787D02*
X10984023Y-3623052D01*
X10984023Y-3623052D02*
X10990757Y-3616318D01*
X10990757Y-3616318D02*
X10997491Y-3602849D01*
X10997491Y-3602849D02*
X10997491Y-3589380D01*
X10997491Y-3589380D02*
X10994124Y-3579279D01*
X10994124Y-3579279D02*
X10984023Y-3562443D01*
X10984023Y-3562443D02*
X10973921Y-3552342D01*
X10973921Y-3552342D02*
X10957085Y-3542240D01*
X10957085Y-3542240D02*
X10946984Y-3538873D01*
X10946984Y-3538873D02*
X10933515Y-3538873D01*
X10933515Y-3538873D02*
X10920046Y-3545607D01*
X10920046Y-3545607D02*
X10913312Y-3552342D01*
X10913312Y-3552342D02*
X10906578Y-3565810D01*
X10906578Y-3565810D02*
X10906578Y-3572545D01*
X10899843Y-3707232D02*
X10889742Y-3649990D01*
X10940250Y-3666826D02*
X10869539Y-3596115D01*
X10869539Y-3596115D02*
X10842601Y-3623052D01*
X10842601Y-3623052D02*
X10839234Y-3633154D01*
X10839234Y-3633154D02*
X10839234Y-3639888D01*
X10839234Y-3639888D02*
X10842601Y-3649990D01*
X10842601Y-3649990D02*
X10852703Y-3660091D01*
X10852703Y-3660091D02*
X10862804Y-3663458D01*
X10862804Y-3663458D02*
X10869539Y-3663458D01*
X10869539Y-3663458D02*
X10879640Y-3660091D01*
X10879640Y-3660091D02*
X10906578Y-3633154D01*
X10808930Y-3670193D02*
X10802195Y-3670193D01*
X10802195Y-3670193D02*
X10792094Y-3673560D01*
X10792094Y-3673560D02*
X10775258Y-3690396D01*
X10775258Y-3690396D02*
X10771891Y-3700497D01*
X10771891Y-3700497D02*
X10771891Y-3707232D01*
X10771891Y-3707232D02*
X10775258Y-3717333D01*
X10775258Y-3717333D02*
X10781992Y-3724068D01*
X10781992Y-3724068D02*
X10795461Y-3730802D01*
X10795461Y-3730802D02*
X10876273Y-3730802D01*
X10876273Y-3730802D02*
X10832500Y-3774575D01*
X10718016Y-3747638D02*
X10711282Y-3754372D01*
X10711282Y-3754372D02*
X10707914Y-3764474D01*
X10707914Y-3764474D02*
X10707914Y-3771208D01*
X10707914Y-3771208D02*
X10711282Y-3781309D01*
X10711282Y-3781309D02*
X10721383Y-3798145D01*
X10721383Y-3798145D02*
X10738219Y-3814981D01*
X10738219Y-3814981D02*
X10755055Y-3825083D01*
X10755055Y-3825083D02*
X10765156Y-3828450D01*
X10765156Y-3828450D02*
X10771891Y-3828450D01*
X10771891Y-3828450D02*
X10781992Y-3825083D01*
X10781992Y-3825083D02*
X10788727Y-3818348D01*
X10788727Y-3818348D02*
X10792094Y-3808247D01*
X10792094Y-3808247D02*
X10792094Y-3801513D01*
X10792094Y-3801513D02*
X10788727Y-3791411D01*
X10788727Y-3791411D02*
X10778625Y-3774575D01*
X10778625Y-3774575D02*
X10761789Y-3757739D01*
X10761789Y-3757739D02*
X10744953Y-3747638D01*
X10744953Y-3747638D02*
X10734852Y-3744271D01*
X10734852Y-3744271D02*
X10728117Y-3744271D01*
X10728117Y-3744271D02*
X10718016Y-3747638D01*
X10670875Y-3794778D02*
X10627102Y-3838551D01*
X10627102Y-3838551D02*
X10677610Y-3841919D01*
X10677610Y-3841919D02*
X10667508Y-3852020D01*
X10667508Y-3852020D02*
X10664141Y-3862122D01*
X10664141Y-3862122D02*
X10664141Y-3868856D01*
X10664141Y-3868856D02*
X10667508Y-3878958D01*
X10667508Y-3878958D02*
X10684344Y-3895793D01*
X10684344Y-3895793D02*
X10694446Y-3899161D01*
X10694446Y-3899161D02*
X10701180Y-3899161D01*
X10701180Y-3899161D02*
X10711282Y-3895793D01*
X10711282Y-3895793D02*
X10731485Y-3875590D01*
X10731485Y-3875590D02*
X10734852Y-3865489D01*
X10734852Y-3865489D02*
X10734852Y-3858755D01*
X10606899Y-3872223D02*
X10600165Y-3872223D01*
X10600165Y-3872223D02*
X10590063Y-3875590D01*
X10590063Y-3875590D02*
X10573227Y-3892426D01*
X10573227Y-3892426D02*
X10569860Y-3902528D01*
X10569860Y-3902528D02*
X10569860Y-3909262D01*
X10569860Y-3909262D02*
X10573227Y-3919364D01*
X10573227Y-3919364D02*
X10579962Y-3926098D01*
X10579962Y-3926098D02*
X10593430Y-3932832D01*
X10593430Y-3932832D02*
X10674243Y-3932832D01*
X10674243Y-3932832D02*
X10630469Y-3976606D01*
X11912892Y-4810722D02*
X11906157Y-4824191D01*
X11906157Y-4824191D02*
X11906157Y-4830925D01*
X11906157Y-4830925D02*
X11909524Y-4841027D01*
X11909524Y-4841027D02*
X11919626Y-4851128D01*
X11919626Y-4851128D02*
X11929728Y-4854496D01*
X11929728Y-4854496D02*
X11936462Y-4854496D01*
X11936462Y-4854496D02*
X11946563Y-4851128D01*
X11946563Y-4851128D02*
X11973501Y-4824191D01*
X11973501Y-4824191D02*
X11902790Y-4753480D01*
X11902790Y-4753480D02*
X11879220Y-4777051D01*
X11879220Y-4777051D02*
X11875853Y-4787152D01*
X11875853Y-4787152D02*
X11875853Y-4793886D01*
X11875853Y-4793886D02*
X11879220Y-4803988D01*
X11879220Y-4803988D02*
X11885954Y-4810722D01*
X11885954Y-4810722D02*
X11896056Y-4814090D01*
X11896056Y-4814090D02*
X11902790Y-4814090D01*
X11902790Y-4814090D02*
X11912892Y-4810722D01*
X11912892Y-4810722D02*
X11936462Y-4787152D01*
X11842181Y-4814090D02*
X11801775Y-4854496D01*
X11892689Y-4905003D02*
X11821978Y-4834293D01*
X11811876Y-4985815D02*
X11852282Y-4945409D01*
X11832079Y-4965612D02*
X11761369Y-4894902D01*
X11761369Y-4894902D02*
X11778205Y-4898269D01*
X11778205Y-4898269D02*
X11791673Y-4898269D01*
X11791673Y-4898269D02*
X11801775Y-4894902D01*
X14238693Y-6904660D02*
X14245428Y-6904660D01*
X14245428Y-6904660D02*
X14258896Y-6897926D01*
X14258896Y-6897926D02*
X14265631Y-6891192D01*
X14265631Y-6891192D02*
X14272365Y-6877723D01*
X14272365Y-6877723D02*
X14272365Y-6864254D01*
X14272365Y-6864254D02*
X14268998Y-6854153D01*
X14268998Y-6854153D02*
X14258896Y-6837317D01*
X14258896Y-6837317D02*
X14248795Y-6827215D01*
X14248795Y-6827215D02*
X14231959Y-6817114D01*
X14231959Y-6817114D02*
X14221857Y-6813747D01*
X14221857Y-6813747D02*
X14208389Y-6813747D01*
X14208389Y-6813747D02*
X14194920Y-6820481D01*
X14194920Y-6820481D02*
X14188186Y-6827215D01*
X14188186Y-6827215D02*
X14181451Y-6840684D01*
X14181451Y-6840684D02*
X14181451Y-6847418D01*
X14174717Y-6982105D02*
X14164615Y-6924863D01*
X14215123Y-6941699D02*
X14144412Y-6870989D01*
X14144412Y-6870989D02*
X14117475Y-6897926D01*
X14117475Y-6897926D02*
X14114108Y-6908027D01*
X14114108Y-6908027D02*
X14114108Y-6914762D01*
X14114108Y-6914762D02*
X14117475Y-6924863D01*
X14117475Y-6924863D02*
X14127577Y-6934965D01*
X14127577Y-6934965D02*
X14137678Y-6938332D01*
X14137678Y-6938332D02*
X14144412Y-6938332D01*
X14144412Y-6938332D02*
X14154514Y-6934965D01*
X14154514Y-6934965D02*
X14181451Y-6908027D01*
X14083803Y-6945066D02*
X14077069Y-6945066D01*
X14077069Y-6945066D02*
X14066967Y-6948434D01*
X14066967Y-6948434D02*
X14050132Y-6965269D01*
X14050132Y-6965269D02*
X14046764Y-6975371D01*
X14046764Y-6975371D02*
X14046764Y-6982105D01*
X14046764Y-6982105D02*
X14050132Y-6992207D01*
X14050132Y-6992207D02*
X14056866Y-6998941D01*
X14056866Y-6998941D02*
X14070335Y-7005676D01*
X14070335Y-7005676D02*
X14151147Y-7005676D01*
X14151147Y-7005676D02*
X14107373Y-7049449D01*
X13992890Y-7022511D02*
X13986155Y-7029246D01*
X13986155Y-7029246D02*
X13982788Y-7039347D01*
X13982788Y-7039347D02*
X13982788Y-7046082D01*
X13982788Y-7046082D02*
X13986155Y-7056183D01*
X13986155Y-7056183D02*
X13996257Y-7073019D01*
X13996257Y-7073019D02*
X14013093Y-7089855D01*
X14013093Y-7089855D02*
X14029928Y-7099956D01*
X14029928Y-7099956D02*
X14040030Y-7103324D01*
X14040030Y-7103324D02*
X14046764Y-7103324D01*
X14046764Y-7103324D02*
X14056866Y-7099956D01*
X14056866Y-7099956D02*
X14063600Y-7093222D01*
X14063600Y-7093222D02*
X14066967Y-7083121D01*
X14066967Y-7083121D02*
X14066967Y-7076386D01*
X14066967Y-7076386D02*
X14063600Y-7066285D01*
X14063600Y-7066285D02*
X14053499Y-7049449D01*
X14053499Y-7049449D02*
X14036663Y-7032613D01*
X14036663Y-7032613D02*
X14019827Y-7022511D01*
X14019827Y-7022511D02*
X14009725Y-7019144D01*
X14009725Y-7019144D02*
X14002991Y-7019144D01*
X14002991Y-7019144D02*
X13992890Y-7022511D01*
X13945749Y-7069652D02*
X13901976Y-7113425D01*
X13901976Y-7113425D02*
X13952483Y-7116792D01*
X13952483Y-7116792D02*
X13942382Y-7126894D01*
X13942382Y-7126894D02*
X13939015Y-7136995D01*
X13939015Y-7136995D02*
X13939015Y-7143730D01*
X13939015Y-7143730D02*
X13942382Y-7153831D01*
X13942382Y-7153831D02*
X13959218Y-7170667D01*
X13959218Y-7170667D02*
X13969319Y-7174034D01*
X13969319Y-7174034D02*
X13976054Y-7174034D01*
X13976054Y-7174034D02*
X13986155Y-7170667D01*
X13986155Y-7170667D02*
X14006358Y-7150464D01*
X14006358Y-7150464D02*
X14009725Y-7140363D01*
X14009725Y-7140363D02*
X14009725Y-7133628D01*
X13881773Y-7147097D02*
X13875038Y-7147097D01*
X13875038Y-7147097D02*
X13864937Y-7150464D01*
X13864937Y-7150464D02*
X13848101Y-7167300D01*
X13848101Y-7167300D02*
X13844734Y-7177401D01*
X13844734Y-7177401D02*
X13844734Y-7184136D01*
X13844734Y-7184136D02*
X13848101Y-7194237D01*
X13848101Y-7194237D02*
X13854835Y-7200972D01*
X13854835Y-7200972D02*
X13868304Y-7207706D01*
X13868304Y-7207706D02*
X13949116Y-7207706D01*
X13949116Y-7207706D02*
X13905343Y-7251479D01*
X15187765Y-8085596D02*
X15181031Y-8099065D01*
X15181031Y-8099065D02*
X15181031Y-8105799D01*
X15181031Y-8105799D02*
X15184398Y-8115901D01*
X15184398Y-8115901D02*
X15194500Y-8126002D01*
X15194500Y-8126002D02*
X15204601Y-8129369D01*
X15204601Y-8129369D02*
X15211336Y-8129369D01*
X15211336Y-8129369D02*
X15221437Y-8126002D01*
X15221437Y-8126002D02*
X15248374Y-8099065D01*
X15248374Y-8099065D02*
X15177664Y-8028354D01*
X15177664Y-8028354D02*
X15154094Y-8051924D01*
X15154094Y-8051924D02*
X15150726Y-8062026D01*
X15150726Y-8062026D02*
X15150726Y-8068760D01*
X15150726Y-8068760D02*
X15154094Y-8078862D01*
X15154094Y-8078862D02*
X15160828Y-8085596D01*
X15160828Y-8085596D02*
X15170929Y-8088963D01*
X15170929Y-8088963D02*
X15177664Y-8088963D01*
X15177664Y-8088963D02*
X15187765Y-8085596D01*
X15187765Y-8085596D02*
X15211336Y-8062026D01*
X15117055Y-8088963D02*
X15076649Y-8129369D01*
X15167562Y-8179877D02*
X15096852Y-8109166D01*
X15086750Y-8260689D02*
X15127156Y-8220283D01*
X15106953Y-8240486D02*
X15036242Y-8169775D01*
X15036242Y-8169775D02*
X15053078Y-8173143D01*
X15053078Y-8173143D02*
X15066547Y-8173143D01*
X15066547Y-8173143D02*
X15076649Y-8169775D01*
X17513567Y-3629787D02*
X17520301Y-3629787D01*
X17520301Y-3629787D02*
X17533770Y-3623052D01*
X17533770Y-3623052D02*
X17540505Y-3616318D01*
X17540505Y-3616318D02*
X17547239Y-3602849D01*
X17547239Y-3602849D02*
X17547239Y-3589380D01*
X17547239Y-3589380D02*
X17543872Y-3579279D01*
X17543872Y-3579279D02*
X17533770Y-3562443D01*
X17533770Y-3562443D02*
X17523669Y-3552342D01*
X17523669Y-3552342D02*
X17506833Y-3542240D01*
X17506833Y-3542240D02*
X17496731Y-3538873D01*
X17496731Y-3538873D02*
X17483263Y-3538873D01*
X17483263Y-3538873D02*
X17469794Y-3545607D01*
X17469794Y-3545607D02*
X17463059Y-3552342D01*
X17463059Y-3552342D02*
X17456325Y-3565810D01*
X17456325Y-3565810D02*
X17456325Y-3572545D01*
X17449591Y-3707232D02*
X17439489Y-3649990D01*
X17489997Y-3666826D02*
X17419286Y-3596115D01*
X17419286Y-3596115D02*
X17392349Y-3623052D01*
X17392349Y-3623052D02*
X17388982Y-3633154D01*
X17388982Y-3633154D02*
X17388982Y-3639888D01*
X17388982Y-3639888D02*
X17392349Y-3649990D01*
X17392349Y-3649990D02*
X17402450Y-3660091D01*
X17402450Y-3660091D02*
X17412552Y-3663458D01*
X17412552Y-3663458D02*
X17419286Y-3663458D01*
X17419286Y-3663458D02*
X17429388Y-3660091D01*
X17429388Y-3660091D02*
X17456325Y-3633154D01*
X17358677Y-3670193D02*
X17351943Y-3670193D01*
X17351943Y-3670193D02*
X17341841Y-3673560D01*
X17341841Y-3673560D02*
X17325005Y-3690396D01*
X17325005Y-3690396D02*
X17321638Y-3700497D01*
X17321638Y-3700497D02*
X17321638Y-3707232D01*
X17321638Y-3707232D02*
X17325005Y-3717333D01*
X17325005Y-3717333D02*
X17331740Y-3724068D01*
X17331740Y-3724068D02*
X17345208Y-3730802D01*
X17345208Y-3730802D02*
X17426021Y-3730802D01*
X17426021Y-3730802D02*
X17382247Y-3774575D01*
X17267763Y-3747638D02*
X17261029Y-3754372D01*
X17261029Y-3754372D02*
X17257662Y-3764474D01*
X17257662Y-3764474D02*
X17257662Y-3771208D01*
X17257662Y-3771208D02*
X17261029Y-3781309D01*
X17261029Y-3781309D02*
X17271131Y-3798145D01*
X17271131Y-3798145D02*
X17287966Y-3814981D01*
X17287966Y-3814981D02*
X17304802Y-3825083D01*
X17304802Y-3825083D02*
X17314904Y-3828450D01*
X17314904Y-3828450D02*
X17321638Y-3828450D01*
X17321638Y-3828450D02*
X17331740Y-3825083D01*
X17331740Y-3825083D02*
X17338474Y-3818348D01*
X17338474Y-3818348D02*
X17341841Y-3808247D01*
X17341841Y-3808247D02*
X17341841Y-3801513D01*
X17341841Y-3801513D02*
X17338474Y-3791411D01*
X17338474Y-3791411D02*
X17328372Y-3774575D01*
X17328372Y-3774575D02*
X17311537Y-3757739D01*
X17311537Y-3757739D02*
X17294701Y-3747638D01*
X17294701Y-3747638D02*
X17284599Y-3744271D01*
X17284599Y-3744271D02*
X17277865Y-3744271D01*
X17277865Y-3744271D02*
X17267763Y-3747638D01*
X17220623Y-3794778D02*
X17176850Y-3838551D01*
X17176850Y-3838551D02*
X17227357Y-3841919D01*
X17227357Y-3841919D02*
X17217256Y-3852020D01*
X17217256Y-3852020D02*
X17213889Y-3862122D01*
X17213889Y-3862122D02*
X17213889Y-3868856D01*
X17213889Y-3868856D02*
X17217256Y-3878958D01*
X17217256Y-3878958D02*
X17234092Y-3895793D01*
X17234092Y-3895793D02*
X17244193Y-3899161D01*
X17244193Y-3899161D02*
X17250927Y-3899161D01*
X17250927Y-3899161D02*
X17261029Y-3895793D01*
X17261029Y-3895793D02*
X17281232Y-3875590D01*
X17281232Y-3875590D02*
X17284599Y-3865489D01*
X17284599Y-3865489D02*
X17284599Y-3858755D01*
X17156647Y-3872223D02*
X17149912Y-3872223D01*
X17149912Y-3872223D02*
X17139811Y-3875590D01*
X17139811Y-3875590D02*
X17122975Y-3892426D01*
X17122975Y-3892426D02*
X17119608Y-3902528D01*
X17119608Y-3902528D02*
X17119608Y-3909262D01*
X17119608Y-3909262D02*
X17122975Y-3919364D01*
X17122975Y-3919364D02*
X17129709Y-3926098D01*
X17129709Y-3926098D02*
X17143178Y-3932832D01*
X17143178Y-3932832D02*
X17223990Y-3932832D01*
X17223990Y-3932832D02*
X17180217Y-3976606D01*
X18462639Y-4810722D02*
X18455905Y-4824191D01*
X18455905Y-4824191D02*
X18455905Y-4830925D01*
X18455905Y-4830925D02*
X18459272Y-4841027D01*
X18459272Y-4841027D02*
X18469373Y-4851128D01*
X18469373Y-4851128D02*
X18479475Y-4854496D01*
X18479475Y-4854496D02*
X18486209Y-4854496D01*
X18486209Y-4854496D02*
X18496311Y-4851128D01*
X18496311Y-4851128D02*
X18523248Y-4824191D01*
X18523248Y-4824191D02*
X18452538Y-4753480D01*
X18452538Y-4753480D02*
X18428967Y-4777051D01*
X18428967Y-4777051D02*
X18425600Y-4787152D01*
X18425600Y-4787152D02*
X18425600Y-4793886D01*
X18425600Y-4793886D02*
X18428967Y-4803988D01*
X18428967Y-4803988D02*
X18435702Y-4810722D01*
X18435702Y-4810722D02*
X18445803Y-4814090D01*
X18445803Y-4814090D02*
X18452538Y-4814090D01*
X18452538Y-4814090D02*
X18462639Y-4810722D01*
X18462639Y-4810722D02*
X18486209Y-4787152D01*
X18391928Y-4814090D02*
X18351522Y-4854496D01*
X18442436Y-4905003D02*
X18371725Y-4834293D01*
X18361624Y-4985815D02*
X18402030Y-4945409D01*
X18381827Y-4965612D02*
X18311116Y-4894902D01*
X18311116Y-4894902D02*
X18327952Y-4898269D01*
X18327952Y-4898269D02*
X18341421Y-4898269D01*
X18341421Y-4898269D02*
X18351522Y-4894902D01*
X14238693Y-10179534D02*
X14245428Y-10179534D01*
X14245428Y-10179534D02*
X14258896Y-10172800D01*
X14258896Y-10172800D02*
X14265631Y-10166065D01*
X14265631Y-10166065D02*
X14272365Y-10152597D01*
X14272365Y-10152597D02*
X14272365Y-10139128D01*
X14272365Y-10139128D02*
X14268998Y-10129026D01*
X14268998Y-10129026D02*
X14258896Y-10112191D01*
X14258896Y-10112191D02*
X14248795Y-10102089D01*
X14248795Y-10102089D02*
X14231959Y-10091988D01*
X14231959Y-10091988D02*
X14221857Y-10088620D01*
X14221857Y-10088620D02*
X14208389Y-10088620D01*
X14208389Y-10088620D02*
X14194920Y-10095355D01*
X14194920Y-10095355D02*
X14188186Y-10102089D01*
X14188186Y-10102089D02*
X14181451Y-10115558D01*
X14181451Y-10115558D02*
X14181451Y-10122292D01*
X14174717Y-10256979D02*
X14164615Y-10199737D01*
X14215123Y-10216573D02*
X14144412Y-10145862D01*
X14144412Y-10145862D02*
X14117475Y-10172800D01*
X14117475Y-10172800D02*
X14114108Y-10182901D01*
X14114108Y-10182901D02*
X14114108Y-10189636D01*
X14114108Y-10189636D02*
X14117475Y-10199737D01*
X14117475Y-10199737D02*
X14127577Y-10209839D01*
X14127577Y-10209839D02*
X14137678Y-10213206D01*
X14137678Y-10213206D02*
X14144412Y-10213206D01*
X14144412Y-10213206D02*
X14154514Y-10209839D01*
X14154514Y-10209839D02*
X14181451Y-10182901D01*
X14083803Y-10219940D02*
X14077069Y-10219940D01*
X14077069Y-10219940D02*
X14066967Y-10223307D01*
X14066967Y-10223307D02*
X14050132Y-10240143D01*
X14050132Y-10240143D02*
X14046764Y-10250245D01*
X14046764Y-10250245D02*
X14046764Y-10256979D01*
X14046764Y-10256979D02*
X14050132Y-10267081D01*
X14050132Y-10267081D02*
X14056866Y-10273815D01*
X14056866Y-10273815D02*
X14070335Y-10280549D01*
X14070335Y-10280549D02*
X14151147Y-10280549D01*
X14151147Y-10280549D02*
X14107373Y-10324323D01*
X13992890Y-10297385D02*
X13986155Y-10304120D01*
X13986155Y-10304120D02*
X13982788Y-10314221D01*
X13982788Y-10314221D02*
X13982788Y-10320955D01*
X13982788Y-10320955D02*
X13986155Y-10331057D01*
X13986155Y-10331057D02*
X13996257Y-10347893D01*
X13996257Y-10347893D02*
X14013093Y-10364729D01*
X14013093Y-10364729D02*
X14029928Y-10374830D01*
X14029928Y-10374830D02*
X14040030Y-10378197D01*
X14040030Y-10378197D02*
X14046764Y-10378197D01*
X14046764Y-10378197D02*
X14056866Y-10374830D01*
X14056866Y-10374830D02*
X14063600Y-10368096D01*
X14063600Y-10368096D02*
X14066967Y-10357994D01*
X14066967Y-10357994D02*
X14066967Y-10351260D01*
X14066967Y-10351260D02*
X14063600Y-10341159D01*
X14063600Y-10341159D02*
X14053499Y-10324323D01*
X14053499Y-10324323D02*
X14036663Y-10307487D01*
X14036663Y-10307487D02*
X14019827Y-10297385D01*
X14019827Y-10297385D02*
X14009725Y-10294018D01*
X14009725Y-10294018D02*
X14002991Y-10294018D01*
X14002991Y-10294018D02*
X13992890Y-10297385D01*
X13945749Y-10344526D02*
X13901976Y-10388299D01*
X13901976Y-10388299D02*
X13952483Y-10391666D01*
X13952483Y-10391666D02*
X13942382Y-10401768D01*
X13942382Y-10401768D02*
X13939015Y-10411869D01*
X13939015Y-10411869D02*
X13939015Y-10418604D01*
X13939015Y-10418604D02*
X13942382Y-10428705D01*
X13942382Y-10428705D02*
X13959218Y-10445541D01*
X13959218Y-10445541D02*
X13969319Y-10448908D01*
X13969319Y-10448908D02*
X13976054Y-10448908D01*
X13976054Y-10448908D02*
X13986155Y-10445541D01*
X13986155Y-10445541D02*
X14006358Y-10425338D01*
X14006358Y-10425338D02*
X14009725Y-10415236D01*
X14009725Y-10415236D02*
X14009725Y-10408502D01*
X13881773Y-10421971D02*
X13875038Y-10421971D01*
X13875038Y-10421971D02*
X13864937Y-10425338D01*
X13864937Y-10425338D02*
X13848101Y-10442174D01*
X13848101Y-10442174D02*
X13844734Y-10452275D01*
X13844734Y-10452275D02*
X13844734Y-10459010D01*
X13844734Y-10459010D02*
X13848101Y-10469111D01*
X13848101Y-10469111D02*
X13854835Y-10475846D01*
X13854835Y-10475846D02*
X13868304Y-10482580D01*
X13868304Y-10482580D02*
X13949116Y-10482580D01*
X13949116Y-10482580D02*
X13905343Y-10526353D01*
X15187765Y-11360470D02*
X15181031Y-11373938D01*
X15181031Y-11373938D02*
X15181031Y-11380673D01*
X15181031Y-11380673D02*
X15184398Y-11390774D01*
X15184398Y-11390774D02*
X15194500Y-11400876D01*
X15194500Y-11400876D02*
X15204601Y-11404243D01*
X15204601Y-11404243D02*
X15211336Y-11404243D01*
X15211336Y-11404243D02*
X15221437Y-11400876D01*
X15221437Y-11400876D02*
X15248374Y-11373938D01*
X15248374Y-11373938D02*
X15177664Y-11303228D01*
X15177664Y-11303228D02*
X15154094Y-11326798D01*
X15154094Y-11326798D02*
X15150726Y-11336899D01*
X15150726Y-11336899D02*
X15150726Y-11343634D01*
X15150726Y-11343634D02*
X15154094Y-11353735D01*
X15154094Y-11353735D02*
X15160828Y-11360470D01*
X15160828Y-11360470D02*
X15170929Y-11363837D01*
X15170929Y-11363837D02*
X15177664Y-11363837D01*
X15177664Y-11363837D02*
X15187765Y-11360470D01*
X15187765Y-11360470D02*
X15211336Y-11336899D01*
X15117055Y-11363837D02*
X15076649Y-11404243D01*
X15167562Y-11454751D02*
X15096852Y-11384040D01*
X15086750Y-11535563D02*
X15127156Y-11495157D01*
X15106953Y-11515360D02*
X15036242Y-11444649D01*
X15036242Y-11444649D02*
X15053078Y-11448016D01*
X15053078Y-11448016D02*
X15066547Y-11448016D01*
X15066547Y-11448016D02*
X15076649Y-11444649D01*
X10963820Y-6904660D02*
X10970554Y-6904660D01*
X10970554Y-6904660D02*
X10984023Y-6897926D01*
X10984023Y-6897926D02*
X10990757Y-6891192D01*
X10990757Y-6891192D02*
X10997491Y-6877723D01*
X10997491Y-6877723D02*
X10997491Y-6864254D01*
X10997491Y-6864254D02*
X10994124Y-6854153D01*
X10994124Y-6854153D02*
X10984023Y-6837317D01*
X10984023Y-6837317D02*
X10973921Y-6827215D01*
X10973921Y-6827215D02*
X10957085Y-6817114D01*
X10957085Y-6817114D02*
X10946984Y-6813747D01*
X10946984Y-6813747D02*
X10933515Y-6813747D01*
X10933515Y-6813747D02*
X10920046Y-6820481D01*
X10920046Y-6820481D02*
X10913312Y-6827215D01*
X10913312Y-6827215D02*
X10906578Y-6840684D01*
X10906578Y-6840684D02*
X10906578Y-6847418D01*
X10899843Y-6982105D02*
X10889742Y-6924863D01*
X10940250Y-6941699D02*
X10869539Y-6870989D01*
X10869539Y-6870989D02*
X10842601Y-6897926D01*
X10842601Y-6897926D02*
X10839234Y-6908027D01*
X10839234Y-6908027D02*
X10839234Y-6914762D01*
X10839234Y-6914762D02*
X10842601Y-6924863D01*
X10842601Y-6924863D02*
X10852703Y-6934965D01*
X10852703Y-6934965D02*
X10862804Y-6938332D01*
X10862804Y-6938332D02*
X10869539Y-6938332D01*
X10869539Y-6938332D02*
X10879640Y-6934965D01*
X10879640Y-6934965D02*
X10906578Y-6908027D01*
X10808930Y-6945066D02*
X10802195Y-6945066D01*
X10802195Y-6945066D02*
X10792094Y-6948434D01*
X10792094Y-6948434D02*
X10775258Y-6965269D01*
X10775258Y-6965269D02*
X10771891Y-6975371D01*
X10771891Y-6975371D02*
X10771891Y-6982105D01*
X10771891Y-6982105D02*
X10775258Y-6992207D01*
X10775258Y-6992207D02*
X10781992Y-6998941D01*
X10781992Y-6998941D02*
X10795461Y-7005676D01*
X10795461Y-7005676D02*
X10876273Y-7005676D01*
X10876273Y-7005676D02*
X10832500Y-7049449D01*
X10718016Y-7022511D02*
X10711282Y-7029246D01*
X10711282Y-7029246D02*
X10707914Y-7039347D01*
X10707914Y-7039347D02*
X10707914Y-7046082D01*
X10707914Y-7046082D02*
X10711282Y-7056183D01*
X10711282Y-7056183D02*
X10721383Y-7073019D01*
X10721383Y-7073019D02*
X10738219Y-7089855D01*
X10738219Y-7089855D02*
X10755055Y-7099956D01*
X10755055Y-7099956D02*
X10765156Y-7103324D01*
X10765156Y-7103324D02*
X10771891Y-7103324D01*
X10771891Y-7103324D02*
X10781992Y-7099956D01*
X10781992Y-7099956D02*
X10788727Y-7093222D01*
X10788727Y-7093222D02*
X10792094Y-7083121D01*
X10792094Y-7083121D02*
X10792094Y-7076386D01*
X10792094Y-7076386D02*
X10788727Y-7066285D01*
X10788727Y-7066285D02*
X10778625Y-7049449D01*
X10778625Y-7049449D02*
X10761789Y-7032613D01*
X10761789Y-7032613D02*
X10744953Y-7022511D01*
X10744953Y-7022511D02*
X10734852Y-7019144D01*
X10734852Y-7019144D02*
X10728117Y-7019144D01*
X10728117Y-7019144D02*
X10718016Y-7022511D01*
X10670875Y-7069652D02*
X10627102Y-7113425D01*
X10627102Y-7113425D02*
X10677610Y-7116792D01*
X10677610Y-7116792D02*
X10667508Y-7126894D01*
X10667508Y-7126894D02*
X10664141Y-7136995D01*
X10664141Y-7136995D02*
X10664141Y-7143730D01*
X10664141Y-7143730D02*
X10667508Y-7153831D01*
X10667508Y-7153831D02*
X10684344Y-7170667D01*
X10684344Y-7170667D02*
X10694446Y-7174034D01*
X10694446Y-7174034D02*
X10701180Y-7174034D01*
X10701180Y-7174034D02*
X10711282Y-7170667D01*
X10711282Y-7170667D02*
X10731485Y-7150464D01*
X10731485Y-7150464D02*
X10734852Y-7140363D01*
X10734852Y-7140363D02*
X10734852Y-7133628D01*
X10606899Y-7147097D02*
X10600165Y-7147097D01*
X10600165Y-7147097D02*
X10590063Y-7150464D01*
X10590063Y-7150464D02*
X10573227Y-7167300D01*
X10573227Y-7167300D02*
X10569860Y-7177401D01*
X10569860Y-7177401D02*
X10569860Y-7184136D01*
X10569860Y-7184136D02*
X10573227Y-7194237D01*
X10573227Y-7194237D02*
X10579962Y-7200972D01*
X10579962Y-7200972D02*
X10593430Y-7207706D01*
X10593430Y-7207706D02*
X10674243Y-7207706D01*
X10674243Y-7207706D02*
X10630469Y-7251479D01*
X11912892Y-8085596D02*
X11906157Y-8099065D01*
X11906157Y-8099065D02*
X11906157Y-8105799D01*
X11906157Y-8105799D02*
X11909524Y-8115901D01*
X11909524Y-8115901D02*
X11919626Y-8126002D01*
X11919626Y-8126002D02*
X11929728Y-8129369D01*
X11929728Y-8129369D02*
X11936462Y-8129369D01*
X11936462Y-8129369D02*
X11946563Y-8126002D01*
X11946563Y-8126002D02*
X11973501Y-8099065D01*
X11973501Y-8099065D02*
X11902790Y-8028354D01*
X11902790Y-8028354D02*
X11879220Y-8051924D01*
X11879220Y-8051924D02*
X11875853Y-8062026D01*
X11875853Y-8062026D02*
X11875853Y-8068760D01*
X11875853Y-8068760D02*
X11879220Y-8078862D01*
X11879220Y-8078862D02*
X11885954Y-8085596D01*
X11885954Y-8085596D02*
X11896056Y-8088963D01*
X11896056Y-8088963D02*
X11902790Y-8088963D01*
X11902790Y-8088963D02*
X11912892Y-8085596D01*
X11912892Y-8085596D02*
X11936462Y-8062026D01*
X11842181Y-8088963D02*
X11801775Y-8129369D01*
X11892689Y-8179877D02*
X11821978Y-8109166D01*
X11811876Y-8260689D02*
X11852282Y-8220283D01*
X11832079Y-8240486D02*
X11761369Y-8169775D01*
X11761369Y-8169775D02*
X11778205Y-8173143D01*
X11778205Y-8173143D02*
X11791673Y-8173143D01*
X11791673Y-8173143D02*
X11801775Y-8169775D01*
X17513567Y-6904660D02*
X17520301Y-6904660D01*
X17520301Y-6904660D02*
X17533770Y-6897926D01*
X17533770Y-6897926D02*
X17540505Y-6891192D01*
X17540505Y-6891192D02*
X17547239Y-6877723D01*
X17547239Y-6877723D02*
X17547239Y-6864254D01*
X17547239Y-6864254D02*
X17543872Y-6854153D01*
X17543872Y-6854153D02*
X17533770Y-6837317D01*
X17533770Y-6837317D02*
X17523669Y-6827215D01*
X17523669Y-6827215D02*
X17506833Y-6817114D01*
X17506833Y-6817114D02*
X17496731Y-6813747D01*
X17496731Y-6813747D02*
X17483263Y-6813747D01*
X17483263Y-6813747D02*
X17469794Y-6820481D01*
X17469794Y-6820481D02*
X17463059Y-6827215D01*
X17463059Y-6827215D02*
X17456325Y-6840684D01*
X17456325Y-6840684D02*
X17456325Y-6847418D01*
X17449591Y-6982105D02*
X17439489Y-6924863D01*
X17489997Y-6941699D02*
X17419286Y-6870989D01*
X17419286Y-6870989D02*
X17392349Y-6897926D01*
X17392349Y-6897926D02*
X17388982Y-6908027D01*
X17388982Y-6908027D02*
X17388982Y-6914762D01*
X17388982Y-6914762D02*
X17392349Y-6924863D01*
X17392349Y-6924863D02*
X17402450Y-6934965D01*
X17402450Y-6934965D02*
X17412552Y-6938332D01*
X17412552Y-6938332D02*
X17419286Y-6938332D01*
X17419286Y-6938332D02*
X17429388Y-6934965D01*
X17429388Y-6934965D02*
X17456325Y-6908027D01*
X17358677Y-6945066D02*
X17351943Y-6945066D01*
X17351943Y-6945066D02*
X17341841Y-6948434D01*
X17341841Y-6948434D02*
X17325005Y-6965269D01*
X17325005Y-6965269D02*
X17321638Y-6975371D01*
X17321638Y-6975371D02*
X17321638Y-6982105D01*
X17321638Y-6982105D02*
X17325005Y-6992207D01*
X17325005Y-6992207D02*
X17331740Y-6998941D01*
X17331740Y-6998941D02*
X17345208Y-7005676D01*
X17345208Y-7005676D02*
X17426021Y-7005676D01*
X17426021Y-7005676D02*
X17382247Y-7049449D01*
X17267763Y-7022511D02*
X17261029Y-7029246D01*
X17261029Y-7029246D02*
X17257662Y-7039347D01*
X17257662Y-7039347D02*
X17257662Y-7046082D01*
X17257662Y-7046082D02*
X17261029Y-7056183D01*
X17261029Y-7056183D02*
X17271131Y-7073019D01*
X17271131Y-7073019D02*
X17287966Y-7089855D01*
X17287966Y-7089855D02*
X17304802Y-7099956D01*
X17304802Y-7099956D02*
X17314904Y-7103324D01*
X17314904Y-7103324D02*
X17321638Y-7103324D01*
X17321638Y-7103324D02*
X17331740Y-7099956D01*
X17331740Y-7099956D02*
X17338474Y-7093222D01*
X17338474Y-7093222D02*
X17341841Y-7083121D01*
X17341841Y-7083121D02*
X17341841Y-7076386D01*
X17341841Y-7076386D02*
X17338474Y-7066285D01*
X17338474Y-7066285D02*
X17328372Y-7049449D01*
X17328372Y-7049449D02*
X17311537Y-7032613D01*
X17311537Y-7032613D02*
X17294701Y-7022511D01*
X17294701Y-7022511D02*
X17284599Y-7019144D01*
X17284599Y-7019144D02*
X17277865Y-7019144D01*
X17277865Y-7019144D02*
X17267763Y-7022511D01*
X17220623Y-7069652D02*
X17176850Y-7113425D01*
X17176850Y-7113425D02*
X17227357Y-7116792D01*
X17227357Y-7116792D02*
X17217256Y-7126894D01*
X17217256Y-7126894D02*
X17213889Y-7136995D01*
X17213889Y-7136995D02*
X17213889Y-7143730D01*
X17213889Y-7143730D02*
X17217256Y-7153831D01*
X17217256Y-7153831D02*
X17234092Y-7170667D01*
X17234092Y-7170667D02*
X17244193Y-7174034D01*
X17244193Y-7174034D02*
X17250927Y-7174034D01*
X17250927Y-7174034D02*
X17261029Y-7170667D01*
X17261029Y-7170667D02*
X17281232Y-7150464D01*
X17281232Y-7150464D02*
X17284599Y-7140363D01*
X17284599Y-7140363D02*
X17284599Y-7133628D01*
X17156647Y-7147097D02*
X17149912Y-7147097D01*
X17149912Y-7147097D02*
X17139811Y-7150464D01*
X17139811Y-7150464D02*
X17122975Y-7167300D01*
X17122975Y-7167300D02*
X17119608Y-7177401D01*
X17119608Y-7177401D02*
X17119608Y-7184136D01*
X17119608Y-7184136D02*
X17122975Y-7194237D01*
X17122975Y-7194237D02*
X17129709Y-7200972D01*
X17129709Y-7200972D02*
X17143178Y-7207706D01*
X17143178Y-7207706D02*
X17223990Y-7207706D01*
X17223990Y-7207706D02*
X17180217Y-7251479D01*
X18462639Y-8085596D02*
X18455905Y-8099065D01*
X18455905Y-8099065D02*
X18455905Y-8105799D01*
X18455905Y-8105799D02*
X18459272Y-8115901D01*
X18459272Y-8115901D02*
X18469373Y-8126002D01*
X18469373Y-8126002D02*
X18479475Y-8129369D01*
X18479475Y-8129369D02*
X18486209Y-8129369D01*
X18486209Y-8129369D02*
X18496311Y-8126002D01*
X18496311Y-8126002D02*
X18523248Y-8099065D01*
X18523248Y-8099065D02*
X18452538Y-8028354D01*
X18452538Y-8028354D02*
X18428967Y-8051924D01*
X18428967Y-8051924D02*
X18425600Y-8062026D01*
X18425600Y-8062026D02*
X18425600Y-8068760D01*
X18425600Y-8068760D02*
X18428967Y-8078862D01*
X18428967Y-8078862D02*
X18435702Y-8085596D01*
X18435702Y-8085596D02*
X18445803Y-8088963D01*
X18445803Y-8088963D02*
X18452538Y-8088963D01*
X18452538Y-8088963D02*
X18462639Y-8085596D01*
X18462639Y-8085596D02*
X18486209Y-8062026D01*
X18391928Y-8088963D02*
X18351522Y-8129369D01*
X18442436Y-8179877D02*
X18371725Y-8109166D01*
X18361624Y-8260689D02*
X18402030Y-8220283D01*
X18381827Y-8240486D02*
X18311116Y-8169775D01*
X18311116Y-8169775D02*
X18327952Y-8173143D01*
X18327952Y-8173143D02*
X18341421Y-8173143D01*
X18341421Y-8173143D02*
X18351522Y-8169775D01*
X10963820Y-10179534D02*
X10970554Y-10179534D01*
X10970554Y-10179534D02*
X10984023Y-10172800D01*
X10984023Y-10172800D02*
X10990757Y-10166065D01*
X10990757Y-10166065D02*
X10997491Y-10152597D01*
X10997491Y-10152597D02*
X10997491Y-10139128D01*
X10997491Y-10139128D02*
X10994124Y-10129026D01*
X10994124Y-10129026D02*
X10984023Y-10112191D01*
X10984023Y-10112191D02*
X10973921Y-10102089D01*
X10973921Y-10102089D02*
X10957085Y-10091988D01*
X10957085Y-10091988D02*
X10946984Y-10088620D01*
X10946984Y-10088620D02*
X10933515Y-10088620D01*
X10933515Y-10088620D02*
X10920046Y-10095355D01*
X10920046Y-10095355D02*
X10913312Y-10102089D01*
X10913312Y-10102089D02*
X10906578Y-10115558D01*
X10906578Y-10115558D02*
X10906578Y-10122292D01*
X10899843Y-10256979D02*
X10889742Y-10199737D01*
X10940250Y-10216573D02*
X10869539Y-10145862D01*
X10869539Y-10145862D02*
X10842601Y-10172800D01*
X10842601Y-10172800D02*
X10839234Y-10182901D01*
X10839234Y-10182901D02*
X10839234Y-10189636D01*
X10839234Y-10189636D02*
X10842601Y-10199737D01*
X10842601Y-10199737D02*
X10852703Y-10209839D01*
X10852703Y-10209839D02*
X10862804Y-10213206D01*
X10862804Y-10213206D02*
X10869539Y-10213206D01*
X10869539Y-10213206D02*
X10879640Y-10209839D01*
X10879640Y-10209839D02*
X10906578Y-10182901D01*
X10808930Y-10219940D02*
X10802195Y-10219940D01*
X10802195Y-10219940D02*
X10792094Y-10223307D01*
X10792094Y-10223307D02*
X10775258Y-10240143D01*
X10775258Y-10240143D02*
X10771891Y-10250245D01*
X10771891Y-10250245D02*
X10771891Y-10256979D01*
X10771891Y-10256979D02*
X10775258Y-10267081D01*
X10775258Y-10267081D02*
X10781992Y-10273815D01*
X10781992Y-10273815D02*
X10795461Y-10280549D01*
X10795461Y-10280549D02*
X10876273Y-10280549D01*
X10876273Y-10280549D02*
X10832500Y-10324323D01*
X10718016Y-10297385D02*
X10711282Y-10304120D01*
X10711282Y-10304120D02*
X10707914Y-10314221D01*
X10707914Y-10314221D02*
X10707914Y-10320955D01*
X10707914Y-10320955D02*
X10711282Y-10331057D01*
X10711282Y-10331057D02*
X10721383Y-10347893D01*
X10721383Y-10347893D02*
X10738219Y-10364729D01*
X10738219Y-10364729D02*
X10755055Y-10374830D01*
X10755055Y-10374830D02*
X10765156Y-10378197D01*
X10765156Y-10378197D02*
X10771891Y-10378197D01*
X10771891Y-10378197D02*
X10781992Y-10374830D01*
X10781992Y-10374830D02*
X10788727Y-10368096D01*
X10788727Y-10368096D02*
X10792094Y-10357994D01*
X10792094Y-10357994D02*
X10792094Y-10351260D01*
X10792094Y-10351260D02*
X10788727Y-10341159D01*
X10788727Y-10341159D02*
X10778625Y-10324323D01*
X10778625Y-10324323D02*
X10761789Y-10307487D01*
X10761789Y-10307487D02*
X10744953Y-10297385D01*
X10744953Y-10297385D02*
X10734852Y-10294018D01*
X10734852Y-10294018D02*
X10728117Y-10294018D01*
X10728117Y-10294018D02*
X10718016Y-10297385D01*
X10670875Y-10344526D02*
X10627102Y-10388299D01*
X10627102Y-10388299D02*
X10677610Y-10391666D01*
X10677610Y-10391666D02*
X10667508Y-10401768D01*
X10667508Y-10401768D02*
X10664141Y-10411869D01*
X10664141Y-10411869D02*
X10664141Y-10418604D01*
X10664141Y-10418604D02*
X10667508Y-10428705D01*
X10667508Y-10428705D02*
X10684344Y-10445541D01*
X10684344Y-10445541D02*
X10694446Y-10448908D01*
X10694446Y-10448908D02*
X10701180Y-10448908D01*
X10701180Y-10448908D02*
X10711282Y-10445541D01*
X10711282Y-10445541D02*
X10731485Y-10425338D01*
X10731485Y-10425338D02*
X10734852Y-10415236D01*
X10734852Y-10415236D02*
X10734852Y-10408502D01*
X10606899Y-10421971D02*
X10600165Y-10421971D01*
X10600165Y-10421971D02*
X10590063Y-10425338D01*
X10590063Y-10425338D02*
X10573227Y-10442174D01*
X10573227Y-10442174D02*
X10569860Y-10452275D01*
X10569860Y-10452275D02*
X10569860Y-10459010D01*
X10569860Y-10459010D02*
X10573227Y-10469111D01*
X10573227Y-10469111D02*
X10579962Y-10475846D01*
X10579962Y-10475846D02*
X10593430Y-10482580D01*
X10593430Y-10482580D02*
X10674243Y-10482580D01*
X10674243Y-10482580D02*
X10630469Y-10526353D01*
X11912892Y-11360470D02*
X11906157Y-11373938D01*
X11906157Y-11373938D02*
X11906157Y-11380673D01*
X11906157Y-11380673D02*
X11909524Y-11390774D01*
X11909524Y-11390774D02*
X11919626Y-11400876D01*
X11919626Y-11400876D02*
X11929728Y-11404243D01*
X11929728Y-11404243D02*
X11936462Y-11404243D01*
X11936462Y-11404243D02*
X11946563Y-11400876D01*
X11946563Y-11400876D02*
X11973501Y-11373938D01*
X11973501Y-11373938D02*
X11902790Y-11303228D01*
X11902790Y-11303228D02*
X11879220Y-11326798D01*
X11879220Y-11326798D02*
X11875853Y-11336899D01*
X11875853Y-11336899D02*
X11875853Y-11343634D01*
X11875853Y-11343634D02*
X11879220Y-11353735D01*
X11879220Y-11353735D02*
X11885954Y-11360470D01*
X11885954Y-11360470D02*
X11896056Y-11363837D01*
X11896056Y-11363837D02*
X11902790Y-11363837D01*
X11902790Y-11363837D02*
X11912892Y-11360470D01*
X11912892Y-11360470D02*
X11936462Y-11336899D01*
X11842181Y-11363837D02*
X11801775Y-11404243D01*
X11892689Y-11454751D02*
X11821978Y-11384040D01*
X11811876Y-11535563D02*
X11852282Y-11495157D01*
X11832079Y-11515360D02*
X11761369Y-11444649D01*
X11761369Y-11444649D02*
X11778205Y-11448016D01*
X11778205Y-11448016D02*
X11791673Y-11448016D01*
X11791673Y-11448016D02*
X11801775Y-11444649D01*
X14238693Y-3629787D02*
X14245428Y-3629787D01*
X14245428Y-3629787D02*
X14258896Y-3623052D01*
X14258896Y-3623052D02*
X14265631Y-3616318D01*
X14265631Y-3616318D02*
X14272365Y-3602849D01*
X14272365Y-3602849D02*
X14272365Y-3589380D01*
X14272365Y-3589380D02*
X14268998Y-3579279D01*
X14268998Y-3579279D02*
X14258896Y-3562443D01*
X14258896Y-3562443D02*
X14248795Y-3552342D01*
X14248795Y-3552342D02*
X14231959Y-3542240D01*
X14231959Y-3542240D02*
X14221857Y-3538873D01*
X14221857Y-3538873D02*
X14208389Y-3538873D01*
X14208389Y-3538873D02*
X14194920Y-3545607D01*
X14194920Y-3545607D02*
X14188186Y-3552342D01*
X14188186Y-3552342D02*
X14181451Y-3565810D01*
X14181451Y-3565810D02*
X14181451Y-3572545D01*
X14174717Y-3707232D02*
X14164615Y-3649990D01*
X14215123Y-3666826D02*
X14144412Y-3596115D01*
X14144412Y-3596115D02*
X14117475Y-3623052D01*
X14117475Y-3623052D02*
X14114108Y-3633154D01*
X14114108Y-3633154D02*
X14114108Y-3639888D01*
X14114108Y-3639888D02*
X14117475Y-3649990D01*
X14117475Y-3649990D02*
X14127577Y-3660091D01*
X14127577Y-3660091D02*
X14137678Y-3663458D01*
X14137678Y-3663458D02*
X14144412Y-3663458D01*
X14144412Y-3663458D02*
X14154514Y-3660091D01*
X14154514Y-3660091D02*
X14181451Y-3633154D01*
X14083803Y-3670193D02*
X14077069Y-3670193D01*
X14077069Y-3670193D02*
X14066967Y-3673560D01*
X14066967Y-3673560D02*
X14050132Y-3690396D01*
X14050132Y-3690396D02*
X14046764Y-3700497D01*
X14046764Y-3700497D02*
X14046764Y-3707232D01*
X14046764Y-3707232D02*
X14050132Y-3717333D01*
X14050132Y-3717333D02*
X14056866Y-3724068D01*
X14056866Y-3724068D02*
X14070335Y-3730802D01*
X14070335Y-3730802D02*
X14151147Y-3730802D01*
X14151147Y-3730802D02*
X14107373Y-3774575D01*
X13992890Y-3747638D02*
X13986155Y-3754372D01*
X13986155Y-3754372D02*
X13982788Y-3764474D01*
X13982788Y-3764474D02*
X13982788Y-3771208D01*
X13982788Y-3771208D02*
X13986155Y-3781309D01*
X13986155Y-3781309D02*
X13996257Y-3798145D01*
X13996257Y-3798145D02*
X14013093Y-3814981D01*
X14013093Y-3814981D02*
X14029928Y-3825083D01*
X14029928Y-3825083D02*
X14040030Y-3828450D01*
X14040030Y-3828450D02*
X14046764Y-3828450D01*
X14046764Y-3828450D02*
X14056866Y-3825083D01*
X14056866Y-3825083D02*
X14063600Y-3818348D01*
X14063600Y-3818348D02*
X14066967Y-3808247D01*
X14066967Y-3808247D02*
X14066967Y-3801513D01*
X14066967Y-3801513D02*
X14063600Y-3791411D01*
X14063600Y-3791411D02*
X14053499Y-3774575D01*
X14053499Y-3774575D02*
X14036663Y-3757739D01*
X14036663Y-3757739D02*
X14019827Y-3747638D01*
X14019827Y-3747638D02*
X14009725Y-3744271D01*
X14009725Y-3744271D02*
X14002991Y-3744271D01*
X14002991Y-3744271D02*
X13992890Y-3747638D01*
X13945749Y-3794778D02*
X13901976Y-3838551D01*
X13901976Y-3838551D02*
X13952483Y-3841919D01*
X13952483Y-3841919D02*
X13942382Y-3852020D01*
X13942382Y-3852020D02*
X13939015Y-3862122D01*
X13939015Y-3862122D02*
X13939015Y-3868856D01*
X13939015Y-3868856D02*
X13942382Y-3878958D01*
X13942382Y-3878958D02*
X13959218Y-3895793D01*
X13959218Y-3895793D02*
X13969319Y-3899161D01*
X13969319Y-3899161D02*
X13976054Y-3899161D01*
X13976054Y-3899161D02*
X13986155Y-3895793D01*
X13986155Y-3895793D02*
X14006358Y-3875590D01*
X14006358Y-3875590D02*
X14009725Y-3865489D01*
X14009725Y-3865489D02*
X14009725Y-3858755D01*
X13881773Y-3872223D02*
X13875038Y-3872223D01*
X13875038Y-3872223D02*
X13864937Y-3875590D01*
X13864937Y-3875590D02*
X13848101Y-3892426D01*
X13848101Y-3892426D02*
X13844734Y-3902528D01*
X13844734Y-3902528D02*
X13844734Y-3909262D01*
X13844734Y-3909262D02*
X13848101Y-3919364D01*
X13848101Y-3919364D02*
X13854835Y-3926098D01*
X13854835Y-3926098D02*
X13868304Y-3932832D01*
X13868304Y-3932832D02*
X13949116Y-3932832D01*
X13949116Y-3932832D02*
X13905343Y-3976606D01*
X15187765Y-4810722D02*
X15181031Y-4824191D01*
X15181031Y-4824191D02*
X15181031Y-4830925D01*
X15181031Y-4830925D02*
X15184398Y-4841027D01*
X15184398Y-4841027D02*
X15194500Y-4851128D01*
X15194500Y-4851128D02*
X15204601Y-4854496D01*
X15204601Y-4854496D02*
X15211336Y-4854496D01*
X15211336Y-4854496D02*
X15221437Y-4851128D01*
X15221437Y-4851128D02*
X15248374Y-4824191D01*
X15248374Y-4824191D02*
X15177664Y-4753480D01*
X15177664Y-4753480D02*
X15154094Y-4777051D01*
X15154094Y-4777051D02*
X15150726Y-4787152D01*
X15150726Y-4787152D02*
X15150726Y-4793886D01*
X15150726Y-4793886D02*
X15154094Y-4803988D01*
X15154094Y-4803988D02*
X15160828Y-4810722D01*
X15160828Y-4810722D02*
X15170929Y-4814090D01*
X15170929Y-4814090D02*
X15177664Y-4814090D01*
X15177664Y-4814090D02*
X15187765Y-4810722D01*
X15187765Y-4810722D02*
X15211336Y-4787152D01*
X15117055Y-4814090D02*
X15076649Y-4854496D01*
X15167562Y-4905003D02*
X15096852Y-4834293D01*
X15086750Y-4985815D02*
X15127156Y-4945409D01*
X15106953Y-4965612D02*
X15036242Y-4894902D01*
X15036242Y-4894902D02*
X15053078Y-4898269D01*
X15053078Y-4898269D02*
X15066547Y-4898269D01*
X15066547Y-4898269D02*
X15076649Y-4894902D01*
D11*
%TO.C,BT1*%
X16898044Y-11352317D02*
X17163209Y-11617482D01*
X17163209Y-11617482D02*
X16830868Y-11949822D01*
X17191493Y-12310447D02*
X16830868Y-11949822D01*
X17523833Y-11978107D02*
X17191493Y-12310447D01*
X17523833Y-11978107D02*
X17640506Y-12094779D01*
X17594544Y-11560914D02*
X17092498Y-11058868D01*
X17640506Y-12094779D02*
X18566816Y-12059424D01*
X17820818Y-11334639D02*
X17318772Y-10832594D01*
X18372361Y-10783096D02*
X17870315Y-10281050D01*
X18390746Y-9861029D02*
X18655204Y-10125487D01*
X18598635Y-10556822D02*
X18096590Y-10054776D01*
X18987544Y-9793147D02*
X18655204Y-10125487D01*
X18987544Y-9793147D02*
X19348169Y-10153771D01*
X19015828Y-10486111D02*
X19132501Y-10602784D01*
X19097146Y-11529094D02*
X18566816Y-12059424D01*
X19132501Y-10602784D02*
X19097146Y-11529094D01*
X19348169Y-10153771D02*
X19015828Y-10486111D01*
X16898044Y-11352317D02*
G75*
G02*
X17117673Y-10840279I212132J212132D01*
G01*
X17126433Y-10800090D02*
G75*
G02*
X17837788Y-10088717I967328J-255950D01*
G01*
X17820818Y-11334639D02*
G75*
G02*
X17594544Y-11560914I-113137J-113137D01*
G01*
X17877386Y-10068918D02*
G75*
G02*
X17120780Y-10839931I-749533J-21213D01*
G01*
X17877387Y-10068918D02*
G75*
G02*
X18390421Y-9859939I300520J-3536D01*
G01*
X18598635Y-10556822D02*
G75*
G02*
X18372361Y-10783096I-113137J-113137D01*
G01*
X17291315Y-11967500D02*
G75*
G02*
X17056315Y-11967500I-117500J0D01*
G01*
X17056315Y-11967500D02*
G75*
G02*
X17291315Y-11967500I117500J0D01*
G01*
X18017681Y-11447777D02*
G75*
G02*
X17397681Y-11447777I-310000J0D01*
G01*
X17397681Y-11447777D02*
G75*
G02*
X18017681Y-11447777I310000J0D01*
G01*
X18795498Y-10669959D02*
G75*
G02*
X18175498Y-10669959I-310000J0D01*
G01*
X18175498Y-10669959D02*
G75*
G02*
X18795498Y-10669959I310000J0D01*
G01*
X19122722Y-10136094D02*
G75*
G02*
X18887722Y-10136094I-117500J0D01*
G01*
X18887722Y-10136094D02*
G75*
G02*
X19122722Y-10136094I117500J0D01*
G01*
X10348296Y-4802570D02*
X10613461Y-5067735D01*
X10613461Y-5067735D02*
X10281121Y-5400075D01*
X10641745Y-5760699D02*
X10281121Y-5400075D01*
X10974086Y-5428359D02*
X10641745Y-5760699D01*
X10974086Y-5428359D02*
X11090758Y-5545032D01*
X11044796Y-5011166D02*
X10542750Y-4509121D01*
X11090758Y-5545032D02*
X12017068Y-5509677D01*
X11271070Y-4784892D02*
X10769025Y-4282846D01*
X11822614Y-4233349D02*
X11320568Y-3731303D01*
X11840998Y-3311282D02*
X12105456Y-3575739D01*
X12048888Y-4007075D02*
X11546842Y-3505029D01*
X12437797Y-3243399D02*
X12105456Y-3575739D01*
X12437797Y-3243399D02*
X12798421Y-3604024D01*
X12466081Y-3936364D02*
X12582753Y-4053037D01*
X12547398Y-4979347D02*
X12017068Y-5509677D01*
X12582753Y-4053037D02*
X12547398Y-4979347D01*
X12798421Y-3604024D02*
X12466081Y-3936364D01*
X10348296Y-4802570D02*
G75*
G02*
X10567926Y-4290531I212132J212132D01*
G01*
X10576686Y-4250342D02*
G75*
G02*
X11288041Y-3538970I967328J-255950D01*
G01*
X11271070Y-4784892D02*
G75*
G02*
X11044796Y-5011166I-113137J-113137D01*
G01*
X11327639Y-3519171D02*
G75*
G02*
X10571032Y-4290184I-749533J-21213D01*
G01*
X11327639Y-3519171D02*
G75*
G02*
X11840674Y-3310192I300520J-3536D01*
G01*
X12048888Y-4007075D02*
G75*
G02*
X11822614Y-4233349I-113137J-113137D01*
G01*
X10741568Y-5417753D02*
G75*
G02*
X10506568Y-5417753I-117500J0D01*
G01*
X10506568Y-5417753D02*
G75*
G02*
X10741568Y-5417753I117500J0D01*
G01*
X11467933Y-4898029D02*
G75*
G02*
X10847933Y-4898029I-310000J0D01*
G01*
X10847933Y-4898029D02*
G75*
G02*
X11467933Y-4898029I310000J0D01*
G01*
X12245751Y-4120212D02*
G75*
G02*
X11625751Y-4120212I-310000J0D01*
G01*
X11625751Y-4120212D02*
G75*
G02*
X12245751Y-4120212I310000J0D01*
G01*
X12572974Y-3586346D02*
G75*
G02*
X12337974Y-3586346I-117500J0D01*
G01*
X12337974Y-3586346D02*
G75*
G02*
X12572974Y-3586346I117500J0D01*
G01*
X13623170Y-8077443D02*
X13888335Y-8342608D01*
X13888335Y-8342608D02*
X13555995Y-8674949D01*
X13916619Y-9035573D02*
X13555995Y-8674949D01*
X14248959Y-8703233D02*
X13916619Y-9035573D01*
X14248959Y-8703233D02*
X14365632Y-8819906D01*
X14319670Y-8286040D02*
X13817624Y-7783994D01*
X14365632Y-8819906D02*
X15291942Y-8784550D01*
X14545944Y-8059766D02*
X14043898Y-7557720D01*
X15097487Y-7508222D02*
X14595442Y-7006177D01*
X15115872Y-6586155D02*
X15380330Y-6850613D01*
X15323762Y-7281948D02*
X14821716Y-6779902D01*
X15712670Y-6518273D02*
X15380330Y-6850613D01*
X15712670Y-6518273D02*
X16073295Y-6878897D01*
X15740955Y-7211238D02*
X15857627Y-7327910D01*
X15822272Y-8254220D02*
X15291942Y-8784550D01*
X15857627Y-7327910D02*
X15822272Y-8254220D01*
X16073295Y-6878897D02*
X15740955Y-7211238D01*
X13623170Y-8077443D02*
G75*
G02*
X13842799Y-7565405I212132J212132D01*
G01*
X13851559Y-7525216D02*
G75*
G02*
X14562915Y-6813844I967328J-255950D01*
G01*
X14545944Y-8059766D02*
G75*
G02*
X14319670Y-8286040I-113137J-113137D01*
G01*
X14602512Y-6794045D02*
G75*
G02*
X13845906Y-7565058I-749533J-21213D01*
G01*
X14602513Y-6794045D02*
G75*
G02*
X15115548Y-6585066I300520J-3536D01*
G01*
X15323762Y-7281948D02*
G75*
G02*
X15097487Y-7508222I-113137J-113137D01*
G01*
X14016441Y-8692626D02*
G75*
G02*
X13781441Y-8692626I-117500J0D01*
G01*
X13781441Y-8692626D02*
G75*
G02*
X14016441Y-8692626I117500J0D01*
G01*
X14742807Y-8172903D02*
G75*
G02*
X14122807Y-8172903I-310000J0D01*
G01*
X14122807Y-8172903D02*
G75*
G02*
X14742807Y-8172903I310000J0D01*
G01*
X15520624Y-7395085D02*
G75*
G02*
X14900624Y-7395085I-310000J0D01*
G01*
X14900624Y-7395085D02*
G75*
G02*
X15520624Y-7395085I310000J0D01*
G01*
X15847848Y-6861220D02*
G75*
G02*
X15612848Y-6861220I-117500J0D01*
G01*
X15612848Y-6861220D02*
G75*
G02*
X15847848Y-6861220I117500J0D01*
G01*
D12*
%TO.C,KiKit_FID_B_2*%
X20212279Y-2500000D02*
G75*
G02*
X20112279Y-2500000I-50000J0D01*
G01*
X20112279Y-2500000D02*
G75*
G02*
X20212279Y-2500000I50000J0D01*
G01*
%TO.C,KiKit_FID_B_1*%
X9587722Y-2500000D02*
G75*
G02*
X9487722Y-2500000I-50000J0D01*
G01*
X9487722Y-2500000D02*
G75*
G02*
X9587722Y-2500000I50000J0D01*
G01*
D11*
%TO.C,BT1*%
X16898044Y-4802570D02*
X17163209Y-5067735D01*
X17163209Y-5067735D02*
X16830868Y-5400075D01*
X17191493Y-5760699D02*
X16830868Y-5400075D01*
X17523833Y-5428359D02*
X17191493Y-5760699D01*
X17523833Y-5428359D02*
X17640506Y-5545032D01*
X17594544Y-5011166D02*
X17092498Y-4509121D01*
X17640506Y-5545032D02*
X18566816Y-5509677D01*
X17820818Y-4784892D02*
X17318772Y-4282846D01*
X18372361Y-4233349D02*
X17870315Y-3731303D01*
X18390746Y-3311282D02*
X18655204Y-3575739D01*
X18598635Y-4007075D02*
X18096590Y-3505029D01*
X18987544Y-3243399D02*
X18655204Y-3575739D01*
X18987544Y-3243399D02*
X19348169Y-3604024D01*
X19015828Y-3936364D02*
X19132501Y-4053037D01*
X19097146Y-4979347D02*
X18566816Y-5509677D01*
X19132501Y-4053037D02*
X19097146Y-4979347D01*
X19348169Y-3604024D02*
X19015828Y-3936364D01*
X16898044Y-4802570D02*
G75*
G02*
X17117673Y-4290531I212132J212132D01*
G01*
X17126433Y-4250342D02*
G75*
G02*
X17837788Y-3538970I967328J-255950D01*
G01*
X17820818Y-4784892D02*
G75*
G02*
X17594544Y-5011166I-113137J-113137D01*
G01*
X17877386Y-3519171D02*
G75*
G02*
X17120780Y-4290184I-749533J-21213D01*
G01*
X17877387Y-3519171D02*
G75*
G02*
X18390421Y-3310192I300520J-3536D01*
G01*
X18598635Y-4007075D02*
G75*
G02*
X18372361Y-4233349I-113137J-113137D01*
G01*
X17291315Y-5417753D02*
G75*
G02*
X17056315Y-5417753I-117500J0D01*
G01*
X17056315Y-5417753D02*
G75*
G02*
X17291315Y-5417753I117500J0D01*
G01*
X18017681Y-4898029D02*
G75*
G02*
X17397681Y-4898029I-310000J0D01*
G01*
X17397681Y-4898029D02*
G75*
G02*
X18017681Y-4898029I310000J0D01*
G01*
X18795498Y-4120212D02*
G75*
G02*
X18175498Y-4120212I-310000J0D01*
G01*
X18175498Y-4120212D02*
G75*
G02*
X18795498Y-4120212I310000J0D01*
G01*
X19122722Y-3586346D02*
G75*
G02*
X18887722Y-3586346I-117500J0D01*
G01*
X18887722Y-3586346D02*
G75*
G02*
X19122722Y-3586346I117500J0D01*
G01*
X13623170Y-11352317D02*
X13888335Y-11617482D01*
X13888335Y-11617482D02*
X13555995Y-11949822D01*
X13916619Y-12310447D02*
X13555995Y-11949822D01*
X14248959Y-11978107D02*
X13916619Y-12310447D01*
X14248959Y-11978107D02*
X14365632Y-12094779D01*
X14319670Y-11560914D02*
X13817624Y-11058868D01*
X14365632Y-12094779D02*
X15291942Y-12059424D01*
X14545944Y-11334639D02*
X14043898Y-10832594D01*
X15097487Y-10783096D02*
X14595442Y-10281050D01*
X15115872Y-9861029D02*
X15380330Y-10125487D01*
X15323762Y-10556822D02*
X14821716Y-10054776D01*
X15712670Y-9793147D02*
X15380330Y-10125487D01*
X15712670Y-9793147D02*
X16073295Y-10153771D01*
X15740955Y-10486111D02*
X15857627Y-10602784D01*
X15822272Y-11529094D02*
X15291942Y-12059424D01*
X15857627Y-10602784D02*
X15822272Y-11529094D01*
X16073295Y-10153771D02*
X15740955Y-10486111D01*
X13623170Y-11352317D02*
G75*
G02*
X13842799Y-10840279I212132J212132D01*
G01*
X13851559Y-10800090D02*
G75*
G02*
X14562915Y-10088717I967328J-255950D01*
G01*
X14545944Y-11334639D02*
G75*
G02*
X14319670Y-11560914I-113137J-113137D01*
G01*
X14602512Y-10068918D02*
G75*
G02*
X13845906Y-10839931I-749533J-21213D01*
G01*
X14602513Y-10068918D02*
G75*
G02*
X15115548Y-9859939I300520J-3536D01*
G01*
X15323762Y-10556822D02*
G75*
G02*
X15097487Y-10783096I-113137J-113137D01*
G01*
X14016441Y-11967500D02*
G75*
G02*
X13781441Y-11967500I-117500J0D01*
G01*
X13781441Y-11967500D02*
G75*
G02*
X14016441Y-11967500I117500J0D01*
G01*
X14742807Y-11447777D02*
G75*
G02*
X14122807Y-11447777I-310000J0D01*
G01*
X14122807Y-11447777D02*
G75*
G02*
X14742807Y-11447777I310000J0D01*
G01*
X15520624Y-10669959D02*
G75*
G02*
X14900624Y-10669959I-310000J0D01*
G01*
X14900624Y-10669959D02*
G75*
G02*
X15520624Y-10669959I310000J0D01*
G01*
X15847848Y-10136094D02*
G75*
G02*
X15612848Y-10136094I-117500J0D01*
G01*
X15612848Y-10136094D02*
G75*
G02*
X15847848Y-10136094I117500J0D01*
G01*
X10348296Y-8077443D02*
X10613461Y-8342608D01*
X10613461Y-8342608D02*
X10281121Y-8674949D01*
X10641745Y-9035573D02*
X10281121Y-8674949D01*
X10974086Y-8703233D02*
X10641745Y-9035573D01*
X10974086Y-8703233D02*
X11090758Y-8819906D01*
X11044796Y-8286040D02*
X10542750Y-7783994D01*
X11090758Y-8819906D02*
X12017068Y-8784550D01*
X11271070Y-8059766D02*
X10769025Y-7557720D01*
X11822614Y-7508222D02*
X11320568Y-7006177D01*
X11840998Y-6586155D02*
X12105456Y-6850613D01*
X12048888Y-7281948D02*
X11546842Y-6779902D01*
X12437797Y-6518273D02*
X12105456Y-6850613D01*
X12437797Y-6518273D02*
X12798421Y-6878897D01*
X12466081Y-7211238D02*
X12582753Y-7327910D01*
X12547398Y-8254220D02*
X12017068Y-8784550D01*
X12582753Y-7327910D02*
X12547398Y-8254220D01*
X12798421Y-6878897D02*
X12466081Y-7211238D01*
X10348296Y-8077443D02*
G75*
G02*
X10567926Y-7565405I212132J212132D01*
G01*
X10576686Y-7525216D02*
G75*
G02*
X11288041Y-6813844I967328J-255950D01*
G01*
X11271070Y-8059766D02*
G75*
G02*
X11044796Y-8286040I-113137J-113137D01*
G01*
X11327639Y-6794045D02*
G75*
G02*
X10571032Y-7565058I-749533J-21213D01*
G01*
X11327639Y-6794045D02*
G75*
G02*
X11840674Y-6585066I300520J-3536D01*
G01*
X12048888Y-7281948D02*
G75*
G02*
X11822614Y-7508222I-113137J-113137D01*
G01*
X10741568Y-8692626D02*
G75*
G02*
X10506568Y-8692626I-117500J0D01*
G01*
X10506568Y-8692626D02*
G75*
G02*
X10741568Y-8692626I117500J0D01*
G01*
X11467933Y-8172903D02*
G75*
G02*
X10847933Y-8172903I-310000J0D01*
G01*
X10847933Y-8172903D02*
G75*
G02*
X11467933Y-8172903I310000J0D01*
G01*
X12245751Y-7395085D02*
G75*
G02*
X11625751Y-7395085I-310000J0D01*
G01*
X11625751Y-7395085D02*
G75*
G02*
X12245751Y-7395085I310000J0D01*
G01*
X12572974Y-6861220D02*
G75*
G02*
X12337974Y-6861220I-117500J0D01*
G01*
X12337974Y-6861220D02*
G75*
G02*
X12572974Y-6861220I117500J0D01*
G01*
D12*
%TO.C,KiKit_FID_B_3*%
X9587722Y-13124557D02*
G75*
G02*
X9487722Y-13124557I-50000J0D01*
G01*
X9487722Y-13124557D02*
G75*
G02*
X9587722Y-13124557I50000J0D01*
G01*
D11*
%TO.C,BT1*%
X16898044Y-8077443D02*
X17163209Y-8342608D01*
X17163209Y-8342608D02*
X16830868Y-8674949D01*
X17191493Y-9035573D02*
X16830868Y-8674949D01*
X17523833Y-8703233D02*
X17191493Y-9035573D01*
X17523833Y-8703233D02*
X17640506Y-8819906D01*
X17594544Y-8286040D02*
X17092498Y-7783994D01*
X17640506Y-8819906D02*
X18566816Y-8784550D01*
X17820818Y-8059766D02*
X17318772Y-7557720D01*
X18372361Y-7508222D02*
X17870315Y-7006177D01*
X18390746Y-6586155D02*
X18655204Y-6850613D01*
X18598635Y-7281948D02*
X18096590Y-6779902D01*
X18987544Y-6518273D02*
X18655204Y-6850613D01*
X18987544Y-6518273D02*
X19348169Y-6878897D01*
X19015828Y-7211238D02*
X19132501Y-7327910D01*
X19097146Y-8254220D02*
X18566816Y-8784550D01*
X19132501Y-7327910D02*
X19097146Y-8254220D01*
X19348169Y-6878897D02*
X19015828Y-7211238D01*
X16898044Y-8077443D02*
G75*
G02*
X17117673Y-7565405I212132J212132D01*
G01*
X17126433Y-7525216D02*
G75*
G02*
X17837788Y-6813844I967328J-255950D01*
G01*
X17820818Y-8059766D02*
G75*
G02*
X17594544Y-8286040I-113137J-113137D01*
G01*
X17877386Y-6794045D02*
G75*
G02*
X17120780Y-7565058I-749533J-21213D01*
G01*
X17877387Y-6794045D02*
G75*
G02*
X18390421Y-6585066I300520J-3536D01*
G01*
X18598635Y-7281948D02*
G75*
G02*
X18372361Y-7508222I-113137J-113137D01*
G01*
X17291315Y-8692626D02*
G75*
G02*
X17056315Y-8692626I-117500J0D01*
G01*
X17056315Y-8692626D02*
G75*
G02*
X17291315Y-8692626I117500J0D01*
G01*
X18017681Y-8172903D02*
G75*
G02*
X17397681Y-8172903I-310000J0D01*
G01*
X17397681Y-8172903D02*
G75*
G02*
X18017681Y-8172903I310000J0D01*
G01*
X18795498Y-7395085D02*
G75*
G02*
X18175498Y-7395085I-310000J0D01*
G01*
X18175498Y-7395085D02*
G75*
G02*
X18795498Y-7395085I310000J0D01*
G01*
X19122722Y-6861220D02*
G75*
G02*
X18887722Y-6861220I-117500J0D01*
G01*
X18887722Y-6861220D02*
G75*
G02*
X19122722Y-6861220I117500J0D01*
G01*
X10348296Y-11352317D02*
X10613461Y-11617482D01*
X10613461Y-11617482D02*
X10281121Y-11949822D01*
X10641745Y-12310447D02*
X10281121Y-11949822D01*
X10974086Y-11978107D02*
X10641745Y-12310447D01*
X10974086Y-11978107D02*
X11090758Y-12094779D01*
X11044796Y-11560914D02*
X10542750Y-11058868D01*
X11090758Y-12094779D02*
X12017068Y-12059424D01*
X11271070Y-11334639D02*
X10769025Y-10832594D01*
X11822614Y-10783096D02*
X11320568Y-10281050D01*
X11840998Y-9861029D02*
X12105456Y-10125487D01*
X12048888Y-10556822D02*
X11546842Y-10054776D01*
X12437797Y-9793147D02*
X12105456Y-10125487D01*
X12437797Y-9793147D02*
X12798421Y-10153771D01*
X12466081Y-10486111D02*
X12582753Y-10602784D01*
X12547398Y-11529094D02*
X12017068Y-12059424D01*
X12582753Y-10602784D02*
X12547398Y-11529094D01*
X12798421Y-10153771D02*
X12466081Y-10486111D01*
X10348296Y-11352317D02*
G75*
G02*
X10567926Y-10840279I212132J212132D01*
G01*
X10576686Y-10800090D02*
G75*
G02*
X11288041Y-10088717I967328J-255950D01*
G01*
X11271070Y-11334639D02*
G75*
G02*
X11044796Y-11560914I-113137J-113137D01*
G01*
X11327639Y-10068918D02*
G75*
G02*
X10571032Y-10839931I-749533J-21213D01*
G01*
X11327639Y-10068918D02*
G75*
G02*
X11840674Y-9859939I300520J-3536D01*
G01*
X12048888Y-10556822D02*
G75*
G02*
X11822614Y-10783096I-113137J-113137D01*
G01*
X10741568Y-11967500D02*
G75*
G02*
X10506568Y-11967500I-117500J0D01*
G01*
X10506568Y-11967500D02*
G75*
G02*
X10741568Y-11967500I117500J0D01*
G01*
X11467933Y-11447777D02*
G75*
G02*
X10847933Y-11447777I-310000J0D01*
G01*
X10847933Y-11447777D02*
G75*
G02*
X11467933Y-11447777I310000J0D01*
G01*
X12245751Y-10669959D02*
G75*
G02*
X11625751Y-10669959I-310000J0D01*
G01*
X11625751Y-10669959D02*
G75*
G02*
X12245751Y-10669959I310000J0D01*
G01*
X12572974Y-10136094D02*
G75*
G02*
X12337974Y-10136094I-117500J0D01*
G01*
X12337974Y-10136094D02*
G75*
G02*
X12572974Y-10136094I117500J0D01*
G01*
X13623170Y-4802570D02*
X13888335Y-5067735D01*
X13888335Y-5067735D02*
X13555995Y-5400075D01*
X13916619Y-5760699D02*
X13555995Y-5400075D01*
X14248959Y-5428359D02*
X13916619Y-5760699D01*
X14248959Y-5428359D02*
X14365632Y-5545032D01*
X14319670Y-5011166D02*
X13817624Y-4509121D01*
X14365632Y-5545032D02*
X15291942Y-5509677D01*
X14545944Y-4784892D02*
X14043898Y-4282846D01*
X15097487Y-4233349D02*
X14595442Y-3731303D01*
X15115872Y-3311282D02*
X15380330Y-3575739D01*
X15323762Y-4007075D02*
X14821716Y-3505029D01*
X15712670Y-3243399D02*
X15380330Y-3575739D01*
X15712670Y-3243399D02*
X16073295Y-3604024D01*
X15740955Y-3936364D02*
X15857627Y-4053037D01*
X15822272Y-4979347D02*
X15291942Y-5509677D01*
X15857627Y-4053037D02*
X15822272Y-4979347D01*
X16073295Y-3604024D02*
X15740955Y-3936364D01*
X13623170Y-4802570D02*
G75*
G02*
X13842799Y-4290531I212132J212132D01*
G01*
X13851559Y-4250342D02*
G75*
G02*
X14562915Y-3538970I967328J-255950D01*
G01*
X14545944Y-4784892D02*
G75*
G02*
X14319670Y-5011166I-113137J-113137D01*
G01*
X14602512Y-3519171D02*
G75*
G02*
X13845906Y-4290184I-749533J-21213D01*
G01*
X14602513Y-3519171D02*
G75*
G02*
X15115548Y-3310192I300520J-3536D01*
G01*
X15323762Y-4007075D02*
G75*
G02*
X15097487Y-4233349I-113137J-113137D01*
G01*
X14016441Y-5417753D02*
G75*
G02*
X13781441Y-5417753I-117500J0D01*
G01*
X13781441Y-5417753D02*
G75*
G02*
X14016441Y-5417753I117500J0D01*
G01*
X14742807Y-4898029D02*
G75*
G02*
X14122807Y-4898029I-310000J0D01*
G01*
X14122807Y-4898029D02*
G75*
G02*
X14742807Y-4898029I310000J0D01*
G01*
X15520624Y-4120212D02*
G75*
G02*
X14900624Y-4120212I-310000J0D01*
G01*
X14900624Y-4120212D02*
G75*
G02*
X15520624Y-4120212I310000J0D01*
G01*
X15847848Y-3586346D02*
G75*
G02*
X15612848Y-3586346I-117500J0D01*
G01*
X15612848Y-3586346D02*
G75*
G02*
X15847848Y-3586346I117500J0D01*
G01*
%TD*%
X12157515Y-10501307D02*
X12562515Y-11206307D01*
X12157515Y-11206307D02*
X12562515Y-10501307D01*
X14924102Y-10460882D02*
X15270698Y-10800743D01*
X14924102Y-10800743D02*
X15270698Y-10460882D01*
X11649229Y-10460882D02*
X11995824Y-10800743D01*
X11649229Y-10800743D02*
X11995824Y-10460882D01*
X17019287Y-8446175D02*
X17434409Y-8861297D01*
X17019287Y-8861297D02*
X17434409Y-8446175D01*
X14924102Y-7186008D02*
X15270698Y-7525870D01*
X14924102Y-7525870D02*
X15270698Y-7186008D01*
X18707262Y-7226433D02*
X19112262Y-7931433D01*
X18707262Y-7931433D02*
X19112262Y-7226433D01*
X11790650Y-7044237D02*
X12137246Y-7384448D01*
X11790650Y-7384448D02*
X12137246Y-7044237D01*
X18198976Y-3911134D02*
X18545572Y-4250996D01*
X18198976Y-4250996D02*
X18545572Y-3911134D01*
X18340397Y-10319111D02*
X18686993Y-10659322D01*
X18340397Y-10659322D02*
X18686993Y-10319111D01*
X13744413Y-8446175D02*
X14159535Y-8861297D01*
X13744413Y-8861297D02*
X14159535Y-8446175D01*
X15065524Y-3769363D02*
X15412119Y-4109575D01*
X15065524Y-4109575D02*
X15412119Y-3769363D01*
X10469540Y-8446175D02*
X10884662Y-8861297D01*
X10469540Y-8861297D02*
X10884662Y-8446175D01*
X18340397Y-3769363D02*
X18686993Y-4109575D01*
X18340397Y-4109575D02*
X18686993Y-3769363D01*
X10469540Y-11721048D02*
X10884662Y-12136170D01*
X10469540Y-12136170D02*
X10884662Y-11721048D01*
X11790650Y-3769363D02*
X12137246Y-4109575D01*
X11790650Y-4109575D02*
X12137246Y-3769363D01*
X17019287Y-5171301D02*
X17434409Y-5586423D01*
X17019287Y-5586423D02*
X17434409Y-5171301D01*
X18198976Y-7186008D02*
X18545572Y-7525870D01*
X18198976Y-7525870D02*
X18545572Y-7186008D01*
X17019287Y-11721048D02*
X17434409Y-12136170D01*
X17019287Y-12136170D02*
X17434409Y-11721048D01*
X15065524Y-10319111D02*
X15412119Y-10659322D01*
X15065524Y-10659322D02*
X15412119Y-10319111D01*
X14924102Y-3911134D02*
X15270698Y-4250996D01*
X14924102Y-4250996D02*
X15270698Y-3911134D01*
X13744413Y-11721048D02*
X14159535Y-12136170D01*
X13744413Y-12136170D02*
X14159535Y-11721048D01*
X12157515Y-3951559D02*
X12562515Y-4656560D01*
X12157515Y-4656560D02*
X12562515Y-3951559D01*
X11649229Y-3911134D02*
X11995824Y-4250996D01*
X11649229Y-4250996D02*
X11995824Y-3911134D01*
X12157515Y-7226433D02*
X12562515Y-7931433D01*
X12157515Y-7931433D02*
X12562515Y-7226433D01*
X18707262Y-10501307D02*
X19112262Y-11206307D01*
X18707262Y-11206307D02*
X19112262Y-10501307D01*
X18340397Y-7044237D02*
X18686993Y-7384448D01*
X18340397Y-7384448D02*
X18686993Y-7044237D01*
X18198976Y-10460882D02*
X18545572Y-10800743D01*
X18198976Y-10800743D02*
X18545572Y-10460882D01*
X15065524Y-7044237D02*
X15412119Y-7384448D01*
X15065524Y-7384448D02*
X15412119Y-7044237D01*
X11790650Y-10319111D02*
X12137246Y-10659322D01*
X11790650Y-10659322D02*
X12137246Y-10319111D01*
X15432389Y-7226433D02*
X15837389Y-7931433D01*
X15432389Y-7931433D02*
X15837389Y-7226433D01*
X15432389Y-10501307D02*
X15837389Y-11206307D01*
X15432389Y-11206307D02*
X15837389Y-10501307D01*
X18707262Y-3951559D02*
X19112262Y-4656560D01*
X18707262Y-4656560D02*
X19112262Y-3951559D01*
X13744413Y-5171301D02*
X14159535Y-5586423D01*
X13744413Y-5586423D02*
X14159535Y-5171301D01*
X11649229Y-7186008D02*
X11995824Y-7525870D01*
X11649229Y-7525870D02*
X11995824Y-7186008D01*
X10469540Y-5171301D02*
X10884662Y-5586423D01*
X10469540Y-5586423D02*
X10884662Y-5171301D01*
X15432389Y-3951559D02*
X15837389Y-4656560D01*
X15432389Y-4656560D02*
X15837389Y-3951559D01*
M02*
