%TF.GenerationSoftware,KiCad,Pcbnew,9.0.0-rc2-3baa6cd791~182~ubuntu24.04.1*%
%TF.CreationDate,2025-01-31T11:47:19-05:00*%
%TF.ProjectId,PCA20073_nRF54L15_Tiny_Board,50434132-3030-4373-935f-6e524635344c,rev?*%
%TF.SameCoordinates,Original*%
%TF.FileFunction,Paste,Top*%
%TF.FilePolarity,Positive*%
%FSLAX45Y45*%
G04 Gerber Fmt 4.5, Leading zero omitted, Abs format (unit mm)*
G04 Created by KiCad (PCBNEW 9.0.0-rc2-3baa6cd791~182~ubuntu24.04.1) date 2025-01-31 11:47:19*
%MOMM*%
%LPD*%
G01*
G04 APERTURE LIST*
G04 Aperture macros list*
%AMRoundRect*
0 Rectangle with rounded corners*
0 $1 Rounding radius*
0 $2 $3 $4 $5 $6 $7 $8 $9 X,Y pos of 4 corners*
0 Add a 4 corners polygon primitive as box body*
4,1,4,$2,$3,$4,$5,$6,$7,$8,$9,$2,$3,0*
0 Add four circle primitives for the rounded corners*
1,1,$1+$1,$2,$3*
1,1,$1+$1,$4,$5*
1,1,$1+$1,$6,$7*
1,1,$1+$1,$8,$9*
0 Add four rect primitives between the rounded corners*
20,1,$1+$1,$2,$3,$4,$5,0*
20,1,$1+$1,$4,$5,$6,$7,0*
20,1,$1+$1,$6,$7,$8,$9,0*
20,1,$1+$1,$8,$9,$2,$3,0*%
%AMRotRect*
0 Rectangle, with rotation*
0 The origin of the aperture is its center*
0 $1 length*
0 $2 width*
0 $3 Rotation angle, in degrees counterclockwise*
0 Add horizontal line*
21,1,$1,$2,0,0,$3*%
G04 Aperture macros list end*
%ADD10RoundRect,0.079500X-0.127279X-0.014849X-0.014849X-0.127279X0.127279X0.014849X0.014849X0.127279X0*%
%ADD11RoundRect,0.079500X-0.100500X0.079500X-0.100500X-0.079500X0.100500X-0.079500X0.100500X0.079500X0*%
%ADD12RoundRect,0.079500X-0.014849X0.127279X-0.127279X0.014849X0.014849X-0.127279X0.127279X-0.014849X0*%
%ADD13RoundRect,0.079500X-0.079500X-0.100500X0.079500X-0.100500X0.079500X0.100500X-0.079500X0.100500X0*%
%ADD14RoundRect,0.135000X-0.226274X-0.035355X-0.035355X-0.226274X0.226274X0.035355X0.035355X0.226274X0*%
%ADD15RoundRect,0.079500X0.127279X0.014849X0.014849X0.127279X-0.127279X-0.014849X-0.014849X-0.127279X0*%
%ADD16RoundRect,0.079500X0.014849X-0.127279X0.127279X-0.014849X-0.014849X0.127279X-0.127279X0.014849X0*%
%ADD17RoundRect,0.135000X-0.035355X0.226274X-0.226274X0.035355X0.035355X-0.226274X0.226274X-0.035355X0*%
%ADD18C,0.200000*%
%ADD19RoundRect,0.140000X-0.021213X0.219203X-0.219203X0.021213X0.021213X-0.219203X0.219203X-0.021213X0*%
%ADD20RoundRect,0.075000X-0.282843X0.530330X-0.530330X0.282843X0.282843X-0.530330X0.530330X-0.282843X0*%
%ADD21RoundRect,0.150000X0.000000X0.494975X-0.494975X0.000000X0.000000X-0.494975X0.494975X0.000000X0*%
%ADD22RotRect,0.250000X0.400000X45.000000*%
%ADD23RotRect,0.700000X0.400000X45.000000*%
%ADD24RoundRect,0.100000X-0.229810X0.088388X0.088388X-0.229810X0.229810X-0.088388X-0.088388X0.229810X0*%
%ADD25RoundRect,0.147500X0.017678X-0.226274X0.226274X-0.017678X-0.017678X0.226274X-0.226274X0.017678X0*%
%ADD26RotRect,0.575000X1.114000X45.000000*%
%ADD27RoundRect,0.060000X-0.140000X-0.415000X0.140000X-0.415000X0.140000X0.415000X-0.140000X0.415000X0*%
%ADD28RoundRect,0.052500X-0.122500X1.097500X-0.122500X-1.097500X0.122500X-1.097500X0.122500X1.097500X0*%
%ADD29RoundRect,0.052500X0.597500X0.122500X-0.597500X0.122500X-0.597500X-0.122500X0.597500X-0.122500X0*%
%ADD30RoundRect,0.079500X0.079500X0.100500X-0.079500X0.100500X-0.079500X-0.100500X0.079500X-0.100500X0*%
%ADD31RoundRect,0.218750X0.026517X-0.335876X0.335876X-0.026517X-0.026517X0.335876X-0.335876X0.026517X0*%
%ADD32RoundRect,0.033000X0.132000X-0.162000X0.132000X0.162000X-0.132000X0.162000X-0.132000X-0.162000X0*%
%ADD33RoundRect,0.033000X0.162000X-0.132000X0.162000X0.132000X-0.162000X0.132000X-0.162000X-0.132000X0*%
%ADD34C,0.150000*%
%ADD35RotRect,1.050000X0.650000X45.000000*%
G04 APERTURE END LIST*
D10*
%TO.C,C2*%
X11806265Y-5089570D03*
X11855056Y-5138361D03*
%TD*%
%TO.C,C12*%
X11855763Y-5040073D03*
X11904553Y-5088863D03*
%TD*%
D11*
%TO.C,C16*%
X17900014Y-3817011D03*
X17900014Y-3886011D03*
%TD*%
D10*
%TO.C,L2*%
X12116417Y-4961315D03*
X12165207Y-5010106D03*
%TD*%
D12*
%TO.C,C4*%
X14118498Y-11476414D03*
X14069708Y-11525205D03*
%TD*%
D10*
%TO.C,C2*%
X11806265Y-11639318D03*
X11855056Y-11688108D03*
%TD*%
D11*
%TO.C,C16*%
X11350266Y-7091885D03*
X11350266Y-7160885D03*
%TD*%
D13*
%TO.C,C20*%
X10726039Y-10855221D03*
X10795039Y-10855221D03*
%TD*%
D14*
%TO.C,R1*%
X14354318Y-7740861D03*
X14426443Y-7812985D03*
%TD*%
D10*
%TO.C,C2*%
X11806265Y-8364444D03*
X11855056Y-8413234D03*
%TD*%
D12*
%TO.C,C6*%
X15481093Y-8322456D03*
X15432302Y-8371246D03*
%TD*%
D15*
%TO.C,C1*%
X15130637Y-8215952D03*
X15081846Y-8167161D03*
%TD*%
D16*
%TO.C,FB1*%
X11755354Y-5037952D03*
X11804144Y-4989161D03*
%TD*%
D17*
%TO.C,JP3*%
X14489375Y-6912839D03*
X14417251Y-6984963D03*
%TD*%
D12*
%TO.C,C11*%
X15121444Y-11284350D03*
X15072654Y-11333140D03*
%TD*%
D18*
%TO.C,U1*%
X18539323Y-8234789D03*
X18518110Y-8213576D03*
X18496897Y-8192362D03*
X18475684Y-8171149D03*
X18454470Y-8149936D03*
X18433257Y-8128723D03*
X18412044Y-8107510D03*
X18560536Y-8213576D03*
X18518110Y-8171149D03*
X18496897Y-8149936D03*
X18475684Y-8128723D03*
X18454470Y-8107510D03*
X18433257Y-8086296D03*
X18560536Y-8171149D03*
X18539323Y-8149936D03*
X18518110Y-8128723D03*
X18496897Y-8107510D03*
X18475684Y-8086296D03*
X18454470Y-8065083D03*
X18602963Y-8171149D03*
X18581750Y-8149936D03*
X18560536Y-8128723D03*
X18539323Y-8107510D03*
X18518110Y-8086296D03*
X18496897Y-8065083D03*
X18475684Y-8043870D03*
X18624176Y-8149936D03*
X18602963Y-8128723D03*
X18581750Y-8107510D03*
X18560536Y-8086296D03*
X18539323Y-8065083D03*
X18518110Y-8043870D03*
X18496897Y-8022657D03*
X18645389Y-8128723D03*
X18624176Y-8107510D03*
X18602963Y-8086296D03*
X18581750Y-8065083D03*
X18560536Y-8043870D03*
X18539323Y-8022657D03*
X18518110Y-8001444D03*
X18666602Y-8107510D03*
X18645389Y-8086296D03*
X18624176Y-8065083D03*
X18602963Y-8043870D03*
X18581750Y-8022657D03*
X18560536Y-8001444D03*
X18539323Y-7980230D03*
%TD*%
D12*
%TO.C,C4*%
X17393372Y-4926667D03*
X17344581Y-4975457D03*
%TD*%
D10*
%TO.C,L3*%
X12243696Y-8363468D03*
X12292486Y-8412259D03*
%TD*%
%TO.C,R2*%
X17857234Y-11683597D03*
X17906024Y-11732387D03*
%TD*%
D19*
%TO.C,C10*%
X15043040Y-4673876D03*
X14975158Y-4741759D03*
%TD*%
D10*
%TO.C,L2*%
X12116417Y-8236189D03*
X12165207Y-8284979D03*
%TD*%
D12*
%TO.C,C9*%
X18883246Y-8449735D03*
X18834455Y-8498526D03*
%TD*%
D18*
%TO.C,U1*%
X11989576Y-8234789D03*
X11968362Y-8213576D03*
X11947149Y-8192362D03*
X11925936Y-8171149D03*
X11904723Y-8149936D03*
X11883510Y-8128723D03*
X11862296Y-8107510D03*
X12010789Y-8213576D03*
X11968362Y-8171149D03*
X11947149Y-8149936D03*
X11925936Y-8128723D03*
X11904723Y-8107510D03*
X11883510Y-8086296D03*
X12010789Y-8171149D03*
X11989576Y-8149936D03*
X11968362Y-8128723D03*
X11947149Y-8107510D03*
X11925936Y-8086296D03*
X11904723Y-8065083D03*
X12053215Y-8171149D03*
X12032002Y-8149936D03*
X12010789Y-8128723D03*
X11989576Y-8107510D03*
X11968362Y-8086296D03*
X11947149Y-8065083D03*
X11925936Y-8043870D03*
X12074429Y-8149936D03*
X12053215Y-8128723D03*
X12032002Y-8107510D03*
X12010789Y-8086296D03*
X11989576Y-8065083D03*
X11968362Y-8043870D03*
X11947149Y-8022657D03*
X12095642Y-8128723D03*
X12074429Y-8107510D03*
X12053215Y-8086296D03*
X12032002Y-8065083D03*
X12010789Y-8043870D03*
X11989576Y-8022657D03*
X11968362Y-8001444D03*
X12116855Y-8107510D03*
X12095642Y-8086296D03*
X12074429Y-8065083D03*
X12053215Y-8043870D03*
X12032002Y-8022657D03*
X12010789Y-8001444D03*
X11989576Y-7980230D03*
%TD*%
D10*
%TO.C,R3*%
X14631858Y-8359225D03*
X14680648Y-8408016D03*
%TD*%
D18*
%TO.C,U1*%
X18539323Y-11509663D03*
X18518110Y-11488449D03*
X18496897Y-11467236D03*
X18475684Y-11446023D03*
X18454470Y-11424810D03*
X18433257Y-11403596D03*
X18412044Y-11382383D03*
X18560536Y-11488449D03*
X18518110Y-11446023D03*
X18496897Y-11424810D03*
X18475684Y-11403596D03*
X18454470Y-11382383D03*
X18433257Y-11361170D03*
X18560536Y-11446023D03*
X18539323Y-11424810D03*
X18518110Y-11403596D03*
X18496897Y-11382383D03*
X18475684Y-11361170D03*
X18454470Y-11339957D03*
X18602963Y-11446023D03*
X18581750Y-11424810D03*
X18560536Y-11403596D03*
X18539323Y-11382383D03*
X18518110Y-11361170D03*
X18496897Y-11339957D03*
X18475684Y-11318744D03*
X18624176Y-11424810D03*
X18602963Y-11403596D03*
X18581750Y-11382383D03*
X18560536Y-11361170D03*
X18539323Y-11339957D03*
X18518110Y-11318744D03*
X18496897Y-11297530D03*
X18645389Y-11403596D03*
X18624176Y-11382383D03*
X18602963Y-11361170D03*
X18581750Y-11339957D03*
X18560536Y-11318744D03*
X18539323Y-11297530D03*
X18518110Y-11276317D03*
X18666602Y-11382383D03*
X18645389Y-11361170D03*
X18624176Y-11339957D03*
X18602963Y-11318744D03*
X18581750Y-11297530D03*
X18560536Y-11276317D03*
X18539323Y-11255104D03*
%TD*%
D10*
%TO.C,L4*%
X18920722Y-5215874D03*
X18969513Y-5264664D03*
%TD*%
D20*
%TO.C,AE1*%
X19109874Y-8849604D03*
D21*
X19000272Y-8959206D03*
%TD*%
D16*
%TO.C,FB1*%
X11755354Y-8312825D03*
X11804144Y-8264035D03*
%TD*%
D12*
%TO.C,C6*%
X18755967Y-11597330D03*
X18707176Y-11646120D03*
%TD*%
D15*
%TO.C,C8*%
X12142639Y-8024704D03*
X12093849Y-7975914D03*
%TD*%
D10*
%TO.C,L4*%
X15645849Y-5215874D03*
X15694639Y-5264664D03*
%TD*%
%TO.C,R3*%
X11356984Y-5084352D03*
X11405774Y-5133142D03*
%TD*%
D22*
%TO.C,Q1*%
X17592776Y-4624025D03*
X17624596Y-4592206D03*
D23*
X17559188Y-4558618D03*
%TD*%
D16*
%TO.C,FB1*%
X18305101Y-8312825D03*
X18353892Y-8264035D03*
%TD*%
D24*
%TO.C,U2*%
X10917517Y-8278969D03*
X10871555Y-8324931D03*
X10825593Y-8370893D03*
X10959943Y-8505243D03*
X11005905Y-8459281D03*
X11051867Y-8413319D03*
%TD*%
D10*
%TO.C,C2*%
X18356013Y-5089570D03*
X18404803Y-5138361D03*
%TD*%
D15*
%TO.C,C1*%
X11855763Y-8215952D03*
X11806972Y-8167161D03*
%TD*%
D16*
%TO.C,FB1*%
X15030227Y-11587699D03*
X15079018Y-11538908D03*
%TD*%
D22*
%TO.C,Q1*%
X14317902Y-4624025D03*
X14349722Y-4592206D03*
D23*
X14284315Y-4558618D03*
%TD*%
D10*
%TO.C,L2*%
X15391290Y-4961315D03*
X15440081Y-5010106D03*
%TD*%
D25*
%TO.C,L1*%
X18223077Y-11459005D03*
X18291666Y-11390416D03*
%TD*%
D26*
%TO.C,Y1*%
X11859523Y-7903282D03*
X11917860Y-7844945D03*
%TD*%
D13*
%TO.C,C20*%
X17275787Y-4305474D03*
X17344787Y-4305474D03*
%TD*%
D15*
%TO.C,C8*%
X18692387Y-4749831D03*
X18643596Y-4701040D03*
%TD*%
%TO.C,L18*%
X12376632Y-5416692D03*
X12327841Y-5367902D03*
%TD*%
D13*
%TO.C,C20*%
X10726039Y-7580347D03*
X10795039Y-7580347D03*
%TD*%
D12*
%TO.C,C11*%
X11846570Y-11284350D03*
X11797780Y-11333140D03*
%TD*%
D14*
%TO.C,R1*%
X11079445Y-11015734D03*
X11151569Y-11087859D03*
%TD*%
D26*
%TO.C,Y1*%
X11859523Y-4628408D03*
X11917860Y-4570072D03*
%TD*%
D27*
%TO.C,MK1*%
X13988443Y-11051624D03*
X13988443Y-11186624D03*
X14078443Y-11186624D03*
X14078443Y-11051624D03*
D28*
X13910943Y-11119124D03*
D29*
X14033443Y-10946624D03*
X14033443Y-11291624D03*
D28*
X14155943Y-11119124D03*
%TD*%
D15*
%TO.C,C8*%
X12142639Y-11299578D03*
X12093849Y-11250788D03*
%TD*%
D24*
%TO.C,U2*%
X14192391Y-5004095D03*
X14146429Y-5050057D03*
X14100467Y-5096019D03*
X14234817Y-5230369D03*
X14280779Y-5184407D03*
X14326741Y-5138446D03*
%TD*%
D30*
%TO.C,C17*%
X14728229Y-6897989D03*
X14659229Y-6897989D03*
%TD*%
D31*
%TO.C,D1*%
X14405407Y-10753928D03*
X14516776Y-10642559D03*
%TD*%
D15*
%TO.C,C1*%
X15130637Y-4941078D03*
X15081846Y-4892288D03*
%TD*%
D16*
%TO.C,C3*%
X14304467Y-5302141D03*
X14353258Y-5253350D03*
%TD*%
D17*
%TO.C,JP3*%
X11214502Y-6912839D03*
X11142377Y-6984963D03*
%TD*%
D12*
%TO.C,L6*%
X15749086Y-8590449D03*
X15700296Y-8639240D03*
%TD*%
D22*
%TO.C,Q1*%
X11043029Y-7898899D03*
X11074848Y-7867079D03*
D23*
X11009441Y-7833492D03*
%TD*%
D27*
%TO.C,MK1*%
X13988443Y-4501876D03*
X13988443Y-4636876D03*
X14078443Y-4636876D03*
X14078443Y-4501876D03*
D28*
X13910943Y-4569376D03*
D29*
X14033443Y-4396876D03*
X14033443Y-4741876D03*
D28*
X14155943Y-4569376D03*
%TD*%
D10*
%TO.C,C5*%
X18455715Y-8266156D03*
X18504505Y-8314946D03*
%TD*%
D19*
%TO.C,C10*%
X11768166Y-7948750D03*
X11700284Y-8016632D03*
%TD*%
D12*
%TO.C,L7*%
X15599887Y-12014523D03*
X15551096Y-12063313D03*
%TD*%
D17*
%TO.C,JP2*%
X14555844Y-3704433D03*
X14483719Y-3776558D03*
%TD*%
D15*
%TO.C,C8*%
X15417513Y-11299578D03*
X15368722Y-11250788D03*
%TD*%
D32*
%TO.C,U3*%
X14739645Y-3880943D03*
X14789645Y-3880943D03*
X14839645Y-3880943D03*
X14889645Y-3880943D03*
D33*
X14906085Y-3819943D03*
X14906085Y-3769943D03*
D32*
X14889645Y-3708943D03*
X14839645Y-3708943D03*
X14789645Y-3708943D03*
X14739645Y-3708943D03*
D33*
X14723205Y-3769943D03*
X14723205Y-3819943D03*
%TD*%
D12*
%TO.C,L7*%
X18874761Y-5464775D03*
X18825970Y-5513566D03*
%TD*%
D11*
%TO.C,C16*%
X11350266Y-3817011D03*
X11350266Y-3886011D03*
%TD*%
D10*
%TO.C,L2*%
X15391290Y-11511063D03*
X15440081Y-11559853D03*
%TD*%
D12*
%TO.C,C11*%
X15121444Y-4734603D03*
X15072654Y-4783393D03*
%TD*%
D15*
%TO.C,C8*%
X15417513Y-4749831D03*
X15368722Y-4701040D03*
%TD*%
D10*
%TO.C,C5*%
X15180841Y-11541030D03*
X15229632Y-11589820D03*
%TD*%
D15*
%TO.C,C1*%
X18405510Y-4941078D03*
X18356720Y-4892288D03*
%TD*%
D11*
%TO.C,C16*%
X11350266Y-10366759D03*
X11350266Y-10435759D03*
%TD*%
D17*
%TO.C,JP3*%
X11214502Y-10187712D03*
X11142377Y-10259837D03*
%TD*%
%TO.C,JP2*%
X11280970Y-6979307D03*
X11208845Y-7051431D03*
%TD*%
D12*
%TO.C,L6*%
X19023960Y-11865323D03*
X18975170Y-11914113D03*
%TD*%
D15*
%TO.C,C8*%
X12142639Y-4749831D03*
X12093849Y-4701040D03*
%TD*%
D18*
%TO.C,U1*%
X11989576Y-11509663D03*
X11968362Y-11488449D03*
X11947149Y-11467236D03*
X11925936Y-11446023D03*
X11904723Y-11424810D03*
X11883510Y-11403596D03*
X11862296Y-11382383D03*
X12010789Y-11488449D03*
X11968362Y-11446023D03*
X11947149Y-11424810D03*
X11925936Y-11403596D03*
X11904723Y-11382383D03*
X11883510Y-11361170D03*
X12010789Y-11446023D03*
X11989576Y-11424810D03*
X11968362Y-11403596D03*
X11947149Y-11382383D03*
X11925936Y-11361170D03*
X11904723Y-11339957D03*
X12053215Y-11446023D03*
X12032002Y-11424810D03*
X12010789Y-11403596D03*
X11989576Y-11382383D03*
X11968362Y-11361170D03*
X11947149Y-11339957D03*
X11925936Y-11318744D03*
X12074429Y-11424810D03*
X12053215Y-11403596D03*
X12032002Y-11382383D03*
X12010789Y-11361170D03*
X11989576Y-11339957D03*
X11968362Y-11318744D03*
X11947149Y-11297530D03*
X12095642Y-11403596D03*
X12074429Y-11382383D03*
X12053215Y-11361170D03*
X12032002Y-11339957D03*
X12010789Y-11318744D03*
X11989576Y-11297530D03*
X11968362Y-11276317D03*
X12116855Y-11382383D03*
X12095642Y-11361170D03*
X12074429Y-11339957D03*
X12053215Y-11318744D03*
X12032002Y-11297530D03*
X12010789Y-11276317D03*
X11989576Y-11255104D03*
%TD*%
D10*
%TO.C,L2*%
X18666164Y-11511063D03*
X18714954Y-11559853D03*
%TD*%
D14*
%TO.C,R1*%
X11079445Y-4465987D03*
X11151569Y-4538112D03*
%TD*%
D10*
%TO.C,L4*%
X15645849Y-11765621D03*
X15694639Y-11814411D03*
%TD*%
D30*
%TO.C,C17*%
X11453356Y-3623116D03*
X11384356Y-3623116D03*
%TD*%
D19*
%TO.C,C10*%
X15043040Y-11223624D03*
X14975158Y-11291506D03*
%TD*%
D10*
%TO.C,L3*%
X15518569Y-11638342D03*
X15567360Y-11687132D03*
%TD*%
D25*
%TO.C,L1*%
X11673329Y-4909258D03*
X11741919Y-4840669D03*
%TD*%
D10*
%TO.C,C5*%
X15180841Y-8266156D03*
X15229632Y-8314946D03*
%TD*%
D12*
%TO.C,C4*%
X10843624Y-8201541D03*
X10794834Y-8250331D03*
%TD*%
D15*
%TO.C,L18*%
X18926379Y-8691566D03*
X18877589Y-8642775D03*
%TD*%
D16*
%TO.C,FB1*%
X15030227Y-8312825D03*
X15079018Y-8264035D03*
%TD*%
D14*
%TO.C,R1*%
X14354318Y-11015734D03*
X14426443Y-11087859D03*
%TD*%
D19*
%TO.C,C10*%
X18317914Y-7948750D03*
X18250032Y-8016632D03*
%TD*%
D12*
%TO.C,C6*%
X12206219Y-5047582D03*
X12157429Y-5096373D03*
%TD*%
D10*
%TO.C,C5*%
X18455715Y-4991282D03*
X18504505Y-5040073D03*
%TD*%
D32*
%TO.C,U3*%
X18014518Y-3880943D03*
X18064518Y-3880943D03*
X18114518Y-3880943D03*
X18164518Y-3880943D03*
D33*
X18180958Y-3819943D03*
X18180958Y-3769943D03*
D32*
X18164518Y-3708943D03*
X18114518Y-3708943D03*
X18064518Y-3708943D03*
X18014518Y-3708943D03*
D33*
X17998078Y-3769943D03*
X17998078Y-3819943D03*
%TD*%
D19*
%TO.C,C10*%
X18317914Y-11223624D03*
X18250032Y-11291506D03*
%TD*%
D12*
%TO.C,C6*%
X12206219Y-11597330D03*
X12157429Y-11646120D03*
%TD*%
D15*
%TO.C,C1*%
X11855763Y-4941078D03*
X11806972Y-4892288D03*
%TD*%
D10*
%TO.C,C12*%
X11855763Y-11589820D03*
X11904553Y-11638611D03*
%TD*%
D17*
%TO.C,R4*%
X17587473Y-8041381D03*
X17515348Y-8113506D03*
%TD*%
%TO.C,JP3*%
X17764249Y-3637965D03*
X17692124Y-3710090D03*
%TD*%
D24*
%TO.C,U2*%
X17467264Y-8278969D03*
X17421303Y-8324931D03*
X17375341Y-8370893D03*
X17509691Y-8505243D03*
X17555653Y-8459281D03*
X17601615Y-8413319D03*
%TD*%
D12*
%TO.C,C9*%
X12333498Y-11724609D03*
X12284708Y-11773399D03*
%TD*%
D16*
%TO.C,C3*%
X11029594Y-5302141D03*
X11078384Y-5253350D03*
%TD*%
D13*
%TO.C,C15*%
X18081889Y-10173570D03*
X18150889Y-10173570D03*
%TD*%
D10*
%TO.C,L2*%
X15391290Y-8236189D03*
X15440081Y-8284979D03*
%TD*%
D11*
%TO.C,C16*%
X14625140Y-10366759D03*
X14625140Y-10435759D03*
%TD*%
D17*
%TO.C,JP2*%
X11280970Y-3704433D03*
X11208845Y-3776558D03*
%TD*%
D10*
%TO.C,R3*%
X17906731Y-5084352D03*
X17955522Y-5133142D03*
%TD*%
%TO.C,L3*%
X15518569Y-8363468D03*
X15567360Y-8412259D03*
%TD*%
%TO.C,C5*%
X11905967Y-4991282D03*
X11954758Y-5040073D03*
%TD*%
%TO.C,L3*%
X18793443Y-5088595D03*
X18842234Y-5137385D03*
%TD*%
%TO.C,R3*%
X11356984Y-8359225D03*
X11405774Y-8408016D03*
%TD*%
D12*
%TO.C,L7*%
X12325013Y-8739649D03*
X12276223Y-8788439D03*
%TD*%
D34*
%TO.C,Y2*%
X15275947Y-5118208D03*
X15258269Y-5135886D03*
X15240592Y-5118208D03*
X15258269Y-5100530D03*
%TD*%
D30*
%TO.C,C17*%
X18003103Y-10172863D03*
X17934103Y-10172863D03*
%TD*%
D10*
%TO.C,C2*%
X15081139Y-11639318D03*
X15129929Y-11688108D03*
%TD*%
D12*
%TO.C,L7*%
X18874761Y-8739649D03*
X18825970Y-8788439D03*
%TD*%
D17*
%TO.C,JP2*%
X14555844Y-6979307D03*
X14483719Y-7051431D03*
%TD*%
D13*
%TO.C,C15*%
X14807015Y-6898696D03*
X14876015Y-6898696D03*
%TD*%
D17*
%TO.C,JP3*%
X14489375Y-3637965D03*
X14417251Y-3710090D03*
%TD*%
D22*
%TO.C,Q1*%
X11043029Y-4624025D03*
X11074848Y-4592206D03*
D23*
X11009441Y-4558618D03*
%TD*%
D27*
%TO.C,MK1*%
X13988443Y-7776750D03*
X13988443Y-7911750D03*
X14078443Y-7911750D03*
X14078443Y-7776750D03*
D28*
X13910943Y-7844250D03*
D29*
X14033443Y-7671750D03*
X14033443Y-8016750D03*
D28*
X14155943Y-7844250D03*
%TD*%
D10*
%TO.C,C12*%
X15130637Y-11589820D03*
X15179427Y-11638611D03*
%TD*%
D12*
%TO.C,L6*%
X12474213Y-5315576D03*
X12425422Y-5364366D03*
%TD*%
D34*
%TO.C,Y2*%
X12001073Y-8393082D03*
X11983396Y-8410760D03*
X11965718Y-8393082D03*
X11983396Y-8375404D03*
%TD*%
D10*
%TO.C,C2*%
X15081139Y-5089570D03*
X15129929Y-5138361D03*
%TD*%
D15*
%TO.C,C8*%
X18692387Y-11299578D03*
X18643596Y-11250788D03*
%TD*%
D35*
%TO.C,SW1*%
X14591906Y-11122508D03*
X14885355Y-10829058D03*
X14743934Y-11274535D03*
X15035616Y-10982854D03*
%TD*%
D20*
%TO.C,AE1*%
X19109874Y-5574730D03*
D21*
X19000272Y-5684332D03*
%TD*%
D19*
%TO.C,C10*%
X18317914Y-4673876D03*
X18250032Y-4741759D03*
%TD*%
D26*
%TO.C,Y1*%
X15134397Y-4628408D03*
X15192733Y-4570072D03*
%TD*%
D10*
%TO.C,L3*%
X12243696Y-11638342D03*
X12292486Y-11687132D03*
%TD*%
%TO.C,L2*%
X18666164Y-8236189D03*
X18714954Y-8284979D03*
%TD*%
D18*
%TO.C,U1*%
X11989576Y-4959915D03*
X11968362Y-4938702D03*
X11947149Y-4917489D03*
X11925936Y-4896276D03*
X11904723Y-4875062D03*
X11883510Y-4853849D03*
X11862296Y-4832636D03*
X12010789Y-4938702D03*
X11968362Y-4896276D03*
X11947149Y-4875062D03*
X11925936Y-4853849D03*
X11904723Y-4832636D03*
X11883510Y-4811423D03*
X12010789Y-4896276D03*
X11989576Y-4875062D03*
X11968362Y-4853849D03*
X11947149Y-4832636D03*
X11925936Y-4811423D03*
X11904723Y-4790210D03*
X12053215Y-4896276D03*
X12032002Y-4875062D03*
X12010789Y-4853849D03*
X11989576Y-4832636D03*
X11968362Y-4811423D03*
X11947149Y-4790210D03*
X11925936Y-4768996D03*
X12074429Y-4875062D03*
X12053215Y-4853849D03*
X12032002Y-4832636D03*
X12010789Y-4811423D03*
X11989576Y-4790210D03*
X11968362Y-4768996D03*
X11947149Y-4747783D03*
X12095642Y-4853849D03*
X12074429Y-4832636D03*
X12053215Y-4811423D03*
X12032002Y-4790210D03*
X12010789Y-4768996D03*
X11989576Y-4747783D03*
X11968362Y-4726570D03*
X12116855Y-4832636D03*
X12095642Y-4811423D03*
X12074429Y-4790210D03*
X12053215Y-4768996D03*
X12032002Y-4747783D03*
X12010789Y-4726570D03*
X11989576Y-4705357D03*
%TD*%
D14*
%TO.C,R1*%
X14354318Y-4465987D03*
X14426443Y-4538112D03*
%TD*%
D10*
%TO.C,R3*%
X14631858Y-11634099D03*
X14680648Y-11682890D03*
%TD*%
D22*
%TO.C,Q1*%
X17592776Y-11173773D03*
X17624596Y-11141953D03*
D23*
X17559188Y-11108365D03*
%TD*%
D16*
%TO.C,C3*%
X17579341Y-5302141D03*
X17628131Y-5253350D03*
%TD*%
D24*
%TO.C,U2*%
X10917517Y-5004095D03*
X10871555Y-5050057D03*
X10825593Y-5096019D03*
X10959943Y-5230369D03*
X11005905Y-5184407D03*
X11051867Y-5138446D03*
%TD*%
D13*
%TO.C,C20*%
X10726039Y-4305474D03*
X10795039Y-4305474D03*
%TD*%
D10*
%TO.C,L2*%
X18666164Y-4961315D03*
X18714954Y-5010106D03*
%TD*%
D16*
%TO.C,FB1*%
X18305101Y-5037952D03*
X18353892Y-4989161D03*
%TD*%
D13*
%TO.C,C15*%
X18081889Y-3623823D03*
X18150889Y-3623823D03*
%TD*%
D34*
%TO.C,Y2*%
X12001073Y-5118208D03*
X11983396Y-5135886D03*
X11965718Y-5118208D03*
X11983396Y-5100530D03*
%TD*%
D10*
%TO.C,C12*%
X18405510Y-11589820D03*
X18454301Y-11638611D03*
%TD*%
D14*
%TO.C,R1*%
X17629192Y-4465987D03*
X17701317Y-4538112D03*
%TD*%
D10*
%TO.C,R3*%
X17906731Y-11634099D03*
X17955522Y-11682890D03*
%TD*%
%TO.C,C2*%
X15081139Y-8364444D03*
X15129929Y-8413234D03*
%TD*%
D12*
%TO.C,C4*%
X17393372Y-8201541D03*
X17344581Y-8250331D03*
%TD*%
D25*
%TO.C,L1*%
X14948203Y-8184132D03*
X15016792Y-8115542D03*
%TD*%
D35*
%TO.C,SW1*%
X17866780Y-11122508D03*
X18160229Y-10829058D03*
X18018808Y-11274535D03*
X18310489Y-10982854D03*
%TD*%
D10*
%TO.C,R2*%
X14582360Y-5133849D03*
X14631150Y-5182640D03*
%TD*%
D35*
%TO.C,SW1*%
X14591906Y-7847634D03*
X14885355Y-7554184D03*
X14743934Y-7999662D03*
X15035616Y-7707980D03*
%TD*%
D31*
%TO.C,D1*%
X11130533Y-10753928D03*
X11241902Y-10642559D03*
%TD*%
D13*
%TO.C,C20*%
X14000913Y-7580347D03*
X14069913Y-7580347D03*
%TD*%
D15*
%TO.C,L18*%
X15651506Y-5416692D03*
X15602715Y-5367902D03*
%TD*%
D16*
%TO.C,C3*%
X17579341Y-11851888D03*
X17628131Y-11803098D03*
%TD*%
%TO.C,FB1*%
X18305101Y-11587699D03*
X18353892Y-11538908D03*
%TD*%
D32*
%TO.C,U3*%
X18014518Y-7155816D03*
X18064518Y-7155816D03*
X18114518Y-7155816D03*
X18164518Y-7155816D03*
D33*
X18180958Y-7094816D03*
X18180958Y-7044816D03*
D32*
X18164518Y-6983816D03*
X18114518Y-6983816D03*
X18064518Y-6983816D03*
X18014518Y-6983816D03*
D33*
X17998078Y-7044816D03*
X17998078Y-7094816D03*
%TD*%
D34*
%TO.C,Y2*%
X15275947Y-8393082D03*
X15258269Y-8410760D03*
X15240592Y-8393082D03*
X15258269Y-8375404D03*
%TD*%
D19*
%TO.C,C10*%
X11768166Y-11223624D03*
X11700284Y-11291506D03*
%TD*%
D14*
%TO.C,R1*%
X11079445Y-7740861D03*
X11151569Y-7812985D03*
%TD*%
D12*
%TO.C,C4*%
X14118498Y-4926667D03*
X14069708Y-4975457D03*
%TD*%
D26*
%TO.C,Y1*%
X15134397Y-11178155D03*
X15192733Y-11119819D03*
%TD*%
D12*
%TO.C,C6*%
X15481093Y-5047582D03*
X15432302Y-5096373D03*
%TD*%
D16*
%TO.C,C3*%
X11029594Y-11851888D03*
X11078384Y-11803098D03*
%TD*%
D31*
%TO.C,D1*%
X11130533Y-4204181D03*
X11241902Y-4092811D03*
%TD*%
D13*
%TO.C,C20*%
X17275787Y-10855221D03*
X17344787Y-10855221D03*
%TD*%
D10*
%TO.C,C2*%
X18356013Y-8364444D03*
X18404803Y-8413234D03*
%TD*%
D11*
%TO.C,C16*%
X17900014Y-10366759D03*
X17900014Y-10435759D03*
%TD*%
D13*
%TO.C,C15*%
X11532141Y-3623823D03*
X11601141Y-3623823D03*
%TD*%
D35*
%TO.C,SW1*%
X11317032Y-11122508D03*
X11610482Y-10829058D03*
X11469060Y-11274535D03*
X11760742Y-10982854D03*
%TD*%
D17*
%TO.C,R4*%
X14312599Y-8041381D03*
X14240474Y-8113506D03*
%TD*%
D26*
%TO.C,Y1*%
X15134397Y-7903282D03*
X15192733Y-7844945D03*
%TD*%
D18*
%TO.C,U1*%
X15264449Y-11509663D03*
X15243236Y-11488449D03*
X15222023Y-11467236D03*
X15200810Y-11446023D03*
X15179597Y-11424810D03*
X15158383Y-11403596D03*
X15137170Y-11382383D03*
X15285663Y-11488449D03*
X15243236Y-11446023D03*
X15222023Y-11424810D03*
X15200810Y-11403596D03*
X15179597Y-11382383D03*
X15158383Y-11361170D03*
X15285663Y-11446023D03*
X15264449Y-11424810D03*
X15243236Y-11403596D03*
X15222023Y-11382383D03*
X15200810Y-11361170D03*
X15179597Y-11339957D03*
X15328089Y-11446023D03*
X15306876Y-11424810D03*
X15285663Y-11403596D03*
X15264449Y-11382383D03*
X15243236Y-11361170D03*
X15222023Y-11339957D03*
X15200810Y-11318744D03*
X15349302Y-11424810D03*
X15328089Y-11403596D03*
X15306876Y-11382383D03*
X15285663Y-11361170D03*
X15264449Y-11339957D03*
X15243236Y-11318744D03*
X15222023Y-11297530D03*
X15370515Y-11403596D03*
X15349302Y-11382383D03*
X15328089Y-11361170D03*
X15306876Y-11339957D03*
X15285663Y-11318744D03*
X15264449Y-11297530D03*
X15243236Y-11276317D03*
X15391729Y-11382383D03*
X15370515Y-11361170D03*
X15349302Y-11339957D03*
X15328089Y-11318744D03*
X15306876Y-11297530D03*
X15285663Y-11276317D03*
X15264449Y-11255104D03*
%TD*%
D22*
%TO.C,Q1*%
X17592776Y-7898899D03*
X17624596Y-7867079D03*
D23*
X17559188Y-7833492D03*
%TD*%
D31*
%TO.C,D1*%
X14405407Y-4204181D03*
X14516776Y-4092811D03*
%TD*%
D16*
%TO.C,C3*%
X14304467Y-11851888D03*
X14353258Y-11803098D03*
%TD*%
D20*
%TO.C,AE1*%
X12560126Y-5574730D03*
D21*
X12450524Y-5684332D03*
%TD*%
D26*
%TO.C,Y1*%
X18409271Y-11178155D03*
X18467607Y-11119819D03*
%TD*%
D24*
%TO.C,U2*%
X17467264Y-5004095D03*
X17421303Y-5050057D03*
X17375341Y-5096019D03*
X17509691Y-5230369D03*
X17555653Y-5184407D03*
X17601615Y-5138446D03*
%TD*%
%TO.C,U2*%
X14192391Y-8278969D03*
X14146429Y-8324931D03*
X14100467Y-8370893D03*
X14234817Y-8505243D03*
X14280779Y-8459281D03*
X14326741Y-8413319D03*
%TD*%
D10*
%TO.C,R2*%
X11307486Y-5133849D03*
X11356277Y-5182640D03*
%TD*%
D12*
%TO.C,L6*%
X12474213Y-8590449D03*
X12425422Y-8639240D03*
%TD*%
D32*
%TO.C,U3*%
X11464771Y-10430690D03*
X11514771Y-10430690D03*
X11564771Y-10430690D03*
X11614771Y-10430690D03*
D33*
X11631211Y-10369690D03*
X11631211Y-10319690D03*
D32*
X11614771Y-10258690D03*
X11564771Y-10258690D03*
X11514771Y-10258690D03*
X11464771Y-10258690D03*
D33*
X11448331Y-10319690D03*
X11448331Y-10369690D03*
%TD*%
D15*
%TO.C,C1*%
X15130637Y-11490825D03*
X15081846Y-11442035D03*
%TD*%
%TO.C,L18*%
X12376632Y-8691566D03*
X12327841Y-8642775D03*
%TD*%
D10*
%TO.C,R3*%
X17906731Y-8359225D03*
X17955522Y-8408016D03*
%TD*%
D17*
%TO.C,R4*%
X14312599Y-11316255D03*
X14240474Y-11388380D03*
%TD*%
D22*
%TO.C,Q1*%
X14317902Y-11173773D03*
X14349722Y-11141953D03*
D23*
X14284315Y-11108365D03*
%TD*%
D16*
%TO.C,C3*%
X11029594Y-8577014D03*
X11078384Y-8528224D03*
%TD*%
D31*
%TO.C,D1*%
X14405407Y-7479054D03*
X14516776Y-7367685D03*
%TD*%
D12*
%TO.C,L7*%
X18874761Y-12014523D03*
X18825970Y-12063313D03*
%TD*%
D17*
%TO.C,R4*%
X17587473Y-11316255D03*
X17515348Y-11388380D03*
%TD*%
D26*
%TO.C,Y1*%
X11859523Y-11178155D03*
X11917860Y-11119819D03*
%TD*%
D14*
%TO.C,R1*%
X17629192Y-7740861D03*
X17701317Y-7812985D03*
%TD*%
D25*
%TO.C,L1*%
X11673329Y-8184132D03*
X11741919Y-8115542D03*
%TD*%
D27*
%TO.C,MK1*%
X10713570Y-7776750D03*
X10713570Y-7911750D03*
X10803570Y-7911750D03*
X10803570Y-7776750D03*
D28*
X10636070Y-7844250D03*
D29*
X10758570Y-7671750D03*
X10758570Y-8016750D03*
D28*
X10881070Y-7844250D03*
%TD*%
D15*
%TO.C,L18*%
X15651506Y-11966439D03*
X15602715Y-11917649D03*
%TD*%
%TO.C,C8*%
X18692387Y-8024704D03*
X18643596Y-7975914D03*
%TD*%
D17*
%TO.C,JP3*%
X11214502Y-3637965D03*
X11142377Y-3710090D03*
%TD*%
%TO.C,JP2*%
X11280970Y-10254180D03*
X11208845Y-10326305D03*
%TD*%
D10*
%TO.C,R2*%
X14582360Y-8408723D03*
X14631150Y-8457513D03*
%TD*%
D35*
%TO.C,SW1*%
X17866780Y-4572760D03*
X18160229Y-4279311D03*
X18018808Y-4724788D03*
X18310489Y-4433107D03*
%TD*%
D25*
%TO.C,L1*%
X14948203Y-4909258D03*
X15016792Y-4840669D03*
%TD*%
D10*
%TO.C,C12*%
X11855763Y-8314946D03*
X11904553Y-8363737D03*
%TD*%
D35*
%TO.C,SW1*%
X14591906Y-4572760D03*
X14885355Y-4279311D03*
X14743934Y-4724788D03*
X15035616Y-4433107D03*
%TD*%
D10*
%TO.C,R2*%
X14582360Y-11683597D03*
X14631150Y-11732387D03*
%TD*%
D15*
%TO.C,C1*%
X11855763Y-11490825D03*
X11806972Y-11442035D03*
%TD*%
D12*
%TO.C,L7*%
X12325013Y-5464775D03*
X12276223Y-5513566D03*
%TD*%
D17*
%TO.C,JP3*%
X17764249Y-6912839D03*
X17692124Y-6984963D03*
%TD*%
D10*
%TO.C,C5*%
X18455715Y-11541030D03*
X18504505Y-11589820D03*
%TD*%
D11*
%TO.C,C16*%
X17900014Y-7091885D03*
X17900014Y-7160885D03*
%TD*%
D10*
%TO.C,C2*%
X18356013Y-11639318D03*
X18404803Y-11688108D03*
%TD*%
D26*
%TO.C,Y1*%
X18409271Y-7903282D03*
X18467607Y-7844945D03*
%TD*%
D10*
%TO.C,C5*%
X11905967Y-11541030D03*
X11954758Y-11589820D03*
%TD*%
D12*
%TO.C,L6*%
X12474213Y-11865323D03*
X12425422Y-11914113D03*
%TD*%
%TO.C,C9*%
X12333498Y-8449735D03*
X12284708Y-8498526D03*
%TD*%
D34*
%TO.C,Y2*%
X12001073Y-11667955D03*
X11983396Y-11685633D03*
X11965718Y-11667955D03*
X11983396Y-11650278D03*
%TD*%
D24*
%TO.C,U2*%
X10917517Y-11553843D03*
X10871555Y-11599805D03*
X10825593Y-11645766D03*
X10959943Y-11780117D03*
X11005905Y-11734155D03*
X11051867Y-11688193D03*
%TD*%
D10*
%TO.C,L3*%
X18793443Y-8363468D03*
X18842234Y-8412259D03*
%TD*%
D12*
%TO.C,C4*%
X10843624Y-4926667D03*
X10794834Y-4975457D03*
%TD*%
D32*
%TO.C,U3*%
X14739645Y-7155816D03*
X14789645Y-7155816D03*
X14839645Y-7155816D03*
X14889645Y-7155816D03*
D33*
X14906085Y-7094816D03*
X14906085Y-7044816D03*
D32*
X14889645Y-6983816D03*
X14839645Y-6983816D03*
X14789645Y-6983816D03*
X14739645Y-6983816D03*
D33*
X14723205Y-7044816D03*
X14723205Y-7094816D03*
%TD*%
D10*
%TO.C,L3*%
X12243696Y-5088595D03*
X12292486Y-5137385D03*
%TD*%
D12*
%TO.C,L7*%
X12325013Y-12014523D03*
X12276223Y-12063313D03*
%TD*%
D30*
%TO.C,C17*%
X18003103Y-6897989D03*
X17934103Y-6897989D03*
%TD*%
D12*
%TO.C,L7*%
X15599887Y-8739649D03*
X15551096Y-8788439D03*
%TD*%
D17*
%TO.C,R4*%
X14312599Y-4766507D03*
X14240474Y-4838632D03*
%TD*%
D12*
%TO.C,C11*%
X11846570Y-8009476D03*
X11797780Y-8058267D03*
%TD*%
D25*
%TO.C,L1*%
X14948203Y-11459005D03*
X15016792Y-11390416D03*
%TD*%
D34*
%TO.C,Y2*%
X18550821Y-5118208D03*
X18533143Y-5135886D03*
X18515465Y-5118208D03*
X18533143Y-5100530D03*
%TD*%
D15*
%TO.C,C1*%
X18405510Y-11490825D03*
X18356720Y-11442035D03*
%TD*%
D11*
%TO.C,C16*%
X14625140Y-7091885D03*
X14625140Y-7160885D03*
%TD*%
D16*
%TO.C,FB1*%
X11755354Y-11587699D03*
X11804144Y-11538908D03*
%TD*%
D12*
%TO.C,C9*%
X18883246Y-11724609D03*
X18834455Y-11773399D03*
%TD*%
%TO.C,C6*%
X18755967Y-5047582D03*
X18707176Y-5096373D03*
%TD*%
%TO.C,C9*%
X15608372Y-5174862D03*
X15559582Y-5223652D03*
%TD*%
D10*
%TO.C,R2*%
X11307486Y-11683597D03*
X11356277Y-11732387D03*
%TD*%
D12*
%TO.C,C11*%
X18396318Y-4734603D03*
X18347528Y-4783393D03*
%TD*%
D17*
%TO.C,R4*%
X11037725Y-4766507D03*
X10965600Y-4838632D03*
%TD*%
D12*
%TO.C,C9*%
X15608372Y-11724609D03*
X15559582Y-11773399D03*
%TD*%
D34*
%TO.C,Y2*%
X18550821Y-8393082D03*
X18533143Y-8410760D03*
X18515465Y-8393082D03*
X18533143Y-8375404D03*
%TD*%
D20*
%TO.C,AE1*%
X12560126Y-8849604D03*
D21*
X12450524Y-8959206D03*
%TD*%
D19*
%TO.C,C10*%
X15043040Y-7948750D03*
X14975158Y-8016632D03*
%TD*%
D12*
%TO.C,C6*%
X18755967Y-8322456D03*
X18707176Y-8371246D03*
%TD*%
D10*
%TO.C,R2*%
X17857234Y-8408723D03*
X17906024Y-8457513D03*
%TD*%
D12*
%TO.C,C9*%
X15608372Y-8449735D03*
X15559582Y-8498526D03*
%TD*%
D16*
%TO.C,FB1*%
X15030227Y-5037952D03*
X15079018Y-4989161D03*
%TD*%
D10*
%TO.C,R2*%
X17857234Y-5133849D03*
X17906024Y-5182640D03*
%TD*%
D12*
%TO.C,L7*%
X15599887Y-5464775D03*
X15551096Y-5513566D03*
%TD*%
D25*
%TO.C,L1*%
X18223077Y-4909258D03*
X18291666Y-4840669D03*
%TD*%
D20*
%TO.C,AE1*%
X15835000Y-12124478D03*
D21*
X15725398Y-12234079D03*
%TD*%
D35*
%TO.C,SW1*%
X11317032Y-7847634D03*
X11610482Y-7554184D03*
X11469060Y-7999662D03*
X11760742Y-7707980D03*
%TD*%
D10*
%TO.C,C5*%
X11905967Y-8266156D03*
X11954758Y-8314946D03*
%TD*%
D25*
%TO.C,L1*%
X11673329Y-11459005D03*
X11741919Y-11390416D03*
%TD*%
D10*
%TO.C,L3*%
X18793443Y-11638342D03*
X18842234Y-11687132D03*
%TD*%
D20*
%TO.C,AE1*%
X19109874Y-12124478D03*
D21*
X19000272Y-12234079D03*
%TD*%
D10*
%TO.C,R3*%
X14631858Y-5084352D03*
X14680648Y-5133142D03*
%TD*%
D32*
%TO.C,U3*%
X14739645Y-10430690D03*
X14789645Y-10430690D03*
X14839645Y-10430690D03*
X14889645Y-10430690D03*
D33*
X14906085Y-10369690D03*
X14906085Y-10319690D03*
D32*
X14889645Y-10258690D03*
X14839645Y-10258690D03*
X14789645Y-10258690D03*
X14739645Y-10258690D03*
D33*
X14723205Y-10319690D03*
X14723205Y-10369690D03*
%TD*%
D12*
%TO.C,L6*%
X15749086Y-5315576D03*
X15700296Y-5364366D03*
%TD*%
D17*
%TO.C,R4*%
X17587473Y-4766507D03*
X17515348Y-4838632D03*
%TD*%
D15*
%TO.C,L18*%
X15651506Y-8691566D03*
X15602715Y-8642775D03*
%TD*%
D18*
%TO.C,U1*%
X18539323Y-4959915D03*
X18518110Y-4938702D03*
X18496897Y-4917489D03*
X18475684Y-4896276D03*
X18454470Y-4875062D03*
X18433257Y-4853849D03*
X18412044Y-4832636D03*
X18560536Y-4938702D03*
X18518110Y-4896276D03*
X18496897Y-4875062D03*
X18475684Y-4853849D03*
X18454470Y-4832636D03*
X18433257Y-4811423D03*
X18560536Y-4896276D03*
X18539323Y-4875062D03*
X18518110Y-4853849D03*
X18496897Y-4832636D03*
X18475684Y-4811423D03*
X18454470Y-4790210D03*
X18602963Y-4896276D03*
X18581750Y-4875062D03*
X18560536Y-4853849D03*
X18539323Y-4832636D03*
X18518110Y-4811423D03*
X18496897Y-4790210D03*
X18475684Y-4768996D03*
X18624176Y-4875062D03*
X18602963Y-4853849D03*
X18581750Y-4832636D03*
X18560536Y-4811423D03*
X18539323Y-4790210D03*
X18518110Y-4768996D03*
X18496897Y-4747783D03*
X18645389Y-4853849D03*
X18624176Y-4832636D03*
X18602963Y-4811423D03*
X18581750Y-4790210D03*
X18560536Y-4768996D03*
X18539323Y-4747783D03*
X18518110Y-4726570D03*
X18666602Y-4832636D03*
X18645389Y-4811423D03*
X18624176Y-4790210D03*
X18602963Y-4768996D03*
X18581750Y-4747783D03*
X18560536Y-4726570D03*
X18539323Y-4705357D03*
%TD*%
D10*
%TO.C,L4*%
X12370975Y-11765621D03*
X12419765Y-11814411D03*
%TD*%
D13*
%TO.C,C20*%
X17275787Y-7580347D03*
X17344787Y-7580347D03*
%TD*%
D10*
%TO.C,R2*%
X11307486Y-8408723D03*
X11356277Y-8457513D03*
%TD*%
D13*
%TO.C,C15*%
X11532141Y-10173570D03*
X11601141Y-10173570D03*
%TD*%
D32*
%TO.C,U3*%
X11464771Y-7155816D03*
X11514771Y-7155816D03*
X11564771Y-7155816D03*
X11614771Y-7155816D03*
D33*
X11631211Y-7094816D03*
X11631211Y-7044816D03*
D32*
X11614771Y-6983816D03*
X11564771Y-6983816D03*
X11514771Y-6983816D03*
X11464771Y-6983816D03*
D33*
X11448331Y-7044816D03*
X11448331Y-7094816D03*
%TD*%
D34*
%TO.C,Y2*%
X18550821Y-11667955D03*
X18533143Y-11685633D03*
X18515465Y-11667955D03*
X18533143Y-11650278D03*
%TD*%
D15*
%TO.C,L18*%
X18926379Y-11966439D03*
X18877589Y-11917649D03*
%TD*%
D30*
%TO.C,C17*%
X14728229Y-10172863D03*
X14659229Y-10172863D03*
%TD*%
D12*
%TO.C,C11*%
X18396318Y-8009476D03*
X18347528Y-8058267D03*
%TD*%
D15*
%TO.C,C1*%
X18405510Y-8215952D03*
X18356720Y-8167161D03*
%TD*%
D35*
%TO.C,SW1*%
X17866780Y-7847634D03*
X18160229Y-7554184D03*
X18018808Y-7999662D03*
X18310489Y-7707980D03*
%TD*%
D19*
%TO.C,C10*%
X11768166Y-4673876D03*
X11700284Y-4741759D03*
%TD*%
D11*
%TO.C,C16*%
X14625140Y-3817011D03*
X14625140Y-3886011D03*
%TD*%
D17*
%TO.C,JP2*%
X14555844Y-10254180D03*
X14483719Y-10326305D03*
%TD*%
D13*
%TO.C,C20*%
X14000913Y-10855221D03*
X14069913Y-10855221D03*
%TD*%
D17*
%TO.C,JP2*%
X17830717Y-6979307D03*
X17758593Y-7051431D03*
%TD*%
D10*
%TO.C,L4*%
X18920722Y-11765621D03*
X18969513Y-11814411D03*
%TD*%
D20*
%TO.C,AE1*%
X12560126Y-12124478D03*
D21*
X12450524Y-12234079D03*
%TD*%
D32*
%TO.C,U3*%
X11464771Y-3880943D03*
X11514771Y-3880943D03*
X11564771Y-3880943D03*
X11614771Y-3880943D03*
D33*
X11631211Y-3819943D03*
X11631211Y-3769943D03*
D32*
X11614771Y-3708943D03*
X11564771Y-3708943D03*
X11514771Y-3708943D03*
X11464771Y-3708943D03*
D33*
X11448331Y-3769943D03*
X11448331Y-3819943D03*
%TD*%
D15*
%TO.C,L18*%
X12376632Y-11966439D03*
X12327841Y-11917649D03*
%TD*%
D12*
%TO.C,C9*%
X12333498Y-5174862D03*
X12284708Y-5223652D03*
%TD*%
D30*
%TO.C,C17*%
X11453356Y-6897989D03*
X11384356Y-6897989D03*
%TD*%
D27*
%TO.C,MK1*%
X10713570Y-4501876D03*
X10713570Y-4636876D03*
X10803570Y-4636876D03*
X10803570Y-4501876D03*
D28*
X10636070Y-4569376D03*
D29*
X10758570Y-4396876D03*
X10758570Y-4741876D03*
D28*
X10881070Y-4569376D03*
%TD*%
D10*
%TO.C,C12*%
X18405510Y-5040073D03*
X18454301Y-5088863D03*
%TD*%
D12*
%TO.C,L6*%
X19023960Y-8590449D03*
X18975170Y-8639240D03*
%TD*%
D17*
%TO.C,JP3*%
X14489375Y-10187712D03*
X14417251Y-10259837D03*
%TD*%
D13*
%TO.C,C15*%
X18081889Y-6898696D03*
X18150889Y-6898696D03*
%TD*%
D16*
%TO.C,C3*%
X17579341Y-8577014D03*
X17628131Y-8528224D03*
%TD*%
D12*
%TO.C,C4*%
X14118498Y-8201541D03*
X14069708Y-8250331D03*
%TD*%
D17*
%TO.C,JP2*%
X17830717Y-3704433D03*
X17758593Y-3776558D03*
%TD*%
D30*
%TO.C,C17*%
X14728229Y-3623116D03*
X14659229Y-3623116D03*
%TD*%
D27*
%TO.C,MK1*%
X17263317Y-11051624D03*
X17263317Y-11186624D03*
X17353317Y-11186624D03*
X17353317Y-11051624D03*
D28*
X17185817Y-11119124D03*
D29*
X17308317Y-10946624D03*
X17308317Y-11291624D03*
D28*
X17430817Y-11119124D03*
%TD*%
D12*
%TO.C,C4*%
X10843624Y-11476414D03*
X10794834Y-11525205D03*
%TD*%
D31*
%TO.C,D1*%
X17680280Y-10753928D03*
X17791650Y-10642559D03*
%TD*%
D10*
%TO.C,R3*%
X11356984Y-11634099D03*
X11405774Y-11682890D03*
%TD*%
D12*
%TO.C,C11*%
X18396318Y-11284350D03*
X18347528Y-11333140D03*
%TD*%
D15*
%TO.C,L18*%
X18926379Y-5416692D03*
X18877589Y-5367902D03*
%TD*%
D10*
%TO.C,C12*%
X18405510Y-8314946D03*
X18454301Y-8363737D03*
%TD*%
D30*
%TO.C,C17*%
X11453356Y-10172863D03*
X11384356Y-10172863D03*
%TD*%
D27*
%TO.C,MK1*%
X17263317Y-7776750D03*
X17263317Y-7911750D03*
X17353317Y-7911750D03*
X17353317Y-7776750D03*
D28*
X17185817Y-7844250D03*
D29*
X17308317Y-7671750D03*
X17308317Y-8016750D03*
D28*
X17430817Y-7844250D03*
%TD*%
D22*
%TO.C,Q1*%
X11043029Y-11173773D03*
X11074848Y-11141953D03*
D23*
X11009441Y-11108365D03*
%TD*%
D24*
%TO.C,U2*%
X17467264Y-11553843D03*
X17421303Y-11599805D03*
X17375341Y-11645766D03*
X17509691Y-11780117D03*
X17555653Y-11734155D03*
X17601615Y-11688193D03*
%TD*%
D32*
%TO.C,U3*%
X18014518Y-10430690D03*
X18064518Y-10430690D03*
X18114518Y-10430690D03*
X18164518Y-10430690D03*
D33*
X18180958Y-10369690D03*
X18180958Y-10319690D03*
D32*
X18164518Y-10258690D03*
X18114518Y-10258690D03*
X18064518Y-10258690D03*
X18014518Y-10258690D03*
D33*
X17998078Y-10319690D03*
X17998078Y-10369690D03*
%TD*%
D10*
%TO.C,C12*%
X15130637Y-8314946D03*
X15179427Y-8363737D03*
%TD*%
D12*
%TO.C,C11*%
X15121444Y-8009476D03*
X15072654Y-8058267D03*
%TD*%
%TO.C,C6*%
X12206219Y-8322456D03*
X12157429Y-8371246D03*
%TD*%
D10*
%TO.C,L3*%
X15518569Y-5088595D03*
X15567360Y-5137385D03*
%TD*%
D34*
%TO.C,Y2*%
X15275947Y-11667955D03*
X15258269Y-11685633D03*
X15240592Y-11667955D03*
X15258269Y-11650278D03*
%TD*%
D13*
%TO.C,C15*%
X11532141Y-6898696D03*
X11601141Y-6898696D03*
%TD*%
D26*
%TO.C,Y1*%
X18409271Y-4628408D03*
X18467607Y-4570072D03*
%TD*%
D31*
%TO.C,D1*%
X11130533Y-7479054D03*
X11241902Y-7367685D03*
%TD*%
D12*
%TO.C,L6*%
X15749086Y-11865323D03*
X15700296Y-11914113D03*
%TD*%
D22*
%TO.C,Q1*%
X14317902Y-7898899D03*
X14349722Y-7867079D03*
D23*
X14284315Y-7833492D03*
%TD*%
D20*
%TO.C,AE1*%
X15835000Y-5574730D03*
D21*
X15725398Y-5684332D03*
%TD*%
D16*
%TO.C,C3*%
X14304467Y-8577014D03*
X14353258Y-8528224D03*
%TD*%
D12*
%TO.C,L6*%
X19023960Y-5315576D03*
X18975170Y-5364366D03*
%TD*%
%TO.C,C4*%
X17393372Y-11476414D03*
X17344581Y-11525205D03*
%TD*%
D35*
%TO.C,SW1*%
X11317032Y-4572760D03*
X11610482Y-4279311D03*
X11469060Y-4724788D03*
X11760742Y-4433107D03*
%TD*%
D13*
%TO.C,C20*%
X14000913Y-4305474D03*
X14069913Y-4305474D03*
%TD*%
D25*
%TO.C,L1*%
X18223077Y-8184132D03*
X18291666Y-8115542D03*
%TD*%
D17*
%TO.C,R4*%
X11037725Y-11316255D03*
X10965600Y-11388380D03*
%TD*%
D13*
%TO.C,C15*%
X14807015Y-10173570D03*
X14876015Y-10173570D03*
%TD*%
D12*
%TO.C,C9*%
X18883246Y-5174862D03*
X18834455Y-5223652D03*
%TD*%
D10*
%TO.C,C5*%
X15180841Y-4991282D03*
X15229632Y-5040073D03*
%TD*%
D17*
%TO.C,R4*%
X11037725Y-8041381D03*
X10965600Y-8113506D03*
%TD*%
D10*
%TO.C,L4*%
X18920722Y-8490747D03*
X18969513Y-8539538D03*
%TD*%
D31*
%TO.C,D1*%
X17680280Y-4204181D03*
X17791650Y-4092811D03*
%TD*%
D27*
%TO.C,MK1*%
X17263317Y-4501876D03*
X17263317Y-4636876D03*
X17353317Y-4636876D03*
X17353317Y-4501876D03*
D28*
X17185817Y-4569376D03*
D29*
X17308317Y-4396876D03*
X17308317Y-4741876D03*
D28*
X17430817Y-4569376D03*
%TD*%
D14*
%TO.C,R1*%
X17629192Y-11015734D03*
X17701317Y-11087859D03*
%TD*%
D24*
%TO.C,U2*%
X14192391Y-11553843D03*
X14146429Y-11599805D03*
X14100467Y-11645766D03*
X14234817Y-11780117D03*
X14280779Y-11734155D03*
X14326741Y-11688193D03*
%TD*%
D27*
%TO.C,MK1*%
X10713570Y-11051624D03*
X10713570Y-11186624D03*
X10803570Y-11186624D03*
X10803570Y-11051624D03*
D28*
X10636070Y-11119124D03*
D29*
X10758570Y-10946624D03*
X10758570Y-11291624D03*
D28*
X10881070Y-11119124D03*
%TD*%
D10*
%TO.C,L2*%
X12116417Y-11511063D03*
X12165207Y-11559853D03*
%TD*%
%TO.C,L4*%
X12370975Y-5215874D03*
X12419765Y-5264664D03*
%TD*%
D12*
%TO.C,C11*%
X11846570Y-4734603D03*
X11797780Y-4783393D03*
%TD*%
D18*
%TO.C,U1*%
X15264449Y-8234789D03*
X15243236Y-8213576D03*
X15222023Y-8192362D03*
X15200810Y-8171149D03*
X15179597Y-8149936D03*
X15158383Y-8128723D03*
X15137170Y-8107510D03*
X15285663Y-8213576D03*
X15243236Y-8171149D03*
X15222023Y-8149936D03*
X15200810Y-8128723D03*
X15179597Y-8107510D03*
X15158383Y-8086296D03*
X15285663Y-8171149D03*
X15264449Y-8149936D03*
X15243236Y-8128723D03*
X15222023Y-8107510D03*
X15200810Y-8086296D03*
X15179597Y-8065083D03*
X15328089Y-8171149D03*
X15306876Y-8149936D03*
X15285663Y-8128723D03*
X15264449Y-8107510D03*
X15243236Y-8086296D03*
X15222023Y-8065083D03*
X15200810Y-8043870D03*
X15349302Y-8149936D03*
X15328089Y-8128723D03*
X15306876Y-8107510D03*
X15285663Y-8086296D03*
X15264449Y-8065083D03*
X15243236Y-8043870D03*
X15222023Y-8022657D03*
X15370515Y-8128723D03*
X15349302Y-8107510D03*
X15328089Y-8086296D03*
X15306876Y-8065083D03*
X15285663Y-8043870D03*
X15264449Y-8022657D03*
X15243236Y-8001444D03*
X15391729Y-8107510D03*
X15370515Y-8086296D03*
X15349302Y-8065083D03*
X15328089Y-8043870D03*
X15306876Y-8022657D03*
X15285663Y-8001444D03*
X15264449Y-7980230D03*
%TD*%
D20*
%TO.C,AE1*%
X15835000Y-8849604D03*
D21*
X15725398Y-8959206D03*
%TD*%
D17*
%TO.C,JP3*%
X17764249Y-10187712D03*
X17692124Y-10259837D03*
%TD*%
D10*
%TO.C,L4*%
X15645849Y-8490747D03*
X15694639Y-8539538D03*
%TD*%
%TO.C,L4*%
X12370975Y-8490747D03*
X12419765Y-8539538D03*
%TD*%
D18*
%TO.C,U1*%
X15264449Y-4959915D03*
X15243236Y-4938702D03*
X15222023Y-4917489D03*
X15200810Y-4896276D03*
X15179597Y-4875062D03*
X15158383Y-4853849D03*
X15137170Y-4832636D03*
X15285663Y-4938702D03*
X15243236Y-4896276D03*
X15222023Y-4875062D03*
X15200810Y-4853849D03*
X15179597Y-4832636D03*
X15158383Y-4811423D03*
X15285663Y-4896276D03*
X15264449Y-4875062D03*
X15243236Y-4853849D03*
X15222023Y-4832636D03*
X15200810Y-4811423D03*
X15179597Y-4790210D03*
X15328089Y-4896276D03*
X15306876Y-4875062D03*
X15285663Y-4853849D03*
X15264449Y-4832636D03*
X15243236Y-4811423D03*
X15222023Y-4790210D03*
X15200810Y-4768996D03*
X15349302Y-4875062D03*
X15328089Y-4853849D03*
X15306876Y-4832636D03*
X15285663Y-4811423D03*
X15264449Y-4790210D03*
X15243236Y-4768996D03*
X15222023Y-4747783D03*
X15370515Y-4853849D03*
X15349302Y-4832636D03*
X15328089Y-4811423D03*
X15306876Y-4790210D03*
X15285663Y-4768996D03*
X15264449Y-4747783D03*
X15243236Y-4726570D03*
X15391729Y-4832636D03*
X15370515Y-4811423D03*
X15349302Y-4790210D03*
X15328089Y-4768996D03*
X15306876Y-4747783D03*
X15285663Y-4726570D03*
X15264449Y-4705357D03*
%TD*%
D13*
%TO.C,C15*%
X14807015Y-3623823D03*
X14876015Y-3623823D03*
%TD*%
D10*
%TO.C,C12*%
X15130637Y-5040073D03*
X15179427Y-5088863D03*
%TD*%
D12*
%TO.C,C6*%
X15481093Y-11597330D03*
X15432302Y-11646120D03*
%TD*%
D30*
%TO.C,C17*%
X18003103Y-3623116D03*
X17934103Y-3623116D03*
%TD*%
D31*
%TO.C,D1*%
X17680280Y-7479054D03*
X17791650Y-7367685D03*
%TD*%
D17*
%TO.C,JP2*%
X17830717Y-10254180D03*
X17758593Y-10326305D03*
%TD*%
D15*
%TO.C,C8*%
X15417513Y-8024704D03*
X15368722Y-7975914D03*
%TD*%
M02*
