%TF.GenerationSoftware,KiCad,Pcbnew,9.0.0-rc2-3baa6cd791~182~ubuntu24.04.1*%
%TF.CreationDate,2025-01-31T11:47:19-05:00*%
%TF.ProjectId,PCA20073_nRF54L15_Tiny_Board,50434132-3030-4373-935f-6e524635344c,rev?*%
%TF.SameCoordinates,Original*%
%TF.FileFunction,Other,Comment*%
%FSLAX45Y45*%
G04 Gerber Fmt 4.5, Leading zero omitted, Abs format (unit mm)*
G04 Created by KiCad (PCBNEW 9.0.0-rc2-3baa6cd791~182~ubuntu24.04.1) date 2025-01-31 11:47:19*
%MOMM*%
%LPD*%
G01*
G04 APERTURE LIST*
%ADD10C,0.070000*%
G04 APERTURE END LIST*
D10*
X12378156Y-10977616D02*
X12338156Y-10977616D01*
X12378156Y-10954759D02*
X12355298Y-10971902D01*
X12338156Y-10954759D02*
X12361013Y-10977616D01*
X12357203Y-10937616D02*
X12357203Y-10924283D01*
X12378156Y-10918569D02*
X12378156Y-10937616D01*
X12378156Y-10937616D02*
X12338156Y-10937616D01*
X12338156Y-10937616D02*
X12338156Y-10918569D01*
X12357203Y-10901426D02*
X12357203Y-10888093D01*
X12378156Y-10882378D02*
X12378156Y-10901426D01*
X12378156Y-10901426D02*
X12338156Y-10901426D01*
X12338156Y-10901426D02*
X12338156Y-10882378D01*
X12378156Y-10865235D02*
X12338156Y-10865235D01*
X12338156Y-10865235D02*
X12338156Y-10849997D01*
X12338156Y-10849997D02*
X12340060Y-10846188D01*
X12340060Y-10846188D02*
X12341965Y-10844283D01*
X12341965Y-10844283D02*
X12345775Y-10842378D01*
X12345775Y-10842378D02*
X12351489Y-10842378D01*
X12351489Y-10842378D02*
X12355298Y-10844283D01*
X12355298Y-10844283D02*
X12357203Y-10846188D01*
X12357203Y-10846188D02*
X12359108Y-10849997D01*
X12359108Y-10849997D02*
X12359108Y-10865235D01*
X12338156Y-10817616D02*
X12338156Y-10809997D01*
X12338156Y-10809997D02*
X12340060Y-10806188D01*
X12340060Y-10806188D02*
X12343870Y-10802378D01*
X12343870Y-10802378D02*
X12351489Y-10800474D01*
X12351489Y-10800474D02*
X12364822Y-10800474D01*
X12364822Y-10800474D02*
X12372441Y-10802378D01*
X12372441Y-10802378D02*
X12376251Y-10806188D01*
X12376251Y-10806188D02*
X12378156Y-10809997D01*
X12378156Y-10809997D02*
X12378156Y-10817616D01*
X12378156Y-10817616D02*
X12376251Y-10821426D01*
X12376251Y-10821426D02*
X12372441Y-10825235D01*
X12372441Y-10825235D02*
X12364822Y-10827140D01*
X12364822Y-10827140D02*
X12351489Y-10827140D01*
X12351489Y-10827140D02*
X12343870Y-10825235D01*
X12343870Y-10825235D02*
X12340060Y-10821426D01*
X12340060Y-10821426D02*
X12338156Y-10817616D01*
X12338156Y-10783331D02*
X12370537Y-10783331D01*
X12370537Y-10783331D02*
X12374346Y-10781426D01*
X12374346Y-10781426D02*
X12376251Y-10779521D01*
X12376251Y-10779521D02*
X12378156Y-10775712D01*
X12378156Y-10775712D02*
X12378156Y-10768093D01*
X12378156Y-10768093D02*
X12376251Y-10764283D01*
X12376251Y-10764283D02*
X12374346Y-10762378D01*
X12374346Y-10762378D02*
X12370537Y-10760474D01*
X12370537Y-10760474D02*
X12338156Y-10760474D01*
X12338156Y-10747140D02*
X12338156Y-10724283D01*
X12378156Y-10735712D02*
X12338156Y-10735712D01*
X18927903Y-7702743D02*
X18887903Y-7702743D01*
X18927903Y-7679886D02*
X18905046Y-7697028D01*
X18887903Y-7679886D02*
X18910760Y-7702743D01*
X18906951Y-7662743D02*
X18906951Y-7649409D01*
X18927903Y-7643695D02*
X18927903Y-7662743D01*
X18927903Y-7662743D02*
X18887903Y-7662743D01*
X18887903Y-7662743D02*
X18887903Y-7643695D01*
X18906951Y-7626552D02*
X18906951Y-7613219D01*
X18927903Y-7607505D02*
X18927903Y-7626552D01*
X18927903Y-7626552D02*
X18887903Y-7626552D01*
X18887903Y-7626552D02*
X18887903Y-7607505D01*
X18927903Y-7590362D02*
X18887903Y-7590362D01*
X18887903Y-7590362D02*
X18887903Y-7575124D01*
X18887903Y-7575124D02*
X18889808Y-7571314D01*
X18889808Y-7571314D02*
X18891713Y-7569409D01*
X18891713Y-7569409D02*
X18895522Y-7567505D01*
X18895522Y-7567505D02*
X18901236Y-7567505D01*
X18901236Y-7567505D02*
X18905046Y-7569409D01*
X18905046Y-7569409D02*
X18906951Y-7571314D01*
X18906951Y-7571314D02*
X18908855Y-7575124D01*
X18908855Y-7575124D02*
X18908855Y-7590362D01*
X18887903Y-7542743D02*
X18887903Y-7535124D01*
X18887903Y-7535124D02*
X18889808Y-7531314D01*
X18889808Y-7531314D02*
X18893617Y-7527505D01*
X18893617Y-7527505D02*
X18901236Y-7525600D01*
X18901236Y-7525600D02*
X18914570Y-7525600D01*
X18914570Y-7525600D02*
X18922189Y-7527505D01*
X18922189Y-7527505D02*
X18925998Y-7531314D01*
X18925998Y-7531314D02*
X18927903Y-7535124D01*
X18927903Y-7535124D02*
X18927903Y-7542743D01*
X18927903Y-7542743D02*
X18925998Y-7546552D01*
X18925998Y-7546552D02*
X18922189Y-7550362D01*
X18922189Y-7550362D02*
X18914570Y-7552266D01*
X18914570Y-7552266D02*
X18901236Y-7552266D01*
X18901236Y-7552266D02*
X18893617Y-7550362D01*
X18893617Y-7550362D02*
X18889808Y-7546552D01*
X18889808Y-7546552D02*
X18887903Y-7542743D01*
X18887903Y-7508457D02*
X18920284Y-7508457D01*
X18920284Y-7508457D02*
X18924094Y-7506552D01*
X18924094Y-7506552D02*
X18925998Y-7504647D01*
X18925998Y-7504647D02*
X18927903Y-7500838D01*
X18927903Y-7500838D02*
X18927903Y-7493219D01*
X18927903Y-7493219D02*
X18925998Y-7489409D01*
X18925998Y-7489409D02*
X18924094Y-7487505D01*
X18924094Y-7487505D02*
X18920284Y-7485600D01*
X18920284Y-7485600D02*
X18887903Y-7485600D01*
X18887903Y-7472266D02*
X18887903Y-7449409D01*
X18927903Y-7460838D02*
X18887903Y-7460838D01*
X12378156Y-4427869D02*
X12338156Y-4427869D01*
X12378156Y-4405012D02*
X12355298Y-4422155D01*
X12338156Y-4405012D02*
X12361013Y-4427869D01*
X12357203Y-4387869D02*
X12357203Y-4374536D01*
X12378156Y-4368821D02*
X12378156Y-4387869D01*
X12378156Y-4387869D02*
X12338156Y-4387869D01*
X12338156Y-4387869D02*
X12338156Y-4368821D01*
X12357203Y-4351679D02*
X12357203Y-4338345D01*
X12378156Y-4332631D02*
X12378156Y-4351679D01*
X12378156Y-4351679D02*
X12338156Y-4351679D01*
X12338156Y-4351679D02*
X12338156Y-4332631D01*
X12378156Y-4315488D02*
X12338156Y-4315488D01*
X12338156Y-4315488D02*
X12338156Y-4300250D01*
X12338156Y-4300250D02*
X12340060Y-4296440D01*
X12340060Y-4296440D02*
X12341965Y-4294536D01*
X12341965Y-4294536D02*
X12345775Y-4292631D01*
X12345775Y-4292631D02*
X12351489Y-4292631D01*
X12351489Y-4292631D02*
X12355298Y-4294536D01*
X12355298Y-4294536D02*
X12357203Y-4296440D01*
X12357203Y-4296440D02*
X12359108Y-4300250D01*
X12359108Y-4300250D02*
X12359108Y-4315488D01*
X12338156Y-4267869D02*
X12338156Y-4260250D01*
X12338156Y-4260250D02*
X12340060Y-4256440D01*
X12340060Y-4256440D02*
X12343870Y-4252631D01*
X12343870Y-4252631D02*
X12351489Y-4250726D01*
X12351489Y-4250726D02*
X12364822Y-4250726D01*
X12364822Y-4250726D02*
X12372441Y-4252631D01*
X12372441Y-4252631D02*
X12376251Y-4256440D01*
X12376251Y-4256440D02*
X12378156Y-4260250D01*
X12378156Y-4260250D02*
X12378156Y-4267869D01*
X12378156Y-4267869D02*
X12376251Y-4271679D01*
X12376251Y-4271679D02*
X12372441Y-4275488D01*
X12372441Y-4275488D02*
X12364822Y-4277393D01*
X12364822Y-4277393D02*
X12351489Y-4277393D01*
X12351489Y-4277393D02*
X12343870Y-4275488D01*
X12343870Y-4275488D02*
X12340060Y-4271679D01*
X12340060Y-4271679D02*
X12338156Y-4267869D01*
X12338156Y-4233583D02*
X12370537Y-4233583D01*
X12370537Y-4233583D02*
X12374346Y-4231679D01*
X12374346Y-4231679D02*
X12376251Y-4229774D01*
X12376251Y-4229774D02*
X12378156Y-4225964D01*
X12378156Y-4225964D02*
X12378156Y-4218345D01*
X12378156Y-4218345D02*
X12376251Y-4214536D01*
X12376251Y-4214536D02*
X12374346Y-4212631D01*
X12374346Y-4212631D02*
X12370537Y-4210726D01*
X12370537Y-4210726D02*
X12338156Y-4210726D01*
X12338156Y-4197393D02*
X12338156Y-4174536D01*
X12378156Y-4185964D02*
X12338156Y-4185964D01*
X12378156Y-7702743D02*
X12338156Y-7702743D01*
X12378156Y-7679886D02*
X12355298Y-7697028D01*
X12338156Y-7679886D02*
X12361013Y-7702743D01*
X12357203Y-7662743D02*
X12357203Y-7649409D01*
X12378156Y-7643695D02*
X12378156Y-7662743D01*
X12378156Y-7662743D02*
X12338156Y-7662743D01*
X12338156Y-7662743D02*
X12338156Y-7643695D01*
X12357203Y-7626552D02*
X12357203Y-7613219D01*
X12378156Y-7607505D02*
X12378156Y-7626552D01*
X12378156Y-7626552D02*
X12338156Y-7626552D01*
X12338156Y-7626552D02*
X12338156Y-7607505D01*
X12378156Y-7590362D02*
X12338156Y-7590362D01*
X12338156Y-7590362D02*
X12338156Y-7575124D01*
X12338156Y-7575124D02*
X12340060Y-7571314D01*
X12340060Y-7571314D02*
X12341965Y-7569409D01*
X12341965Y-7569409D02*
X12345775Y-7567505D01*
X12345775Y-7567505D02*
X12351489Y-7567505D01*
X12351489Y-7567505D02*
X12355298Y-7569409D01*
X12355298Y-7569409D02*
X12357203Y-7571314D01*
X12357203Y-7571314D02*
X12359108Y-7575124D01*
X12359108Y-7575124D02*
X12359108Y-7590362D01*
X12338156Y-7542743D02*
X12338156Y-7535124D01*
X12338156Y-7535124D02*
X12340060Y-7531314D01*
X12340060Y-7531314D02*
X12343870Y-7527505D01*
X12343870Y-7527505D02*
X12351489Y-7525600D01*
X12351489Y-7525600D02*
X12364822Y-7525600D01*
X12364822Y-7525600D02*
X12372441Y-7527505D01*
X12372441Y-7527505D02*
X12376251Y-7531314D01*
X12376251Y-7531314D02*
X12378156Y-7535124D01*
X12378156Y-7535124D02*
X12378156Y-7542743D01*
X12378156Y-7542743D02*
X12376251Y-7546552D01*
X12376251Y-7546552D02*
X12372441Y-7550362D01*
X12372441Y-7550362D02*
X12364822Y-7552266D01*
X12364822Y-7552266D02*
X12351489Y-7552266D01*
X12351489Y-7552266D02*
X12343870Y-7550362D01*
X12343870Y-7550362D02*
X12340060Y-7546552D01*
X12340060Y-7546552D02*
X12338156Y-7542743D01*
X12338156Y-7508457D02*
X12370537Y-7508457D01*
X12370537Y-7508457D02*
X12374346Y-7506552D01*
X12374346Y-7506552D02*
X12376251Y-7504647D01*
X12376251Y-7504647D02*
X12378156Y-7500838D01*
X12378156Y-7500838D02*
X12378156Y-7493219D01*
X12378156Y-7493219D02*
X12376251Y-7489409D01*
X12376251Y-7489409D02*
X12374346Y-7487505D01*
X12374346Y-7487505D02*
X12370537Y-7485600D01*
X12370537Y-7485600D02*
X12338156Y-7485600D01*
X12338156Y-7472266D02*
X12338156Y-7449409D01*
X12378156Y-7460838D02*
X12338156Y-7460838D01*
X18927903Y-10977616D02*
X18887903Y-10977616D01*
X18927903Y-10954759D02*
X18905046Y-10971902D01*
X18887903Y-10954759D02*
X18910760Y-10977616D01*
X18906951Y-10937616D02*
X18906951Y-10924283D01*
X18927903Y-10918569D02*
X18927903Y-10937616D01*
X18927903Y-10937616D02*
X18887903Y-10937616D01*
X18887903Y-10937616D02*
X18887903Y-10918569D01*
X18906951Y-10901426D02*
X18906951Y-10888093D01*
X18927903Y-10882378D02*
X18927903Y-10901426D01*
X18927903Y-10901426D02*
X18887903Y-10901426D01*
X18887903Y-10901426D02*
X18887903Y-10882378D01*
X18927903Y-10865235D02*
X18887903Y-10865235D01*
X18887903Y-10865235D02*
X18887903Y-10849997D01*
X18887903Y-10849997D02*
X18889808Y-10846188D01*
X18889808Y-10846188D02*
X18891713Y-10844283D01*
X18891713Y-10844283D02*
X18895522Y-10842378D01*
X18895522Y-10842378D02*
X18901236Y-10842378D01*
X18901236Y-10842378D02*
X18905046Y-10844283D01*
X18905046Y-10844283D02*
X18906951Y-10846188D01*
X18906951Y-10846188D02*
X18908855Y-10849997D01*
X18908855Y-10849997D02*
X18908855Y-10865235D01*
X18887903Y-10817616D02*
X18887903Y-10809997D01*
X18887903Y-10809997D02*
X18889808Y-10806188D01*
X18889808Y-10806188D02*
X18893617Y-10802378D01*
X18893617Y-10802378D02*
X18901236Y-10800474D01*
X18901236Y-10800474D02*
X18914570Y-10800474D01*
X18914570Y-10800474D02*
X18922189Y-10802378D01*
X18922189Y-10802378D02*
X18925998Y-10806188D01*
X18925998Y-10806188D02*
X18927903Y-10809997D01*
X18927903Y-10809997D02*
X18927903Y-10817616D01*
X18927903Y-10817616D02*
X18925998Y-10821426D01*
X18925998Y-10821426D02*
X18922189Y-10825235D01*
X18922189Y-10825235D02*
X18914570Y-10827140D01*
X18914570Y-10827140D02*
X18901236Y-10827140D01*
X18901236Y-10827140D02*
X18893617Y-10825235D01*
X18893617Y-10825235D02*
X18889808Y-10821426D01*
X18889808Y-10821426D02*
X18887903Y-10817616D01*
X18887903Y-10783331D02*
X18920284Y-10783331D01*
X18920284Y-10783331D02*
X18924094Y-10781426D01*
X18924094Y-10781426D02*
X18925998Y-10779521D01*
X18925998Y-10779521D02*
X18927903Y-10775712D01*
X18927903Y-10775712D02*
X18927903Y-10768093D01*
X18927903Y-10768093D02*
X18925998Y-10764283D01*
X18925998Y-10764283D02*
X18924094Y-10762378D01*
X18924094Y-10762378D02*
X18920284Y-10760474D01*
X18920284Y-10760474D02*
X18887903Y-10760474D01*
X18887903Y-10747140D02*
X18887903Y-10724283D01*
X18927903Y-10735712D02*
X18887903Y-10735712D01*
X15653029Y-7702743D02*
X15613029Y-7702743D01*
X15653029Y-7679886D02*
X15630172Y-7697028D01*
X15613029Y-7679886D02*
X15635886Y-7702743D01*
X15632077Y-7662743D02*
X15632077Y-7649409D01*
X15653029Y-7643695D02*
X15653029Y-7662743D01*
X15653029Y-7662743D02*
X15613029Y-7662743D01*
X15613029Y-7662743D02*
X15613029Y-7643695D01*
X15632077Y-7626552D02*
X15632077Y-7613219D01*
X15653029Y-7607505D02*
X15653029Y-7626552D01*
X15653029Y-7626552D02*
X15613029Y-7626552D01*
X15613029Y-7626552D02*
X15613029Y-7607505D01*
X15653029Y-7590362D02*
X15613029Y-7590362D01*
X15613029Y-7590362D02*
X15613029Y-7575124D01*
X15613029Y-7575124D02*
X15614934Y-7571314D01*
X15614934Y-7571314D02*
X15616839Y-7569409D01*
X15616839Y-7569409D02*
X15620648Y-7567505D01*
X15620648Y-7567505D02*
X15626363Y-7567505D01*
X15626363Y-7567505D02*
X15630172Y-7569409D01*
X15630172Y-7569409D02*
X15632077Y-7571314D01*
X15632077Y-7571314D02*
X15633982Y-7575124D01*
X15633982Y-7575124D02*
X15633982Y-7590362D01*
X15613029Y-7542743D02*
X15613029Y-7535124D01*
X15613029Y-7535124D02*
X15614934Y-7531314D01*
X15614934Y-7531314D02*
X15618744Y-7527505D01*
X15618744Y-7527505D02*
X15626363Y-7525600D01*
X15626363Y-7525600D02*
X15639696Y-7525600D01*
X15639696Y-7525600D02*
X15647315Y-7527505D01*
X15647315Y-7527505D02*
X15651125Y-7531314D01*
X15651125Y-7531314D02*
X15653029Y-7535124D01*
X15653029Y-7535124D02*
X15653029Y-7542743D01*
X15653029Y-7542743D02*
X15651125Y-7546552D01*
X15651125Y-7546552D02*
X15647315Y-7550362D01*
X15647315Y-7550362D02*
X15639696Y-7552266D01*
X15639696Y-7552266D02*
X15626363Y-7552266D01*
X15626363Y-7552266D02*
X15618744Y-7550362D01*
X15618744Y-7550362D02*
X15614934Y-7546552D01*
X15614934Y-7546552D02*
X15613029Y-7542743D01*
X15613029Y-7508457D02*
X15645410Y-7508457D01*
X15645410Y-7508457D02*
X15649220Y-7506552D01*
X15649220Y-7506552D02*
X15651125Y-7504647D01*
X15651125Y-7504647D02*
X15653029Y-7500838D01*
X15653029Y-7500838D02*
X15653029Y-7493219D01*
X15653029Y-7493219D02*
X15651125Y-7489409D01*
X15651125Y-7489409D02*
X15649220Y-7487505D01*
X15649220Y-7487505D02*
X15645410Y-7485600D01*
X15645410Y-7485600D02*
X15613029Y-7485600D01*
X15613029Y-7472266D02*
X15613029Y-7449409D01*
X15653029Y-7460838D02*
X15613029Y-7460838D01*
X15653029Y-10977616D02*
X15613029Y-10977616D01*
X15653029Y-10954759D02*
X15630172Y-10971902D01*
X15613029Y-10954759D02*
X15635886Y-10977616D01*
X15632077Y-10937616D02*
X15632077Y-10924283D01*
X15653029Y-10918569D02*
X15653029Y-10937616D01*
X15653029Y-10937616D02*
X15613029Y-10937616D01*
X15613029Y-10937616D02*
X15613029Y-10918569D01*
X15632077Y-10901426D02*
X15632077Y-10888093D01*
X15653029Y-10882378D02*
X15653029Y-10901426D01*
X15653029Y-10901426D02*
X15613029Y-10901426D01*
X15613029Y-10901426D02*
X15613029Y-10882378D01*
X15653029Y-10865235D02*
X15613029Y-10865235D01*
X15613029Y-10865235D02*
X15613029Y-10849997D01*
X15613029Y-10849997D02*
X15614934Y-10846188D01*
X15614934Y-10846188D02*
X15616839Y-10844283D01*
X15616839Y-10844283D02*
X15620648Y-10842378D01*
X15620648Y-10842378D02*
X15626363Y-10842378D01*
X15626363Y-10842378D02*
X15630172Y-10844283D01*
X15630172Y-10844283D02*
X15632077Y-10846188D01*
X15632077Y-10846188D02*
X15633982Y-10849997D01*
X15633982Y-10849997D02*
X15633982Y-10865235D01*
X15613029Y-10817616D02*
X15613029Y-10809997D01*
X15613029Y-10809997D02*
X15614934Y-10806188D01*
X15614934Y-10806188D02*
X15618744Y-10802378D01*
X15618744Y-10802378D02*
X15626363Y-10800474D01*
X15626363Y-10800474D02*
X15639696Y-10800474D01*
X15639696Y-10800474D02*
X15647315Y-10802378D01*
X15647315Y-10802378D02*
X15651125Y-10806188D01*
X15651125Y-10806188D02*
X15653029Y-10809997D01*
X15653029Y-10809997D02*
X15653029Y-10817616D01*
X15653029Y-10817616D02*
X15651125Y-10821426D01*
X15651125Y-10821426D02*
X15647315Y-10825235D01*
X15647315Y-10825235D02*
X15639696Y-10827140D01*
X15639696Y-10827140D02*
X15626363Y-10827140D01*
X15626363Y-10827140D02*
X15618744Y-10825235D01*
X15618744Y-10825235D02*
X15614934Y-10821426D01*
X15614934Y-10821426D02*
X15613029Y-10817616D01*
X15613029Y-10783331D02*
X15645410Y-10783331D01*
X15645410Y-10783331D02*
X15649220Y-10781426D01*
X15649220Y-10781426D02*
X15651125Y-10779521D01*
X15651125Y-10779521D02*
X15653029Y-10775712D01*
X15653029Y-10775712D02*
X15653029Y-10768093D01*
X15653029Y-10768093D02*
X15651125Y-10764283D01*
X15651125Y-10764283D02*
X15649220Y-10762378D01*
X15649220Y-10762378D02*
X15645410Y-10760474D01*
X15645410Y-10760474D02*
X15613029Y-10760474D01*
X15613029Y-10747140D02*
X15613029Y-10724283D01*
X15653029Y-10735712D02*
X15613029Y-10735712D01*
X18927903Y-4427869D02*
X18887903Y-4427869D01*
X18927903Y-4405012D02*
X18905046Y-4422155D01*
X18887903Y-4405012D02*
X18910760Y-4427869D01*
X18906951Y-4387869D02*
X18906951Y-4374536D01*
X18927903Y-4368821D02*
X18927903Y-4387869D01*
X18927903Y-4387869D02*
X18887903Y-4387869D01*
X18887903Y-4387869D02*
X18887903Y-4368821D01*
X18906951Y-4351679D02*
X18906951Y-4338345D01*
X18927903Y-4332631D02*
X18927903Y-4351679D01*
X18927903Y-4351679D02*
X18887903Y-4351679D01*
X18887903Y-4351679D02*
X18887903Y-4332631D01*
X18927903Y-4315488D02*
X18887903Y-4315488D01*
X18887903Y-4315488D02*
X18887903Y-4300250D01*
X18887903Y-4300250D02*
X18889808Y-4296440D01*
X18889808Y-4296440D02*
X18891713Y-4294536D01*
X18891713Y-4294536D02*
X18895522Y-4292631D01*
X18895522Y-4292631D02*
X18901236Y-4292631D01*
X18901236Y-4292631D02*
X18905046Y-4294536D01*
X18905046Y-4294536D02*
X18906951Y-4296440D01*
X18906951Y-4296440D02*
X18908855Y-4300250D01*
X18908855Y-4300250D02*
X18908855Y-4315488D01*
X18887903Y-4267869D02*
X18887903Y-4260250D01*
X18887903Y-4260250D02*
X18889808Y-4256440D01*
X18889808Y-4256440D02*
X18893617Y-4252631D01*
X18893617Y-4252631D02*
X18901236Y-4250726D01*
X18901236Y-4250726D02*
X18914570Y-4250726D01*
X18914570Y-4250726D02*
X18922189Y-4252631D01*
X18922189Y-4252631D02*
X18925998Y-4256440D01*
X18925998Y-4256440D02*
X18927903Y-4260250D01*
X18927903Y-4260250D02*
X18927903Y-4267869D01*
X18927903Y-4267869D02*
X18925998Y-4271679D01*
X18925998Y-4271679D02*
X18922189Y-4275488D01*
X18922189Y-4275488D02*
X18914570Y-4277393D01*
X18914570Y-4277393D02*
X18901236Y-4277393D01*
X18901236Y-4277393D02*
X18893617Y-4275488D01*
X18893617Y-4275488D02*
X18889808Y-4271679D01*
X18889808Y-4271679D02*
X18887903Y-4267869D01*
X18887903Y-4233583D02*
X18920284Y-4233583D01*
X18920284Y-4233583D02*
X18924094Y-4231679D01*
X18924094Y-4231679D02*
X18925998Y-4229774D01*
X18925998Y-4229774D02*
X18927903Y-4225964D01*
X18927903Y-4225964D02*
X18927903Y-4218345D01*
X18927903Y-4218345D02*
X18925998Y-4214536D01*
X18925998Y-4214536D02*
X18924094Y-4212631D01*
X18924094Y-4212631D02*
X18920284Y-4210726D01*
X18920284Y-4210726D02*
X18887903Y-4210726D01*
X18887903Y-4197393D02*
X18887903Y-4174536D01*
X18927903Y-4185964D02*
X18887903Y-4185964D01*
X15653029Y-4427869D02*
X15613029Y-4427869D01*
X15653029Y-4405012D02*
X15630172Y-4422155D01*
X15613029Y-4405012D02*
X15635886Y-4427869D01*
X15632077Y-4387869D02*
X15632077Y-4374536D01*
X15653029Y-4368821D02*
X15653029Y-4387869D01*
X15653029Y-4387869D02*
X15613029Y-4387869D01*
X15613029Y-4387869D02*
X15613029Y-4368821D01*
X15632077Y-4351679D02*
X15632077Y-4338345D01*
X15653029Y-4332631D02*
X15653029Y-4351679D01*
X15653029Y-4351679D02*
X15613029Y-4351679D01*
X15613029Y-4351679D02*
X15613029Y-4332631D01*
X15653029Y-4315488D02*
X15613029Y-4315488D01*
X15613029Y-4315488D02*
X15613029Y-4300250D01*
X15613029Y-4300250D02*
X15614934Y-4296440D01*
X15614934Y-4296440D02*
X15616839Y-4294536D01*
X15616839Y-4294536D02*
X15620648Y-4292631D01*
X15620648Y-4292631D02*
X15626363Y-4292631D01*
X15626363Y-4292631D02*
X15630172Y-4294536D01*
X15630172Y-4294536D02*
X15632077Y-4296440D01*
X15632077Y-4296440D02*
X15633982Y-4300250D01*
X15633982Y-4300250D02*
X15633982Y-4315488D01*
X15613029Y-4267869D02*
X15613029Y-4260250D01*
X15613029Y-4260250D02*
X15614934Y-4256440D01*
X15614934Y-4256440D02*
X15618744Y-4252631D01*
X15618744Y-4252631D02*
X15626363Y-4250726D01*
X15626363Y-4250726D02*
X15639696Y-4250726D01*
X15639696Y-4250726D02*
X15647315Y-4252631D01*
X15647315Y-4252631D02*
X15651125Y-4256440D01*
X15651125Y-4256440D02*
X15653029Y-4260250D01*
X15653029Y-4260250D02*
X15653029Y-4267869D01*
X15653029Y-4267869D02*
X15651125Y-4271679D01*
X15651125Y-4271679D02*
X15647315Y-4275488D01*
X15647315Y-4275488D02*
X15639696Y-4277393D01*
X15639696Y-4277393D02*
X15626363Y-4277393D01*
X15626363Y-4277393D02*
X15618744Y-4275488D01*
X15618744Y-4275488D02*
X15614934Y-4271679D01*
X15614934Y-4271679D02*
X15613029Y-4267869D01*
X15613029Y-4233583D02*
X15645410Y-4233583D01*
X15645410Y-4233583D02*
X15649220Y-4231679D01*
X15649220Y-4231679D02*
X15651125Y-4229774D01*
X15651125Y-4229774D02*
X15653029Y-4225964D01*
X15653029Y-4225964D02*
X15653029Y-4218345D01*
X15653029Y-4218345D02*
X15651125Y-4214536D01*
X15651125Y-4214536D02*
X15649220Y-4212631D01*
X15649220Y-4212631D02*
X15645410Y-4210726D01*
X15645410Y-4210726D02*
X15613029Y-4210726D01*
X15613029Y-4197393D02*
X15613029Y-4174536D01*
X15653029Y-4185964D02*
X15613029Y-4185964D01*
M02*
